<?xml version="1.0" standalone="no"?>
<!DOCTYPE svg PUBLIC "-//W3C//DTD SVG 1.1//EN" "http://www.w3.org/Graphics/SVG/1.1/DTD/svg11.dtd" >
<svg xmlns="http://www.w3.org/2000/svg">
<metadata></metadata>
<defs>
<font id="komika_title_-_paintregular" horiz-adv-x="701" >
<font-face units-per-em="1000" ascent="800" descent="-200" />
<missing-glyph horiz-adv-x="386" />
<glyph horiz-adv-x="1000" />
<glyph horiz-adv-x="1000" />
<glyph unicode="&#xd;" horiz-adv-x="386" />
<glyph unicode=" "  horiz-adv-x="386" />
<glyph unicode="&#x09;" horiz-adv-x="386" />
<glyph unicode="&#xa0;" horiz-adv-x="386" />
<glyph unicode="!" horiz-adv-x="394" d="M406 913q-23 17 -54.5 31t-57.5 22h2q-17 7 -33 7q-21 0 -32.5 -11.5t-20.5 -36.5q-20 -57 -43.5 -132.5t-47 -156.5t-45 -159.5t-35.5 -141.5q-6 -23 -6 -35q0 -21 16.5 -40t40.5 -32.5t51 -21.5t48 -8q18 0 29 10.5t17 35.5v-1q19 64 42.5 135t49.5 145.5t53.5 149 t53.5 144.5l-1 -1q4 11 6.5 20t2.5 17q0 33 -36 60zM-35 95q-1 -5 -1.5 -10.5t-0.5 -12.5q0 -55 33.5 -84t81.5 -29h1q40 0 66.5 18t41.5 41t21 45t6 30q0 18 -7 39t-22.5 39t-39.5 30t-58 12q-26 0 -47 -10t-37 -26t-25.5 -37.5t-12.5 -43.5v-1z" />
<glyph unicode="&#x22;" horiz-adv-x="556" d="M507 631q14 15 31 37.5t34 48.5t32 52.5t25 49.5v-1q1 2 1 3q0 2 1 4q5 17 7.5 26t2.5 8v6q0 25 -24.5 51t-54.5 44l2 -1q-22 16 -41 16q-29 0 -45 -33q-11 -22 -27.5 -51.5t-34.5 -61.5l-36 -64t-32.5 -58.5t-23.5 -44.5t-9 -22q0 -26 25 -36t70 -10q28 0 51.5 8 t44.5 29h1zM296 667q11 17 25.5 40.5t28.5 51.5v-1q10 18 19 39t15.5 40.5t10.5 36.5t4 28v5q-1 15 -10 28.5t-22 25t-28.5 21t-30.5 17.5l1 -1q-21 12 -38 12q-16 0 -27.5 -9t-16.5 -30v1q-10 -31 -25 -70.5t-31 -79.5t-31.5 -77t-26.5 -62q-4 -8 -5 -12.5t-1 -9.5 q0 -44 71 -44q13 0 25.5 1.5t22.5 3.5h-1q22 3 39 14.5t31 29.5z" />
<glyph unicode="#" horiz-adv-x="727" d="M704 527q24 3 36 10t12 24q0 10 -11 29l1 -1q-8 14 -15 25t-16.5 19t-22 13t-30.5 8q13 23 21 49t8 46q0 17 -8.5 37t-22 37t-31.5 28.5t-36 11.5q-17 0 -32 -20.5t-29 -52.5t-27.5 -70t-26.5 -72q-17 -1 -36 -3.5t-38 -2.5q4 9 7 18t5 17v-1q10 23 10 46q0 16 -9 36.5 t-23 37.5t-31.5 29t-35.5 12t-33 -21t-29 -53.5t-26.5 -71t-24.5 -73.5q-36 -8 -67.5 -12t-62.5 -13h1q-23 -5 -33.5 -12.5t-10.5 -23.5q0 -8 3.5 -15.5t8.5 -16.5l-1 1q18 -33 39 -51.5t60 -18.5h9q-7 -23 -12.5 -44t-13.5 -43q-11 -2 -20.5 -4t-20.5 -4l1 1 q-22 -5 -41 -9.5t-32.5 -9.5t-21.5 -13t-8 -21q0 -19 10 -36.5t25.5 -31t33 -22t32.5 -9.5q-2 -9 -2 -17v-15q0 -20 7.5 -39.5t21 -35t31.5 -25t38 -9.5q17 0 29.5 20t22 48.5t16.5 58t13 49.5q21 5 40.5 6.5t42.5 6.5q-4 -19 -7.5 -35t-3.5 -33q1 -16 8 -33.5t19.5 -32.5 t29.5 -24.5t38 -9.5q15 0 24.5 10.5t16.5 27.5t13 38t13 43v-1q6 17 12 37t13 42l25 2q22 2 42 4t35 6t24 11.5t9 21.5q0 10 -11 30h1q-15 27 -31 41t-48 18q9 25 18 49.5t17 48.5q24 2 49.5 4t48.5 4h1zM393 411q-18 -2 -37.5 -4.5t-39.5 -5.5q7 21 13.5 42t14.5 44 q18 3 36.5 5t37.5 5h3q-7 -21 -13.5 -41.5t-14.5 -44.5z" />
<glyph unicode="$" horiz-adv-x="550" d="M232 791q-38 -22 -71 -54.5t-58 -69.5t-39.5 -75t-14.5 -69q0 -40 15 -72t39 -58t53.5 -48t58.5 -41q24 -17 41.5 -28.5t22.5 -17.5q-3 -2 -8 -2h-10q-24 0 -57.5 13t-71.5 39l2 -1q-13 11 -32.5 17.5t-40.5 6.5q-16 0 -31 -4t-28 -13h1q-24 -14 -24 -40v-4q0 -23 29 -61 l-1 1q20 -26 41 -44t42 -32q-5 -20 -8 -40.5t-3 -43.5q0 -21 5.5 -44t16.5 -43t28 -33t40 -13q14 0 23.5 9t15.5 30q5 26 15.5 61t21.5 71h12q61 0 101.5 22.5t65 53t34.5 60.5t10 45q0 37 -20.5 65t-50.5 52.5t-63.5 47t-59.5 48.5h1q-16 19 -16 40q0 19 8.5 39t20.5 36.5 t25.5 28t24.5 14.5v-1q0 -11 -2.5 -24l-5 -26t-5 -24t-2.5 -17q-1 -4 -1.5 -8.5t-0.5 -11.5q0 -42 26 -67.5t66 -43.5q10 -3 19 -3q22 0 38.5 20t27.5 50t18 65t9 66v-1q1 5 1 10v12q0 22 -8.5 46.5t-34.5 50.5h1q-8 6 -14.5 12.5t-14.5 11.5q5 15 9 30t8 29l3 12v-1 q4 11 5 21t1 20q0 33 -15.5 58.5t-41.5 44.5h1q-17 14 -36 14q-20 0 -32 -14.5t-21.5 -38.5t-20 -55.5t-27.5 -65.5q-16 -2 -30 -7.5t-26 -12.5z" />
<glyph unicode="%" horiz-adv-x="901" d="M790 708q32 36 32 75q0 15 -6 33t-16.5 33.5t-23.5 26t-28 10.5q-20 0 -38 -19q-23 -24 -50 -42t-54 -31t-52.5 -19.5t-44.5 -6.5q-26 0 -42.5 9.5t-28 23t-19.5 28t-17 24.5q-17 15 -40 26t-54 18h1q-6 2 -11 2h-8q-49 0 -90 -31.5t-70.5 -78.5t-46 -100.5t-16.5 -97.5 q0 -54 18.5 -88.5t45.5 -54.5t58 -28t55 -8q39 0 70 16.5t55 44.5q-37 -45 -71.5 -89t-65 -83.5t-56 -73.5t-43.5 -59q-16 -23 -22.5 -42t-6.5 -36q0 -14 7 -30t17.5 -30.5t24 -24t27.5 -9.5q10 0 18.5 5.5t19.5 16.5q27 38 70 93.5t95 119.5t109.5 132t112 132t103 119 t82.5 93v1zM778 434q-8 6 -21 14t-29 14.5t-32 11.5t-29 5q-35 0 -65.5 -15t-55.5 -40.5t-44.5 -58t-33 -67.5t-20.5 -69.5t-7 -63.5q0 -46 14.5 -82.5t46.5 -56.5v1q19 -14 41 -21t45 -11h-1q7 -2 14 -2h15q36 0 65 15t52 40t40 57t28 66.5t16.5 69t5.5 63.5q0 37 -8 69 t-37 61zM304 737q-2 -20 -9 -45.5t-12 -53.5l1 2q-17 -53 -34 -80.5t-29 -27.5q-1 0 -2 1q-2 0 -2 22q0 20 6 49t17 63v-1q6 17 14.5 34.5t18 32.5t18 26t14.5 14v-16q0 -5 -0.5 -10t-0.5 -10zM679 338q0 -36 -11 -76t-26 -73.5t-30 -55.5t-22 -23q-5 2 -5 22v13 q2 21 11.5 52.5t23 63t29 57t30.5 34.5v-14zM445 662q20 -4 42 -4q20 0 38 3q-36 -43 -73.5 -87.5t-74.5 -89.5q29 38 46 85.5t22 92.5zM305 776v-1q-4 2 -6 5zM681 354h-1l-4 4z" />
<glyph unicode="&#x26;" horiz-adv-x="787" d="M503 45q28 -25 46 -34.5t41 -9.5q31 0 51 11.5t40 25.5l-1 -1q14 10 21.5 19.5t7.5 22.5q0 7 -5.5 17t-14 20.5t-18.5 21.5l-20 22v-1l-17 18q13 10 26 27.5t23 38t16 41t6 38.5q0 13 -3.5 27t-10 25.5t-16.5 18.5t-23 7t-29 -9t-33.5 -22t-35 -28t-33.5 -27 q-17 23 -33 45t-32 46q50 29 97.5 61t79.5 66h-1q70 73 70 155q0 84 -71 163q-42 48 -81 65t-81 17t-86 -11t-84.5 -32t-74.5 -51t-56 -67v1q-40 -65 -40 -129q0 -16 2.5 -35.5t8.5 -41t15 -43t22 -40.5q1 -4 5 -14q-47 -28 -86 -58.5t-67 -63.5t-43.5 -68.5t-15.5 -72.5 q0 -38 19.5 -80t65.5 -80t90.5 -51.5t86.5 -14.5q31 0 59.5 6.5t54.5 14.5h-1q39 9 75 24t69 35zM355 616q0 21 11.5 42t30 39t43 32t51.5 22q9 -15 9 -31q0 -24 -12 -45.5t-31 -40t-44 -34.5t-50 -30q-5 12 -6.5 23.5t-1.5 22.5zM214 166q-12 0 -16 1.5t-4 10.5v2 q2 22 23.5 52t70.5 68q17 -23 32.5 -44.5t33.5 -44.5q-45 -22 -80.5 -33.5t-59.5 -11.5z" />
<glyph unicode="'" horiz-adv-x="300" d="M266 626q13 15 30 37.5t33.5 48t31 51.5t23.5 49v-1q0 20 5.5 30.5t5.5 9.5v5q0 11 -10 29.5t-26.5 36.5t-36.5 31t-39 13q-15 0 -25 -8t-18 -25q-14 -28 -33.5 -65t-39.5 -74.5t-39 -72t-32 -58.5v1q-10 -14 -10 -30q0 -28 26 -36t64 -8q28 0 48 6t43 31z" />
<glyph unicode="(" horiz-adv-x="352" d="M279 970q-57 -65 -101.5 -141.5t-75.5 -158.5t-47 -167.5t-16 -169.5q0 -72 12.5 -144t40.5 -134q12 -27 28.5 -45t34.5 -29t37 -15.5t38 -4.5h12q23 4 32.5 11t9.5 24q0 8 -6 23q-22 54 -31.5 111.5t-9.5 117.5q0 66 11 133.5t30.5 132.5t47 125.5t60.5 113.5 q27 43 27 91q0 18 -7 44t-19 50t-28.5 41t-35.5 17q-23 0 -44 -26z" />
<glyph unicode=")" horiz-adv-x="399" d="M364 797q-12 64 -53.5 111t-118.5 61h1q-12 3 -24 3q-24 0 -33 -12.5t-9 -32.5q0 -14 3 -26q10 -48 15.5 -97.5t5.5 -100.5q0 -93 -15.5 -189.5t-44 -185.5t-68.5 -166t-90 -132q-15 -18 -15 -35q0 -22 18.5 -29.5t51.5 -7.5q38 0 70.5 11t58.5 36q57 55 104 132t81 166 t52.5 184.5t18.5 186.5q0 66 -9 123z" />
<glyph unicode="*" horiz-adv-x="717" d="M670 569q40 6 40 38q0 14 -10 30q-19 29 -44 45t-68 16q-18 0 -34 -2t-33 -5h1q-3 -1 -6 -1t-7 -1q13 32 22 56t9 44q0 32 -17 56.5t-46 44.5q-9 6 -17 10t-18 4q-17 0 -32 -20t-27 -48t-21.5 -57.5t-15.5 -47.5q-9 6 -17.5 17t-20.5 22v-1q-23 23 -47 33.5t-50 10.5 q-14 0 -31 -3.5t-32 -10.5t-25 -17.5t-10 -23.5q0 -14 14 -32.5t33 -38t39 -38t33 -30.5q-44 -12 -79.5 -23.5t-64.5 -22.5h1q-21 -7 -30 -15.5t-9 -22.5q0 -16 11.5 -33t29.5 -31t39 -23t39 -9q23 0 50 9.5t51 17.5l-8 -32t-4 -33q0 -39 18.5 -60.5t47.5 -35.5 q21 -11 35 -11q16 0 29 23.5t22 52t14 52.5t5 26q11 -10 23 -19.5t26 -18.5h-1q48 -39 90 -39q16 0 34 4.5t32.5 12.5t24 18t9.5 21q0 13 -16.5 31t-37 35t-39.5 31t-24 18q29 8 58.5 14.5t61.5 12.5z" />
<glyph unicode="+" horiz-adv-x="737" d="M668 392q0 1 -4 22.5t-15.5 46.5t-31.5 46t-53 22q-12 1 -27 1h-29h-39q7 14 12 28t12 28v-1q10 19 10 35q0 14 -6 24t-17 22v-1q-8 9 -22 20t-30 20.5t-32 16t-26 6.5q-23 0 -39.5 -18t-30 -47.5t-25 -67t-24.5 -76.5q-59 -4 -110.5 -10t-89.5 -14q-20 -2 -38 -13.5 t-18 -34.5q0 -16 9.5 -39.5t25 -45t35 -37t38.5 -15.5h11t14 2q17 2 34 5.5t34 5.5q-5 -31 -11 -54.5t-6 -38.5q0 -19 9.5 -34t26.5 -26h-1q25 -17 54.5 -32.5t48.5 -15.5q16 0 27.5 20t21.5 52.5t19.5 72t22.5 78.5q54 6 105.5 7t105.5 4q26 0 37.5 8t11.5 28z" />
<glyph unicode="," horiz-adv-x="297" d="M73 -122q15 15 37 40.5t43 53t36 53.5t15 42t-10 30.5t-25 27t-33 23.5t-33 20l1 -1q-20 12 -36 12q-14 0 -26 -7.5t-21 -24.5q-25 -54 -60 -111t-67 -108q-10 -18 -10 -29q0 -14 11 -24.5t28.5 -17.5t37.5 -10t38 -3h7q20 2 34.5 8.5t32.5 25.5z" />
<glyph unicode="-" horiz-adv-x="587" d="M-20 538q-44 -8 -44 -44q0 -20 13.5 -47t33.5 -51.5t42.5 -41.5t40.5 -17q10 0 22 4q72 17 155 26t164 14q26 1 38 8.5t12 27.5q0 -1 -2.5 10t-8 28t-14.5 37t-22.5 37.5t-32 29.5t-43.5 12q-45 0 -94.5 -3t-97 -7.5t-90 -10.5t-72.5 -12z" />
<glyph unicode="." horiz-adv-x="302" d="M-19 94q-1 -5 -1 -10v-11q0 -45 28.5 -71.5t71.5 -26.5h7q37 0 60 15.5t36.5 34.5t19 36.5t6.5 22.5q0 2 0.5 4t0.5 4v5q0 15 -6.5 32.5t-20.5 32.5t-35 24.5t-51 9.5q-24 0 -44 -8.5t-35 -22.5t-24.5 -32.5t-12.5 -38.5z" />
<glyph unicode="/" horiz-adv-x="534" d="M589 855q-20 19 -40 35t-41 30q-23 15 -42 15q-30 0 -54 -34l1 1q-28 -38 -67.5 -101t-84 -138.5t-90.5 -157.5t-87.5 -157t-74.5 -136.5t-51 -96.5q-7 -14 -11 -27.5t-4 -24.5v-3q1 -14 6.5 -25.5t19.5 -22.5q14 -9 28 -19.5t37 -26.5h-1q19 -12 38 -12q16 0 26.5 9 t19.5 26l-1 -1q25 43 63 106.5t83 137t93 151.5t93 150t84 131.5t64 97.5v-1q18 25 18 45q0 24 -25 49z" />
<glyph unicode="0" horiz-adv-x="691" d="M607 841q-15 12 -38.5 24.5t-51 22t-57 15.5t-57.5 6q-35 0 -72.5 -12t-67.5 -34q-65 -49 -114 -118t-82 -147t-49.5 -160t-16.5 -157q0 -38 4.5 -75t14.5 -73q17 -45 51.5 -74t75 -45.5t83 -23t76.5 -6.5q63 0 116 31.5t95 84t73.5 120t52 139t31 141.5t10.5 128 q0 31 -2.5 60t-11 55.5t-23.5 51t-40 45.5v1zM443 714q7 -2 9.5 -18t2.5 -42q0 -56 -11.5 -120t-28.5 -121v1q-15 -53 -34.5 -98.5t-40 -78.5t-41 -51.5t-37.5 -18.5q-6 0 -8 1h2q-14 5 -19.5 28t-5.5 58q0 40 10 89.5t26.5 100.5t38 99.5t44.5 86.5t47 61t44 23h2z" />
<glyph unicode="1" horiz-adv-x="377" d="M400 761q5 11 7 18.5t2 15.5q0 21 -20.5 41t-48.5 36t-56 25.5t-43 9.5t-34.5 -15t-39 -38.5t-38 -51.5t-31.5 -54h1q-6 -11 -9 -20t-3 -18q0 -18 9.5 -29t31.5 -23q-20 -67 -40.5 -144.5t-38.5 -152t-31.5 -138.5t-19.5 -104l1 2q-3 -11 -3.5 -19.5t-0.5 -16.5 q0 -27 14.5 -45t35 -28.5t41.5 -16t34 -7.5q18 -6 29 -6q18 0 26 8.5t15 27.5q11 49 27 110.5t34 129t38 138t39.5 137t38 125.5t34.5 104z" />
<glyph unicode="2" horiz-adv-x="627" d="M605 514q29 46 47.5 89t18.5 88q0 25 -13.5 62.5t-42.5 72t-75 59.5t-112 25q-44 0 -88 -15t-85.5 -41t-78.5 -63t-67 -80q-16 -25 -23 -43t-7 -32q0 -19 11.5 -31.5t29.5 -19.5t39.5 -10t41.5 -3q27 0 56 8t55 27q20 18 39.5 35t37.5 30t33 21t26 8h1q-3 -17 -25.5 -51 t-58.5 -77.5t-83.5 -93.5t-100.5 -100.5t-108 -98.5t-106 -86q-17 -14 -23.5 -27.5t-6.5 -27.5q0 -17 9 -36t23 -38t30 -36.5t31 -30.5l-2 1q11 -12 23.5 -19.5t36.5 -7.5q8 0 31.5 3.5t57.5 9.5t74.5 12.5t82.5 13t82 11.5t72 7q26 4 37.5 11t11.5 30q0 8 -3.5 21.5 t-9.5 28t-13 29t-14 25.5v-1q-14 24 -32.5 34.5t-44.5 10.5h-4q-19 -1 -42.5 -2.5t-49.5 -3.5q42 34 83 72.5t78 78t68 78t52 73.5z" />
<glyph unicode="3" horiz-adv-x="657" d="M597 523q30 26 49 66t19 88q0 33 -12 71t-41 75q-44 55 -90.5 73.5t-88.5 18.5q-44 0 -86.5 -13t-81 -33.5t-71.5 -46.5t-56 -53q-8 -11 -13 -21t-5 -21q0 -18 12.5 -33.5t32.5 -27.5t45 -18.5t51 -6.5q49 0 85 24h-1q26 16 54 30t47 14h5q2 -2 2 -4q0 -13 -18 -32 t-56.5 -42.5t-97 -49.5t-139.5 -53q-39 -14 -39 -48q0 -18 10 -37v1q24 -49 63.5 -76.5t85.5 -27.5h10t10 1q11 1 20.5 1.5t17.5 0.5q9 0 18.5 -1.5t17 -6t12 -12.5t4.5 -22q0 -19 -9.5 -41t-30.5 -45h1q-22 -22 -45 -33.5t-50 -11.5q-47 0 -116 38h1q-35 23 -82 23 q-40 0 -73 -21l2 1q-14 -8 -23 -18.5t-9 -27.5q0 -14 9.5 -31.5t32.5 -40.5q33 -35 67.5 -58t69.5 -37t69.5 -20t67.5 -6q44 0 84.5 6.5t77.5 22t70.5 41t64.5 63.5q54 68 54 149q0 43 -18 83.5t-56 77.5v-1q-11 11 -23.5 19t-25.5 15q71 36 115 75z" />
<glyph unicode="4" horiz-adv-x="718" d="M608 463q26 80 49.5 151t43.5 125l-1 -1q9 22 9 35q0 17 -8.5 29t-28.5 26q-25 15 -55.5 31t-60 29.5t-53.5 22.5t-35 9q-15 0 -28 -5.5t-31 -19.5q-45 -38 -101.5 -93.5t-113 -117t-107 -122.5t-83.5 -111l1 1q-22 -31 -22 -59q0 -17 8.5 -36t22 -37.5t29.5 -36.5 t31 -33h-1q14 -16 29 -22t32 -6q10 0 17.5 1t15.5 3h-1q30 5 60.5 9t63.5 8l17 2q-17 -60 -27.5 -103t-10.5 -61q0 -25 18 -45.5t43 -34.5t51.5 -22t44.5 -8q20 0 29.5 10.5t16.5 33.5q14 54 32.5 117.5t41.5 135.5q25 1 49 1.5t42.5 4.5t30 13.5t11.5 29.5q0 11 -3.5 21.5 t-5.5 20.5q-3 13 -7.5 27.5t-12 28t-18 25t-26.5 17.5q1 2 1 3t1 3zM430 639q-9 -28 -18 -56.5t-19 -57.5v1q-6 -18 -12 -36.5t-11 -37.5q-33 -2 -65.5 -4.5t-61.5 -4.5q43 49 91 99.5t96 96.5z" />
<glyph unicode="5" horiz-adv-x="596" d="M442 676h-1q48 5 91 10.5t84 10.5q29 4 42 12.5t13 31.5q0 6 -3 23l1 -1q-5 24 -7.5 46.5t-13.5 46.5l1 -2q-20 49 -76 49h-11q-66 -2 -134.5 -7t-141.5 -16q-59 -10 -87 -61q-46 -94 -80 -174t-55 -144v1q-4 -11 -5.5 -21.5t-1.5 -19.5q0 -17 6 -29.5t15 -22t19.5 -16.5 t18.5 -13q14 -9 27 -21h-1q11 -11 20 -15.5t23 -4.5q7 0 19 3t27 6.5t31.5 6.5t34.5 3q13 0 20.5 -0.5t11.5 -4.5t4.5 -12t0.5 -23q0 -20 -7.5 -45t-20.5 -47t-31.5 -37.5t-40.5 -15.5q-17 0 -37.5 9t-47.5 30q-15 12 -37 18.5t-46 6.5q-18 0 -37 -4.5t-34.5 -12.5t-26 -21 t-10.5 -29q1 -26 38 -71l-1 1q19 -32 44.5 -53t55 -34t62 -18.5t66.5 -5.5h4q61 1 108.5 18t82.5 42t57.5 53.5t34.5 52.5q45 90 45 161q0 49 -19.5 86.5t-51.5 64.5t-73.5 42.5t-85.5 20.5q14 34 30.5 69.5t33.5 69.5q13 2 26 3.5t27 3.5z" />
<glyph unicode="6" horiz-adv-x="614" d="M575 779q14 12 20 23t6 22q0 29 -45 52.5t-114 38.5l1 -1q-11 3 -18.5 4t-13.5 1q-20 0 -32 -7.5t-31 -21.5q-99 -81 -166.5 -169t-110 -173t-63.5 -160.5t-25 -130.5v1q-2 -10 -2 -21v-21q0 -44 17.5 -86.5t52.5 -76.5t87.5 -54.5t123.5 -20.5q39 0 69 10t54 27 q32 22 63.5 58t56.5 81t40.5 97.5t15.5 106.5v7q0 27 -6 52t-20 47t-39 41t-62 36q-33 13 -68 18q44 60 96 115.5t113 104.5zM323 385q12 0 17.5 -8t5.5 -21q0 -30 -14.5 -64t-34.5 -62.5t-41.5 -47.5t-35.5 -19q-26 0 -26 34q0 20 8.5 50.5t22.5 68.5q24 32 50.5 50.5 t47.5 18.5z" />
<glyph unicode="7" horiz-adv-x="647" d="M65 147q-7 -16 -11 -28.5t-4 -23.5q0 -23 18 -46t41.5 -42t47.5 -30.5t36 -11.5q26 0 44 34l-1 -1q46 84 101 174t113 177.5t117 170t114 151.5q24 30 24 61q0 26 -18 52l1 -2q-12 20 -25 40t-36 48l2 -2q-19 29 -40.5 37t-53.5 8q-47 -2 -101.5 -5.5t-109 -9 t-105.5 -13.5t-90 -18q-17 -4 -28 -11.5t-11 -25.5q0 -8 5 -15t5 -15l-1 1q0 -13 9 -29.5t20 -31t19 -23.5t7 -7q17 -18 36 -26t39 -8q17 0 31.5 3t34.5 5q26 3 56.5 7t60.5 8q-97 -130 -188 -272.5t-159 -279.5z" />
<glyph unicode="8" horiz-adv-x="661" d="M654 566q21 29 30.5 58t9.5 58q0 42 -22 83.5t-58 74.5t-80.5 53.5t-89.5 20.5q-44 0 -89 -17.5t-86.5 -45t-76 -62.5t-57.5 -69q-37 -58 -37 -115q0 -79 69 -141q-39 -26 -74.5 -55t-62 -62t-42 -71.5t-15.5 -81.5q0 -42 19.5 -81t56.5 -69t90.5 -47.5t121.5 -17.5 q67 0 134 27t119 92q34 42 53.5 86t20.5 87q0 42 -21 83t-71 82q52 31 92.5 62t65.5 69v-1zM346 293q0 -18 -8.5 -36.5t-21.5 -38.5h1q-22 -32 -46 -49t-44 -17q-8 0 -11 1h1q-8 3 -13 10t-5 18q0 17 10.5 37t28.5 41t41.5 40.5t48.5 36.5q18 -23 18 -43zM466 693 q0 -26 -34 -58t-99 -74q-4 8 -4 19q0 31 30 68.5t90 77.5q17 -17 17 -33z" />
<glyph unicode="9" horiz-adv-x="611" d="M30 125q-14 -11 -19.5 -21.5t-5.5 -21.5q0 -24 21 -43.5t47 -33t49.5 -20.5t28.5 -7q17 0 31 7t32 18q57 39 110.5 89.5t100.5 107.5t85.5 118t66.5 120t43.5 114.5t16.5 101.5v5q0 45 -12 79.5t-34.5 61.5t-56 49t-76.5 41q-63 25 -112 25q-45 0 -79.5 -14.5 t-61.5 -31.5q-35 -25 -66.5 -64t-55.5 -86.5t-38.5 -99.5t-14.5 -103q0 -10 0.5 -19t1.5 -17v1q5 -66 38.5 -109.5t110.5 -71.5l-1 1q6 -4 11.5 -5.5t10.5 -2.5q-77 -93 -172 -168zM284 454q-13 0 -22 7t-9 34q0 20 6.5 45.5t17.5 53.5v-1q11 25 25 48t29 40.5t29.5 28 t26.5 10.5q1 0 1 -1h2q10 -4 10 -30q0 -35 -19.5 -91t-55.5 -124q-12 -11 -22 -15.5t-19 -4.5z" />
<glyph unicode=":" horiz-adv-x="353" d="M60 455q-1 -5 -1 -11v-10q0 -26 9 -47t24 -36t35.5 -23t44.5 -8h2q42 0 67.5 18.5t39 42t18 44.5t4.5 26v9q0 17 -7 36t-21.5 34.5t-37 26t-53.5 10.5q-24 0 -45 -9t-37.5 -24.5t-27 -36t-14.5 -42.5zM-32 118q-3 -11 -4 -19.5t-1 -16.5q0 -45 26.5 -72.5t68.5 -35.5h-1 q12 -3 28 -3q53 0 84.5 35.5t31.5 90.5q0 18 -5.5 39t-19 39t-36.5 30t-59 12q-46 0 -75.5 -29t-38.5 -71z" />
<glyph unicode=";" horiz-adv-x="370" d="M106 -158q10 15 22.5 38t25 49.5t24.5 54t20 51.5l-1 -1q8 19 8 36q0 28 -18 53.5t-52 50.5h1q-23 20 -45 34t-40 14q-32 0 -42 -42q-20 -75 -44.5 -146t-47.5 -136q-5 -17 -5 -27q0 -38 40 -54l-1 1q20 -9 40.5 -15t40.5 -6h9q21 3 36.5 13t29.5 33zM-9 548 q2 -35 13.5 -63.5t29.5 -49.5t40.5 -32.5t47.5 -11.5h2q26 0 44.5 10t31 24.5t20 32.5t11 33.5t4.5 27t1 13.5q0 21 -6.5 48t-22.5 51t-42 40.5t-65 16.5q-24 0 -44.5 -11.5t-34.5 -30.5t-22 -44t-8 -51v-3z" />
<glyph unicode="&#x3c;" horiz-adv-x="513" d="M448 497q38 12 38 38q0 16 -13 36t-31.5 37t-38 28.5t-31.5 11.5q-14 0 -29.5 -4t-36.5 -12h2q-25 -7 -55 -18.5t-59.5 -25t-57 -27t-46.5 -24.5l3 1q-17 -6 -28 -17t-18 -25t-11 -29.5t-7 -30.5l-5 -25v1q-4 -8 -4.5 -17.5t-0.5 -19.5q2 -10 8.5 -19t17.5 -14 q72 -32 143 -63t134 -67h-1q10 -6 18 -9.5t17 -3.5q13 0 23 9t17 23.5t12 32.5t9 37l-1 -1q2 6 2 9v6q0 19 -11 33.5t-30.5 27.5t-45.5 24.5t-55 25.5q45 20 87 37.5t86 33.5h-1z" />
<glyph unicode="=" horiz-adv-x="655" d="M143 210q98 17 197 26.5t201 13.5q26 1 38 8.5t12 27.5q0 12 -8.5 39t-23.5 49l1 -3q-17 42 -72 42h-34q-45 0 -94.5 -2t-100 -6t-99 -10t-91.5 -13q-22 -4 -36 -15.5t-14 -31.5q0 -17 12.5 -43.5t30.5 -51.5h-1q11 -17 25 -24.5t34 -7.5q6 0 11 0.5t11 1.5h1zM174 436 q72 9 144.5 12.5t145.5 3.5q30 0 61 -1t61 -1q43 0 43 37q0 20 -6.5 37t-13.5 35v-1q-8 28 -32 41.5t-57.5 19t-74.5 5t-81 -0.5q-66 0 -131.5 -3t-119.5 -10q-22 -2 -38 -14t-16 -35q0 -16 10.5 -42t24.5 -48h-1q11 -21 24.5 -28.5t36.5 -7.5h10t10 1z" />
<glyph unicode="&#x3e;" horiz-adv-x="549" d="M518 449q5 14 5 27q0 19 -9.5 28t-26.5 19q-39 20 -81.5 40t-84 38t-79.5 32.5t-67 24.5l1 -1q-8 3 -14.5 4t-11.5 1q-15 0 -25 -8.5t-16 -22.5t-8.5 -31t-2.5 -34q0 -41 12.5 -58.5t41.5 -26.5h-1q44 -16 88 -35q-38 -12 -77 -23.5t-71 -24.5t-52 -28t-20 -32 q0 -10 8.5 -24t20 -28t24.5 -27t22 -20q22 -18 43 -18q10 0 17.5 2.5t16.5 7.5h-1q57 25 117.5 45.5t137.5 43.5q22 7 36 18.5t24 28t17.5 37t15.5 45.5z" />
<glyph unicode="?" horiz-adv-x="682" d="M163 231q25 -14 56.5 -27.5t56.5 -13.5q22 0 34 10t14 34q14 63 48.5 102t76.5 67.5t85 54t75 61.5q28 31 49 73.5t21 93.5q0 35 -12.5 72.5t-42.5 77.5v-1q-14 20 -34.5 38.5t-46.5 33t-57.5 23t-66.5 8.5q-87 0 -167 -47.5t-146 -134.5q-19 -25 -27 -42.5t-8 -31.5 q0 -18 12.5 -31t31 -21t40 -12t38.5 -4q39 0 76 21t71 46t65 46t58 21q8 0 14 -3.5t7 -13.5q0 -26 -28 -59.5t-100 -78.5q-31 -19 -66.5 -43.5t-67.5 -57t-57 -74.5t-34 -96q-2 -8 -3 -15t-1 -16q0 -20 7.5 -33.5t27.5 -25.5zM55 98q-2 -7 -2 -14v-14q0 -28 10.5 -49 t28.5 -35t42.5 -21t51.5 -7q28 0 49 8t36 21.5t25 31t15 36.5q0 2 1 4l1 28q0 15 -6 34.5t-21 36.5t-41.5 29t-66.5 12q-26 0 -47 -8t-36.5 -22t-26 -32.5t-13.5 -39.5v1z" />
<glyph unicode="@" horiz-adv-x="910" d="M850 357q32 84 32 170q0 53 -13.5 103t-41 93.5t-70.5 78.5t-103 57l1 -1q-39 17 -80.5 24.5t-84.5 7.5q-82 0 -165 -31.5t-150.5 -93.5t-110 -155t-42.5 -217q0 -77 22 -138t58 -106.5t82 -76t93 -46.5h-1q39 -14 73 -20t64 -6q20 0 40.5 2.5t36.5 8t26 15t10 24.5 q0 6 -2.5 13.5t-9.5 14.5h1q-23 27 -50 38.5t-55.5 16t-57.5 5.5t-55 9q-18 5 -39 19.5t-38.5 39t-29.5 59t-12 80.5q0 31 6.5 67.5t22.5 81.5q25 70 62.5 122.5t81 87t90.5 51.5t92 17q55 0 91.5 -19t58 -48.5t30 -65.5t8.5 -70q0 -40 -7 -78t-16 -68v1q-29 -80 -58 -122.5 t-46 -42.5h-1q2 0 2 4v5q2 21 11 54.5t20 68t21 65t14 45.5q7 18 7 35q0 18 -9.5 31.5t-32.5 28.5q-11 42 -44.5 67.5t-76.5 25.5q-36 0 -73.5 -17.5t-71.5 -48t-63 -73.5t-48 -94q-22 -59 -22 -106q0 -48 18.5 -79.5t45.5 -50.5t58 -27t55 -8q47 0 81 22q28 -37 78 -50h-2 q31 -12 66 -12q30 0 60.5 10.5t59.5 35.5t55 65.5t48 100.5zM393 301h-1q-10 2 -10 23q0 39 18 82.5t42 80t48 61.5t36 28q1 -2 1.5 -4.5t2.5 -5.5q-18 -56 -37.5 -104t-37.5 -84t-34 -56.5t-28 -20.5z" />
<glyph unicode="A" horiz-adv-x="728" d="M440 76q2 -40 13.5 -56.5t42.5 -26.5l-1 1q26 -11 50 -13t52 -2q37 0 49 12t12 44q3 96 7 202.5t9.5 208.5t12 193t14.5 157v-1q1 5 1 10v11q0 26 -11 42.5t-42 27.5l-18 5q-35 12 -81.5 23.5t-115.5 11.5q-41 0 -64.5 -17.5t-40.5 -43.5q-45 -70 -98.5 -164t-107 -194 t-102 -196.5t-82.5 -172.5q-7 -17 -9.5 -30t-2.5 -24q0 -16 8 -28.5t20.5 -23t28.5 -19.5t32 -17l12 -6q19 -8 35 -8q18 0 33 18t30 45.5t29.5 60t30.5 60.5q50 13 115.5 23.5t133.5 20.5l2 -20q0 -65 3 -114zM452 644q-4 -54 -7 -110t-6 -113q-31 -2 -61 -5t-61 -8 q35 64 69.5 123.5t65.5 112.5z" />
<glyph unicode="B" horiz-adv-x="704" d="M648 497q42 36 71.5 83t29.5 101q0 29 -7 55.5t-19 50t-27 44t-31 38.5q-27 29 -76 42t-106 13q-44 0 -92.5 -7t-95.5 -19t-91.5 -28t-80.5 -34q-11 -77 -29.5 -162t-38.5 -169.5t-39.5 -165t-31.5 -149.5q-2 -11 -3.5 -20.5t-1.5 -19.5q0 -23 8 -37.5t22 -33.5l-1 1 q23 -34 51.5 -54.5t57.5 -34.5q18 -13 33 -19t33 -6q24 0 60 12h-1q38 11 81 27t85.5 36t81 44t66.5 51h-1q40 34 60.5 69t20.5 83q0 40 -19 81.5t-50 67.5q23 15 42.5 30t38.5 30zM326 564q10 32 19.5 61.5t19.5 56.5q39 17 72 25t57 8q34 0 34 -8q0 -13 -14.5 -33t-42 -43 t-66.5 -46.5t-87 -42.5q3 10 8 22zM342 342q26 0 40 -5t16 -13q0 -15 -14 -32t-38.5 -34t-59 -33.5t-76.5 -29.5q10 32 19.5 63t19.5 66q55 18 93 18z" />
<glyph unicode="C" horiz-adv-x="648" d="M517 275q-16 5 -30.5 7.5t-28.5 2.5q-65 0 -115 -52q-69 -75 -100 -75h-4q-12 5 -17 24.5t-5 48.5q0 44 11 102t31 115q16 44 40 93.5t49.5 91.5t49.5 70.5t39 29.5q5 -4 7 -13.5t2 -20.5q0 -15 -1.5 -34.5t-1.5 -38.5q3 -28 11 -50t23 -38.5t38 -28t57 -18.5q7 -2 13 -2 h11q26 0 34.5 9.5t14.5 26.5q1 2 3 4q7 18 12.5 41.5t9.5 48.5t6 50.5t2 47.5q0 41 -12 75t-53 66q-16 13 -38.5 24.5t-47.5 20.5t-52 15t-52 9h1q-5 1 -11 1h-10q-60 0 -115 -33t-102.5 -87.5t-86.5 -124.5t-67 -145t-43 -148.5t-15 -134.5q0 -39 5.5 -74.5t17.5 -64.5v2 q6 -18 17.5 -36t26 -33t30.5 -25.5t31 -14.5h-1q29 -11 65 -23t81 -17h-1q5 -1 11 -1h14q96 0 165 52t110 136q8 17 14 32.5t6 29.5q0 20 -11.5 34.5t-37.5 22.5z" />
<glyph unicode="D" horiz-adv-x="743" d="M122 836l-140 -635l1 1q-5 -17 -6.5 -29t-1.5 -22q0 -29 9.5 -44.5t21.5 -31.5q29 -29 50.5 -46.5t50.5 -36.5h-1q35 -22 74 -22q14 0 27 2.5t24 7.5h-1q129 40 224 109t158 151.5t94 172t31 170.5q0 83 -30 148v-1q-23 52 -56.5 88t-73.5 57.5t-84.5 31t-90.5 9.5 q-77 0 -148 -20t-122 -47zM366 690q22 7 45 7q29 0 49 -12.5t28 -30.5l-1 1q4 -10 6 -21.5t2 -27.5q0 -40 -15 -91t-48 -104t-85.5 -104.5t-127.5 -92.5q35 126 71 243.5t76 232.5z" />
<glyph unicode="E" horiz-adv-x="582" d="M140 841l-174 -666q-3 -15 -3 -30q0 -26 8 -44t22 -33v1q17 -20 31.5 -35.5t28.5 -27t30.5 -17.5t38.5 -6q19 0 47 7l-1 -1q63 14 130.5 28.5t131.5 28.5q29 6 40 15t11 32q0 26 -9.5 55t-21.5 53v-1q-9 24 -25.5 34.5t-43.5 10.5q-45 0 -85.5 -6t-78.5 -13q2 18 10 41.5 t16 43.5q35 8 71 14.5t74 14.5h-1q26 4 50.5 7.5t43 9.5t30 16.5t11.5 27.5q0 9 -4 24l1 -1q-5 21 -10 41.5t-17 43.5v-1q-11 25 -28 34t-46 9h-7q-44 -1 -87 -6q14 38 27 76.5t25 71.5q62 9 117 15.5t107 11.5q33 4 45 15t12 38q0 14 -4 27l1 -1q-3 17 -7 32t-14 38v-1 q-9 26 -26.5 39t-49.5 13h-5q-53 -2 -107 -9t-105.5 -16t-99 -19.5t-87.5 -20.5z" />
<glyph unicode="F" horiz-adv-x="575" d="M601 720q31 4 42.5 14t11.5 37q0 22 -7 48t-20.5 48.5t-33 37.5t-45.5 15h-7q-52 -2 -107.5 -7t-110 -12t-106 -16.5t-94.5 -21.5q-3 -49 -15.5 -115.5t-29.5 -139.5t-36.5 -148.5t-37.5 -141.5t-31.5 -118.5t-17.5 -80.5q-3 -18 -3 -33q0 -21 8.5 -35.5t32.5 -29.5 q24 -11 56.5 -24t61.5 -13q21 0 36 10t19 33v-2q17 60 38 135t47 155q53 12 106.5 22t106.5 20q29 5 41.5 14.5t12.5 32.5q0 7 -3 22l1 -1q-4 18 -10 40t-16.5 41t-28 32t-44.5 13h-9q-21 0 -42 -1.5t-42 -3.5q14 42 25 79.5t23 66.5q61 8 118 14t110 14z" />
<glyph unicode="G" horiz-adv-x="669" d="M441 730l1 -1q2 -2 2.5 -7.5t1.5 -13.5v-1q0 -1 0.5 -2t0.5 -2v-39q-1 -6 -1.5 -11t-0.5 -13q0 -63 31.5 -103.5t108.5 -51.5q3 0 7 -0.5t7 -0.5q26 0 36.5 10.5t19.5 34.5v2q4 15 8 36t7 44t5 46.5t2 43.5v17q-3 44 -16.5 74t-45.5 59q-20 17 -45 31t-53.5 23.5t-58 15 t-57.5 5.5q-29 0 -61 -7t-60 -27l1 1q-69 -48 -126 -121.5t-98 -159t-64 -175t-23 -168.5q0 -37 5 -70t16 -62v1q12 -45 43 -77t71 -52.5t84.5 -30t85.5 -9.5q51 0 99 22t91 63.5t80.5 101t68.5 134.5q6 16 10 28.5t4 25.5q0 14 -4.5 27t-13.5 27v-1q-12 21 -23.5 38.5 t-25 30t-29.5 19t-37 6.5q-38 0 -82 -8.5t-89 -17.5q-3 -1 -7 -1q-3 0 -5 -1l3 1q-20 -4 -37 -7.5t-28 -10.5l2 4l2 4q22 54 48 103.5t51.5 87.5t48.5 61t39 23v1zM346 275q-14 -26 -28.5 -48t-29 -38.5t-27.5 -26t-25 -9.5q-15 0 -23 22t-8 60q0 35 6.5 77t20.5 84 q11 -58 37.5 -87.5t76.5 -33.5z" />
<glyph unicode="H" horiz-adv-x="689" d="M757 777q6 18 6 32q0 16 -15 33t-37 32t-48 26t-47 17h1q-20 7 -36 7q-20 0 -33 -11t-21 -37q-26 -75 -53.5 -171.5t-56.5 -195.5l-19 -1h1q-22 -2 -46 -4l-48 -4q24 78 46 144.5t39 115.5q6 18 6 33q0 17 -9 29.5t-30 26.5l1 -1q-15 11 -36.5 22t-43.5 20t-41.5 15 t-28.5 6q-20 0 -31.5 -10t-20.5 -34q-21 -80 -44 -177t-48 -197.5t-50.5 -197t-51.5 -174.5q-7 -20 -7 -36q0 -23 11.5 -37.5t31 -25t44 -19t50.5 -19.5q10 -3 17.5 -4t13.5 -1q15 0 24 5.5t14.5 16.5t9.5 27.5t10 38.5q11 47 25 99t32 110q30 5 60.5 9.5t62.5 9.5 q-13 -54 -23.5 -99.5t-17.5 -80.5v1q-5 -18 -5 -31q0 -22 8 -35.5t22 -22.5t32 -16.5t39 -17.5q19 -5 35.5 -9.5t30.5 -4.5q21 0 33 9.5t14 34.5l-1 -3q24 91 53.5 194t60 204t60.5 194t55 165z" />
<glyph unicode="I" horiz-adv-x="304" d="M331 848q-15 11 -34 21.5t-39.5 19t-39 14t-31.5 5.5q-20 0 -32 -10.5t-22 -36.5q-14 -43 -31 -104t-35 -130.5t-36.5 -143t-34.5 -141.5t-28 -126.5t-18 -97.5q-2 -9 -3 -15.5t-1 -16.5q0 -23 11.5 -39t30.5 -27.5t42 -19.5t47 -16q9 -3 16 -4t12 -1q20 0 28.5 9.5 t15.5 31.5q13 50 29.5 112.5t35 130t38 137.5t39 135.5t37.5 123t33 100.5q6 19 6 34q0 17 -8.5 29.5t-28.5 26.5z" />
<glyph unicode="J" horiz-adv-x="633" d="M152 -14q26 -8 48 -11t41 -3q83 0 147.5 53t116 155t94.5 252t82 344q2 8 2.5 13.5t0.5 13.5q0 19 -20.5 39.5t-50 37.5t-62 27.5t-57.5 10.5q-22 0 -36 -12t-20 -39q-12 -57 -29 -131t-37 -152.5t-41 -155t-42 -136t-41 -97t-36 -37.5q-8 2 -9.5 12.5t-1.5 31.5 q0 10 0.5 21t0.5 25v6q0 91 -112 144q-20 10 -34 10q-24 0 -40 -20.5t-25.5 -49t-14 -60.5t-4.5 -54q0 -35 8.5 -71.5t29.5 -69t55.5 -58.5t86.5 -39z" />
<glyph unicode="K" horiz-adv-x="676" d="M732 709q25 41 25 72q0 25 -12.5 51t-30 46t-36.5 33t-33 13q-22 0 -44 -28l1 1q-20 -24 -50 -56.5t-66 -70t-75 -78t-78 -80.5l-12 -11q16 51 30 94t28 78l-1 -1q5 11 7 19t2 15q0 16 -15 33t-38 32t-51 26.5t-53 18.5h1q-10 3 -17.5 4t-14.5 1q-20 0 -33.5 -10.5 t-23.5 -34.5q-14 -43 -32.5 -105t-38.5 -133t-39.5 -146.5t-37 -145.5t-30.5 -129.5t-19 -98.5v1q-3 -15 -3 -29q0 -21 6.5 -36t20 -26t33 -19t45.5 -17q18 -6 33.5 -10.5t28.5 -4.5q20 0 32 10.5t14 36.5l-1 -3q12 44 26 94.5t30 108.5q36 -62 64 -106t52 -72t46 -41 t45 -13q22 0 54.5 8.5t57.5 21.5l-1 -1q19 11 28.5 20.5t9.5 25.5q0 8 -16 36t-40 68t-52 86.5t-51 92.5q45 43 92.5 91t92 95.5t81 92t59.5 80.5z" />
<glyph unicode="L" horiz-adv-x="527" d="M405 48q29 8 40 16t11 26q0 22 -8.5 54.5t-24.5 58.5l1 -1q-12 24 -27.5 34t-40.5 10q-44 0 -80.5 -6t-74.5 -12q21 71 44 145.5t46 146.5t46 137.5t43 119.5l-1 -1q5 11 7 18.5t2 15.5q0 18 -19.5 37.5t-47.5 36.5t-59.5 28t-55.5 11q-36 0 -56 -45 q-17 -47 -36.5 -105.5t-39 -123t-38.5 -132t-35.5 -130.5t-29.5 -119t-21 -99l1 2q-3 -10 -4 -17.5t-1 -14.5q0 -23 8 -40t22 -31l20 -20h-1q12 -13 22 -22.5t21 -19.5v1q11 -10 24 -17t36 -7q11 0 23.5 1.5t27.5 6.5h-1q60 15 126.5 28t129.5 28z" />
<glyph unicode="M" horiz-adv-x="951" d="M283 164q5 -34 16 -53.5t27.5 -30.5t38.5 -17t49 -12q10 -3 24 -3q12 0 19 2.5t12 8t10 14t11 20.5q13 28 32.5 65.5t42.5 79.5t48 87t50 89q-12 -45 -23.5 -89t-20.5 -83.5t-16 -72.5t-11 -56v1q-3 -14 -3 -30q0 -41 42 -66h-1q10 -7 26 -14t33 -12.5t33 -9t27 -3.5 q25 0 34.5 11.5t16.5 31.5q10 40 25.5 98t34.5 125t40 139.5t41 141t38.5 129.5t33.5 106v-1q5 11 6.5 20.5t1.5 17.5q0 25 -23 44t-55 33t-68 23.5t-61 15.5h1q-14 5 -26 7t-23 2q-21 0 -37.5 -7.5t-31.5 -24t-30.5 -41.5t-35.5 -60v1q-19 -30 -39.5 -64t-41 -69.5 t-40.5 -71t-38 -68.5q-2 58 -4.5 97t-4 64.5t-2.5 39.5t-1 23q0 8 1 13q-2 22 -4 39.5t-9 31t-21 24.5t-39 21h1q-33 14 -75.5 27.5t-99.5 13.5q-26 0 -42 -12.5t-28 -44.5q-15 -43 -33.5 -103t-38 -128.5t-39 -141t-36.5 -140.5t-30.5 -127.5t-20.5 -102.5v1q-3 -14 -3 -29 q0 -22 15.5 -41.5t39.5 -34.5t52 -23.5t53 -8.5q20 0 31.5 12t19.5 38q9 39 20.5 86t25 99t29 107t32.5 111q3 -73 8.5 -140.5t13.5 -124.5z" />
<glyph unicode="N" horiz-adv-x="715" d="M426 760q-3 41 -15.5 62.5t-46.5 35.5h1q-17 9 -38 18t-43 16.5t-42 12.5t-34 5q-45 0 -64 -50q-17 -48 -36 -113t-39 -137t-39 -145.5t-35.5 -139t-28.5 -118.5t-17 -82l1 1q-4 -20 -4 -36q0 -22 8.5 -36t27.5 -26l-1 1q19 -15 42 -23t46 -15l11 -3l17.5 -3.5t13.5 -1.5 q19 0 28 10t16 30q8 34 19.5 78t25 93t28.5 102.5t30 107.5q10 -66 20.5 -129t24.5 -114.5t34.5 -88.5t51.5 -52q29 -11 60.5 -22t63.5 -11q49 0 59 48l-1 -1q13 53 29.5 114.5t34 127.5t36 133t37 131t35.5 122t32 105q4 10 5.5 19t1.5 17q0 23 -16 40t-38 29.5t-45 20.5 t-38 12q-9 2 -16 3.5t-12 1.5q-44 0 -60 -49q-26 -79 -53.5 -173t-53.5 -195q-4 40 -8 79.5t-7 74.5t-5.5 64t-3.5 49z" />
<glyph unicode="O" d="M616 844q-16 13 -40 26t-51.5 23.5t-57 16.5t-56.5 6q-36 0 -75 -13t-69 -35q-63 -50 -113 -119t-84.5 -147t-52.5 -159t-18 -156q0 -146 67.5 -218.5t200.5 -85.5h-1q22 -3 44 -3q66 0 120 32.5t96.5 85.5t74 121.5t52 140.5t30.5 142t10 126q0 34 -3 64t-11 57 t-23 50.5t-40 44.5zM448 720q8 -3 11.5 -22t3.5 -49q0 -55 -10 -113t-26.5 -112t-37.5 -102t-43 -83.5t-42.5 -56.5t-36.5 -21q-17 0 -24 23.5t-7 58.5q0 48 12 106.5t32 112.5q16 43 38 89t45.5 83.5t45.5 61.5t38 24h1z" />
<glyph unicode="P" horiz-adv-x="718" d="M670 473q36 38 62.5 79.5t26.5 94.5q0 35 -9.5 66.5t-24 59t-32 51t-33.5 41.5q-26 28 -61 39.5t-77 11.5q-43 0 -90 -10t-94.5 -26t-92 -35.5t-82.5 -38.5q-13 -7 -28 -53.5t-30.5 -114.5t-31.5 -148t-31.5 -154.5t-30 -133t-27.5 -83.5q-8 -24 -8 -39q0 -25 11.5 -41 t30 -27t42.5 -19l48 -16q13 -3 26 -3q21 0 31 10t19 30q14 57 30.5 114.5t33.5 117.5q60 18 120.5 42.5t116 53.5t103 62.5t82.5 68.5zM387 673q33 14 64 20t54 6q18 0 26.5 -1.5t11 -4t1.5 -5t-1 -4.5q0 -19 -14.5 -43.5t-42 -51t-68.5 -53t-94 -47.5q17 51 32.5 96.5 t30.5 87.5z" />
<glyph unicode="Q" horiz-adv-x="699" d="M570 108q-5 8 -9 15t-9 13q36 53 62.5 114.5t43.5 126t25.5 128.5t8.5 121q0 54 -9.5 101t-37 84.5t-77 64t-129.5 39.5q-6 1 -13 1.5t-15 0.5q-36 0 -75 -13t-69 -35q-63 -50 -113 -119t-84.5 -147t-52.5 -159.5t-18 -156.5q0 -153 77.5 -229.5t229.5 -76.5 q24 0 47.5 3.5t44.5 11.5q3 -1 7 -7q29 -30 70 -30q28 0 53 9.5t50 24.5l-1 -1q33 16 33 44q0 7 -4.5 16.5t-10.5 19t-13 19t-12 17.5zM267 161q-1 0 -7 2l1 -1q-13 6 -18.5 27.5t-5.5 53.5q0 52 15 120l-1 -1q8 36 22 76.5t31.5 80.5t36.5 76.5t38.5 64.5t37.5 44.5 t32 16.5q7 0 10.5 -22t3.5 -46q0 -44 -7.5 -93.5t-20.5 -98t-29.5 -94.5t-35.5 -83q-23 -5 -45 -11.5t-38.5 -15.5t-26.5 -21t-10 -28q0 -12 4.5 -20t12.5 -21l2 -6h-2z" />
<glyph unicode="R" horiz-adv-x="738" d="M435 22q24 -17 46 -24t41 -7q13 0 24 2.5t23 5.5l-1 -1q8 1 22.5 6.5t29 14t25 21t10.5 27.5q0 22 -22 43v-1q-21 21 -45 47.5t-48.5 55.5t-48 58.5t-43.5 56.5q106 52 182.5 110.5t111.5 127.5v-1q8 17 12.5 34.5t4.5 39.5q0 38 -9 71t-23.5 61t-32 51.5t-34.5 43.5 q-28 32 -66.5 45t-80.5 13q-36 0 -75.5 -8t-80 -20.5t-80.5 -29t-77 -33.5q-20 -9 -42 -57t-43.5 -117t-42 -151t-38 -158.5t-31.5 -140t-21 -95.5q-3 -17 -3 -31q0 -27 10 -43t27 -25.5t39 -15.5t46 -13q13 -4 25 -4q20 0 30.5 10t16.5 30q15 54 31 107t33 110 q23 -32 49 -63t52.5 -59.5t51.5 -52.5t45 -41zM500 703q40 0 45 -13v-1q0 -15 -15.5 -39t-44 -51t-70 -54t-92.5 -49q2 7 4 13l4 12v-1q15 44 28.5 83.5t27.5 74.5q32 14 61 19.5t52 5.5z" />
<glyph unicode="S" horiz-adv-x="609" d="M-45 260q-14 -8 -22 -20t-10 -26v-4q0 -23 42 -73q69 -86 143 -123t156 -37h13q65 1 112.5 18.5t80.5 43t53.5 54.5t32.5 54l-1 -1q16 31 16 59q0 42 -27 75.5t-67 65t-84.5 64t-79.5 70.5q-11 11 -15.5 24t-4.5 26q0 27 13.5 55.5t32.5 54t40.5 44.5t38.5 28l1 1 q1 0 2 1q-3 -17 -9.5 -40t-13 -46.5t-11.5 -43.5t-5 -30q0 -84 125 -132q16 -6 31 -6q18 0 29 9t21 29q12 23 23.5 53.5t21.5 63t18 64t12 57.5v24q0 29 -8 59.5t-40 62.5q-19 19 -45.5 36t-56 30.5t-59 21.5t-54.5 8q-36 0 -65.5 -10t-46.5 -24l1 1q-35 -20 -70.5 -50.5 t-67 -65.5t-56 -72.5t-36.5 -71.5l1 1q-24 -56 -24 -107t20 -95t55 -77v1q28 -29 64.5 -56.5t69.5 -51.5t56.5 -42.5t25.5 -30.5q-13 -10 -35 -10q-64 0 -169 76q-18 14 -42 20.5t-50 6.5q-18 0 -37 -3.5t-37 -11.5z" />
<glyph unicode="T" horiz-adv-x="669" d="M748 771q0 14 -4 30t-11 32.5t-15.5 31.5t-17.5 27q-12 14 -28 21.5t-48 7.5q-53 -2 -119 -7t-135 -12t-135.5 -16t-119.5 -19q-20 -4 -30.5 -12.5t-10.5 -27.5q0 -13 4 -25v1l3 -9q6 -18 15.5 -40t22 -42t29 -33.5t37.5 -13.5q19 0 40 5t50 10q-20 -66 -41.5 -143.5 t-40.5 -154t-34.5 -146.5t-24.5 -120v1q-5 -20 -5 -32q0 -38 25.5 -56.5t65.5 -32.5h-1q21 -8 42 -14t35 -6q18 0 30 9t17 32l-1 -1q21 80 45.5 169t51.5 179.5t54 180t52 170.5q41 4 78.5 7t72.5 8q30 2 41 11.5t11 29.5z" />
<glyph unicode="U" horiz-adv-x="685" d="M11 129q32 -79 99 -113.5t166 -34.5q38 0 70.5 8t64.5 25q54 34 99 103t83.5 166.5t73 220.5t68.5 265q3 9 4 16.5t1 14.5q0 17 -8 29.5t-30 26.5q-16 9 -34.5 19t-37 18t-36 13.5t-32.5 5.5q-22 0 -37.5 -11t-20.5 -39l1 2q-13 -55 -31.5 -128t-40.5 -151t-46.5 -153.5 t-49 -135.5t-49 -96.5t-46.5 -36.5q-10 0 -14 14t-4 37q0 44 14.5 108.5t37 136t48 142t48.5 127.5l-1 -1q9 22 9 41q0 26 -18 50t-44 42.5t-55.5 29.5t-53.5 11q-20 0 -32.5 -10.5t-22.5 -34.5q-29 -71 -57.5 -150.5t-52 -159.5t-38 -156.5t-14.5 -140.5q0 -70 19 -120z " />
<glyph unicode="V" horiz-adv-x="705" d="M766 756q5 13 7.5 23.5t2.5 19.5q0 22 -16 43.5t-38.5 38.5t-48.5 27.5t-45 10.5q-18 0 -31.5 -8.5t-23.5 -29.5q-60 -131 -122 -269t-129 -275q-2 108 -2.5 206.5t-1.5 176.5v71q-1 37 -19 60.5t-50 37.5h1q-25 10 -47.5 14t-51.5 4q-19 0 -30.5 -3t-17.5 -10.5 t-8.5 -19.5t-3.5 -29q-6 -144 -6 -279q0 -112 4.5 -215.5t13.5 -195.5q2 -15 7 -32.5t14.5 -34.5t23 -32.5t33.5 -27.5t42.5 -23t45 -20t43.5 -14.5t38 -5.5q23 0 39.5 12t31.5 37q25 47 57 109t65.5 131t67.5 141t64 139t54 124.5t38 98.5z" />
<glyph unicode="W" horiz-adv-x="989" d="M306 676q5 23 8 41.5t5 30.5l-1 -1q6 19 6 40q0 28 -12.5 48t-33 33t-48 21.5t-57.5 14.5q-12 3 -25 3q-24 0 -36 -13.5t-18 -43.5q-9 -52 -18.5 -116t-18.5 -133.5t-16.5 -141t-13 -139.5t-9 -129t-3.5 -108q0 -31 15 -49.5t39 -29.5t53.5 -18t59.5 -14q13 -3 27 -3 q18 0 32.5 9t28.5 32q12 23 30 56.5t39 72.5t44.5 81.5t47.5 84.5v-35q0 -38 1 -74.5t3 -65.5v-31q2 -30 14 -54.5t44 -36.5q16 -5 28.5 -9l25 -8t26 -8t32.5 -8l-1 1q11 -3 19.5 -4t16.5 -1q46 0 67 41q21 47 48.5 107t58 126.5t63 135.5t64.5 134.5t61.5 123.5t54.5 103 q13 26 13 53q0 26 -19 48.5t-44 39t-50 25.5t-38 9q-16 0 -28.5 -9.5t-25.5 -32.5q-13 -26 -37 -72t-53.5 -104.5t-63 -125.5t-65.5 -134q17 144 28 220.5t11 78.5q0 22 -8 34t-34 23h1q-11 6 -20 10t-19 7t-21.5 6t-28.5 7q-16 4 -27 4q-21 0 -34 -8.5t-26 -28.5h1 q-15 -21 -37.5 -61t-50.5 -90t-58 -107t-60 -113q11 71 23 137.5t20 117.5z" />
<glyph unicode="X" horiz-adv-x="720" d="M345 827q-9 22 -19.5 36.5t-26.5 23t-40 12t-60 3.5h-25q-45 0 -63.5 -9.5t-18.5 -38.5q0 -5 1 -13t3 -17v1q8 -29 19.5 -67t25 -82.5t29 -93.5t32.5 -98q-38 -44 -73.5 -88.5t-67.5 -86.5t-60 -80t-50 -69v1q-21 -30 -23 -52v-3q0 -23 16.5 -47.5t39 -44.5t44.5 -33.5 t33 -13.5q16 0 31.5 11t30 28t29.5 38t32 41q25 32 51 65t55 68q28 -81 44.5 -126.5t31 -68.5t30.5 -30t43 -11q28 -3 58 -3q45 0 73.5 8.5t28.5 37.5q0 9 -2.5 15.5t-4.5 14.5v-1q-26 75 -56 167t-62 195q75 86 140.5 162t116.5 136q13 15 20.5 31t7.5 33q0 16 -12.5 41 t-32 49t-44 41t-49.5 17q-18 0 -43.5 -21t-56 -55t-64.5 -77t-70 -87q-12 38 -23 73.5t-19 67.5z" />
<glyph unicode="Y" horiz-adv-x="654" d="M709 753q8 15 12.5 27.5t4.5 25.5q0 12 -12.5 32.5t-32.5 40t-44.5 33.5t-49.5 14q-15 0 -27.5 -7t-20.5 -26q-45 -74 -91.5 -148t-95.5 -148q-15 72 -30 136t-27 112q-5 15 -10 26.5t-12.5 19.5t-18.5 13.5t-28 9.5l1 -1q-15 4 -27.5 5t-24.5 1q-55 0 -80.5 -9 t-25.5 -38q0 -13 3 -25q9 -51 20 -112t24.5 -126.5t27.5 -132t29 -127.5q-11 -41 -20.5 -79.5t-16.5 -73.5l1 1q-8 -33 -16.5 -64.5t-8.5 -55.5t12.5 -40.5t32.5 -28.5t44 -20.5t48 -16.5q18 -6 30 -6q20 0 29 10t16 30q15 65 33 131t41 135q46 66 94 136.5t91 135.5 t76 119.5t50 90.5z" />
<glyph unicode="Z" horiz-adv-x="569" d="M-57 163q-13 -20 -13 -42q0 -20 9 -35.5t19 -27.5l7 -7q19 -21 33 -36.5t27.5 -26.5t28 -16.5t35.5 -5.5q16 0 42.5 5t57.5 12.5t64 15.5t63 14q24 5 47 10l46 10q55 4 55 47q0 4 -0.5 8.5t-2.5 12.5l1 -2q-3 18 -8.5 40.5t-17.5 42t-30.5 33t-46.5 13.5h-9t-10 -1h1 q-26 -4 -50.5 -7.5t-50.5 -9.5q97 124 196.5 246.5t193.5 235.5q28 32 28 64q0 16 -6 34l1 -1q-3 15 -9 36.5t-16 43.5q-11 26 -25.5 36t-43.5 10h-8q-48 -2 -103 -6t-110 -10t-107.5 -14t-95.5 -18q-19 -6 -28.5 -14.5t-9.5 -26.5q0 -13 4 -25v1q6 -18 16 -40t19 -39l7 -16 q16 -22 35 -31t40 -9q11 0 41.5 5.5t71.5 11.5q-57 -68 -114.5 -142t-109.5 -144.5t-94.5 -131.5t-69.5 -103z" />
<glyph unicode="[" horiz-adv-x="453" d="M351 65q-7 21 -10.5 40t-14.5 40l1 -1q-21 42 -71 42h-9q-10 0 -20.5 -1.5t-19.5 -2.5q16 61 36 129.5t41.5 137.5t43.5 135.5t43 125.5q25 4 53 5t51.5 5.5t38.5 14.5t15 31q0 10 -4 21v-3q-4 23 -9 42t-17 41l1 -3q-9 24 -25.5 37.5t-45.5 13.5h-5q-38 -1 -81 -3 t-84 -8h1q-56 -6 -72 -54q-26 -72 -54 -163.5t-54.5 -186.5t-49.5 -185.5t-38 -162.5h1q-3 -13 -4 -21.5t-1 -15.5q0 -22 5.5 -37.5t16.5 -30.5l19 -19q23 -25 45.5 -41.5t56.5 -16.5q18 0 41 3.5t46.5 8t46 10t38.5 8.5q52 1 52 42q0 10 -4 22v1z" />
<glyph unicode="\" horiz-adv-x="516" d="M248 924q-20 5 -38.5 6t-37.5 1h-26q-31 -1 -45.5 -16.5t-14.5 -42.5v-7q0 -2 1 -7v2q5 -46 15.5 -113.5t24.5 -146t30.5 -161.5t33 -159.5t31.5 -140t26 -102.5q12 -32 25 -49t43 -22h-1q19 -3 45 -3q11 0 21 0.5t19 1.5h-1q28 3 40 13.5t12 30.5q0 8 -4 21l1 -1 q-11 50 -23.5 118t-26 145t-27 157.5t-25.5 156t-21 140.5t-14 110q-3 16 -7 27t-10.5 18.5t-17.5 12t-28 9.5v1z" />
<glyph unicode="]" horiz-adv-x="474" d="M488 739q6 21 6 36q0 24 -20 51l1 -1q-11 17 -22 31.5t-23 26.5l1 -1q-14 17 -28 25t-37 8h-10q-5 0 -9 -1h2q-51 -4 -96 -8t-80 -11q-29 -5 -40 -20.5t-11 -37.5q0 -21 9 -44.5t20 -45.5v1q10 -24 23 -33.5t39 -9.5q18 0 38 3q-20 -59 -41 -127t-42 -137.5t-40.5 -137 t-34.5 -126.5q-23 -4 -48.5 -8.5t-48 -12t-37 -20t-14.5 -31.5q0 -9 5.5 -23.5t12.5 -29t14 -27t10 -17.5q13 -16 25.5 -25t35.5 -9q38 0 79 8.5t78 14.5q40 2 53.5 16t20.5 37q19 69 44.5 159t53.5 184t56.5 184t54.5 159z" />
<glyph unicode="^" horiz-adv-x="664" d="M540 394h7q23 0 34 8t11 29q0 5 -0.5 8.5t-1.5 7.5q-6 32 -14 73.5t-15.5 86t-14 90t-9.5 86.5q-2 21 -8 36.5t-17.5 29t-29.5 27.5t-44 32q-19 12 -37 12q-11 0 -23.5 -5t-26.5 -19h1q-38 -33 -76.5 -72.5t-74.5 -79t-66.5 -75.5t-50.5 -63q-16 -19 -16 -42 q0 -20 13 -39l-1 1q9 -16 20 -31t22.5 -27t23 -19t20.5 -7q13 0 35 19t48 47.5t55 62t56 61.5q7 -49 17 -90.5t20 -80.5q17 -45 62 -57h-1q25 -6 44.5 -7.5t37.5 -2.5z" />
<glyph unicode="_" horiz-adv-x="657" d="M0 -208h690q20 0 33 5.5t21 14.5t13 20t9 22l6 15v-1q5 10 8.5 20t3.5 18q0 15 -10.5 24t-37.5 9h-690q-30 0 -46.5 -9t-27.5 -32l1 1q-5 -11 -8.5 -20.5t-7.5 -18.5l-6 -17q-2 -6 -2.5 -9.5t-0.5 -7.5q0 -34 52 -34z" />
<glyph unicode="`" horiz-adv-x="577" d="M228 1003q23 -14 55 -32t69.5 -36t78.5 -34.5t80 -29.5q15 -5 29 -5q16 0 33 5.5t37 14.5l-25 24l3 6t7 14.5t9 18t10 16.5q-65 27 -130 60t-113 68q-16 13 -40 13q-26 0 -62 -16l2 1q-23 -8 -33.5 -25.5t-16.5 -43.5zM618 963q19 -12 22 -31q-1 25 -4 35t-8 10t-14 -12z " />
<glyph unicode="a" horiz-adv-x="728" d="M440 76q2 -40 13.5 -56.5t42.5 -26.5l-1 1q26 -11 50 -13t52 -2q37 0 49 12t12 44q3 96 7 202.5t9.5 208.5t12 193t14.5 157v-1q1 5 1 10v11q0 26 -11 42.5t-42 27.5l-18 5q-35 12 -81.5 23.5t-115.5 11.5q-41 0 -64.5 -17.5t-40.5 -43.5q-45 -70 -98.5 -164t-107 -194 t-102 -196.5t-82.5 -172.5q-7 -17 -9.5 -30t-2.5 -24q0 -16 8 -28.5t20.5 -23t28.5 -19.5t32 -17l12 -6q19 -8 35 -8q18 0 33 18t30 45.5t29.5 60t30.5 60.5q50 13 115.5 23.5t133.5 20.5l2 -20q0 -65 3 -114zM452 644q-4 -54 -7 -110t-6 -113q-31 -2 -61 -5t-61 -8 q35 64 69.5 123.5t65.5 112.5z" />
<glyph unicode="b" horiz-adv-x="704" d="M648 497q42 36 71.5 83t29.5 101q0 29 -7 55.5t-19 50t-27 44t-31 38.5q-27 29 -76 42t-106 13q-44 0 -92.5 -7t-95.5 -19t-91.5 -28t-80.5 -34q-11 -77 -29.5 -162t-38.5 -169.5t-39.5 -165t-31.5 -149.5q-2 -11 -3.5 -20.5t-1.5 -19.5q0 -23 8 -37.5t22 -33.5l-1 1 q23 -34 51.5 -54.5t57.5 -34.5q18 -13 33 -19t33 -6q24 0 60 12h-1q38 11 81 27t85.5 36t81 44t66.5 51h-1q40 34 60.5 69t20.5 83q0 40 -19 81.5t-50 67.5q23 15 42.5 30t38.5 30zM326 564q10 32 19.5 61.5t19.5 56.5q39 17 72 25t57 8q34 0 34 -8q0 -13 -14.5 -33t-42 -43 t-66.5 -46.5t-87 -42.5q3 10 8 22zM342 342q26 0 40 -5t16 -13q0 -15 -14 -32t-38.5 -34t-59 -33.5t-76.5 -29.5q10 32 19.5 63t19.5 66q55 18 93 18z" />
<glyph unicode="c" horiz-adv-x="648" d="M517 275q-16 5 -30.5 7.5t-28.5 2.5q-65 0 -115 -52q-69 -75 -100 -75h-4q-12 5 -17 24.5t-5 48.5q0 44 11 102t31 115q16 44 40 93.5t49.5 91.5t49.5 70.5t39 29.5q5 -4 7 -13.5t2 -20.5q0 -15 -1.5 -34.5t-1.5 -38.5q3 -28 11 -50t23 -38.5t38 -28t57 -18.5q7 -2 13 -2 h11q26 0 34.5 9.5t14.5 26.5q1 2 3 4q7 18 12.5 41.5t9.5 48.5t6 50.5t2 47.5q0 41 -12 75t-53 66q-16 13 -38.5 24.5t-47.5 20.5t-52 15t-52 9h1q-5 1 -11 1h-10q-60 0 -115 -33t-102.5 -87.5t-86.5 -124.5t-67 -145t-43 -148.5t-15 -134.5q0 -39 5.5 -74.5t17.5 -64.5v2 q6 -18 17.5 -36t26 -33t30.5 -25.5t31 -14.5h-1q29 -11 65 -23t81 -17h-1q5 -1 11 -1h14q96 0 165 52t110 136q8 17 14 32.5t6 29.5q0 20 -11.5 34.5t-37.5 22.5z" />
<glyph unicode="d" horiz-adv-x="743" d="M122 836l-140 -635l1 1q-5 -17 -6.5 -29t-1.5 -22q0 -29 9.5 -44.5t21.5 -31.5q29 -29 50.5 -46.5t50.5 -36.5h-1q35 -22 74 -22q14 0 27 2.5t24 7.5h-1q129 40 224 109t158 151.5t94 172t31 170.5q0 83 -30 148v-1q-23 52 -56.5 88t-73.5 57.5t-84.5 31t-90.5 9.5 q-77 0 -148 -20t-122 -47zM366 690q22 7 45 7q29 0 49 -12.5t28 -30.5l-1 1q4 -10 6 -21.5t2 -27.5q0 -40 -15 -91t-48 -104t-85.5 -104.5t-127.5 -92.5q35 126 71 243.5t76 232.5z" />
<glyph unicode="e" horiz-adv-x="582" d="M140 841l-174 -666q-3 -15 -3 -30q0 -26 8 -44t22 -33v1q17 -20 31.5 -35.5t28.5 -27t30.5 -17.5t38.5 -6q19 0 47 7l-1 -1q63 14 130.5 28.5t131.5 28.5q29 6 40 15t11 32q0 26 -9.5 55t-21.5 53v-1q-9 24 -25.5 34.5t-43.5 10.5q-45 0 -85.5 -6t-78.5 -13q2 18 10 41.5 t16 43.5q35 8 71 14.5t74 14.5h-1q26 4 50.5 7.5t43 9.5t30 16.5t11.5 27.5q0 9 -4 24l1 -1q-5 21 -10 41.5t-17 43.5v-1q-11 25 -28 34t-46 9h-7q-44 -1 -87 -6q14 38 27 76.5t25 71.5q62 9 117 15.5t107 11.5q33 4 45 15t12 38q0 14 -4 27l1 -1q-3 17 -7 32t-14 38v-1 q-9 26 -26.5 39t-49.5 13h-5q-53 -2 -107 -9t-105.5 -16t-99 -19.5t-87.5 -20.5z" />
<glyph unicode="f" horiz-adv-x="575" d="M601 720q31 4 42.5 14t11.5 37q0 22 -7 48t-20.5 48.5t-33 37.5t-45.5 15h-7q-52 -2 -107.5 -7t-110 -12t-106 -16.5t-94.5 -21.5q-3 -49 -15.5 -115.5t-29.5 -139.5t-36.5 -148.5t-37.5 -141.5t-31.5 -118.5t-17.5 -80.5q-3 -18 -3 -33q0 -21 8.5 -35.5t32.5 -29.5 q24 -11 56.5 -24t61.5 -13q21 0 36 10t19 33v-2q17 60 38 135t47 155q53 12 106.5 22t106.5 20q29 5 41.5 14.5t12.5 32.5q0 7 -3 22l1 -1q-4 18 -10 40t-16.5 41t-28 32t-44.5 13h-9q-21 0 -42 -1.5t-42 -3.5q14 42 25 79.5t23 66.5q61 8 118 14t110 14z" />
<glyph unicode="g" horiz-adv-x="669" d="M441 730l1 -1q2 -2 2.5 -7.5t1.5 -13.5v-1q0 -1 0.5 -2t0.5 -2v-39q-1 -6 -1.5 -11t-0.5 -13q0 -63 31.5 -103.5t108.5 -51.5q3 0 7 -0.5t7 -0.5q26 0 36.5 10.5t19.5 34.5v2q4 15 8 36t7 44t5 46.5t2 43.5v17q-3 44 -16.5 74t-45.5 59q-20 17 -45 31t-53.5 23.5t-58 15 t-57.5 5.5q-29 0 -61 -7t-60 -27l1 1q-69 -48 -126 -121.5t-98 -159t-64 -175t-23 -168.5q0 -37 5 -70t16 -62v1q12 -45 43 -77t71 -52.5t84.5 -30t85.5 -9.5q51 0 99 22t91 63.5t80.5 101t68.5 134.5q6 16 10 28.5t4 25.5q0 14 -4.5 27t-13.5 27v-1q-12 21 -23.5 38.5 t-25 30t-29.5 19t-37 6.5q-38 0 -82 -8.5t-89 -17.5q-3 -1 -7 -1q-3 0 -5 -1l3 1q-20 -4 -37 -7.5t-28 -10.5l2 4l2 4q22 54 48 103.5t51.5 87.5t48.5 61t39 23v1zM346 275q-14 -26 -28.5 -48t-29 -38.5t-27.5 -26t-25 -9.5q-15 0 -23 22t-8 60q0 35 6.5 77t20.5 84 q11 -58 37.5 -87.5t76.5 -33.5z" />
<glyph unicode="h" horiz-adv-x="689" d="M757 777q6 18 6 32q0 16 -15 33t-37 32t-48 26t-47 17h1q-20 7 -36 7q-20 0 -33 -11t-21 -37q-26 -75 -53.5 -171.5t-56.5 -195.5l-19 -1h1q-22 -2 -46 -4l-48 -4q24 78 46 144.5t39 115.5q6 18 6 33q0 17 -9 29.5t-30 26.5l1 -1q-15 11 -36.5 22t-43.5 20t-41.5 15 t-28.5 6q-20 0 -31.5 -10t-20.5 -34q-21 -80 -44 -177t-48 -197.5t-50.5 -197t-51.5 -174.5q-7 -20 -7 -36q0 -23 11.5 -37.5t31 -25t44 -19t50.5 -19.5q10 -3 17.5 -4t13.5 -1q15 0 24 5.5t14.5 16.5t9.5 27.5t10 38.5q11 47 25 99t32 110q30 5 60.5 9.5t62.5 9.5 q-13 -54 -23.5 -99.5t-17.5 -80.5v1q-5 -18 -5 -31q0 -22 8 -35.5t22 -22.5t32 -16.5t39 -17.5q19 -5 35.5 -9.5t30.5 -4.5q21 0 33 9.5t14 34.5l-1 -3q24 91 53.5 194t60 204t60.5 194t55 165z" />
<glyph unicode="i" horiz-adv-x="304" d="M331 848q-15 11 -34 21.5t-39.5 19t-39 14t-31.5 5.5q-20 0 -32 -10.5t-22 -36.5q-14 -43 -31 -104t-35 -130.5t-36.5 -143t-34.5 -141.5t-28 -126.5t-18 -97.5q-2 -9 -3 -15.5t-1 -16.5q0 -23 11.5 -39t30.5 -27.5t42 -19.5t47 -16q9 -3 16 -4t12 -1q20 0 28.5 9.5 t15.5 31.5q13 50 29.5 112.5t35 130t38 137.5t39 135.5t37.5 123t33 100.5q6 19 6 34q0 17 -8.5 29.5t-28.5 26.5z" />
<glyph unicode="j" horiz-adv-x="633" d="M152 -14q26 -8 48 -11t41 -3q83 0 147.5 53t116 155t94.5 252t82 344q2 8 2.5 13.5t0.5 13.5q0 19 -20.5 39.5t-50 37.5t-62 27.5t-57.5 10.5q-22 0 -36 -12t-20 -39q-12 -57 -29 -131t-37 -152.5t-41 -155t-42 -136t-41 -97t-36 -37.5q-8 2 -9.5 12.5t-1.5 31.5 q0 10 0.5 21t0.5 25v6q0 91 -112 144q-20 10 -34 10q-24 0 -40 -20.5t-25.5 -49t-14 -60.5t-4.5 -54q0 -35 8.5 -71.5t29.5 -69t55.5 -58.5t86.5 -39z" />
<glyph unicode="k" horiz-adv-x="676" d="M732 709q25 41 25 72q0 25 -12.5 51t-30 46t-36.5 33t-33 13q-22 0 -44 -28l1 1q-20 -24 -50 -56.5t-66 -70t-75 -78t-78 -80.5l-12 -11q16 51 30 94t28 78l-1 -1q5 11 7 19t2 15q0 16 -15 33t-38 32t-51 26.5t-53 18.5h1q-10 3 -17.5 4t-14.5 1q-20 0 -33.5 -10.5 t-23.5 -34.5q-14 -43 -32.5 -105t-38.5 -133t-39.5 -146.5t-37 -145.5t-30.5 -129.5t-19 -98.5v1q-3 -15 -3 -29q0 -21 6.5 -36t20 -26t33 -19t45.5 -17q18 -6 33.5 -10.5t28.5 -4.5q20 0 32 10.5t14 36.5l-1 -3q12 44 26 94.5t30 108.5q36 -62 64 -106t52 -72t46 -41 t45 -13q22 0 54.5 8.5t57.5 21.5l-1 -1q19 11 28.5 20.5t9.5 25.5q0 8 -16 36t-40 68t-52 86.5t-51 92.5q45 43 92.5 91t92 95.5t81 92t59.5 80.5z" />
<glyph unicode="l" horiz-adv-x="527" d="M405 48q29 8 40 16t11 26q0 22 -8.5 54.5t-24.5 58.5l1 -1q-12 24 -27.5 34t-40.5 10q-44 0 -80.5 -6t-74.5 -12q21 71 44 145.5t46 146.5t46 137.5t43 119.5l-1 -1q5 11 7 18.5t2 15.5q0 18 -19.5 37.5t-47.5 36.5t-59.5 28t-55.5 11q-36 0 -56 -45 q-17 -47 -36.5 -105.5t-39 -123t-38.5 -132t-35.5 -130.5t-29.5 -119t-21 -99l1 2q-3 -10 -4 -17.5t-1 -14.5q0 -23 8 -40t22 -31l20 -20h-1q12 -13 22 -22.5t21 -19.5v1q11 -10 24 -17t36 -7q11 0 23.5 1.5t27.5 6.5h-1q60 15 126.5 28t129.5 28z" />
<glyph unicode="m" horiz-adv-x="951" d="M283 164q5 -34 16 -53.5t27.5 -30.5t38.5 -17t49 -12q10 -3 24 -3q12 0 19 2.5t12 8t10 14t11 20.5q13 28 32.5 65.5t42.5 79.5t48 87t50 89q-12 -45 -23.5 -89t-20.5 -83.5t-16 -72.5t-11 -56v1q-3 -14 -3 -30q0 -41 42 -66h-1q10 -7 26 -14t33 -12.5t33 -9t27 -3.5 q25 0 34.5 11.5t16.5 31.5q10 40 25.5 98t34.5 125t40 139.5t41 141t38.5 129.5t33.5 106v-1q5 11 6.5 20.5t1.5 17.5q0 25 -23 44t-55 33t-68 23.5t-61 15.5h1q-14 5 -26 7t-23 2q-21 0 -37.5 -7.5t-31.5 -24t-30.5 -41.5t-35.5 -60v1q-19 -30 -39.5 -64t-41 -69.5 t-40.5 -71t-38 -68.5q-2 58 -4.5 97t-4 64.5t-2.5 39.5t-1 23q0 8 1 13q-2 22 -4 39.5t-9 31t-21 24.5t-39 21h1q-33 14 -75.5 27.5t-99.5 13.5q-26 0 -42 -12.5t-28 -44.5q-15 -43 -33.5 -103t-38 -128.5t-39 -141t-36.5 -140.5t-30.5 -127.5t-20.5 -102.5v1q-3 -14 -3 -29 q0 -22 15.5 -41.5t39.5 -34.5t52 -23.5t53 -8.5q20 0 31.5 12t19.5 38q9 39 20.5 86t25 99t29 107t32.5 111q3 -73 8.5 -140.5t13.5 -124.5z" />
<glyph unicode="n" horiz-adv-x="715" d="M426 760q-3 41 -15.5 62.5t-46.5 35.5h1q-17 9 -38 18t-43 16.5t-42 12.5t-34 5q-45 0 -64 -50q-17 -48 -36 -113t-39 -137t-39 -145.5t-35.5 -139t-28.5 -118.5t-17 -82l1 1q-4 -20 -4 -36q0 -22 8.5 -36t27.5 -26l-1 1q19 -15 42 -23t46 -15l11 -3l17.5 -3.5t13.5 -1.5 q19 0 28 10t16 30q8 34 19.5 78t25 93t28.5 102.5t30 107.5q10 -66 20.5 -129t24.5 -114.5t34.5 -88.5t51.5 -52q29 -11 60.5 -22t63.5 -11q49 0 59 48l-1 -1q13 53 29.5 114.5t34 127.5t36 133t37 131t35.5 122t32 105q4 10 5.5 19t1.5 17q0 23 -16 40t-38 29.5t-45 20.5 t-38 12q-9 2 -16 3.5t-12 1.5q-44 0 -60 -49q-26 -79 -53.5 -173t-53.5 -195q-4 40 -8 79.5t-7 74.5t-5.5 64t-3.5 49z" />
<glyph unicode="o" d="M616 844q-16 13 -40 26t-51.5 23.5t-57 16.5t-56.5 6q-36 0 -75 -13t-69 -35q-63 -50 -113 -119t-84.5 -147t-52.5 -159t-18 -156q0 -146 67.5 -218.5t200.5 -85.5h-1q22 -3 44 -3q66 0 120 32.5t96.5 85.5t74 121.5t52 140.5t30.5 142t10 126q0 34 -3 64t-11 57 t-23 50.5t-40 44.5zM448 720q8 -3 11.5 -22t3.5 -49q0 -55 -10 -113t-26.5 -112t-37.5 -102t-43 -83.5t-42.5 -56.5t-36.5 -21q-17 0 -24 23.5t-7 58.5q0 48 12 106.5t32 112.5q16 43 38 89t45.5 83.5t45.5 61.5t38 24h1z" />
<glyph unicode="p" horiz-adv-x="718" d="M670 473q36 38 62.5 79.5t26.5 94.5q0 35 -9.5 66.5t-24 59t-32 51t-33.5 41.5q-26 28 -61 39.5t-77 11.5q-43 0 -90 -10t-94.5 -26t-92 -35.5t-82.5 -38.5q-13 -7 -28 -53.5t-30.5 -114.5t-31.5 -148t-31.5 -154.5t-30 -133t-27.5 -83.5q-8 -24 -8 -39q0 -25 11.5 -41 t30 -27t42.5 -19l48 -16q13 -3 26 -3q21 0 31 10t19 30q14 57 30.5 114.5t33.5 117.5q60 18 120.5 42.5t116 53.5t103 62.5t82.5 68.5zM387 673q33 14 64 20t54 6q18 0 26.5 -1.5t11 -4t1.5 -5t-1 -4.5q0 -19 -14.5 -43.5t-42 -51t-68.5 -53t-94 -47.5q17 51 32.5 96.5 t30.5 87.5z" />
<glyph unicode="q" horiz-adv-x="699" d="M570 108q-5 8 -9 15t-9 13q36 53 62.5 114.5t43.5 126t25.5 128.5t8.5 121q0 54 -9.5 101t-37 84.5t-77 64t-129.5 39.5q-6 1 -13 1.5t-15 0.5q-36 0 -75 -13t-69 -35q-63 -50 -113 -119t-84.5 -147t-52.5 -159.5t-18 -156.5q0 -153 77.5 -229.5t229.5 -76.5 q24 0 47.5 3.5t44.5 11.5q3 -1 7 -7q29 -30 70 -30q28 0 53 9.5t50 24.5l-1 -1q33 16 33 44q0 7 -4.5 16.5t-10.5 19t-13 19t-12 17.5zM267 161q-1 0 -7 2l1 -1q-13 6 -18.5 27.5t-5.5 53.5q0 52 15 120l-1 -1q8 36 22 76.5t31.5 80.5t36.5 76.5t38.5 64.5t37.5 44.5 t32 16.5q7 0 10.5 -22t3.5 -46q0 -44 -7.5 -93.5t-20.5 -98t-29.5 -94.5t-35.5 -83q-23 -5 -45 -11.5t-38.5 -15.5t-26.5 -21t-10 -28q0 -12 4.5 -20t12.5 -21l2 -6h-2z" />
<glyph unicode="r" horiz-adv-x="738" d="M435 22q24 -17 46 -24t41 -7q13 0 24 2.5t23 5.5l-1 -1q8 1 22.5 6.5t29 14t25 21t10.5 27.5q0 22 -22 43v-1q-21 21 -45 47.5t-48.5 55.5t-48 58.5t-43.5 56.5q106 52 182.5 110.5t111.5 127.5v-1q8 17 12.5 34.5t4.5 39.5q0 38 -9 71t-23.5 61t-32 51.5t-34.5 43.5 q-28 32 -66.5 45t-80.5 13q-36 0 -75.5 -8t-80 -20.5t-80.5 -29t-77 -33.5q-20 -9 -42 -57t-43.5 -117t-42 -151t-38 -158.5t-31.5 -140t-21 -95.5q-3 -17 -3 -31q0 -27 10 -43t27 -25.5t39 -15.5t46 -13q13 -4 25 -4q20 0 30.5 10t16.5 30q15 54 31 107t33 110 q23 -32 49 -63t52.5 -59.5t51.5 -52.5t45 -41zM500 703q40 0 45 -13v-1q0 -15 -15.5 -39t-44 -51t-70 -54t-92.5 -49q2 7 4 13l4 12v-1q15 44 28.5 83.5t27.5 74.5q32 14 61 19.5t52 5.5z" />
<glyph unicode="s" horiz-adv-x="609" d="M-44 264q-30 -17 -32 -49v-2q0 -28 42 -74q71 -87 145 -124.5t156 -37.5h13q65 1 112.5 19t81 43.5t54 55t32.5 55.5v-1q15 30 15 59q0 43 -27.5 77.5t-67 66.5t-84.5 64.5t-81 71.5v-1q-19 22 -19 53q0 28 13 57.5t32.5 55t41.5 45.5t40 29l1 1q1 0 2 1 q-2 -17 -8.5 -41.5t-13.5 -48.5t-12.5 -44.5t-5.5 -30.5q0 -86 125 -133l-1 1q19 -8 33 -8q17 0 28 9.5t22 26.5q12 23 24 55t22.5 65.5t18 66.5t11.5 57v25q0 28 -8 60t-39 63q-20 20 -48 38t-58.5 31t-60 20.5t-53.5 7.5q-35 0 -64.5 -9.5t-47.5 -23.5l2 1 q-35 -20 -71.5 -51t-68 -66.5t-56 -74t-36.5 -73.5l1 1q-25 -59 -25 -109q0 -48 16.5 -86.5t44 -70t62.5 -58.5t71 -54q39 -29 68 -53t31 -36q-13 -10 -36 -10q-31 0 -74 19.5t-96 58.5q-18 14 -41 20.5t-49 6.5q-40 0 -75 -16z" />
<glyph unicode="t" horiz-adv-x="669" d="M748 771q0 14 -4 30t-11 32.5t-15.5 31.5t-17.5 27q-12 14 -28 21.5t-48 7.5q-53 -2 -119 -7t-135 -12t-135.5 -16t-119.5 -19q-20 -4 -30.5 -12.5t-10.5 -27.5q0 -13 4 -25v1l3 -9q6 -18 15.5 -40t22 -42t29 -33.5t37.5 -13.5q19 0 40 5t50 10q-20 -66 -41.5 -143.5 t-40.5 -154t-34.5 -146.5t-24.5 -120v1q-5 -20 -5 -32q0 -38 25.5 -56.5t65.5 -32.5h-1q21 -8 42 -14t35 -6q18 0 30 9t17 32l-1 -1q21 80 45.5 169t51.5 179.5t54 180t52 170.5q41 4 78.5 7t72.5 8q30 2 41 11.5t11 29.5z" />
<glyph unicode="u" horiz-adv-x="685" d="M11 129q32 -79 99 -113.5t166 -34.5q38 0 70.5 8t64.5 25q54 34 99 103t83.5 166.5t73 220.5t68.5 265q3 9 4 16.5t1 14.5q0 17 -8 29.5t-30 26.5q-16 9 -34.5 19t-37 18t-36 13.5t-32.5 5.5q-22 0 -37.5 -11t-20.5 -39l1 2q-13 -55 -31.5 -128t-40.5 -151t-46.5 -153.5 t-49 -135.5t-49 -96.5t-46.5 -36.5q-10 0 -14 14t-4 37q0 44 14.5 108.5t37 136t48 142t48.5 127.5l-1 -1q9 22 9 41q0 26 -18 50t-44 42.5t-55.5 29.5t-53.5 11q-20 0 -32.5 -10.5t-22.5 -34.5q-29 -71 -57.5 -150.5t-52 -159.5t-38 -156.5t-14.5 -140.5q0 -70 19 -120z " />
<glyph unicode="v" horiz-adv-x="705" d="M766 756q5 13 7.5 23.5t2.5 19.5q0 22 -16 43.5t-38.5 38.5t-48.5 27.5t-45 10.5q-18 0 -31.5 -8.5t-23.5 -29.5q-60 -131 -122 -269t-129 -275q-2 108 -2.5 206.5t-1.5 176.5v71q-1 37 -19 60.5t-50 37.5h1q-25 10 -47.5 14t-51.5 4q-19 0 -30.5 -3t-17.5 -10.5 t-8.5 -19.5t-3.5 -29q-6 -144 -6 -279q0 -112 4.5 -215.5t13.5 -195.5q2 -15 7 -32.5t14.5 -34.5t23 -32.5t33.5 -27.5t42.5 -23t45 -20t43.5 -14.5t38 -5.5q23 0 39.5 12t31.5 37q25 47 57 109t65.5 131t67.5 141t64 139t54 124.5t38 98.5z" />
<glyph unicode="w" horiz-adv-x="989" d="M306 676q5 23 8 41.5t5 30.5l-1 -1q6 19 6 40q0 28 -12.5 48t-33 33t-48 21.5t-57.5 14.5q-12 3 -25 3q-24 0 -36 -13.5t-18 -43.5q-9 -52 -18.5 -116t-18.5 -133.5t-16.5 -141t-13 -139.5t-9 -129t-3.5 -108q0 -31 15 -49.5t39 -29.5t53.5 -18t59.5 -14q13 -3 27 -3 q18 0 32.5 9t28.5 32q12 23 30 56.5t39 72.5t44.5 81.5t47.5 84.5v-35q0 -38 1 -74.5t3 -65.5v-31q2 -30 14 -54.5t44 -36.5q16 -5 28.5 -9l25 -8t26 -8t32.5 -8l-1 1q11 -3 19.5 -4t16.5 -1q46 0 67 41q21 47 48.5 107t58 126.5t63 135.5t64.5 134.5t61.5 123.5t54.5 103 q13 26 13 53q0 26 -19 48.5t-44 39t-50 25.5t-38 9q-16 0 -28.5 -9.5t-25.5 -32.5q-13 -26 -37 -72t-53.5 -104.5t-63 -125.5t-65.5 -134q17 144 28 220.5t11 78.5q0 22 -8 34t-34 23h1q-11 6 -20 10t-19 7t-21.5 6t-28.5 7q-16 4 -27 4q-21 0 -34 -8.5t-26 -28.5h1 q-15 -21 -37.5 -61t-50.5 -90t-58 -107t-60 -113q11 71 23 137.5t20 117.5z" />
<glyph unicode="x" horiz-adv-x="720" d="M345 827q-9 22 -19.5 36.5t-26.5 23t-40 12t-60 3.5h-25q-45 0 -63.5 -9.5t-18.5 -38.5q0 -5 1 -13t3 -17v1q8 -29 19.5 -67t25 -82.5t29 -93.5t32.5 -98q-38 -44 -73.5 -88.5t-67.5 -86.5t-60 -80t-50 -69v1q-21 -30 -23 -52v-3q0 -23 16.5 -47.5t39 -44.5t44.5 -33.5 t33 -13.5q16 0 31.5 11t30 28t29.5 38t32 41q25 32 51 65t55 68q28 -81 44.5 -126.5t31 -68.5t30.5 -30t43 -11q28 -3 58 -3q45 0 73.5 8.5t28.5 37.5q0 9 -2.5 15.5t-4.5 14.5v-1q-26 75 -56 167t-62 195q75 86 140.5 162t116.5 136q13 15 20.5 31t7.5 33q0 16 -12.5 41 t-32 49t-44 41t-49.5 17q-18 0 -43.5 -21t-56 -55t-64.5 -77t-70 -87q-12 38 -23 73.5t-19 67.5z" />
<glyph unicode="y" horiz-adv-x="654" d="M709 753q8 15 12.5 27.5t4.5 25.5q0 12 -12.5 32.5t-32.5 40t-44.5 33.5t-49.5 14q-15 0 -27.5 -7t-20.5 -26q-45 -74 -91.5 -148t-95.5 -148q-15 72 -30 136t-27 112q-5 15 -10 26.5t-12.5 19.5t-18.5 13.5t-28 9.5l1 -1q-15 4 -27.5 5t-24.5 1q-55 0 -80.5 -9 t-25.5 -38q0 -13 3 -25q9 -51 20 -112t24.5 -126.5t27.5 -132t29 -127.5q-11 -41 -20.5 -79.5t-16.5 -73.5l1 1q-8 -33 -16.5 -64.5t-8.5 -55.5t12.5 -40.5t32.5 -28.5t44 -20.5t48 -16.5q18 -6 30 -6q20 0 29 10t16 30q15 65 33 131t41 135q46 66 94 136.5t91 135.5 t76 119.5t50 90.5z" />
<glyph unicode="z" horiz-adv-x="569" d="M-57 163q-13 -20 -13 -42q0 -20 9 -35.5t19 -27.5l7 -7q19 -21 33 -36.5t27.5 -26.5t28 -16.5t35.5 -5.5q16 0 42.5 5t57.5 12.5t64 15.5t63 14q24 5 47 10l46 10q55 4 55 47q0 4 -0.5 8.5t-2.5 12.5l1 -2q-3 18 -8.5 40.5t-17.5 42t-30.5 33t-46.5 13.5h-9t-10 -1h1 q-26 -4 -50.5 -7.5t-50.5 -9.5q97 124 196.5 246.5t193.5 235.5q28 32 28 64q0 16 -6 34l1 -1q-3 15 -9 36.5t-16 43.5q-11 26 -25.5 36t-43.5 10h-8q-48 -2 -103 -6t-110 -10t-107.5 -14t-95.5 -18q-19 -6 -28.5 -14.5t-9.5 -26.5q0 -13 4 -25v1q6 -18 16 -40t19 -39l7 -16 q16 -22 35 -31t40 -9q11 0 41.5 5.5t71.5 11.5q-57 -68 -114.5 -142t-109.5 -144.5t-94.5 -131.5t-69.5 -103z" />
<glyph unicode="{" horiz-adv-x="506" d="M407 63q-4 21 -10 40t-18 42l1 -1q-21 42 -69 42h-9q-10 0 -20.5 -1.5t-19.5 -2.5q16 61 35.5 129.5t40.5 137.5t43 135.5t43 125.5q26 2 52.5 5t52.5 6q29 4 41.5 12t12.5 31q0 9 -4 22l1 -2q-4 23 -8.5 42t-16.5 41l1 -3q-9 24 -28 37.5t-45 13.5h-6q-36 -1 -79.5 -3 t-83.5 -8h1q-33 -3 -49 -16.5t-25 -37.5q-22 -63 -45.5 -139.5t-47.5 -160.5q-26 0 -51 -6t-42 -11h1q-40 -10 -40 -49q0 -15 6.5 -37t16.5 -44.5t22.5 -41.5t24.5 -26q-8 -30 -16.5 -60.5t-16.5 -59t-13 -54.5t-5 -48t7.5 -37.5t21.5 -30.5l17 -17l26 -26t22 -18.5 t23.5 -11t29.5 -3.5q6 0 14.5 1t20.5 4v-1q35 8 71.5 14.5t68.5 12.5q53 1 53 43q0 9 -4 21z" />
<glyph unicode="|" horiz-adv-x="526" d="M446 930q-15 12 -33 21t-32.5 14.5t-22.5 8t-5 1.5q-10 4 -18 6.5t-15 2.5q-35 0 -54 -48q-14 -44 -34 -116t-42.5 -157t-46 -177t-44 -175.5t-36.5 -152t-24 -107.5l1 1q-2 -9 -3 -17.5t-1 -15.5q0 -20 8.5 -34t24 -25t37 -20.5t47.5 -18.5q13 -3 25 -3q21 0 30 10.5 t16 33.5q11 49 30.5 121t42.5 155t48.5 171.5t49.5 170t45 150t35 111.5l-1 -1q4 11 6.5 20t2.5 16q0 17 -9 29t-29 26z" />
<glyph unicode="}" horiz-adv-x="563" d="M488 739q4 11 5 19.5t1 16.5q0 13 -4 25t-15 26l1 -1q-21 31 -45 57q-14 17 -28 25t-36 8h-10t-10 -1h2q-43 -3 -84.5 -5t-74 -9t-52.5 -20.5t-20 -38.5q0 -2 1 -7t3 -13l7 -19v1q7 -25 14 -43.5t16 -30.5t22 -18t32 -6q18 0 38 3q-19 -59 -40.5 -127t-42.5 -137.5 t-40.5 -137t-34.5 -126.5q-29 -5 -55.5 -9.5t-46.5 -12t-32.5 -18.5t-12.5 -27q0 -11 5 -25.5t12 -29.5t14 -28t12 -21q12 -15 25 -23.5t35 -8.5q35 0 77 8.5t77 14.5q40 1 55 15.5t21 37.5q14 57 33.5 125t41.5 145q25 5 51 6.5t47 6t34.5 14.5t13.5 32q0 12 -5 26.5 t-9 28.5t-7.5 26t-8.5 26l1 -1q-15 38 -51 49q19 55 35.5 106t32.5 96z" />
<glyph unicode="~" horiz-adv-x="754" d="M568 520q21 0 48 8t55.5 21t55.5 29.5t49 34.5t36.5 36t16.5 33v3q0 15 -10 26.5t-27 19.5l1 -1q-27 13 -59 13q-40 0 -74 -24l-5 -4q-5 -5 -14 -12t-18.5 -14.5t-18 -13t-12.5 -6.5q-19 2 -37.5 7.5t-36.5 13t-36.5 15t-36.5 13.5h1q-63 21 -121 21q-26 0 -65.5 -11.5 t-79 -28.5t-72.5 -36.5t-45 -35.5q-20 -26 -21 -45v-6q0 -53 82 -53q28 0 49.5 7t45.5 23q14 9 33 20.5t33 11.5q13 0 32.5 -2.5t39 -7t36.5 -10.5t26 -12q23 -17 61 -25t88 -8z" />
<glyph unicode="&#xa1;" horiz-adv-x="394" d="M-2 16q23 -17 53.5 -31t58.5 -21h-1q19 -6 32 -6q20 0 32.5 11t21.5 37q19 57 42.5 132.5t47.5 156t45 159t36 140.5q5 23 5 35q0 20 -12 36t-31 28.5t-42.5 21t-45.5 12.5l1 -1q-8 3 -14.5 4t-11.5 1q-18 0 -29 -10t-17 -35v1q-18 -62 -41.5 -133t-49.5 -145.5 t-53.5 -150t-54.5 -145.5v1q-8 -20 -8 -37q0 -18 9 -32.5t27 -28.5zM439 834q1 5 1.5 9.5t0.5 12.5q0 55 -33.5 85.5t-81.5 30.5h-2q-40 0 -66 -18.5t-41 -42t-21 -46t-6 -29.5q0 -18 7 -38.5t22 -38.5t39 -29.5t59 -11.5q25 0 46.5 10t37 26t25.5 37t13 43z" />
<glyph unicode="&#xa2;" horiz-adv-x="553" d="M449 336q-20 7 -42 7q-26 0 -47 -10t-39 -30q-49 -54 -69 -54q-16 0 -16 50q0 32 8 74.5t23 83.5q11 31 27.5 66.5t34 66.5t34 52t27.5 23q2 -6 2 -19v-12q0 -5 -1 -13v-10v-10t1 -10v-1q2 -20 8.5 -39.5t20 -34.5t34.5 -24t51 -9q20 0 32.5 17.5t19.5 44t9.5 57.5 t3.5 57q0 32 -8.5 56.5t-37.5 48.5l-7 3q5 14 9.5 31.5t8.5 31.5v-1q4 11 4.5 21t0.5 20q0 35 -15 60t-41 44v-1q-9 6 -18 10t-18 4q-16 0 -28.5 -13t-23.5 -36t-21.5 -54t-22.5 -66q-42 -2 -80.5 -27.5t-72 -66.5t-61.5 -93.5t-47.5 -108t-30.5 -109t-11 -97.5 q0 -112 64 -169q-6 -27 -6 -62q0 -21 5.5 -45t16.5 -44.5t28 -33.5t40 -13q16 0 25.5 13t16 34t12 47.5t14.5 53.5h3q72 0 123.5 40t82.5 103q7 13 11 25t4 23q0 17 -9 28.5t-31 19.5h-1z" />
<glyph unicode="&#xa3;" horiz-adv-x="661" d="M141 510q4 1 7 1q4 0 9 1h7q-4 -11 -6.5 -21.5t-6.5 -21.5q-26 -3 -55 -5t-53.5 -8t-40.5 -18t-16 -34q0 -15 12.5 -44.5t30.5 -55.5h-1q11 -17 24.5 -25t33.5 -8h14q-5 -28 -11 -54t-11 -47v1q-3 -10 -4 -17.5t-1 -14.5q0 -23 8 -40t22 -31l21 -20h-1q12 -13 22 -22.5 t21 -19.5v1q11 -10 24 -17t37 -7q11 0 23.5 1.5t28.5 6.5h-1q62 15 128.5 28.5t130.5 27.5q29 8 40.5 16t11.5 27q0 22 -9 54.5t-24 58.5l1 -1q-12 24 -27.5 34t-41.5 10q-45 0 -83 -6t-75 -12q7 20 13 38.5t11 38.5q38 3 76 5.5t78 4.5q26 1 38 8.5t12 29.5q0 9 -3 21v-1 q-5 17 -11 35t-18 37l1 -3q-18 44 -72 44h-44l13 42q32 0 64 -1.5t65 -1.5q23 0 32.5 9t9.5 30v9t-1 7v-1q-3 17 -7.5 30.5t-10.5 30.5v-1q-16 61 -92 61q8 20 15 39t13 38l-1 -1q5 11 7 18.5t2 15.5q0 19 -20.5 39t-49.5 36.5t-60.5 27t-53.5 10.5t-38.5 -20.5t-29.5 -52.5 t-24.5 -70.5t-23.5 -75.5q-31 -2 -65.5 -2.5t-63 -5t-47 -16.5t-18.5 -37q0 -19 10.5 -45t24.5 -51h-1q11 -22 24.5 -30t36.5 -8h10t10 1z" />
<glyph unicode="&#xa5;" horiz-adv-x="659" d="M137 325l32 3q-2 -9 -4.5 -21t-6.5 -21q-27 -3 -58 -5.5t-58 -8.5t-44.5 -18.5t-17.5 -35.5q0 -7 4.5 -20.5t11.5 -28t14 -28.5t13 -22q11 -17 24.5 -25.5t34.5 -8.5q7 0 15 2t16 2v-12q0 -24 12.5 -40.5t32 -28.5t44.5 -20.5t49 -16.5q18 -6 30 -6q19 0 30.5 14.5 t18.5 37.5t12 50t12 53q38 2 76.5 4.5t77.5 4.5q26 2 38.5 9t12.5 29q0 10 -4 21v-1q-4 17 -9.5 34.5t-17.5 37.5l1 -1q-20 43 -74 43h-33l28 41h41q15 0 31 -1t32 -1q23 0 33 9.5t10 30.5q0 9 -2.5 23.5t-7.5 30.5t-13 31.5t-20 27.5q38 55 70.5 105t56 91t37 71.5 t13.5 45.5q0 12 -12.5 32.5t-32.5 40t-45 33.5t-50 14q-15 0 -27.5 -7t-20.5 -26q-46 -74 -92.5 -148t-96.5 -148q-15 72 -30 136t-27 112q-5 15 -10.5 26.5t-13 19.5t-18.5 13.5t-27 9.5l1 -1q-15 4 -27.5 5t-24.5 1q-55 0 -81.5 -9t-26.5 -38q0 -13 3 -25v1 q12 -69 29.5 -156t37.5 -177q-8 -1 -15 -1.5t-14 -1.5l-35 -3q-21 -3 -37 -14t-16 -36q0 -5 0.5 -10t2.5 -10v2q11 -51 33 -84t62 -33q3 0 6 0.5t8 0.5h3z" />
<glyph unicode="&#xa6;" horiz-adv-x="421" d="M446 930q-16 13 -33.5 22t-31.5 14.5t-22.5 7.5t-5.5 1q-10 4 -18 6.5t-14 2.5q-18 0 -30 -11t-20 -28t-13.5 -37t-11.5 -38q-15 -48 -23 -76.5t-14 -53.5t-12 -54t-16 -80q-3 -15 -3 -31q0 -20 8 -33.5t23 -24.5t36.5 -20.5t49.5 -20.5q12 -3 25 -3q21 0 29.5 10.5 t16.5 33.5q18 49 28.5 80t19 55.5t16 48.5t19.5 60v-1q5 17 11.5 37t14.5 44l-1 -2q4 11 6.5 20t2.5 17q0 17 -9 29t-29 26zM298 381q-20 16 -36.5 23t-33.5 13q-16 4 -24 7.5t-13 6t-8.5 3.5t-10.5 1q-36 0 -54 -49q-16 -50 -26 -83.5t-16.5 -57t-10.5 -41.5t-8 -37.5 t-8.5 -45t-11.5 -64.5q-2 -8 -3 -15t-1 -17q0 -20 8 -34t23 -25t37 -20t50 -19q12 -3 24 -3q23 0 30.5 10t15.5 33q14 40 24 68.5t17 50.5t13 41t13 42t16 52t22 71l-1 -2q9 22 9 37q0 17 -8.5 29t-28.5 26z" />
<glyph unicode="&#xa7;" horiz-adv-x="930" d="M-15 235q-17 -8 -24.5 -21t-9.5 -27v-2q0 -25 41 -74q72 -87 147.5 -124t159.5 -37h10q53 1 94 12.5t72.5 29t54 39.5t38.5 44q8 -1 17 -1h20h17q65 1 113 18.5t81.5 42.5t55 54.5t33.5 54.5l-1 -1q9 16 12.5 31t3.5 29q0 27 -13 51.5t-34.5 47t-49 44t-56.5 43 t-57.5 43.5t-51.5 47v-1q-20 21 -20 52q0 27 13.5 55.5t33 54t41.5 45t39 28.5l1 1q1 0 2 1q-3 -17 -9.5 -40.5l-13 -47t-11.5 -43.5t-5 -30q0 -84 126 -132q15 -7 32 -7q16 0 31.5 16.5t29.5 43.5t26 60.5t21 67.5t14 65.5t5 53.5q0 28 -8.5 58.5t-40.5 59.5q-19 18 -46 35 t-56.5 30.5t-60 22t-55.5 8.5q-37 0 -67 -10.5t-48 -23.5l2 2q-33 -18 -66 -45.5t-63 -59.5l-1 1q-20 7 -37.5 9t-32.5 2q-36 0 -65.5 -9.5t-47.5 -22.5l2 1q-36 -20 -72.5 -51t-68.5 -66.5t-56.5 -73.5t-36.5 -72l1 1q-25 -56 -25 -108q0 -51 20.5 -95t55.5 -76v1 q28 -28 65 -56t70.5 -53t57.5 -44.5t26 -30.5q-7 -5 -15.5 -6.5t-18.5 -1.5q-67 0 -173 76q-17 13 -41 20.5t-50 7.5q-39 0 -76 -17h-1zM346 455q-24 26 -34.5 55.5t-10.5 58.5q0 28 7.5 48t20 34.5t27.5 24t30 17.5q-1 -17 -2 -37t-1 -39q0 -66 36 -119t94 -86l-2 1 q27 -22 55 -42.5t51 -38t38 -31t17 -20.5q-16 -10 -35 -10q-18 0 -36.5 5t-39.5 16t-46.5 28.5t-57.5 43.5q-30 21 -58.5 43t-52.5 48z" />
<glyph unicode="&#xa8;" horiz-adv-x="618" d="M442 896q-1 -4 -1.5 -7.5t-0.5 -8.5q0 -35 25.5 -55t62.5 -20h4q26 0 44.5 9t30 21.5t18 25t8.5 18.5q1 3 1.5 5.5t1.5 6.5v6q0 12 -5.5 25t-17 24.5t-30 18.5t-44.5 7q-40 0 -66 -23.5t-31 -52.5zM185 897q-1 -5 -1 -16q0 -34 25 -54.5t62 -20.5h4q31 0 51.5 12t32 27 t16.5 29t5 18v6q0 12 -5.5 25t-17.5 24t-30.5 18t-43.5 7q-39 0 -66 -23t-32 -53v1z" />
<glyph unicode="&#xa9;" horiz-adv-x="1295" d="M822 1063q-91 0 -184 -32t-180.5 -87t-164 -129t-133.5 -158t-90 -174t-33 -177q0 -46 9.5 -91t30 -84.5t53.5 -73t81 -55.5q68 -32 149 -47t170 -15q76 0 155.5 11.5t157 33.5t150.5 55t136 76t114 96.5t84 115.5q31 58 46.5 125.5t15.5 130.5q0 66 -18 126t-59 102 q-35 54 -93.5 100t-127 79.5t-139.5 52.5t-130 19zM1181 431q-25 -36 -54 -73t-63 -70.5t-72 -63t-81 -50.5q-41 -20 -78.5 -36.5t-75 -28t-76 -18t-80.5 -6.5q-49 0 -104 9t-121 29q-79 23 -114 69.5t-35 108.5q0 60 26.5 128.5t72 136t105 129t125.5 109t134.5 75.5 t130.5 28q46 0 92.5 -16t89 -43.5t79 -64.5t64 -79.5t43 -87.5t15.5 -88q0 -26 -5.5 -50.5t-19.5 -47.5zM841 358q-11 5 -23 6.5t-23 1.5q-52 0 -89 -39q-52 -54 -72 -54q-15 0 -15 50q0 32 8.5 73.5t23.5 83.5q12 31 29 66t35 65t34.5 51t27.5 24q3 -3 3 -21v-11 q0 -5 -1 -12v2q-1 -4 -1 -9v-8v-15q6 -44 27.5 -68.5t73.5 -35.5l-1 1q8 -2 13 -2.5t9 -0.5q20 0 27 8t14 21v-1q6 12 10.5 30.5t7.5 38.5t4.5 40t1.5 37q0 31 -8.5 56t-40.5 50q-14 10 -33 19.5t-40.5 17t-44 12.5t-42.5 5q-46 0 -88.5 -24.5t-79 -65t-66.5 -93t-51.5 -108 t-33 -110.5t-11.5 -101q0 -72 24.5 -115.5t66.5 -65.5q12 -6 28 -12t34 -11t37.5 -8t37.5 -3q69 0 122 35t89 107l-1 -1q17 28 17 49q0 16 -9.5 28t-32.5 17h2zM780 686l0.5 -0.5t1.5 -0.5l-5 1h3z" />
<glyph unicode="&#xaa;" horiz-adv-x="402" d="M443 781l-1 -1q2 6 4 11.5t2 11.5q0 23 -23 40q-16 9 -35.5 19.5t-38 18.5t-33.5 13.5t-22 5.5q-12 0 -33.5 -15t-48 -39t-55.5 -55t-56.5 -63t-51.5 -62t-39 -53l1 1q-7 -10 -11 -19.5t-4 -20.5q0 -13 5.5 -25.5t14 -24.5t18.5 -22.5t18 -19.5l-1 2q10 -11 20.5 -15.5 t21.5 -4.5q25 0 47 5t48 8q-14 -47 -17 -72l1 2q-4 -13 -4 -23q0 -19 13.5 -32.5t31 -22t33.5 -12.5t22 -4q17 0 23.5 7t11.5 24q8 32 19 69t24 79q20 1 35.5 2t25.5 4t15 10t5 21v5q0 4 -2 8v-1q-2 5 -2.5 9.5t-1.5 9.5q-3 17 -12.5 34t-23.5 24q15 48 29.5 89.5t26.5 73.5 zM258 698q-6 -20 -12 -38.5t-12 -37.5l-2 -5q-14 -2 -28 -2.5t-28 -1.5q39 42 82 85z" />
<glyph unicode="&#xab;" horiz-adv-x="959" d="M29 435q-5 -13 -5 -26q0 -20 9.5 -29.5t27.5 -18.5q39 -19 82.5 -38.5t86.5 -37.5t82.5 -33t71.5 -25h-1q7 -3 14 -4t13 -1q18 0 28.5 8.5t16 22t7.5 31.5t2 37q0 42 -12 58t-43 25h1q-23 8 -46 16.5t-46 17.5q39 12 79.5 24.5t74 26t54.5 28t21 31.5q0 14 -11 28 q-4 2 -5 6q-12 14 -25.5 29t-27 27t-27 19.5t-26.5 7.5q-16 0 -36 -10h2q-59 -24 -122 -44.5t-145 -44.5q-21 -6 -35.5 -17.5t-25 -28t-18.5 -38t-16 -47.5zM487 412q-3 -9 -4 -15.5t-1 -11.5q0 -19 10 -29t28 -18q39 -20 82.5 -39.5t86 -37.5t82 -32.5t71.5 -24.5h-2 q8 -3 15 -4t13 -1q18 0 29 9t16.5 24t7 33.5t1.5 37.5q0 39 -13.5 54t-41.5 23h1q-23 8 -46 17t-46 17q37 12 77.5 24.5t74 26t55 28.5t21.5 32q0 10 -7.5 23t-18.5 26.5t-25.5 26t-27.5 23.5l1 -1q-23 19 -44 19q-16 0 -35 -10h1q-59 -25 -121.5 -45.5t-144.5 -43.5 q-23 -6 -37.5 -18.5t-25 -30t-17.5 -38.5t-15 -44z" />
<glyph unicode="&#xac;" horiz-adv-x="1480" d="M1164 875l-114 -333v1q-2 -5 -2.5 -10t-0.5 -10q0 -17 10.5 -31t24 -24t26 -16t15.5 -8q-19 -4 -36.5 -9t-32.5 -10q-14 -80 -37 -152.5t-41 -138.5q2 72 5.5 140t10.5 115v8q0 15 -5.5 24t-19.5 16q16 6 19 28q16 46 36.5 97.5t41.5 101t40.5 95l34.5 80.5l1 1 q2 5 3.5 7.5t1.5 10.5q0 14 -16 26.5t-38.5 21.5t-46.5 14t-41 5t-27 -6t-18 -23q-14 -31 -30 -70t-32 -81l-12 -27q-17 -2 -35 -2.5t-36 -2.5q11 30 25 61t30 58q1 4 1.5 5t0.5 11q0 14 -16 26.5t-39 22.5t-49 15.5t-46 5.5q-17 0 -27 -6.5t-15 -23.5v1q-2 -8 -5 -14.5 t-5 -14.5q-10 16 -18.5 28.5t-19 20.5t-25 12t-35.5 4q-39 0 -89.5 -2.5t-103 -7t-103 -9.5t-91.5 -9q-17 -2 -26 -8t-9 -21q0 -12 9 -27.5t22.5 -30t30.5 -24t33 -9.5q6 0 21.5 1.5t33.5 4.5h2q-14 -35 -30 -76.5t-30 -81t-23.5 -73.5t-9.5 -53q0 -27 21 -37q-5 1 -13 1 q-28 0 -43 -25q-19 -35 -40.5 -83t-41 -98t-36 -96.5t-25.5 -79.5q-2 -6 -2 -10v-6q0 -11 10 -26.5t27.5 -30t40 -24.5t47.5 -10q19 0 39 4h-1q54 8 114 17.5t115 17.5q4 -4 9.5 -7.5t12.5 -7.5l9 -5q17 -7 35.5 -13t35.5 -6q12 0 20.5 4.5t18.5 17.5l12 17q9 14 18.5 26 t20.5 26q41 8 87.5 11.5t94.5 10.5q1 -28 3 -47t7 -31t15.5 -19t29.5 -11l-1 1q21 -6 39 -7t38 -1q30 0 40 8.5t12 28.5v33q2 -3 5 -5t6 -5v1l7 -7q12 -9 28 -18t33 -16.5t34.5 -12.5t34.5 -5q26 0 61 6.5t72.5 17.5t74.5 26.5t66 34t47 39t18 42.5q0 45 -43 76 q24 11 46 23.5t39 27t27 31t10 36.5q0 14 -4 22v-3q-11 42 -45.5 71.5t-84.5 40.5q23 3 32.5 10t9.5 21q0 8 -4.5 22.5t-14.5 29t-25 25t-37 10.5h-9q-3 0 -8 -1h2q-28 -2 -53 -3t-50 -4q2 2 4 8t6 14q42 7 85.5 12t86.5 10q21 5 31.5 11t10.5 21q0 7 -2 10t-4 8l1 -4 q-8 28 -25 49t-54 21h-9h-28t-26 -1q4 4 7.5 11t6.5 15t6 15.5t6 12.5q46 4 87 6.5t82 6.5q25 2 35 8.5t10 25.5q0 13 -4.5 28t-14.5 28t-26.5 21t-40.5 8q-41 0 -82.5 -3.5t-80.5 -8t-74.5 -10t-65.5 -9.5zM629 810q7 1 12.5 2t10.5 2q-13 -36 -26 -76.5t-26 -79.5 t-26.5 -75.5t-26.5 -65.5q-4 -9 -4 -19q0 -14 9 -24t23.5 -17t31.5 -11t33 -6l15 -3q5 -1 9.5 -1.5t11.5 -0.5q18 0 26 6.5t12 20.5v-2q5 14 9.5 26.5t9.5 26.5v-1q6 18 12.5 36t13.5 35q12 1 24.5 1.5t25.5 2.5l29 3q-8 -26 -15.5 -52t-7.5 -41q0 -12 6 -21t16 -15 q-10 1 -21 1.5t-23 1.5h-8q-33 0 -51.5 -9t-32.5 -23q-33 -35 -71.5 -81.5t-76 -96t-71.5 -98t-58 -85.5v-1q-23 55 -77 55h-9q-27 -2 -51.5 -3.5t-49.5 -4.5q29 67 61.5 136.5t63.5 125.5l3 6t1 10q0 13 -9 21t-26 17h9q32 0 40 29v-1q13 39 30 82.5t35.5 87.5t37 87.5 t36.5 83.5q26 2 54.5 4t54.5 4h1zM509 264q9 7 25 22t31.5 32.5t27 34.5t11.5 28q1 3 2 6.5t1 6.5v1q0 21 -20 34t-44 24h1q-20 9 -32 9q-26 0 -39 -21h1q-13 -17 -33.5 -41.5t-40 -49t-33.5 -44.5t-14 -28q0 -20 22.5 -27.5t57.5 -7.5q21 0 39 4t36 16zM1249 331 q57 16 94 16h20q-7 -12 -43 -30t-95 -34q5 12 11 24.5t13 23.5zM1237 160q27 0 35 -3q-5 -10 -37 -23t-84 -25q5 13 9 22.5t9 21.5q19 3 35.5 5t32.5 2zM732 218q17 21 33 40.5t30 38.5q-1 -20 -1.5 -40.5t-0.5 -41.5v-3q-18 -1 -35 -2t-35 -3zM1365 352v-2l-1 5 q0 -1 0.5 -1.5t0.5 -1.5z" />
<glyph unicode="&#xad;" horiz-adv-x="587" d="M-20 538q-44 -8 -44 -44q0 -20 13.5 -47t33.5 -51.5t42.5 -41.5t40.5 -17q10 0 22 4q72 17 155 26t164 14q26 1 38 8.5t12 27.5q0 -1 -2.5 10t-8 28t-14.5 37t-22.5 37.5t-32 29.5t-43.5 12q-45 0 -94.5 -3t-97 -7.5t-90 -10.5t-72.5 -12z" />
<glyph unicode="&#xae;" horiz-adv-x="1295" d="M822 1063q-91 0 -184 -32t-180.5 -87t-164 -129t-133.5 -158t-90 -174t-33 -177q0 -46 9.5 -91t30 -84.5t53.5 -73t81 -55.5q68 -32 149 -47t170 -15q76 0 155.5 11.5t157 33.5t150.5 55t136 76t114 96.5t84 115.5q31 58 46.5 125.5t15.5 130.5q0 66 -18 126t-59 102 q-35 54 -93.5 100t-127 79.5t-139.5 52.5t-130 19zM1181 431q-25 -36 -54 -73t-63 -70.5t-72 -63t-81 -50.5q-41 -20 -78.5 -36.5t-75 -28t-76 -18t-80.5 -6.5q-49 0 -104 9t-121 29q-79 23 -114 69.5t-35 108.5q0 60 26.5 128.5t72 136t105 129t125.5 109t134.5 75.5 t130.5 28q46 0 92.5 -16t89 -43.5t79 -64.5t64 -79.5t43 -87.5t15.5 -88q0 -26 -5.5 -50.5t-19.5 -47.5zM772 200q22 -15 39.5 -21.5t31.5 -6.5q7 0 24 2.5t35 9.5t31.5 19t13.5 31q0 8 -4 15t-13 18q-16 14 -33 32.5t-34.5 39t-34.5 41.5t-32 41q77 37 133 79.5t82 93.5 l-1 -1q15 24 15 57q0 27 -7 51.5t-18 46t-24.5 39t-25.5 30.5q-22 24 -51.5 33t-62.5 9q-54 0 -115.5 -19.5t-117.5 -45.5q-12 -6 -25 -31t-26 -62.5t-26.5 -84t-25.5 -95t-23 -94.5t-20 -83v1q-8 -38 -14 -63t-6 -38q0 -35 27 -52l-1 1q17 -11 33 -15.5t35 -9.5h-1 q7 -2 12 -2.5t9 -0.5q17 0 25.5 7.5t14.5 24.5q11 36 22 73t22 75q16 -21 34.5 -42t36.5 -40t35 -35t31 -28zM829 690q20 0 26 -6q0 -10 -10.5 -25.5t-30 -33.5t-47 -36t-62.5 -34q10 30 21 60.5t22 56.5q24 11 44 14.5t37 3.5z" />
<glyph unicode="&#xaf;" horiz-adv-x="585" d="M188 989q-43 -7 -43 -42q0 -18 6.5 -30.5t15 -21t15.5 -13t9 -5.5q29 -36 65 -36q9 0 23 3q70 17 153.5 25t164.5 14q26 1 38 7.5t12 25.5q0 7 -2.5 15t-5.5 15.5t-5.5 12t-1.5 3.5q-20 29 -39.5 43.5t-50.5 14.5q-45 0 -94.5 -2.5t-97 -7t-89.5 -10t-73 -11.5z" />
<glyph unicode="&#xb0;" horiz-adv-x="359" d="M354 826q-17 8 -42 13.5t-51 7.5h-13q-50 0 -89.5 -19t-67.5 -47.5t-43 -61t-15 -59.5q0 -33 19 -58t52 -35h-1q23 -8 53.5 -11t56.5 -3q49 0 85.5 20t60.5 49.5t35.5 63t11.5 59.5q0 28 -11.5 48t-40.5 33zM269 753q0 -20 -9 -42t-22 -40t-27.5 -29.5t-25.5 -11.5 q-5 0 -7.5 2.5t-2.5 12.5q0 15 9 36t23 40t29.5 32t29.5 13h1q2 0 2 -13z" />
<glyph unicode="&#xb1;" horiz-adv-x="739" d="M593 94q27 0 39 9t12 29q0 10 -3.5 21.5t-8.5 24.5v-1q-4 11 -9 23.5t-13 26.5h1q-11 20 -29.5 32t-44.5 12q-64 -1 -108 -2.5t-78 -3.5q7 7 15 30.5t17 55t18.5 67.5t19.5 69q54 5 106.5 7t105.5 4q26 0 37.5 7t11.5 30q0 4 -1 8.5l-3 13.5v-1q-2 8 -8 27t-17.5 39 t-30.5 35.5t-47 16.5q-12 0 -26 0.5t-29 0.5h-19q-9 0 -19 -1q6 25 20 48.5t14 43.5q0 14 -6.5 24t-17.5 23l1 -2q-8 10 -22.5 21.5t-31 21.5t-31.5 16.5t-25 6.5q-23 0 -39.5 -18t-30 -48t-25.5 -68.5t-25 -79.5q-59 -4 -111 -10t-90 -13q-20 -4 -37.5 -15t-17.5 -36 q0 -16 10 -39.5t25.5 -45.5t34.5 -37.5t37 -15.5q5 0 11.5 0.5t14.5 2.5l-1 -1q17 2 34.5 5.5t35.5 5.5q-4 -14 -7 -28.5t-5.5 -28t-4 -23.5t-1.5 -14q0 -41 36 -63h-1q20 -12 41 -24.5t41 -19.5q-29 -3 -55 -7.5t-57 -9.5t-69.5 -12t-91.5 -14q-20 -3 -38.5 -15t-18.5 -36 q0 -17 9.5 -40.5t25 -45.5t34.5 -37.5t38 -15.5q8 0 13.5 0.5t12.5 1.5q64 12 103.5 21.5t67.5 16t51 11t55 7t80 4t125 2.5z" />
<glyph unicode="&#xb2;" horiz-adv-x="349" d="M375 644v-1q18 29 30 55.5t12 55.5q0 18 -9.5 42t-28.5 46t-48 37.5t-68 15.5q-56 0 -109 -34.5t-91 -90.5q-18 -32 -18 -49q0 -14 7.5 -23t19.5 -14t26.5 -7t28.5 -2q24 0 44.5 10.5t37 23.5t30.5 25.5t25 17.5q-9 -20 -38.5 -56.5t-70 -78.5t-87 -85t-89.5 -76 q-11 -9 -15.5 -18t-4.5 -20q0 -17 10 -35.5t25 -35t31.5 -27t30.5 -10.5q2 0 28 4.5t62.5 10.5t78.5 11.5t76 7.5q17 3 25.5 9.5t8.5 22.5q0 3 -1 6.5t-2 7.5l1 -1q-3 13 -9 28t-15.5 28t-22 21t-27.5 8h-2q-8 0 -18 -0.5t-18 -2.5q46 41 87.5 86.5t66.5 86.5z" />
<glyph unicode="&#xb3;" horiz-adv-x="355" d="M360 651q19 16 31 41.5t12 55.5q0 37 -15.5 64.5t-38 46.5t-47 28.5t-42.5 9.5q-24 0 -43 -6l1 1q-25 -5 -52 -18.5t-49 -30t-36.5 -34.5t-14.5 -32q0 -13 7.5 -23.5t20.5 -18t29 -12t34 -4.5q13 0 27 3.5t25 11.5q14 8 28.5 15.5t24.5 9.5q-5 -14 -47.5 -39t-130.5 -54 q-28 -10 -28 -36q0 -21 10.5 -37.5t26 -28t33 -18t31.5 -6.5h13q7 1 12.5 1.5t10.5 0.5q8 0 14.5 -3.5t6.5 -15.5q0 -11 -5.5 -23t-14.5 -22t-22 -17t-28 -7q-14 0 -30.5 5t-36.5 17q-11 6 -24 10t-26 4q-7 0 -18.5 -2t-22.5 -7.5t-19 -14.5t-8 -23q0 -10 6 -22t20 -26h-1 q41 -43 84 -58.5t85 -15.5q53 0 98 17.5t82 65.5v-1q16 20 25 44.5t9 49.5q0 29 -15.5 60.5t-48.5 53.5q36 20 57 40z" />
<glyph unicode="&#xb4;" horiz-adv-x="579" d="M651 1019q-2 27 -9.5 44.5t-30.5 26.5h2q-33 16 -60 16q-22 0 -41 -13q-53 -34 -123 -65.5t-140 -60.5q5 -21 8.5 -38.5t4.5 -18.5l-26 -23q19 -10 35.5 -15.5t33.5 -5.5q8 0 14.5 1.5t14.5 3.5q41 13 85 29.5t85 34.5t76.5 36t60.5 32zM249 967q-5 24 -12.5 44.5 t-12.5 20.5t-8 -22.5t-3 -79.5q2 8 10 19.5t26 17.5z" />
<glyph unicode="&#xb6;" horiz-adv-x="714" d="M138 200q-13 -63 -25.5 -124t-29.5 -120v-10q0 -20 6.5 -28.5t29.5 -8.5q18 0 27 3t21 5q29 7 55.5 15.5t48.5 22t37.5 33.5t22.5 50q1 5 8.5 30t19.5 62.5t27.5 84.5t32.5 97.5t33.5 100.5t31 94t25.5 77.5t16 51.5h2q11 0 13 -20q-3 -17 -13 -52.5t-24 -82t-31 -100.5 t-34.5 -109.5t-35 -109t-32 -98t-25.5 -77.5t-15 -47v-11q0 -20 7 -29.5t30 -9.5q13 0 25.5 3t25.5 7q28 8 54.5 16.5t48.5 21.5t37 33t20 51q4 28 18.5 82.5t34 122t41 141t39.5 138.5t30 115.5t12 71.5q0 10 -3.5 18t-9.5 10l2 -2q-28 20 -63 40t-74.5 36.5t-81.5 27 t-85 10.5q-47 0 -92 -16.5t-88 -46t-83 -71t-76 -92.5q-23 -31 -33 -59.5t-10 -54.5v-4q0 -53 27 -104.5t75 -90.5q-7 -19 -10 -42t-10 -52z" />
<glyph unicode="&#xb7;" horiz-adv-x="302" d="M90 452q0 -4 -0.5 -8.5t-0.5 -11.5q0 -45 28.5 -71.5t71.5 -26.5h7q39 0 63 16t37.5 36.5t18 39t5.5 23.5v7q0 15 -6.5 32t-20.5 31.5t-35.5 24.5t-51.5 10q-24 0 -44 -8.5t-35 -22.5t-24.5 -32.5t-12.5 -38.5z" />
<glyph unicode="&#xb8;" horiz-adv-x="285" d="M94 -190q13 14 31.5 39t36 53.5t32 57t20.5 51.5v-1q7 21 7 25v6q0 13 -11.5 31.5t-28.5 36t-36.5 29.5t-35.5 12q-30 0 -43 -33v1q-12 -26 -29 -58.5t-35 -66.5t-36 -67t-32 -59v1q-4 -5 -6.5 -10.5t-5.5 -10.5v1q-9 -17 -9 -30q0 -26 25.5 -35.5t65.5 -9.5q26 0 48 7.5 t42 30.5v-1z" />
<glyph unicode="&#xb9;" horiz-adv-x="211" d="M282 781q6 12 6 23q0 12 -6 20.5t-19 17.5h1q-11 9 -25.5 17t-28 14t-25.5 9.5t-19 3.5q-10 0 -21.5 -8.5t-23 -22t-22.5 -31t-20 -35.5q-4 -8 -6 -14t-2 -12q0 -11 5 -18.5t16 -15.5q-12 -43 -25 -94.5t-23.5 -98.5t-17.5 -84t-7 -52q0 -17 7.5 -28.5t20.5 -20t30.5 -14 t36.5 -11.5h-1q9 -4 19 -4q14 0 19.5 6.5t9.5 17.5q10 44 25 103.5t32 120.5t34 117t31 95z" />
<glyph unicode="&#xba;" horiz-adv-x="1244" d="M432 760q-3 41 -16 62.5t-47 35.5h1q-17 9 -38 18t-43 16.5t-42.5 12.5t-35.5 5q-45 0 -65 -50q-17 -48 -36.5 -113t-39.5 -137t-39.5 -145.5t-35.5 -139t-28.5 -118.5t-17.5 -82l1 1q-3 -11 -4 -19.5t-1 -16.5q0 -22 8.5 -36t28.5 -26l-1 1q19 -15 42.5 -23t46.5 -15 l11 -3q22 -5 31 -5q20 0 29 10t16 30q8 34 20 78t26 93t29 102.5t30 107.5q14 -87 31 -166t34 -136q9 -29 30 -51t48.5 -36t58 -21t57.5 -7q50 0 60 48l-1 -1q21 79 47 177t54 198t55.5 193.5t50.5 164.5q4 10 5.5 19t1.5 17q0 23 -16 40.5t-38.5 29.5t-46 20t-38.5 12 q-9 2 -16.5 3.5t-12.5 1.5q-44 0 -60 -49q-26 -79 -54.5 -173t-53.5 -195q-5 40 -9 79.5t-7.5 74.5t-6 64t-3.5 49zM1146 709q-17 8 -42.5 14t-54.5 8h-20q-52 0 -93.5 -21.5t-71 -53t-45 -66.5t-15.5 -63q0 -17 4 -32.5t15 -29.5l-1 1q8 -13 24 -23.5t33 -15.5h-1 q26 -11 59.5 -13.5t58.5 -2.5q53 0 92.5 22t65 54t38 68t12.5 65q0 32 -12 53t-45 35zM722 347q-45 -9 -45 -50q0 -6 2.5 -15.5t5 -18t5 -14.5t2.5 -4q4 -17 16 -30.5t27 -23.5t31.5 -15.5t31.5 -5.5q12 0 25 4q74 19 161.5 29t169.5 16q28 1 41 9.5t13 30.5q0 10 -3 20 t-6.5 18t-6.5 12t-2 1q-2 2 -5 8t-8 14q-34 51 -86 51q-47 0 -98.5 -3t-101 -8t-93.5 -11.5t-76 -13.5zM1043 615q0 -15 -6.5 -31t-15.5 -29t-18.5 -21.5t-16.5 -8.5q-3 0 -3 9q0 10 6.5 24t15.5 27t19.5 23t19.5 12q-1 -1 -1 -5z" />
<glyph unicode="&#xbb;" horiz-adv-x="959" d="M994 428q6 16 6 27q0 18 -10 27.5t-28 19.5q-41 20 -85 40t-87 38t-82 33t-69 25l1 -1q-8 3 -15 4t-12 1q-17 0 -27.5 -9t-16 -23.5t-7.5 -32t-2 -34.5q0 -42 12.5 -58t42.5 -25h-1q45 -16 91 -35q-39 -12 -79 -24t-73 -25.5t-54 -28t-21 -31.5q0 -11 8.5 -25t20.5 -28 t25 -26.5t22 -19.5q13 -9 23 -14t23 -5q10 0 18 2.5t17 7.5h-2q60 26 122.5 46.5t143.5 43.5q27 9 40 19.5t25 34.5v-1q8 15 15.5 34.5t14.5 42.5zM537 451q5 14 5 27q0 19 -10 28t-27 19q-41 20 -85 40t-87 38t-82 33t-69 25l1 -1q-8 3 -15.5 4t-11.5 1q-16 0 -26.5 -8 t-16.5 -21.5t-8.5 -31t-2.5 -36.5q0 -21 3 -35t9.5 -23.5t17.5 -15.5t26 -11h-1q23 -8 46 -17t45 -18q-39 -12 -79.5 -24t-73.5 -25t-54 -28t-21 -32q0 -10 9 -24.5t21 -28.5t25 -26.5t22 -19.5q24 -18 45 -18q11 0 18.5 2.5t17.5 7.5h-2q60 25 122 46t143 44 q23 7 37.5 18.5t24.5 27.5t17.5 37t16.5 46z" />
<glyph unicode="&#xbc;" horiz-adv-x="821" d="M839 829q-9 16 -15 20.5t-12 5.5v0q1 0 1 1l-2 4l1 -1q-22 27 -48 27q-11 0 -24.5 -5t-26.5 -16q-40 -31 -101 -84t-131.5 -117.5t-145 -135t-141.5 -135t-121.5 -118t-84.5 -83.5q-14 -13 -23.5 -27.5t-14.5 -32.5v-11q0 -16 10 -30.5t23 -14.5h3q8 -10 17 -13.5 t18 -3.5q22 0 47 25q39 36 99 90t130 116t145 128t144.5 126t128.5 110.5t98 81.5q17 14 26 27.5t9 30.5q0 8 -2.5 16.5t-6.5 17.5v1zM831 443h-1q7 14 7 24q0 13 -18 30t-43.5 32t-52.5 25.5t-45 10.5q-13 0 -35.5 -15t-50 -40t-57.5 -56.5t-58.5 -64t-53 -63.5t-40.5 -54 v1q-8 -11 -11 -21t-3 -21q0 -20 11.5 -40t27.5 -36.5t32.5 -26.5t27.5 -10q25 0 49.5 5.5t49.5 8.5q-14 -49 -17 -72q-3 -15 -3 -24q0 -16 9.5 -27.5t23 -20t28 -14t23.5 -8.5q7 -2 11 -2h9q17 0 24.5 7t12.5 24q9 32 19.5 70.5t24.5 81.5q11 1 21 1.5t21 1.5h1q23 2 33 9 t10 26q0 12 -3.5 26t-9.5 27.5t-14.5 23.5t-17.5 14q17 49 31.5 91.5t26.5 75.5zM283 834q0 15 -16 30t-38 27t-44.5 20t-35.5 8q-14 0 -21.5 -5.5t-18.5 -16.5h1q-13 -13 -30 -36.5t-26 -41.5h1q-5 -8 -7 -14t-2 -12q0 -14 6 -20.5t17 -14.5q-14 -45 -28 -97.5t-25.5 -101 t-19 -86.5t-7.5 -54q0 -18 10 -30.5t25.5 -21.5t34 -14.5t34.5 -9.5h-1q11 -4 20 -4q17 0 23 7.5t10 24.5q10 43 26.5 102t35 121t37.5 119.5t35 98.5l-1 -1q5 13 5 23zM639 358q-6 -20 -12 -41.5t-14 -41.5q-14 -1 -29 -1.5t-29 -1.5q20 20 41 42.5t43 43.5z" />
<glyph unicode="&#xbd;" horiz-adv-x="864" d="M840 829q-8 16 -14 20.5t-13 5.5v0q1 0 1 1l-2 4l1 -1q-21 27 -48 27q-24 0 -51 -21q-40 -31 -101 -84t-131.5 -117.5t-145.5 -135t-142 -135t-121.5 -118t-84.5 -83.5q-14 -13 -23.5 -27.5t-14.5 -32.5v-11q0 -16 10 -30.5t23 -14.5h3q8 -10 17 -13.5t18 -3.5 q22 0 47 25v-1q30 27 71.5 64.5t90.5 81.5t103 92t109.5 96.5t109.5 95.5t102.5 89t89.5 76.5t70 57.5q17 14 26.5 27.5t9.5 30.5q0 14 -10 34v1zM843 313v-1q19 29 30.5 56.5t11.5 56.5q0 21 -10 46.5t-30.5 47t-51 36.5t-70.5 15q-59 0 -112.5 -36t-92.5 -93 q-20 -31 -20 -49q0 -14 8 -23.5t20 -15t27 -7.5t29 -2q25 0 46.5 10.5t39.5 24t32.5 26t25.5 17.5q-6 -13 -21.5 -34.5t-38.5 -47.5t-51.5 -55t-59.5 -58t-63 -56.5t-62 -49.5q-13 -9 -17.5 -20t-4.5 -20q0 -16 10.5 -35.5t26 -36.5t33.5 -28.5t33 -11.5q6 0 14 1t19 4h-1 q18 4 45.5 9t58.5 9.5t61 7.5t54 5q20 2 29.5 8.5t9.5 23.5q0 3 -1 7t-2 9l1 -1q-2 11 -9.5 27t-15.5 27q-18 31 -53 31h-4q-8 -1 -17 -1t-18 -1q49 42 92.5 89t68.5 89zM284 834q0 15 -16 30t-38 27t-44.5 19.5t-35.5 7.5q-14 0 -22 -5t-19 -17h1q-7 -7 -15 -16.5 t-15.5 -20t-14.5 -21t-11 -19.5h1q-9 -17 -9 -26q0 -14 6 -20.5t17 -14.5q-14 -44 -28.5 -96.5t-26 -101t-19 -87t-7.5 -54.5q0 -17 10 -29.5t25.5 -21.5t34 -15t35.5 -10h-1q11 -4 20 -4q17 0 23 7.5t10 23.5q10 43 26.5 102.5t35.5 121t38 119.5t34 99l-1 -1q6 12 6 23z M736 424q-2 0 -2 1h1v-1h1z" />
<glyph unicode="&#xbe;" horiz-adv-x="973" d="M990 830q-8 17 -14.5 21.5t-11.5 5.5v0q1 0 1 1q0 7 -6.5 12.5t-15.5 9t-17 5.5t-11 2q-11 0 -24.5 -5t-26.5 -16q-40 -31 -101.5 -84t-132 -118t-145.5 -135.5t-142.5 -135t-122 -118t-84.5 -83.5q-17 -16 -27.5 -32.5t-10.5 -39.5q0 -12 8.5 -28t23.5 -16h3 q8 -10 17 -13.5t19 -3.5q22 0 48 26v-1q39 36 99.5 90t130.5 116.5t145 128.5t145 126t129.5 110.5t97.5 81.5h-1q18 15 28 28t10 30t-11 37v-2zM983 444l-1 -1q4 8 5 14t1 11q0 16 -21 33.5t-48.5 32t-53.5 23.5t-36 9q-13 0 -35.5 -15.5t-50.5 -40.5t-58.5 -56.5 t-59.5 -64.5t-53.5 -63.5t-39.5 -53.5q-8 -11 -11 -21.5t-3 -18.5q0 -21 12 -41.5t28.5 -36.5t33.5 -26t27 -10q24 0 49 5.5t50 8.5q-16 -48 -17 -74v1q-3 -15 -3 -22q0 -16 9.5 -28t23 -20.5t27.5 -14t24 -8.5q7 -2 12 -2.5t9 -0.5q17 0 24 7.5t12 24.5q9 32 20 71t24 81 q21 3 37 3.5t27 3t16.5 9.5t5.5 23v5t-2 8v-1q-2 5 -2.5 10t-2.5 9l1 -1q-5 23 -14 38t-24 23q17 48 31.5 91t26.5 76zM403 705q19 17 31.5 43t12.5 57q0 37 -16.5 65.5t-40 48t-49.5 29.5t-45 10q-31 0 -66.5 -12.5t-65.5 -31t-50 -40t-20 -39.5q0 -14 8 -25t21.5 -18.5 t30.5 -12t35 -4.5q16 0 31 6t28.5 13.5t26.5 14t24 8.5q-5 -15 -49.5 -41.5t-135.5 -55.5q-17 -5 -23.5 -14t-6.5 -23q0 -21 10.5 -38t26.5 -29t34 -18.5t33 -6.5h6t9 1q7 1 12.5 1.5t8.5 0.5q12 0 19 -4t7 -16q0 -11 -6 -23.5t-16 -23t-23.5 -18t-28.5 -7.5q-12 0 -26.5 6 t-31 12.5t-33 12.5t-32.5 6q-11 0 -23.5 -2.5t-23 -8.5t-17.5 -15t-7 -22q0 -11 6 -23t23 -27l-1 2q41 -45 86.5 -61.5t88.5 -16.5q56 0 103 18.5t85 67.5v-1q17 21 26.5 45.5t9.5 50.5q0 31 -15.5 63t-51.5 56q18 10 33 19.5t28 20.5zM791 360q-8 -21 -14 -42.5t-14 -41.5 q-14 -2 -28.5 -2.5t-28.5 -1.5q20 22 41 44t44 44zM301 817h1q-1 0 -1 -1v0v1z" />
<glyph unicode="&#xbf;" horiz-adv-x="682" d="M546 666q-25 14 -56.5 27t-56.5 13q-20 0 -33.5 -9.5t-14.5 -34.5q-13 -63 -47 -102t-76 -67t-85.5 -53.5t-76.5 -61.5q-28 -32 -49 -74t-21 -94q0 -31 14 -74t45.5 -82.5t80.5 -67t120 -27.5q88 0 168 47t146 134q19 25 26.5 42.5t7.5 31.5q0 19 -13 32.5t-32 21t-40 11 t-37 3.5q-38 0 -69.5 -14t-63.5 -42q-36 -32 -71.5 -54.5t-65.5 -23.5q-7 0 -13 4t-7 13v1q0 28 29.5 60t103.5 80q29 19 64 43t66.5 56t56 73.5t33.5 96.5q2 7 3 14t1 16q0 20 -8 34t-28 26zM655 798q3 13 3 28q0 27 -11 48.5t-30 35.5t-43 21.5t-50 7.5q-25 0 -47.5 -8.5 t-40 -22.5t-28 -32.5t-10.5 -38.5v1l-1 -29q0 -15 5.5 -34t20.5 -36.5t41 -29t67 -11.5q25 0 46.5 8t37.5 22t26.5 32.5t13.5 38.5v-1z" />
<glyph unicode="&#xc0;" horiz-adv-x="730" d="M441 77q1 -41 13 -57.5t43 -26.5l-1 1q26 -11 50 -13t52 -2q37 0 49 12t12 44q3 97 7 204.5t9.5 211t12 195.5t14.5 159v-1q1 5 1 10v10q0 26 -11 43t-42 28l-17 6q-35 11 -81.5 23t-116.5 12q-41 0 -64.5 -17.5t-40.5 -43.5q-45 -71 -98.5 -166t-107.5 -196t-102.5 -199 t-82.5 -174q-8 -18 -10 -31t-2 -24q0 -16 8 -29t20.5 -23.5t28.5 -19.5t32 -17l12 -6q19 -8 35 -8t26 7.5t21 26.5q17 36 34.5 73t42.5 79q50 13 115.5 23.5t132.5 20.5h3v-20q0 -64 3 -115zM307 1140q24 -17 57.5 -37t72.5 -40t81 -39t82 -34q15 -6 31 -6q17 0 34.5 6 t38.5 17l-26 27q0 1 2.5 7.5t6.5 16t8 20.5t9 20q-66 31 -133 67t-116 76q-18 15 -42 15q-14 0 -28.5 -4t-34.5 -14q-25 -9 -35.5 -29t-16.5 -49zM453 651q-4 -55 -7 -111.5t-6 -113.5q-31 -2 -61.5 -5.5t-61.5 -8.5q36 65 70.5 125t65.5 114zM713 1094q19 -15 22 -33 q-1 32 -4.5 45t-8.5 13q-4 0 -8.5 -6t-9.5 -15q3 -2 9 -4z" />
<glyph unicode="&#xc1;" horiz-adv-x="731" d="M442 77q1 -20 4 -34t9 -23.5t16.5 -15.5t26.5 -11l-2 1q27 -11 51 -13t53 -2q36 0 48.5 12t12.5 44q2 97 6.5 204.5t10 211t12 195.5t14.5 159v-1q1 5 1 10v10q0 26 -11.5 43t-42.5 28l-17 6q-36 11 -82.5 23t-116.5 12q-41 0 -64.5 -18t-40.5 -44q-30 -47 -64 -106 t-70 -123.5t-72 -132.5t-69.5 -133.5t-63 -126.5t-52.5 -112q-8 -18 -10.5 -31t-2.5 -24q0 -22 10 -33t25 -24q13 -9 27 -17t28 -15l12 -6q19 -8 35 -8t26 7.5t21 26.5q17 36 35 72.5t42 79.5q50 13 116 23.5t133 20.5h3v-20q0 -64 3 -115zM768 1151q-1 31 -9 50.5t-32 29.5 h1q-34 19 -62 19q-21 0 -43 -15q-54 -39 -127.5 -75.5t-145.5 -66.5q5 -24 9 -43.5t5 -21.5l-27 -26q20 -11 37 -17.5t34 -6.5q15 0 30 6q43 15 89 34t88.5 39t79.5 40t63 36zM453 651q-3 -55 -6 -111.5t-6 -113.5q-31 -2 -61.5 -5.5t-61.5 -8.5q36 65 70 125t65 114z M350 1093q-6 27 -13 50t-13 23q-5 0 -8.5 -25t-3.5 -89q2 9 10.5 21.5t27.5 19.5z" />
<glyph unicode="&#xc2;" horiz-adv-x="730" d="M441 77q1 -20 4 -34t9 -23.5t16.5 -15.5t26.5 -11l-2 1q27 -11 51 -13t52 -2q37 0 49 12t12 44q3 97 7 205t9.5 211.5t12 196t14.5 159.5v-1q1 4 1 9v11q0 26 -11 43t-42 28l-17 6q-36 11 -82.5 23t-116.5 12q-41 0 -64 -17.5t-40 -43.5q-30 -48 -64 -106.5t-70 -123.5 t-72 -133t-69.5 -134.5t-63 -127.5t-52.5 -112q-7 -17 -9.5 -30.5t-2.5 -23.5q0 -17 8 -30t20.5 -23.5t28.5 -19.5t32 -17l12 -6q11 -5 19 -6.5t16 -1.5q16 0 26 7.5t21 26.5q17 36 34.5 73t42.5 79q49 14 115 24t133 21h3v-21q0 -64 3 -115zM688 973h4q20 0 29 7t9 27 q0 2 -0.5 5.5t-0.5 5.5q-5 22 -10.5 51t-10.5 60t-9.5 62.5t-7.5 59.5q-1 32 -17 49.5t-33 28.5l1 -1q-11 8 -23 16.5t-26 8.5q-19 0 -38 -19q-33 -29 -68 -65t-64 -70t-47.5 -62t-18.5 -40q0 -16 9 -32t21 -29t24.5 -21t20.5 -8q11 0 26 12.5t32 31.5t35 41t35 40 q6 -32 10 -60.5t15.5 -50.5t34.5 -35t68 -13zM452 652q-3 -55 -6 -111.5t-6 -113.5q-31 -2 -61.5 -5.5t-61.5 -8.5q36 65 70.5 125t64.5 114z" />
<glyph unicode="&#xc3;" horiz-adv-x="733" d="M443 76q1 -20 4 -33.5t9 -23t16.5 -15.5t26.5 -11l-1 1q26 -11 50.5 -13t52.5 -2q37 0 49 12t12 44q3 97 7 204.5t9.5 210.5t12 195t14.5 158v-1q1 5 1 10v11q0 26 -11 42.5t-42 27.5l-18 6q-35 12 -81.5 23.5t-117.5 11.5q-41 0 -64.5 -17.5t-40.5 -43.5 q-30 -47 -64.5 -105.5t-70 -123.5t-72 -132.5t-70 -133.5t-63 -127t-52.5 -112q-8 -17 -10.5 -30t-2.5 -24q0 -17 8.5 -30t21.5 -23.5t29 -19.5t31 -16l12 -6q19 -8 35 -8q18 0 34 18.5t30.5 46t29 60t31.5 60.5q50 14 115.5 24t133.5 21h3v-20q0 -65 3 -116zM619 989 q52 0 118 48l-1 -1q38 24 55 46.5t19 43.5v3q0 13 -7 23t-17.5 16.5t-23 10t-24.5 3.5q-15 0 -29 -6t-29 -17l-9 -7q-5 -5 -11.5 -10t-11.5 -10t-8.5 -8l-3.5 -3h-1q-26 2 -51.5 17t-51.5 22h2q-24 9 -45 13.5t-44 4.5q-19 0 -48 -9.5t-58 -23.5t-53 -30t-33 -29 q-16 -22 -16 -43v-3q0 -48 64 -48q23 0 39 5.5t33 18.5q11 8 24 16.5t20 8.5q31 0 52 -8t41.5 -18t45 -18t63.5 -8zM454 649q-3 -54 -6 -110.5t-6 -113.5q-31 -2 -61.5 -5.5t-61.5 -8.5q35 65 69.5 125t65.5 113z" />
<glyph unicode="&#xc4;" horiz-adv-x="731" d="M442 76q1 -20 4 -33.5t9 -23t16.5 -15.5t26.5 -11l-1 1q26 -11 50 -13t53 -2q36 0 48.5 12t12.5 44q2 97 6.5 204.5t10 210.5t12 195t14.5 158v-1q1 5 1 10v10q0 26 -11.5 43t-42.5 28l-17 6q-36 11 -82.5 23t-116.5 12q-41 0 -64.5 -17.5t-40.5 -43.5 q-30 -47 -64 -105.5t-70 -123.5t-72 -132.5t-69.5 -133.5t-63 -127t-52.5 -112q-8 -17 -10.5 -30t-2.5 -24q0 -22 10 -33t25 -24q13 -9 27 -17t28 -15l12 -6q19 -8 35 -8t26 7.5t21 25.5q17 37 35 73.5t42 78.5q50 14 116 24t133 21h3v-20q0 -65 3 -116zM570 1079 q-1 -5 -1.5 -9.5t-0.5 -10.5q0 -41 27 -65t65 -24h4q21 0 38 8t29.5 19t21 24t12.5 22l-1 -1q3 7 5 15.5t3 16.5v7q0 14 -6 29.5t-18.5 29t-31.5 22t-45 8.5q-21 0 -38 -7.5t-30.5 -20.5t-21.5 -29t-11 -34zM303 1080q-1 -5 -1 -18q0 -42 26 -66.5t64 -24.5h4q20 0 36.5 7.5 t29.5 18.5t21.5 23.5t12.5 22.5q3 7 5.5 14t4.5 17v7q0 14 -6 30t-18.5 29.5t-31.5 22t-45 8.5q-21 0 -38 -7.5t-30.5 -20.5t-22 -29t-11.5 -34zM454 649q-4 -54 -7 -110.5t-6 -113.5q-31 -2 -61.5 -5.5t-61.5 -8.5q36 65 70.5 125t65.5 113z" />
<glyph unicode="&#xc5;" horiz-adv-x="731" d="M442 77q1 -20 4 -34t9 -23.5t16.5 -15.5t26.5 -11l-2 1q27 -11 51 -13t52 -2q37 0 49 12t12 44q3 97 7 205t9.5 211.5t12 195.5t14.5 158v-1q1 5 1 10v10q0 26 -11 43t-42 28l-17 6q-36 12 -82.5 23.5t-116.5 11.5q-41 0 -64.5 -17.5t-40.5 -43.5q-30 -47 -64 -106 t-70 -123.5t-72 -132.5t-69.5 -134t-63 -127t-52.5 -112q-8 -18 -10 -31t-2 -24q0 -22 9.5 -33t24.5 -24q13 -9 27 -17t28 -15l12 -6q19 -8 35 -8t26 7.5t21 26.5q17 36 35 73t42 79q50 13 115.5 23.5t133.5 20.5h3v-20q0 -64 3 -115zM708 1242q-19 8 -45 14.5t-53 9.5h-13 q-53 0 -95 -21t-71.5 -52.5t-45.5 -67.5t-16 -66q0 -34 19 -62q8 -14 24 -24.5t32 -15.5h-1q24 -9 56 -12t60 -3q51 0 89.5 22t64 54t38.5 69t13 66t-13 52t-43 37zM453 651q-3 -55 -6 -111.5t-6 -113.5q-31 -2 -61.5 -5.5t-61.5 -8.5q36 66 70 125.5t65 113.5zM618 1162 q0 -23 -9.5 -47t-23 -43.5t-29 -32.5t-26.5 -13q-6 0 -8.5 2.5t-2.5 14.5q0 17 9.5 40t24 43.5t31.5 35t32 14.5h1q1 0 1 -14z" />
<glyph unicode="&#xc6;" horiz-adv-x="1091" d="M830 887q-5 2 -10.5 3.5t-10.5 3.5h1q-34 11 -78.5 22t-114.5 11q-38 0 -65.5 -16.5t-48.5 -42.5q-39 -46 -85.5 -104t-96 -121.5t-100 -130.5t-98 -132.5t-90 -126t-75.5 -111.5q-14 -23 -19.5 -38t-5.5 -26q0 -16 9 -29t20.5 -23t22.5 -16t15 -7q19 -11 32.5 -15.5 t23.5 -4.5q18 0 36.5 18t38.5 45t41.5 59.5t45.5 62.5q46 11 108 21t126 18l24 3q-14 -47 -24.5 -76.5t-12.5 -52.5q-1 -4 -1 -9v-9q0 -34 18 -47t44 -22l-3 2q9 -6 35 -8.5t55 -2.5q39 0 66 2.5t49.5 7t44 10t48.5 11.5q72 15 141 30q29 6 40.5 16t11.5 32q0 21 -6.5 47 t-19 49.5t-32 39t-46.5 15.5q-48 0 -89.5 -6t-79.5 -13q8 20 14 41.5t14 43.5q56 11 115 21.5t116 22.5q30 7 42.5 15t12.5 31q0 9 -4 24l1 -1q-5 21 -10.5 43.5t-16.5 41t-29.5 30.5t-47.5 12h-7q-47 -1 -88 -6q15 40 27 78v-1q7 18 13.5 36t12.5 35q63 8 119.5 15 t110.5 13q33 4 45 14t12 36v9q0 5 -1 9l-3 14q-3 17 -6.5 31.5t-14.5 35.5l1 -3q-17 53 -78 53h-5q-66 -2 -121.5 -11.5t-107.5 -22.5q7 -1 10.5 -6t3.5 -11l-16 17h1v1zM582 642q-15 -54 -29.5 -108.5t-27.5 -110.5q-32 -3 -63 -6t-63 -7q49 63 95 121.5t88 110.5z" />
<glyph unicode="&#xc7;" horiz-adv-x="649" d="M160 -229q14 15 31.5 39t34.5 51t32.5 55t25.5 52q46 3 85.5 17.5t72 39.5t58.5 58.5t46 73.5q9 17 14.5 33t5.5 30q0 30 -30 48.5t-78 18.5q-65 0 -115 -52q-69 -75 -100 -75h-3q-13 5 -18 24.5t-5 48.5q0 44 11 103t31 116q16 45 40 95t49.5 92t49.5 70.5t39 29.5 q5 -4 7 -13.5t2 -20.5q0 -18 -1.5 -37t-1.5 -37q3 -28 11 -50t23 -39t38.5 -28.5t57.5 -18.5q6 -2 12 -2h12q13 0 21 2.5t13.5 7.5t8.5 12t7 16l2 2q7 18 12.5 41.5t9.5 49t6 51t2 48.5q0 40 -12.5 75t-52.5 67q-17 13 -39.5 24.5t-48 20.5t-52 15.5t-51.5 9.5h1q-4 1 -10 1 h-11q-60 0 -115.5 -33.5t-103 -88.5t-86 -126t-66 -146.5t-43 -149.5t-15.5 -135q0 -40 5.5 -75.5t17.5 -64.5v2q12 -35 37.5 -62t52.5 -42q-15 -27 -30 -55.5t-29.5 -56t-28 -52t-23.5 -42.5v1q-9 -17 -9 -31q0 -26 24 -37t72 -11q29 0 51.5 7.5t45.5 32.5zM646 530l1 1z " />
<glyph unicode="&#xc8;" horiz-adv-x="583" d="M140 850l-174 -674q-3 -14 -3 -30q0 -26 8 -44t22 -33v1q17 -20 31.5 -36t28.5 -27.5t30.5 -17.5t38.5 -6q9 0 20.5 1t26.5 6l-1 -1l130.5 29t131.5 29q29 5 40 14.5t11 32.5v17q-8 24 -13.5 47t-17.5 46v-1q-9 24 -25.5 34t-43.5 10q-45 0 -85.5 -5.5t-78.5 -12.5 q10 39 26 85q35 8 71.5 14.5t73.5 14.5h-1q28 5 52.5 9t43 10t29 16t10.5 27q0 11 -4 24l1 -1q-4 22 -9.5 43t-17.5 44v-1q-11 25 -28 33.5t-46 8.5h-7q-23 -1 -44.5 -2t-42.5 -3l21 60l15.5 46.5t15.5 43.5q62 9 117.5 15t107.5 12q32 4 44 15t12 38q0 5 -0.5 13.5 t-2.5 13.5h1q-4 17 -8 32t-14 38l1 -1q-10 27 -27.5 40t-49.5 13h-5q-53 -2 -107 -9t-105.5 -16t-99 -20t-87.5 -21zM236 1133q24 -16 57.5 -36t72.5 -40t81 -39t83 -34q13 -6 29 -6q17 0 34.5 6t38.5 17l-26 27q0 1 3 7.5t7 16t9 20t11 18.5q-67 30 -135 67.5t-117 77.5 q-17 15 -42 15q-15 0 -32 -4.5t-33.5 -16t-29 -29.5t-18.5 -45zM640 1088q20 -14 23 -34q-1 27 -4 38t-8 11q-7 0 -15 -13q1 -1 2 -1t2 -1z" />
<glyph unicode="&#xc9;" horiz-adv-x="583" d="M140 850l-174 -674q-3 -14 -3 -30q0 -26 8 -44t22 -33v1q17 -20 31.5 -36t28.5 -27.5t30.5 -17.5t38.5 -6q9 0 21 1t26 6l-1 -1q63 14 131 29t132 29q29 5 40 14.5t11 32.5q0 24 -9.5 54.5t-21.5 55.5v-1q-10 24 -26.5 34t-43.5 10q-45 0 -85.5 -5.5t-78.5 -12.5 q10 39 26 85q35 8 71.5 14.5t73.5 14.5h-1q26 4 50.5 8t43.5 10t30.5 16t11.5 28q0 11 -4 24l1 -1q-5 22 -10.5 43t-17.5 44v-1q-11 25 -28 33.5t-46 8.5h-6q-23 -1 -45 -2t-42 -3q11 37 24.5 76.5t27.5 73.5q61 9 116.5 15t107.5 12q33 4 45 15t12 38q0 5 -1 13.5t-3 13.5 h1q-4 17 -7.5 32t-14.5 38l1 -1q-9 27 -27 40t-49 13h-5q-53 -2 -107 -9t-106 -16t-99.5 -20t-87.5 -21zM672 1151q-2 30 -10 50t-31 30h2q-34 19 -61 19q-23 0 -43 -15q-55 -38 -127.5 -74t-144.5 -68q5 -24 9 -43.5t5 -21.5l-27 -26q20 -11 37 -17.5t34 -6.5q14 0 31 6 q42 15 87 34t87.5 39t79.5 40t63 36zM257 1093l-6 26t-6.5 23.5t-6.5 17t-6 6.5q-5 0 -8.5 -25.5t-3.5 -88.5q2 11 10 21t27 20z" />
<glyph unicode="&#xca;" horiz-adv-x="582" d="M140 852l-174 -675q-3 -15 -3 -30q0 -26 8 -44.5t22 -33.5v1q17 -20 31.5 -36t28.5 -27.5t30.5 -17.5t38.5 -6q9 0 20.5 1t26.5 6l-1 -1l130.5 29t131.5 29q29 5 40 14.5t11 32.5q0 26 -9.5 56t-21.5 54v-1q-9 24 -25.5 34.5t-43.5 10.5q-45 0 -85.5 -6t-78.5 -13 q2 17 10 40.5t16 45.5q35 8 71 14.5t74 14.5h-1q28 5 52.5 9t43 10t29 15.5t10.5 27.5q0 11 -4 24l1 -1q-5 22 -10 43t-17 44v-1q-11 25 -28 34t-46 9h-7q-44 -1 -87 -6q14 40 27 78t25 72q62 9 117 15.5t107 12.5q33 4 45 14.5t12 38.5q0 6 -1 13t-3 14l1 -1q-3 17 -7 32.5 t-14 38.5v-1q-9 27 -26.5 40t-49.5 13h-5q-53 -2 -107 -8.5t-105.5 -16.5t-99 -21t-87.5 -20zM599 969h3q20 0 29 7.5t9 25.5v6t-2 8l1 -2q-4 22 -9.5 51t-10.5 60t-10 62.5t-8 59.5q-1 29 -15 47t-35 32v-1q-10 10 -22.5 17t-23.5 7q-13 0 -32 -13.5t-41 -34.5t-45 -47 t-43 -50.5t-36 -45t-24 -31.5q-13 -14 -13 -34q0 -10 4.5 -20.5t11.5 -20.5t14.5 -18.5t12.5 -14.5l2 -3q7 -6 11.5 -9.5t16.5 -3.5q20 0 30 17l1 1v1q5 5 10 10.5t10 10.5v-1q18 21 37 42t41 44q4 -28 8 -53t10.5 -45.5t18.5 -34.5t32 -19h-1q17 -5 30.5 -6t27.5 -1z" />
<glyph unicode="&#xcb;" horiz-adv-x="582" d="M140 848l-174 -672q-3 -15 -3 -30q0 -26 8 -44t22 -33v1q17 -20 31.5 -36t28.5 -27.5t30.5 -17.5t38.5 -6q19 0 47 7l-1 -1l130.5 29t131.5 28q29 6 40 15.5t11 32.5q0 26 -9.5 56t-21.5 53v-1q-9 24 -25.5 34.5t-43.5 10.5q-45 0 -85.5 -6t-78.5 -13q2 17 10 40.5 t16 44.5q35 8 71 15t74 14h-1q27 5 51 9t43 10t30 16t11 27q0 11 -4 24h1l-10 42t-17 44v-1q-11 25 -28 33.5t-46 8.5h-7q-44 -1 -87 -6q14 41 27 78.5t25 71.5q62 9 117 15.5t107 11.5q33 4 45 15t12 39q0 5 -1 13t-3 14l1 -1q-3 17 -7 32t-14 38v-1q-9 27 -26.5 40 t-49.5 13h-5q-53 -2 -107 -9t-105.5 -16t-99 -20t-87.5 -21zM190 1074q-1 -4 -1 -9v-10q0 -41 26 -65.5t64 -24.5h4q33 0 53.5 14.5t32.5 33t16.5 35t4.5 20.5v8q0 13 -5.5 28.5t-17.5 29t-31 22.5t-45 9q-41 0 -68 -28t-33 -64v1zM455 1073q-1 -5 -1.5 -9.5t-0.5 -10.5 q0 -41 26.5 -65t64.5 -24h3q25 0 44.5 11t32.5 25.5t20 29t7 22.5q1 4 1.5 7t1.5 8v8q0 13 -6 29t-18 29t-30.5 22t-44.5 9q-21 0 -38 -7.5t-30 -20.5t-21.5 -29t-10.5 -34z" />
<glyph unicode="&#xcc;" horiz-adv-x="310" d="M337 858q-14 10 -33.5 21t-40 20t-40 14.5t-32.5 5.5q-20 0 -32.5 -11t-22.5 -37q-14 -43 -31.5 -104.5t-36.5 -132t-37.5 -145t-34.5 -143.5t-28.5 -128t-18.5 -99q-2 -8 -3 -15t-1 -17q0 -23 9.5 -37.5t29.5 -27.5h-1q13 -9 29.5 -16.5t33.5 -13.5t33 -9.5t28 -3.5 q21 0 29 9.5t16 31.5q13 51 30 114t35.5 131.5t38.5 139.5t39.5 137t38 124.5t34.5 101.5q6 19 6 34q0 17 -9 30t-29 27zM61 1160q23 -17 56 -37t71.5 -40t80 -39.5t81.5 -34.5q13 -6 29 -6t33.5 6t37.5 17l-21 31q1 1 5 8t10 15t12.5 15.5t12.5 8.5q-2 2 -5 4.5t-5 4.5 q-66 31 -133.5 68.5t-117.5 79.5q-18 15 -41 15q-13 0 -28 -5t-35 -14q-23 -10 -34 -29.5t-16 -47.5zM470 1104h-1q10 -12 12 -26q-1 26 -11 26z" />
<glyph unicode="&#xcd;" horiz-adv-x="313" d="M340 857q-15 11 -34.5 22t-40 19.5t-40 14t-33.5 5.5q-20 0 -32.5 -10.5t-22.5 -36.5q-14 -44 -31.5 -105.5t-36.5 -132t-38 -144.5t-35 -143.5t-29 -128t-19 -98.5q-2 -8 -2.5 -15t-0.5 -17q0 -23 9.5 -37.5t29.5 -27.5h-1q13 -9 30 -16.5t34.5 -13.5t33.5 -9.5t27 -3.5 q21 0 29.5 9.5t15.5 31.5q13 51 30.5 114t36 131.5t39 139t40 137t38 124.5t34.5 102q6 19 6 34q0 17 -9 29.5t-29 26.5zM557 1154q-2 27 -11.5 46t-24 31t-31.5 17t-33 5q-13 0 -22.5 -4t-18.5 -11q-27 -20 -60.5 -39.5t-69.5 -38t-73.5 -35.5t-73.5 -33q-15 -10 -24 -22h2 q5 0 11.5 -5.5t12.5 -12t10 -12t5 -5.5l-23 -31q20 -11 37 -17.5t34 -6.5q15 0 30 6h-1q42 15 87 34.5t86.5 39.5t78 40t62.5 36zM115 1070q-3 -2 -5 -5.5t-2 -11.5q2 10 7 17z" />
<glyph unicode="&#xce;" horiz-adv-x="310" d="M337 859q-15 11 -34.5 22t-39.5 19.5t-39 14t-33 5.5q-20 0 -32.5 -11t-22.5 -37q-14 -43 -31.5 -104.5t-36.5 -132t-37.5 -145t-34.5 -143.5t-28.5 -128.5t-18.5 -98.5q-2 -9 -3 -16t-1 -17q0 -23 9.5 -37.5t29.5 -27.5h-1q11 -7 27 -14.5t33 -14t34 -10.5t30 -4 q21 0 29 9.5t16 31.5q13 51 30 114t35.5 131.5t38.5 139.5t39.5 137.5t38 124.5t34.5 102q6 19 6 34q0 17 -9 30t-29 27zM445 963h4q20 0 28.5 7.5t8.5 26.5v5t-2 7l1 -1q-5 22 -10 51t-10.5 60t-9.5 62.5t-7 59.5q-1 30 -16.5 49.5t-32.5 28.5l1 -1q-13 11 -24.5 18 t-22.5 7q-19 0 -37 -19q-33 -29 -67 -65t-62.5 -70t-46.5 -62t-18 -40q0 -15 8.5 -31t20.5 -29t24 -21.5t20 -8.5q10 0 24.5 13t31 31.5t34.5 40.5t35 40l3 -12q6 -34 11 -61t17 -46t33.5 -29.5t60.5 -10.5z" />
<glyph unicode="&#xcf;" horiz-adv-x="311" d="M338 855q-15 11 -34.5 22t-40 19.5t-39.5 14t-32 5.5q-20 0 -32.5 -10.5t-22.5 -36.5q-14 -43 -32 -104.5t-36.5 -131.5t-37.5 -144.5t-35 -143.5t-28.5 -128t-18.5 -98q-2 -9 -3 -15.5t-1 -16.5q0 -23 9.5 -37.5t29.5 -27.5h-1q11 -8 27.5 -15.5t34 -13.5t34.5 -10 t29 -4q21 0 29 9.5t15 31.5q13 51 30.5 114t36 131t39 138.5t40 136.5t37.5 124t34 102q7 18 7 34q0 17 -9 29.5t-29 26.5v-1zM61 1074q-1 -4 -1 -9v-10q0 -41 25.5 -65.5t63.5 -24.5h3q33 0 53.5 14.5t32.5 33t16.5 35t4.5 20.5v8q0 14 -6 29.5t-18 29t-30.5 22t-43.5 8.5 q-20 0 -37 -7.5t-30 -20.5t-21.5 -29.5t-11.5 -34.5v1zM323 1073q-1 -5 -1.5 -9.5t-0.5 -10.5q0 -41 25.5 -65t63.5 -24h4q27 0 45.5 11t30.5 26t18 29.5t9 22.5q1 3 1.5 6t1.5 8v8q0 13 -6 29t-18 29t-30.5 22t-43.5 9q-21 0 -38 -7.5t-30 -20.5t-21 -29t-10 -34z" />
<glyph unicode="&#xd0;" horiz-adv-x="920" d="M104 570q-70 -6 -70 -50q0 -18 13.5 -43t35.5 -47t49.5 -37.5t56.5 -15.5h5l-40 -176v1q-5 -17 -6.5 -29t-1.5 -22q0 -29 14 -53t34 -44t43.5 -35.5t41.5 -26.5h-1q35 -22 75 -22q28 0 51 10h-1q129 40 225 109t159.5 151.5t95 172t31.5 170.5t-31 148v-1q-23 52 -57 88 t-74 57.5t-85 31t-91 9.5q-38 0 -76 -6t-74 -15.5t-69 -22.5t-60 -28l-60 -262q-30 -2 -64 -4.5t-70 -7.5h1zM629 465q-3 13 -12 36.5t-23 43.5l1 -2q-26 42 -92 45q9 26 18 50.5t19 50.5q27 8 44 8q30 0 50 -12.5t29 -30.5l-1 1q4 -10 6.5 -22t2.5 -27q0 -31 -10 -69.5 t-29 -78.5q-1 2 -1.5 3.5t-1.5 3.5zM444 399h33t44.5 1t46 3.5t38.5 7.5q-33 -54 -86 -105t-129 -92q13 47 26 93.5t27 91.5z" />
<glyph unicode="&#xd1;" horiz-adv-x="716" d="M426 767q-3 42 -15.5 63.5t-46.5 35.5h1q-17 9 -37.5 18t-42.5 16.5t-42 12.5t-35 5q-22 0 -37.5 -11.5t-26.5 -38.5q-17 -49 -36 -114.5t-39 -138t-39 -147t-35.5 -140.5t-28.5 -119t-17 -83l1 1q-3 -11 -3.5 -19.5t-0.5 -16.5q0 -22 8.5 -36t27.5 -27l-1 1 q19 -15 42 -23t46 -15l11 -3l17.5 -3.5t13.5 -1.5q20 0 28.5 10t15.5 30q8 35 19.5 79t25 93.5t28.5 103t30 108.5q14 -87 30 -167t34 -137q9 -29 26 -48t39 -31.5t48 -20.5t52 -14q12 -3 26 -3q50 0 60 49l-1 -1q13 53 29.5 115.5t34 129t36 134.5t37 132.5t35.5 123 t32 105.5q7 20 7 37q0 23 -16 40.5t-38 30t-45 20.5t-38 12q-9 1 -16.5 2.5t-12.5 1.5q-23 0 -37 -11.5t-22 -37.5q-26 -79 -53.5 -174t-53.5 -198q-4 41 -8 80.5t-7.5 75t-6 65t-3.5 49.5zM618 989q51 0 118 47l-1 -1q38 24 55.5 47t19.5 43v4q0 13 -7 22.5t-17.5 16.5 t-23.5 10.5t-25 3.5q-15 0 -28.5 -6t-28.5 -17l-10 -7q-5 -5 -11 -10t-11.5 -10t-8.5 -8l-3 -3h-1q-13 1 -26 5.5t-25.5 10.5t-26 12.5t-26.5 10.5h2q-23 9 -44.5 13.5t-44.5 4.5q-19 0 -47.5 -9.5t-57.5 -23.5t-53.5 -30t-33.5 -29q-15 -23 -15 -43v-3q0 -48 64 -48 q22 0 38 5t34 19q10 8 23 16.5t21 8.5q30 0 51 -8t41.5 -18t45.5 -18t63 -8z" />
<glyph unicode="&#xd2;" d="M616 853q-16 14 -40 27t-51.5 23.5t-57 16.5t-56.5 6q-36 0 -75 -13.5t-69 -35.5q-63 -50 -113 -119.5t-84.5 -148.5t-52.5 -161t-18 -158q0 -147 67 -220.5t201 -86.5h-1q22 -3 44 -3q65 0 119 32.5t96.5 86.5t74 123t52.5 141.5t31 143.5t10 128q0 34 -3 64t-11 57 t-23 51.5t-40 45.5zM448 728q8 -3 11.5 -22.5t3.5 -49.5q0 -56 -10 -114.5t-26.5 -113t-37.5 -103t-43 -84.5t-42.5 -57t-36.5 -21q-17 0 -24 23.5t-7 58.5q0 48 12 108.5t32 113.5q16 44 38 90t45.5 84t45.5 62.5t38 24.5h1zM236 1133q24 -16 57.5 -36t72.5 -40t80.5 -39 t82.5 -34q8 -3 14.5 -4.5t15.5 -1.5q17 0 34 6t39 17l-26 27q0 1 3 7.5t7 16t9 20t10 18.5q-33 15 -67 32t-67 35.5t-63 38t-54 39.5q-17 15 -42 15q-15 0 -32.5 -5t-33.5 -16t-28.5 -29t-18.5 -45zM640 1088q20 -14 23 -35q-1 28 -4.5 39t-8.5 11q-7 0 -15 -13q1 -1 2 -1 t3 -1z" />
<glyph unicode="&#xd3;" d="M616 853q-16 14 -40 27t-51.5 23.5t-57 16.5t-56.5 6q-36 0 -75 -13.5t-69 -35.5q-63 -50 -113 -119.5t-84.5 -148.5t-52.5 -161t-18 -158q0 -147 67 -220.5t201 -86.5h-1q22 -3 44 -3q65 0 119 32.5t96.5 86.5t74 123t52.5 141.5t31 143.5t10 128q0 34 -3 64t-11 57 t-23 51.5t-40 45.5zM448 728q8 -3 11.5 -22.5t3.5 -49.5q0 -56 -10 -114.5t-26.5 -113t-37.5 -103t-43 -84.5t-42.5 -57t-36.5 -21q-17 0 -24 23.5t-7 58.5q0 48 12 108.5t32 113.5q16 44 38 90t45.5 84t45.5 62.5t38 24.5h1zM671 1151q-2 31 -9.5 50.5t-30.5 29.5h2 q-35 19 -62 19q-22 0 -42 -15q-55 -38 -127.5 -74t-144.5 -68q5 -24 8.5 -43.5t4.5 -21.5l-26 -26q19 -11 36.5 -17.5t34.5 -6.5q15 0 30 6q43 15 88 34t87 39t79 40t63 36zM257 1093q-3 13 -6.5 26t-6.5 23.5t-6.5 17t-6.5 6.5q-5 0 -8.5 -25.5t-3.5 -88.5q2 9 10.5 21.5 t27.5 19.5z" />
<glyph unicode="&#xd4;" d="M616 855q-16 14 -40 27t-51.5 23.5t-57 16.5t-56.5 6q-36 0 -75 -13.5t-69 -35.5q-63 -51 -113 -121t-84.5 -148.5t-52.5 -161t-18 -158.5q0 -146 67 -220t201 -87h-1q22 -3 44 -3q66 0 120 33t96.5 86.5t74 123t52 142t30.5 143.5t10 128q0 34 -2.5 64.5t-11 57.5 t-23.5 51.5t-40 45.5zM649 949h3q20 0 29 7.5t9 26.5v5q0 4 -2 8l1 -1l-3 14q-8 45 -18.5 105t-15.5 113q-2 33 -17 49.5t-33 28.5q-10 8 -23 16t-24 8q-13 0 -32 -13.5t-41 -35t-45.5 -47t-44 -50.5t-37 -46t-24.5 -32q-10 -15 -10 -32t8.5 -33.5t20.5 -29t24.5 -20 t20.5 -7.5q10 0 25 13t32.5 32t35.5 41t36 40q4 -17 6 -40.5t7.5 -46.5t18 -41.5t37.5 -24.5l-1 1q17 -5 30 -6.5t27 -1.5zM448 729q8 -2 11.5 -22t3.5 -49q0 -56 -10 -114.5t-26.5 -113.5t-37.5 -103.5t-43 -85t-42.5 -57.5t-36.5 -21q-17 0 -24 24t-7 59q0 48 12 108 t32 114q16 44 38 90t45.5 84t45.5 62.5t38 24.5h1z" />
<glyph unicode="&#xd5;" horiz-adv-x="706" d="M620 852q-16 13 -39.5 26t-51 23.5t-57 16.5t-57.5 6q-35 0 -76 -12.5t-70 -35.5q-64 -50 -114 -120t-84.5 -148.5t-53 -161t-18.5 -157.5q0 -143 66.5 -218t203.5 -88h-1q22 -3 45 -3q66 0 120 32.5t97 86t74.5 122.5t52.5 141.5t31 143.5t10 128q0 35 -3 65.5t-11 57 t-23.5 50.5t-40.5 45zM617 989q51 0 117 48l-1 -1q37 23 54.5 46t19.5 44v3q0 12 -6.5 22t-17 17t-23 10.5t-25.5 3.5q-15 0 -28.5 -6t-28.5 -17l-10 -7q-5 -5 -11 -10t-11.5 -10t-8.5 -8l-3 -3q-27 2 -52.5 17t-51.5 22h2q-24 9 -45 13.5t-44 4.5q-19 0 -47.5 -9.5 t-57.5 -23.5t-53 -30t-33 -29q-16 -22 -16 -43v-3q0 -48 64 -48q22 0 38 5t34 19q10 8 23 16.5t20 8.5q31 0 52 -8t41.5 -18t45 -18t63.5 -8zM452 727q8 -3 11.5 -22.5t3.5 -49.5q0 -55 -10 -113t-26.5 -112.5t-38 -103t-43.5 -85t-43 -57.5t-37 -21q-17 0 -24 23.5t-7 58.5 q0 48 12 107.5t32 113.5q16 44 38.5 90t46 84t45.5 62.5t39 24.5h1z" />
<glyph unicode="&#xd6;" d="M616 851q-16 14 -39.5 27t-51 23.5t-57 16.5t-56.5 6q-35 0 -75.5 -13t-69.5 -36q-64 -50 -114 -119.5t-84 -148.5t-52 -161t-18 -157q0 -143 66 -218t202 -88h-1q22 -3 44 -3q66 0 120 32.5t96.5 86t74 122.5t52.5 141.5t31 143.5t10 128q0 33 -3 63.5t-11.5 57.5 t-23.5 51t-40 45zM449 726q8 -2 11.5 -21.5t3.5 -49.5q0 -55 -10 -113t-26.5 -112.5t-37.5 -103t-43 -85t-43 -57.5t-37 -21h-5q-14 5 -19.5 27t-5.5 55q0 48 11.5 108t31.5 113q16 44 38.5 90t45.5 84t45.5 62t38.5 24h1zM241 1074q-1 -5 -1 -18q0 -42 26 -66.5t64 -24.5h4 q33 0 54 15t33 33.5t17 35t5 19.5v8q0 13 -6 29t-18 29t-31 22t-45 9q-20 0 -37.5 -7.5t-30.5 -20.5t-22 -29t-12 -34zM506 1073q-1 -5 -1.5 -9.5t-0.5 -10.5q0 -41 26.5 -65t64.5 -24h4q21 0 38 8t30 20t22 25.5t12 23.5v3q2 7 3 12t2 12v7q0 14 -6 29.5t-18 29t-30.5 22 t-44.5 8.5q-21 0 -38 -7.5t-30.5 -20.5t-21.5 -29t-11 -34z" />
<glyph unicode="&#xd7;" horiz-adv-x="658" d="M441 216q16 -13 34 -13q10 0 27 12.5t33.5 32t29 42.5t12.5 43q0 25 -21 42q-11 9 -25 19t-29 23l54 24q5 2 9.5 4t9.5 4l-1 -1q15 6 24.5 11.5t16.5 12t11.5 15.5t7.5 22v-1q7 17 7 40q0 28 -10 53v-1q-5 14 -16.5 21.5t-26.5 7.5q-17 0 -40 -10l1 1q-42 -16 -95.5 -40 t-113.5 -53q-25 16 -52.5 32.5t-53.5 30t-48 22.5t-36 9q-19 0 -38.5 -15.5t-35.5 -37t-26 -45.5t-10 -42q0 -15 7 -24t18.5 -15.5t26.5 -13t31 -15.5q-29 -17 -53.5 -30t-41.5 -26.5t-26.5 -28t-9.5 -32.5v-4q2 -16 4 -26.5t4 -19.5v1q4 -27 11 -41t27 -14q13 0 41 13 t64 32t75 40.5t75 39.5q42 -25 76.5 -49.5t71.5 -51.5z" />
<glyph unicode="&#xd8;" horiz-adv-x="703" d="M722 973q-16 11 -35 23.5t-36 12.5q-32 0 -54 -35l1 2q-9 -13 -22 -33t-30 -44q-1 -2 -1.5 -3.5t-2.5 -3.5q-31 11 -64.5 20.5t-65.5 9.5q-35 0 -75.5 -12.5t-69.5 -35.5q-63 -50 -113 -119.5t-84 -148t-52.5 -160.5t-18.5 -157q0 -66 13.5 -121.5t48.5 -95.5 q-2 -2 -3.5 -5t-3.5 -6l1 1q-7 -14 -13 -25.5t-11 -20.5v1q-15 -30 -15 -56q2 -10 5 -20t10 -18l-2 -6q2 -1 4 -1.5t7 -3.5h-1q10 -7 19 -9.5t18 -2.5q29 0 47 36l-1 -1l18 31.5t22 37.5q37 -13 77.5 -18.5t71.5 -5.5q66 0 120 32.5t96.5 86t74 122.5t52 141.5t30.5 142.5 t11 127q0 48 -7 88.5t-28 77.5q31 49 51 76.5t20 50.5q0 18 -17 40zM424 417q-17 -54 -37.5 -100.5t-41.5 -81t-41 -54t-37 -19.5q-1 0 -3.5 0.5t-3.5 1.5q32 54 68.5 111.5t73.5 117.5l29 46q-2 -6 -3.5 -11.5t-3.5 -10.5zM276 452l2 6t3 7q15 39 34 80.5t40 77t41 62 t37 35.5q-37 -63 -77 -131.5t-80 -136.5z" />
<glyph unicode="&#xd9;" horiz-adv-x="685" d="M11 131q32 -82 99.5 -116t165.5 -34q38 0 70.5 8t64.5 26q54 34 99 104t83.5 168.5t73 223t68.5 267.5q3 9 4 16.5t1 14.5q0 17 -8 29.5t-30 27.5q-16 9 -34.5 19t-37 18t-36 13.5t-32.5 5.5q-22 0 -37.5 -11t-20.5 -39l1 2q-13 -56 -31.5 -130t-40.5 -152.5t-46.5 -155 t-49 -137t-49 -97.5t-46.5 -37q-10 0 -14 14t-4 37q0 45 14.5 110.5t37 137.5t48 143.5t48.5 128.5l-1 -1q9 22 9 42q0 26 -18 50t-44 43t-55.5 30t-53.5 11q-20 0 -32.5 -10.5t-22.5 -34.5q-29 -72 -57.5 -152t-52 -161t-38 -158.5t-14.5 -142.5q0 -71 19 -121zM237 1133 q24 -16 57.5 -36t72.5 -40t81.5 -39t83.5 -34q13 -6 29 -6q17 0 34.5 6t38.5 17l-25 27q0 1 2.5 7.5t6.5 16t9.5 20t10.5 18.5q-67 30 -135 67.5t-118 77.5q-17 15 -41 15q-25 0 -62 -18q-23 -9 -34.5 -28.5t-17.5 -48.5zM643 1088q19 -15 22 -33q0 26 -3.5 37t-8.5 11 q-7 0 -15 -13q1 -1 2 -1t3 -1z" />
<glyph unicode="&#xda;" horiz-adv-x="685" d="M11 131q32 -82 99.5 -116t165.5 -34q38 0 70.5 8t64.5 26q54 34 99 104t83.5 168.5t73 223t68.5 267.5q3 9 4 16.5t1 14.5q0 17 -8 29.5t-30 27.5q-16 9 -34.5 19t-37 18t-36 13.5t-32.5 5.5q-22 0 -37.5 -11t-20.5 -39l1 2q-13 -56 -31.5 -130t-40.5 -152.5t-46.5 -155 t-49 -137t-49 -97.5t-46.5 -37q-10 0 -14 14t-4 37q0 45 14.5 110.5t37 137.5t48 143.5t48.5 128.5l-1 -1q9 22 9 42q0 26 -18 50t-44 43t-55.5 30t-53.5 11q-20 0 -32.5 -10.5t-22.5 -34.5q-29 -72 -57.5 -152t-52 -161t-38 -158.5t-14.5 -142.5q0 -71 19 -121zM674 1151 q-2 31 -10 50.5t-31 29.5h2q-35 19 -62 19q-22 0 -42 -15q-55 -38 -128 -74t-145 -68q5 -24 9 -43.5t5 -21.5l-27 -26q20 -11 37 -17.5t34 -6.5q15 0 30 6q43 15 88 34t87.5 39t79.5 40t64 36zM258 1093q-3 13 -6.5 26t-6.5 23.5t-6.5 17t-6.5 6.5q-5 0 -8.5 -25.5 t-3.5 -88.5q2 9 10.5 21.5t27.5 19.5z" />
<glyph unicode="&#xdb;" horiz-adv-x="685" d="M11 131q32 -81 99 -115.5t166 -34.5q38 0 70.5 8t64.5 26q54 34 99 104t83.5 168.5t73 223t68.5 268.5q3 10 4 17.5t1 13.5q0 17 -8 30t-30 28q-16 9 -34.5 19t-37 18t-36 13.5t-32.5 5.5q-22 0 -37.5 -11t-20.5 -40l1 2q-13 -55 -31.5 -129t-40.5 -153t-46.5 -156 t-49 -137.5t-49 -97.5t-46.5 -37q-10 0 -14 14t-4 38q0 45 14.5 110.5t37 137.5t48 143.5t48.5 128.5l-1 -1q9 24 9 42q0 27 -18 51t-44 43t-55.5 30t-53.5 11q-20 0 -32.5 -10.5t-22.5 -34.5q-29 -72 -57.5 -152.5t-52 -161.5t-38 -158.5t-14.5 -142.5q0 -72 19 -122z M601 969h4q20 0 29 7.5t9 25.5v6t-2 8l1 -2q-5 22 -10.5 51t-10.5 60t-9.5 62.5t-7.5 59.5q-1 29 -15.5 47.5t-35.5 31.5v-1q-10 10 -22.5 17t-23.5 7q-19 0 -37 -19q-33 -29 -68.5 -65t-64 -70.5t-47 -62t-18.5 -39.5q0 -9 4.5 -19.5t11.5 -20.5t14 -19t13 -15l2 -3 q8 -6 12 -9.5t17 -3.5q15 0 27 13.5t24 27.5v-1q18 20 37 41t41 44q4 -28 8 -53t10.5 -45.5t18.5 -34.5t32 -19h-1q17 -5 31 -6t27 -1z" />
<glyph unicode="&#xdc;" horiz-adv-x="685" d="M11 131q32 -82 99.5 -116t165.5 -34q38 0 70.5 8t64.5 26q54 34 99 103.5t83.5 168t73 222.5t68.5 267q3 9 4 16.5t1 14.5q0 17 -8 29.5t-30 27.5q-16 9 -34.5 19t-37 18t-36 13.5t-32.5 5.5q-22 0 -37.5 -11t-20.5 -39l1 2q-13 -55 -31.5 -129t-40.5 -152.5t-46.5 -155 t-49 -137t-49 -97.5t-46.5 -37q-10 0 -14 14.5t-4 37.5q0 45 14.5 110t37 136.5t48 143t48.5 128.5l-1 -1q9 24 9 42q0 26 -18 50.5t-44 43t-55.5 29.5t-53.5 11q-20 0 -32.5 -10.5t-22.5 -34.5q-29 -72 -57.5 -152t-52 -160.5t-38 -157.5t-14.5 -142q0 -73 19 -121z M234 1074v-18q0 -42 26 -66.5t64 -24.5h4q33 0 54 15t33 33.5t17 35t5 19.5v8q0 13 -6 29t-18.5 29t-31.5 22t-45 9q-20 0 -37.5 -7.5t-30.5 -20.5t-22 -29t-12 -34zM500 1073q-1 -5 -1.5 -9.5t-0.5 -10.5q0 -41 27 -65t65 -24h3q21 0 38 8t30.5 20t22 25.5t12.5 23.5v3 q2 7 3 12t2 12v7q0 13 -6 29t-18 29t-31 22t-45 9q-21 0 -38 -7.5t-30.5 -20.5t-21.5 -29t-11 -34z" />
<glyph unicode="&#xdd;" horiz-adv-x="654" d="M709 760q8 16 12.5 28.5t4.5 25.5q0 12 -12.5 33t-32.5 40.5t-45 34t-49 14.5q-15 0 -27.5 -7.5t-20.5 -26.5q-45 -75 -91.5 -149.5t-95.5 -149.5q-15 72 -30 136.5t-27 113.5q-5 16 -10 27.5t-12.5 19.5t-18.5 13.5t-28 9.5l1 -1q-15 4 -27.5 5t-24.5 1q-55 0 -80.5 -9 t-25.5 -38q0 -13 3 -26q9 -51 20 -113t24 -128t27.5 -133t29.5 -128q-11 -42 -20.5 -81t-16.5 -74l1 1q-8 -34 -16.5 -65.5t-8.5 -55.5t12.5 -41t32.5 -29t44 -20.5t48 -16.5q18 -6 30 -6q20 0 29 10t16 30q15 66 33 132t41 136q46 67 94 138.5t91 136.5t76 120.5t50 91.5z M669 1151q-2 31 -9.5 50.5t-30.5 30.5h2q-36 18 -62 18q-12 0 -22.5 -4t-19.5 -10q-55 -39 -127 -75t-144 -68q5 -24 9 -43.5t5 -21.5l-27 -25q39 -24 71 -24q13 0 30 5q42 15 87 34t87 39t79 40t63 37zM256 1093q-6 27 -12.5 50t-12.5 23q-5 0 -8.5 -25t-3.5 -89 q2 11 10 21t27 20z" />
<glyph unicode="&#xde;" horiz-adv-x="665" d="M343 848q-15 11 -34.5 21.5t-40.5 19t-40.5 14t-33.5 5.5q-20 0 -32.5 -10.5t-23.5 -36.5q-14 -43 -32 -104t-37 -130.5t-38 -143t-35.5 -141.5t-29 -126.5t-18.5 -97.5q-2 -9 -3 -15.5t-1 -16.5q0 -41 40 -64h-1q12 -8 28.5 -15.5t34.5 -13.5t35 -10t28 -4q19 0 29 10 t16 26.5t10 37t10 41.5q95 28 186 70.5t162.5 95t115.5 112.5t44 123q0 36 -9.5 67.5t-24.5 59t-32.5 50t-33.5 40.5q-26 28 -61.5 39.5t-77.5 11.5q-35 0 -69 -6q0 2 1 3v-1q6 19 6 34q0 17 -9 29.5t-30 26.5zM311 522q32 14 63 19.5t54 5.5q19 0 27 -1t10.5 -3t1.5 -5 t-1 -6q0 -18 -14 -43t-42 -51.5t-68.5 -53t-93.5 -47.5q16 51 31.5 96.5t31.5 88.5z" />
<glyph unicode="&#xdf;" horiz-adv-x="1052" d="M1028 829q-9 17 -14 22t-13 5v0q1 0 1 1l-2 4l1 -1q-21 26 -48 26q-12 0 -25 -5t-26 -16q-41 -31 -102 -84t-132 -118t-146 -135t-143 -134.5t-122.5 -118t-84.5 -83.5v1q-17 -15 -27.5 -32.5t-10.5 -40.5q0 -12 8.5 -28t23.5 -16h2q9 -10 18 -13.5t19 -3.5q22 0 48 26 v-1l100 90t130.5 116.5t145.5 128.5t145 126t129.5 110.5t98.5 81.5q17 14 26 27t9 30q0 15 -9 35zM433 700v-1q19 29 30.5 56.5t11.5 56.5q0 17 -8.5 42t-28 48t-50 39.5t-75.5 16.5q-29 0 -58 -10t-56 -27t-50.5 -40.5t-42.5 -50.5q-20 -31 -20 -51q0 -14 8 -23.5t20 -15 t27 -7.5t29 -2q25 0 47 10.5t40 24t32.5 26.5t26.5 18q-9 -20 -39.5 -57t-73 -80.5t-91.5 -87.5t-95 -77q-22 -21 -22 -40q0 -15 10.5 -34.5t26 -36.5t33 -28.5t32.5 -11.5q5 0 13 1t20 4v-1q19 4 47.5 9t60 9.5t62.5 7.5t55 5q19 4 27 9.5t8 23.5q0 12 -5.5 29t-16 32.5 t-24.5 26.5t-32 11h-6q-8 -1 -17 -1t-19 -1q50 42 93.5 89t69.5 89zM1028 327h-1q20 17 32.5 42.5t12.5 56.5q0 39 -16.5 67.5t-40 47t-49.5 28t-44 9.5q-30 0 -65.5 -11.5t-66.5 -29.5t-51.5 -39.5t-20.5 -40.5q0 -14 8 -25t21.5 -18.5t31 -12t35.5 -4.5q13 0 30 3t29 14 q13 8 26.5 15t24.5 9q-6 -15 -50.5 -41t-135.5 -55q-17 -5 -23.5 -14t-6.5 -23q0 -21 11 -38t27 -29.5t34 -19t33 -6.5h5q4 0 9 1q8 1 14 1.5t9 0.5q10 0 17 -4.5t7 -16.5q0 -9 -5.5 -21t-15.5 -23t-24 -18.5t-30 -7.5q-12 0 -26.5 5.5t-30.5 12.5t-32.5 12.5t-32.5 5.5 q-10 0 -22.5 -2.5t-23.5 -8t-18.5 -14.5t-7.5 -22q0 -10 6.5 -22t21.5 -28q42 -44 87.5 -59.5t89.5 -15.5q34 0 73.5 10.5t73.5 32.5t56 55.5t22 80.5q0 58 -50 105v-1q-7 7 -19 14q19 11 34 21t28 21z" />
<glyph unicode="&#xe0;" horiz-adv-x="730" d="M441 77q1 -41 13 -57.5t43 -26.5l-1 1q26 -11 50 -13t52 -2q37 0 49 12t12 44q3 97 7 204.5t9.5 211t12 195.5t14.5 159v-1q1 5 1 10v10q0 26 -11 43t-42 28l-17 6q-35 11 -81.5 23t-116.5 12q-41 0 -64.5 -17.5t-40.5 -43.5q-45 -71 -98.5 -166t-107.5 -196t-102.5 -199 t-82.5 -174q-8 -18 -10 -31t-2 -24q0 -16 8 -29t20.5 -23.5t28.5 -19.5t32 -17l12 -6q19 -8 35 -8t26 7.5t21 26.5q17 36 34.5 73t42.5 79q50 13 115.5 23.5t132.5 20.5h3v-20q0 -64 3 -115zM307 1140q24 -17 57.5 -37t72.5 -40t81 -39t82 -34q15 -6 31 -6q17 0 34.5 6 t38.5 17l-26 27q0 1 2.5 7.5t6.5 16t8 20.5t9 20q-66 31 -133 67t-116 76q-18 15 -42 15q-14 0 -28.5 -4t-34.5 -14q-25 -9 -35.5 -29t-16.5 -49zM453 651q-4 -55 -7 -111.5t-6 -113.5q-31 -2 -61.5 -5.5t-61.5 -8.5q36 65 70.5 125t65.5 114zM713 1094q19 -15 22 -33 q-1 32 -4.5 45t-8.5 13q-4 0 -8.5 -6t-9.5 -15q3 -2 9 -4z" />
<glyph unicode="&#xe1;" horiz-adv-x="731" d="M442 77q1 -20 4 -34t9 -23.5t16.5 -15.5t26.5 -11l-2 1q27 -11 51 -13t53 -2q36 0 48.5 12t12.5 44q2 97 6.5 204.5t10 211t12 195.5t14.5 159v-1q1 5 1 10v10q0 26 -11.5 43t-42.5 28l-17 6q-36 11 -82.5 23t-116.5 12q-41 0 -64.5 -18t-40.5 -44q-30 -47 -64 -106 t-70 -123.5t-72 -132.5t-69.5 -133.5t-63 -126.5t-52.5 -112q-8 -18 -10.5 -31t-2.5 -24q0 -22 10 -33t25 -24q13 -9 27 -17t28 -15l12 -6q19 -8 35 -8t26 7.5t21 26.5q17 36 35 72.5t42 79.5q50 13 116 23.5t133 20.5h3v-20q0 -64 3 -115zM768 1151q-1 31 -9 50.5t-32 29.5 h1q-34 19 -62 19q-21 0 -43 -15q-54 -39 -127.5 -75.5t-145.5 -66.5q5 -24 9 -43.5t5 -21.5l-27 -26q20 -11 37 -17.5t34 -6.5q15 0 30 6q43 15 89 34t88.5 39t79.5 40t63 36zM453 651q-3 -55 -6 -111.5t-6 -113.5q-31 -2 -61.5 -5.5t-61.5 -8.5q36 65 70 125t65 114z M350 1093q-6 27 -13 50t-13 23q-5 0 -8.5 -25t-3.5 -89q2 9 10.5 21.5t27.5 19.5z" />
<glyph unicode="&#xe2;" horiz-adv-x="730" d="M441 77q1 -20 4 -34t9 -23.5t16.5 -15.5t26.5 -11l-2 1q27 -11 51 -13t52 -2q37 0 49 12t12 44q3 97 7 205t9.5 211.5t12 196t14.5 159.5v-1q1 4 1 9v11q0 26 -11 43t-42 28l-17 6q-36 11 -82.5 23t-116.5 12q-41 0 -64 -17.5t-40 -43.5q-30 -48 -64 -106.5t-70 -123.5 t-72 -133t-69.5 -134.5t-63 -127.5t-52.5 -112q-7 -17 -9.5 -30.5t-2.5 -23.5q0 -17 8 -30t20.5 -23.5t28.5 -19.5t32 -17l12 -6q11 -5 19 -6.5t16 -1.5q16 0 26 7.5t21 26.5q17 36 34.5 73t42.5 79q49 14 115 24t133 21h3v-21q0 -64 3 -115zM688 973h4q20 0 29 7t9 27 q0 2 -0.5 5.5t-0.5 5.5q-5 22 -10.5 51t-10.5 60t-9.5 62.5t-7.5 59.5q-1 32 -17 49.5t-33 28.5l1 -1q-11 8 -23 16.5t-26 8.5q-19 0 -38 -19q-33 -29 -68 -65t-64 -70t-47.5 -62t-18.5 -40q0 -16 9 -32t21 -29t24.5 -21t20.5 -8q11 0 26 12.5t32 31.5t35 41t35 40 q6 -32 10 -60.5t15.5 -50.5t34.5 -35t68 -13zM452 652q-3 -55 -6 -111.5t-6 -113.5q-31 -2 -61.5 -5.5t-61.5 -8.5q36 65 70.5 125t64.5 114z" />
<glyph unicode="&#xe3;" horiz-adv-x="733" d="M443 76q1 -20 4 -33.5t9 -23t16.5 -15.5t26.5 -11l-1 1q26 -11 50.5 -13t52.5 -2q37 0 49 12t12 44q3 97 7 204.5t9.5 210.5t12 195t14.5 158v-1q1 5 1 10v11q0 26 -11 42.5t-42 27.5l-18 6q-35 12 -81.5 23.5t-117.5 11.5q-41 0 -64.5 -17.5t-40.5 -43.5 q-30 -47 -64.5 -105.5t-70 -123.5t-72 -132.5t-70 -133.5t-63 -127t-52.5 -112q-8 -17 -10.5 -30t-2.5 -24q0 -17 8.5 -30t21.5 -23.5t29 -19.5t31 -16l12 -6q19 -8 35 -8q18 0 34 18.5t30.5 46t29 60t31.5 60.5q50 14 115.5 24t133.5 21h3v-20q0 -65 3 -116zM619 989 q52 0 118 48l-1 -1q38 24 55 46.5t19 43.5v3q0 13 -7 23t-17.5 16.5t-23 10t-24.5 3.5q-15 0 -29 -6t-29 -17l-9 -7q-5 -5 -11.5 -10t-11.5 -10t-8.5 -8l-3.5 -3h-1q-26 2 -51.5 17t-51.5 22h2q-24 9 -45 13.5t-44 4.5q-19 0 -48 -9.5t-58 -23.5t-53 -30t-33 -29 q-16 -22 -16 -43v-3q0 -48 64 -48q23 0 39 5.5t33 18.5q11 8 24 16.5t20 8.5q31 0 52 -8t41.5 -18t45 -18t63.5 -8zM454 649q-3 -54 -6 -110.5t-6 -113.5q-31 -2 -61.5 -5.5t-61.5 -8.5q35 65 69.5 125t65.5 113z" />
<glyph unicode="&#xe4;" horiz-adv-x="731" d="M442 76q1 -20 4 -33.5t9 -23t16.5 -15.5t26.5 -11l-1 1q26 -11 50 -13t53 -2q36 0 48.5 12t12.5 44q2 97 6.5 204.5t10 210.5t12 195t14.5 158v-1q1 5 1 10v10q0 26 -11.5 43t-42.5 28l-17 6q-36 11 -82.5 23t-116.5 12q-41 0 -64.5 -17.5t-40.5 -43.5 q-30 -47 -64 -105.5t-70 -123.5t-72 -132.5t-69.5 -133.5t-63 -127t-52.5 -112q-8 -17 -10.5 -30t-2.5 -24q0 -22 10 -33t25 -24q13 -9 27 -17t28 -15l12 -6q19 -8 35 -8t26 7.5t21 25.5q17 37 35 73.5t42 78.5q50 14 116 24t133 21h3v-20q0 -65 3 -116zM570 1079 q-1 -5 -1.5 -9.5t-0.5 -10.5q0 -41 27 -65t65 -24h4q21 0 38 8t29.5 19t21 24t12.5 22l-1 -1q3 7 5 15.5t3 16.5v7q0 14 -6 29.5t-18.5 29t-31.5 22t-45 8.5q-21 0 -38 -7.5t-30.5 -20.5t-21.5 -29t-11 -34zM303 1080q-1 -5 -1 -18q0 -42 26 -66.5t64 -24.5h4q20 0 36.5 7.5 t29.5 18.5t21.5 23.5t12.5 22.5q3 7 5.5 14t4.5 17v7q0 14 -6 30t-18.5 29.5t-31.5 22t-45 8.5q-21 0 -38 -7.5t-30.5 -20.5t-22 -29t-11.5 -34zM454 649q-4 -54 -7 -110.5t-6 -113.5q-31 -2 -61.5 -5.5t-61.5 -8.5q36 65 70.5 125t65.5 113z" />
<glyph unicode="&#xe5;" horiz-adv-x="731" d="M442 77q1 -20 4 -34t9 -23.5t16.5 -15.5t26.5 -11l-2 1q27 -11 51 -13t52 -2q37 0 49 12t12 44q3 97 7 205t9.5 211.5t12 195.5t14.5 158v-1q1 5 1 10v10q0 26 -11 43t-42 28l-17 6q-36 12 -82.5 23.5t-116.5 11.5q-41 0 -64.5 -17.5t-40.5 -43.5q-30 -47 -64 -106 t-70 -123.5t-72 -132.5t-69.5 -134t-63 -127t-52.5 -112q-8 -18 -10 -31t-2 -24q0 -22 9.5 -33t24.5 -24q13 -9 27 -17t28 -15l12 -6q19 -8 35 -8t26 7.5t21 26.5q17 36 35 73t42 79q50 13 115.5 23.5t133.5 20.5h3v-20q0 -64 3 -115zM708 1242q-19 8 -45 14.5t-53 9.5h-13 q-53 0 -95 -21t-71.5 -52.5t-45.5 -67.5t-16 -66q0 -34 19 -62q8 -14 24 -24.5t32 -15.5h-1q24 -9 56 -12t60 -3q51 0 89.5 22t64 54t38.5 69t13 66t-13 52t-43 37zM453 651q-3 -55 -6 -111.5t-6 -113.5q-31 -2 -61.5 -5.5t-61.5 -8.5q36 66 70 125.5t65 113.5zM618 1162 q0 -23 -9.5 -47t-23 -43.5t-29 -32.5t-26.5 -13q-6 0 -8.5 2.5t-2.5 14.5q0 17 9.5 40t24 43.5t31.5 35t32 14.5h1q1 0 1 -14z" />
<glyph unicode="&#xe6;" horiz-adv-x="1091" d="M830 887q-5 2 -10.5 3.5t-10.5 3.5h1q-34 11 -78.5 22t-114.5 11q-38 0 -65.5 -16.5t-48.5 -42.5q-39 -46 -85.5 -104t-96 -121.5t-100 -130.5t-98 -132.5t-90 -126t-75.5 -111.5q-14 -23 -19.5 -38t-5.5 -26q0 -16 9 -29t20.5 -23t22.5 -16t15 -7q19 -11 32.5 -15.5 t23.5 -4.5q18 0 36.5 18t38.5 45t41.5 59.5t45.5 62.5q46 11 108 21t126 18l24 3q-14 -47 -24.5 -76.5t-12.5 -52.5q-1 -4 -1 -9v-9q0 -34 18 -47t44 -22l-3 2q9 -6 35 -8.5t55 -2.5q39 0 66 2.5t49.5 7t44 10t48.5 11.5q72 15 141 30q29 6 40.5 16t11.5 32q0 21 -6.5 47 t-19 49.5t-32 39t-46.5 15.5q-48 0 -89.5 -6t-79.5 -13q8 20 14 41.5t14 43.5q56 11 115 21.5t116 22.5q30 7 42.5 15t12.5 31q0 9 -4 24l1 -1q-5 21 -10.5 43.5t-16.5 41t-29.5 30.5t-47.5 12h-7q-47 -1 -88 -6q15 40 27 78v-1q7 18 13.5 36t12.5 35q63 8 119.5 15 t110.5 13q33 4 45 14t12 36v9q0 5 -1 9l-3 14q-3 17 -6.5 31.5t-14.5 35.5l1 -3q-17 53 -78 53h-5q-66 -2 -121.5 -11.5t-107.5 -22.5q7 -1 10.5 -6t3.5 -11l-16 17h1v1zM582 642q-15 -54 -29.5 -108.5t-27.5 -110.5q-32 -3 -63 -6t-63 -7q49 63 95 121.5t88 110.5z" />
<glyph unicode="&#xe7;" horiz-adv-x="649" d="M160 -229q14 15 31.5 39t34.5 51t32.5 55t25.5 52q46 3 85.5 17.5t72 39.5t58.5 58.5t46 73.5q9 17 14.5 33t5.5 30q0 30 -30 48.5t-78 18.5q-65 0 -115 -52q-69 -75 -100 -75h-3q-13 5 -18 24.5t-5 48.5q0 44 11 103t31 116q16 45 40 95t49.5 92t49.5 70.5t39 29.5 q5 -4 7 -13.5t2 -20.5q0 -18 -1.5 -37t-1.5 -37q3 -28 11 -50t23 -39t38.5 -28.5t57.5 -18.5q6 -2 12 -2h12q13 0 21 2.5t13.5 7.5t8.5 12t7 16l2 2q7 18 12.5 41.5t9.5 49t6 51t2 48.5q0 40 -12.5 75t-52.5 67q-17 13 -39.5 24.5t-48 20.5t-52 15.5t-51.5 9.5h1q-4 1 -10 1 h-11q-60 0 -115.5 -33.5t-103 -88.5t-86 -126t-66 -146.5t-43 -149.5t-15.5 -135q0 -40 5.5 -75.5t17.5 -64.5v2q12 -35 37.5 -62t52.5 -42q-15 -27 -30 -55.5t-29.5 -56t-28 -52t-23.5 -42.5v1q-9 -17 -9 -31q0 -26 24 -37t72 -11q29 0 51.5 7.5t45.5 32.5zM646 530l1 1z " />
<glyph unicode="&#xe8;" horiz-adv-x="583" d="M140 850l-174 -674q-3 -14 -3 -30q0 -26 8 -44t22 -33v1q17 -20 31.5 -36t28.5 -27.5t30.5 -17.5t38.5 -6q9 0 20.5 1t26.5 6l-1 -1l130.5 29t131.5 29q29 5 40 14.5t11 32.5v17q-8 24 -13.5 47t-17.5 46v-1q-9 24 -25.5 34t-43.5 10q-45 0 -85.5 -5.5t-78.5 -12.5 q10 39 26 85q35 8 71.5 14.5t73.5 14.5h-1q28 5 52.5 9t43 10t29 16t10.5 27q0 11 -4 24l1 -1q-4 22 -9.5 43t-17.5 44v-1q-11 25 -28 33.5t-46 8.5h-7q-23 -1 -44.5 -2t-42.5 -3l21 60l15.5 46.5t15.5 43.5q62 9 117.5 15t107.5 12q32 4 44 15t12 38q0 5 -0.5 13.5 t-2.5 13.5h1q-4 17 -8 32t-14 38l1 -1q-10 27 -27.5 40t-49.5 13h-5q-53 -2 -107 -9t-105.5 -16t-99 -20t-87.5 -21zM236 1133q24 -16 57.5 -36t72.5 -40t81 -39t83 -34q13 -6 29 -6q17 0 34.5 6t38.5 17l-26 27q0 1 3 7.5t7 16t9 20t11 18.5q-67 30 -135 67.5t-117 77.5 q-17 15 -42 15q-15 0 -32 -4.5t-33.5 -16t-29 -29.5t-18.5 -45zM640 1088q20 -14 23 -34q-1 27 -4 38t-8 11q-7 0 -15 -13q1 -1 2 -1t2 -1z" />
<glyph unicode="&#xe9;" horiz-adv-x="583" d="M140 850l-174 -674q-3 -14 -3 -30q0 -26 8 -44t22 -33v1q17 -20 31.5 -36t28.5 -27.5t30.5 -17.5t38.5 -6q9 0 21 1t26 6l-1 -1q63 14 131 29t132 29q29 5 40 14.5t11 32.5q0 24 -9.5 54.5t-21.5 55.5v-1q-10 24 -26.5 34t-43.5 10q-45 0 -85.5 -5.5t-78.5 -12.5 q10 39 26 85q35 8 71.5 14.5t73.5 14.5h-1q26 4 50.5 8t43.5 10t30.5 16t11.5 28q0 11 -4 24l1 -1q-5 22 -10.5 43t-17.5 44v-1q-11 25 -28 33.5t-46 8.5h-6q-23 -1 -45 -2t-42 -3q11 37 24.5 76.5t27.5 73.5q61 9 116.5 15t107.5 12q33 4 45 15t12 38q0 5 -1 13.5t-3 13.5 h1q-4 17 -7.5 32t-14.5 38l1 -1q-9 27 -27 40t-49 13h-5q-53 -2 -107 -9t-106 -16t-99.5 -20t-87.5 -21zM672 1151q-2 30 -10 50t-31 30h2q-34 19 -61 19q-23 0 -43 -15q-55 -38 -127.5 -74t-144.5 -68q5 -24 9 -43.5t5 -21.5l-27 -26q20 -11 37 -17.5t34 -6.5q14 0 31 6 q42 15 87 34t87.5 39t79.5 40t63 36zM257 1093l-6 26t-6.5 23.5t-6.5 17t-6 6.5q-5 0 -8.5 -25.5t-3.5 -88.5q2 11 10 21t27 20z" />
<glyph unicode="&#xea;" horiz-adv-x="582" d="M140 852l-174 -675q-3 -15 -3 -30q0 -26 8 -44.5t22 -33.5v1q17 -20 31.5 -36t28.5 -27.5t30.5 -17.5t38.5 -6q9 0 20.5 1t26.5 6l-1 -1l130.5 29t131.5 29q29 5 40 14.5t11 32.5q0 26 -9.5 56t-21.5 54v-1q-9 24 -25.5 34.5t-43.5 10.5q-45 0 -85.5 -6t-78.5 -13 q2 17 10 40.5t16 45.5q35 8 71 14.5t74 14.5h-1q28 5 52.5 9t43 10t29 15.5t10.5 27.5q0 11 -4 24l1 -1q-5 22 -10 43t-17 44v-1q-11 25 -28 34t-46 9h-7q-44 -1 -87 -6q14 40 27 78t25 72q62 9 117 15.5t107 12.5q33 4 45 14.5t12 38.5q0 6 -1 13t-3 14l1 -1q-3 17 -7 32.5 t-14 38.5v-1q-9 27 -26.5 40t-49.5 13h-5q-53 -2 -107 -8.5t-105.5 -16.5t-99 -21t-87.5 -20zM599 969h3q20 0 29 7.5t9 25.5v6t-2 8l1 -2q-4 22 -9.5 51t-10.5 60t-10 62.5t-8 59.5q-1 29 -15 47t-35 32v-1q-10 10 -22.5 17t-23.5 7q-13 0 -32 -13.5t-41 -34.5t-45 -47 t-43 -50.5t-36 -45t-24 -31.5q-13 -14 -13 -34q0 -10 4.5 -20.5t11.5 -20.5t14.5 -18.5t12.5 -14.5l2 -3q7 -6 11.5 -9.5t16.5 -3.5q20 0 30 17l1 1v1q5 5 10 10.5t10 10.5v-1q18 21 37 42t41 44q4 -28 8 -53t10.5 -45.5t18.5 -34.5t32 -19h-1q17 -5 30.5 -6t27.5 -1z" />
<glyph unicode="&#xeb;" horiz-adv-x="582" d="M140 848l-174 -672q-3 -15 -3 -30q0 -26 8 -44t22 -33v1q17 -20 31.5 -36t28.5 -27.5t30.5 -17.5t38.5 -6q19 0 47 7l-1 -1l130.5 29t131.5 28q29 6 40 15.5t11 32.5q0 26 -9.5 56t-21.5 53v-1q-9 24 -25.5 34.5t-43.5 10.5q-45 0 -85.5 -6t-78.5 -13q2 17 10 40.5 t16 44.5q35 8 71 15t74 14h-1q27 5 51 9t43 10t30 16t11 27q0 11 -4 24h1l-10 42t-17 44v-1q-11 25 -28 33.5t-46 8.5h-7q-44 -1 -87 -6q14 41 27 78.5t25 71.5q62 9 117 15.5t107 11.5q33 4 45 15t12 39q0 5 -1 13t-3 14l1 -1q-3 17 -7 32t-14 38v-1q-9 27 -26.5 40 t-49.5 13h-5q-53 -2 -107 -9t-105.5 -16t-99 -20t-87.5 -21zM190 1074q-1 -4 -1 -9v-10q0 -41 26 -65.5t64 -24.5h4q33 0 53.5 14.5t32.5 33t16.5 35t4.5 20.5v8q0 13 -5.5 28.5t-17.5 29t-31 22.5t-45 9q-41 0 -68 -28t-33 -64v1zM455 1073q-1 -5 -1.5 -9.5t-0.5 -10.5 q0 -41 26.5 -65t64.5 -24h3q25 0 44.5 11t32.5 25.5t20 29t7 22.5q1 4 1.5 7t1.5 8v8q0 13 -6 29t-18 29t-30.5 22t-44.5 9q-21 0 -38 -7.5t-30 -20.5t-21.5 -29t-10.5 -34z" />
<glyph unicode="&#xec;" horiz-adv-x="310" d="M337 858q-14 10 -33.5 21t-40 20t-40 14.5t-32.5 5.5q-20 0 -32.5 -11t-22.5 -37q-14 -43 -31.5 -104.5t-36.5 -132t-37.5 -145t-34.5 -143.5t-28.5 -128t-18.5 -99q-2 -8 -3 -15t-1 -17q0 -23 9.5 -37.5t29.5 -27.5h-1q13 -9 29.5 -16.5t33.5 -13.5t33 -9.5t28 -3.5 q21 0 29 9.5t16 31.5q13 51 30 114t35.5 131.5t38.5 139.5t39.5 137t38 124.5t34.5 101.5q6 19 6 34q0 17 -9 30t-29 27zM61 1160q23 -17 56 -37t71.5 -40t80 -39.5t81.5 -34.5q13 -6 29 -6t33.5 6t37.5 17l-21 31q1 1 5 8t10 15t12.5 15.5t12.5 8.5q-2 2 -5 4.5t-5 4.5 q-66 31 -133.5 68.5t-117.5 79.5q-18 15 -41 15q-13 0 -28 -5t-35 -14q-23 -10 -34 -29.5t-16 -47.5zM470 1104h-1q10 -12 12 -26q-1 26 -11 26z" />
<glyph unicode="&#xed;" horiz-adv-x="313" d="M340 857q-15 11 -34.5 22t-40 19.5t-40 14t-33.5 5.5q-20 0 -32.5 -10.5t-22.5 -36.5q-14 -44 -31.5 -105.5t-36.5 -132t-38 -144.5t-35 -143.5t-29 -128t-19 -98.5q-2 -8 -2.5 -15t-0.5 -17q0 -23 9.5 -37.5t29.5 -27.5h-1q13 -9 30 -16.5t34.5 -13.5t33.5 -9.5t27 -3.5 q21 0 29.5 9.5t15.5 31.5q13 51 30.5 114t36 131.5t39 139t40 137t38 124.5t34.5 102q6 19 6 34q0 17 -9 29.5t-29 26.5zM557 1154q-2 27 -11.5 46t-24 31t-31.5 17t-33 5q-13 0 -22.5 -4t-18.5 -11q-27 -20 -60.5 -39.5t-69.5 -38t-73.5 -35.5t-73.5 -33q-15 -10 -24 -22h2 q5 0 11.5 -5.5t12.5 -12t10 -12t5 -5.5l-23 -31q20 -11 37 -17.5t34 -6.5q15 0 30 6h-1q42 15 87 34.5t86.5 39.5t78 40t62.5 36zM115 1070q-3 -2 -5 -5.5t-2 -11.5q2 10 7 17z" />
<glyph unicode="&#xee;" horiz-adv-x="310" d="M337 859q-15 11 -34.5 22t-39.5 19.5t-39 14t-33 5.5q-20 0 -32.5 -11t-22.5 -37q-14 -43 -31.5 -104.5t-36.5 -132t-37.5 -145t-34.5 -143.5t-28.5 -128.5t-18.5 -98.5q-2 -9 -3 -16t-1 -17q0 -23 9.5 -37.5t29.5 -27.5h-1q11 -7 27 -14.5t33 -14t34 -10.5t30 -4 q21 0 29 9.5t16 31.5q13 51 30 114t35.5 131.5t38.5 139.5t39.5 137.5t38 124.5t34.5 102q6 19 6 34q0 17 -9 30t-29 27zM445 963h4q20 0 28.5 7.5t8.5 26.5v5t-2 7l1 -1q-5 22 -10 51t-10.5 60t-9.5 62.5t-7 59.5q-1 30 -16.5 49.5t-32.5 28.5l1 -1q-13 11 -24.5 18 t-22.5 7q-19 0 -37 -19q-33 -29 -67 -65t-62.5 -70t-46.5 -62t-18 -40q0 -15 8.5 -31t20.5 -29t24 -21.5t20 -8.5q10 0 24.5 13t31 31.5t34.5 40.5t35 40l3 -12q6 -34 11 -61t17 -46t33.5 -29.5t60.5 -10.5z" />
<glyph unicode="&#xef;" horiz-adv-x="311" d="M338 855q-15 11 -34.5 22t-40 19.5t-39.5 14t-32 5.5q-20 0 -32.5 -10.5t-22.5 -36.5q-14 -43 -32 -104.5t-36.5 -131.5t-37.5 -144.5t-35 -143.5t-28.5 -128t-18.5 -98q-2 -9 -3 -15.5t-1 -16.5q0 -23 9.5 -37.5t29.5 -27.5h-1q11 -8 27.5 -15.5t34 -13.5t34.5 -10 t29 -4q21 0 29 9.5t15 31.5q13 51 30.5 114t36 131t39 138.5t40 136.5t37.5 124t34 102q7 18 7 34q0 17 -9 29.5t-29 26.5v-1zM61 1074q-1 -4 -1 -9v-10q0 -41 25.5 -65.5t63.5 -24.5h3q33 0 53.5 14.5t32.5 33t16.5 35t4.5 20.5v8q0 14 -6 29.5t-18 29t-30.5 22t-43.5 8.5 q-20 0 -37 -7.5t-30 -20.5t-21.5 -29.5t-11.5 -34.5v1zM323 1073q-1 -5 -1.5 -9.5t-0.5 -10.5q0 -41 25.5 -65t63.5 -24h4q27 0 45.5 11t30.5 26t18 29.5t9 22.5q1 3 1.5 6t1.5 8v8q0 13 -6 29t-18 29t-30.5 22t-43.5 9q-21 0 -38 -7.5t-30 -20.5t-21 -29t-10 -34z" />
<glyph unicode="&#xf0;" horiz-adv-x="622" d="M252 768q-44 -9 -44 -50q0 -25 12.5 -45t21.5 -24l-1 1q2 -1 5.5 -2.5t8.5 -9.5q17 -23 33 -33t35 -10q5 0 9.5 0.5t11.5 2.5q-1 -8 -1 -17q0 -8 -1 -17q-34 8 -66 8h-16q-46 -2 -81 -11.5t-62.5 -24.5t-49.5 -35.5t-41 -45.5v1q-53 -66 -75.5 -136.5t-22.5 -129.5 q0 -36 7.5 -70.5t32.5 -60.5t72 -42t126 -16h5q53 4 96 16t79 33t66.5 51t57.5 70q25 37 51 87.5t47 110.5t34.5 128.5t13.5 141.5q24 3 44 3.5t34 4t22 12t8 25.5q0 7 -2 16.5t-7 19.5v-1q-17 38 -40.5 62t-58.5 24h-20q-8 36 -15.5 56.5t-24 31t-46.5 13.5t-83 3 q-59 0 -89 -13t-30 -47q0 -19 6 -35t9 -33h-3q-17 -2 -33.5 -5.5t-35.5 -8.5zM201 170h1q-3 -1 -7 -1q-14 0 -21 14t-7 38q0 32 7.5 63.5t19.5 56.5t26.5 40.5t28.5 16.5h4q20 0 32.5 -20t12.5 -53q0 -3 -0.5 -6.5t-0.5 -6.5q-23 -63 -46.5 -101t-49.5 -41z" />
<glyph unicode="&#xf1;" horiz-adv-x="716" d="M426 767q-3 42 -15.5 63.5t-46.5 35.5h1q-17 9 -37.5 18t-42.5 16.5t-42 12.5t-35 5q-22 0 -37.5 -11.5t-26.5 -38.5q-17 -49 -36 -114.5t-39 -138t-39 -147t-35.5 -140.5t-28.5 -119t-17 -83l1 1q-3 -11 -3.5 -19.5t-0.5 -16.5q0 -22 8.5 -36t27.5 -27l-1 1 q19 -15 42 -23t46 -15l11 -3l17.5 -3.5t13.5 -1.5q20 0 28.5 10t15.5 30q8 35 19.5 79t25 93.5t28.5 103t30 108.5q14 -87 30 -167t34 -137q9 -29 26 -48t39 -31.5t48 -20.5t52 -14q12 -3 26 -3q50 0 60 49l-1 -1q13 53 29.5 115.5t34 129t36 134.5t37 132.5t35.5 123 t32 105.5q7 20 7 37q0 23 -16 40.5t-38 30t-45 20.5t-38 12q-9 1 -16.5 2.5t-12.5 1.5q-23 0 -37 -11.5t-22 -37.5q-26 -79 -53.5 -174t-53.5 -198q-4 41 -8 80.5t-7.5 75t-6 65t-3.5 49.5zM618 989q51 0 118 47l-1 -1q38 24 55.5 47t19.5 43v4q0 13 -7 22.5t-17.5 16.5 t-23.5 10.5t-25 3.5q-15 0 -28.5 -6t-28.5 -17l-10 -7q-5 -5 -11 -10t-11.5 -10t-8.5 -8l-3 -3h-1q-13 1 -26 5.5t-25.5 10.5t-26 12.5t-26.5 10.5h2q-23 9 -44.5 13.5t-44.5 4.5q-19 0 -47.5 -9.5t-57.5 -23.5t-53.5 -30t-33.5 -29q-15 -23 -15 -43v-3q0 -48 64 -48 q22 0 38 5t34 19q10 8 23 16.5t21 8.5q30 0 51 -8t41.5 -18t45.5 -18t63 -8z" />
<glyph unicode="&#xf2;" d="M616 853q-16 14 -40 27t-51.5 23.5t-57 16.5t-56.5 6q-36 0 -75 -13.5t-69 -35.5q-63 -50 -113 -119.5t-84.5 -148.5t-52.5 -161t-18 -158q0 -147 67 -220.5t201 -86.5h-1q22 -3 44 -3q65 0 119 32.5t96.5 86.5t74 123t52.5 141.5t31 143.5t10 128q0 34 -3 64t-11 57 t-23 51.5t-40 45.5zM448 728q8 -3 11.5 -22.5t3.5 -49.5q0 -56 -10 -114.5t-26.5 -113t-37.5 -103t-43 -84.5t-42.5 -57t-36.5 -21q-17 0 -24 23.5t-7 58.5q0 48 12 108.5t32 113.5q16 44 38 90t45.5 84t45.5 62.5t38 24.5h1zM236 1133q24 -16 57.5 -36t72.5 -40t80.5 -39 t82.5 -34q8 -3 14.5 -4.5t15.5 -1.5q17 0 34 6t39 17l-26 27q0 1 3 7.5t7 16t9 20t10 18.5q-33 15 -67 32t-67 35.5t-63 38t-54 39.5q-17 15 -42 15q-15 0 -32.5 -5t-33.5 -16t-28.5 -29t-18.5 -45zM640 1088q20 -14 23 -35q-1 28 -4.5 39t-8.5 11q-7 0 -15 -13q1 -1 2 -1 t3 -1z" />
<glyph unicode="&#xf3;" d="M616 853q-16 14 -40 27t-51.5 23.5t-57 16.5t-56.5 6q-36 0 -75 -13.5t-69 -35.5q-63 -50 -113 -119.5t-84.5 -148.5t-52.5 -161t-18 -158q0 -147 67 -220.5t201 -86.5h-1q22 -3 44 -3q65 0 119 32.5t96.5 86.5t74 123t52.5 141.5t31 143.5t10 128q0 34 -3 64t-11 57 t-23 51.5t-40 45.5zM448 728q8 -3 11.5 -22.5t3.5 -49.5q0 -56 -10 -114.5t-26.5 -113t-37.5 -103t-43 -84.5t-42.5 -57t-36.5 -21q-17 0 -24 23.5t-7 58.5q0 48 12 108.5t32 113.5q16 44 38 90t45.5 84t45.5 62.5t38 24.5h1zM671 1151q-2 31 -9.5 50.5t-30.5 29.5h2 q-35 19 -62 19q-22 0 -42 -15q-55 -38 -127.5 -74t-144.5 -68q5 -24 8.5 -43.5t4.5 -21.5l-26 -26q19 -11 36.5 -17.5t34.5 -6.5q15 0 30 6q43 15 88 34t87 39t79 40t63 36zM257 1093q-3 13 -6.5 26t-6.5 23.5t-6.5 17t-6.5 6.5q-5 0 -8.5 -25.5t-3.5 -88.5q2 9 10.5 21.5 t27.5 19.5z" />
<glyph unicode="&#xf4;" d="M616 855q-16 14 -40 27t-51.5 23.5t-57 16.5t-56.5 6q-36 0 -75 -13.5t-69 -35.5q-63 -51 -113 -121t-84.5 -148.5t-52.5 -161t-18 -158.5q0 -146 67 -220t201 -87h-1q22 -3 44 -3q66 0 120 33t96.5 86.5t74 123t52 142t30.5 143.5t10 128q0 34 -2.5 64.5t-11 57.5 t-23.5 51.5t-40 45.5zM649 949h3q20 0 29 7.5t9 26.5v5q0 4 -2 8l1 -1l-3 14q-8 45 -18.5 105t-15.5 113q-2 33 -17 49.5t-33 28.5q-10 8 -23 16t-24 8q-13 0 -32 -13.5t-41 -35t-45.5 -47t-44 -50.5t-37 -46t-24.5 -32q-10 -15 -10 -32t8.5 -33.5t20.5 -29t24.5 -20 t20.5 -7.5q10 0 25 13t32.5 32t35.5 41t36 40q4 -17 6 -40.5t7.5 -46.5t18 -41.5t37.5 -24.5l-1 1q17 -5 30 -6.5t27 -1.5zM448 729q8 -2 11.5 -22t3.5 -49q0 -56 -10 -114.5t-26.5 -113.5t-37.5 -103.5t-43 -85t-42.5 -57.5t-36.5 -21q-17 0 -24 24t-7 59q0 48 12 108 t32 114q16 44 38 90t45.5 84t45.5 62.5t38 24.5h1z" />
<glyph unicode="&#xf5;" horiz-adv-x="706" d="M620 852q-16 13 -39.5 26t-51 23.5t-57 16.5t-57.5 6q-35 0 -76 -12.5t-70 -35.5q-64 -50 -114 -120t-84.5 -148.5t-53 -161t-18.5 -157.5q0 -143 66.5 -218t203.5 -88h-1q22 -3 45 -3q66 0 120 32.5t97 86t74.5 122.5t52.5 141.5t31 143.5t10 128q0 35 -3 65.5t-11 57 t-23.5 50.5t-40.5 45zM617 989q51 0 117 48l-1 -1q37 23 54.5 46t19.5 44v3q0 12 -6.5 22t-17 17t-23 10.5t-25.5 3.5q-15 0 -28.5 -6t-28.5 -17l-10 -7q-5 -5 -11 -10t-11.5 -10t-8.5 -8l-3 -3q-27 2 -52.5 17t-51.5 22h2q-24 9 -45 13.5t-44 4.5q-19 0 -47.5 -9.5 t-57.5 -23.5t-53 -30t-33 -29q-16 -22 -16 -43v-3q0 -48 64 -48q22 0 38 5t34 19q10 8 23 16.5t20 8.5q31 0 52 -8t41.5 -18t45 -18t63.5 -8zM452 727q8 -3 11.5 -22.5t3.5 -49.5q0 -55 -10 -113t-26.5 -112.5t-38 -103t-43.5 -85t-43 -57.5t-37 -21q-17 0 -24 23.5t-7 58.5 q0 48 12 107.5t32 113.5q16 44 38.5 90t46 84t45.5 62.5t39 24.5h1z" />
<glyph unicode="&#xf6;" d="M616 851q-16 14 -39.5 27t-51 23.5t-57 16.5t-56.5 6q-35 0 -75.5 -13t-69.5 -36q-64 -50 -114 -119.5t-84 -148.5t-52 -161t-18 -157q0 -143 66 -218t202 -88h-1q22 -3 44 -3q66 0 120 32.5t96.5 86t74 122.5t52.5 141.5t31 143.5t10 128q0 33 -3 63.5t-11.5 57.5 t-23.5 51t-40 45zM449 726q8 -2 11.5 -21.5t3.5 -49.5q0 -55 -10 -113t-26.5 -112.5t-37.5 -103t-43 -85t-43 -57.5t-37 -21h-5q-14 5 -19.5 27t-5.5 55q0 48 11.5 108t31.5 113q16 44 38.5 90t45.5 84t45.5 62t38.5 24h1zM241 1074q-1 -5 -1 -18q0 -42 26 -66.5t64 -24.5h4 q33 0 54 15t33 33.5t17 35t5 19.5v8q0 13 -6 29t-18 29t-31 22t-45 9q-20 0 -37.5 -7.5t-30.5 -20.5t-22 -29t-12 -34zM506 1073q-1 -5 -1.5 -9.5t-0.5 -10.5q0 -41 26.5 -65t64.5 -24h4q21 0 38 8t30 20t22 25.5t12 23.5v3q2 7 3 12t2 12v7q0 14 -6 29.5t-18 29t-30.5 22 t-44.5 8.5q-21 0 -38 -7.5t-30.5 -20.5t-21.5 -29t-11 -34z" />
<glyph unicode="&#xf7;" horiz-adv-x="737" d="M664 364q26 0 38 7.5t12 29.5q0 -1 -4 20.5t-15 47.5t-32.5 48t-55.5 22q-69 0 -116 -1t-82 -3.5t-64 -6.5t-61.5 -9.5t-74 -13t-102.5 -17.5q-22 -3 -39 -13.5t-17 -34.5q0 -18 10 -42t26 -45.5t34.5 -36.5t36.5 -15h11q7 0 13 1q60 11 98.5 20t65.5 16h-1q20 4 37 7.5 t34 6.5t37.5 5t49.5 3t68 2t93 2zM320 691q-1 -5 -1.5 -10.5t-0.5 -13.5q0 -51 31.5 -80.5t79.5 -29.5h8q40 0 66.5 17.5t42 40t21.5 43.5t6 29v8q0 16 -7 35.5t-22.5 36t-39 27.5t-56.5 11q-27 0 -49 -9.5t-38.5 -25t-26.5 -36.5t-14 -43zM237 209q-1 -5 -1.5 -10.5 t-0.5 -11.5q0 -51 33 -81.5t81 -30.5h6q43 0 69 18.5t40.5 41.5t20 44t5.5 26v7q0 17 -7 36t-22 35.5t-38.5 27.5t-56.5 11q-26 0 -48.5 -9.5t-39.5 -25t-27.5 -36t-13.5 -42.5z" />
<glyph unicode="&#xf8;" horiz-adv-x="703" d="M722 973q-16 11 -35 23.5t-36 12.5q-32 0 -54 -35l1 2q-9 -13 -22 -33t-30 -44q-1 -2 -1.5 -3.5t-2.5 -3.5q-31 11 -64.5 20.5t-65.5 9.5q-35 0 -75.5 -12.5t-69.5 -35.5q-63 -50 -113 -119.5t-84 -148t-52.5 -160.5t-18.5 -157q0 -66 13.5 -121.5t48.5 -95.5 q-2 -2 -3.5 -5t-3.5 -6l1 1q-7 -14 -13 -25.5t-11 -20.5v1q-15 -30 -15 -56q2 -10 5 -20t10 -18l-2 -6q2 -1 4 -1.5t7 -3.5h-1q10 -7 19 -9.5t18 -2.5q29 0 47 36l-1 -1l18 31.5t22 37.5q37 -13 77.5 -18.5t71.5 -5.5q66 0 120 32.5t96.5 86t74 122.5t52 141.5t30.5 142.5 t11 127q0 48 -7 88.5t-28 77.5q31 49 51 76.5t20 50.5q0 18 -17 40zM424 417q-17 -54 -37.5 -100.5t-41.5 -81t-41 -54t-37 -19.5q-1 0 -3.5 0.5t-3.5 1.5q32 54 68.5 111.5t73.5 117.5l29 46q-2 -6 -3.5 -11.5t-3.5 -10.5zM276 452l2 6t3 7q15 39 34 80.5t40 77t41 62 t37 35.5q-37 -63 -77 -131.5t-80 -136.5z" />
<glyph unicode="&#xf9;" horiz-adv-x="685" d="M11 131q32 -82 99.5 -116t165.5 -34q38 0 70.5 8t64.5 26q54 34 99 104t83.5 168.5t73 223t68.5 267.5q3 9 4 16.5t1 14.5q0 17 -8 29.5t-30 27.5q-16 9 -34.5 19t-37 18t-36 13.5t-32.5 5.5q-22 0 -37.5 -11t-20.5 -39l1 2q-13 -56 -31.5 -130t-40.5 -152.5t-46.5 -155 t-49 -137t-49 -97.5t-46.5 -37q-10 0 -14 14t-4 37q0 45 14.5 110.5t37 137.5t48 143.5t48.5 128.5l-1 -1q9 22 9 42q0 26 -18 50t-44 43t-55.5 30t-53.5 11q-20 0 -32.5 -10.5t-22.5 -34.5q-29 -72 -57.5 -152t-52 -161t-38 -158.5t-14.5 -142.5q0 -71 19 -121zM237 1133 q24 -16 57.5 -36t72.5 -40t81.5 -39t83.5 -34q13 -6 29 -6q17 0 34.5 6t38.5 17l-25 27q0 1 2.5 7.5t6.5 16t9.5 20t10.5 18.5q-67 30 -135 67.5t-118 77.5q-17 15 -41 15q-25 0 -62 -18q-23 -9 -34.5 -28.5t-17.5 -48.5zM643 1088q19 -15 22 -33q0 26 -3.5 37t-8.5 11 q-7 0 -15 -13q1 -1 2 -1t3 -1z" />
<glyph unicode="&#xfa;" horiz-adv-x="685" d="M11 131q32 -82 99.5 -116t165.5 -34q38 0 70.5 8t64.5 26q54 34 99 104t83.5 168.5t73 223t68.5 267.5q3 9 4 16.5t1 14.5q0 17 -8 29.5t-30 27.5q-16 9 -34.5 19t-37 18t-36 13.5t-32.5 5.5q-22 0 -37.5 -11t-20.5 -39l1 2q-13 -56 -31.5 -130t-40.5 -152.5t-46.5 -155 t-49 -137t-49 -97.5t-46.5 -37q-10 0 -14 14t-4 37q0 45 14.5 110.5t37 137.5t48 143.5t48.5 128.5l-1 -1q9 22 9 42q0 26 -18 50t-44 43t-55.5 30t-53.5 11q-20 0 -32.5 -10.5t-22.5 -34.5q-29 -72 -57.5 -152t-52 -161t-38 -158.5t-14.5 -142.5q0 -71 19 -121zM674 1151 q-2 31 -10 50.5t-31 29.5h2q-35 19 -62 19q-22 0 -42 -15q-55 -38 -128 -74t-145 -68q5 -24 9 -43.5t5 -21.5l-27 -26q20 -11 37 -17.5t34 -6.5q15 0 30 6q43 15 88 34t87.5 39t79.5 40t64 36zM258 1093q-3 13 -6.5 26t-6.5 23.5t-6.5 17t-6.5 6.5q-5 0 -8.5 -25.5 t-3.5 -88.5q2 9 10.5 21.5t27.5 19.5z" />
<glyph unicode="&#xfb;" horiz-adv-x="685" d="M11 131q32 -81 99 -115.5t166 -34.5q38 0 70.5 8t64.5 26q54 34 99 104t83.5 168.5t73 223t68.5 268.5q3 10 4 17.5t1 13.5q0 17 -8 30t-30 28q-16 9 -34.5 19t-37 18t-36 13.5t-32.5 5.5q-22 0 -37.5 -11t-20.5 -40l1 2q-13 -55 -31.5 -129t-40.5 -153t-46.5 -156 t-49 -137.5t-49 -97.5t-46.5 -37q-10 0 -14 14t-4 38q0 45 14.5 110.5t37 137.5t48 143.5t48.5 128.5l-1 -1q9 24 9 42q0 27 -18 51t-44 43t-55.5 30t-53.5 11q-20 0 -32.5 -10.5t-22.5 -34.5q-29 -72 -57.5 -152.5t-52 -161.5t-38 -158.5t-14.5 -142.5q0 -72 19 -122z M601 969h4q20 0 29 7.5t9 25.5v6t-2 8l1 -2q-5 22 -10.5 51t-10.5 60t-9.5 62.5t-7.5 59.5q-1 29 -15.5 47.5t-35.5 31.5v-1q-10 10 -22.5 17t-23.5 7q-19 0 -37 -19q-33 -29 -68.5 -65t-64 -70.5t-47 -62t-18.5 -39.5q0 -9 4.5 -19.5t11.5 -20.5t14 -19t13 -15l2 -3 q8 -6 12 -9.5t17 -3.5q15 0 27 13.5t24 27.5v-1q18 20 37 41t41 44q4 -28 8 -53t10.5 -45.5t18.5 -34.5t32 -19h-1q17 -5 31 -6t27 -1z" />
<glyph unicode="&#xfc;" horiz-adv-x="685" d="M11 131q32 -82 99.5 -116t165.5 -34q38 0 70.5 8t64.5 26q54 34 99 103.5t83.5 168t73 222.5t68.5 267q3 9 4 16.5t1 14.5q0 17 -8 29.5t-30 27.5q-16 9 -34.5 19t-37 18t-36 13.5t-32.5 5.5q-22 0 -37.5 -11t-20.5 -39l1 2q-13 -55 -31.5 -129t-40.5 -152.5t-46.5 -155 t-49 -137t-49 -97.5t-46.5 -37q-10 0 -14 14.5t-4 37.5q0 45 14.5 110t37 136.5t48 143t48.5 128.5l-1 -1q9 24 9 42q0 26 -18 50.5t-44 43t-55.5 29.5t-53.5 11q-20 0 -32.5 -10.5t-22.5 -34.5q-29 -72 -57.5 -152t-52 -160.5t-38 -157.5t-14.5 -142q0 -73 19 -121z M234 1074v-18q0 -42 26 -66.5t64 -24.5h4q33 0 54 15t33 33.5t17 35t5 19.5v8q0 13 -6 29t-18.5 29t-31.5 22t-45 9q-20 0 -37.5 -7.5t-30.5 -20.5t-22 -29t-12 -34zM500 1073q-1 -5 -1.5 -9.5t-0.5 -10.5q0 -41 27 -65t65 -24h3q21 0 38 8t30.5 20t22 25.5t12.5 23.5v3 q2 7 3 12t2 12v7q0 13 -6 29t-18 29t-31 22t-45 9q-21 0 -38 -7.5t-30.5 -20.5t-21.5 -29t-11 -34z" />
<glyph unicode="&#xfd;" horiz-adv-x="654" d="M709 760q8 16 12.5 28.5t4.5 25.5q0 12 -12.5 33t-32.5 40.5t-45 34t-49 14.5q-15 0 -27.5 -7.5t-20.5 -26.5q-45 -75 -91.5 -149.5t-95.5 -149.5q-15 72 -30 136.5t-27 113.5q-5 16 -10 27.5t-12.5 19.5t-18.5 13.5t-28 9.5l1 -1q-15 4 -27.5 5t-24.5 1q-55 0 -80.5 -9 t-25.5 -38q0 -13 3 -26q9 -51 20 -113t24 -128t27.5 -133t29.5 -128q-11 -42 -20.5 -81t-16.5 -74l1 1q-8 -34 -16.5 -65.5t-8.5 -55.5t12.5 -41t32.5 -29t44 -20.5t48 -16.5q18 -6 30 -6q20 0 29 10t16 30q15 66 33 132t41 136q46 67 94 138.5t91 136.5t76 120.5t50 91.5z M669 1151q-2 31 -9.5 50.5t-30.5 30.5h2q-36 18 -62 18q-12 0 -22.5 -4t-19.5 -10q-55 -39 -127 -75t-144 -68q5 -24 9 -43.5t5 -21.5l-27 -25q39 -24 71 -24q13 0 30 5q42 15 87 34t87 39t79 40t63 37zM256 1093q-6 27 -12.5 50t-12.5 23q-5 0 -8.5 -25t-3.5 -89 q2 11 10 21t27 20z" />
<glyph unicode="&#xfe;" horiz-adv-x="665" d="M343 848q-15 11 -34.5 21.5t-40.5 19t-40.5 14t-33.5 5.5q-20 0 -32.5 -10.5t-23.5 -36.5q-14 -43 -32 -104t-37 -130.5t-38 -143t-35.5 -141.5t-29 -126.5t-18.5 -97.5q-2 -9 -3 -15.5t-1 -16.5q0 -41 40 -64h-1q12 -8 28.5 -15.5t34.5 -13.5t35 -10t28 -4q19 0 29 10 t16 26.5t10 37t10 41.5q95 28 186 70.5t162.5 95t115.5 112.5t44 123q0 36 -9.5 67.5t-24.5 59t-32.5 50t-33.5 40.5q-26 28 -61.5 39.5t-77.5 11.5q-35 0 -69 -6q0 2 1 3v-1q6 19 6 34q0 17 -9 29.5t-30 26.5zM311 522q32 14 63 19.5t54 5.5q19 0 27 -1t10.5 -3t1.5 -5 t-1 -6q0 -18 -14 -43t-42 -51.5t-68.5 -53t-93.5 -47.5q16 51 31.5 96.5t31.5 88.5z" />
<glyph unicode="&#xff;" horiz-adv-x="654" d="M709 759q8 15 12.5 27.5t4.5 25.5q0 12 -12.5 33t-32.5 40.5t-45 34t-49 14.5q-15 0 -28 -7.5t-21 -27.5l1 1q0 -1 -1 -1v0v-1v1q-45 -75 -91 -149t-95 -148q-15 72 -30 136.5t-27 113.5q-5 15 -10 26.5t-12.5 19.5t-18.5 13.5t-28 9.5l1 -1q-15 4 -27.5 5t-24.5 1 q-55 0 -80.5 -9t-25.5 -38q0 -13 3 -25q9 -51 20 -113t24.5 -128t27.5 -133t29 -128q-11 -42 -20.5 -81t-16.5 -74l1 1q-8 -34 -16.5 -64.5t-8.5 -56.5q0 -24 12.5 -40.5t32.5 -28.5t44 -20.5t48 -16.5q18 -6 30 -6q20 0 29 10t16 30q15 66 33 132t41 136q46 67 94 138 t91 136t76 120.5t50 91.5zM453 1073q-1 -5 -1 -9v-10q0 -41 26 -65t64 -24h4q27 0 45.5 11t30.5 25.5t18.5 29t9.5 22.5q0 4 0.5 7t1.5 7v8q0 14 -6 30t-18 29t-30.5 21.5t-44.5 8.5q-20 0 -37.5 -7.5t-30.5 -20t-21 -29t-11 -34.5zM278 966h4q33 0 53.5 14t32.5 32 t16.5 34.5t4.5 21.5v8q0 14 -6 29.5t-18 29t-30.5 22t-44.5 8.5q-40 0 -67.5 -27.5t-33.5 -64.5v-17q0 -41 25.5 -65.5t63.5 -24.5z" />
<glyph unicode="&#x152;" horiz-adv-x="992" d="M447 914q-5 1 -12.5 1.5t-15.5 0.5q-35 0 -76.5 -12.5t-70.5 -35.5q-65 -50 -115.5 -119t-85.5 -147t-53.5 -159.5t-18.5 -155.5q0 -145 69 -218t204 -86h-1q10 -2 21 -2h21q76 0 137 38l9 -6l-1 1q7 -4 13.5 -8.5t14 -8.5t17 -6.5t23.5 -2.5q11 0 23 1.5t28 6.5l-1 -1 q63 14 131.5 28t135.5 29q29 5 40.5 15t11.5 33q0 4 -0.5 8t-1.5 9l-7 25q-5 17 -10.5 32.5t-13.5 32.5v-1q-10 24 -26.5 34t-43.5 10q-47 0 -88.5 -5t-79.5 -13q6 21 12.5 42t14.5 44q57 11 115.5 21.5t115.5 21.5q29 6 41 14.5t12 31.5q0 9 -4 24l1 -1q-4 22 -9.5 42.5 t-18.5 43.5l1 -3q-10 26 -27.5 34.5t-48.5 8.5h-7q-23 0 -45 -1.5t-43 -3.5q14 38 26.5 75t26.5 72q63 9 119.5 16t108.5 12q34 4 46 15t12 37q0 47 -26 98l1 -4q-16 54 -77 54h-5q-98 -5 -196.5 -21.5t-178.5 -36.5q-31 17 -68 29t-75 17h-1zM458 721q8 -2 11 -21t3 -48 t-4.5 -66t-13.5 -76l1 1l-24 -92q0 -2 -0.5 -3t-0.5 -2v-2q-17 -53 -37.5 -99t-42 -80t-42 -53t-36.5 -19q-17 0 -24 23.5t-7 58.5q0 48 12 107t32 112q16 43 39 89t47 84t46.5 62t38.5 24v0q1 0 -1 1z" />
<glyph unicode="&#x153;" horiz-adv-x="992" d="M447 914q-5 1 -12.5 1.5t-15.5 0.5q-35 0 -76.5 -12.5t-70.5 -35.5q-65 -50 -115.5 -119t-85.5 -147t-53.5 -159.5t-18.5 -155.5q0 -145 69 -218t204 -86h-1q10 -2 21 -2h21q76 0 137 38l9 -6l-1 1q7 -4 13.5 -8.5t14 -8.5t17 -6.5t23.5 -2.5q11 0 23 1.5t28 6.5l-1 -1 q63 14 131.5 28t135.5 29q29 5 40.5 15t11.5 33q0 4 -0.5 8t-1.5 9l-7 25q-5 17 -10.5 32.5t-13.5 32.5v-1q-10 24 -26.5 34t-43.5 10q-47 0 -88.5 -5t-79.5 -13q6 21 12.5 42t14.5 44q57 11 115.5 21.5t115.5 21.5q29 6 41 14.5t12 31.5q0 9 -4 24l1 -1q-4 22 -9.5 42.5 t-18.5 43.5l1 -3q-10 26 -27.5 34.5t-48.5 8.5h-7q-23 0 -45 -1.5t-43 -3.5q14 38 26.5 75t26.5 72q63 9 119.5 16t108.5 12q34 4 46 15t12 37q0 47 -26 98l1 -4q-16 54 -77 54h-5q-98 -5 -196.5 -21.5t-178.5 -36.5q-31 17 -68 29t-75 17h-1zM458 721q8 -2 11 -21t3 -48 t-4.5 -66t-13.5 -76l1 1l-24 -92q0 -2 -0.5 -3t-0.5 -2v-2q-17 -53 -37.5 -99t-42 -80t-42 -53t-36.5 -19q-17 0 -24 23.5t-7 58.5q0 48 12 107t32 112q16 43 39 89t47 84t46.5 62t38.5 24v0q1 0 -1 1z" />
<glyph unicode="&#x178;" horiz-adv-x="654" d="M709 759q8 15 12.5 27.5t4.5 25.5q0 12 -12.5 33t-32.5 40.5t-45 34t-49 14.5q-15 0 -28 -7.5t-21 -27.5l1 1q0 -1 -1 -1v0v-1v1q-45 -75 -91 -149t-95 -148q-15 72 -30 136.5t-27 113.5q-5 15 -10 26.5t-12.5 19.5t-18.5 13.5t-28 9.5l1 -1q-15 4 -27.5 5t-24.5 1 q-55 0 -80.5 -9t-25.5 -38q0 -13 3 -25q9 -51 20 -113t24.5 -128t27.5 -133t29 -128q-11 -42 -20.5 -81t-16.5 -74l1 1q-8 -34 -16.5 -64.5t-8.5 -56.5q0 -24 12.5 -40.5t32.5 -28.5t44 -20.5t48 -16.5q18 -6 30 -6q20 0 29 10t16 30q15 66 33 132t41 136q46 67 94 138 t91 136t76 120.5t50 91.5zM453 1073q-1 -5 -1 -9v-10q0 -41 26 -65t64 -24h4q27 0 45.5 11t30.5 25.5t18.5 29t9.5 22.5q0 4 0.5 7t1.5 7v8q0 14 -6 30t-18 29t-30.5 21.5t-44.5 8.5q-20 0 -37.5 -7.5t-30.5 -20t-21 -29t-11 -34.5zM278 966h4q33 0 53.5 14t32.5 32 t16.5 34.5t4.5 21.5v8q0 14 -6 29.5t-18 29t-30.5 22t-44.5 8.5q-40 0 -67.5 -27.5t-33.5 -64.5v-17q0 -41 25.5 -65.5t63.5 -24.5z" />
<glyph unicode="&#x2c6;" horiz-adv-x="642" d="M568 896h4q36 0 36 30v6t-2 8l1 -2q-4 21 -9 47.5t-10.5 55t-9.5 57t-7 54.5q-1 27 -15 45t-32 29v-1q-10 8 -21.5 15t-22.5 7q-18 0 -36 -18v1q-25 -21 -50.5 -47t-49 -51.5t-43 -49t-32.5 -40.5q-6 -7 -8.5 -15.5t-2.5 -16.5q0 -9 4.5 -18.5t10.5 -19t13 -17.5t12 -13 l2 -2q7 -7 11.5 -10t15.5 -3q16 0 26.5 12.5t21.5 25.5v-1q17 19 35.5 38.5t38.5 40.5q4 -25 8 -48t10 -42t17 -32.5t31 -17.5h-1q15 -5 28.5 -6t25.5 -1z" />
<glyph unicode="&#x2dc;" horiz-adv-x="739" d="M604 817q26 0 54.5 9.5t60.5 29.5l-1 -1q36 20 53.5 38.5t19.5 35.5v3q0 10 -6.5 18.5t-17 14t-23 8.5t-24.5 3q-15 0 -28.5 -5t-27.5 -14l-10 -6q-5 -4 -11 -8.5t-11 -8.5t-8 -6.5l-3 -2.5q-26 2 -51 14t-51 19h2q-23 8 -43.5 11t-43.5 3q-18 0 -46.5 -8t-56.5 -19.5 t-52 -24.5t-33 -24q-15 -18 -15 -35v-2q0 -20 16.5 -30t46.5 -10q19 0 35.5 6.5t30.5 14t25.5 14t21.5 6.5q30 0 50 -6.5t40 -15t44.5 -15t62.5 -6.5z" />
<glyph unicode="&#x2000;" horiz-adv-x="676" />
<glyph unicode="&#x2001;" horiz-adv-x="1353" />
<glyph unicode="&#x2002;" horiz-adv-x="676" />
<glyph unicode="&#x2003;" horiz-adv-x="1353" />
<glyph unicode="&#x2004;" horiz-adv-x="451" />
<glyph unicode="&#x2005;" horiz-adv-x="338" />
<glyph unicode="&#x2006;" horiz-adv-x="225" />
<glyph unicode="&#x2007;" horiz-adv-x="225" />
<glyph unicode="&#x2008;" horiz-adv-x="169" />
<glyph unicode="&#x2009;" horiz-adv-x="270" />
<glyph unicode="&#x200a;" horiz-adv-x="75" />
<glyph unicode="&#x2010;" horiz-adv-x="587" d="M-20 538q-44 -8 -44 -44q0 -20 13.5 -47t33.5 -51.5t42.5 -41.5t40.5 -17q10 0 22 4q72 17 155 26t164 14q26 1 38 8.5t12 27.5q0 -1 -2.5 10t-8 28t-14.5 37t-22.5 37.5t-32 29.5t-43.5 12q-45 0 -94.5 -3t-97 -7.5t-90 -10.5t-72.5 -12z" />
<glyph unicode="&#x2011;" horiz-adv-x="587" d="M-20 538q-44 -8 -44 -44q0 -20 13.5 -47t33.5 -51.5t42.5 -41.5t40.5 -17q10 0 22 4q72 17 155 26t164 14q26 1 38 8.5t12 27.5q0 -1 -2.5 10t-8 28t-14.5 37t-22.5 37.5t-32 29.5t-43.5 12q-45 0 -94.5 -3t-97 -7.5t-90 -10.5t-72.5 -12z" />
<glyph unicode="&#x2012;" horiz-adv-x="587" d="M-20 538q-44 -8 -44 -44q0 -20 13.5 -47t33.5 -51.5t42.5 -41.5t40.5 -17q10 0 22 4q72 17 155 26t164 14q26 1 38 8.5t12 27.5q0 -1 -2.5 10t-8 28t-14.5 37t-22.5 37.5t-32 29.5t-43.5 12q-45 0 -94.5 -3t-97 -7.5t-90 -10.5t-72.5 -12z" />
<glyph unicode="&#x2013;" horiz-adv-x="844" d="M86 441q-72 -6 -72 -44q0 -13 13 -33.5t35 -40.5t49.5 -34.5t57.5 -14.5q9 0 15.5 0.5t14.5 0.5q117 15 248 22.5t255 11.5q38 1 56.5 8.5t18.5 27.5q0 10 -4 17q-2 9 -11.5 30t-23.5 39l1 -1q-28 38 -104 38q-69 0 -145.5 -2.5t-150.5 -6t-139.5 -8.5t-113.5 -10z" />
<glyph unicode="&#x2014;" horiz-adv-x="1310" d="M87 441q-72 -6 -72 -44q0 -15 14 -36.5t36.5 -41t50.5 -33t57 -13.5q8 0 15 0.5t15 1.5q30 4 83 7t121 5.5t147 4.5t160.5 4t161.5 3.5t149.5 2.5t125 2t88.5 2q38 1 58 9t20 28q0 11 -4 16l-6 15q-5 13 -12 26.5t-19 27.5l1 -1q-29 39 -106 39q-35 0 -94.5 -0.5 t-135 -1.5t-161 -2.5t-172.5 -3t-170 -3.5t-153 -4.5t-122 -5t-76 -4.5z" />
<glyph unicode="&#x2018;" horiz-adv-x="358" d="M181 668q19 -43 54 -57l-1 1q16 -8 38.5 -13t39.5 -5q39 0 39 37q0 8 -4 20q-7 27 -16 67t-18.5 83t-18 84.5t-14.5 72.5q-9 44 -47 44q-12 0 -24 -4l-19 -9l1 1q-47 -20 -61.5 -40t-14.5 -43q0 -22 6 -55t16 -67.5t21.5 -66.5t22.5 -51v1z" />
<glyph unicode="&#x2019;" horiz-adv-x="319" d="M291 668q10 19 22 50t22.5 65t18 66t7.5 53q0 16 -11 34.5t-29 34.5t-40.5 26.5t-44.5 10.5q-16 0 -26 -9.5t-15 -32.5l1 1q-7 -31 -16.5 -72t-20 -83t-21 -80.5t-18.5 -64.5q-2 -7 -3 -11.5t-1 -9.5q0 -38 45 -38h2q24 0 43 2.5t34 9t27 18t23 30.5h1z" />
<glyph unicode="&#x201a;" horiz-adv-x="319" d="M228 -99q9 19 21 50t22.5 64.5t18 65.5t7.5 53q0 31 -27.5 56.5t-65.5 41.5v-1q-17 8 -31 8q-17 0 -26.5 -9.5t-14.5 -32.5v1q-7 -31 -16.5 -71.5t-20 -82.5t-21 -80.5t-17.5 -64.5q-4 -9 -4 -21q0 -38 42 -38h6q24 0 42.5 2t33.5 8.5t27 18t23 30.5z" />
<glyph unicode="&#x201c;" horiz-adv-x="575" d="M399 669q13 -22 25.5 -35t32.5 -21l-1 1q18 -8 41.5 -13t43.5 -5q42 0 42 36q0 5 -1.5 10t-2.5 11q-8 27 -18 66.5t-20 82.5t-19.5 85t-15.5 74q-9 44 -51 44q-22 0 -45 -8.5t-42 -22t-31 -30t-12 -32.5q0 -8 1 -14t3 -14v2q2 -24 9 -54.5t17 -61t21.5 -58t22.5 -44.5v1z M186 677q27 -38 61 -48t77 -11h6q42 0 42 35q0 16 -14 50t-28 72q-20 53 -41.5 108t-32.5 95q-14 41 -48 41q-17 0 -38 -9t-40.5 -23.5t-32.5 -33.5t-13 -38q0 -21 10.5 -53t25.5 -66.5t33 -66.5t33 -52z" />
<glyph unicode="&#x201d;" horiz-adv-x="569" d="M313 669q11 19 24 49.5t24.5 64.5t19.5 66t8 54q0 16 -8.5 31t-22.5 27t-32.5 22t-37.5 18v-1q-11 5 -18.5 7t-14.5 2q-17 0 -28.5 -9.5t-16.5 -32.5l1 1q-7 -31 -17.5 -72t-22 -83t-22.5 -81t-19 -65q-5 -13 -5 -21q0 -38 48 -38h3q28 0 49 3t36.5 9.5t27.5 18.5t23 30 h1zM523 653q16 19 35 51.5t35 68t27 67.5t11 50v2q-1 23 -24 46l1 -1q-12 13 -29.5 25t-34.5 22h1q-20 12 -38 12q-34 0 -46 -37q-10 -30 -25.5 -70.5t-32.5 -81t-33 -76.5t-27 -59v1q-7 -14 -7 -28q0 -41 82 -41q9 0 18.5 0.5t19.5 3.5h-1q23 4 38 14.5t31 31.5z" />
<glyph unicode="&#x201e;" horiz-adv-x="569" d="M246 -95q10 19 23.5 50.5t24.5 65.5t19 65.5t8 52.5q0 16 -9 30.5t-23.5 27.5t-32.5 23t-36 17v-1q-19 8 -34 8q-17 0 -28 -9.5t-16 -32.5l1 1q-8 -31 -18.5 -71.5t-22 -82.5t-22.5 -80.5t-19 -64.5q-4 -11 -4 -21q0 -40 49 -40h2q25 0 45 2.5t36 9t29.5 18.5t26.5 31z M455 -112q16 19 35 51.5t35 68t27 68t11 50.5v1q0 13 -6.5 24t-17.5 22h1q-7 9 -20.5 19t-28.5 19t-29 14.5t-23 5.5q-32 0 -47 -37q-9 -29 -24.5 -68t-32.5 -79t-33.5 -77.5l-27.5 -62.5q-7 -13 -7 -26q0 -23 21 -32.5t61 -9.5q16 0 39 5l-1 -1q22 4 37 15t32 31z" />
<glyph unicode="&#x2022;" horiz-adv-x="472" d="M69 429q-3 -17 -3 -34q0 -40 14 -72.5t38 -55.5t56.5 -35.5t70.5 -12.5h11q42 0 76.5 16t61 38.5t43.5 47.5t23 44q5 14 8 28t5 31v14q0 25 -12 55t-36.5 56t-62 43t-88.5 17q-41 0 -76 -15t-61.5 -40t-44 -57.5t-23.5 -67.5z" />
<glyph unicode="&#x2026;" horiz-adv-x="1159" d="M384 94q-1 -4 -1 -9v-10q0 -23 9.5 -41.5t25.5 -31.5t37 -20t45 -7h7q42 0 69 16t42 35.5t20.5 37t6.5 20.5q0 2 0.5 4t0.5 4v6q0 15 -7 32t-22.5 31.5t-39.5 24.5t-58 10q-27 0 -50.5 -8.5t-41 -22.5t-29 -32.5t-14.5 -38.5zM793 94q-1 -4 -1 -9v-10q0 -23 9.5 -41.5 t25.5 -31.5t37 -20t45 -7h7q42 0 68.5 15.5t41.5 35t21 37t7 21.5q0 2 0.5 4t0.5 4v6q0 15 -7 32t-22.5 31.5t-39.5 24.5t-58 10q-27 0 -50.5 -8.5t-41 -22.5t-29 -32.5t-14.5 -38.5zM-21 94q-1 -5 -1.5 -10t-0.5 -11q0 -45 32.5 -71.5t81.5 -26.5h7q42 0 69 16t42 35.5 t20.5 37t6.5 20.5q0 2 0.5 4t0.5 4v6q0 15 -7 32t-22.5 31.5t-39.5 24.5t-58 10q-27 0 -49.5 -8.5t-39.5 -22.5t-28 -32.5t-14 -38.5z" />
<glyph unicode="&#x202f;" horiz-adv-x="270" />
<glyph unicode="&#x2039;" horiz-adv-x="513" d="M448 497q38 12 38 38q0 16 -13 36t-31.5 37t-38 28.5t-31.5 11.5q-14 0 -29.5 -4t-36.5 -12h2q-25 -7 -55 -18.5t-59.5 -25t-57 -27t-46.5 -24.5l3 1q-17 -6 -28 -17t-18 -25t-11 -29.5t-7 -30.5l-5 -25v1q-4 -8 -4.5 -17.5t-0.5 -19.5q2 -10 8.5 -19t17.5 -14 q72 -32 143 -63t134 -67h-1q10 -6 18 -9.5t17 -3.5q13 0 23 9t17 23.5t12 32.5t9 37l-1 -1q2 6 2 9v6q0 19 -11 33.5t-30.5 27.5t-45.5 24.5t-55 25.5q45 20 87 37.5t86 33.5h-1z" />
<glyph unicode="&#x203a;" horiz-adv-x="549" d="M518 449q5 14 5 27q0 19 -9.5 28t-26.5 19q-39 20 -81.5 40t-84 38t-79.5 32.5t-67 24.5l1 -1q-8 3 -14.5 4t-11.5 1q-15 0 -25 -8.5t-16 -22.5t-8.5 -31t-2.5 -34q0 -41 12.5 -58.5t41.5 -26.5h-1q44 -16 88 -35q-38 -12 -77 -23.5t-71 -24.5t-52 -28t-20 -32 q0 -10 8.5 -24t20 -28t24.5 -27t22 -20q22 -18 43 -18q10 0 17.5 2.5t16.5 7.5h-1q57 25 117.5 45.5t137.5 43.5q22 7 36 18.5t24 28t17.5 37t15.5 45.5z" />
<glyph unicode="&#x205f;" horiz-adv-x="338" />
<glyph unicode="&#x20ac;" horiz-adv-x="781" d="M122 414q-20 -3 -44 -5t-45 -8t-35.5 -17.5t-14.5 -32.5q0 -15 12.5 -44t31.5 -55h-1q20 -34 59 -34h8q4 0 9 1q5 -58 24 -103l-1 2q14 -41 45 -69t63 -41q29 -11 64.5 -23t80.5 -16h-1q5 -1 11 -1h14q49 0 90.5 13.5t75.5 38.5t61.5 59.5t49.5 76.5q9 17 14.5 32.5 t5.5 29.5q0 20 -11.5 34.5t-39.5 22.5h1q-16 5 -30.5 7.5t-28.5 2.5q-16 0 -29 -3q4 10 4 18q0 10 -4 21v-1q-5 18 -12.5 38.5t-18.5 37t-28 27.5t-42 11h-27q-12 0 -24 -0.5t-25 -0.5q0 6 5 13q0 -2 -0.5 -2.5l-0.5 -0.5h1l2 5t4.5 11t4 11l1.5 5h39q29 0 59 -1.5t60 -1.5 q44 0 44 40q0 14 -3.5 25.5t-8.5 24.5q7 -13 19.5 -26t30 -23.5t39.5 -17t49 -6.5q24 0 33 9t15 24l2 4t2 3q7 18 12.5 41.5t9.5 48.5t6.5 50.5t2.5 47.5q0 40 -11.5 74t-47.5 62q-18 13 -41.5 25.5t-50 22t-54 16.5t-53.5 10h1q-4 1 -10 1h-11q-48 0 -94 -23.5t-87.5 -62 t-77.5 -88t-65 -102.5q-30 -2 -62.5 -2.5t-60 -5.5t-45.5 -17.5t-18 -37.5q0 -20 11 -46.5t22 -48.5q13 -22 27.5 -30t37.5 -8q7 0 12 1q-3 -10 -6 -21zM474 233q-69 -75 -101 -75h-4q-12 5 -17.5 24t-5.5 48v21q41 3 80.5 5.5t81.5 4.5q-18 -12 -34 -28zM578 599v-1 q-17 43 -73 49l-14 1q23 36 44 59.5t35 25.5q4 -4 5.5 -13t1.5 -20q0 -8 -0.5 -16t-1.5 -18v1q-1 -5 -1 -11v-10v-20q1 -8 2 -15.5t3 -14.5q0 1 -0.5 1.5t-0.5 1.5z" />
<glyph unicode="&#x2122;" horiz-adv-x="966" d="M460 775q15 2 22 4q-14 -45 -30.5 -99.5t-31 -107.5t-24 -98t-9.5 -70q0 -16 7 -26t22 -18h-1q17 -12 37.5 -19t37.5 -7t24 8t14 24q8 39 21 89t28 104q2 -31 5.5 -58.5t7.5 -51.5v1q1 -21 7 -33t16 -19t24 -11.5t33 -9.5q4 -1 8 -1h9q17 0 23 6.5t15 23.5q12 24 31 59.5 t42 74.5q-13 -48 -20.5 -83.5t-7.5 -52.5q0 -15 7 -26t24 -19l-3 1q6 -4 15.5 -8.5t20 -8t21 -6t17.5 -2.5q18 0 25.5 8t12.5 22q5 23 14.5 56.5t20.5 72.5t23.5 81t24.5 82t23 75t19 61v-1q6 13 6 26q0 18 -15.5 30.5t-36 20.5t-41 13t-31.5 10q-11 4 -19.5 5t-15.5 1 q-15 0 -25.5 -5t-20 -15t-19 -25.5t-21.5 -36.5v1q-20 -30 -41 -65t-41 -70q-2 45 -3 66t-1 31q0 11 1 15q-2 14 -3.5 25t-6 19.5t-14 15.5t-25.5 13l1 -1q-21 8 -42 14t-49 10h1q-4 1 -8 1h-9q-14 0 -22.5 -3.5t-14.5 -11.5t-11.5 -21t-12.5 -32q-3 12 -8.5 26t-14.5 25.5 t-22.5 19t-33.5 7.5q-32 0 -72 -3t-82 -7.5t-82 -9.5t-72 -10q-14 -5 -23.5 -10.5t-9.5 -20.5q0 -5 2.5 -11.5t3.5 -11.5q4 -13 9.5 -27t14 -25.5t20 -19t26.5 -7.5q13 0 21 3t22 3q-12 -38 -25 -81.5t-24 -86t-20 -81t-14 -66.5l1 3q-2 -6 -2.5 -11.5t-0.5 -10.5 q0 -22 20.5 -42.5t52.5 -20.5q11 -4 19 -6t16 -2q15 0 24 7t12 24l-1 -2q12 46 27 96.5t31 102t32.5 102.5t31.5 98q23 2 44.5 4t41.5 4z" />
<glyph unicode="&#xe000;" horiz-adv-x="925" d="M0 925h925v-925h-925v925z" />
<glyph unicode="&#xfb01;" horiz-adv-x="929" d="M-9 23q26 -12 60 -25.5t62 -13.5q22 0 37 10t20 33l-1 -2q20 64 41 138t46 152q54 12 108 22.5t108 19.5q30 5 43 14.5t13 32.5q0 10 -4 22l1 -1q-4 17 -9.5 39t-16 41.5t-28.5 33t-46 13.5h-9q-21 -1 -42.5 -2t-42.5 -3q14 42 25 79.5t23 66.5q24 3 58.5 8t73.5 11 t80 12.5t78 12.5q-22 -75 -45 -162t-43.5 -170t-36.5 -154.5t-24 -117.5q-3 -17 -3 -31q0 -24 12.5 -40t33 -28t45 -20t48.5 -15h-1q10 -3 17.5 -4t12.5 -1q21 0 29.5 10t15.5 32q14 50 31.5 112t36.5 130t40 138t41 135.5t39 123t35 100.5l-1 -1q5 10 6 17.5t1 15.5 q0 27 -17.5 53.5t-46.5 47.5t-67 33.5t-78 12.5h-13q-6 0 -12 -1q-35 -4 -84.5 -10t-106 -13t-116 -15.5t-114.5 -17t-101.5 -17t-76.5 -16.5q-3 -49 -15.5 -115.5t-29.5 -140t-37 -148.5t-38 -141.5t-32 -119t-19 -80.5q-3 -17 -3 -33q0 -21 8 -35t30 -27z" />
<glyph unicode="&#xfb02;" horiz-adv-x="1088" d="M979 48q31 8 42.5 16t11.5 28q0 23 -9 53.5t-26 59.5l1 -1q-11 23 -27 33t-41 10h-10q-4 0 -9 -1h1q-40 -3 -74.5 -7t-70.5 -10q21 71 45 145.5t48.5 146.5t48 137.5t44.5 119.5q8 19 8 41q0 31 -20 53.5t-49.5 37.5t-64.5 22t-65 7h-12q-36 -2 -88 -5.5t-111.5 -9.5 t-122.5 -13t-121 -15t-105.5 -16t-76.5 -16q-3 -49 -15.5 -116t-30 -140.5t-37.5 -148.5t-38 -141.5t-31.5 -118.5t-18.5 -80q-3 -17 -3 -33q0 -21 8.5 -35.5t33.5 -29.5q24 -11 57 -24t63 -13q22 0 37 10t20 33l-1 -2q18 63 39.5 137.5t47.5 152.5q54 12 108 22.5t108 19.5 q30 5 43 14.5t13 32.5q0 8 -3 22l1 -1q-4 18 -10 40t-16.5 41.5t-28.5 32.5t-46 13h-9q-44 -2 -85 -6q11 38 23.5 77.5t24.5 68.5q22 3 54 6.5t69.5 7.5t77.5 8.5t78 8.5q-23 -71 -46.5 -148t-44 -151t-37 -139.5t-25.5 -113.5q-3 -15 -3 -30q0 -23 8 -40t23 -32l14 -13 q13 -13 24.5 -25.5t24 -23t28 -17t36.5 -6.5q11 0 23.5 2t29.5 7l-2 -1q63 15 132 28.5t135 27.5z" />
</font>
</defs>
</svg>
