<svg xmlns="http://www.w3.org/2000/svg" viewBox="0 0 512 512" xmlns:svg="http://www.w3.org/2000/svg" xmlns:xlink="http://www.w3.org/1999/xlink" width="100%" height="100%"><rect id="svgEditorBackground" x="0" y="0" width="512" height="512" style="fill: none; stroke: none;"/><path d="M0,0h512v512h-512Z" fill="white" style="fill-opacity: 0;"/><path d="M179.593994140625,20.687999725341797v41.40599822998047h143.25v-41.40699768066406h-143.25ZM256.0299987792969,82c-112.99000549316406,0,-204.77999877929688,91.72700500488281,-204.77999877929688,204.656005859375c0,112.92999267578125,91.78799438476562,204.656005859375,204.77999877929688,204.656005859375c112.99398803710938,0,204.75,-91.72799682617188,204.75,-204.656005859375c0,-112.92601013183594,-91.7550048828125,-204.656005859375,-204.75,-204.656005859375ZM256.0299987792969,117.625c93.42001342773438,0,169.12600708007812,75.66500854492188,169.12600708007812,169.02999877929688c0,93.36801147460938,-75.70599365234375,169.56399536132812,-169.125,169.56399536132812c-93.4169921875,0,-169.15499877929688,-76.19699096679688,-169.15499877929688,-169.56399536132812c0,-93.36599731445312,75.73599243164062,-169.02999877929688,169.156005859375,-169.02999877929688ZM332.2200012207031,137.90499877929688l-72.47000122070312,107.5c10.670013427734375,1.0359954833984375,20.5159912109375,6.0449981689453125,27.625,13.813995361328125l44.843994140625,-121.31399536132812ZM246.68701171875,138.968994140625v45.30999755859375c3.076995849609375,-0.274993896484375,6.1959991455078125,-0.404998779296875,9.343994140625,-0.404998779296875c3.154998779296875,0,6.26300048828125,0.1300048828125,9.345001220703125,0.406005859375v-45.30999755859375h-18.688003540039062ZM158.15701293945312,175.62399291992188l-13.220001220703125,13.220001220703125l32.06298828125,32.029998779296875c3.99200439453125,-4.78399658203125,8.4320068359375,-9.197998046875,13.220001220703125,-13.188003540039062l-32.063995361328125,-32.06199645996094ZM353.9070129394531,175.62399291992188l-32.06298828125,32.06300354003906c4.7860107421875,3.9900054931640625,9.196014404296875,8.402999877929688,13.18701171875,13.186996459960938l32.063995361328125,-32.029998779296875l-13.18798828125,-13.220001220703125ZM255.56301879882812,256.843994140625c-2.0800018310546875,0.010009765625,-4.19500732421875,0.243011474609375,-6.3130035400390625,0.686004638671875c-16.947998046875,3.54400634765625,-27.699996948242188,20.0050048828125,-24.156005859375,36.94000244140625c3.54400634765625,16.9320068359375,20.020004272460938,27.697998046875,36.97001647949219,24.154998779296875c16.94598388671875,-3.542999267578125,27.70001220703125,-20.003997802734375,24.154998779296875,-36.93798828125c-3.10198974609375,-14.816009521484375,-16.10400390625,-24.92498779296875,-30.658004760742188,-24.842987060546875ZM108.27999877929688,277.30999755859375v18.69000244140625h45.313995361328125c-0.2779998779296875,-3.079986572265625,-0.406005859375,-6.191986083984375,-0.406005859375,-9.343994140625c0,-3.14599609375,0.1300048828125,-6.269989013671875,0.406005859375,-9.343994140625h-45.313995361328125ZM358.43701171875,277.30999755859375c0.277008056640625,3.07501220703125,0.43798828125,6.196990966796875,0.43798828125,9.343994140625c0,3.15301513671875,-0.160003662109375,6.264007568359375,-0.43798828125,9.343994140625h45.343994140625v-18.68798828125h-45.34100341796875ZM298.375,284.0299987792969c0.993011474609375,10.522003173828125,-1.967987060546875,20.74200439453125,-7.81298828125,28.93701171875l124,19.092010498046875l-116.18701171875,-48.029998779296875ZM176.97000122070312,352.4049987792969l-32.03199768066406,32.029998779296875l13.218002319335938,13.220001220703125l32.06300354003906,-32.029998779296875c-4.798004150390625,-4,-9.253005981445312,-8.42401123046875,-13.25,-13.220001220703125ZM335.06298828125,352.4049987792969c-4,4.795989990234375,-8.423004150390625,9.220001220703125,-13.220001220703125,13.220001220703125l32.06298828125,32.029998779296875l13.18798828125,-13.220001220703125l-32.029998779296875,-32.029998779296875ZM246.68800354003906,389v45.31298828125h18.686996459960938v-45.31298828125c-3.082000732421875,0.27801513671875,-6.19000244140625,0.43798828125,-9.343994140625,0.43798828125c-3.147003173828125,0,-6.2660064697265625,-0.160003662109375,-9.341995239257812,-0.43798828125Z" fill="black" style="fill-opacity: 1;"/></svg>