<svg xmlns="http://www.w3.org/2000/svg" viewBox="0 0 512 512" xmlns:svg="http://www.w3.org/2000/svg" xmlns:xlink="http://www.w3.org/1999/xlink" width="100%" height="100%"><rect id="svgEditorBackground" x="0" y="0" width="512" height="512" style="fill: none; stroke: none;"/><path d="M0,0h512v512h-512Z" fill="white" style="fill-opacity: 0;"/><path d="M367.843994140625,23.562999725341797c-1.25,-0.006999969482421875,-2.49700927734375,0,-3.75,0.030000686645507812c-39.5579833984375,1.0139999389648438,-80.21600341796875,21.152002334594727,-108.656005859375,61.93799591064453c-35.38999938964844,-50.060001373291016,-91.9639892578125,-68.93499755859375,-140.93800354003906,-58.904998779296875c-52.89798355102539,10.833999633789062,-96.92598724365234,56.50700378417969,-94.6559829711914,127.56200408935547c2.375,74.36599731445312,56.071998596191406,131.6219940185547,109.84400177001953,179.96800231933594c26.884994506835938,24.173004150390625,54.03300476074219,46.279998779296875,75.46800231933594,67c21.43499755859375,20.720001220703125,36.75799560546875,40.126007080078125,41.31300354003906,57.125l9.029998779296875,33.69000244140625l9.000015258789062,-33.69000244140625c3.988006591796875,-14.8800048828125,19.579986572265625,-34.1199951171875,41.593994140625,-55.029998779296875c22.014007568359375,-20.910003662109375,49.996002197265625,-43.803009033203125,77.47000122070312,-68.77999877929688c54.944000244140625,-49.959991455078125,109.16500854492188,-108.87799072265625,106.90499877929688,-180.87600708007812c-2.19000244140625,-69.69599914550781,-45.20001220703125,-115.57599639892578,-96.75,-127.125c-8.459991455078125,-1.8959999084472656,-17.126007080078125,-2.864999771118164,-25.876007080078125,-2.9069995880126953ZM139.87399291992188,42.6879997253418c39.62200927734375,-0.2739982604980469,81.74800109863281,20.09000015258789,107.53199768066406,64.75l7.75,13.436996459960938v118.875c-1.4839935302734375,-0.17999267578125,-2.9680023193359375,-0.279998779296875,-4.5,-0.279998779296875c-20.714004516601562,0,-37.529998779296875,16.78399658203125,-37.529998779296875,37.5c0,20.714996337890625,16.815994262695312,37.5,37.529998779296875,37.5c1.5330047607421875,0,3.0160064697265625,-0.10400390625,4.5,-0.282989501953125v117.656982421875c-8.779998779296875,-15.032012939453125,-21.796005249023438,-29.428009033203125,-37,-44.125c-1.0500030517578125,-1.0150146484375,-2.11700439453125,-2.0469970703125,-3.1869964599609375,-3.063995361328125c13.6820068359375,-2.089996337890625,24.186004638671875,-13.8900146484375,24.186004638671875,-28.156005859375c0,-15.743988037109375,-12.787994384765625,-28.5,-28.529998779296875,-28.5c-15.304000854492188,0,-27.78399658203125,12.052001953125,-28.470001220703125,27.18798828125c-13.031997680664062,-11.32000732421875,-26.600006103515625,-22.920013427734375,-39.970001220703125,-34.93798828125c-52.8699951171875,-47.537994384765625,-101.55999755859375,-101.07499694824219,-103.65499877929688,-166.656005859375c-2.0219993591308594,-63.34300231933594,34.62200164794922,-99.41999816894531,79.72000122070312,-108.65599822998047c7.0469970703125,-1.444000244140625,14.287994384765625,-2.200000762939453,21.625,-2.25ZM180.62399291992188,84.43800354003906c-20.712997436523438,0,-37.5,16.785003662109375,-37.5,37.5c0,4.615997314453125,0.850006103515625,9.039993286132812,2.376007080078125,13.123992919921875c-0.1360015869140625,-0.0019989013671875,-0.2700042724609375,0,-0.406005859375,0c-12.152999877929688,0,-22,9.848007202148438,-22,22c0,12.154006958007812,9.847000122070312,22,22,22c12.152008056640625,0,22,-9.845993041992188,22,-22v-0.125c4.1970062255859375,1.623992919921875,8.759994506835938,2.5,13.529998779296875,2.5c20.714996337890625,0,37.5,-16.783004760742188,37.5,-37.5c0,-20.71600341796875,-16.785003662109375,-37.5,-37.5,-37.5ZM206.93798828125,168.125c-10.833999633789062,0.5500030517578125,-19.438003540039062,9.529998779296875,-19.438003540039062,20.5c0,11.324996948242188,9.175994873046875,20.5,20.5,20.5s20.5,-9.175003051757812,20.5,-20.5s-9.175994873046875,-20.5,-20.5,-20.5c-0.35400390625,0,-0.7129974365234375,-0.01800537109375,-1.0630035400390625,0ZM173.093994140625,220.56300354003906c-14.36199951171875,0,-26,11.636001586914062,-26,26c0,14.362991333007812,11.63800048828125,26.030014038085938,26,26.030014038085938s26.029998779296875,-11.670013427734375,26.029998779296875,-26.029998779296875c0,-14.363998413085938,-11.667999267578125,-26,-26.029998779296875,-26Z" fill="black"/></svg>