<svg xmlns="http://www.w3.org/2000/svg" viewBox="0 0 512 512" xmlns:svg="http://www.w3.org/2000/svg" xmlns:xlink="http://www.w3.org/1999/xlink" width="100%" height="100%"><rect id="svgEditorBackground" x="0" y="0" width="512" height="512" style="fill: none; stroke: none;"/><path d="M0,0h512v512h-512Z" fill="white" style="fill-opacity: 0;"/><path fill="#28AC26" d="M 342.072 9.492 l 7.87701 4.55 c -3.82999 6.624 -18.15 31.747 -25.464 57.745 c -3.65601 13 -5.43301 26.102 -3.85699 36.58 c 1.57401 10.478 5.677 18.082 15.31 23.637 c 9.38199 5.408 17.99 5.17799 27.902 1.336 c 9.91299 -3.842 20.485 -11.84 30.06 -21.403 c 19.138 -19.113 34.27 -44.025 38.127 -50.695 l -89.957 -51.75 Z M 311.066 40.404 l -4.65601 8.102 c -65.54 114.04 -127.84 220.083 -192.724 331.85 c -21.68 37.343 -14.265 83.987 19.226 103.228 c 33.492 19.242 77.81 2.41 99.324 -35.072 c 64.292 -111.995 126.706 -217.98 192.727 -331.852 l 4.70499 -8.117 l -5.22501 -3.002 c -5.17001 6.54 -10.985 13.28 -17.334 19.62 c -4.526 4.52 -9.31699 8.85001 -14.376 12.748 c -57.756 99.441 -135.939 233.955 -173.919 300.091 c -16.704 29.078 -50.333 43.54 -76.033 28.78 c -12.85 -7.38 -20.423 -20.697 -22.5 -35.155 c -2.075 -14.458 1.03 -30.36 9.44 -44.844 c 37.22 -64.13 114.514 -197.106 172.124 -296.608 c 0.803009 -7.887 2.495 -15.78 4.65201 -23.445 c 2.366 -8.41 5.32999 -16.568 8.42999 -24.106 l -3.85999 -2.216 Z M 254.036 209.884 c -42.186 72.684 -83.947 144.55 -108.16 186.272 c -6.41 11.04 -8.51199 22.943 -7.095 32.813 c 1.42 9.86801 6.03999 17.415 13.314 21.592 c 14.55 8.35699 37.802 0.231995 50.5 -21.875 c 28.334 -49.335 78.162 -135.183 126.732 -218.804 h -75.29 Z"/></svg>