<svg xmlns="http://www.w3.org/2000/svg" viewBox="0 0 512 512" xmlns:svg="http://www.w3.org/2000/svg" xmlns:xlink="http://www.w3.org/1999/xlink" width="100%" height="100%"><rect id="svgEditorBackground" x="0" y="0" width="512" height="512" style="fill: none; stroke: none;"/><path d="M0,0h512v512h-512Z" fill="white" style="fill-opacity: 0;"/><path d="M179.343994140625,38.9379997253418c-23.277008056640625,36.689998626708984,-31.746994018554688,78.14700317382812,-19.875,127.62399291992188l0.404998779296875,-0.2180023193359375c2.173004150390625,6.7440032958984375,4.9720001220703125,13.3070068359375,8.5,19.593994140625l-16.313003540039062,9.156005859375c-6.6880035400390625,-11.9169921875,-11.169998168945312,-24.42999267578125,-13.843002319335938,-37.18800354003906c-34.474998474121094,-6.2969970703125,-69.44000244140625,-7.5370025634765625,-105,-2.156005859375c34.07600402832031,10.169998168945312,52.766998291015625,23.785003662109375,76.68599700927734,46.720001220703125c-26.82799530029297,9.75799560546875,-60.25600051879883,30.270004272460938,-92.93699645996094,70.24998474121094c35.470001220703125,-8.855987548828125,64.83000183105469,-11.47198486328125,89.43599700927734,-6.313995361328125c-36.94298553466797,22.464019775390625,-64.06298828125,56.14202880859375,-88.34098815917969,114.1240234375c35.902000427246094,-17.238006591796875,64.88999938964844,-18.816986083984375,102.93800354003906,-18.873992919921875c-23.06500244140625,32.75,-35.27000427246094,77.28399658203125,-36.31300354003906,112.843994140625c24.531997680664062,-26.010009765625,57.62300109863281,-60.165008544921875,87.18800354003906,-78.97000122070312c3,29.899993896484375,15.020004272460938,58.303009033203125,35.93800354003906,85.22000122070312c-0.2230072021484375,-43.8170166015625,10.26300048828125,-88.2659912109375,31.593002319335938,-133.343994140625c-10.425994873046875,4.94500732421875,-20.714996337890625,10.63800048828125,-30.843994140625,17.093994140625l-19.06201171875,12.156005859375l4.906005859375,-22.06201171875l13.75,-61.625c-12.037994384765625,0.324005126953125,-24.33599853515625,4.32501220703125,-37.93699645996094,9.654998779296875l-22.563995361328125,8.843994140625l10.779998779296875,-21.69000244140625l38.40800476074219,-77.46701049804688l16.75,8.311996459960938l-28.438003540039062,57.34400939941406c11.466995239257812,-3.135009765625,23.339996337890625,-4.904998779296875,36,-2.845001220703125l9.779998779296875,1.593994140625l-2.154998779296875,9.654998779296875l-11.468002319335938,51.375c16.636993408203125,-8.996002197265625,33.660003662109375,-16.17999267578125,50.907012939453125,-21.656005859375l0.05999755859375,-0.029998779296875l0.657989501953125,-0.19000244140625c8.016998291015625,-2.522003173828125,16.093994140625,-4.670013427734375,24.18701171875,-6.467987060546875c0.093994140625,-0.019989013671875,0.18701171875,-0.040008544921875,0.279998779296875,-0.06201171875c43.115997314453125,-10.89599609375,89.55398559570312,-19.01800537109375,150.59500122070312,-21.656005859375c7.6300048828125,-12.86700439453125,13.766998291015625,-24.220001220703125,18.843994140625,-34.75l-6.313018798828125,-24.4339599609375l-24.404998779296875,30.81298828125l-7.875,-27.470001220703125l-22.470001220703125,29.18798828125l-7.529998779296875,-26.091995239257812l-23.843994140625,31.436996459960938l-7.68701171875,-28.220001220703125l-23.845001220703125,31.470001220703125l1.220001220703125,-41.156005859375l22.55999755859375,-42.626007080078125l7.657989501953125,28.220001220703125l23.875,-31.44000244140625l7.656005859375,28.19000244140625l23.43701171875,-30l6.563995361328125,26.904998779296875l24.406005859375,-30.813995361328125l7.875,27.5l24.593994140625,-31.970001220703125c2.279998779296875,-10.792999267578125,4.623992919921875,-22.470001220703125,7.404998779296875,-35.779998779296875c-55.519989013671875,-3.67999267578125,-106.32598876953125,4.8260040283203125,-154.06301879882812,9.875c-26.583984375,-14.895004272460938,-58.665008544921875,-22,-88.59300231933594,-21.874000549316406c-11.535003662109375,0.0500030517578125,-22.757003784179688,1.1819992065429688,-33.220001220703125,3.3440017700195312l-40.90599060058594,-89.06300354003906ZM279.8739929199219,147.43800354003906c15.7449951171875,0.07000732421875,30.6619873046875,5.3079986572265625,45.657012939453125,10.811996459960938c-4.553009033203125,14.2919921875,-13.066986083984375,18.389999389648438,-24.717010498046875,20.688003540039062c-16.149993896484375,-4.412994384765625,-28.31500244140625,-15.563995361328125,-34.375,-30.220001220703125c4.558013916015625,-0.897003173828125,9.029998779296875,-1.3000030517578125,13.43701171875,-1.279998779296875Z" fill="black" fill-rule="evenodd"/></svg>