<?xml version="1.0" standalone="no"?>
<!DOCTYPE svg PUBLIC "-//W3C//DTD SVG 1.1//EN" "http://www.w3.org/Graphics/SVG/1.1/DTD/svg11.dtd" >
<svg xmlns="http://www.w3.org/2000/svg">
<metadata></metadata>
<defs>
<font id="komika_title_-_wideregular" horiz-adv-x="1019" >
<font-face units-per-em="1000" ascent="800" descent="-200" />
<missing-glyph horiz-adv-x="530" />
<glyph horiz-adv-x="1000" />
<glyph horiz-adv-x="1000" />
<glyph unicode="&#xd;" horiz-adv-x="500" />
<glyph unicode=" "  horiz-adv-x="530" />
<glyph unicode="&#x09;" horiz-adv-x="530" />
<glyph unicode="&#xa0;" horiz-adv-x="530" />
<glyph unicode="!" horiz-adv-x="587" d="M451 761q-35 14 -80 25.5t-83 17.5q-41 8 -60 2.5t-30 -28.5q-22 -50 -48 -116t-51 -135.5t-46.5 -137t-34.5 -119.5q-8 -26 1.5 -40t42.5 -25q31 -11 64.5 -18t71.5 -12q33 -5 48.5 -0.5t21.5 24.5q20 55 46 117t55.5 126.5t61 129t62.5 125.5q11 21 2 35.5t-44 28.5z M-62 64q-2 -24 10 -43t33.5 -31.5t51.5 -19t64 -6.5q33 0 59 7.5t45 18.5t31 23.5t17 21.5q6 12 5 28t-13 31.5t-36.5 29t-63.5 20.5q-45 9 -81.5 5t-62.5 -16t-41 -30.5t-18 -38.5z" />
<glyph unicode="&#x22;" horiz-adv-x="823" d="M299 602q15 15 33 36.5t33 45.5q13 17 24 36t18.5 36.5t10.5 32t0 22.5q-3 15 -31 31q-21 12 -45.5 21.5t-53.5 17.5q-32 10 -52 8t-27 -23q-11 -28 -28 -64t-36 -73t-37 -71t-31 -57q-17 -32 44 -36q25 -2 52 -1t47 4q48 4 79 34zM618 572q18 13 40 33t43.5 43 t39.5 46.5t29 43.5q11 27 11 33q0 11 -24 32q-18 11 -40 22t-50 21q-62 25 -84 -10q-17 -26 -42 -60t-51.5 -69.5t-52.5 -67.5t-45 -53q-27 -32 39 -39q25 -2 50.5 -3.5t50.5 0.5q51 2 86 28z" />
<glyph unicode="#" horiz-adv-x="1052" d="M922 461q33 2 40 8t-12 23q-12 12 -23.5 21t-27.5 15t-38 9.5t-56 3.5q12 17 18.5 32t14.5 29q20 36 -3 62.5t-74 47.5q-55 24 -75 -10q-20 -35 -41.5 -78t-41.5 -89q-40 -2 -82.5 -4.5t-87.5 -4.5q8 14 15 28t12 27q18 37 -7.5 62.5t-76.5 46.5q-53 23 -72 -11 q-20 -36 -40 -79t-40 -91q-58 -7 -108 -11t-90 -11q-35 -5 -39.5 -12t15.5 -24q16 -15 31.5 -26t35 -17.5t44.5 -8t61 2.5h6q-11 -29 -19.5 -56t-19.5 -53q-45 -7 -84 -11t-77 -11q-33 -5 -36.5 -12.5t14.5 -24.5q31 -26 64 -39.5t86 -8.5l-2 -14q-12 -44 15 -67.5t75 -37.5 q28 -8 40.5 -6.5t20.5 19.5q12 29 22.5 61.5t24.5 69.5q45 7 89 10.5t89 10.5q-5 -12 -6.5 -21.5t-6.5 -19.5q-2 -12 -3.5 -22t0.5 -18q5 -24 26.5 -39.5t59.5 -26.5q26 -8 41 -6.5t23 19.5q11 32 26 69.5l33 82.5q38 2 73 4.5t70 4.5q33 3 39 10t-12 23q-12 12 -23.5 20 t-26 13.5t-34 8.5t-48.5 3q11 29 24 58.5t26 58.5q42 2 81.5 3.5t77.5 3.5zM561 439q-14 -29 -25 -56t-19 -55q-42 -3 -85.5 -6.5t-88.5 -7.5q12 29 22.5 55t21.5 55q42 5 84.5 8t89.5 7z" />
<glyph unicode="$" horiz-adv-x="812" d="M321 668q-26 -1 -48 -5t-40 -10q-78 -28 -132.5 -74t-82.5 -91q-11 -26 -8.5 -49t15.5 -44t35.5 -38.5t51.5 -32.5q42 -22 94.5 -41t96 -35t66.5 -29t7 -22q-12 -7 -37.5 -8t-60 3.5t-75.5 15t-84 27.5q-16 7 -37 11.5t-43 5.5t-44 -1.5t-39 -9.5q-20 -8 -20 -23 q0 -13 44 -43q33 -23 69 -39t74 -28q-8 -22 -11 -49q-5 -36 14 -71t70 -52q28 -10 43.5 -7.5t20.5 20.5q6 26 18 61t26 67q2 -1 17 -1h20q58 0 101 10.5t73.5 26t49.5 34t31 33.5q13 25 5.5 45t-29.5 37.5t-55 33t-70 30t-75.5 30t-70.5 32.5q-28 17 -34.5 36.5t1.5 38.5 t26.5 36.5t39.5 30.5t42 19.5t33 3.5q11 -3 11 -14q5 -17 -0.5 -41.5t-10.5 -42.5q-2 -18 7 -32.5t26 -26t41.5 -20.5t53.5 -16q43 -9 64 13q9 13 17 31.5t14 38t9.5 39t3.5 35.5q0 9 -1.5 19.5t-8 21.5t-19.5 22.5t-35 23.5q-17 8 -32 15t-30 12q8 19 15 38t12 34 q11 36 -12 62.5t-68 43.5q-53 23 -77 -10q-14 -23 -32 -59.5t-36 -71.5z" />
<glyph unicode="%" horiz-adv-x="1305" d="M1008 610q39 29 30.5 57.5t-46.5 54.5q-40 30 -77 4q-35 -24 -76.5 -41.5t-84.5 -29t-83 -16.5t-70 -3q-79 3 -117 37q-15 13 -28 23t-25 18q-23 11 -54 20t-73 14q-25 3 -57.5 -1t-57.5 -14q-53 -24 -91 -61.5t-56.5 -79t-17 -83t28.5 -73.5q15 -14 33.5 -28t38.5 -22 q25 -10 57 -16t60 -10q84 -7 147 22q33 16 56 39t37.5 49.5t21 55t6.5 55.5q55 -11 114.5 -7.5t112.5 21.5q-77 -59 -160.5 -126t-160.5 -132.5t-142 -122.5t-105 -95q-19 -20 -24.5 -35.5t-0.5 -28.5t18.5 -24.5t33.5 -22.5q25 -10 37.5 -11.5t30.5 11.5q35 34 91.5 83 t124.5 105t142 115.5t145 115t133.5 103.5t107.5 80zM1093 281q-5 18 -20 35.5t-43 31.5q-20 10 -54.5 19.5t-69.5 14.5q-26 3 -59.5 -1t-58.5 -14q-69 -30 -111.5 -80t-54 -102.5t9.5 -98t79 -66.5q25 -10 54.5 -15.5t61.5 -8.5q82 -9 145 20q33 16 57.5 38.5t40.5 48.5 t24 54t8 55q0 19 -2 36t-7 33zM926 307q10 -3 14.5 -17t4 -34t-6.5 -43.5t-16 -44.5q-25 -55 -58 -83t-59 -21q-28 7 -28 45q0 20 6.5 43.5t21.5 49.5q9 19 24.5 39t33 36t34.5 24.5t29 5.5zM328 673q13 -3 17.5 -16.5t4.5 -32.5t-5.5 -42t-12.5 -47q-21 -57 -52.5 -84 t-59.5 -20q-28 6 -29 44.5t20 92.5q9 19 24.5 39t32.5 35.5t33 24.5t27 6z" />
<glyph unicode="&#x26;" horiz-adv-x="1142" d="M675 56q22 -10 40 -21q22 -11 38.5 -17.5t31 -10.5t28 -5t30.5 0q33 4 52 10.5t44 17.5t26.5 20.5t-30.5 26.5q-25 14 -48 28.5t-51 31.5q11 7 19.5 15t20.5 16q17 16 30 32.5t19 33t2.5 33t-18.5 33.5q-14 14 -38 14q-20 0 -55 -16q-35 -18 -64.5 -34t-62.5 -31 q-38 26 -74 53t-69 55q35 13 71.5 27t70 28t63.5 29.5t52 31.5q85 57 75.5 123t-115.5 130q-44 27 -83 41.5t-77 20t-77 4t-82 -6.5q-46 -6 -91 -17t-84 -27t-71 -36.5t-53 -44.5q-45 -52 -38 -100.5t65 -112.5q8 -8 19.5 -20t26.5 -26q-65 -23 -119.5 -48t-94.5 -54 q-39 -30 -58 -60.5t-14 -61t36.5 -62t95.5 -62.5q59 -27 114 -39.5t105 -14.5t95 3.5t86 13.5q115 18 211 56zM420 456l-6 7q-54 62 -11 108q11 13 33 26.5t49.5 24.5t58 19.5t59.5 12.5q25 -17 31.5 -36t-0.5 -37t-24 -34.5t-38 -26.5q-28 -17 -67.5 -33t-84.5 -31z M506 162q-53 -18 -100 -29.5t-85 -17t-65 -4.5t-40 10q-11 8 -11 21q0 23 34.5 55.5t119.5 70.5q38 -29 73.5 -55.5t73.5 -50.5z" />
<glyph unicode="'" horiz-adv-x="466" d="M284 572q18 13 40 33t43 43t39.5 46.5t29.5 43.5q5 13 8 21t3 12q0 12 -25 32q-18 11 -39.5 22t-50.5 21q-61 25 -83 -10q-18 -26 -43 -60t-52 -69t-52 -67t-43 -54q-25 -31 38 -39q26 -2 51 -3.5t50 0.5q51 2 86 28z" />
<glyph unicode="(" horiz-adv-x="535" d="M301 812q-112 -80 -181.5 -178t-92.5 -201.5t2 -205.5t103 -189q45 -45 99.5 -59t109.5 -12q32 3 37.5 7.5t-8.5 21.5q-64 73 -85 158t-8 171.5t56.5 168.5t108.5 150q76 78 -46 164q-53 38 -95 4z" />
<glyph unicode=")" horiz-adv-x="596" d="M394 670q-25 51 -86 88t-169 48q-27 3 -41 1.5t-19 -7t-3 -14t8 -19.5q49 -93 59 -201t-16 -213.5t-86 -198.5t-149 -156q-35 -29 31 -34q130 -8 207 36q90 54 155.5 134t101.5 171t39 186t-32 179z" />
<glyph unicode="*" horiz-adv-x="1045" d="M871 505q57 6 20 35q-16 13 -34 23t-41 15.5t-52.5 7t-68.5 -1.5q-25 -2 -51 -4.5t-52 -5.5q7 18 15.5 37t19.5 39q18 36 -7 62.5t-77 47.5q-53 23 -72 -11q-42 -76 -68 -147q-25 12 -46 25t-49 27q-53 30 -105.5 33.5t-103.5 -10.5q-52 -15 -9 -41q55 -32 103.5 -59 t94.5 -51q-71 -12 -133 -25t-113 -25q-33 -7 -35 -15t19 -23q38 -28 83.5 -41.5t110.5 0.5q32 7 61.5 12.5t61.5 11.5q-5 -11 -6.5 -23t-6.5 -26q-6 -23 -1.5 -39.5t17 -28.5t31.5 -20.5t43 -14.5q32 -10 43.5 -8t18.5 20q13 35 22.5 66t21.5 63q25 -11 50.5 -23.5 t57.5 -25.5q70 -32 116 -32t88 15q25 11 27 17.5t-27 20.5q-53 26 -99.5 48t-91.5 45q58 8 112 16t112 14z" />
<glyph unicode="+" horiz-adv-x="1074" d="M827 316q32 0 40.5 6.5t-2.5 23.5q-12 15 -21.5 29.5t-27.5 31.5q-30 28 -88 30q-70 2 -174 0q8 20 19 38.5t19 35.5q11 17 7 27.5t-29 24.5q-22 14 -57.5 27t-68.5 21q-26 6 -45 -1.5t-27 -21.5q-20 -30 -38.5 -71t-36.5 -89q-88 -3 -167 -8.5t-137 -12.5 q-12 -2 -24 -4.5t-19.5 -6.5t-10 -10t3.5 -15q11 -17 33 -39.5t44 -36.5q12 -8 22 -12t20 -6t21 -2q12 0 29 2q33 4 68 7.5t73 5.5q-8 -28 -11.5 -51t-8.5 -41q-3 -33 44 -50q32 -11 57 -18.5t51 -15.5q31 -8 42 -5t17 22q12 37 25.5 82t32.5 93q85 5 165.5 6.5t159.5 3.5z " />
<glyph unicode="," horiz-adv-x="460" d="M84 -119q15 10 36.5 26.5t43.5 35t42.5 38t33.5 36.5q15 17 13.5 29.5t-26.5 26.5q-29 17 -61 29.5t-65 22.5q-32 10 -52.5 8t-35.5 -20q-33 -54 -80 -105.5t-87 -99.5q-27 -30 29 -40q28 -7 60.5 -11t64.5 -3q25 2 43.5 7.5t40.5 19.5z" />
<glyph unicode="-" horiz-adv-x="869" d="M-123 492q-65 -8 -22 -54q18 -20 38.5 -39t49.5 -39q28 -21 52.5 -27t52.5 -1q53 9 111 15t118.5 11t121.5 8t120 6q35 1 43.5 8t-5.5 29q-15 18 -29 37t-35 41q-43 37 -101 37q-66 0 -138 -3t-141 -7.5t-130 -10t-106 -11.5z" />
<glyph unicode="." horiz-adv-x="486" d="M-42 73q-2 -23 9.5 -41.5t33.5 -31.5t52 -19.5t64 -5.5q33 0 59 7.5t44.5 18t30 22.5t15.5 21q7 13 7 29q0 23 -27 46t-85 35q-44 8 -80 4t-62.5 -16t-42 -30.5t-18.5 -38.5z" />
<glyph unicode="/" horiz-adv-x="779" d="M708 713q-28 15 -58.5 28.5t-62.5 25.5q-62 26 -99 -11q-36 -32 -85.5 -86.5t-104.5 -120t-112 -136.5t-107.5 -135.5t-91 -118t-62.5 -83.5q-16 -23 -13 -40q3 -18 31 -29q21 -9 43 -18.5t54 -20.5q33 -11 50 -7.5t31 21.5q31 37 78.5 92.5t103.5 119t116.5 131 t117.5 130t106 114t81 84.5q18 18 17 30.5t-33 29.5z" />
<glyph unicode="0" horiz-adv-x="1005" d="M737 701q-45 20 -110.5 33.5t-138.5 20.5q-53 5 -114 -4.5t-108 -30.5q-107 -51 -175 -128.5t-99.5 -162.5t-27 -169t44.5 -150q10 -14 25.5 -26.5t33.5 -23.5t36 -19.5t35 -14.5q51 -17 107.5 -26t109.5 -12q85 -5 148 4t121 43q82 49 134.5 119t79 146t28.5 151.5 t-18 136.5q-11 33 -36 60.5t-76 52.5zM537 620q26 -5 37 -34t11 -71t-9 -88.5t-24 -88.5q-17 -53 -44.5 -96.5t-59.5 -74.5t-65.5 -45.5t-63.5 -8.5q-32 7 -48.5 34.5t-20.5 66.5t5 85t29 91t51.5 88.5t67 76.5t71 51.5t63.5 13.5z" />
<glyph unicode="1" horiz-adv-x="568" d="M458 652q11 21 2 32t-44 25q-38 16 -75 26t-75 16q-20 3 -33.5 4t-24.5 -1.5t-21 -8t-22 -14.5q-26 -21 -57 -49.5t-53 -56.5q-20 -24 -5.5 -34.5t67.5 -27.5q-23 -57 -44.5 -125.5t-39.5 -135t-31 -124.5t-17 -94q-5 -26 4 -41t35 -26q35 -12 69.5 -17.5t69.5 -11.5 q19 -3 31 -3.5t19.5 1.5t12 7.5t7.5 14.5q11 43 27 97t35 112.5t40.5 119.5t42.5 118t41.5 108t38.5 89z" />
<glyph unicode="2" horiz-adv-x="909" d="M326 143q64 31 129 68.5t123.5 76.5t106.5 77.5t78 73.5q27 29 45.5 56.5t24 54.5t-4.5 54t-40 56q-23 19 -59.5 38.5t-84 34.5t-104 21.5t-118.5 -0.5q-106 -12 -197.5 -55t-156.5 -107q-19 -21 -26 -35t-4.5 -23.5t13.5 -15t28 -9.5q30 -6 63 -9.5t66 -2.5t63.5 7 t56.5 18q34 20 67.5 38.5t64 31t55.5 16.5t42 -3t-1.5 -34t-63.5 -66.5t-110.5 -87.5t-142 -97.5t-159 -97t-159.5 -84.5q-17 -9 -22.5 -18t-3.5 -18t9.5 -18t16.5 -16q10 -9 24.5 -19.5t30.5 -20.5t31.5 -19t27.5 -15q10 -6 20 -10.5t24 -6.5t35 -1t53 5q43 6 107.5 13 t135 13t139.5 11t122 7q33 3 42 9t-2 24q-8 15 -25 34t-35 33q-20 17 -42 24.5t-55 6.5q-22 0 -49.5 -1t-57.5 -2.5t-61 -4t-60 -5.5z" />
<glyph unicode="3" horiz-adv-x="953" d="M548 371q66 18 118.5 37.5t90.5 41.5q31 18 50.5 44.5t21 58t-18.5 66t-69 69.5q-47 31 -93 47.5t-89 22.5t-82.5 4t-73.5 -6q-47 -6 -92 -18.5t-84 -28t-71.5 -33.5t-54.5 -35q-35 -28 11 -53q23 -12 57.5 -20t71.5 -10.5t73 1.5t62 16q19 7 39.5 14.5t41 13.5t39 9.5 t34.5 3.5q24 0 33 -9q16 -12 -0.5 -31.5t-69.5 -44t-144 -51.5t-224 -54q-56 -12 -19 -49q42 -43 103 -65t125 -16q52 4 83.5 2t59.5 -16q13 -7 20.5 -20.5t6 -30t-14 -35.5t-38.5 -38q-29 -19 -62 -30t-73.5 -13t-90 6.5t-111.5 28.5q-42 14 -96 17t-99 -15q-14 -5 -22 -11 t-6 -15t16 -21.5t45 -28.5q100 -58 200 -79t193 -21q121 0 219 23t173 86q31 28 46 59t9 63.5t-34 64t-83 60.5q-28 15 -60 23.5t-67 15.5z" />
<glyph unicode="4" horiz-adv-x="1043" d="M761 368q32 76 59.5 144t52.5 119q12 21 4 32.5t-43 25.5q-21 7 -54.5 17.5t-69.5 21.5t-69.5 20t-53.5 13q-19 3 -33 4.5t-26 0t-24.5 -6t-28.5 -11.5q-59 -33 -133 -80.5t-147 -100t-138.5 -105.5t-107.5 -96q-21 -21 -20.5 -37.5t18.5 -34.5q26 -22 57 -43.5t64 -38.5 q29 -17 55 -18.5t57 2.5q58 6 119 10.5t126 9.5q-15 -45 -25 -79.5t-15 -58.5q-7 -26 2.5 -39.5t41.5 -27.5q32 -11 66.5 -19.5t63.5 -13.5q38 -6 52 -1t20 24q14 48 34.5 106.5t45.5 124.5l66 2l66 2q35 2 44.5 9t1.5 26q-12 17 -19.5 31.5t-22.5 32.5q-27 32 -86 33z M207 346q39 30 82.5 62t90.5 64.5t96 63.5t98 58q-26 -55 -49 -114t-48 -119q-71 -4 -140.5 -7t-129.5 -8z" />
<glyph unicode="5" horiz-adv-x="865" d="M436 581q93 7 178 13.5t163 11.5q38 3 47.5 10t-1.5 27q-8 18 -15 38t-25 39q-26 35 -101 32q-94 -2 -192 -6t-204 -14q-72 -7 -99 -44q-55 -82 -93.5 -150.5t-60.5 -123.5q-11 -26 -2.5 -40.5t28.5 -24.5q16 -7 28 -12.5t23 -10t21.5 -8.5t22.5 -10q11 -6 19 -9t18 -4 t23.5 1t36.5 6q20 4 46.5 6.5t52.5 3t47 -1.5t30 -6q8 -6 15 -22t7 -37q0 -20 -11.5 -43t-32.5 -42q-16 -15 -37.5 -26.5t-51.5 -15t-71 4t-95 31.5q-19 9 -45 13.5t-54.5 5t-56 -3t-49.5 -12.5q-15 -5 -20.5 -11t-3.5 -14q3 -17 57 -53q60 -51 146 -70.5t180 -18.5 q83 1 146 15t107.5 34t72.5 43.5t41 43.5q32 45 40.5 85t-5 73.5t-46.5 60t-84 44.5q-111 39 -235 39q18 35 42 74t53 79z" />
<glyph unicode="6" horiz-adv-x="898" d="M392 454q61 60 137.5 115.5t170.5 103.5q31 17 23.5 29t-39.5 24q-16 5 -38 10t-47 10t-49.5 9t-45.5 7q-23 3 -38 3q-14 0 -25.5 -2.5t-22.5 -7.5t-26 -12q-132 -69 -218.5 -144t-137 -147t-71 -136t-20.5 -111q-1 -36 10.5 -66t38.5 -54.5t70.5 -44.5t107.5 -36 q67 -14 119.5 -19t94 -3t74 10t59.5 19q42 18 81.5 47.5t69 67t45 80.5t9.5 88q-3 23 -12.5 43t-31 38t-56.5 33.5t-89 29.5q-35 8 -70 12.5t-73 3.5zM240 265q20 19 44 34t49 23.5t49 11t43 -2.5q41 -11 39 -47t-35 -82q-40 -54 -90 -78.5t-95 -10.5q-38 11 -37 51.5 t33 100.5z" />
<glyph unicode="7" horiz-adv-x="944" d="M546 610q-66 -58 -131 -120.5t-125.5 -127.5t-114.5 -130.5t-98 -128.5q-15 -24 -13.5 -38t26.5 -31q26 -17 59.5 -31t66.5 -25q35 -10 50 -8t29 20q58 74 127 153t143 155.5t149.5 147.5t145.5 131q26 22 24.5 40t-26.5 37q-18 15 -41.5 34.5t-55.5 39.5 q-25 20 -51.5 26t-64.5 6q-69 -2 -148 -5t-157 -7.5t-150 -11t-126 -15.5q-25 -4 -31.5 -11t11.5 -24q7 -9 18 -19t23 -20t24 -19.5t21 -16.5q28 -17 59.5 -21.5t63.5 -0.5q25 2 61 4.5t75.5 5.5t80 6t76.5 5z" />
<glyph unicode="8" horiz-adv-x="959" d="M829 485q32 30 38.5 60.5t-7.5 59t-47 54.5t-80 49q-78 35 -158.5 48t-165.5 -6q-100 -23 -177.5 -61t-125.5 -89q-58 -60 -31.5 -114.5t132.5 -100.5q-50 -20 -95 -41.5t-81 -45.5t-60 -51.5t-30 -58.5q-14 -61 45.5 -112t187.5 -76q67 -14 138 -18t138 5t127.5 31 t108.5 61q41 36 64.5 71.5t17.5 71t-47.5 71t-128.5 71.5q81 29 142.5 58t94.5 63zM409 296q31 -15 44.5 -30.5t14 -32.5t-10 -34.5t-26.5 -35.5q-38 -38 -86 -53.5t-83 -7.5q-13 3 -25 9.5t-18 16t-5 22.5t13 29q25 32 70.5 62t111.5 55zM537 635q84 -39 41.5 -83 t-195.5 -104q-27 16 -31 37.5t14.5 46t61 51t109.5 52.5z" />
<glyph unicode="9" horiz-adv-x="893" d="M286 250q-55 -46 -120.5 -89t-143.5 -83q-16 -8 -21 -14.5t-2.5 -12.5t11 -11.5t19.5 -11.5q31 -15 58.5 -22.5t62.5 -17.5q38 -11 63.5 -6t57.5 18q116 50 215 120.5t170.5 147t109 151.5t30.5 133q-4 36 -23.5 64.5t-54 51t-83 40.5t-111.5 34q-62 15 -113 18.5 t-92.5 -1t-74.5 -14t-59 -20.5q-50 -23 -93 -59.5t-71 -80t-38 -91t6 -92.5q7 -26 22.5 -47t41.5 -38.5t64.5 -31.5t91.5 -25q18 -5 37.5 -6.5t39.5 -3.5zM416 386q-57 -35 -110 -22q-24 5 -36 18.5t-14.5 33t4 42.5t19.5 47q16 26 38.5 49.5t47.5 40.5t50.5 25.5t46.5 3.5 q25 -6 33.5 -27t2.5 -52.5t-27 -72t-55 -86.5z" />
<glyph unicode=":" horiz-adv-x="541" d="M37 385q-2 -23 10 -41.5t34.5 -32t52.5 -20.5t64 -7q33 0 59 7.5t45 19t31 24t17 21.5q2 7 3 14t1 15q0 23 -26 46.5t-86 34.5q-43 8 -79.5 4t-63.5 -16t-43 -30t-19 -39zM-64 84q-6 -23 2 -41t26 -31.5t45 -22.5t59 -12q65 -8 112.5 9t61.5 49q4 13 3 31t-12 35t-35 32 t-66 22t-76.5 4t-59.5 -13t-40.5 -26.5t-19.5 -35.5z" />
<glyph unicode=";" horiz-adv-x="572" d="M134 -144q13 12 29 31.5t32 42t30.5 46t23.5 44.5q18 26 -9.5 51t-92.5 51q-29 13 -55 23t-46.5 13.5t-34.5 -1.5t-18 -21q-21 -66 -50.5 -128.5t-54.5 -119.5q-19 -34 44 -48q32 -8 64 -13t63 -4q25 2 42.5 9t32.5 24zM-79 462q6 -27 24.5 -49.5t44.5 -38.5t58 -24.5 t66 -8.5q36 0 60 9t39 22.5t22 28.5t9 26q3 15 -2.5 34.5t-22 38t-46 34.5t-74.5 25q-44 10 -79 5t-58 -19.5t-34 -36.5t-7 -46z" />
<glyph unicode="&#x3c;" horiz-adv-x="766" d="M568 450q31 6 35 14.5t-18 23.5q-34 26 -79 51q-18 10 -34 13.5t-35 2t-44.5 -7t-62.5 -13.5q-34 -8 -71 -18t-74 -20.5t-70.5 -20.5t-59.5 -19q-24 -6 -36.5 -17.5t-18.5 -26t-8.5 -30t-6.5 -29.5q-6 -9 -3 -28q5 -11 25 -17q112 -28 222.5 -57t210.5 -61q31 -11 45 -8 t25 20q14 23 20 58q2 17 -10 27.5t-38 20.5q-42 14 -96.5 30t-119.5 33q78 22 152.5 42t149.5 37z" />
<glyph unicode="=" horiz-adv-x="959" d="M150 192q281 30 580 36q32 1 41.5 7t-1.5 23q-8 14 -18 28t-28 30q-27 28 -86 28q-68 1 -145 -0.5t-156.5 -5.5t-157 -9.5t-146.5 -12.5q-26 -3 -40 -13t0 -28q12 -14 28 -31.5t34 -31.5q18 -15 39 -19.5t56 -0.5zM165 398q146 11 291.5 13.5t300.5 0.5q32 -2 42 4t2 23 q-7 14 -16.5 28t-23.5 31q-22 28 -86 31q-65 4 -143.5 5.5t-160 1t-160.5 -3.5t-145 -8q-26 -2 -42 -10.5t-4 -27.5q8 -15 23 -32.5t30 -31.5q18 -17 37.5 -21.5t54.5 -2.5z" />
<glyph unicode="&#x3e;" horiz-adv-x="814" d="M658 397q8 22 -3 30.5t-37 16.5q-59 18 -123.5 35.5t-127.5 33.5t-121 29.5t-103 22.5q-25 5 -43 2t-23 -17q-5 -17 -4 -39t6 -37q6 -9 10.5 -15t11 -10t16 -7t26.5 -6q51 -11 102 -23.5t105 -26.5q-95 -17 -183 -36.5t-149 -36.5q-20 -6 -29 -15t9 -23 q25 -17 50.5 -33.5t50.5 -27.5q26 -12 42.5 -13t41.5 7q42 12 84.5 22.5t87.5 20t94 19.5t105 20q31 7 45 14.5t26 24.5q19 28 33 68z" />
<glyph unicode="?" horiz-adv-x="997" d="M196 198q29 -9 64 -18.5t65 -13t49.5 1t17.5 22.5q9 38 33 66t57.5 49.5t73 38t79.5 31.5t77.5 31.5t66.5 37.5t51 48.5t25.5 60.5t-17 69.5t-75.5 75.5q-25 19 -62.5 36.5t-84.5 29t-101.5 15.5t-114.5 -3q-100 -11 -186 -49t-155 -98q-23 -20 -31.5 -33.5t-6.5 -22.5 t13 -15t28 -10q33 -9 67.5 -13t68 -2.5t63.5 8.5t54 19q32 16 62.5 31.5t60.5 28.5t59.5 21t59.5 8q20 0 38 -7t23 -23q3 -12 -4 -26.5t-25.5 -30.5t-51.5 -34t-82 -37q-39 -16 -88.5 -36.5t-94.5 -48t-78 -63.5t-40 -83q-5 -24 2.5 -37.5t39.5 -24.5zM70 65q-4 -23 6 -40 t30.5 -29.5t49 -20t60.5 -10.5q72 -7 119 11.5t59 46.5q2 3 2 12v15q0 12 -4.5 23.5t-17 22t-35 20t-57.5 16.5q-45 9 -83 6.5t-66 -12.5t-44 -26t-19 -35z" />
<glyph unicode="@" horiz-adv-x="1309" d="M1126 300q29 60 26 123t-42 119.5t-115 102t-194 71.5q-78 18 -161 23.5t-164 -2t-157 -28t-139 -54.5t-110 -81t-70 -107q-22 -64 -18 -119t27 -100.5t62.5 -82.5t88.5 -65.5t105 -47.5t111 -30q100 -21 174 -21.5t128 10.5q18 4 20 12t-12 18q-21 15 -55.5 25.5 t-67.5 15.5q-22 3 -42.5 3.5t-42 1t-46 2.5t-54.5 7q-26 5 -57 16.5t-60.5 30t-54 44.5t-37 60.5t-10.5 77t26 94.5q35 78 101 132t146 84t166 36t163 -11q60 -13 100 -35t64 -49t35 -57.5t12 -61t-4.5 -59t-14.5 -51.5q-19 -43 -42.5 -75t-47 -51t-45 -25.5t-37.5 1.5 q-11 5 -11 21q0 19 9 49t20 61t22 57.5t15 38.5t5 21t-5 16.5t-20 15t-39 16.5q-12 25 -40 43t-66 26q-53 10 -108.5 0t-105.5 -35.5t-90.5 -65t-62.5 -87.5q-24 -48 -18.5 -83t29.5 -60t60.5 -40t73.5 -22q123 -23 202 19q43 -40 119 -52q48 -10 99 -9t98.5 18.5t88.5 54.5 t70 100zM695 476q-22 -55 -47.5 -102t-51.5 -80.5t-52 -51t-49 -13.5q-13 2 -23 9.5t-13.5 22.5t1 37.5t20.5 55.5q15 33 42 61t55 48t52 30.5t35 8.5q25 -6 31 -26z" />
<glyph unicode="A" horiz-adv-x="1054" d="M605 186q10 -77 24 -136q7 -28 21.5 -39t49.5 -18q35 -8 67.5 -9.5t70.5 -1.5t48.5 7t8.5 25q-9 84 -16.5 176.5t-12.5 181.5t-6.5 168.5t0.5 136.5q1 23 -11 37.5t-53 22.5l-58 10t-63 9.5t-74.5 8t-92.5 5.5q-59 3 -90 -10t-51 -34q-37 -40 -78.5 -90t-85 -105.5 t-87 -113.5t-83.5 -114.5t-75 -109t-61 -96.5q-11 -21 -11.5 -33.5t6 -20.5t19.5 -13.5t30 -13.5q21 -8 44 -14.5t41 -11.5q33 -8 49.5 -5t30.5 20q21 32 44 65.5t55 71.5q40 7 87.5 13t99.5 11t106 10t107 10zM334 316q65 85 127 160.5t113 135.5q0 -66 4 -136t9 -142 q-127 -6 -253 -18z" />
<glyph unicode="B" d="M689 364q45 16 78 32t65 32q29 16 53 34.5t40 39.5t21 43.5t-4 46.5q-19 43 -52.5 74.5t-79.5 59.5q-35 20 -89.5 30.5t-119.5 12.5t-136.5 -2.5t-141.5 -14.5t-134 -24t-114 -30q-7 -62 -23 -134.5t-34.5 -146t-35.5 -144t-26 -128.5q-4 -18 -2.5 -30t8 -21.5t18 -18 t27.5 -20.5q21 -12 38.5 -21t34.5 -16.5t35.5 -14.5t40.5 -13q22 -9 40 -13.5t36 -5.5t38.5 1.5t48.5 7.5q52 9 110.5 22.5t115.5 30.5t108 37.5t88 43.5q52 29 75 59.5t11 72.5q-11 35 -47.5 67.5t-90.5 50.5zM328 427q18 45 33 85t33 75q56 16 104.5 24t86 9.5t61 -4 t29.5 -15.5q7 -13 -14.5 -35t-66.5 -47t-112.5 -49.5t-153.5 -42.5zM271 278q56 12 102 16t80 1.5t55.5 -9.5t28.5 -17q6 -16 -14.5 -35t-62.5 -38.5t-103.5 -37t-136.5 -30.5q11 38 24 75t27 75z" />
<glyph unicode="C" horiz-adv-x="942" d="M684 206q-135 25 -218 -32q-114 -82 -173 -68q-30 6 -45 32t-17 64.5t7.5 84.5t29.5 91q20 42 53 89t70 86t73 63t62 19q26 -6 31.5 -27.5t5.5 -47.5q0 -14 5 -32q6 -21 18.5 -37.5t34 -29t52.5 -21t75 -14.5q23 -3 36.5 -2t21 4.5t11.5 9.5t8 13q7 15 11.5 34t6.5 40 t2 42t-2 39q-5 32 -24 57t-71 50q-26 10 -58.5 20t-68.5 18t-74 13.5t-74 7.5q-48 2 -103.5 -6t-109.5 -36q-69 -36 -125.5 -85.5t-98.5 -107t-68.5 -119t-34.5 -121t3 -112.5t44 -94q10 -14 25 -26t33 -22.5t37.5 -18.5t38.5 -14q45 -10 101 -21.5t124 -15.5q33 -2 67 0 t66 7.5t60 13.5t49 17q40 20 79 50t64 65q10 15 15.5 27.5t2.5 22.5t-17 17.5t-41 12.5z" />
<glyph unicode="D" horiz-adv-x="1076" d="M75 706l-123 -551q-7 -24 -5 -39.5t10 -26.5t20.5 -19.5t26.5 -17.5q38 -20 68 -33.5t71 -27.5q80 -29 156 -9q146 28 257.5 73t190 100t125 116t63 121.5t3 117t-55.5 101.5q-46 53 -110 85t-137.5 48t-151.5 18.5t-152 -4.5t-140.5 -21.5t-115.5 -30.5zM227 138 q38 121 78.5 235t88.5 223q85 17 144.5 3.5t84.5 -41.5q11 -14 17.5 -34t4.5 -46q-3 -38 -26.5 -84t-73.5 -92t-128.5 -89t-189.5 -75z" />
<glyph unicode="E" horiz-adv-x="847" d="M99 710l-167 -578q-5 -26 7 -45t37 -33q28 -18 50 -29.5t47 -22.5q10 -5 22.5 -9t28.5 -6t37.5 -1.5t51.5 5.5q88 11 184.5 24t189.5 25q38 5 45 12.5t-1 27.5q-11 18 -21.5 35t-28.5 36q-15 17 -38 23t-61 4q-71 -3 -132.5 -7.5t-127.5 -12.5q12 26 22.5 53.5t21.5 56.5 q81 11 167.5 20.5t171.5 19.5q38 5 46.5 12t-2.5 28q-8 18 -18 35t-28 35q-15 17 -37 22.5t-60 4.5q-45 -1 -85 -2.5t-82 -5.5q21 45 38.5 86t36.5 78q93 8 176.5 14t161.5 11q38 3 48 10.5t3 28.5q-8 18 -16 33t-26 34q-22 35 -94 34q-77 -2 -154 -7.5t-150.5 -13.5 t-140.5 -17t-123 -18z" />
<glyph unicode="F" horiz-adv-x="836" d="M750 626q38 3 46.5 10t2.5 28q-11 36 -47 69q-12 10 -22.5 17t-21.5 10.5t-24.5 4.5t-32.5 1q-76 -2 -154.5 -6t-154 -9.5t-144 -13t-123.5 -16.5q2 -39 -7 -93.5t-24.5 -116.5t-34.5 -126t-36.5 -122t-31.5 -105t-18 -74q-1 -13 -0.5 -23t5 -17.5t14.5 -13.5t27 -12 q28 -8 64.5 -17t70 -13t57 0t26.5 22q18 54 41 121.5t51 139.5q78 11 159.5 21t159.5 18q38 3 48 11t-1 28q-8 17 -18 34.5t-29 35.5q-29 30 -96 27q-42 -1 -81.5 -3t-79.5 -5q22 46 36 87.5t32 74.5q93 8 178 14t163 12z" />
<glyph unicode="G" horiz-adv-x="972" d="M834 448q4 14 7 34t4 41.5t0 43.5t-5 39q-8 32 -28.5 57.5t-65.5 46.5q-23 12 -53 21.5t-63 17t-67.5 12.5t-67.5 8q-47 4 -103.5 0t-103.5 -25q-74 -33 -136 -81t-108 -104.5t-76 -117.5t-41 -121t-1 -114.5t43 -97.5q18 -28 53 -51.5t73 -37.5q102 -32 217 -42 q129 -14 236 27q79 33 145 93t112 145q12 25 10 41t-27 37q-14 11 -29 24t-33 24q-25 17 -54 22t-76 1q-40 -4 -94.5 -8.5t-105.5 -11.5q-26 -3 -48.5 -5t-37.5 -6t-21.5 -10.5t-0.5 -18.5q25 -51 70.5 -73.5t129.5 -19.5q-22 -31 -47.5 -58.5t-52.5 -46.5t-54.5 -28 t-54.5 -3q-30 7 -46 35.5t-17.5 69t10 87.5t36.5 90q26 52 62 99t74 81.5t74 53.5t63 14q13 -2 18 -13t10 -26q2 -8 3.5 -16.5t1.5 -17.5t1 -17t3 -16q8 -43 53.5 -70t140.5 -35q34 -2 47 4t21 23z" />
<glyph unicode="H" horiz-adv-x="994" d="M942 664q8 20 0.5 31.5t-42.5 25.5q-38 14 -78 25.5t-78 17.5q-40 7 -60.5 3.5t-32.5 -28.5q-26 -66 -54 -152t-60 -177q-51 -2 -106.5 -5t-113.5 -7q28 75 52.5 140t46.5 111q8 21 1 32.5t-45 25.5q-35 14 -81.5 26t-85.5 19q-38 8 -57.5 4t-30.5 -29 q-20 -67 -41.5 -151.5t-44.5 -172t-48 -171t-51 -149.5q-12 -26 1.5 -40.5t46.5 -25.5q26 -11 65 -18t74 -14q19 -3 31 -3.5t19.5 2t12 8t7.5 14.5q15 48 31.5 107t41.5 125q58 6 115.5 11t115.5 11q-15 -54 -26 -99.5t-16 -80.5q-7 -18 -1 -31t21.5 -22.5t39.5 -16.5 t54 -13q30 -5 56 -9.5t44.5 -5.5t29.5 4t11 19q24 81 54 171t61.5 178t62.5 168t58 142z" />
<glyph unicode="I" horiz-adv-x="458" d="M352 707q-35 14 -81 26.5t-86 18.5q-40 7 -59.5 2t-30.5 -27q-16 -37 -34 -90t-37 -113t-37 -124t-33 -123t-26.5 -109.5t-15.5 -84.5q-5 -26 5 -40.5t43 -25.5q32 -11 66.5 -18t72.5 -14q38 -6 51 -1t19 22q13 44 30 98.5t36.5 113.5t40.5 120t42 117.5t41 106.5t37 87 q4 10 5 18t-3.5 14.5t-15.5 12.5t-30 13z" />
<glyph unicode="J" horiz-adv-x="920" d="M202 -13q55 -9 100 -10.5t82 2.5t66.5 12t55.5 19q63 28 114 86.5t91.5 142.5t71.5 190.5t55 231.5q3 10 2.5 17.5t-5.5 14t-15.5 12t-29.5 13.5q-38 14 -86 24.5t-86 17.5q-40 6 -60.5 1t-27.5 -28q-11 -50 -26.5 -116.5t-35.5 -137t-43 -138t-49 -121t-54 -85.5 t-58 -31q-17 1 -27 7t-15 17.5t-7.5 28.5t-5.5 41q-3 74 -163 116q-48 14 -70 -1t-33 -47q-12 -43 -10.5 -76.5t21.5 -65.5q12 -23 31 -43.5t48.5 -38.5t70.5 -32t98 -23z" />
<glyph unicode="K" horiz-adv-x="975" d="M484 292q60 37 125 79.5t124 84.5t107.5 81t76.5 71q22 25 24.5 42t-10.5 34q-19 21 -39.5 39t-48.5 32t-51 14q-18 0 -40 -17q-31 -25 -82.5 -61.5t-112 -78t-124.5 -85t-121 -82.5q25 66 45.5 120t40.5 96q12 21 3 31.5t-47 25.5q-35 14 -81 26.5t-86 18.5 q-38 7 -58.5 2t-31.5 -27q-16 -37 -34.5 -90.5t-38 -115t-38.5 -126.5t-35 -125.5t-27.5 -112t-15.5 -85.5q-7 -37 21 -55t93 -30q32 -6 59 -11.5t46 -6.5t29.5 4.5t10.5 21.5q15 45 31.5 99t36.5 117q29 -29 63 -58.5t67 -55.5t60.5 -47t43.5 -33q39 -29 78.5 -33t77.5 3 q25 2 50.5 7t43.5 12q32 10 36.5 20.5t-20.5 27.5q-24 18 -55.5 44t-65 56.5t-67.5 63.5t-63 63z" />
<glyph unicode="L" horiz-adv-x="781" d="M561 41q22 3 33.5 6t15 7t1.5 10.5t-8 17.5q-7 17 -18.5 35t-30.5 35q-18 18 -39.5 23.5t-59.5 3.5q-66 -3 -123.5 -7t-122.5 -11q22 64 48 132t53 134t53.5 127t50.5 110q11 20 3 31.5t-43 25.5t-81 25.5t-86 17.5q-38 7 -58.5 2.5t-34.5 -26.5q-20 -41 -41 -91.5 t-41.5 -106.5t-40 -114t-36 -112.5t-28.5 -103t-19 -85.5q-7 -24 4.5 -41.5t36.5 -31.5q33 -18 52.5 -29.5t44.5 -22.5q10 -5 21.5 -9t27 -6.5t38 -1.5t54.5 7q88 12 184.5 24.5t189.5 24.5z" />
<glyph unicode="M" horiz-adv-x="1355" d="M301 457q15 -88 37 -174t47 -155q7 -17 13.5 -28t15 -18t19.5 -11.5t27 -8.5q48 -11 101 -18q20 -3 31.5 -2.5t18.5 3.5t12 9.5t13 17.5q22 34 58.5 83.5t78.5 104t86.5 110t82.5 100.5q-20 -52 -38 -109t-32 -110t-24 -98t-14 -74q-7 -25 4 -40t46 -26q27 -10 62 -17 t70 -12q38 -6 51.5 2t21.5 26q9 35 23.5 85t32.5 107.5t38.5 120t40.5 121.5t39 111.5t35 91.5q11 26 0 40.5t-51 25.5q-58 16 -117.5 27.5t-113.5 19.5q-44 8 -72 6.5t-50.5 -13.5t-43.5 -35t-49 -59q-29 -32 -60.5 -69.5t-62 -75.5t-58.5 -75t-50 -68q-21 87 -33 137.5 t-18 77.5t-7.5 37t-1.5 17q-4 15 -8.5 27t-14.5 22t-27.5 18t-48.5 15q-47 11 -95.5 19t-115.5 14q-45 4 -66 -3t-35 -33q-16 -37 -34.5 -89t-37.5 -111t-38 -121.5t-34.5 -121.5t-27 -111t-15.5 -89q-5 -26 6.5 -40t46.5 -26q28 -10 62.5 -17.5t67.5 -12.5q35 -5 48 0.5 t20 23.5q9 42 23.5 95.5t32.5 112.5t39 121t43 122z" />
<glyph unicode="N" horiz-adv-x="1030" d="M568 314q-16 45 -31.5 93.5t-29.5 93t-25 82t-18 60.5q-8 30 -24.5 45.5t-56.5 25.5q-48 14 -93 23t-92 17q-38 6 -61.5 0t-35.5 -29q-18 -42 -37 -98t-38.5 -118.5t-37.5 -126t-33 -120.5t-26 -102.5t-15 -71.5q-7 -26 2.5 -40.5t41.5 -25.5q32 -14 68 -20.5t71 -12.5 q38 -7 51.5 -2.5t18.5 21.5q9 36 23 83t31 100t35.5 110.5t36.5 113.5q17 -47 36.5 -94t40 -91.5t41 -83.5t40.5 -69q27 -44 90 -60q35 -8 69.5 -14.5t69.5 -11.5q78 -12 86 26q19 69 44 154.5t52 172.5t54.5 168.5t51.5 142.5q4 10 5 19t-3 16.5t-14.5 14.5t-29.5 14 q-23 9 -40 14t-32.5 9t-31 6.5t-34.5 5.5q-40 6 -61.5 0.5t-29.5 -27.5q-33 -85 -68.5 -191.5t-60.5 -221.5z" />
<glyph unicode="O" d="M748 704q-45 21 -111.5 35.5t-139.5 21.5q-27 3 -57 1.5t-60 -6.5t-57.5 -13.5t-49.5 -18.5q-105 -53 -176 -131.5t-105 -164t-29.5 -169.5t50.5 -150q20 -28 57 -50t75 -36q48 -17 107 -25.5t113 -12.5q84 -6 148.5 4.5t122.5 41.5q82 51 135 121.5t80 147t29 152 t-18 137.5q-13 35 -38 63t-76 52zM543 625q27 -5 39.5 -35t14 -72t-7.5 -90t-26 -90q-20 -53 -48.5 -98t-60.5 -76.5t-65 -46.5t-63 -8q-32 7 -48 36t-18.5 69.5t7.5 87.5t30 89q20 41 50.5 85t65 78.5t69 55t61.5 15.5z" />
<glyph unicode="P" horiz-adv-x="1038" d="M279 210q85 15 170 36t162 46.5t142 54.5t109 59q27 18 49.5 37t36 39.5t16.5 43t-9 48.5q-25 51 -65 86t-87 64q-38 22 -89 30.5t-109.5 7.5t-122.5 -9.5t-127 -22t-122.5 -30t-109.5 -32.5q-13 -4 -25 -42.5t-25 -96.5t-26 -126.5t-26.5 -133t-28 -116t-29.5 -74.5 q-11 -26 1.5 -42t38.5 -26.5t62.5 -17t73.5 -13.5q37 -5 50.5 0t21.5 21q14 51 31 103t37 106zM343 382q22 55 42 104.5t42 94.5q49 13 95.5 19.5t84 7t62 -4.5t28.5 -15q11 -18 -6.5 -45t-62.5 -56t-116.5 -57t-168.5 -48z" />
<glyph unicode="Q" horiz-adv-x="1016" d="M807 38q-21 15 -38.5 31t-42.5 33q55 52 89.5 115.5t50 129t13.5 128.5t-19 114q-13 35 -37 63t-75 52q-45 21 -111.5 35.5t-139.5 21.5q-27 3 -57 1.5t-60 -6.5t-57.5 -13.5t-49.5 -18.5q-105 -53 -176 -131.5t-105 -164t-29.5 -169.5t50.5 -150q20 -28 57 -50t75 -36 q48 -17 105 -26t115 -12q54 -2 102 0t90 15l12 -6t14 -8q48 -28 114 -20q27 4 53 10t51 16q28 9 29.5 19t-23.5 27zM389 118q-34 -17 -63 -9q-25 6 -39.5 24t-21.5 44t-6 58t7 67q18 67 54.5 132.5t90.5 119.5q27 27 53.5 45t50 24t41.5 -1.5t27 -31.5q9 -21 11.5 -51.5 t-0.5 -65t-11.5 -69.5t-21.5 -66q-11 -35 -26.5 -66t-37.5 -57q-40 -5 -71 -11t-56 -14q-52 -17 -16 -44l16 -14t19 -14z" />
<glyph unicode="R" horiz-adv-x="1067" d="M273 228q37 -30 82.5 -60.5t91.5 -58.5t89.5 -52t77.5 -40q51 -21 90 -23.5t70 3.5q27 3 45 5.5t43 16.5q22 11 24.5 21t-28.5 27q-37 20 -79 46t-84.5 53.5t-82.5 55.5t-73 52q155 45 262 96.5t149 111.5q15 19 15.5 41.5t-10.5 50.5q-25 51 -65 86t-87 64 q-58 33 -133.5 40.5t-159 -1.5t-170 -29.5t-166.5 -42.5q-23 -7 -46 -47.5t-44.5 -99.5t-40.5 -128.5t-34.5 -135t-27 -119.5t-18.5 -82q-5 -26 4 -41.5t35 -26.5q26 -10 57 -14t69 -11q35 -5 48 0t20 21q18 54 36.5 108.5t40.5 112.5zM427 584q51 15 96.5 21t83.5 6 q78 0 95 -23q9 -14 -12 -40t-68.5 -55t-119.5 -58t-165 -49q26 57 47 106.5t43 91.5z" />
<glyph unicode="S" horiz-adv-x="882" d="M-106 195q-28 -10 -28 -28q0 -16 59 -54q113 -75 223 -105t228 -28q88 1 151 15t105 34.5t67 44t38 44.5q20 28 10.5 52t-39 46t-74.5 42.5t-94.5 41t-99.5 42.5t-90 46q-31 18 -39.5 40t-2 45t25.5 45.5t43 42t50 34.5t48 22q24 11 35 9t13 -12.5t-2.5 -27t-11 -35.5 l-13 -38t-8.5 -33q-12 -72 176 -114q33 -8 50.5 -3.5t31.5 22.5q13 19 25.5 45t22.5 53.5t17 54.5t10 49q-1 12 -3 25.5t-9.5 28t-22.5 29t-42 29.5q-40 22 -99 40t-117 30q-37 7 -72 8t-65 -2t-54 -9.5t-40 -13.5q-46 -17 -92 -42.5t-86 -55t-69.5 -61t-42.5 -59.5 q-20 -34 -20.5 -66t14 -60.5t42.5 -53t65 -43.5q34 -19 76.5 -37.5t85 -36.5t81.5 -34.5t65 -30.5t35 -25t-7 -18q-20 -11 -53 -12.5t-76.5 6t-96 23.5t-110.5 40q-21 9 -47 14t-54.5 6.5t-57.5 -1.5t-55 -10z" />
<glyph unicode="T" horiz-adv-x="975" d="M891 634q20 1 31 3t15 5.5t3 10t-5 15.5q-11 20 -30 41t-45 39q-13 10 -31.5 14.5t-56.5 4.5q-50 -1 -109.5 -3.5t-124 -5.5t-131 -7t-131 -9t-124.5 -10.5t-110 -11.5q-25 -4 -33.5 -10t4.5 -24q14 -17 34.5 -43t47.5 -43q25 -17 45.5 -20.5t53.5 1.5q25 4 60.5 7 t73.5 7q-23 -57 -46 -127t-43 -140t-35 -135t-21 -111q-7 -19 -0.5 -32.5t22.5 -23.5t41 -17t55 -13q31 -6 56 -11t44 -6t30 4t13 19q20 71 45.5 150t53.5 159.5t57 159t56 149.5q64 4 124 7.5t111 6.5z" />
<glyph unicode="U" horiz-adv-x="992" d="M0 102q22 -28 53 -47t66 -33q84 -32 215 -38q66 -3 117.5 3.5t102.5 23.5q71 28 125 87t96.5 142.5t76 188.5t63.5 227q7 21 0.5 32t-44.5 25q-35 12 -77 24.5t-79 18.5t-62.5 1t-27.5 -27q-13 -50 -32 -117.5t-43 -138.5t-52.5 -139.5t-61 -120.5t-68.5 -81.5t-75 -22.5 q-32 6 -42.5 34.5t-6.5 71t20 95.5t38 107.5t47 107.5t47 96q23 49 -46 80q-33 14 -68 25t-73 18q-40 8 -60.5 3.5t-31.5 -26.5q-40 -77 -78.5 -164.5t-61 -172t-20.5 -159t43 -124.5z" />
<glyph unicode="V" horiz-adv-x="1025" d="M968 647q11 18 8.5 31.5t-15.5 24t-34 19.5t-47 18q-25 9 -49 16t-45 8.5t-37 -3.5t-25 -19q-78 -126 -161 -263t-176 -270q-13 67 -24 132.5t-20.5 125.5t-17.5 111.5t-15 91.5q-9 51 -92 69q-35 8 -65.5 11.5t-68.5 3.5q-19 0 -30 -2t-16.5 -6.5t-7 -12t-1.5 -17.5 q13 -167 38 -317.5t65 -279.5q4 -12 12.5 -25t22.5 -26.5t33.5 -25t45.5 -20.5q48 -16 92 -26t95 -20q52 -10 79 -3.5t49 31.5q31 41 68.5 94.5t77.5 113t80 121.5t75 120t62.5 108t43.5 86z" />
<glyph unicode="W" horiz-adv-x="1410" d="M260 254q4 54 11 112.5t14.5 111.5t13.5 95l9 63q3 11 2.5 23t-5.5 23.5t-15.5 21.5t-29.5 17q-33 12 -70.5 18.5t-83.5 12.5q-40 5 -55 -2t-20 -31q-7 -45 -12.5 -100t-9 -114t-5.5 -119.5t-2 -118.5q0 -57 3 -108.5t8 -91.5q2 -28 15.5 -41.5t48.5 -21.5 q38 -8 79 -15.5t86 -12.5q33 -4 53.5 -0.5t38.5 24.5q18 25 45.5 62.5t60 80.5t68 88.5t68.5 86.5q0 -32 4 -67t10 -68.5t12 -63t10 -49.5q5 -21 22 -38.5t59 -27.5q21 -3 37 -6.5t33 -6.5t36 -6.5t46 -6.5q48 -6 73 -0.5t39 24.5q24 41 55.5 93t67 109.5t73.5 117.5 t75 116.5t72 107.5t64 89q14 20 12 40.5t-34 37.5q-55 25 -119 42q-21 5 -35 7t-24.5 0.5t-19.5 -8t-18 -18.5q-20 -27 -56.5 -79.5t-81.5 -118t-93 -138t-90 -138.5q4 53 9 107.5t9.5 101.5t7.5 82t3 49q0 12 -1 21t-5.5 15t-15 11t-29.5 10q-17 4 -31.5 7.5t-28.5 6.5 t-29 5.5t-34 5.5q-38 5 -56.5 0t-33.5 -22q-21 -21 -57.5 -66.5t-79.5 -103t-88.5 -120.5t-84.5 -118z" />
<glyph unicode="X" horiz-adv-x="1038" d="M442 545q-28 42 -53.5 80t-45.5 70q-18 22 -41.5 36t-68.5 17q-21 1 -42 1.5t-39 0.5h-38h-20q-9 0 -17 -1q-38 -3 -46.5 -12t4.5 -34q16 -25 38 -59t48.5 -73.5t56 -83t60.5 -87.5q-51 -40 -98.5 -80t-90 -77t-78.5 -70t-63 -60q-22 -21 -22 -36q0 -9 13.5 -22 t33.5 -26.5t43 -25.5t42 -20q57 -26 94 5q51 42 116.5 98.5t143.5 119.5q46 -66 80 -111.5t52 -62.5q12 -12 23 -20.5t23.5 -14t27 -9t34.5 -4.5q81 -4 154 0q33 3 39.5 12.5t-11.5 28.5q-46 66 -102 149t-118 174q100 78 188.5 146.5t154.5 119.5q22 17 27 35.5t-20 39.5 q-20 17 -49 37t-61 34q-31 11 -57 11t-51 -17q-51 -36 -117.5 -89.5t-146.5 -119.5z" />
<glyph unicode="Y" horiz-adv-x="955" d="M889 644q18 25 16 39t-27 31q-21 12 -51.5 26t-60.5 23t-55 8t-36 -20q-64 -72 -131.5 -145.5t-138.5 -145.5q-35 72 -67 135t-61 111q-9 12 -17 21t-18 15.5t-23 10.5t-32 7q-38 5 -75 4t-75 -3q-35 -3 -41.5 -10.5t4.5 -28.5q20 -44 45.5 -97.5t53.5 -110.5t57 -114.5 t55 -111.5q-18 -63 -29.5 -117.5t-23.5 -96.5q-5 -26 5 -39.5t42 -27.5q31 -9 69.5 -17.5t73.5 -15.5q37 -6 50.5 -1.5t21.5 24.5q15 54 32.5 110.5t42.5 119.5q59 57 120.5 118t115.5 117t96 103.5t62 78.5z" />
<glyph unicode="Z" horiz-adv-x="825" d="M436 601q-77 -60 -157.5 -128.5t-153.5 -134.5t-133 -124.5t-95 -97.5q-11 -12 -11.5 -22t5.5 -19t16 -17t20 -15q32 -18 53 -30t46 -24q12 -6 24.5 -10t28.5 -6.5t37 -1.5t51 6q44 7 93 13.5t99.5 13t100.5 12.5t97 12q38 3 48.5 11t-0.5 28q-13 33 -51 71 q-14 16 -41.5 22.5t-65.5 3.5q-58 -5 -110.5 -10.5t-105.5 -13.5q134 115 275.5 232t274.5 223q25 19 26 35.5t-11 34.5q-8 14 -16.5 30t-27.5 37q-14 17 -33 24t-57 6q-70 -2 -148.5 -5.5t-156.5 -8.5t-151 -12t-131 -15q-25 -5 -32.5 -11.5t3.5 -24.5q14 -18 35.5 -42 t35.5 -38q25 -18 54 -23t64 -1q47 6 95 10t106 10z" />
<glyph unicode="[" horiz-adv-x="669" d="M460 35q-12 17 -19 33t-25 33q-30 32 -97 27q-25 -1 -47.5 -2t-47.5 -2q18 57 40 121t46.5 128.5t50 126.5t50.5 116q45 2 88.5 5t81.5 5q35 3 46 10t0 26q-8 18 -18 33t-28 33q-15 17 -36.5 26t-56.5 8q-53 -1 -115 -3t-122 -7q-64 -5 -77 -36q-29 -62 -59 -141 t-57.5 -161t-50.5 -161t-36 -141q-6 -29 3.5 -46t29.5 -32q22 -11 41 -22t41 -20q25 -11 53 -15.5t70 0.5q51 6 105.5 12t99.5 11q38 0 47.5 8t-1.5 27z" />
<glyph unicode="\" horiz-adv-x="788" d="M233 768q-40 5 -74.5 6t-72.5 0q-77 -2 -60 -43q13 -39 38 -97.5t56.5 -126t66.5 -139t69.5 -137.5t65 -120.5t52.5 -88.5q9 -12 17.5 -21t18.5 -15.5t22.5 -10t29.5 -4.5q30 -3 59 -3q30 0 62 2q38 2 46.5 10t-2.5 25q-22 43 -50 102.5t-58.5 126t-61 136.5t-58 135 t-49.5 121t-35 95q-6 12 -12 19.5t-14.5 13t-21.5 8.5t-34 6z" />
<glyph unicode="]" horiz-adv-x="700" d="M574 631q7 18 4 30.5t-28 29.5q-18 14 -35 25.5t-35 22.5q-22 14 -43 19t-59 3q-72 -3 -136.5 -7t-116.5 -10q-32 -3 -41.5 -13.5t-5 -25.5t19 -32t30.5 -33q14 -18 34 -23.5t60 -3.5q18 1 35 2.5t36 2.5q-22 -54 -46.5 -117t-49 -128.5t-46 -129.5t-37.5 -118 q-42 -4 -87 -10t-78 -11q-64 -11 -30 -43q14 -17 29 -32.5t30 -27.5q18 -12 37.5 -17.5t59.5 -1.5q46 5 95 9t101 9q24 0 38.5 3t23 7.5t12.5 10.5t7 13q20 61 46.5 140t55.5 160.5t60 159.5t60 137z" />
<glyph unicode="^" horiz-adv-x="983" d="M722 353q31 -1 40 5.5t1 23.5q-13 28 -30 64.5t-34 76.5t-32.5 81t-26.5 79q-7 24 -17 34.5t-31 24.5q-22 11 -47.5 21t-51.5 21q-25 8 -45.5 7.5t-47.5 -17.5q-51 -29 -103 -64t-99.5 -70t-87.5 -67t-66 -56q-31 -26 2 -54q20 -17 38 -29t39 -24q23 -13 38 -13 q19 0 35 13q51 38 111.5 83t132.5 91q25 -54 46.5 -102t41.5 -80q23 -32 77 -40q33 -5 61.5 -6.5t55.5 -2.5z" />
<glyph unicode="_" horiz-adv-x="946" d="M4 -220h984q26 -2 42 3.5t25 15t14 21t9 22.5q5 12 10 23t2.5 19.5t-14.5 13.5t-42 4h-981q-33 0 -50 -7t-25 -25q-8 -15 -12.5 -29t-9.5 -28q-8 -18 4.5 -25.5t43.5 -7.5z" />
<glyph unicode="`" horiz-adv-x="869" d="M191 972q36 -14 86 -31t108.5 -34t121 -33.5t122.5 -28.5q26 -7 57 -3t69 17q-1 -1 7 3t14 11t3.5 15.5t-24.5 16.5q-51 13 -103 28t-102.5 31t-97.5 33t-87 35q-21 10 -49.5 9.5t-73.5 -14.5q-25 -7 -35.5 -20.5t-15.5 -34.5z" />
<glyph unicode="a" horiz-adv-x="1054" d="M605 186q10 -77 24 -136q7 -28 21.5 -39t49.5 -18q35 -8 67.5 -9.5t70.5 -1.5t48.5 7t8.5 25q-9 84 -16.5 176.5t-12.5 181.5t-6.5 168.5t0.5 136.5q1 23 -11 37.5t-53 22.5l-58 10t-63 9.5t-74.5 8t-92.5 5.5q-59 3 -90 -10t-51 -34q-37 -40 -78.5 -90t-85 -105.5 t-87 -113.5t-83.5 -114.5t-75 -109t-61 -96.5q-11 -21 -11.5 -33.5t6 -20.5t19.5 -13.5t30 -13.5q21 -8 44 -14.5t41 -11.5q33 -8 49.5 -5t30.5 20q21 32 44 65.5t55 71.5q40 7 87.5 13t99.5 11t106 10t107 10zM334 316q65 85 127 160.5t113 135.5q0 -66 4 -136t9 -142 q-127 -6 -253 -18z" />
<glyph unicode="b" d="M689 364q45 16 78 32t65 32q29 16 53 34.5t40 39.5t21 43.5t-4 46.5q-19 43 -52.5 74.5t-79.5 59.5q-35 20 -89.5 30.5t-119.5 12.5t-136.5 -2.5t-141.5 -14.5t-134 -24t-114 -30q-7 -62 -23 -134.5t-34.5 -146t-35.5 -144t-26 -128.5q-4 -18 -2.5 -30t8 -21.5t18 -18 t27.5 -20.5q21 -12 38.5 -21t34.5 -16.5t35.5 -14.5t40.5 -13q22 -9 40 -13.5t36 -5.5t38.5 1.5t48.5 7.5q52 9 110.5 22.5t115.5 30.5t108 37.5t88 43.5q52 29 75 59.5t11 72.5q-11 35 -47.5 67.5t-90.5 50.5zM328 427q18 45 33 85t33 75q56 16 104.5 24t86 9.5t61 -4 t29.5 -15.5q7 -13 -14.5 -35t-66.5 -47t-112.5 -49.5t-153.5 -42.5zM271 278q56 12 102 16t80 1.5t55.5 -9.5t28.5 -17q6 -16 -14.5 -35t-62.5 -38.5t-103.5 -37t-136.5 -30.5q11 38 24 75t27 75z" />
<glyph unicode="c" horiz-adv-x="942" d="M684 206q-135 25 -218 -32q-114 -82 -173 -68q-30 6 -45 32t-17 64.5t7.5 84.5t29.5 91q20 42 53 89t70 86t73 63t62 19q26 -6 31.5 -27.5t5.5 -47.5q0 -14 5 -32q6 -21 18.5 -37.5t34 -29t52.5 -21t75 -14.5q23 -3 36.5 -2t21 4.5t11.5 9.5t8 13q7 15 11.5 34t6.5 40 t2 42t-2 39q-5 32 -24 57t-71 50q-26 10 -58.5 20t-68.5 18t-74 13.5t-74 7.5q-48 2 -103.5 -6t-109.5 -36q-69 -36 -125.5 -85.5t-98.5 -107t-68.5 -119t-34.5 -121t3 -112.5t44 -94q10 -14 25 -26t33 -22.5t37.5 -18.5t38.5 -14q45 -10 101 -21.5t124 -15.5q33 -2 67 0 t66 7.5t60 13.5t49 17q40 20 79 50t64 65q10 15 15.5 27.5t2.5 22.5t-17 17.5t-41 12.5z" />
<glyph unicode="d" horiz-adv-x="1076" d="M75 706l-123 -551q-7 -24 -5 -39.5t10 -26.5t20.5 -19.5t26.5 -17.5q38 -20 68 -33.5t71 -27.5q80 -29 156 -9q146 28 257.5 73t190 100t125 116t63 121.5t3 117t-55.5 101.5q-46 53 -110 85t-137.5 48t-151.5 18.5t-152 -4.5t-140.5 -21.5t-115.5 -30.5zM227 138 q38 121 78.5 235t88.5 223q85 17 144.5 3.5t84.5 -41.5q11 -14 17.5 -34t4.5 -46q-3 -38 -26.5 -84t-73.5 -92t-128.5 -89t-189.5 -75z" />
<glyph unicode="e" horiz-adv-x="847" d="M99 710l-167 -578q-5 -26 7 -45t37 -33q28 -18 50 -29.5t47 -22.5q10 -5 22.5 -9t28.5 -6t37.5 -1.5t51.5 5.5q88 11 184.5 24t189.5 25q38 5 45 12.5t-1 27.5q-11 18 -21.5 35t-28.5 36q-15 17 -38 23t-61 4q-71 -3 -132.5 -7.5t-127.5 -12.5q12 26 22.5 53.5t21.5 56.5 q81 11 167.5 20.5t171.5 19.5q38 5 46.5 12t-2.5 28q-8 18 -18 35t-28 35q-15 17 -37 22.5t-60 4.5q-45 -1 -85 -2.5t-82 -5.5q21 45 38.5 86t36.5 78q93 8 176.5 14t161.5 11q38 3 48 10.5t3 28.5q-8 18 -16 33t-26 34q-22 35 -94 34q-77 -2 -154 -7.5t-150.5 -13.5 t-140.5 -17t-123 -18z" />
<glyph unicode="f" horiz-adv-x="836" d="M750 626q38 3 46.5 10t2.5 28q-11 36 -47 69q-12 10 -22.5 17t-21.5 10.5t-24.5 4.5t-32.5 1q-76 -2 -154.5 -6t-154 -9.5t-144 -13t-123.5 -16.5q2 -39 -7 -93.5t-24.5 -116.5t-34.5 -126t-36.5 -122t-31.5 -105t-18 -74q-1 -13 -0.5 -23t5 -17.5t14.5 -13.5t27 -12 q28 -8 64.5 -17t70 -13t57 0t26.5 22q18 54 41 121.5t51 139.5q78 11 159.5 21t159.5 18q38 3 48 11t-1 28q-8 17 -18 34.5t-29 35.5q-29 30 -96 27q-42 -1 -81.5 -3t-79.5 -5q22 46 36 87.5t32 74.5q93 8 178 14t163 12z" />
<glyph unicode="g" horiz-adv-x="972" d="M834 448q4 14 7 34t4 41.5t0 43.5t-5 39q-8 32 -28.5 57.5t-65.5 46.5q-23 12 -53 21.5t-63 17t-67.5 12.5t-67.5 8q-47 4 -103.5 0t-103.5 -25q-74 -33 -136 -81t-108 -104.5t-76 -117.5t-41 -121t-1 -114.5t43 -97.5q18 -28 53 -51.5t73 -37.5q102 -32 217 -42 q129 -14 236 27q79 33 145 93t112 145q12 25 10 41t-27 37q-14 11 -29 24t-33 24q-25 17 -54 22t-76 1q-40 -4 -94.5 -8.5t-105.5 -11.5q-26 -3 -48.5 -5t-37.5 -6t-21.5 -10.5t-0.5 -18.5q25 -51 70.5 -73.5t129.5 -19.5q-22 -31 -47.5 -58.5t-52.5 -46.5t-54.5 -28 t-54.5 -3q-30 7 -46 35.5t-17.5 69t10 87.5t36.5 90q26 52 62 99t74 81.5t74 53.5t63 14q13 -2 18 -13t10 -26q2 -8 3.5 -16.5t1.5 -17.5t1 -17t3 -16q8 -43 53.5 -70t140.5 -35q34 -2 47 4t21 23z" />
<glyph unicode="h" horiz-adv-x="994" d="M942 664q8 20 0.5 31.5t-42.5 25.5q-38 14 -78 25.5t-78 17.5q-40 7 -60.5 3.5t-32.5 -28.5q-26 -66 -54 -152t-60 -177q-51 -2 -106.5 -5t-113.5 -7q28 75 52.5 140t46.5 111q8 21 1 32.5t-45 25.5q-35 14 -81.5 26t-85.5 19q-38 8 -57.5 4t-30.5 -29 q-20 -67 -41.5 -151.5t-44.5 -172t-48 -171t-51 -149.5q-12 -26 1.5 -40.5t46.5 -25.5q26 -11 65 -18t74 -14q19 -3 31 -3.5t19.5 2t12 8t7.5 14.5q15 48 31.5 107t41.5 125q58 6 115.5 11t115.5 11q-15 -54 -26 -99.5t-16 -80.5q-7 -18 -1 -31t21.5 -22.5t39.5 -16.5 t54 -13q30 -5 56 -9.5t44.5 -5.5t29.5 4t11 19q24 81 54 171t61.5 178t62.5 168t58 142z" />
<glyph unicode="i" horiz-adv-x="458" d="M352 707q-35 14 -81 26.5t-86 18.5q-40 7 -59.5 2t-30.5 -27q-16 -37 -34 -90t-37 -113t-37 -124t-33 -123t-26.5 -109.5t-15.5 -84.5q-5 -26 5 -40.5t43 -25.5q32 -11 66.5 -18t72.5 -14q38 -6 51 -1t19 22q13 44 30 98.5t36.5 113.5t40.5 120t42 117.5t41 106.5t37 87 q4 10 5 18t-3.5 14.5t-15.5 12.5t-30 13z" />
<glyph unicode="j" horiz-adv-x="920" d="M202 -13q55 -9 100 -10.5t82 2.5t66.5 12t55.5 19q63 28 114 86.5t91.5 142.5t71.5 190.5t55 231.5q3 10 2.5 17.5t-5.5 14t-15.5 12t-29.5 13.5q-38 14 -86 24.5t-86 17.5q-40 6 -60.5 1t-27.5 -28q-11 -50 -26.5 -116.5t-35.5 -137t-43 -138t-49 -121t-54 -85.5 t-58 -31q-17 1 -27 7t-15 17.5t-7.5 28.5t-5.5 41q-3 74 -163 116q-48 14 -70 -1t-33 -47q-12 -43 -10.5 -76.5t21.5 -65.5q12 -23 31 -43.5t48.5 -38.5t70.5 -32t98 -23z" />
<glyph unicode="k" horiz-adv-x="975" d="M484 292q60 37 125 79.5t124 84.5t107.5 81t76.5 71q22 25 24.5 42t-10.5 34q-19 21 -39.5 39t-48.5 32t-51 14q-18 0 -40 -17q-31 -25 -82.5 -61.5t-112 -78t-124.5 -85t-121 -82.5q25 66 45.5 120t40.5 96q12 21 3 31.5t-47 25.5q-35 14 -81 26.5t-86 18.5 q-38 7 -58.5 2t-31.5 -27q-16 -37 -34.5 -90.5t-38 -115t-38.5 -126.5t-35 -125.5t-27.5 -112t-15.5 -85.5q-7 -37 21 -55t93 -30q32 -6 59 -11.5t46 -6.5t29.5 4.5t10.5 21.5q15 45 31.5 99t36.5 117q29 -29 63 -58.5t67 -55.5t60.5 -47t43.5 -33q39 -29 78.5 -33t77.5 3 q25 2 50.5 7t43.5 12q32 10 36.5 20.5t-20.5 27.5q-24 18 -55.5 44t-65 56.5t-67.5 63.5t-63 63z" />
<glyph unicode="l" horiz-adv-x="781" d="M561 41q22 3 33.5 6t15 7t1.5 10.5t-8 17.5q-7 17 -18.5 35t-30.5 35q-18 18 -39.5 23.5t-59.5 3.5q-66 -3 -123.5 -7t-122.5 -11q22 64 48 132t53 134t53.5 127t50.5 110q11 20 3 31.5t-43 25.5t-81 25.5t-86 17.5q-38 7 -58.5 2.5t-34.5 -26.5q-20 -41 -41 -91.5 t-41.5 -106.5t-40 -114t-36 -112.5t-28.5 -103t-19 -85.5q-7 -24 4.5 -41.5t36.5 -31.5q33 -18 52.5 -29.5t44.5 -22.5q10 -5 21.5 -9t27 -6.5t38 -1.5t54.5 7q88 12 184.5 24.5t189.5 24.5z" />
<glyph unicode="m" horiz-adv-x="1355" d="M301 457q15 -88 37 -174t47 -155q7 -17 13.5 -28t15 -18t19.5 -11.5t27 -8.5q48 -11 101 -18q20 -3 31.5 -2.5t18.5 3.5t12 9.5t13 17.5q22 34 58.5 83.5t78.5 104t86.5 110t82.5 100.5q-20 -52 -38 -109t-32 -110t-24 -98t-14 -74q-7 -25 4 -40t46 -26q27 -10 62 -17 t70 -12q38 -6 51.5 2t21.5 26q9 35 23.5 85t32.5 107.5t38.5 120t40.5 121.5t39 111.5t35 91.5q11 26 0 40.5t-51 25.5q-58 16 -117.5 27.5t-113.5 19.5q-44 8 -72 6.5t-50.5 -13.5t-43.5 -35t-49 -59q-29 -32 -60.5 -69.5t-62 -75.5t-58.5 -75t-50 -68q-21 87 -33 137.5 t-18 77.5t-7.5 37t-1.5 17q-4 15 -8.5 27t-14.5 22t-27.5 18t-48.5 15q-47 11 -95.5 19t-115.5 14q-45 4 -66 -3t-35 -33q-16 -37 -34.5 -89t-37.5 -111t-38 -121.5t-34.5 -121.5t-27 -111t-15.5 -89q-5 -26 6.5 -40t46.5 -26q28 -10 62.5 -17.5t67.5 -12.5q35 -5 48 0.5 t20 23.5q9 42 23.5 95.5t32.5 112.5t39 121t43 122z" />
<glyph unicode="n" horiz-adv-x="1030" d="M568 314q-16 45 -31.5 93.5t-29.5 93t-25 82t-18 60.5q-8 30 -24.5 45.5t-56.5 25.5q-48 14 -93 23t-92 17q-38 6 -61.5 0t-35.5 -29q-18 -42 -37 -98t-38.5 -118.5t-37.5 -126t-33 -120.5t-26 -102.5t-15 -71.5q-7 -26 2.5 -40.5t41.5 -25.5q32 -14 68 -20.5t71 -12.5 q38 -7 51.5 -2.5t18.5 21.5q9 36 23 83t31 100t35.5 110.5t36.5 113.5q17 -47 36.5 -94t40 -91.5t41 -83.5t40.5 -69q27 -44 90 -60q35 -8 69.5 -14.5t69.5 -11.5q78 -12 86 26q19 69 44 154.5t52 172.5t54.5 168.5t51.5 142.5q4 10 5 19t-3 16.5t-14.5 14.5t-29.5 14 q-23 9 -40 14t-32.5 9t-31 6.5t-34.5 5.5q-40 6 -61.5 0.5t-29.5 -27.5q-33 -85 -68.5 -191.5t-60.5 -221.5z" />
<glyph unicode="o" d="M748 704q-45 21 -111.5 35.5t-139.5 21.5q-27 3 -57 1.5t-60 -6.5t-57.5 -13.5t-49.5 -18.5q-105 -53 -176 -131.5t-105 -164t-29.5 -169.5t50.5 -150q20 -28 57 -50t75 -36q48 -17 107 -25.5t113 -12.5q84 -6 148.5 4.5t122.5 41.5q82 51 135 121.5t80 147t29 152 t-18 137.5q-13 35 -38 63t-76 52zM543 625q27 -5 39.5 -35t14 -72t-7.5 -90t-26 -90q-20 -53 -48.5 -98t-60.5 -76.5t-65 -46.5t-63 -8q-32 7 -48 36t-18.5 69.5t7.5 87.5t30 89q20 41 50.5 85t65 78.5t69 55t61.5 15.5z" />
<glyph unicode="p" horiz-adv-x="1038" d="M279 210q85 15 170 36t162 46.5t142 54.5t109 59q27 18 49.5 37t36 39.5t16.5 43t-9 48.5q-25 51 -65 86t-87 64q-38 22 -89 30.5t-109.5 7.5t-122.5 -9.5t-127 -22t-122.5 -30t-109.5 -32.5q-13 -4 -25 -42.5t-25 -96.5t-26 -126.5t-26.5 -133t-28 -116t-29.5 -74.5 q-11 -26 1.5 -42t38.5 -26.5t62.5 -17t73.5 -13.5q37 -5 50.5 0t21.5 21q14 51 31 103t37 106zM343 382q22 55 42 104.5t42 94.5q49 13 95.5 19.5t84 7t62 -4.5t28.5 -15q11 -18 -6.5 -45t-62.5 -56t-116.5 -57t-168.5 -48z" />
<glyph unicode="q" horiz-adv-x="1016" d="M807 38q-21 15 -38.5 31t-42.5 33q55 52 89.5 115.5t50 129t13.5 128.5t-19 114q-13 35 -37 63t-75 52q-45 21 -111.5 35.5t-139.5 21.5q-27 3 -57 1.5t-60 -6.5t-57.5 -13.5t-49.5 -18.5q-105 -53 -176 -131.5t-105 -164t-29.5 -169.5t50.5 -150q20 -28 57 -50t75 -36 q48 -17 105 -26t115 -12q54 -2 102 0t90 15l12 -6t14 -8q48 -28 114 -20q27 4 53 10t51 16q28 9 29.5 19t-23.5 27zM389 118q-34 -17 -63 -9q-25 6 -39.5 24t-21.5 44t-6 58t7 67q18 67 54.5 132.5t90.5 119.5q27 27 53.5 45t50 24t41.5 -1.5t27 -31.5q9 -21 11.5 -51.5 t-0.5 -65t-11.5 -69.5t-21.5 -66q-11 -35 -26.5 -66t-37.5 -57q-40 -5 -71 -11t-56 -14q-52 -17 -16 -44l16 -14t19 -14z" />
<glyph unicode="r" horiz-adv-x="1067" d="M273 228q37 -30 82.5 -60.5t91.5 -58.5t89.5 -52t77.5 -40q51 -21 90 -23.5t70 3.5q27 3 45 5.5t43 16.5q22 11 24.5 21t-28.5 27q-37 20 -79 46t-84.5 53.5t-82.5 55.5t-73 52q155 45 262 96.5t149 111.5q15 19 15.5 41.5t-10.5 50.5q-25 51 -65 86t-87 64 q-58 33 -133.5 40.5t-159 -1.5t-170 -29.5t-166.5 -42.5q-23 -7 -46 -47.5t-44.5 -99.5t-40.5 -128.5t-34.5 -135t-27 -119.5t-18.5 -82q-5 -26 4 -41.5t35 -26.5q26 -10 57 -14t69 -11q35 -5 48 0t20 21q18 54 36.5 108.5t40.5 112.5zM427 584q51 15 96.5 21t83.5 6 q78 0 95 -23q9 -14 -12 -40t-68.5 -55t-119.5 -58t-165 -49q26 57 47 106.5t43 91.5z" />
<glyph unicode="s" horiz-adv-x="882" d="M-106 198q-28 -10 -28 -28t61 -55q113 -75 223.5 -106t230.5 -29q88 1 150.5 15t104.5 35t67 45t38 45q20 29 11 53.5t-38.5 47t-74.5 43t-95 41.5t-100.5 43t-91.5 47q-30 18 -38.5 40.5t-2 46t25 46.5t43 42.5t51 35t49.5 22.5q24 11 35 9t13 -12.5t-2 -27.5t-11 -36 t-13.5 -38.5t-8.5 -34.5q-13 -73 176 -115q35 -9 52 -4t31 22q13 19 26 45.5t23 55t17 56.5t9 49q-1 12 -2.5 26t-9 28.5t-23 29.5t-42.5 30q-42 22 -101 40.5t-117 30.5q-38 7 -73 8t-65.5 -2t-54.5 -9.5t-40 -13.5q-47 -17 -93.5 -43t-86.5 -56t-69.5 -61.5t-42.5 -61.5 q-20 -35 -20.5 -67t14 -60.5t42.5 -53.5t65 -45q34 -19 77.5 -38t86.5 -37.5t82 -35t65 -30.5t35.5 -25.5t-7.5 -18.5q-40 -22 -130 -7.5t-209 65.5q-21 9 -47 14t-54.5 6.5t-57.5 -2t-55 -10.5z" />
<glyph unicode="t" horiz-adv-x="975" d="M891 634q20 1 31 3t15 5.5t3 10t-5 15.5q-11 20 -30 41t-45 39q-13 10 -31.5 14.5t-56.5 4.5q-50 -1 -109.5 -3.5t-124 -5.5t-131 -7t-131 -9t-124.5 -10.5t-110 -11.5q-25 -4 -33.5 -10t4.5 -24q14 -17 34.5 -43t47.5 -43q25 -17 45.5 -20.5t53.5 1.5q25 4 60.5 7 t73.5 7q-23 -57 -46 -127t-43 -140t-35 -135t-21 -111q-7 -19 -0.5 -32.5t22.5 -23.5t41 -17t55 -13q31 -6 56 -11t44 -6t30 4t13 19q20 71 45.5 150t53.5 159.5t57 159t56 149.5q64 4 124 7.5t111 6.5z" />
<glyph unicode="u" horiz-adv-x="992" d="M0 102q22 -28 53 -47t66 -33q84 -32 215 -38q66 -3 117.5 3.5t102.5 23.5q71 28 125 87t96.5 142.5t76 188.5t63.5 227q7 21 0.5 32t-44.5 25q-35 12 -77 24.5t-79 18.5t-62.5 1t-27.5 -27q-13 -50 -32 -117.5t-43 -138.5t-52.5 -139.5t-61 -120.5t-68.5 -81.5t-75 -22.5 q-32 6 -42.5 34.5t-6.5 71t20 95.5t38 107.5t47 107.5t47 96q23 49 -46 80q-33 14 -68 25t-73 18q-40 8 -60.5 3.5t-31.5 -26.5q-40 -77 -78.5 -164.5t-61 -172t-20.5 -159t43 -124.5z" />
<glyph unicode="v" horiz-adv-x="1025" d="M968 647q11 18 8.5 31.5t-15.5 24t-34 19.5t-47 18q-25 9 -49 16t-45 8.5t-37 -3.5t-25 -19q-78 -126 -161 -263t-176 -270q-13 67 -24 132.5t-20.5 125.5t-17.5 111.5t-15 91.5q-9 51 -92 69q-35 8 -65.5 11.5t-68.5 3.5q-19 0 -30 -2t-16.5 -6.5t-7 -12t-1.5 -17.5 q13 -167 38 -317.5t65 -279.5q4 -12 12.5 -25t22.5 -26.5t33.5 -25t45.5 -20.5q48 -16 92 -26t95 -20q52 -10 79 -3.5t49 31.5q31 41 68.5 94.5t77.5 113t80 121.5t75 120t62.5 108t43.5 86z" />
<glyph unicode="w" horiz-adv-x="1410" d="M260 254q4 54 11 112.5t14.5 111.5t13.5 95l9 63q3 11 2.5 23t-5.5 23.5t-15.5 21.5t-29.5 17q-33 12 -70.5 18.5t-83.5 12.5q-40 5 -55 -2t-20 -31q-7 -45 -12.5 -100t-9 -114t-5.5 -119.5t-2 -118.5q0 -57 3 -108.5t8 -91.5q2 -28 15.5 -41.5t48.5 -21.5 q38 -8 79 -15.5t86 -12.5q33 -4 53.5 -0.5t38.5 24.5q18 25 45.5 62.5t60 80.5t68 88.5t68.5 86.5q0 -32 4 -67t10 -68.5t12 -63t10 -49.5q5 -21 22 -38.5t59 -27.5q21 -3 37 -6.5t33 -6.5t36 -6.5t46 -6.5q48 -6 73 -0.5t39 24.5q24 41 55.5 93t67 109.5t73.5 117.5 t75 116.5t72 107.5t64 89q14 20 12 40.5t-34 37.5q-55 25 -119 42q-21 5 -35 7t-24.5 0.5t-19.5 -8t-18 -18.5q-20 -27 -56.5 -79.5t-81.5 -118t-93 -138t-90 -138.5q4 53 9 107.5t9.5 101.5t7.5 82t3 49q0 12 -1 21t-5.5 15t-15 11t-29.5 10q-17 4 -31.5 7.5t-28.5 6.5 t-29 5.5t-34 5.5q-38 5 -56.5 0t-33.5 -22q-21 -21 -57.5 -66.5t-79.5 -103t-88.5 -120.5t-84.5 -118z" />
<glyph unicode="x" horiz-adv-x="1038" d="M442 545q-28 42 -53.5 80t-45.5 70q-18 22 -41.5 36t-68.5 17q-21 1 -42 1.5t-39 0.5h-38h-20q-9 0 -17 -1q-38 -3 -46.5 -12t4.5 -34q16 -25 38 -59t48.5 -73.5t56 -83t60.5 -87.5q-51 -40 -98.5 -80t-90 -77t-78.5 -70t-63 -60q-22 -21 -22 -36q0 -9 13.5 -22 t33.5 -26.5t43 -25.5t42 -20q57 -26 94 5q51 42 116.5 98.5t143.5 119.5q46 -66 80 -111.5t52 -62.5q12 -12 23 -20.5t23.5 -14t27 -9t34.5 -4.5q81 -4 154 0q33 3 39.5 12.5t-11.5 28.5q-46 66 -102 149t-118 174q100 78 188.5 146.5t154.5 119.5q22 17 27 35.5t-20 39.5 q-20 17 -49 37t-61 34q-31 11 -57 11t-51 -17q-51 -36 -117.5 -89.5t-146.5 -119.5z" />
<glyph unicode="y" horiz-adv-x="955" d="M889 644q18 25 16 39t-27 31q-21 12 -51.5 26t-60.5 23t-55 8t-36 -20q-64 -72 -131.5 -145.5t-138.5 -145.5q-35 72 -67 135t-61 111q-9 12 -17 21t-18 15.5t-23 10.5t-32 7q-38 5 -75 4t-75 -3q-35 -3 -41.5 -10.5t4.5 -28.5q20 -44 45.5 -97.5t53.5 -110.5t57 -114.5 t55 -111.5q-18 -63 -29.5 -117.5t-23.5 -96.5q-5 -26 5 -39.5t42 -27.5q31 -9 69.5 -17.5t73.5 -15.5q37 -6 50.5 -1.5t21.5 24.5q15 54 32.5 110.5t42.5 119.5q59 57 120.5 118t115.5 117t96 103.5t62 78.5z" />
<glyph unicode="z" horiz-adv-x="825" d="M436 601q-77 -60 -157.5 -128.5t-153.5 -134.5t-133 -124.5t-95 -97.5q-11 -12 -11.5 -22t5.5 -19t16 -17t20 -15q32 -18 53 -30t46 -24q12 -6 24.5 -10t28.5 -6.5t37 -1.5t51 6q44 7 93 13.5t99.5 13t100.5 12.5t97 12q38 3 48.5 11t-0.5 28q-13 33 -51 71 q-14 16 -41.5 22.5t-65.5 3.5q-58 -5 -110.5 -10.5t-105.5 -13.5q134 115 275.5 232t274.5 223q25 19 26 35.5t-11 34.5q-8 14 -16.5 30t-27.5 37q-14 17 -33 24t-57 6q-70 -2 -148.5 -5.5t-156.5 -8.5t-151 -12t-131 -15q-25 -5 -32.5 -11.5t3.5 -24.5q14 -18 35.5 -42 t35.5 -38q25 -18 54 -23t64 -1q47 6 95 10t106 10z" />
<glyph unicode="{" horiz-adv-x="746" d="M539 35q-8 17 -18 33t-28 33q-30 32 -95 27q-25 -1 -47 -2t-47 -2q17 57 38.5 121t45.5 128.5t49.5 127t50.5 115.5q47 2 89.5 5t80.5 5q38 3 47.5 10t-1.5 26q-8 18 -17 33t-27 33q-31 35 -95 34q-53 -1 -115 -3t-120 -7q-38 -2 -54.5 -11t-24.5 -25q-25 -57 -51 -126 t-55 -145q-45 -4 -82 -7t-63 -8q-48 -7 -31 -39q12 -18 28.5 -41t37.5 -40q18 -12 28.5 -17t28.5 -6q-28 -100 -50 -175q-7 -29 2 -46t37 -32q22 -11 42 -22t40 -20q25 -11 52 -16.5t73 1.5q51 6 104.5 12t100.5 11q38 0 47.5 8t-1.5 27z" />
<glyph unicode="|" horiz-adv-x="788" d="M513 774q-35 14 -69.5 22t-69.5 16q-38 8 -58.5 3t-31.5 -27q-16 -38 -37 -99.5t-44 -135t-47 -152.5t-44 -151t-35.5 -132t-21.5 -94q-5 -24 4 -38t42 -25q26 -8 54 -15t63 -14q37 -6 49.5 -0.5t20.5 24.5q11 42 30.5 104t44 134t52 148.5t53.5 147t48.5 130t37.5 96.5 q12 21 4.5 32.5t-45.5 25.5z" />
<glyph unicode="}" horiz-adv-x="829" d="M574 631q7 18 4 30.5t-28 29.5q-18 14 -35 25.5t-35 22.5q-22 14 -43 19t-59 3q-72 -3 -136.5 -7t-116.5 -10q-13 -2 -25 -4.5t-19.5 -7t-9.5 -11t4 -15.5q11 -17 21.5 -33t28.5 -33q9 -9 18 -15t20 -9t25 -3.5t34 0.5q18 1 35 2.5t36 2.5q-22 -54 -46.5 -117t-49 -128.5 t-46 -129.5t-37.5 -118q-34 -3 -68.5 -6.5t-63 -8t-48.5 -10t-24 -12.5q-4 -6 3 -18t18.5 -25t25 -25t21.5 -19q18 -12 37.5 -17.5t57.5 -1.5q46 5 95 9t100 9q24 0 39 3t24 7.5t13.5 10.5t7.5 13q15 51 35.5 113t45.5 131q38 6 79 7.5t72 4.5t45.5 11t-0.5 28 q-11 18 -21 37t-25 36q-30 34 -92 34q25 54 45 103.5t38 91.5z" />
<glyph unicode="~" horiz-adv-x="1089" d="M719 511q45 0 96 13.5t111 39.5q121 52 121 91q0 20 -42 32q-34 10 -72 10q-45 0 -88 -20q-7 -4 -22 -13t-31.5 -18t-32.5 -16t-24 -6q-29 1 -57.5 7.5t-57 14t-56 15t-54.5 12.5q-45 10 -86 15t-83 5q-36 0 -88 -10.5t-103 -26.5t-93 -33.5t-57 -32.5q-20 -20 -20 -36 q0 -40 97 -40q53 0 92 15q3 0 18 7t34.5 16t41 16t38.5 7q21 0 51.5 -3t62 -8t59.5 -11t43 -13q33 -15 83.5 -22t118.5 -7z" />
<glyph unicode="&#xa1;" horiz-adv-x="587" d="M-15 11q35 -14 79.5 -25.5t82.5 -17.5q41 -8 60 -2.5t31 28.5q22 50 48 116t51 135.5t46.5 136.5t34.5 120q8 26 -1.5 40t-42.5 25q-32 11 -65 18t-71 12q-33 5 -48.5 0.5t-22.5 -24.5q-20 -55 -46 -117t-55.5 -126.5t-61 -129t-61.5 -125.5q-12 -21 -2.5 -35.5 t44.5 -28.5zM497 708q3 24 -9 43t-33.5 31.5t-51.5 19t-64 6.5q-33 0 -59 -7.5t-45 -18.5t-31 -23.5t-17 -21.5q-7 -12 -6 -28t13 -31.5t36.5 -29t64.5 -20.5q45 -9 81.5 -5t62.5 16t41 30.5t17 38.5z" />
<glyph unicode="&#xa2;" horiz-adv-x="818" d="M594 258q-101 18 -161 -24q-84 -60 -129 -50q-22 4 -33 23.5t-12.5 48t5.5 62.5t22 67q15 31 39.5 65.5t52 63.5t54 46.5t45.5 14.5q19 -5 23 -20.5t4 -35.5q0 -6 1 -11.5t3 -11.5q10 -32 38.5 -50t93.5 -26q17 -2 27 -1.5t15.5 3.5t8.5 7.5t6 9.5q11 22 14 54.5t0 59.5 q-4 24 -17.5 42.5t-53.5 36.5l-26 9q8 17 13.5 34t10.5 31q11 36 -11.5 62.5t-67.5 43.5q-54 23 -77 -10q-15 -23 -31.5 -57t-34.5 -69q-32 0 -67 -7t-70 -24q-76 -39 -131 -101t-84 -129.5t-28 -132t37 -109.5q13 -18 35.5 -32t47.5 -23q-2 -8 -3 -15.5t-1 -15.5 q-5 -36 13.5 -71t69.5 -52q29 -10 44 -7.5t20 20.5q5 22 14.5 50.5t20.5 57.5h5q24 -1 49 0.5t49 5.5t44.5 10t35.5 13q30 14 58.5 36t47.5 48q8 11 12 20.5t1.5 17t-12.5 13t-30 9.5z" />
<glyph unicode="&#xa3;" horiz-adv-x="968" d="M110 443q20 2 38.5 2.5t36.5 2.5q-5 -18 -11 -36t-11 -36q-100 -6 -185 -15q-26 -3 -40 -13t0 -28q12 -14 28 -31.5t34 -31.5q18 -15 39 -19.5t56 -0.5l26 3q-17 -66 -26 -113q-7 -24 4.5 -41.5t36.5 -31.5q33 -18 52.5 -29.5t44.5 -22.5q10 -5 21.5 -9t27 -6.5t38 -1.5 t54.5 7q88 12 184.5 24.5t189.5 24.5q22 3 33.5 6t15 7t1.5 10.5t-8 17.5q-7 17 -18.5 35t-30.5 35q-18 18 -39.5 23.5t-59.5 3.5q-66 -3 -123.5 -7t-122.5 -11q8 25 17.5 51t19.5 52q120 6 242 9q32 1 41.5 7t-1.5 23q-8 14 -18 28t-28 30q-27 28 -86 28q-25 0 -50 0.5 t-51 -0.5l26 69h96t98 -1q32 -2 42 4t2 23q-7 14 -16.5 28t-23.5 31q-22 28 -86 31q-14 1 -29 1.5t-32 1.5q11 23 21 45t21 42t3 31.5t-43 25.5t-81 25.5t-86 17.5q-38 7 -58.5 2.5t-34.5 -26.5q-17 -34 -34.5 -75t-35.5 -86q-58 -2 -114 -4t-106 -6q-26 -2 -42 -10.5 t-4 -27.5q8 -15 23 -32.5t30 -31.5q18 -17 37.5 -21.5t54.5 -2.5z" />
<glyph unicode="&#xa5;" horiz-adv-x="955" d="M125 282l86 6q-5 -19 -10 -37t-10 -35q-53 -3 -102 -7t-96 -9q-26 -3 -40 -13t1 -28q11 -14 27 -31.5t34 -31.5q19 -15 39.5 -19.5t55.5 -0.5q11 2 24 3t27 2q-3 -2 -3 -7q-5 -26 5 -39.5t42 -27.5q31 -9 69.5 -17.5t73.5 -15.5q37 -6 50.5 -1.5t21.5 24.5q7 26 15 52.5 t16 53.5q60 3 119 5t121 4q32 1 41.5 7t-2.5 23q-8 14 -18 28t-28 30q-25 28 -86 28q-25 0 -51 0.5t-52 -0.5l36 34t37 35q36 0 73.5 -0.5t75.5 -0.5q32 -2 42 4t2 23q-7 14 -16.5 28t-22.5 31q-18 18 -44 25q36 36 69 70.5t60.5 65t48.5 56.5t33 45q18 25 16 39t-27 31 q-21 12 -51.5 26t-60.5 23t-55 8t-36 -20q-64 -72 -131.5 -145.5t-138.5 -145.5q-35 72 -67 135t-61 111q-9 12 -17 21t-18 15.5t-23 10.5t-32 7q-38 5 -75 4t-75 -3q-35 -3 -41.5 -10.5t4.5 -28.5q28 -64 66.5 -144.5t80.5 -162.5q-33 -2 -62.5 -3.5t-58.5 -3.5 q-26 -2 -41.5 -10.5t-4.5 -27.5q8 -15 23 -32.5t30 -31.5q18 -17 37.5 -21.5t54.5 -2.5z" />
<glyph unicode="&#xa6;" horiz-adv-x="629" d="M513 774q-35 14 -69.5 22t-69.5 16q-38 8 -58.5 3t-31.5 -27q-16 -42 -27 -69.5t-18 -47.5t-12 -36t-9.5 -33.5t-9 -40t-10.5 -57.5q-5 -24 4 -38t42 -25q26 -8 54 -15t63 -14q37 -6 49.5 -0.5t20.5 24.5q16 35 27.5 58.5t20 42.5t16 35t15.5 35.5t18.5 45.5t25.5 63 q12 21 4.5 32.5t-45.5 25.5zM359 299q-35 14 -69.5 22t-69.5 16q-38 8 -58.5 3t-31.5 -27q-16 -42 -26.5 -69.5t-17 -47.5t-10.5 -36t-7.5 -33.5t-7.5 -40.5t-10 -57q-5 -24 4 -38t42 -25q26 -8 53.5 -15t62.5 -14q38 -6 50.5 -0.5t20.5 24.5q16 35 27 58.5t19 42.5t14 35 t13.5 35.5l17.5 45.5t25 63q12 21 4.5 32.5t-45.5 25.5z" />
<glyph unicode="&#xa7;" horiz-adv-x="1327" d="M-62 172q-28 -10 -28 -28q0 -16 59 -54q113 -75 223 -105t228 -28q74 1 130 11t96.5 26t68 35t44.5 38q43 -5 90 -3q88 1 151 15t105 34.5t67 44t38 44.5q20 28 10.5 52t-39 46t-74.5 42.5t-94.5 41t-99.5 42.5t-90 46q-31 18 -39.5 40t-2 45t25.5 45.5t43 42t50 34.5 t48 22q24 11 35 9t13 -12.5t-2.5 -27t-11 -35.5l-13 -38t-8.5 -33q-12 -72 176 -114q33 -8 50.5 -3.5t31.5 22.5q13 19 25.5 45t22.5 53.5t17 54.5t10 49q-1 12 -3 25.5t-9.5 28t-22.5 29t-42 29.5q-40 22 -99 40t-117 30q-37 7 -72 8t-65 -2t-54 -9.5t-40 -13.5 q-47 -17 -91.5 -41.5t-84.5 -53.5q-5 2 -11 2.5t-11 2.5q-37 7 -72 8t-65 -2t-54 -9.5t-40 -13.5q-46 -17 -92 -42.5t-86 -55t-69.5 -61t-42.5 -59.5q-20 -34 -20.5 -66t14 -60.5t42.5 -53t65 -43.5q34 -19 76.5 -37.5t85 -36.5t81.5 -34.5t65 -30.5t35 -25t-7 -18 q-20 -11 -53 -12.5t-76.5 6t-96 23.5t-110.5 40q-21 9 -47 14t-54.5 6.5t-57.5 -1.5t-55 -10zM394 365q-46 27 -67.5 59.5t-22 62.5t17.5 54.5t50 35.5q33 15 58 21.5t39 1.5q-1 -11 -1.5 -29t1 -37t5.5 -36t12 -27q22 -35 71.5 -66.5t109.5 -51.5q51 -23 103.5 -44.5 t91.5 -40t56.5 -32.5t-1.5 -23q-29 -16 -89 -11.5t-139 28.5q-33 16 -71.5 32t-78 32.5t-77 34t-68.5 36.5z" />
<glyph unicode="&#xa8;" horiz-adv-x="924" d="M145 905q-2 -17 7.5 -30.5t26 -23.5t38.5 -15t47 -4q25 0 44.5 5.5t34 13.5t23 17t10.5 16q7 8 7 21q0 18 -20.5 35t-65.5 26q-32 6 -59 3t-46.5 -12t-31.5 -23t-15 -29zM530 905q-2 -17 6.5 -31t25 -24t39 -15t48.5 -4q25 0 44 5.5t33 13.5t23 17t12 16q2 5 3.5 10 t1.5 12q0 17 -20.5 34t-63.5 26q-33 6 -60 3t-47 -12t-31.5 -22.5t-13.5 -28.5z" />
<glyph unicode="&#xa9;" horiz-adv-x="1833" d="M1712 673q-35 30 -86 57.5t-111.5 51t-127 42.5t-133 32.5t-129.5 20.5t-117 7q-107 0 -214.5 -20t-208 -55t-190.5 -83.5t-163 -105t-124.5 -119t-75 -127t-15 -128t55.5 -121.5q31 -41 81 -72t130 -53q87 -24 189 -36.5t211.5 -15t222.5 5.5t222 26t210.5 46 t187.5 64.5t152.5 82.5t106.5 101q35 49 49.5 105t6 110t-40 102.5t-89.5 81.5zM1617 346q-32 -32 -70 -64.5t-82 -62.5t-95.5 -56t-111.5 -45q-88 -28 -169 -47t-170.5 -26.5t-193.5 -1.5t-239 30q-98 16 -155.5 47.5t-81.5 73t-17.5 90t37 100t81.5 103t116 98t140.5 85.5 t155.5 66t160.5 39t155.5 5q79 -8 158 -31.5t149 -57.5t126.5 -77t90.5 -88.5t40 -91.5t-25 -88zM1113 277q-50 10 -89.5 3.5t-68.5 -26.5q-84 -61 -128 -50q-21 4 -32 23.5t-12.5 47.5t5.5 61.5t22 66.5q14 30 38 64.5t51 63t53.5 46t44.5 14.5q20 -5 24 -20t4 -35 q0 -6 1 -11.5t1 -11.5q11 -31 40 -49t92 -26q18 -2 28 -1.5t15.5 3t8.5 7t6 9.5q10 23 13 55t0 59q-4 23 -17.5 41.5t-53.5 36.5q-18 7 -41.5 14.5t-50 13t-54 9.5t-54.5 6q-35 2 -75.5 -4.5t-80.5 -26.5q-50 -26 -91.5 -62t-72 -78t-50 -87.5t-25.5 -88.5t2 -82t32 -69 q15 -20 43 -35.5t56 -23.5q32 -8 72.5 -16.5t90.5 -10.5q50 -3 98.5 5t79.5 22q29 15 57.5 37t46.5 48q17 22 14 36.5t-43 21.5z" />
<glyph unicode="&#xaa;" horiz-adv-x="603" d="M440 521q20 48 38 89.5t32 73.5q7 13 2.5 20t-26.5 16q-13 4 -34 11t-43.5 13.5t-42.5 12t-32 7.5t-21 3t-16.5 0t-15 -3.5t-17.5 -7.5q-37 -20 -82.5 -49.5t-91 -62t-85.5 -65t-67 -59.5q-13 -13 -12.5 -23.5t10.5 -21.5q34 -28 75 -50q18 -11 34 -11.5t36 1.5 q37 4 74.5 6.5t77.5 5.5q-10 -28 -16 -49t-8 -36q-5 -17 0.5 -25t25.5 -17q20 -7 41.5 -12t38.5 -8q25 -4 33 -0.5t13 14.5q8 30 20.5 66t27.5 77q22 1 42 1.5t40 1.5q21 1 27 5.5t1 15.5q-7 11 -11.5 20t-12.5 20q-17 20 -55 20zM97 508q50 36 108.5 78t120.5 75 q-17 -34 -31 -70.5t-29 -73.5q-45 -2 -88 -4t-81 -5z" />
<glyph unicode="&#xab;" horiz-adv-x="1373" d="M645 351q-8 -22 2.5 -30.5t36.5 -16.5q58 -18 123 -35.5t128 -33.5t121 -29.5t103 -22.5q25 -5 43 -2t23 17q5 17 4 39t-6 37q-6 9 -10.5 15t-11 10t-16.5 7t-26 6q-51 11 -102 23.5t-104 26.5q94 17 182 36.5t150 36.5q20 6 29 15t-9 23q-25 17 -51 33.5t-51 27.5 q-13 6 -23 9t-19 4t-19 -1t-22 -6q-42 -12 -84.5 -22.5t-87.5 -20t-94.5 -19.5t-105.5 -20q-16 -3 -26.5 -6.5t-18.5 -8t-13.5 -10t-11.5 -14.5q-21 -28 -33 -68zM-13 372q-8 -22 2.5 -30.5t36.5 -16.5q59 -18 123.5 -35.5t128 -33.5t121.5 -29.5t103 -22.5q25 -5 43 -2 t23 17q5 17 3.5 39t-6.5 37l-10 15t-10.5 10t-16.5 7t-26 6q-52 11 -103 23.5t-104 26.5q94 17 182.5 36.5t149.5 36.5q20 6 29 15t-9 23q-25 17 -50.5 33.5t-50.5 27.5q-14 6 -24 9t-19 4t-19 -1t-22 -6q-42 -12 -84.5 -22.5t-87.5 -20t-94.5 -19.5t-105.5 -20 q-16 -3 -26.5 -6.5t-18.5 -8t-13.5 -10t-11.5 -14.5q-19 -28 -33 -68z" />
<glyph unicode="&#xac;" horiz-adv-x="2088" d="M1892 173q62 17 101 32q22 8 41 17.5t31 20t15 21.5t-5 23q-12 22 -37 37.5t-60 29.5q-25 10 -64.5 15t-87.5 6t-101 -1t-105 -7t-100 -12t-86 -15q-4 -31 -14.5 -67.5t-23 -73t-24.5 -71.5t-19 -64q-8 -18 2 -25.5t33 -19.5q29 -11 52 -18.5t58 -13.5q16 -5 29 -7 t26.5 -2.5t29.5 0.5t38 4q36 4 78.5 11t84.5 15.5t80 18.5t65 22q37 14 54.5 29.5t7.5 36.5q-5 17 -33 33t-66 25zM1107 78q5 -20 9.5 -36.5t7.5 -31.5q7 -14 17.5 -19.5t35.5 -8.5q26 -5 50.5 -5.5t52.5 -0.5q27 0 34.5 3.5t7.5 12.5q-6 42 -12 88.5t-10 90.5t-4.5 83.5 t2.5 68.5q0 12 -9.5 18.5t-41.5 11.5q-39 4 -87 9t-122 7q-44 1 -67 -5.5t-38 -16.5q-41 -30 -89.5 -70.5t-96 -83.5t-89.5 -84.5t-71 -74.5q-14 -21 -3 -27t34 -14q18 -4 34 -7t30 -6q26 -4 36.5 -2.5t20.5 10.5q17 16 33.5 32.5t41.5 35.5q60 8 138 12.5t155 9.5z M1452 718q5 10 0 15.5t-31 12.5q-26 8 -56 13.5t-58 8.5q-30 3 -44.5 1.5t-21.5 -14.5q-22 -33 -42.5 -76t-43.5 -88q-38 -2 -78 -3t-85 -3q23 38 40 70t35 55q3 11 -2 16.5t-31 12.5q-28 8 -60.5 13.5t-60.5 9.5q-32 4 -46.5 2t-19.5 -15q-15 -33 -31 -75.5t-33.5 -86 t-36 -85t-38.5 -74.5q-6 -14 3.5 -21t32.5 -12q21 -6 49.5 -9.5t53.5 -6.5q28 -3 37.5 -0.5t13.5 10.5q13 24 24 53.5t31 62.5q42 3 84.5 5.5t84.5 5.5q-11 -27 -18 -49.5t-11 -40.5q-11 -18 15 -26.5t69 -14.5q21 -3 40 -5t33 -2.5t22 2t8 9.5q16 40 38.5 85t46 89t46.5 84 t41 71zM1533 738l-118 -289q-5 -13 3 -22t25 -17q20 -9 38 -14.5t35 -11.5q15 -5 37 -7.5t68 2.5q63 5 134 11.5t139 12.5q29 3 35 6.5t-4 13.5q-7 9 -14.5 17.5t-18.5 18.5q-11 8 -28 11.5t-49 1.5q-50 -2 -95.5 -3.5t-93.5 -6.5q10 14 16.5 27.5t16.5 27.5 q60 6 123.5 10.5t124.5 9.5q29 3 36.5 6t-3.5 14q-6 9 -13.5 17.5t-19.5 17.5q-11 8 -27.5 11t-44.5 2q-35 0 -64 -1t-57 -3q15 23 27.5 43.5t27.5 38.5q68 5 129 7.5t119 5.5q27 2 34 5t2 14q-4 9 -11 16.5t-18 17.5q-18 17 -70 17q-56 -1 -113.5 -4t-112 -6.5t-104.5 -8.5 t-91 -9zM755 703q28 2 32 5t1 12q-11 11 -23.5 21t-29.5 19q-12 5 -25.5 7.5t-42.5 2.5q-55 -1 -124.5 -3.5t-143 -5.5t-144 -7t-127.5 -8q-17 -2 -22.5 -5t2.5 -12q11 -8 25.5 -21t35.5 -22q19 -8 34 -10t41 1q17 2 43 3.5t54 3.5q-16 -29 -33 -63.5t-32 -69.5t-26.5 -67.5 t-16.5 -55.5q-5 -10 0 -16.5t17.5 -11.5t30 -8.5t38.5 -6.5q47 -6 75.5 -8.5t32.5 11.5q15 36 34 75t40 79t42.5 79.5t41.5 74.5q45 2 89 3.5t81 3.5zM517 6q16 1 24.5 2.5t11 3.5t1.5 5.5t-4 8.5l-16 18t-19 17q-18 9 -32.5 12t-42.5 2q-50 -2 -93.5 -4t-93.5 -5 q18 31 37.5 65t39.5 67t40 63.5t39 55.5q7 10 0.5 15.5t-31.5 12.5q-26 7 -59.5 12.5t-65.5 8.5q-28 4 -42 1.5t-24 -13.5q-22 -30 -46 -71t-45 -84t-38 -82.5t-25 -67.5q-3 -12 5.5 -20.5t25.5 -16.5q25 -9 39.5 -14.5t32.5 -11.5q7 -2 15.5 -4.5t20 -3.5t28 -0.5t40.5 3.5 q65 6 136.5 12.5t140.5 12.5zM640 226q13 6 28.5 16t30.5 21.5t28.5 23.5t22.5 22q2 6 3.5 10t1.5 6q0 7 -16 16q-13 5 -29 10.5t-35 10.5q-25 7 -39 5.5t-24 -10.5q-14 -13 -33 -30t-39 -34t-38.5 -33t-30.5 -27q-16 -16 28 -20q19 -1 38.5 -2t34.5 1q20 0 35.5 3.5 t32.5 10.5zM1626 205q11 23 22 42.5t26 37.5q83 16 140 17t67 -10q5 -7 -10.5 -18t-48.5 -23.5t-83 -24.5t-113 -21zM909 143q50 42 94 80t84 68q0 -33 2 -68t9 -71q-51 -2 -97 -4t-92 -5zM1582 130q85 13 136.5 9.5t59.5 -13.5q4 -8 -11 -17.5t-46 -19t-76.5 -18.5 t-102.5 -15q12 19 21 37t19 37z" />
<glyph unicode="&#xad;" horiz-adv-x="869" d="M-123 492q-65 -8 -22 -54q18 -20 38.5 -39t49.5 -39q28 -21 52.5 -27t52.5 -1q53 9 111 15t118.5 11t121.5 8t120 6q35 1 43.5 8t-5.5 29q-15 18 -29 37t-35 41q-43 37 -101 37q-66 0 -138 -3t-141 -7.5t-130 -10t-106 -11.5z" />
<glyph unicode="&#xae;" horiz-adv-x="1833" d="M1712 673q-35 30 -86 57.5t-111.5 51t-127 42.5t-133 32.5t-129.5 20.5t-117 7q-107 0 -214.5 -20t-208 -55t-190.5 -83.5t-163 -105t-124.5 -119t-75 -127t-15 -128t55.5 -121.5q31 -41 81 -72t130 -53q87 -24 189 -36.5t211.5 -15t222.5 5.5t222 26t210.5 46 t187.5 64.5t152.5 82.5t106.5 101q35 49 49.5 105t6 110t-40 102.5t-89.5 81.5zM1617 346q-32 -32 -70 -64.5t-82 -62.5t-95.5 -56t-111.5 -45q-88 -28 -169 -47t-170.5 -26.5t-193.5 -1.5t-239 30q-98 16 -155.5 47.5t-81.5 73t-17.5 90t37 100t81.5 103t116 98t140.5 85.5 t155.5 66t160.5 39t155.5 5q79 -8 158 -31.5t149 -57.5t126.5 -77t90.5 -88.5t40 -91.5t-25 -88zM816 319q27 -22 59.5 -44t66.5 -42t65.5 -37t55.5 -29q38 -16 65.5 -18t50.5 3q20 2 33 3.5t31 12.5q14 8 16 15t-18 19q-28 15 -58.5 33.5t-61 39t-59.5 40.5t-54 38 q111 32 189 69t110 81q18 26 2 66q-18 36 -46.5 61.5t-63.5 46.5q-41 24 -95.5 29.5t-115 -1t-123.5 -21.5t-121 -31q-17 -5 -33 -34.5t-31.5 -71.5t-29 -92.5t-25 -97.5t-20 -86t-13.5 -59t2.5 -31t25.5 -18q20 -8 42 -11t49 -8q25 -4 34 0t14 15q15 40 28.5 79t28.5 81z M926 576q40 11 72 15.5t60 4.5q26 0 43.5 -4.5t22.5 -12.5q7 -11 -7.5 -29.5t-48.5 -39.5t-86.5 -41.5t-121.5 -35.5q20 42 35.5 77.5t30.5 65.5z" />
<glyph unicode="&#xaf;" horiz-adv-x="869" d="M117 974q-65 -8 -22 -54q9 -10 13.5 -12.5t9 -4t11.5 -4t21 -12.5q28 -21 52.5 -27t52.5 -1q53 9 111 15t118.5 11t121.5 8t120 6q35 1 43.5 8t-6.5 29q-7 9 -8.5 11t-3 3.5t-5 4.5t-13.5 14q-43 37 -102 37q-66 0 -138 -3t-141 -7.5t-130 -10t-105 -11.5z" />
<glyph unicode="&#xb0;" horiz-adv-x="548" d="M392 750q-25 6 -61 11t-76 7q-29 2 -63.5 -1.5t-59.5 -10.5q-57 -17 -95.5 -41.5t-57.5 -51.5t-16.5 -53.5t28.5 -46.5q10 -9 30.5 -16t40.5 -11q26 -6 58.5 -8.5t62.5 -3.5q46 -2 80.5 1t66.5 13q45 16 74 38.5t44 46.5t16.5 47.5t-9.5 43.5q-8 11 -21.5 19.5 t-41.5 16.5zM279 725q15 -2 22.5 -11t8 -22.5t-4.5 -28.5t-15 -28q-11 -17 -26 -31.5t-32.5 -24t-36 -14.5t-34.5 -2q-18 2 -26.5 11t-9.5 21.5t4 27.5t16 28t27.5 27t35.5 25t37.5 17t33.5 5z" />
<glyph unicode="&#xb1;" horiz-adv-x="1074" d="M827 434q32 0 40.5 6.5t-2.5 23.5q-12 15 -21.5 29.5t-27.5 31.5q-30 28 -88 30q-70 2 -174 0q8 20 19 38.5t19 35.5q11 17 7 27.5t-29 24.5q-22 14 -57.5 27t-68.5 21q-26 6 -45 -1.5t-27 -21.5q-20 -30 -38.5 -71t-36.5 -89q-88 -3 -167 -8.5t-137 -12.5 q-12 -2 -24 -4.5t-19.5 -6.5t-10 -10t3.5 -15q11 -17 33 -39.5t44 -36.5q12 -8 22 -12t20 -6t21 -2q12 0 29 2q33 4 68 7.5t73 5.5q-8 -28 -11.5 -51t-8.5 -41q-3 -33 44 -50q32 -11 57 -18.5t51 -15.5q31 -8 42 -5t17 22q12 37 25.5 82t32.5 93q85 5 165.5 6.5t159.5 3.5z M823 82q32 0 40.5 6.5t-3.5 23.5q-11 15 -20.5 29.5t-27.5 31.5q-32 30 -88 30q-99 -1 -166 -2t-117.5 -3t-92 -5.5t-89 -8t-107.5 -11.5t-148 -15q-12 -1 -24 -3.5t-19.5 -7t-10 -10.5t3.5 -15q11 -17 33 -39.5t44 -36.5q12 -8 22 -12t20 -6t21 -2q12 0 29 2q71 8 121 14.5 t86.5 11.5t63.5 9t54 7t57.5 5t73 3.5t101.5 2t143 1.5z" />
<glyph unicode="&#xb2;" horiz-adv-x="521" d="M156 380q40 19 81 42.5t77 48t66 48.5t49 46q16 18 28 35t15.5 33.5t-3 33.5t-25.5 35q-14 12 -37 24.5t-52.5 21.5t-64.5 13t-74 0q-66 -8 -123.5 -34.5t-96.5 -66.5q-23 -26 -19 -36.5t25 -15.5q37 -8 80 -7.5t76 15.5q21 13 42 24.5t39.5 19t34 10.5t25.5 -2 q11 -4 -0.5 -21t-39.5 -41.5t-69 -54.5t-88.5 -61t-99 -60.5t-99.5 -52.5q-21 -11 -16 -22.5t16 -21.5q14 -11 35 -24.5t38 -21.5q6 -4 11.5 -6.5t14.5 -4t22 -1t33 3.5q27 4 67 8t84 8t87.5 7t76.5 4q20 2 25.5 6t-1.5 15q-5 9 -15.5 21t-21.5 21q-12 11 -26 15.5t-34 3.5 q-28 -1 -67 -2.5t-76 -5.5z" />
<glyph unicode="&#xb3;" horiz-adv-x="532" d="M284 527q40 11 72 23t55 26q19 11 31.5 27t13.5 35t-11 40.5t-42 42.5q-29 19 -57 29t-54.5 13.5t-50.5 2.5t-45 -4q-58 -8 -107.5 -28.5t-77.5 -41.5q-21 -17 7 -32q14 -7 35 -12t43.5 -6.5t44 0.5t37.5 10q23 8 49 16.5t46 8.5q12 0 20 -6q10 -7 -0.5 -19t-42.5 -26.5 t-87.5 -31.5t-136.5 -33q-18 -4 -20.5 -11.5t7.5 -18.5q26 -26 63.5 -39.5t77.5 -9.5q32 2 50.5 1t35.5 -10q8 -5 13 -13t4 -18t-9 -21.5t-24 -23.5q-35 -23 -82 -26t-122 22q-26 8 -59.5 10t-61.5 -9q-8 -3 -12.5 -7t-3 -9.5t10 -13t27.5 -17.5q60 -35 121.5 -48t118.5 -13 q72 0 132 14.5t105 52.5q40 34 35 75t-72 76q-17 9 -36.5 14t-40.5 9z" />
<glyph unicode="&#xb4;" horiz-adv-x="869" d="M781 972q-5 21 -15.5 34.5t-35.5 20.5q-45 14 -73 14.5t-50 -9.5q-39 -18 -86 -35t-97.5 -33t-103 -31t-102.5 -28q-23 -8 -25.5 -16.5t3.5 -15.5t14.5 -11t7.5 -3q38 -13 68.5 -17t56.5 3q60 12 123 28.5t121 33.5t108 34t86 31z" />
<glyph unicode="&#xb6;" horiz-adv-x="1038" d="M178 153q-10 -54 -20.5 -106t-27.5 -103q0 -16 10 -21t51 0q41 7 81 13.5t72 17t54 26.5t27 42q0 6 14 43.5t36 91t48 116t49.5 119t41 100t22.5 58.5q32 7 51 -3t26 -30q-3 -18 -19.5 -64t-39 -105.5t-49 -126.5t-50 -126.5t-41.5 -104.5t-23 -62q0 -16 10 -21t51 0 q41 7 81 13.5t72 17t53 26.5t25 42q2 18 11.5 52t24 77.5t32 94t35 100.5t32.5 96.5t25 83t12.5 59.5t-5.5 26q-62 24 -143 48t-169 36.5t-175.5 8.5t-161.5 -37q-63 -29 -122.5 -64t-112.5 -86q-27 -26 -37 -48.5t-7 -43t15 -39.5t29 -37q22 -24 55.5 -46.5t78.5 -43.5 q-11 -14 -14 -35.5t-8 -54.5z" />
<glyph unicode="&#xb7;" horiz-adv-x="486" d="M84 426q-3 -23 9 -41.5t33.5 -31.5t51.5 -19.5t64 -5.5q33 0 59 7.5t45 18t30.5 22.5t15.5 21q6 13 6 29q0 23 -27 46t-85 35q-44 8 -80 4t-62.5 -16t-42 -30.5t-17.5 -38.5z" />
<glyph unicode="&#xb8;" horiz-adv-x="442" d="M123 -180q18 13 40 33t43.5 43t39.5 46.5t29 43.5q11 27 11 33q0 11 -24 32q-18 11 -40 22t-50 21q-62 25 -84 -10q-17 -26 -42.5 -60t-52 -69t-52 -67t-42.5 -54q-27 -31 37 -39q26 -2 51 -3.5t50 0.5q51 2 86 28z" />
<glyph unicode="&#xb9;" horiz-adv-x="332" d="M295 687q7 13 1 19.5t-28 15.5q-11 4 -27 9.5t-32.5 10t-32 8t-26.5 5.5q-23 4 -34 1.5t-26 -13.5q-15 -13 -34.5 -30t-31.5 -34q-11 -14 -3.5 -20t38.5 -17q-13 -34 -26 -75t-23.5 -81t-17.5 -74.5t-10 -55.5q-3 -17 2.5 -25.5t19.5 -15.5q11 -3 26 -7t31 -7t31 -6 t27 -5q21 -4 28.5 -1.5t10.5 13.5q10 39 26.5 91t35.5 106t38.5 103.5t36.5 84.5z" />
<glyph unicode="&#xba;" horiz-adv-x="1764" d="M568 314q-16 45 -31.5 93.5t-29.5 93t-25 82t-18 60.5q-8 30 -24.5 45.5t-56.5 25.5q-48 14 -93 23t-92 17q-38 6 -61.5 0t-35.5 -29q-18 -42 -37 -98t-38.5 -118.5t-37.5 -126t-33 -120.5t-26 -102.5t-15 -71.5q-7 -26 2.5 -40.5t41.5 -25.5q32 -14 68 -20.5t71 -12.5 q38 -7 51.5 -2.5t18.5 21.5q9 36 23 83t31 100t35.5 110.5t36.5 113.5q17 -47 36.5 -94t40 -91.5t41 -83.5t40.5 -69q27 -44 90 -60q35 -8 69.5 -14.5t69.5 -11.5q78 -12 86 26q19 69 44 154.5t52 172.5t54.5 168.5t51.5 142.5q4 10 5 19t-3 16.5t-14.5 14.5t-29.5 14 q-23 9 -40 14t-32.5 9t-31 6.5t-34.5 5.5q-40 6 -61.5 0.5t-29.5 -27.5q-33 -85 -68.5 -191.5t-60.5 -221.5zM1505 584q-25 6 -61 11t-76 7q-29 2 -63.5 -1.5t-59.5 -10.5q-57 -17 -95.5 -41.5t-57.5 -51.5t-16.5 -53.5t28.5 -46.5q11 -9 31 -16t40 -11q26 -6 58.5 -8.5 t62.5 -3.5q46 -2 80.5 1t66.5 13q45 16 74 38.5t44 46.5t16.5 47.5t-8.5 43.5q-8 11 -22 19.5t-42 16.5zM964 268q-65 -8 -22 -54q9 -10 10 -13t2 -5t5 -5t18 -13q28 -21 67 -27t67 -1q53 9 111 15t118.5 11t121.5 8t120 6q35 1 43.5 8t-6.5 29q-8 9 -11 11.5t-5.5 4.5 t-7.5 5.5t-15 14.5q-43 37 -102 37q-66 0 -138 -3t-141 -7.5t-130 -10t-105 -11.5zM1384 540q10 -1 15.5 -8t6 -16.5t-3 -20.5t-9.5 -20q-8 -12 -19.5 -22t-24 -17t-25 -10.5t-24.5 -1.5q-12 1 -18.5 8t-7.5 16t3 19.5t12 19.5q7 9 19 19t25 17.5t26.5 12.5t24.5 4z" />
<glyph unicode="&#xbb;" horiz-adv-x="1373" d="M1316 376q8 22 -3 30.5t-37 16.5q-59 18 -123.5 35.5t-127.5 33.5t-121 29.5t-103 22.5q-25 5 -43 2t-23 -17q-5 -17 -4 -39t6 -37q6 -9 10.5 -15t11 -10t16 -7t26.5 -6q51 -11 102 -23.5t105 -26.5q-95 -17 -183 -36.5t-150 -36.5q-20 -6 -29 -15t10 -23 q25 -17 50.5 -33.5t50.5 -27.5q13 -6 23 -9t19 -4t19 1t22 6q42 12 84.5 22.5t88 20t94.5 19.5t105 20q31 7 45 14.5t26 24.5q19 28 33 68zM658 397q8 22 -3 30.5t-37 16.5q-59 18 -123.5 35.5t-127.5 33.5t-121 29.5t-103 22.5q-25 5 -43 2t-23 -17q-5 -17 -4 -39t6 -37 q6 -9 10.5 -15t11 -10t16 -7t26.5 -6q51 -11 102 -23.5t105 -26.5q-95 -17 -183 -36.5t-149 -36.5q-20 -6 -29 -15t9 -23q25 -17 50.5 -33.5t50.5 -27.5q26 -12 42.5 -13t41.5 7q42 12 84.5 22.5t87.5 20t94 19.5t105 20q31 7 45 14.5t26 24.5q19 28 33 68z" />
<glyph unicode="&#xbc;" horiz-adv-x="1179" d="M1016 211q20 48 38 89.5t33 73.5q7 13 2 20t-26 16q-14 4 -35 11t-43 13.5t-42 12t-32 7.5t-21 3t-16.5 0t-15.5 -3.5t-18 -7.5q-37 -20 -82.5 -49.5t-90.5 -62t-85.5 -65t-66.5 -59.5q-14 -13 -13.5 -23.5t11.5 -21.5q17 -14 35.5 -26.5t38.5 -23.5q19 -11 35 -11.5 t36 1.5q36 4 74 6.5t78 5.5q-20 -54 -25 -85q-5 -17 1 -25t26 -17q20 -7 41 -12t38 -8q25 -4 33 -0.5t13 14.5q8 30 21 66t28 77q42 1 81 3q22 1 28 5.5t1 15.5q-7 11 -12 20t-13 20q-17 20 -55 20zM1052 696q-9 9 -12.5 11t-5.5 2t-6 1t-16 9q-45 32 -103 2 q-41 -20 -97 -51t-121.5 -70t-137 -82.5t-143.5 -88.5t-141 -88.5t-129.5 -82t-108 -69.5t-77.5 -51q-31 -20 -38 -36q-2 -8 0 -16t14 -16q7 -6 7.5 -4.5t1 3.5t3.5 2q2 0 14 -7q23 -14 42 -13.5t44 17.5q52 32 131.5 79t172 101t192 111t192 109.5t171 96.5t129.5 71 q28 15 35 27t-13 33zM246 694q7 13 1.5 19.5t-27.5 15.5q-12 4 -27.5 9.5t-32 10t-32 8t-27.5 5.5q-23 4 -33.5 1.5t-25.5 -13.5q-15 -13 -35 -30t-31 -34q-12 -14 -4.5 -20t39.5 -17q-13 -34 -26 -75t-23.5 -81t-17.5 -74.5t-10 -55.5q-3 -17 2 -25.5t20 -15.5q11 -3 26 -7 t30.5 -7l31 -6t26.5 -5q22 -4 29.5 -1.5t10.5 13.5q10 39 26 91t35 106t38.5 103.5t36.5 84.5zM673 198q50 36 109 78t120 75q-17 -34 -31 -70.5t-28 -73.5q-45 -2 -88.5 -4t-81.5 -5z" />
<glyph unicode="&#xbd;" horiz-adv-x="1239" d="M1052 696q-9 9 -12.5 11t-5.5 2t-6 1t-16 9q-45 32 -103 2q-41 -20 -97 -51t-121.5 -70t-137 -82.5t-143.5 -88.5t-141 -88.5t-129.5 -82t-108 -69.5t-77.5 -51q-31 -20 -38 -36q-2 -8 0 -16t14 -16q7 -6 7.5 -4.5t1 3.5t3.5 2q2 0 14 -7q23 -14 42 -13.5t44 17.5 q52 32 131.5 79t172 101t192 111t192 109.5t171 96.5t129.5 71q28 15 35 27t-13 33zM847 78q40 19 81 42.5t77 48t66 48.5t49 46q16 18 28 35t15.5 33.5t-3 33.5t-25.5 35q-14 12 -37 24.5t-52.5 21.5t-65 13t-74.5 0q-66 -8 -123 -34.5t-97 -66.5q-11 -13 -15.5 -21.5 t-3 -14.5t8 -9.5t17.5 -6.5q36 -8 79.5 -7.5t76.5 15.5q21 13 42 24.5t39.5 19t34 10.5t25.5 -2q11 -4 -0.5 -21t-39.5 -41.5t-69 -54.5t-88.5 -61t-99 -60.5t-99.5 -52.5q-11 -6 -14.5 -11.5t-2 -11t6 -11t10.5 -10.5q14 -11 35 -24.5t38 -21.5q6 -4 11.5 -6.5t14.5 -4 t22 -1t33 3.5q26 4 66 8t84.5 8t88 7t76.5 4q20 2 25.5 6t-1.5 15q-5 9 -15.5 21t-22.5 21q-22 20 -59 19q-28 -1 -67.5 -2.5t-75.5 -5.5zM246 694q7 13 1.5 19.5t-27.5 15.5q-12 4 -27.5 9.5t-32 10t-32 8t-27.5 5.5q-23 4 -33.5 1.5t-25.5 -13.5q-15 -13 -35 -30t-31 -34 q-12 -14 -4.5 -20t39.5 -17q-13 -34 -26 -75t-23.5 -81t-17.5 -74.5t-10 -55.5q-3 -17 2 -25.5t20 -15.5q11 -3 26 -7t30.5 -7l31 -6t26.5 -5q22 -4 29.5 -1.5t10.5 13.5q10 39 26 91t35 106t38.5 103.5t36.5 84.5z" />
<glyph unicode="&#xbe;" horiz-adv-x="1390" d="M1228 211q20 48 37.5 89.5t32.5 73.5q7 13 2 20t-26 16q-13 4 -34 11t-43.5 13.5t-42.5 12t-32 7.5t-21 3t-16.5 0t-15 -3.5t-17.5 -7.5q-37 -20 -83 -49.5t-91 -62t-85.5 -65t-66.5 -59.5q-14 -13 -13 -23.5t11 -21.5q17 -14 36 -26.5t39 -23.5q18 -11 34 -11.5t36 1.5 q36 4 74 6.5t78 5.5q-10 -28 -16 -49t-8 -36q-5 -17 0.5 -25t25.5 -17q20 -7 41 -12t38 -8q25 -4 33 -0.5t13 14.5q8 30 21 66t28 77q42 1 81 3q22 1 28 5.5t1 15.5q-7 11 -11.5 20t-12.5 20q-17 20 -55 20zM1263 696q-9 9 -12 11t-6 2q-2 0 -6 1t-16 9q-45 32 -103 2 q-41 -20 -97 -51t-121.5 -70t-137 -82.5t-143.5 -88.5t-141 -88.5t-129.5 -82t-108 -69.5t-77.5 -51q-31 -20 -37 -36q-2 -8 -0.5 -16t13.5 -16q7 -6 8 -4.5t1 3.5t2 2q3 0 15 -7q23 -14 42 -13.5t44 17.5q52 32 131.5 79t172 101t192 111t192 109.5t171 96.5t129.5 71 q28 15 35 27t-13 33zM315 558q39 11 71.5 23t55.5 26q19 11 31.5 27t13.5 35t-11.5 40.5t-42.5 42.5q-29 19 -57 29t-54.5 13.5t-50 2.5t-44.5 -4q-58 -8 -107.5 -28.5t-77.5 -41.5q-12 -9 -9.5 -16.5t15.5 -15.5q14 -7 35 -12t44 -6.5t44.5 0.5t37.5 10q23 8 49 16.5 t46 8.5q13 0 19 -6q10 -7 0 -19t-42 -26.5t-87.5 -31.5t-136.5 -33q-18 -4 -20.5 -11.5t7.5 -18.5q26 -26 63.5 -39.5t77.5 -9.5q32 2 50.5 1t35.5 -10q8 -5 13 -13t4 -18t-9 -21.5t-24 -23.5q-35 -23 -82 -26t-122 22q-27 8 -60 10t-61 -9q-8 -3 -12.5 -7t-3 -9.5t10 -13 t27.5 -17.5q60 -35 121.5 -48t117.5 -13q73 0 133 14.5t105 52.5q40 34 35 75t-72 76q-17 9 -36.5 14t-40.5 9zM884 198q50 36 109 78t120 75q-17 -34 -30.5 -70.5t-28.5 -73.5q-45 -2 -88.5 -4t-81.5 -5z" />
<glyph unicode="&#xbf;" horiz-adv-x="997" d="M680 546q-29 9 -64 18.5t-65.5 13t-50 -1t-16.5 -22.5q-9 -39 -33 -66.5t-57.5 -49t-73.5 -38t-80 -31.5t-77.5 -31.5t-65.5 -37.5q-29 -21 -51 -48.5t-25.5 -60.5t16.5 -69.5t75 -75.5q25 -19 62.5 -36.5t84.5 -29t102 -15.5t114 3q100 11 186.5 49t154.5 98 q23 19 32 33t7 23t-13.5 15t-27.5 10q-33 9 -67.5 12.5t-68 2t-63.5 -8t-54 -18.5q-32 -16 -63 -32t-61 -28.5t-59 -20.5t-59 -8q-20 0 -38.5 7t-23.5 23q-2 12 4.5 26.5t25 30.5t51 34t82.5 37q40 16 89.5 36.5t94.5 48t78 63.5t40 83q5 24 -2.5 37.5t-39.5 24.5zM805 679 q4 22 -6 39.5t-30 30t-48.5 20t-60.5 10.5q-73 7 -120 -11.5t-58 -46.5q-2 -3 -2 -12v-15q0 -12 4.5 -23.5t17 -22t34.5 -20t58 -16.5q45 -9 83 -6.5t65.5 12.5t44 26t18.5 35z" />
<glyph unicode="&#xc0;" horiz-adv-x="1054" d="M605 186q10 -77 24 -136q7 -28 21.5 -39t49.5 -18q35 -8 67.5 -9.5t70.5 -1.5t48.5 7t8.5 25q-9 84 -16.5 176.5t-12.5 181.5t-6.5 168.5t0.5 136.5q1 23 -11 37.5t-53 22.5l-58 10t-63 9.5t-74.5 8t-92.5 5.5q-59 3 -90 -10t-51 -34q-37 -40 -78.5 -90t-85 -105.5 t-87 -113.5t-83.5 -114.5t-75 -109t-61 -96.5q-11 -21 -11.5 -33.5t6 -20.5t19.5 -13.5t30 -13.5q21 -8 44 -14.5t41 -11.5q33 -8 49.5 -5t30.5 20q21 32 44 65.5t55 71.5q40 7 87.5 13t99.5 11t106 10t107 10zM288 977q36 -14 86 -31t108 -34t121 -33.5t123 -28.5 q26 -7 56.5 -3t68.5 17q-1 -1 7.5 3t14.5 11t3 15.5t-25 16.5q-50 13 -102.5 28t-102.5 31t-97 33t-87 35q-22 10 -50 9.5t-73 -14.5q-25 -7 -35.5 -20.5t-15.5 -34.5zM334 316q65 85 127 160.5t113 135.5q0 -66 4 -136t9 -142q-127 -6 -253 -18z" />
<glyph unicode="&#xc1;" horiz-adv-x="1054" d="M605 186q10 -77 24 -136q7 -28 21.5 -39t49.5 -18q35 -8 67.5 -9.5t70.5 -1.5t48.5 7t8.5 25q-9 84 -16.5 176.5t-12.5 181.5t-6.5 168.5t0.5 136.5q1 23 -11 37.5t-53 22.5l-58 10t-63 9.5t-74.5 8t-92.5 5.5q-59 3 -90 -10t-51 -34q-37 -40 -78.5 -90t-85 -105.5 t-87 -113.5t-83.5 -114.5t-75 -109t-61 -96.5q-11 -21 -11.5 -33.5t6 -20.5t19.5 -13.5t30 -13.5q21 -8 44 -14.5t41 -11.5q33 -8 49.5 -5t30.5 20q21 32 44 65.5t55 71.5q40 7 87.5 13t99.5 11t106 10t107 10zM911 972q-5 21 -15.5 34.5t-35.5 20.5q-45 14 -73 14.5 t-50 -9.5q-40 -18 -87 -35t-97 -33t-102.5 -31t-102.5 -28q-23 -8 -25.5 -16.5t3.5 -15.5t14.5 -11t7.5 -3q38 -13 68.5 -17t56.5 3q60 12 123 28.5t121 33.5t108 34t86 31zM334 316q65 85 127 160.5t113 135.5q0 -66 4 -136t9 -142q-127 -6 -253 -18z" />
<glyph unicode="&#xc2;" horiz-adv-x="1054" d="M605 186q10 -77 24 -136q7 -28 21.5 -39t49.5 -18q35 -8 67.5 -9.5t70.5 -1.5t48.5 7t8.5 25q-9 84 -16.5 176.5t-12.5 181.5t-6.5 168.5t0.5 136.5q1 23 -11 37.5t-53 22.5l-58 10t-63 9.5t-74.5 8t-92.5 5.5q-59 3 -90 -10t-51 -34q-37 -40 -78.5 -90t-85 -105.5 t-87 -113.5t-83.5 -114.5t-75 -109t-61 -96.5q-11 -21 -11.5 -33.5t6 -20.5t19.5 -13.5t30 -13.5q21 -8 44 -14.5t41 -11.5q33 -8 49.5 -5t30.5 20q21 32 44 65.5t55 71.5q40 7 87.5 13t99.5 11t106 10t107 10zM845 834q21 -1 27 3.5t1 15.5q-9 19 -20.5 43t-22.5 51 t-22 54.5t-18 52.5q-4 16 -10.5 23t-20.5 16q-15 8 -32 14t-34 14q-17 6 -31 5.5t-31 -11.5q-35 -20 -69.5 -43t-66.5 -46.5t-58.5 -45t-44.5 -37.5q-22 -17 2 -36q13 -11 25 -19t25 -16q16 -9 27 -9t22 9q35 26 76 55.5t89 60.5q17 -36 30 -68t27 -54q17 -21 53 -26 q21 -4 40 -5t37 -1zM334 316q65 85 127 160.5t113 135.5q0 -66 4 -136t9 -142q-127 -6 -253 -18z" />
<glyph unicode="&#xc3;" horiz-adv-x="1054" d="M605 186q10 -77 24 -136q7 -28 21.5 -39t49.5 -18q35 -8 67.5 -9.5t70.5 -1.5t48.5 7t8.5 25q-9 84 -16.5 176.5t-12.5 181.5t-6.5 168.5t0.5 136.5q1 23 -11 37.5t-53 22.5l-58 10t-63 9.5t-74.5 8t-92.5 5.5q-59 3 -90 -10t-51 -34q-37 -40 -78.5 -90t-85 -105.5 t-87 -113.5t-83.5 -114.5t-75 -109t-61 -96.5q-11 -21 -11.5 -33.5t6 -20.5t19.5 -13.5t30 -13.5q21 -8 44 -14.5t41 -11.5q33 -8 49.5 -5t30.5 20q21 32 44 65.5t55 71.5q40 7 87.5 13t99.5 11t106 10t107 10zM739 852q67 0 148 37q45 19 65 35t20 30q0 13 -28 23 q-25 7 -53 7q-31 0 -62 -14q-5 -3 -15.5 -9t-22.5 -13t-23.5 -11.5t-17.5 -4.5q-42 2 -82 15t-76 20q-33 7 -62.5 10.5t-58.5 3.5q-26 0 -63 -7.5t-74 -18.5t-67 -24t-40 -23q-14 -14 -14 -26q0 -14 18 -21t51 -7q40 0 66 10q2 0 12.5 5t24.5 11.5t29.5 11.5t27.5 5 q15 0 37 -2t44.5 -5.5t42 -8t30.5 -9.5q23 -11 59 -15.5t84 -4.5zM334 316q65 85 127 160.5t113 135.5q0 -66 4 -136t9 -142q-127 -6 -253 -18z" />
<glyph unicode="&#xc4;" horiz-adv-x="1054" d="M605 186q10 -77 24 -136q7 -28 21.5 -39t49.5 -18q35 -8 67.5 -9.5t70.5 -1.5t48.5 7t8.5 25q-9 84 -16.5 176.5t-12.5 181.5t-6.5 168.5t0.5 136.5q1 23 -11 37.5t-53 22.5l-58 10t-63 9.5t-74.5 8t-92.5 5.5q-59 3 -90 -10t-51 -34q-37 -40 -78.5 -90t-85 -105.5 t-87 -113.5t-83.5 -114.5t-75 -109t-61 -96.5q-11 -21 -11.5 -33.5t6 -20.5t19.5 -13.5t30 -13.5q21 -8 44 -14.5t41 -11.5q33 -8 49.5 -5t30.5 20q21 32 44 65.5t55 71.5q40 7 87.5 13t99.5 11t106 10t107 10zM334 316q65 85 127 160.5t113 135.5q0 -66 4 -136t9 -142 q-127 -6 -253 -18zM304 910q-2 -17 7 -30.5t25.5 -23.5t38.5 -15t47 -4q25 0 44.5 5.5t34 13.5t23 17t11.5 16q6 9 6 21q0 18 -20.5 35t-65.5 26q-32 6 -58.5 3t-46.5 -12t-32 -23t-14 -29zM689 910q-3 -17 5.5 -31t25 -24t39 -15t48.5 -4q25 0 44.5 5.5t33.5 13.5t23 17 t12 16q2 5 3 10t1 12q0 17 -20 34t-64 26q-33 6 -60 3t-47 -12t-31.5 -22.5t-12.5 -28.5z" />
<glyph unicode="&#xc5;" horiz-adv-x="1054" d="M605 186q10 -77 24 -136q7 -28 21.5 -39t49.5 -18q35 -8 67.5 -9.5t70.5 -1.5t48.5 7t8.5 25q-9 84 -16.5 176.5t-12.5 181.5t-6.5 168.5t0.5 136.5q1 23 -11 37.5t-53 22.5l-58 10t-63 9.5t-74.5 8t-92.5 5.5q-59 3 -90 -10t-51 -34q-37 -40 -78.5 -90t-85 -105.5 t-87 -113.5t-83.5 -114.5t-75 -109t-61 -96.5q-11 -21 -11.5 -33.5t6 -20.5t19.5 -13.5t30 -13.5q21 -8 44 -14.5t41 -11.5q33 -8 49.5 -5t30.5 20q21 32 44 65.5t55 71.5q40 7 87.5 13t99.5 11t106 10t107 10zM832 1036q-25 6 -61 11t-76 7q-29 2 -63.5 -1.5t-59.5 -10.5 q-57 -17 -95.5 -41.5t-57.5 -51.5t-16.5 -53.5t28.5 -46.5q10 -9 30.5 -16t40.5 -11q26 -6 58.5 -8.5t62.5 -3.5q46 -2 80.5 1t66.5 13q45 16 74 38.5t44 46.5t16.5 47.5t-9.5 43.5q-8 11 -21.5 19.5t-41.5 16.5zM334 316q65 85 127 160.5t113 135.5q0 -66 4 -136t9 -142 q-127 -6 -253 -18zM719 1011q15 -2 22.5 -11t8 -22.5t-4.5 -28.5t-15 -28q-11 -17 -26 -31.5t-32.5 -24t-36 -14.5t-34.5 -2q-18 2 -26.5 11t-9.5 21.5t4 27.5t16 28t27.5 27t35.5 25t37.5 17t33.5 5z" />
<glyph unicode="&#xc6;" horiz-adv-x="1549" d="M1036 738q-27 5 -54.5 10t-60 9.5t-72.5 8t-92 5.5q-57 3 -92.5 -10t-61.5 -34q-50 -40 -108.5 -90t-120.5 -105.5t-125 -113.5t-122 -114.5t-111 -109t-93 -96.5q-18 -21 -23 -33.5t-1 -20.5t15 -13.5t24 -13.5q20 -8 41.5 -14.5t35.5 -11.5q33 -8 50.5 -5t35.5 20 q32 32 65 65.5t78 71.5q42 7 92 13t103.5 11t108.5 9.5t108 9.5q-8 -32 -15 -53t-12.5 -36t-9 -25.5t-3.5 -21.5q-3 -28 19.5 -38.5t57.5 -17.5q10 -4 40.5 -5.5t65.5 -1.5q36 0 68.5 1t47.5 3q88 11 184.5 24t189.5 25q38 5 45 12.5t-1 27.5q-11 18 -21.5 35t-28.5 36 q-15 17 -38 23t-61 4q-72 -3 -132.5 -7.5t-125.5 -12.5q0 4 1 7t1 7q11 23 20.5 46.5t19.5 49.5q81 11 167.5 20.5t171.5 19.5q38 5 46.5 12t-2.5 28q-8 18 -18 35t-28 35q-15 17 -37 22.5t-60 4.5q-45 -1 -85 -2.5t-82 -5.5q21 45 38.5 86t35.5 78q94 8 177.5 14t161.5 11 q38 3 48 10.5t3 28.5q-8 18 -16 33t-26 34q-22 35 -95 34q-97 -2 -174 -10.5t-149 -19.5q-2 1 -5 1q-2 0 -4 1zM431 317q93 85 180.5 160.5t160.5 135.5q-21 -66 -41.5 -136t-37.5 -142q-66 -3 -130 -7.5t-132 -10.5z" />
<glyph unicode="&#xc7;" horiz-adv-x="942" d="M213 -203q18 13 40.5 33t43.5 43t39 46.5t29 43.5q0 2 1 4.5t1 4.5q62 0 119.5 11t94.5 28q40 20 79 50t64 65q10 15 15.5 27.5t2.5 22.5t-17 17.5t-41 12.5q-135 25 -218 -32q-114 -82 -173 -68q-30 6 -45 32t-17 64.5t7.5 84.5t29.5 91q20 42 53 89t70 86t73 63t62 19 q26 -6 31.5 -27.5t5.5 -47.5q0 -14 5 -32q6 -21 18.5 -37.5t34 -29t52.5 -21t75 -14.5q23 -3 36.5 -2t21 4.5t11.5 9.5t8 13q7 15 11.5 34t6.5 40t2 42t-2 39q-5 32 -24 57t-71 50q-26 10 -58.5 20t-68.5 18t-74 13.5t-74 7.5q-48 2 -103.5 -6t-109.5 -36 q-69 -36 -125.5 -85.5t-98.5 -107t-68.5 -119t-34.5 -121t3 -112.5t44 -94q10 -14 25 -26t33 -22.5t37.5 -18.5t38.5 -14q5 -2 11.5 -3t13.5 -3q-19 -25 -40 -52t-41 -52.5t-38 -48.5t-31 -40q-27 -31 37 -39q27 -2 52 -3.5t50 0.5q50 2 85 28z" />
<glyph unicode="&#xc8;" horiz-adv-x="847" d="M99 710l-167 -578q-5 -26 7 -45t37 -33q28 -18 50 -29.5t47 -22.5q10 -5 22.5 -9t28.5 -6t37.5 -1.5t51.5 5.5q88 11 184.5 24t189.5 25q38 5 45 12.5t-1 27.5q-11 18 -21.5 35t-28.5 36q-15 17 -38 23t-61 4q-71 -3 -132.5 -7.5t-127.5 -12.5q12 26 22.5 53.5t21.5 56.5 q81 11 167.5 20.5t171.5 19.5q38 5 46.5 12t-2.5 28q-8 18 -18 35t-28 35q-15 17 -37 22.5t-60 4.5q-45 -1 -85 -2.5t-82 -5.5q21 45 38.5 86t36.5 78q93 8 176.5 14t161.5 11q38 3 48 10.5t3 28.5q-8 18 -16 33t-26 34q-22 35 -94 34q-77 -2 -154 -7.5t-150.5 -13.5 t-140.5 -17t-123 -18zM191 972q36 -14 86 -31t108.5 -34t121 -33.5t122.5 -28.5q26 -7 57 -3t69 17q-1 -1 7 3t14 11t3.5 15.5t-24.5 16.5q-51 13 -103 28t-102.5 31t-97.5 33t-87 35q-21 10 -49.5 9.5t-73.5 -14.5q-25 -7 -35.5 -20.5t-15.5 -34.5z" />
<glyph unicode="&#xc9;" horiz-adv-x="847" d="M99 710l-167 -578q-5 -26 7 -45t37 -33q28 -18 50 -29.5t47 -22.5q10 -5 22.5 -9t28.5 -6t37.5 -1.5t51.5 5.5q88 11 184.5 24t189.5 25q38 5 45 12.5t-1 27.5q-11 18 -21.5 35t-28.5 36q-15 17 -38 23t-61 4q-71 -3 -132.5 -7.5t-127.5 -12.5q12 26 22.5 53.5t21.5 56.5 q81 11 167.5 20.5t171.5 19.5q38 5 46.5 12t-2.5 28q-8 18 -18 35t-28 35q-15 17 -37 22.5t-60 4.5q-45 -1 -85 -2.5t-82 -5.5q21 45 38.5 86t36.5 78q93 8 176.5 14t161.5 11q38 3 48 10.5t3 28.5q-8 18 -16 33t-26 34q-22 35 -94 34q-77 -2 -154 -7.5t-150.5 -13.5 t-140.5 -17t-123 -18zM781 972q-5 21 -15.5 34.5t-35.5 20.5q-45 14 -73 14.5t-50 -9.5q-39 -18 -86 -35t-97.5 -33t-103 -31t-102.5 -28q-23 -8 -25.5 -16.5t3.5 -15.5t14.5 -11t7.5 -3q38 -13 68.5 -17t56.5 3q60 12 123 28.5t121 33.5t108 34t86 31z" />
<glyph unicode="&#xca;" horiz-adv-x="847" d="M99 710l-167 -578q-5 -26 7 -45t37 -33q28 -18 50 -29.5t47 -22.5q10 -5 22.5 -9t28.5 -6t37.5 -1.5t51.5 5.5q88 11 184.5 24t189.5 25q38 5 45 12.5t-1 27.5q-11 18 -21.5 35t-28.5 36q-15 17 -38 23t-61 4q-71 -3 -132.5 -7.5t-127.5 -12.5q12 26 22.5 53.5t21.5 56.5 q81 11 167.5 20.5t171.5 19.5q38 5 46.5 12t-2.5 28q-8 18 -18 35t-28 35q-15 17 -37 22.5t-60 4.5q-45 -1 -85 -2.5t-82 -5.5q21 45 38.5 86t36.5 78q93 8 176.5 14t161.5 11q38 3 48 10.5t3 28.5q-8 18 -16 33t-26 34q-22 35 -94 34q-77 -2 -154 -7.5t-150.5 -13.5 t-140.5 -17t-123 -18zM724 831q21 -1 27 3.5t1 15.5q-9 19 -20.5 43t-22.5 51t-22 54.5t-18 52.5q-4 16 -10.5 23t-20.5 16q-15 8 -32 14t-34 14q-17 6 -31 5.5t-31 -11.5q-35 -20 -69.5 -43t-66.5 -46.5t-58.5 -45t-44.5 -37.5q-22 -17 2 -36q13 -11 25 -19t25 -16 q16 -9 27 -9t22 9q35 26 76 55.5t89 60.5q17 -36 30 -68t27 -54q17 -21 53 -26q21 -4 40 -5t37 -1z" />
<glyph unicode="&#xcb;" horiz-adv-x="847" d="M99 710l-167 -578q-5 -26 7 -45t37 -33q28 -18 50 -29.5t47 -22.5q10 -5 22.5 -9t28.5 -6t37.5 -1.5t51.5 5.5q88 11 184.5 24t189.5 25q38 5 45 12.5t-1 27.5q-11 18 -21.5 35t-28.5 36q-15 17 -38 23t-61 4q-71 -3 -132.5 -7.5t-127.5 -12.5q12 26 22.5 53.5t21.5 56.5 q81 11 167.5 20.5t171.5 19.5q38 5 46.5 12t-2.5 28q-8 18 -18 35t-28 35q-15 17 -37 22.5t-60 4.5q-45 -1 -85 -2.5t-82 -5.5q21 45 38.5 86t36.5 78q93 8 176.5 14t161.5 11q38 3 48 10.5t3 28.5q-8 18 -16 33t-26 34q-22 35 -94 34q-77 -2 -154 -7.5t-150.5 -13.5 t-140.5 -17t-123 -18zM145 905q-2 -17 7.5 -30.5t26 -23.5t38.5 -15t47 -4q25 0 44.5 5.5t34 13.5t23 17t10.5 16q7 8 7 21q0 18 -20.5 35t-65.5 26q-32 6 -59 3t-46.5 -12t-31.5 -23t-15 -29zM530 905q-2 -17 6.5 -31t25 -24t39 -15t48.5 -4q25 0 44 5.5t33 13.5t23 17 t12 16q2 5 3.5 10t1.5 12q0 17 -20.5 34t-63.5 26q-33 6 -60 3t-47 -12t-31.5 -22.5t-13.5 -28.5z" />
<glyph unicode="&#xcc;" horiz-adv-x="458" d="M352 707q-35 14 -81 26.5t-86 18.5q-40 7 -59.5 2t-30.5 -27q-16 -37 -34 -90t-37 -113t-37 -124t-33 -123t-26.5 -109.5t-15.5 -84.5q-5 -26 5 -40.5t43 -25.5q32 -11 66.5 -18t72.5 -14q38 -6 51 -1t19 22q13 44 30 98.5t36.5 113.5t40.5 120t42 117.5t41 106.5t37 87 q4 10 5 18t-3.5 14.5t-15.5 12.5t-30 13zM-64 993q36 -14 86 -31t108 -34t121 -33.5t123 -28.5q26 -7 56.5 -3t68.5 17q-1 -1 7.5 3t14.5 11t3 15.5t-25 16.5q-50 13 -102.5 28t-102.5 31t-97 33t-87 35q-22 10 -50 9.5t-73 -14.5q-25 -7 -35.5 -20.5t-15.5 -34.5z" />
<glyph unicode="&#xcd;" horiz-adv-x="458" d="M352 707q-35 14 -81 26.5t-86 18.5q-40 7 -59.5 2t-30.5 -27q-16 -37 -34 -90t-37 -113t-37 -124t-33 -123t-26.5 -109.5t-15.5 -84.5q-5 -26 5 -40.5t43 -25.5q32 -11 66.5 -18t72.5 -14q38 -6 51 -1t19 22q13 44 30 98.5t36.5 113.5t40.5 120t42 117.5t41 106.5t37 87 q4 10 5 18t-3.5 14.5t-15.5 12.5t-30 13zM620 974q-5 21 -15 34.5t-35 20.5q-45 14 -73.5 14.5t-49.5 -9.5q-40 -18 -87 -35t-97.5 -33t-103 -31t-102.5 -28q-22 -8 -24.5 -16.5t3 -15.5t14 -11t7.5 -3q38 -13 68.5 -17t57.5 3q60 12 122.5 28.5t120.5 33.5t108.5 34 t85.5 31z" />
<glyph unicode="&#xce;" horiz-adv-x="458" d="M352 707q-35 14 -81 26.5t-86 18.5q-40 7 -59.5 2t-30.5 -27q-16 -37 -34 -90t-37 -113t-37 -124t-33 -123t-26.5 -109.5t-15.5 -84.5q-5 -26 5 -40.5t43 -25.5q32 -11 66.5 -18t72.5 -14q38 -6 51 -1t19 22q13 44 30 98.5t36.5 113.5t40.5 120t42 117.5t41 106.5t37 87 q4 10 5 18t-3.5 14.5t-15.5 12.5t-30 13zM510 826q22 -1 28 3.5t1 15.5q-9 19 -20.5 43t-23 51t-22.5 54.5t-18 52.5q-3 16 -10 23t-20 16q-15 8 -32 14t-34 14q-17 6 -31 5.5t-31 -11.5q-35 -20 -69.5 -43t-66.5 -46.5t-59 -45t-45 -37.5q-20 -17 2 -36q14 -11 25.5 -19 t25.5 -16q16 -9 26 -9q13 0 22 9q35 26 76 55.5t89 60.5q17 -36 30.5 -68t27.5 -54q17 -22 52 -26q22 -4 40.5 -5t36.5 -1z" />
<glyph unicode="&#xcf;" horiz-adv-x="458" d="M352 707q-35 14 -81 26.5t-86 18.5q-40 7 -59.5 2t-30.5 -27q-16 -37 -34 -90t-37 -113t-37 -124t-33 -123t-26.5 -109.5t-15.5 -84.5q-5 -26 5 -40.5t43 -25.5q32 -11 66.5 -18t72.5 -14q38 -6 51 -1t19 22q13 44 30 98.5t36.5 113.5t40.5 120t42 117.5t41 106.5t37 87 q4 10 5 18t-3.5 14.5t-15.5 12.5t-30 13zM-42 905q-2 -17 7.5 -30.5t26 -23.5t38.5 -15t47 -4q25 0 44.5 5.5t34 13.5t23 17t10.5 16q7 8 7 21q0 18 -20.5 35t-65.5 26q-32 6 -59 3t-46.5 -12t-31.5 -23t-15 -29zM343 905q-2 -17 6.5 -31t25 -24t39 -15t48.5 -4q25 0 44 5.5 t33 13.5t23 17t12 16q2 5 3.5 10t1.5 12q0 17 -20.5 34t-63.5 26q-33 6 -60 3t-47 -12t-31.5 -22.5t-13.5 -28.5z" />
<glyph unicode="&#xd0;" horiz-adv-x="1322" d="M59 462q-104 -6 -61 -45q29 -31 92 -65q33 -17 66.5 -22t81.5 -1l-40 -174q-7 -24 -5 -39.5t10.5 -26.5t21 -19.5t26.5 -17.5q37 -20 67 -33.5t71 -27.5q80 -29 157 -9q146 28 257.5 73t190 100t125 116t63 121.5t3 117t-55.5 101.5q-46 53 -110 85t-137.5 48 t-151.5 18.5t-152.5 -4.5t-141 -21.5t-115.5 -30.5l-53 -233q-50 -2 -99.5 -4.5t-109.5 -6.5zM473 138q17 54 33.5 106t34.5 103q35 1 78 1.5t103 2.5q51 1 69.5 7t4.5 24q-11 14 -21.5 30.5t-35.5 34.5q-35 31 -132 31h-17q11 30 24 59.5t26 58.5q85 17 144.5 3.5 t84.5 -41.5q11 -14 17.5 -34t4.5 -46q-3 -38 -26.5 -84t-73.5 -92t-128.5 -89t-189.5 -75z" />
<glyph unicode="&#xd1;" horiz-adv-x="1030" d="M568 314q-16 45 -31.5 93.5t-29.5 93t-25 82t-18 60.5q-8 30 -24.5 45.5t-56.5 25.5q-48 14 -93 23t-92 17q-38 6 -61.5 0t-35.5 -29q-18 -42 -37 -98t-38.5 -118.5t-37.5 -126t-33 -120.5t-26 -102.5t-15 -71.5q-7 -26 2.5 -40.5t41.5 -25.5q32 -14 68 -20.5t71 -12.5 q38 -7 51.5 -2.5t18.5 21.5q9 36 23 83t31 100t35.5 110.5t36.5 113.5q17 -47 36.5 -94t40 -91.5t41 -83.5t40.5 -69q27 -44 90 -60q35 -8 69.5 -14.5t69.5 -11.5q78 -12 86 26q19 69 44 154.5t52 172.5t54.5 168.5t51.5 142.5q4 10 5 19t-3 16.5t-14.5 14.5t-29.5 14 q-23 9 -40 14t-32.5 9t-31 6.5t-34.5 5.5q-40 6 -61.5 0.5t-29.5 -27.5q-33 -85 -68.5 -191.5t-60.5 -221.5zM739 852q67 0 148 37q45 19 65 35t20 30q0 13 -28 23q-25 7 -53 7q-31 0 -62 -14q-5 -3 -15.5 -9t-22.5 -13t-23.5 -11.5t-17.5 -4.5q-42 2 -82 15t-76 20 q-33 7 -62.5 10.5t-58.5 3.5q-26 0 -63 -7.5t-74 -18.5t-67 -24t-40 -23q-14 -14 -14 -26q0 -14 18 -21t51 -7q40 0 66 10q2 0 12.5 5t24.5 11.5t29.5 11.5t27.5 5q15 0 37 -2t44.5 -5.5t42 -8t30.5 -9.5q23 -11 59 -15.5t84 -4.5z" />
<glyph unicode="&#xd2;" d="M748 704q-45 21 -111.5 35.5t-139.5 21.5q-27 3 -57 1.5t-60 -6.5t-57.5 -13.5t-49.5 -18.5q-105 -53 -176 -131.5t-105 -164t-29.5 -169.5t50.5 -150q20 -28 57 -50t75 -36q48 -17 107 -25.5t113 -12.5q84 -6 148.5 4.5t122.5 41.5q82 51 135 121.5t80 147t29 152 t-18 137.5q-13 35 -38 63t-76 52zM543 625q27 -5 39.5 -35t14 -72t-7.5 -90t-26 -90q-20 -53 -48.5 -98t-60.5 -76.5t-65 -46.5t-63 -8q-32 7 -48 36t-18.5 69.5t7.5 87.5t30 89q20 41 50.5 85t65 78.5t69 55t61.5 15.5zM191 972q36 -14 86 -31t108.5 -34t121 -33.5 t122.5 -28.5q26 -7 57 -3t69 17q-1 -1 7 3t14 11t3.5 15.5t-24.5 16.5q-51 13 -103 28t-102.5 31t-97.5 33t-87 35q-21 10 -49.5 9.5t-73.5 -14.5q-25 -7 -35.5 -20.5t-15.5 -34.5z" />
<glyph unicode="&#xd3;" d="M748 704q-45 21 -111.5 35.5t-139.5 21.5q-27 3 -57 1.5t-60 -6.5t-57.5 -13.5t-49.5 -18.5q-105 -53 -176 -131.5t-105 -164t-29.5 -169.5t50.5 -150q20 -28 57 -50t75 -36q48 -17 107 -25.5t113 -12.5q84 -6 148.5 4.5t122.5 41.5q82 51 135 121.5t80 147t29 152 t-18 137.5q-13 35 -38 63t-76 52zM543 625q27 -5 39.5 -35t14 -72t-7.5 -90t-26 -90q-20 -53 -48.5 -98t-60.5 -76.5t-65 -46.5t-63 -8q-32 7 -48 36t-18.5 69.5t7.5 87.5t30 89q20 41 50.5 85t65 78.5t69 55t61.5 15.5zM781 972q-5 21 -15.5 34.5t-35.5 20.5 q-45 14 -73 14.5t-50 -9.5q-39 -18 -86 -35t-97.5 -33t-103 -31t-102.5 -28q-23 -8 -25.5 -16.5t3.5 -15.5t14.5 -11t7.5 -3q38 -13 68.5 -17t56.5 3q60 12 123 28.5t121 33.5t108 34t86 31z" />
<glyph unicode="&#xd4;" d="M748 704q-45 21 -111.5 35.5t-139.5 21.5q-27 3 -57 1.5t-60 -6.5t-57.5 -13.5t-49.5 -18.5q-105 -53 -176 -131.5t-105 -164t-29.5 -169.5t50.5 -150q20 -28 57 -50t75 -36q48 -17 107 -25.5t113 -12.5q84 -6 148.5 4.5t122.5 41.5q82 51 135 121.5t80 147t29 152 t-18 137.5q-13 35 -38 63t-76 52zM543 625q27 -5 39.5 -35t14 -72t-7.5 -90t-26 -90q-20 -53 -48.5 -98t-60.5 -76.5t-65 -46.5t-63 -8q-32 7 -48 36t-18.5 69.5t7.5 87.5t30 89q20 41 50.5 85t65 78.5t69 55t61.5 15.5zM799 814q21 -1 27 3.5t1 15.5q-9 19 -20.5 43t-23 51 t-22 54.5t-17.5 52.5q-4 16 -11 23t-20 16q-15 8 -32 14t-34 14q-17 6 -31 5.5t-31 -11.5q-35 -20 -69.5 -43t-66.5 -46.5t-59 -45t-45 -37.5q-20 -17 3 -36q13 -11 25 -19t25 -16q16 -9 27 -9t22 9q35 26 76 55.5t89 60.5q17 -36 30 -68t27 -54q17 -22 53 -26 q21 -4 39.5 -5t37.5 -1z" />
<glyph unicode="&#xd5;" d="M748 704q-45 21 -111.5 35.5t-139.5 21.5q-27 3 -57 1.5t-60 -6.5t-57.5 -13.5t-49.5 -18.5q-105 -53 -176 -131.5t-105 -164t-29.5 -169.5t50.5 -150q20 -28 57 -50t75 -36q48 -17 107 -25.5t113 -12.5q84 -6 148.5 4.5t122.5 41.5q82 51 135 121.5t80 147t29 152 t-18 137.5q-13 35 -38 63t-76 52zM543 625q27 -5 39.5 -35t14 -72t-7.5 -90t-26 -90q-20 -53 -48.5 -98t-60.5 -76.5t-65 -46.5t-63 -8q-32 7 -48 36t-18.5 69.5t7.5 87.5t30 89q20 41 50.5 85t65 78.5t69 55t61.5 15.5zM739 852q67 0 148 37q45 19 65 35t20 30q0 13 -28 23 q-25 7 -53 7q-31 0 -62 -14q-5 -3 -15.5 -9t-22.5 -13t-23.5 -11.5t-17.5 -4.5q-42 2 -82 15t-76 20q-33 7 -62.5 10.5t-58.5 3.5q-26 0 -63 -7.5t-74 -18.5t-67 -24t-40 -23q-14 -14 -14 -26q0 -14 18 -21t51 -7q40 0 66 10q2 0 12.5 5t24.5 11.5t29.5 11.5t27.5 5 q15 0 37 -2t44.5 -5.5t42 -8t30.5 -9.5q23 -11 59 -15.5t84 -4.5z" />
<glyph unicode="&#xd6;" d="M748 704q-45 21 -111.5 35.5t-139.5 21.5q-27 3 -57 1.5t-60 -6.5t-57.5 -13.5t-49.5 -18.5q-105 -53 -176 -131.5t-105 -164t-29.5 -169.5t50.5 -150q20 -28 57 -50t75 -36q48 -17 107 -25.5t113 -12.5q84 -6 148.5 4.5t122.5 41.5q82 51 135 121.5t80 147t29 152 t-18 137.5q-13 35 -38 63t-76 52zM543 625q27 -5 39.5 -35t14 -72t-7.5 -90t-26 -90q-20 -53 -48.5 -98t-60.5 -76.5t-65 -46.5t-63 -8q-32 7 -48 36t-18.5 69.5t7.5 87.5t30 89q20 41 50.5 85t65 78.5t69 55t61.5 15.5zM220 905q-2 -17 7.5 -30.5t26 -23.5t38.5 -15t47 -4 q25 0 44.5 5.5t33.5 13.5t22.5 17t11.5 16q7 10 7 21q0 18 -20.5 35t-65.5 26q-32 6 -59 3t-46.5 -12t-31.5 -23t-15 -29zM605 905q-3 -17 6 -31t25.5 -24t39 -15t48.5 -4q25 0 44 5.5t33 13.5t23 17t12 16q2 5 3 10t1 12q0 17 -20 34t-63 26q-33 6 -60.5 3t-47 -12 t-31.5 -22.5t-13 -28.5z" />
<glyph unicode="&#xd7;" horiz-adv-x="961" d="M605 193q22 -10 38 -8.5t35 17.5q14 14 29.5 27.5t29.5 31.5q26 29 -15 50q-23 11 -54 25t-67 30q36 12 71.5 21.5t68.5 19.5q18 4 29.5 8t19 9t11.5 11.5t6 15.5q7 17 1.5 37t-16.5 37q-8 13 -32.5 14t-53.5 -7q-61 -15 -138 -38t-165 -51q-66 26 -131 47t-116 35 q-21 6 -46.5 6.5t-45.5 -15.5q-18 -16 -37 -38.5t-27 -39.5q-5 -19 2 -27t35 -16q58 -15 121 -36q-50 -17 -88 -32t-70 -26q-54 -23 -46 -50q5 -18 11 -31t13 -28q4 -8 8.5 -12t12 -5t19 1.5t28.5 8.5q65 23 145 50t168 56q68 -23 127 -48.5t119 -49.5z" />
<glyph unicode="&#xd8;" d="M860 812q-14 7 -12.5 8.5t5.5 0.5t4.5 -0.5t-14.5 6.5q-64 26 -99 -11q-17 -14 -37 -35.5t-45 -47.5q-38 10 -80 16.5t-85 11.5q-27 3 -57 1.5t-60 -6.5t-57.5 -13.5t-49.5 -18.5q-105 -53 -176 -131.5t-105 -164t-29.5 -169.5t50.5 -150q12 -17 32 -32.5t43 -27.5 q-15 -18 -26 -33t-18 -25q-16 -23 -13 -40q3 -18 31 -29q10 -5 4.5 -3t-13.5 4.5t-11 3.5t13 -5q33 -11 50.5 -7.5t30.5 21.5q12 14 27 32t33 39q42 -9 84.5 -14t84.5 -8q84 -6 148.5 4.5t122.5 41.5q82 51 135 121.5t80 147t29 152t-18 137.5q-10 24 -24 45t-39 39 q23 25 42.5 45t34.5 34q18 18 17 30.5t-33 29.5zM563 338q-20 -53 -48.5 -98t-60.5 -76.5t-65 -46.5t-63 -8q-18 3 -29 13q66 75 143.5 160t151.5 168q-4 -29 -11.5 -57.5t-17.5 -54.5zM543 625q9 -2 16 -6q-36 -41 -74 -85t-76 -89.5t-76 -91.5t-73 -89q6 65 37 127 q20 41 50.5 85t65 78.5t69 55t61.5 15.5z" />
<glyph unicode="&#xd9;" horiz-adv-x="992" d="M0 102q22 -28 53 -47t66 -33q84 -32 215 -38q66 -3 117.5 3.5t102.5 23.5q71 28 125 87t96.5 142.5t76 188.5t63.5 227q7 21 0.5 32t-44.5 25q-35 12 -77 24.5t-79 18.5t-62.5 1t-27.5 -27q-13 -50 -32 -117.5t-43 -138.5t-52.5 -139.5t-61 -120.5t-68.5 -81.5t-75 -22.5 q-32 6 -42.5 34.5t-6.5 71t20 95.5t38 107.5t47 107.5t47 96q23 49 -46 80q-33 14 -68 25t-73 18q-40 8 -60.5 3.5t-31.5 -26.5q-40 -77 -78.5 -164.5t-61 -172t-20.5 -159t43 -124.5zM191 972q36 -14 86 -31t108.5 -34t121 -33.5t122.5 -28.5q26 -7 57 -3t69 17q-1 -1 7 3 t14 11t3.5 15.5t-24.5 16.5q-51 13 -103 28t-102.5 31t-97.5 33t-87 35q-21 10 -49.5 9.5t-73.5 -14.5q-25 -7 -35.5 -20.5t-15.5 -34.5z" />
<glyph unicode="&#xda;" horiz-adv-x="992" d="M0 102q22 -28 53 -47t66 -33q84 -32 215 -38q66 -3 117.5 3.5t102.5 23.5q71 28 125 87t96.5 142.5t76 188.5t63.5 227q7 21 0.5 32t-44.5 25q-35 12 -77 24.5t-79 18.5t-62.5 1t-27.5 -27q-13 -50 -32 -117.5t-43 -138.5t-52.5 -139.5t-61 -120.5t-68.5 -81.5t-75 -22.5 q-32 6 -42.5 34.5t-6.5 71t20 95.5t38 107.5t47 107.5t47 96q23 49 -46 80q-33 14 -68 25t-73 18q-40 8 -60.5 3.5t-31.5 -26.5q-40 -77 -78.5 -164.5t-61 -172t-20.5 -159t43 -124.5zM781 972q-5 21 -15.5 34.5t-35.5 20.5q-45 14 -73 14.5t-50 -9.5q-39 -18 -86 -35 t-97.5 -33t-103 -31t-102.5 -28q-23 -8 -25.5 -16.5t3.5 -15.5t14.5 -11t7.5 -3q38 -13 68.5 -17t56.5 3q60 12 123 28.5t121 33.5t108 34t86 31z" />
<glyph unicode="&#xdb;" horiz-adv-x="992" d="M0 102q22 -28 53 -47t66 -33q84 -32 215 -38q66 -3 117.5 3.5t102.5 23.5q71 28 125 87t96.5 142.5t76 188.5t63.5 227q7 21 0.5 32t-44.5 25q-35 12 -77 24.5t-79 18.5t-62.5 1t-27.5 -27q-13 -50 -32 -117.5t-43 -138.5t-52.5 -139.5t-61 -120.5t-68.5 -81.5t-75 -22.5 q-32 6 -42.5 34.5t-6.5 71t20 95.5t38 107.5t47 107.5t47 96q23 49 -46 80q-33 14 -68 25t-73 18q-40 8 -60.5 3.5t-31.5 -26.5q-40 -77 -78.5 -164.5t-61 -172t-20.5 -159t43 -124.5zM724 831q21 -1 27 3.5t1 15.5q-9 19 -20.5 43t-22.5 51t-22 54.5t-18 52.5 q-4 16 -10.5 23t-20.5 16q-15 8 -32 14t-34 14q-17 6 -31 5.5t-31 -11.5q-35 -20 -69.5 -43t-66.5 -46.5t-58.5 -45t-44.5 -37.5q-22 -17 2 -36q13 -11 25 -19t25 -16q16 -9 27 -9t22 9q35 26 76 55.5t89 60.5q17 -36 30 -68t27 -54q17 -21 53 -26q21 -4 40 -5t37 -1z" />
<glyph unicode="&#xdc;" horiz-adv-x="992" d="M0 102q22 -28 53 -47t66 -33q84 -32 215 -38q66 -3 117.5 3.5t102.5 23.5q71 28 125 87t96.5 142.5t76 188.5t63.5 227q7 21 0.5 32t-44.5 25q-35 12 -77 24.5t-79 18.5t-62.5 1t-27.5 -27q-13 -50 -32 -117.5t-43 -138.5t-52.5 -139.5t-61 -120.5t-68.5 -81.5t-75 -22.5 q-32 6 -42.5 34.5t-6.5 71t20 95.5t38 107.5t47 107.5t47 96q23 49 -46 80q-33 14 -68 25t-73 18q-40 8 -60.5 3.5t-31.5 -26.5q-40 -77 -78.5 -164.5t-61 -172t-20.5 -159t43 -124.5zM209 905q-2 -17 7.5 -30.5t26 -23.5t38.5 -15t47 -4q25 0 44.5 5.5t33.5 13.5t22.5 17 t11.5 16q7 10 7 21q0 18 -20.5 35t-65.5 26q-32 6 -59 3t-46.5 -12t-31.5 -23t-15 -29zM594 905q-3 -17 6 -31t25.5 -24t39 -15t48.5 -4q25 0 44 5.5t33 13.5t23 17t12 16q2 5 3 10t1 12q0 17 -20 34t-63 26q-33 6 -60.5 3t-47 -12t-31.5 -22.5t-13 -28.5z" />
<glyph unicode="&#xdd;" horiz-adv-x="955" d="M889 644q18 25 16 39t-27 31q-21 12 -51.5 26t-60.5 23t-55 8t-36 -20q-64 -72 -131.5 -145.5t-138.5 -145.5q-35 72 -67 135t-61 111q-9 12 -17 21t-18 15.5t-23 10.5t-32 7q-38 5 -75 4t-75 -3q-35 -3 -41.5 -10.5t4.5 -28.5q20 -44 45.5 -97.5t53.5 -110.5t57 -114.5 t55 -111.5q-18 -63 -29.5 -117.5t-23.5 -96.5q-5 -26 5 -39.5t42 -27.5q31 -9 69.5 -17.5t73.5 -15.5q37 -6 50.5 -1.5t21.5 24.5q15 54 32.5 110.5t42.5 119.5q59 57 120.5 118t115.5 117t96 103.5t62 78.5zM781 972q-5 21 -15.5 34.5t-35.5 20.5q-45 14 -73 14.5t-50 -9.5 q-39 -18 -86 -35t-97.5 -33t-103 -31t-102.5 -28q-23 -8 -25.5 -16.5t3.5 -15.5t14.5 -11t7.5 -3q38 -13 68.5 -17t56.5 3q60 12 123 28.5t121 33.5t108 34t86 31z" />
<glyph unicode="&#xde;" horiz-adv-x="964" d="M352 707q-35 14 -81 26.5t-86 18.5q-40 7 -59.5 2t-30.5 -27q-16 -37 -34 -90t-37 -113t-37 -124t-33 -123t-26.5 -109.5t-15.5 -84.5q-5 -26 5 -40.5t43 -25.5q32 -11 66.5 -18t72.5 -14q38 -6 51 -1t19 22q5 17 10.5 35t11.5 37q84 15 169 36t161.5 46.5t141 54.5 t109.5 59q27 18 49.5 37t36 39.5t16.5 43t-9 48.5q-25 51 -65.5 86t-86.5 64q-60 33 -147.5 37t-184.5 -10q3 8 7.5 15t7.5 15q4 10 5 18t-3.5 14.5t-15.5 12.5t-30 13zM253 250q22 55 42 104.5t42 94.5q48 13 95 19.5t84.5 7t62 -4.5t28.5 -15q11 -18 -7 -45t-63 -56 t-116.5 -57t-167.5 -48z" />
<glyph unicode="&#xdf;" horiz-adv-x="1500" d="M1313 696q-9 9 -12 11t-5 2t-6 1t-16 9q-45 32 -104 2q-40 -20 -96 -51t-121.5 -70t-137 -82.5t-143.5 -88.5t-141 -88.5t-129.5 -82t-108 -69.5t-77.5 -51q-31 -20 -38 -36q-2 -8 0 -16t13 -16q7 -6 8 -4.5t1.5 3.5t2.5 2q3 0 15 -7q23 -14 42 -13.5t44 17.5 q52 32 131.5 79t172 101t192 111t191.5 109.5t170.5 96.5t129.5 71q29 15 35.5 27t-13.5 33zM207 414q40 19 81 42.5t77 48t66 48.5t49 46q16 18 28 35t15.5 33.5t-3 33.5t-25.5 35q-14 12 -37 24.5t-52.5 21.5t-65 13t-74.5 0q-66 -8 -123 -34.5t-97 -66.5 q-23 -26 -19 -36.5t26 -15.5q36 -8 79.5 -7.5t76.5 15.5q21 13 41.5 24.5t39.5 19t34.5 10.5t25.5 -2q11 -4 -0.5 -21t-39.5 -41.5t-69 -54.5t-88.5 -61t-99 -60.5t-99.5 -52.5q-11 -6 -14.5 -11.5t-2.5 -11t6 -11t11 -10.5q13 -11 34 -24.5t38 -21.5q6 -4 12 -6.5t15 -4 t22 -1t33 3.5q26 4 66 8t84 8t87.5 7t76.5 4q20 2 25.5 6t-0.5 15q-5 9 -15.5 21t-22.5 21q-22 20 -59 19q-29 -1 -68 -2.5t-75 -5.5zM1252 230q40 11 72 23t55 26q19 11 31.5 27t13.5 35t-11 40.5t-42 42.5q-29 19 -57 29t-54.5 13.5t-50.5 2.5t-45 -4q-58 -8 -107.5 -28.5 t-77.5 -41.5q-21 -17 7 -32q14 -7 35 -12t43.5 -6.5t44 0.5t37.5 10q23 8 49 16.5t46 8.5q12 0 20 -6q10 -7 -0.5 -19t-42.5 -26.5t-87.5 -31.5t-136.5 -33q-18 -4 -20.5 -11.5t7.5 -18.5q26 -26 63.5 -39.5t77.5 -9.5q32 2 50.5 1t35.5 -10q8 -5 13 -13t4 -18t-9 -21.5 t-24 -23.5q-35 -23 -82 -26t-122 22q-26 8 -59.5 10t-61.5 -9q-8 -3 -12.5 -7t-3 -9.5t10 -13t27.5 -17.5q60 -35 121.5 -48t118.5 -13q72 0 132 14.5t105 52.5q40 34 35 75t-72 76q-17 9 -36.5 14t-40.5 9z" />
<glyph unicode="&#xe0;" horiz-adv-x="1054" d="M605 186q10 -77 24 -136q7 -28 21.5 -39t49.5 -18q35 -8 67.5 -9.5t70.5 -1.5t48.5 7t8.5 25q-9 84 -16.5 176.5t-12.5 181.5t-6.5 168.5t0.5 136.5q1 23 -11 37.5t-53 22.5l-58 10t-63 9.5t-74.5 8t-92.5 5.5q-59 3 -90 -10t-51 -34q-37 -40 -78.5 -90t-85 -105.5 t-87 -113.5t-83.5 -114.5t-75 -109t-61 -96.5q-11 -21 -11.5 -33.5t6 -20.5t19.5 -13.5t30 -13.5q21 -8 44 -14.5t41 -11.5q33 -8 49.5 -5t30.5 20q21 32 44 65.5t55 71.5q40 7 87.5 13t99.5 11t106 10t107 10zM288 977q36 -14 86 -31t108 -34t121 -33.5t123 -28.5 q26 -7 56.5 -3t68.5 17q-1 -1 7.5 3t14.5 11t3 15.5t-25 16.5q-50 13 -102.5 28t-102.5 31t-97 33t-87 35q-22 10 -50 9.5t-73 -14.5q-25 -7 -35.5 -20.5t-15.5 -34.5zM334 316q65 85 127 160.5t113 135.5q0 -66 4 -136t9 -142q-127 -6 -253 -18z" />
<glyph unicode="&#xe1;" horiz-adv-x="1054" d="M605 186q10 -77 24 -136q7 -28 21.5 -39t49.5 -18q35 -8 67.5 -9.5t70.5 -1.5t48.5 7t8.5 25q-9 84 -16.5 176.5t-12.5 181.5t-6.5 168.5t0.5 136.5q1 23 -11 37.5t-53 22.5l-58 10t-63 9.5t-74.5 8t-92.5 5.5q-59 3 -90 -10t-51 -34q-37 -40 -78.5 -90t-85 -105.5 t-87 -113.5t-83.5 -114.5t-75 -109t-61 -96.5q-11 -21 -11.5 -33.5t6 -20.5t19.5 -13.5t30 -13.5q21 -8 44 -14.5t41 -11.5q33 -8 49.5 -5t30.5 20q21 32 44 65.5t55 71.5q40 7 87.5 13t99.5 11t106 10t107 10zM911 972q-5 21 -15.5 34.5t-35.5 20.5q-45 14 -73 14.5 t-50 -9.5q-40 -18 -87 -35t-97 -33t-102.5 -31t-102.5 -28q-23 -8 -25.5 -16.5t3.5 -15.5t14.5 -11t7.5 -3q38 -13 68.5 -17t56.5 3q60 12 123 28.5t121 33.5t108 34t86 31zM334 316q65 85 127 160.5t113 135.5q0 -66 4 -136t9 -142q-127 -6 -253 -18z" />
<glyph unicode="&#xe2;" horiz-adv-x="1054" d="M605 186q10 -77 24 -136q7 -28 21.5 -39t49.5 -18q35 -8 67.5 -9.5t70.5 -1.5t48.5 7t8.5 25q-9 84 -16.5 176.5t-12.5 181.5t-6.5 168.5t0.5 136.5q1 23 -11 37.5t-53 22.5l-58 10t-63 9.5t-74.5 8t-92.5 5.5q-59 3 -90 -10t-51 -34q-37 -40 -78.5 -90t-85 -105.5 t-87 -113.5t-83.5 -114.5t-75 -109t-61 -96.5q-11 -21 -11.5 -33.5t6 -20.5t19.5 -13.5t30 -13.5q21 -8 44 -14.5t41 -11.5q33 -8 49.5 -5t30.5 20q21 32 44 65.5t55 71.5q40 7 87.5 13t99.5 11t106 10t107 10zM845 834q21 -1 27 3.5t1 15.5q-9 19 -20.5 43t-22.5 51 t-22 54.5t-18 52.5q-4 16 -10.5 23t-20.5 16q-15 8 -32 14t-34 14q-17 6 -31 5.5t-31 -11.5q-35 -20 -69.5 -43t-66.5 -46.5t-58.5 -45t-44.5 -37.5q-22 -17 2 -36q13 -11 25 -19t25 -16q16 -9 27 -9t22 9q35 26 76 55.5t89 60.5q17 -36 30 -68t27 -54q17 -21 53 -26 q21 -4 40 -5t37 -1zM334 316q65 85 127 160.5t113 135.5q0 -66 4 -136t9 -142q-127 -6 -253 -18z" />
<glyph unicode="&#xe3;" horiz-adv-x="1054" d="M605 186q10 -77 24 -136q7 -28 21.5 -39t49.5 -18q35 -8 67.5 -9.5t70.5 -1.5t48.5 7t8.5 25q-9 84 -16.5 176.5t-12.5 181.5t-6.5 168.5t0.5 136.5q1 23 -11 37.5t-53 22.5l-58 10t-63 9.5t-74.5 8t-92.5 5.5q-59 3 -90 -10t-51 -34q-37 -40 -78.5 -90t-85 -105.5 t-87 -113.5t-83.5 -114.5t-75 -109t-61 -96.5q-11 -21 -11.5 -33.5t6 -20.5t19.5 -13.5t30 -13.5q21 -8 44 -14.5t41 -11.5q33 -8 49.5 -5t30.5 20q21 32 44 65.5t55 71.5q40 7 87.5 13t99.5 11t106 10t107 10zM739 852q67 0 148 37q45 19 65 35t20 30q0 13 -28 23 q-25 7 -53 7q-31 0 -62 -14q-5 -3 -15.5 -9t-22.5 -13t-23.5 -11.5t-17.5 -4.5q-42 2 -82 15t-76 20q-33 7 -62.5 10.5t-58.5 3.5q-26 0 -63 -7.5t-74 -18.5t-67 -24t-40 -23q-14 -14 -14 -26q0 -14 18 -21t51 -7q40 0 66 10q2 0 12.5 5t24.5 11.5t29.5 11.5t27.5 5 q15 0 37 -2t44.5 -5.5t42 -8t30.5 -9.5q23 -11 59 -15.5t84 -4.5zM334 316q65 85 127 160.5t113 135.5q0 -66 4 -136t9 -142q-127 -6 -253 -18z" />
<glyph unicode="&#xe4;" horiz-adv-x="1054" d="M605 186q10 -77 24 -136q7 -28 21.5 -39t49.5 -18q35 -8 67.5 -9.5t70.5 -1.5t48.5 7t8.5 25q-9 84 -16.5 176.5t-12.5 181.5t-6.5 168.5t0.5 136.5q1 23 -11 37.5t-53 22.5l-58 10t-63 9.5t-74.5 8t-92.5 5.5q-59 3 -90 -10t-51 -34q-37 -40 -78.5 -90t-85 -105.5 t-87 -113.5t-83.5 -114.5t-75 -109t-61 -96.5q-11 -21 -11.5 -33.5t6 -20.5t19.5 -13.5t30 -13.5q21 -8 44 -14.5t41 -11.5q33 -8 49.5 -5t30.5 20q21 32 44 65.5t55 71.5q40 7 87.5 13t99.5 11t106 10t107 10zM334 316q65 85 127 160.5t113 135.5q0 -66 4 -136t9 -142 q-127 -6 -253 -18zM304 910q-2 -17 7 -30.5t25.5 -23.5t38.5 -15t47 -4q25 0 44.5 5.5t34 13.5t23 17t11.5 16q6 9 6 21q0 18 -20.5 35t-65.5 26q-32 6 -58.5 3t-46.5 -12t-32 -23t-14 -29zM689 910q-3 -17 5.5 -31t25 -24t39 -15t48.5 -4q25 0 44.5 5.5t33.5 13.5t23 17 t12 16q2 5 3 10t1 12q0 17 -20 34t-64 26q-33 6 -60 3t-47 -12t-31.5 -22.5t-12.5 -28.5z" />
<glyph unicode="&#xe5;" horiz-adv-x="1054" d="M605 186q10 -77 24 -136q7 -28 21.5 -39t49.5 -18q35 -8 67.5 -9.5t70.5 -1.5t48.5 7t8.5 25q-9 84 -16.5 176.5t-12.5 181.5t-6.5 168.5t0.5 136.5q1 23 -11 37.5t-53 22.5l-58 10t-63 9.5t-74.5 8t-92.5 5.5q-59 3 -90 -10t-51 -34q-37 -40 -78.5 -90t-85 -105.5 t-87 -113.5t-83.5 -114.5t-75 -109t-61 -96.5q-11 -21 -11.5 -33.5t6 -20.5t19.5 -13.5t30 -13.5q21 -8 44 -14.5t41 -11.5q33 -8 49.5 -5t30.5 20q21 32 44 65.5t55 71.5q40 7 87.5 13t99.5 11t106 10t107 10zM832 1036q-25 6 -61 11t-76 7q-29 2 -63.5 -1.5t-59.5 -10.5 q-57 -17 -95.5 -41.5t-57.5 -51.5t-16.5 -53.5t28.5 -46.5q10 -9 30.5 -16t40.5 -11q26 -6 58.5 -8.5t62.5 -3.5q46 -2 80.5 1t66.5 13q45 16 74 38.5t44 46.5t16.5 47.5t-9.5 43.5q-8 11 -21.5 19.5t-41.5 16.5zM334 316q65 85 127 160.5t113 135.5q0 -66 4 -136t9 -142 q-127 -6 -253 -18zM719 1011q15 -2 22.5 -11t8 -22.5t-4.5 -28.5t-15 -28q-11 -17 -26 -31.5t-32.5 -24t-36 -14.5t-34.5 -2q-18 2 -26.5 11t-9.5 21.5t4 27.5t16 28t27.5 27t35.5 25t37.5 17t33.5 5z" />
<glyph unicode="&#xe6;" horiz-adv-x="1549" d="M1036 738q-27 5 -54.5 10t-60 9.5t-72.5 8t-92 5.5q-57 3 -92.5 -10t-61.5 -34q-50 -40 -108.5 -90t-120.5 -105.5t-125 -113.5t-122 -114.5t-111 -109t-93 -96.5q-18 -21 -23 -33.5t-1 -20.5t15 -13.5t24 -13.5q20 -8 41.5 -14.5t35.5 -11.5q33 -8 50.5 -5t35.5 20 q32 32 65 65.5t78 71.5q42 7 92 13t103.5 11t108.5 9.5t108 9.5q-8 -32 -15 -53t-12.5 -36t-9 -25.5t-3.5 -21.5q-3 -28 19.5 -38.5t57.5 -17.5q10 -4 40.5 -5.5t65.5 -1.5q36 0 68.5 1t47.5 3q88 11 184.5 24t189.5 25q38 5 45 12.5t-1 27.5q-11 18 -21.5 35t-28.5 36 q-15 17 -38 23t-61 4q-72 -3 -132.5 -7.5t-125.5 -12.5q0 4 1 7t1 7q11 23 20.5 46.5t19.5 49.5q81 11 167.5 20.5t171.5 19.5q38 5 46.5 12t-2.5 28q-8 18 -18 35t-28 35q-15 17 -37 22.5t-60 4.5q-45 -1 -85 -2.5t-82 -5.5q21 45 38.5 86t35.5 78q94 8 177.5 14t161.5 11 q38 3 48 10.5t3 28.5q-8 18 -16 33t-26 34q-22 35 -95 34q-97 -2 -174 -10.5t-149 -19.5q-2 1 -5 1q-2 0 -4 1zM431 317q93 85 180.5 160.5t160.5 135.5q-21 -66 -41.5 -136t-37.5 -142q-66 -3 -130 -7.5t-132 -10.5z" />
<glyph unicode="&#xe7;" horiz-adv-x="942" d="M213 -203q18 13 40.5 33t43.5 43t39 46.5t29 43.5q0 2 1 4.5t1 4.5q62 0 119.5 11t94.5 28q40 20 79 50t64 65q10 15 15.5 27.5t2.5 22.5t-17 17.5t-41 12.5q-135 25 -218 -32q-114 -82 -173 -68q-30 6 -45 32t-17 64.5t7.5 84.5t29.5 91q20 42 53 89t70 86t73 63t62 19 q26 -6 31.5 -27.5t5.5 -47.5q0 -14 5 -32q6 -21 18.5 -37.5t34 -29t52.5 -21t75 -14.5q23 -3 36.5 -2t21 4.5t11.5 9.5t8 13q7 15 11.5 34t6.5 40t2 42t-2 39q-5 32 -24 57t-71 50q-26 10 -58.5 20t-68.5 18t-74 13.5t-74 7.5q-48 2 -103.5 -6t-109.5 -36 q-69 -36 -125.5 -85.5t-98.5 -107t-68.5 -119t-34.5 -121t3 -112.5t44 -94q10 -14 25 -26t33 -22.5t37.5 -18.5t38.5 -14q5 -2 11.5 -3t13.5 -3q-19 -25 -40 -52t-41 -52.5t-38 -48.5t-31 -40q-27 -31 37 -39q27 -2 52 -3.5t50 0.5q50 2 85 28z" />
<glyph unicode="&#xe8;" horiz-adv-x="847" d="M99 710l-167 -578q-5 -26 7 -45t37 -33q28 -18 50 -29.5t47 -22.5q10 -5 22.5 -9t28.5 -6t37.5 -1.5t51.5 5.5q88 11 184.5 24t189.5 25q38 5 45 12.5t-1 27.5q-11 18 -21.5 35t-28.5 36q-15 17 -38 23t-61 4q-71 -3 -132.5 -7.5t-127.5 -12.5q12 26 22.5 53.5t21.5 56.5 q81 11 167.5 20.5t171.5 19.5q38 5 46.5 12t-2.5 28q-8 18 -18 35t-28 35q-15 17 -37 22.5t-60 4.5q-45 -1 -85 -2.5t-82 -5.5q21 45 38.5 86t36.5 78q93 8 176.5 14t161.5 11q38 3 48 10.5t3 28.5q-8 18 -16 33t-26 34q-22 35 -94 34q-77 -2 -154 -7.5t-150.5 -13.5 t-140.5 -17t-123 -18zM191 972q36 -14 86 -31t108.5 -34t121 -33.5t122.5 -28.5q26 -7 57 -3t69 17q-1 -1 7 3t14 11t3.5 15.5t-24.5 16.5q-51 13 -103 28t-102.5 31t-97.5 33t-87 35q-21 10 -49.5 9.5t-73.5 -14.5q-25 -7 -35.5 -20.5t-15.5 -34.5z" />
<glyph unicode="&#xe9;" horiz-adv-x="847" d="M99 710l-167 -578q-5 -26 7 -45t37 -33q28 -18 50 -29.5t47 -22.5q10 -5 22.5 -9t28.5 -6t37.5 -1.5t51.5 5.5q88 11 184.5 24t189.5 25q38 5 45 12.5t-1 27.5q-11 18 -21.5 35t-28.5 36q-15 17 -38 23t-61 4q-71 -3 -132.5 -7.5t-127.5 -12.5q12 26 22.5 53.5t21.5 56.5 q81 11 167.5 20.5t171.5 19.5q38 5 46.5 12t-2.5 28q-8 18 -18 35t-28 35q-15 17 -37 22.5t-60 4.5q-45 -1 -85 -2.5t-82 -5.5q21 45 38.5 86t36.5 78q93 8 176.5 14t161.5 11q38 3 48 10.5t3 28.5q-8 18 -16 33t-26 34q-22 35 -94 34q-77 -2 -154 -7.5t-150.5 -13.5 t-140.5 -17t-123 -18zM781 972q-5 21 -15.5 34.5t-35.5 20.5q-45 14 -73 14.5t-50 -9.5q-39 -18 -86 -35t-97.5 -33t-103 -31t-102.5 -28q-23 -8 -25.5 -16.5t3.5 -15.5t14.5 -11t7.5 -3q38 -13 68.5 -17t56.5 3q60 12 123 28.5t121 33.5t108 34t86 31z" />
<glyph unicode="&#xea;" horiz-adv-x="847" d="M99 710l-167 -578q-5 -26 7 -45t37 -33q28 -18 50 -29.5t47 -22.5q10 -5 22.5 -9t28.5 -6t37.5 -1.5t51.5 5.5q88 11 184.5 24t189.5 25q38 5 45 12.5t-1 27.5q-11 18 -21.5 35t-28.5 36q-15 17 -38 23t-61 4q-71 -3 -132.5 -7.5t-127.5 -12.5q12 26 22.5 53.5t21.5 56.5 q81 11 167.5 20.5t171.5 19.5q38 5 46.5 12t-2.5 28q-8 18 -18 35t-28 35q-15 17 -37 22.5t-60 4.5q-45 -1 -85 -2.5t-82 -5.5q21 45 38.5 86t36.5 78q93 8 176.5 14t161.5 11q38 3 48 10.5t3 28.5q-8 18 -16 33t-26 34q-22 35 -94 34q-77 -2 -154 -7.5t-150.5 -13.5 t-140.5 -17t-123 -18zM724 831q21 -1 27 3.5t1 15.5q-9 19 -20.5 43t-22.5 51t-22 54.5t-18 52.5q-4 16 -10.5 23t-20.5 16q-15 8 -32 14t-34 14q-17 6 -31 5.5t-31 -11.5q-35 -20 -69.5 -43t-66.5 -46.5t-58.5 -45t-44.5 -37.5q-22 -17 2 -36q13 -11 25 -19t25 -16 q16 -9 27 -9t22 9q35 26 76 55.5t89 60.5q17 -36 30 -68t27 -54q17 -21 53 -26q21 -4 40 -5t37 -1z" />
<glyph unicode="&#xeb;" horiz-adv-x="847" d="M99 710l-167 -578q-5 -26 7 -45t37 -33q28 -18 50 -29.5t47 -22.5q10 -5 22.5 -9t28.5 -6t37.5 -1.5t51.5 5.5q88 11 184.5 24t189.5 25q38 5 45 12.5t-1 27.5q-11 18 -21.5 35t-28.5 36q-15 17 -38 23t-61 4q-71 -3 -132.5 -7.5t-127.5 -12.5q12 26 22.5 53.5t21.5 56.5 q81 11 167.5 20.5t171.5 19.5q38 5 46.5 12t-2.5 28q-8 18 -18 35t-28 35q-15 17 -37 22.5t-60 4.5q-45 -1 -85 -2.5t-82 -5.5q21 45 38.5 86t36.5 78q93 8 176.5 14t161.5 11q38 3 48 10.5t3 28.5q-8 18 -16 33t-26 34q-22 35 -94 34q-77 -2 -154 -7.5t-150.5 -13.5 t-140.5 -17t-123 -18zM145 905q-2 -17 7.5 -30.5t26 -23.5t38.5 -15t47 -4q25 0 44.5 5.5t34 13.5t23 17t10.5 16q7 8 7 21q0 18 -20.5 35t-65.5 26q-32 6 -59 3t-46.5 -12t-31.5 -23t-15 -29zM530 905q-2 -17 6.5 -31t25 -24t39 -15t48.5 -4q25 0 44 5.5t33 13.5t23 17 t12 16q2 5 3.5 10t1.5 12q0 17 -20.5 34t-63.5 26q-33 6 -60 3t-47 -12t-31.5 -22.5t-13.5 -28.5z" />
<glyph unicode="&#xec;" horiz-adv-x="458" d="M352 707q-35 14 -81 26.5t-86 18.5q-40 7 -59.5 2t-30.5 -27q-16 -37 -34 -90t-37 -113t-37 -124t-33 -123t-26.5 -109.5t-15.5 -84.5q-5 -26 5 -40.5t43 -25.5q32 -11 66.5 -18t72.5 -14q38 -6 51 -1t19 22q13 44 30 98.5t36.5 113.5t40.5 120t42 117.5t41 106.5t37 87 q4 10 5 18t-3.5 14.5t-15.5 12.5t-30 13zM-64 993q36 -14 86 -31t108 -34t121 -33.5t123 -28.5q26 -7 56.5 -3t68.5 17q-1 -1 7.5 3t14.5 11t3 15.5t-25 16.5q-50 13 -102.5 28t-102.5 31t-97 33t-87 35q-22 10 -50 9.5t-73 -14.5q-25 -7 -35.5 -20.5t-15.5 -34.5z" />
<glyph unicode="&#xed;" horiz-adv-x="458" d="M352 707q-35 14 -81 26.5t-86 18.5q-40 7 -59.5 2t-30.5 -27q-16 -37 -34 -90t-37 -113t-37 -124t-33 -123t-26.5 -109.5t-15.5 -84.5q-5 -26 5 -40.5t43 -25.5q32 -11 66.5 -18t72.5 -14q38 -6 51 -1t19 22q13 44 30 98.5t36.5 113.5t40.5 120t42 117.5t41 106.5t37 87 q4 10 5 18t-3.5 14.5t-15.5 12.5t-30 13zM620 974q-5 21 -15 34.5t-35 20.5q-45 14 -73.5 14.5t-49.5 -9.5q-40 -18 -87 -35t-97.5 -33t-103 -31t-102.5 -28q-22 -8 -24.5 -16.5t3 -15.5t14 -11t7.5 -3q38 -13 68.5 -17t57.5 3q60 12 122.5 28.5t120.5 33.5t108.5 34 t85.5 31z" />
<glyph unicode="&#xee;" horiz-adv-x="458" d="M352 707q-35 14 -81 26.5t-86 18.5q-40 7 -59.5 2t-30.5 -27q-16 -37 -34 -90t-37 -113t-37 -124t-33 -123t-26.5 -109.5t-15.5 -84.5q-5 -26 5 -40.5t43 -25.5q32 -11 66.5 -18t72.5 -14q38 -6 51 -1t19 22q13 44 30 98.5t36.5 113.5t40.5 120t42 117.5t41 106.5t37 87 q4 10 5 18t-3.5 14.5t-15.5 12.5t-30 13zM510 826q22 -1 28 3.5t1 15.5q-9 19 -20.5 43t-23 51t-22.5 54.5t-18 52.5q-3 16 -10 23t-20 16q-15 8 -32 14t-34 14q-17 6 -31 5.5t-31 -11.5q-35 -20 -69.5 -43t-66.5 -46.5t-59 -45t-45 -37.5q-20 -17 2 -36q14 -11 25.5 -19 t25.5 -16q16 -9 26 -9q13 0 22 9q35 26 76 55.5t89 60.5q17 -36 30.5 -68t27.5 -54q17 -22 52 -26q22 -4 40.5 -5t36.5 -1z" />
<glyph unicode="&#xef;" horiz-adv-x="458" d="M352 707q-35 14 -81 26.5t-86 18.5q-40 7 -59.5 2t-30.5 -27q-16 -37 -34 -90t-37 -113t-37 -124t-33 -123t-26.5 -109.5t-15.5 -84.5q-5 -26 5 -40.5t43 -25.5q32 -11 66.5 -18t72.5 -14q38 -6 51 -1t19 22q13 44 30 98.5t36.5 113.5t40.5 120t42 117.5t41 106.5t37 87 q4 10 5 18t-3.5 14.5t-15.5 12.5t-30 13zM-42 905q-2 -17 7.5 -30.5t26 -23.5t38.5 -15t47 -4q25 0 44.5 5.5t34 13.5t23 17t10.5 16q7 8 7 21q0 18 -20.5 35t-65.5 26q-32 6 -59 3t-46.5 -12t-31.5 -23t-15 -29zM343 905q-2 -17 6.5 -31t25 -24t39 -15t48.5 -4q25 0 44 5.5 t33 13.5t23 17t12 16q2 5 3.5 10t1.5 12q0 17 -20.5 34t-63.5 26q-33 6 -60 3t-47 -12t-31.5 -22.5t-13.5 -28.5z" />
<glyph unicode="&#xf0;" horiz-adv-x="898" d="M251 635q-65 -8 -22 -54q9 -10 13.5 -12.5t9 -4t11.5 -4t21 -12.5q28 -21 52.5 -27t52.5 -1q7 1 15 2t16 3q4 -18 5.5 -36.5t1.5 -36.5q-69 15 -145 12q-62 -2 -108.5 -9.5t-82 -19.5t-63 -29t-50.5 -37q-47 -40 -72 -82t-31.5 -82t2.5 -74t31 -58q15 -15 38 -28.5 t59 -23.5t88.5 -15t126.5 -5q73 3 130.5 13t104 27.5t84 42.5t70.5 58q32 33 63 77t53.5 97.5t31.5 113.5t-2 125q26 2 52.5 2.5t52.5 2.5q35 1 43.5 8t-5.5 29q-8 9 -9.5 11t-3 3.5t-5 4.5t-13.5 14q-43 37 -101 37h-26q-11 0 -25 -1q-5 12 -11.5 24.5t-14.5 24.5 q-8 10 -14 16.5t-14.5 11t-21.5 7t-34 4.5q-21 1 -48 2t-54 1t-52 -0.5t-42 -1.5q-43 -5 -60 -14.5t-4 -31.5q21 -30 33 -60q-36 -4 -68.5 -7t-58.5 -7zM394 252q-29 -61 -63.5 -97.5t-79.5 -40.5q-54 -5 -77.5 27t-8.5 89q11 48 41.5 81t77.5 35q22 1 42 -5.5t35 -19 t24 -30.5t9 -39z" />
<glyph unicode="&#xf1;" horiz-adv-x="1030" d="M568 314q-16 45 -31.5 93.5t-29.5 93t-25 82t-18 60.5q-8 30 -24.5 45.5t-56.5 25.5q-48 14 -93 23t-92 17q-38 6 -61.5 0t-35.5 -29q-18 -42 -37 -98t-38.5 -118.5t-37.5 -126t-33 -120.5t-26 -102.5t-15 -71.5q-7 -26 2.5 -40.5t41.5 -25.5q32 -14 68 -20.5t71 -12.5 q38 -7 51.5 -2.5t18.5 21.5q9 36 23 83t31 100t35.5 110.5t36.5 113.5q17 -47 36.5 -94t40 -91.5t41 -83.5t40.5 -69q27 -44 90 -60q35 -8 69.5 -14.5t69.5 -11.5q78 -12 86 26q19 69 44 154.5t52 172.5t54.5 168.5t51.5 142.5q4 10 5 19t-3 16.5t-14.5 14.5t-29.5 14 q-23 9 -40 14t-32.5 9t-31 6.5t-34.5 5.5q-40 6 -61.5 0.5t-29.5 -27.5q-33 -85 -68.5 -191.5t-60.5 -221.5zM739 852q67 0 148 37q45 19 65 35t20 30q0 13 -28 23q-25 7 -53 7q-31 0 -62 -14q-5 -3 -15.5 -9t-22.5 -13t-23.5 -11.5t-17.5 -4.5q-42 2 -82 15t-76 20 q-33 7 -62.5 10.5t-58.5 3.5q-26 0 -63 -7.5t-74 -18.5t-67 -24t-40 -23q-14 -14 -14 -26q0 -14 18 -21t51 -7q40 0 66 10q2 0 12.5 5t24.5 11.5t29.5 11.5t27.5 5q15 0 37 -2t44.5 -5.5t42 -8t30.5 -9.5q23 -11 59 -15.5t84 -4.5z" />
<glyph unicode="&#xf2;" d="M748 704q-45 21 -111.5 35.5t-139.5 21.5q-27 3 -57 1.5t-60 -6.5t-57.5 -13.5t-49.5 -18.5q-105 -53 -176 -131.5t-105 -164t-29.5 -169.5t50.5 -150q20 -28 57 -50t75 -36q48 -17 107 -25.5t113 -12.5q84 -6 148.5 4.5t122.5 41.5q82 51 135 121.5t80 147t29 152 t-18 137.5q-13 35 -38 63t-76 52zM543 625q27 -5 39.5 -35t14 -72t-7.5 -90t-26 -90q-20 -53 -48.5 -98t-60.5 -76.5t-65 -46.5t-63 -8q-32 7 -48 36t-18.5 69.5t7.5 87.5t30 89q20 41 50.5 85t65 78.5t69 55t61.5 15.5zM191 972q36 -14 86 -31t108.5 -34t121 -33.5 t122.5 -28.5q26 -7 57 -3t69 17q-1 -1 7 3t14 11t3.5 15.5t-24.5 16.5q-51 13 -103 28t-102.5 31t-97.5 33t-87 35q-21 10 -49.5 9.5t-73.5 -14.5q-25 -7 -35.5 -20.5t-15.5 -34.5z" />
<glyph unicode="&#xf3;" d="M748 704q-45 21 -111.5 35.5t-139.5 21.5q-27 3 -57 1.5t-60 -6.5t-57.5 -13.5t-49.5 -18.5q-105 -53 -176 -131.5t-105 -164t-29.5 -169.5t50.5 -150q20 -28 57 -50t75 -36q48 -17 107 -25.5t113 -12.5q84 -6 148.5 4.5t122.5 41.5q82 51 135 121.5t80 147t29 152 t-18 137.5q-13 35 -38 63t-76 52zM543 625q27 -5 39.5 -35t14 -72t-7.5 -90t-26 -90q-20 -53 -48.5 -98t-60.5 -76.5t-65 -46.5t-63 -8q-32 7 -48 36t-18.5 69.5t7.5 87.5t30 89q20 41 50.5 85t65 78.5t69 55t61.5 15.5zM781 972q-5 21 -15.5 34.5t-35.5 20.5 q-45 14 -73 14.5t-50 -9.5q-39 -18 -86 -35t-97.5 -33t-103 -31t-102.5 -28q-23 -8 -25.5 -16.5t3.5 -15.5t14.5 -11t7.5 -3q38 -13 68.5 -17t56.5 3q60 12 123 28.5t121 33.5t108 34t86 31z" />
<glyph unicode="&#xf4;" d="M748 704q-45 21 -111.5 35.5t-139.5 21.5q-27 3 -57 1.5t-60 -6.5t-57.5 -13.5t-49.5 -18.5q-105 -53 -176 -131.5t-105 -164t-29.5 -169.5t50.5 -150q20 -28 57 -50t75 -36q48 -17 107 -25.5t113 -12.5q84 -6 148.5 4.5t122.5 41.5q82 51 135 121.5t80 147t29 152 t-18 137.5q-13 35 -38 63t-76 52zM543 625q27 -5 39.5 -35t14 -72t-7.5 -90t-26 -90q-20 -53 -48.5 -98t-60.5 -76.5t-65 -46.5t-63 -8q-32 7 -48 36t-18.5 69.5t7.5 87.5t30 89q20 41 50.5 85t65 78.5t69 55t61.5 15.5zM799 814q21 -1 27 3.5t1 15.5q-9 19 -20.5 43t-23 51 t-22 54.5t-17.5 52.5q-4 16 -11 23t-20 16q-15 8 -32 14t-34 14q-17 6 -31 5.5t-31 -11.5q-35 -20 -69.5 -43t-66.5 -46.5t-59 -45t-45 -37.5q-20 -17 3 -36q13 -11 25 -19t25 -16q16 -9 27 -9t22 9q35 26 76 55.5t89 60.5q17 -36 30 -68t27 -54q17 -22 53 -26 q21 -4 39.5 -5t37.5 -1z" />
<glyph unicode="&#xf5;" d="M748 704q-45 21 -111.5 35.5t-139.5 21.5q-27 3 -57 1.5t-60 -6.5t-57.5 -13.5t-49.5 -18.5q-105 -53 -176 -131.5t-105 -164t-29.5 -169.5t50.5 -150q20 -28 57 -50t75 -36q48 -17 107 -25.5t113 -12.5q84 -6 148.5 4.5t122.5 41.5q82 51 135 121.5t80 147t29 152 t-18 137.5q-13 35 -38 63t-76 52zM543 625q27 -5 39.5 -35t14 -72t-7.5 -90t-26 -90q-20 -53 -48.5 -98t-60.5 -76.5t-65 -46.5t-63 -8q-32 7 -48 36t-18.5 69.5t7.5 87.5t30 89q20 41 50.5 85t65 78.5t69 55t61.5 15.5zM739 852q67 0 148 37q45 19 65 35t20 30q0 13 -28 23 q-25 7 -53 7q-31 0 -62 -14q-5 -3 -15.5 -9t-22.5 -13t-23.5 -11.5t-17.5 -4.5q-42 2 -82 15t-76 20q-33 7 -62.5 10.5t-58.5 3.5q-26 0 -63 -7.5t-74 -18.5t-67 -24t-40 -23q-14 -14 -14 -26q0 -14 18 -21t51 -7q40 0 66 10q2 0 12.5 5t24.5 11.5t29.5 11.5t27.5 5 q15 0 37 -2t44.5 -5.5t42 -8t30.5 -9.5q23 -11 59 -15.5t84 -4.5z" />
<glyph unicode="&#xf6;" d="M748 704q-45 21 -111.5 35.5t-139.5 21.5q-27 3 -57 1.5t-60 -6.5t-57.5 -13.5t-49.5 -18.5q-105 -53 -176 -131.5t-105 -164t-29.5 -169.5t50.5 -150q20 -28 57 -50t75 -36q48 -17 107 -25.5t113 -12.5q84 -6 148.5 4.5t122.5 41.5q82 51 135 121.5t80 147t29 152 t-18 137.5q-13 35 -38 63t-76 52zM543 625q27 -5 39.5 -35t14 -72t-7.5 -90t-26 -90q-20 -53 -48.5 -98t-60.5 -76.5t-65 -46.5t-63 -8q-32 7 -48 36t-18.5 69.5t7.5 87.5t30 89q20 41 50.5 85t65 78.5t69 55t61.5 15.5zM220 905q-2 -17 7.5 -30.5t26 -23.5t38.5 -15t47 -4 q25 0 44.5 5.5t33.5 13.5t22.5 17t11.5 16q7 10 7 21q0 18 -20.5 35t-65.5 26q-32 6 -59 3t-46.5 -12t-31.5 -23t-15 -29zM605 905q-3 -17 6 -31t25.5 -24t39 -15t48.5 -4q25 0 44 5.5t33 13.5t23 17t12 16q2 5 3 10t1 12q0 17 -20 34t-63 26q-33 6 -60.5 3t-47 -12 t-31.5 -22.5t-13 -28.5z" />
<glyph unicode="&#xf7;" horiz-adv-x="1074" d="M893 320q32 0 40.5 6.5t-2.5 23.5q-12 15 -21.5 29.5t-27.5 31.5q-32 30 -88 30q-74 0 -129.5 -1t-99.5 -2t-79 -3t-67.5 -4.5t-65.5 -6t-72.5 -7.5t-89.5 -9.5t-116 -11.5q-25 -2 -43.5 -10.5t-7.5 -25.5q12 -17 34 -39.5t43 -36.5q12 -8 22 -12t20.5 -6t21.5 -2 q12 0 29 2q71 8 120.5 14.5t86 11.5t64 9t54.5 7t57 5t73 3.5t101.5 2t142.5 1.5zM321 164q-2 -23 9.5 -41.5t33.5 -31.5t52 -19.5t64 -5.5q33 0 59 7.5t44.5 18t30 22.5t15.5 21q7 13 7 29q0 23 -27 46t-85 35q-44 8 -80 4t-62.5 -16t-42 -30.5t-18.5 -38.5zM381 588 q-3 -23 9 -41.5t33.5 -31.5t51.5 -19.5t64 -5.5q33 0 59 7.5t45 18t30.5 22.5t15.5 21q6 13 6 29q0 23 -27 46t-85 35q-44 8 -80 4t-62.5 -16t-42 -30.5t-17.5 -38.5z" />
<glyph unicode="&#xf8;" d="M860 812q-14 7 -12.5 8.5t5.5 0.5t4.5 -0.5t-14.5 6.5q-64 26 -99 -11q-17 -14 -37 -35.5t-45 -47.5q-38 10 -80 16.5t-85 11.5q-27 3 -57 1.5t-60 -6.5t-57.5 -13.5t-49.5 -18.5q-105 -53 -176 -131.5t-105 -164t-29.5 -169.5t50.5 -150q12 -17 32 -32.5t43 -27.5 q-15 -18 -26 -33t-18 -25q-16 -23 -13 -40q3 -18 31 -29q10 -5 4.5 -3t-13.5 4.5t-11 3.5t13 -5q33 -11 50.5 -7.5t30.5 21.5q12 14 27 32t33 39q42 -9 84.5 -14t84.5 -8q84 -6 148.5 4.5t122.5 41.5q82 51 135 121.5t80 147t29 152t-18 137.5q-10 24 -24 45t-39 39 q23 25 42.5 45t34.5 34q18 18 17 30.5t-33 29.5zM563 338q-20 -53 -48.5 -98t-60.5 -76.5t-65 -46.5t-63 -8q-18 3 -29 13q66 75 143.5 160t151.5 168q-4 -29 -11.5 -57.5t-17.5 -54.5zM543 625q9 -2 16 -6q-36 -41 -74 -85t-76 -89.5t-76 -91.5t-73 -89q6 65 37 127 q20 41 50.5 85t65 78.5t69 55t61.5 15.5z" />
<glyph unicode="&#xf9;" horiz-adv-x="992" d="M0 102q22 -28 53 -47t66 -33q84 -32 215 -38q66 -3 117.5 3.5t102.5 23.5q71 28 125 87t96.5 142.5t76 188.5t63.5 227q7 21 0.5 32t-44.5 25q-35 12 -77 24.5t-79 18.5t-62.5 1t-27.5 -27q-13 -50 -32 -117.5t-43 -138.5t-52.5 -139.5t-61 -120.5t-68.5 -81.5t-75 -22.5 q-32 6 -42.5 34.5t-6.5 71t20 95.5t38 107.5t47 107.5t47 96q23 49 -46 80q-33 14 -68 25t-73 18q-40 8 -60.5 3.5t-31.5 -26.5q-40 -77 -78.5 -164.5t-61 -172t-20.5 -159t43 -124.5zM191 972q36 -14 86 -31t108.5 -34t121 -33.5t122.5 -28.5q26 -7 57 -3t69 17q-1 -1 7 3 t14 11t3.5 15.5t-24.5 16.5q-51 13 -103 28t-102.5 31t-97.5 33t-87 35q-21 10 -49.5 9.5t-73.5 -14.5q-25 -7 -35.5 -20.5t-15.5 -34.5z" />
<glyph unicode="&#xfa;" horiz-adv-x="992" d="M0 102q22 -28 53 -47t66 -33q84 -32 215 -38q66 -3 117.5 3.5t102.5 23.5q71 28 125 87t96.5 142.5t76 188.5t63.5 227q7 21 0.5 32t-44.5 25q-35 12 -77 24.5t-79 18.5t-62.5 1t-27.5 -27q-13 -50 -32 -117.5t-43 -138.5t-52.5 -139.5t-61 -120.5t-68.5 -81.5t-75 -22.5 q-32 6 -42.5 34.5t-6.5 71t20 95.5t38 107.5t47 107.5t47 96q23 49 -46 80q-33 14 -68 25t-73 18q-40 8 -60.5 3.5t-31.5 -26.5q-40 -77 -78.5 -164.5t-61 -172t-20.5 -159t43 -124.5zM781 972q-5 21 -15.5 34.5t-35.5 20.5q-45 14 -73 14.5t-50 -9.5q-39 -18 -86 -35 t-97.5 -33t-103 -31t-102.5 -28q-23 -8 -25.5 -16.5t3.5 -15.5t14.5 -11t7.5 -3q38 -13 68.5 -17t56.5 3q60 12 123 28.5t121 33.5t108 34t86 31z" />
<glyph unicode="&#xfb;" horiz-adv-x="992" d="M0 102q22 -28 53 -47t66 -33q84 -32 215 -38q66 -3 117.5 3.5t102.5 23.5q71 28 125 87t96.5 142.5t76 188.5t63.5 227q7 21 0.5 32t-44.5 25q-35 12 -77 24.5t-79 18.5t-62.5 1t-27.5 -27q-13 -50 -32 -117.5t-43 -138.5t-52.5 -139.5t-61 -120.5t-68.5 -81.5t-75 -22.5 q-32 6 -42.5 34.5t-6.5 71t20 95.5t38 107.5t47 107.5t47 96q23 49 -46 80q-33 14 -68 25t-73 18q-40 8 -60.5 3.5t-31.5 -26.5q-40 -77 -78.5 -164.5t-61 -172t-20.5 -159t43 -124.5zM724 831q21 -1 27 3.5t1 15.5q-9 19 -20.5 43t-22.5 51t-22 54.5t-18 52.5 q-4 16 -10.5 23t-20.5 16q-15 8 -32 14t-34 14q-17 6 -31 5.5t-31 -11.5q-35 -20 -69.5 -43t-66.5 -46.5t-58.5 -45t-44.5 -37.5q-22 -17 2 -36q13 -11 25 -19t25 -16q16 -9 27 -9t22 9q35 26 76 55.5t89 60.5q17 -36 30 -68t27 -54q17 -21 53 -26q21 -4 40 -5t37 -1z" />
<glyph unicode="&#xfc;" horiz-adv-x="992" d="M0 102q22 -28 53 -47t66 -33q84 -32 215 -38q66 -3 117.5 3.5t102.5 23.5q71 28 125 87t96.5 142.5t76 188.5t63.5 227q7 21 0.5 32t-44.5 25q-35 12 -77 24.5t-79 18.5t-62.5 1t-27.5 -27q-13 -50 -32 -117.5t-43 -138.5t-52.5 -139.5t-61 -120.5t-68.5 -81.5t-75 -22.5 q-32 6 -42.5 34.5t-6.5 71t20 95.5t38 107.5t47 107.5t47 96q23 49 -46 80q-33 14 -68 25t-73 18q-40 8 -60.5 3.5t-31.5 -26.5q-40 -77 -78.5 -164.5t-61 -172t-20.5 -159t43 -124.5zM209 905q-2 -17 7.5 -30.5t26 -23.5t38.5 -15t47 -4q25 0 44.5 5.5t33.5 13.5t22.5 17 t11.5 16q7 10 7 21q0 18 -20.5 35t-65.5 26q-32 6 -59 3t-46.5 -12t-31.5 -23t-15 -29zM594 905q-3 -17 6 -31t25.5 -24t39 -15t48.5 -4q25 0 44 5.5t33 13.5t23 17t12 16q2 5 3 10t1 12q0 17 -20 34t-63 26q-33 6 -60.5 3t-47 -12t-31.5 -22.5t-13 -28.5z" />
<glyph unicode="&#xfd;" horiz-adv-x="955" d="M889 644q18 25 16 39t-27 31q-21 12 -51.5 26t-60.5 23t-55 8t-36 -20q-64 -72 -131.5 -145.5t-138.5 -145.5q-35 72 -67 135t-61 111q-9 12 -17 21t-18 15.5t-23 10.5t-32 7q-38 5 -75 4t-75 -3q-35 -3 -41.5 -10.5t4.5 -28.5q20 -44 45.5 -97.5t53.5 -110.5t57 -114.5 t55 -111.5q-18 -63 -29.5 -117.5t-23.5 -96.5q-5 -26 5 -39.5t42 -27.5q31 -9 69.5 -17.5t73.5 -15.5q37 -6 50.5 -1.5t21.5 24.5q15 54 32.5 110.5t42.5 119.5q59 57 120.5 118t115.5 117t96 103.5t62 78.5zM781 972q-5 21 -15.5 34.5t-35.5 20.5q-45 14 -73 14.5t-50 -9.5 q-39 -18 -86 -35t-97.5 -33t-103 -31t-102.5 -28q-23 -8 -25.5 -16.5t3.5 -15.5t14.5 -11t7.5 -3q38 -13 68.5 -17t56.5 3q60 12 123 28.5t121 33.5t108 34t86 31z" />
<glyph unicode="&#xfe;" horiz-adv-x="964" d="M352 707q-35 14 -81 26.5t-86 18.5q-40 7 -59.5 2t-30.5 -27q-16 -37 -34 -90t-37 -113t-37 -124t-33 -123t-26.5 -109.5t-15.5 -84.5q-5 -26 5 -40.5t43 -25.5q32 -11 66.5 -18t72.5 -14q38 -6 51 -1t19 22q5 17 10.5 35t11.5 37q84 15 169 36t161.5 46.5t141 54.5 t109.5 59q27 18 49.5 37t36 39.5t16.5 43t-9 48.5q-25 51 -65.5 86t-86.5 64q-60 33 -147.5 37t-184.5 -10q3 8 7.5 15t7.5 15q4 10 5 18t-3.5 14.5t-15.5 12.5t-30 13zM253 250q22 55 42 104.5t42 94.5q48 13 95 19.5t84.5 7t62 -4.5t28.5 -15q11 -18 -7 -45t-63 -56 t-116.5 -57t-167.5 -48z" />
<glyph unicode="&#xff;" horiz-adv-x="955" d="M889 644q18 25 16 39t-27 31q-21 12 -51.5 26t-60.5 23t-55 8t-36 -20q-64 -72 -131.5 -145.5t-138.5 -145.5q-35 72 -67 135t-61 111q-9 12 -17 21t-18 15.5t-23 10.5t-32 7q-38 5 -75 4t-75 -3q-35 -3 -41.5 -10.5t4.5 -28.5q20 -44 45.5 -97.5t53.5 -110.5t57 -114.5 t55 -111.5q-18 -63 -29.5 -117.5t-23.5 -96.5q-5 -26 5 -39.5t42 -27.5q31 -9 69.5 -17.5t73.5 -15.5q37 -6 50.5 -1.5t21.5 24.5q15 54 32.5 110.5t42.5 119.5q59 57 120.5 118t115.5 117t96 103.5t62 78.5zM145 905q-2 -17 7.5 -30.5t26 -23.5t38.5 -15t47 -4 q25 0 44.5 5.5t34 13.5t23 17t10.5 16q7 8 7 21q0 18 -20.5 35t-65.5 26q-32 6 -59 3t-46.5 -12t-31.5 -23t-15 -29zM530 905q-2 -17 6.5 -31t25 -24t39 -15t48.5 -4q25 0 44 5.5t33 13.5t23 17t12 16q2 5 3.5 10t1.5 12q0 17 -20.5 34t-63.5 26q-33 6 -60 3t-47 -12 t-31.5 -22.5t-13.5 -28.5z" />
<glyph unicode="&#x152;" horiz-adv-x="1415" d="M497 761q-27 3 -57 1.5t-60 -6.5t-57.5 -13.5t-49.5 -18.5q-105 -53 -176 -131.5t-105 -164t-29.5 -169.5t50.5 -150q20 -28 57 -50t75 -36q48 -17 107 -25.5t113 -12.5q76 -5 136 3t115 33q7 -4 15 -7t16 -7q10 -5 22.5 -9t28.5 -6t38 -1.5t52 5.5q88 11 184 24t190 25 q38 5 45 12.5t-1 27.5q-12 18 -22.5 35t-28.5 36q-15 17 -38 23t-61 4q-71 -3 -132.5 -7.5t-127.5 -12.5q12 26 22.5 53.5t21.5 56.5q81 11 167.5 20.5t171.5 19.5q38 5 47 12t-3 28q-8 18 -18 35t-28 35q-15 17 -37 22.5t-60 4.5q-45 -1 -85 -2.5t-82 -5.5q22 45 39.5 86 t35.5 78q93 8 177 14t162 11q38 3 47.5 10.5t2.5 28.5q-8 18 -15.5 33t-26.5 34q-22 35 -94 34q-71 -2 -142.5 -7t-140.5 -12t-133 -15t-119 -17q-43 15 -97 25.5t-112 15.5zM543 625q20 -4 32 -22.5t17.5 -46.5t3.5 -62.5t-9 -70.5l-22 -76q0 -2 -1 -4.5t-1 -4.5 q-20 -53 -48.5 -98t-60.5 -76.5t-65 -46.5t-63 -8q-32 7 -48 36t-18.5 69.5t7.5 87.5t30 89q20 41 50.5 85t65 78.5t69 55t61.5 15.5z" />
<glyph unicode="&#x153;" horiz-adv-x="1415" d="M497 761q-27 3 -57 1.5t-60 -6.5t-57.5 -13.5t-49.5 -18.5q-105 -53 -176 -131.5t-105 -164t-29.5 -169.5t50.5 -150q20 -28 57 -50t75 -36q48 -17 107 -25.5t113 -12.5q76 -5 136 3t115 33q7 -4 15 -7t16 -7q10 -5 22.5 -9t28.5 -6t38 -1.5t52 5.5q88 11 184 24t190 25 q38 5 45 12.5t-1 27.5q-12 18 -22.5 35t-28.5 36q-15 17 -38 23t-61 4q-71 -3 -132.5 -7.5t-127.5 -12.5q12 26 22.5 53.5t21.5 56.5q81 11 167.5 20.5t171.5 19.5q38 5 47 12t-3 28q-8 18 -18 35t-28 35q-15 17 -37 22.5t-60 4.5q-45 -1 -85 -2.5t-82 -5.5q22 45 39.5 86 t35.5 78q93 8 177 14t162 11q38 3 47.5 10.5t2.5 28.5q-8 18 -15.5 33t-26.5 34q-22 35 -94 34q-71 -2 -142.5 -7t-140.5 -12t-133 -15t-119 -17q-43 15 -97 25.5t-112 15.5zM543 625q20 -4 32 -22.5t17.5 -46.5t3.5 -62.5t-9 -70.5l-22 -76q0 -2 -1 -4.5t-1 -4.5 q-20 -53 -48.5 -98t-60.5 -76.5t-65 -46.5t-63 -8q-32 7 -48 36t-18.5 69.5t7.5 87.5t30 89q20 41 50.5 85t65 78.5t69 55t61.5 15.5z" />
<glyph unicode="&#x178;" horiz-adv-x="955" d="M889 644q18 25 16 39t-27 31q-21 12 -51.5 26t-60.5 23t-55 8t-36 -20q-64 -72 -131.5 -145.5t-138.5 -145.5q-35 72 -67 135t-61 111q-9 12 -17 21t-18 15.5t-23 10.5t-32 7q-38 5 -75 4t-75 -3q-35 -3 -41.5 -10.5t4.5 -28.5q20 -44 45.5 -97.5t53.5 -110.5t57 -114.5 t55 -111.5q-18 -63 -29.5 -117.5t-23.5 -96.5q-5 -26 5 -39.5t42 -27.5q31 -9 69.5 -17.5t73.5 -15.5q37 -6 50.5 -1.5t21.5 24.5q15 54 32.5 110.5t42.5 119.5q59 57 120.5 118t115.5 117t96 103.5t62 78.5zM145 905q-2 -17 7.5 -30.5t26 -23.5t38.5 -15t47 -4 q25 0 44.5 5.5t34 13.5t23 17t10.5 16q7 8 7 21q0 18 -20.5 35t-65.5 26q-32 6 -59 3t-46.5 -12t-31.5 -23t-15 -29zM530 905q-2 -17 6.5 -31t25 -24t39 -15t48.5 -4q25 0 44 5.5t33 13.5t23 17t12 16q2 5 3.5 10t1.5 12q0 17 -20.5 34t-63.5 26q-33 6 -60 3t-47 -12 t-31.5 -22.5t-13.5 -28.5z" />
<glyph unicode="&#x2c6;" horiz-adv-x="983" d="M724 831q21 -1 27 3.5t1 15.5q-9 19 -20.5 43t-22.5 51t-22 54.5t-18 52.5q-4 16 -10.5 23t-20.5 16q-15 8 -32 14t-34 14q-17 6 -31 5.5t-31 -11.5q-35 -20 -69.5 -43t-66.5 -46.5t-58.5 -45t-44.5 -37.5q-22 -17 2 -36q13 -11 25 -19t25 -16q16 -9 27 -9t22 9 q35 26 76 55.5t89 60.5q17 -36 30 -68t27 -54q17 -21 53 -26q21 -4 40 -5t37 -1z" />
<glyph unicode="&#x2dc;" horiz-adv-x="1089" d="M739 852q67 0 148 37q45 19 65 35t20 30q0 13 -28 23q-25 7 -53 7q-31 0 -62 -14q-5 -3 -15.5 -9t-22.5 -13t-23.5 -11.5t-17.5 -4.5q-42 2 -82 15t-76 20q-33 7 -62.5 10.5t-58.5 3.5q-26 0 -63 -7.5t-74 -18.5t-67 -24t-40 -23q-14 -14 -14 -26q0 -14 18 -21t51 -7 q40 0 66 10q2 0 12.5 5t24.5 11.5t29.5 11.5t27.5 5q15 0 37 -2t44.5 -5.5t42 -8t30.5 -9.5q23 -11 59 -15.5t84 -4.5z" />
<glyph unicode="&#x2000;" horiz-adv-x="563" />
<glyph unicode="&#x2001;" horiz-adv-x="1126" />
<glyph unicode="&#x2002;" horiz-adv-x="563" />
<glyph unicode="&#x2003;" horiz-adv-x="1126" />
<glyph unicode="&#x2004;" horiz-adv-x="375" />
<glyph unicode="&#x2005;" horiz-adv-x="281" />
<glyph unicode="&#x2006;" horiz-adv-x="187" />
<glyph unicode="&#x2007;" horiz-adv-x="187" />
<glyph unicode="&#x2008;" horiz-adv-x="140" />
<glyph unicode="&#x2009;" horiz-adv-x="225" />
<glyph unicode="&#x200a;" horiz-adv-x="62" />
<glyph unicode="&#x2010;" horiz-adv-x="869" d="M-123 492q-65 -8 -22 -54q18 -20 38.5 -39t49.5 -39q28 -21 52.5 -27t52.5 -1q53 9 111 15t118.5 11t121.5 8t120 6q35 1 43.5 8t-5.5 29q-15 18 -29 37t-35 41q-43 37 -101 37q-66 0 -138 -3t-141 -7.5t-130 -10t-106 -11.5z" />
<glyph unicode="&#x2011;" horiz-adv-x="869" d="M-123 492q-65 -8 -22 -54q18 -20 38.5 -39t49.5 -39q28 -21 52.5 -27t52.5 -1q53 9 111 15t118.5 11t121.5 8t120 6q35 1 43.5 8t-5.5 29q-15 18 -29 37t-35 41q-43 37 -101 37q-66 0 -138 -3t-141 -7.5t-130 -10t-106 -11.5z" />
<glyph unicode="&#x2012;" horiz-adv-x="869" d="M-123 492q-65 -8 -22 -54q18 -20 38.5 -39t49.5 -39q28 -21 52.5 -27t52.5 -1q53 9 111 15t118.5 11t121.5 8t120 6q35 1 43.5 8t-5.5 29q-15 18 -29 37t-35 41q-43 37 -101 37q-66 0 -138 -3t-141 -7.5t-130 -10t-106 -11.5z" />
<glyph unicode="&#x2013;" horiz-adv-x="1221" d="M40 410q-105 -6 -62 -45q15 -16 38 -32t54 -33q33 -17 66.5 -22t81.5 -1q83 7 173 12.5t183 9.5t186 6.5t182 4.5q51 1 69.5 7t4.5 24q-11 14 -21.5 30.5t-35.5 34.5q-35 31 -132 31q-99 0 -209 -2.5t-215.5 -6t-200 -8.5t-162.5 -10z" />
<glyph unicode="&#x2014;" horiz-adv-x="1857" d="M40 410q-105 -6 -62 -45q15 -16 38 -32t54 -33q33 -17 66.5 -22t81.5 -1q42 4 117 7t172 5.5t209.5 4.5t228 4t229 3t211.5 2.5t175.5 2.5t122.5 2q51 1 69.5 7t5.5 24q-12 14 -22 30.5t-35 34.5q-37 31 -132 31q-50 0 -134.5 -0.5t-190.5 -1.5t-227 -2.5t-243.5 -3 t-239.5 -3.5t-215.5 -4.5t-171.5 -5t-107 -4.5z" />
<glyph unicode="&#x2018;" horiz-adv-x="576" d="M200 602q31 -32 79 -44q22 -5 49.5 -8.5t52.5 -5.5q65 -4 41 31q-15 25 -35 61t-41 75.5t-40.5 78t-32.5 67.5q-16 34 -82 24q-26 -7 -51 -13.5t-43 -14.5q-20 -11 -25.5 -21t-3 -21.5t10 -27t13.5 -38.5q11 -20 24 -40t27.5 -39t29 -35.5t27.5 -28.5z" />
<glyph unicode="&#x2019;" horiz-adv-x="510" d="M326 604q10 15 22.5 37.5t23.5 47.5t20 51t13 47q1 10 0.5 18.5t-4 16t-12 14t-24.5 14.5q-21 10 -48 18.5t-55 15.5q-33 8 -51.5 5t-23.5 -24q-7 -28 -17 -65.5t-21.5 -76t-22.5 -74t-20 -59.5q-13 -34 48 -33q32 0 56.5 1.5t44.5 5.5q25 5 40.5 14t30.5 26z" />
<glyph unicode="&#x201a;" horiz-adv-x="510" d="M326 -100q10 15 22.5 37.5t23.5 47.5t20 51t13 47q1 10 0.5 18.5t-4 16t-12 14t-24.5 14.5q-21 10 -48 18.5t-55 15.5q-33 8 -51.5 5t-23.5 -24q-7 -28 -17 -65.5t-21.5 -76t-22.5 -74t-20 -59.5q-13 -34 48 -33q32 0 56.5 1.5t44.5 5.5q25 5 40.5 14t30.5 26z" />
<glyph unicode="&#x201c;" horiz-adv-x="854" d="M502 602q18 -17 35.5 -27.5t43.5 -16.5q21 -5 48.5 -8.5t52.5 -5.5q64 -4 42 31q-15 25 -35.5 61t-41.5 75.5t-40.5 78t-32.5 67.5q-16 34 -81 24q-26 -7 -51.5 -13.5t-43.5 -14.5q-28 -14 -31.5 -26.5t7.5 -33.5q7 -21 21 -48t31.5 -53.5t37.5 -50.5t38 -39zM183 611 q21 -17 40 -26t48 -14q25 -4 51 -5.5t52 -2.5q61 -1 31 33q-17 24 -45 59.5t-57.5 74t-57.5 76t-45 65.5q-22 37 -83 19q-51 -14 -86 -33q-16 -9 -20.5 -20t-1 -24.5t14.5 -29.5t27 -36q31 -38 65.5 -75.5t66.5 -60.5z" />
<glyph unicode="&#x201d;" horiz-adv-x="845" d="M326 604q10 15 22.5 37.5t23.5 47.5t20 51t13 47q1 10 0.5 18.5t-4 16t-12 14t-24.5 14.5q-21 10 -48 18.5t-55 15.5q-33 8 -51.5 5t-23.5 -24q-7 -28 -17 -65.5t-21.5 -76t-22.5 -74t-20 -59.5q-13 -34 48 -33q32 0 57.5 1.5t43.5 5.5q25 5 40.5 14t30.5 26zM642 592 q21 16 43.5 45t41.5 60t30 59t9 43q-4 15 -31 31q-18 11 -43.5 20.5t-51.5 19.5q-64 23 -81 -14q-11 -28 -29 -64t-38 -73t-39.5 -71t-32.5 -56q-23 -33 42 -36q57 -6 101 1q26 2 43.5 10.5t35.5 24.5z" />
<glyph unicode="&#x201e;" horiz-adv-x="845" d="M326 -96q10 15 22.5 37.5t23.5 47.5t20 51t13 47q1 10 0.5 18.5t-4 16t-12 14t-24.5 14.5q-21 10 -48 18.5t-55 15.5q-33 8 -51.5 5t-23.5 -24q-7 -28 -17 -65.5t-21.5 -76t-22.5 -74t-20 -59.5q-13 -34 48 -33q32 0 57.5 1.5t43.5 5.5q25 5 40.5 14t30.5 26zM642 -108 q21 16 43.5 45t41.5 60t30 59t9 43q-4 15 -31 31q-18 11 -43.5 20.5t-51.5 19.5q-64 23 -81 -14q-11 -28 -29 -64t-38 -73t-39.5 -71t-32.5 -56q-23 -33 42 -36q57 -6 101 1q26 2 43.5 10.5t35.5 24.5z" />
<glyph unicode="&#x2022;" horiz-adv-x="713" d="M51 375q-4 -41 17 -73.5t59.5 -55.5t91 -34.5t111.5 -9.5q58 0 103.5 13t78.5 32t53.5 40t28.5 37q5 12 8 24t3 27q0 20 -12 41t-36 40t-61.5 34.5t-88.5 26.5q-77 14 -140.5 7t-109.5 -28.5t-73.5 -53t-32.5 -67.5z" />
<glyph unicode="&#x2026;" horiz-adv-x="1652" d="M1120 73q-3 -23 10 -41.5t36 -31.5t53.5 -19.5t63.5 -5.5q33 0 59 7.5t44.5 18t30 22.5t15.5 21q7 13 7 29q0 23 -27 46t-85 35q-43 8 -80 4t-64.5 -16t-44 -30t-18.5 -39zM537 73q-3 -23 10 -41.5t36 -31.5t53.5 -19.5t63.5 -5.5q33 0 59 7.5t44.5 18t30 22.5t15.5 21 q7 13 7 29q0 23 -27 46t-85 35q-43 8 -80 4t-64.5 -16t-44 -30t-18.5 -39zM-42 73q-2 -23 9.5 -41.5t33.5 -31.5t52 -19.5t64 -5.5q33 0 59 7.5t44.5 18t30 22.5t15.5 21q7 13 7 29q0 23 -27 46t-85 35q-44 8 -80 4t-62.5 -16t-42 -30.5t-18.5 -38.5z" />
<glyph unicode="&#x202f;" horiz-adv-x="225" />
<glyph unicode="&#x2039;" horiz-adv-x="766" d="M568 450q31 6 35 14.5t-18 23.5q-34 26 -79 51q-18 10 -34 13.5t-35 2t-44.5 -7t-62.5 -13.5q-34 -8 -71 -18t-74 -20.5t-70.5 -20.5t-59.5 -19q-24 -6 -36.5 -17.5t-18.5 -26t-8.5 -30t-6.5 -29.5q-6 -9 -3 -28q5 -11 25 -17q112 -28 222.5 -57t210.5 -61q31 -11 45 -8 t25 20q14 23 20 58q2 17 -10 27.5t-38 20.5q-42 14 -96.5 30t-119.5 33q78 22 152.5 42t149.5 37z" />
<glyph unicode="&#x203a;" horiz-adv-x="814" d="M658 397q8 22 -3 30.5t-37 16.5q-59 18 -123.5 35.5t-127.5 33.5t-121 29.5t-103 22.5q-25 5 -43 2t-23 -17q-5 -17 -4 -39t6 -37q6 -9 10.5 -15t11 -10t16 -7t26.5 -6q51 -11 102 -23.5t105 -26.5q-95 -17 -183 -36.5t-149 -36.5q-20 -6 -29 -15t9 -23 q25 -17 50.5 -33.5t50.5 -27.5q26 -12 42.5 -13t41.5 7q42 12 84.5 22.5t87.5 20t94 19.5t105 20q31 7 45 14.5t26 24.5q19 28 33 68z" />
<glyph unicode="&#x205f;" horiz-adv-x="281" />
<glyph unicode="&#x20ac;" horiz-adv-x="1126" d="M112 397q8 1 16 1q9 0 17 1q-7 -18 -12 -36l-10 -36q-36 -2 -72 -5.5t-71 -6.5q-26 -3 -40 -13t1 -28q11 -14 27 -31.5t34 -31.5q18 -15 39 -19.5t56 -0.5q7 1 12 1t10 1q9 -57 46 -102q20 -28 58 -49t76 -32q45 -10 100.5 -21.5t124.5 -15.5q33 -2 67 0t66 7.5t60 13.5 t49 17q39 20 78.5 50t64.5 65q10 15 15.5 27.5t2.5 22.5t-17 17.5t-41 12.5q-135 25 -218 -32q-114 -81 -174 -68q-33 6 -47 36.5t-14 74.5q65 4 129 6t133 4q31 1 41 7t-2 23q-8 14 -18 28t-28 30q-27 28 -86 28q-35 1 -71 0.5t-76 -1.5q6 18 15 36q4 8 8.5 16.5t9.5 17.5 q57 1 115 0.5t118 -1.5q32 -2 42 4t2 23q-7 14 -16.5 28t-23.5 31q-22 28 -85 31l-66 3q21 24 42 44t41 34t38 21.5t33 4.5q26 -6 31.5 -27.5t5.5 -47.5q0 -8 1 -16t3 -16q7 -21 19.5 -37.5t34 -29t52.5 -21t75 -14.5q23 -3 36.5 -2t21 4.5t11.5 9.5t8 13q13 30 17.5 74 t-0.5 81q-2 16 -7.5 30t-16 27t-27.5 25.5t-43 24.5q-26 10 -58.5 20t-68.5 18t-74 13.5t-74 7.5q-48 2 -103.5 -6t-110.5 -36q-71 -37 -128 -87.5t-100 -109.5q-55 -2 -105.5 -4.5t-97.5 -5.5q-26 -2 -41.5 -10.5t-4.5 -27.5q8 -15 23 -32.5t30 -31.5q18 -17 37.5 -21.5 t54.5 -2.5z" />
<glyph unicode="&#x2122;" horiz-adv-x="1384" d="M737 582q8 -52 22 -103t29 -92q6 -20 15.5 -27.5t28.5 -12.5q13 -3 27.5 -5.5t31.5 -4.5q23 -3 29.5 0.5t14.5 15.5q13 20 35 49.5t47.5 62t51.5 65.5t49 60q-12 -31 -22.5 -65t-19 -65.5t-14.5 -58t-8 -43.5q-4 -15 2.5 -24t28.5 -16q14 -5 35.5 -9.5t41.5 -7.5 q23 -4 31 1t13 16q7 31 22 81t33 104.5t36.5 106t31.5 86.5q7 16 0.5 24.5t-29.5 15.5q-35 9 -71 16t-67 12q-26 4 -43 3.5t-30.5 -8t-26 -21.5t-28.5 -35q-17 -19 -35.5 -41t-36.5 -44.5t-34.5 -44.5t-29.5 -41q-12 52 -19.5 82t-11 46t-4.5 22t-1 10q-2 9 -5 16.5t-9 13.5 t-16.5 10.5t-28.5 8.5q-28 7 -57 11.5t-68 8.5q-27 2 -40.5 -2t-21.5 -20q-13 -33 -30.5 -84.5t-33.5 -106.5t-29 -106.5t-17 -84.5q-3 -16 4 -24t27 -15q17 -6 37 -10.5t40 -7.5q21 -3 29 0t13 14q5 25 13.5 56.5t19 67t23 72t25.5 72.5zM528 692q23 1 27 5t-1 15 q-12 25 -44 47q-8 6 -18.5 9t-33.5 3q-45 -1 -101.5 -3.5t-116 -6.5t-116.5 -8.5t-102 -9.5q-14 -2 -18.5 -5.5t3.5 -14.5t19.5 -26t28.5 -26q15 -10 27 -12t30 1q15 2 37 4t45 4q-14 -34 -27.5 -75.5t-25.5 -83t-21 -80t-12 -66.5q-8 -23 13 -33t57 -18q37 -7 58.5 -10 t25.5 14q12 42 27.5 89t32 95t33 94.5t32.5 88.5q40 2 75.5 4.5t65.5 4.5z" />
<glyph unicode="&#xe000;" horiz-adv-x="770" d="M0 770h770v-770h-770v770z" />
<glyph unicode="&#xfb01;" horiz-adv-x="1329" d="M-31 18q28 -8 64.5 -17t70 -13t57 0t26.5 22q18 54 41 121.5t51 139.5q78 11 159.5 21t159.5 18q38 3 48 11t-1 28q-8 17 -18 34.5t-29 35.5q-29 30 -96 27q-42 -1 -81.5 -3t-79.5 -5q22 46 36 87.5t32 74.5q35 3 91 8t121 11t132 12.5t123 11.5q-15 -43 -30.5 -92.5 t-30.5 -101t-29 -102.5t-25 -97.5t-19.5 -86t-11.5 -67.5q-5 -26 5.5 -40.5t43.5 -25.5q32 -11 66 -18t72 -14q19 -3 31.5 -3.5t20 2t12 8t7.5 14.5q13 44 30 98.5t36.5 113.5t40 120t41.5 117.5t40.5 106.5t37.5 87q13 24 -10.5 49t-70.5 44.5t-109.5 30.5t-125.5 7 q-50 -3 -120.5 -8t-149.5 -11t-161.5 -13t-157.5 -13.5t-136 -13.5t-98 -13q2 -39 -7 -93.5t-24.5 -116.5t-34.5 -126t-36.5 -122t-31.5 -105t-18 -74q-1 -13 -0.5 -23t5 -17.5t14.5 -13.5t27 -12z" />
<glyph unicode="&#xfb02;" horiz-adv-x="1551" d="M1357 42q22 3 34 6t15.5 7t1 10.5t-8.5 17.5q-7 17 -18.5 35t-29.5 35q-18 18 -39.5 23.5t-59.5 3.5q-66 -3 -124 -7t-123 -11q22 64 48 132t53 134t53.5 127t50.5 110q11 21 3.5 38.5t-29 30.5t-52.5 22.5t-65.5 15.5t-69.5 8.5t-64 1.5q-51 -1 -124 -4.5t-156 -8 t-170 -10.5t-165.5 -12.5t-142 -13t-100.5 -12.5q2 -39 -7 -93.5t-24.5 -116.5t-34.5 -126t-36.5 -122t-31.5 -105t-18 -74q-1 -13 -0.5 -23t5 -17.5t14.5 -13.5t27 -12q28 -8 64.5 -17t70 -13t57 0t26.5 22q18 54 41 121.5t51 139.5q78 11 159.5 21t159.5 18q38 3 48 11 t-1 28q-8 17 -18 34.5t-29 35.5q-29 30 -96 27q-42 -1 -81.5 -3t-79.5 -5q22 46 36 87.5t32 74.5q31 3 83.5 6.5t114.5 7.5t128 8t125 8q-25 -62 -49.5 -131.5t-45.5 -137t-37.5 -128t-23.5 -105.5q-7 -24 5 -41.5t37 -31.5q33 -18 52.5 -29.5t44.5 -22.5q10 -5 21 -9 t27 -6.5t38 -1.5t54 7q88 12 184.5 24.5t189.5 24.5z" />
</font>
</defs>
</svg>
