<?xml version="1.0" standalone="no"?>
<!DOCTYPE svg PUBLIC "-//W3C//DTD SVG 1.1//EN" "http://www.w3.org/Graphics/SVG/1.1/DTD/svg11.dtd" >
<svg xmlns="http://www.w3.org/2000/svg">
<metadata></metadata>
<defs>
<font id="komika_titleregular" horiz-adv-x="463" >
<font-face units-per-em="1000" ascent="800" descent="-200" />
<missing-glyph horiz-adv-x="241" />
<glyph horiz-adv-x="1000" />
<glyph horiz-adv-x="1000" />
<glyph unicode="&#xd;" horiz-adv-x="500" />
<glyph unicode=" "  horiz-adv-x="241" />
<glyph unicode="&#x09;" horiz-adv-x="241" />
<glyph unicode="&#xa0;" horiz-adv-x="241" />
<glyph unicode="!" horiz-adv-x="267" d="M205 761q-16 14 -36.5 25.5t-37.5 17.5q-19 8 -27.5 2.5t-13.5 -28.5q-10 -50 -22 -116t-23 -135.5t-21 -137t-16 -119.5q-4 -26 0.5 -40t19.5 -25q28 -21 62 -30q15 -5 22 -0.5t10 24.5q9 55 21 117t25.5 126.5t27.5 129t28 125.5q5 21 1 35.5t-20 28.5zM-28 64 q-2 -48 19.5 -74.5t52.5 -25.5q15 0 27 7.5t20.5 18.5t14 23.5t7.5 21.5q3 12 2.5 28t-6 31.5t-16.5 29t-29 20.5q-21 9 -37.5 5t-28 -16t-18.5 -30.5t-8 -38.5z" />
<glyph unicode="&#x22;" horiz-adv-x="374" d="M136 602q7 15 15 36.5t15 45.5q6 17 11 36t8 36.5t4.5 32t0.5 22.5q-1 15 -14 31q-10 12 -21 21.5t-24 17.5q-14 10 -23.5 8t-12.5 -23q-5 -28 -12.5 -64t-16 -73t-17 -71t-14.5 -57q-8 -32 20 -36q11 -2 23.5 -1t21.5 4q22 4 36 34zM281 572q8 13 18 33t20 43t18 46.5 t13 43.5q5 28 5 33q0 12 -11 32q-8 11 -18 22t-23 21q-28 25 -38 -10q-8 -26 -19 -60t-23 -69.5t-24 -67.5t-21 -53q-12 -32 18 -39q11 -2 23 -3.5t23 0.5q23 2 39 28z" />
<glyph unicode="#" horiz-adv-x="478" d="M419 461q-17 -2 -35 -3.5t-37 -3.5q-6 -29 -12 -58.5t-11 -58.5q26 -1 37.5 -11.5t22.5 -33.5q8 -16 5.5 -23t-17.5 -10q-16 -2 -32 -4.5t-33 -4.5q-8 -45 -15 -82.5t-12 -69.5q-4 -18 -10.5 -19.5t-18.5 6.5q-17 11 -27 26.5t-12 39.5q-1 8 -0.5 18t1.5 22q2 10 3 19.5 t3 21.5q-20 -7 -40.5 -10.5t-40.5 -10.5q-6 -37 -11 -69.5t-10 -61.5q-4 -18 -9.5 -19.5t-18.5 6.5q-22 14 -34 37.5t-7 67.5l1 14q-24 -5 -39 8.5t-29 39.5q-8 17 -6.5 24.5t16.5 12.5q17 7 35 11t38 11q5 26 9 53.5t9 56.5q0 -1 -3 -1q-32 -8 -48 6t-30 43q-9 17 -7 24 t18 12q18 7 41 11t49 11q9 48 18 91t18 79q9 34 33 11q23 -21 34.5 -46.5t3.5 -62.5q-4 -26 -12 -55q20 2 39.5 4.5t37.5 4.5q9 46 19 89t19 78q9 34 34 10q23 -21 33.5 -47.5t1.5 -62.5q-4 -14 -7 -29t-8 -32q31 -1 43 -13t23 -36q8 -17 5 -23t-18 -8zM255 439 q-21 -4 -40.5 -7t-38.5 -8q-5 -29 -10 -55t-10 -55q20 4 40 7.5t39 6.5q4 28 9 55t11 56z" />
<glyph unicode="$" horiz-adv-x="369" d="M146 668q-12 -1 -22 -5t-18 -10q-35 -28 -60 -74t-38 -91q-10 -51 3.5 -93t39.5 -71q19 -22 43 -41t43.5 -35t30 -29t3.5 -22q-11 -14 -44 -4.5t-73 42.5q-14 14 -36 17t-38 -11q-9 -8 -9 -23q0 -14 20 -43q15 -23 31.5 -39t33.5 -28q-2 -12 -3 -23.5t-2 -25.5 q-2 -36 6.5 -71t31.5 -52q13 -10 20 -7.5t9 20.5q3 26 8.5 61t11.5 67q1 -1 8 -1h9q27 0 46.5 10.5t33 26t22.5 34t14 33.5q9 37 -2.5 64.5t-33.5 50.5t-49 45t-49 48q-19 25 -17 55.5t14 56t27.5 41.5t24.5 12q5 -3 5 -14q2 -17 -0.5 -41.5t-4.5 -42.5q-2 -36 15 -58.5 t43 -36.5q20 -9 29 13q4 13 7.5 31.5t6.5 38t4.5 39t1.5 35.5q0 19 -4.5 41.5t-24.5 45.5q-16 18 -28 27q4 19 7 38t5 34q5 36 -5.5 62.5t-30.5 43.5q-25 23 -35 -10q-7 -23 -15 -59.5t-16 -71.5z" />
<glyph unicode="%" horiz-adv-x="593" d="M458 610q18 29 14 57.5t-21 54.5q-18 30 -35 4q-16 -24 -35 -41.5t-38.5 -29t-37.5 -16.5t-32 -3q-35 3 -53 37q-13 26 -24 41q-21 23 -58 34q-11 3 -26 -1t-26 -14q-24 -24 -41 -61.5t-26 -79t-8 -83t13 -73.5q7 -14 15.5 -28t17.5 -22q11 -10 25.5 -16t27.5 -10 q39 -7 67 22q15 16 25.5 39t17 49.5t9.5 55t3 55.5q25 -11 52 -7.5t51 21.5q-35 -59 -73 -126t-73 -132.5t-64.5 -122.5t-47.5 -95q-17 -39 -11.5 -64t23.5 -47q11 -10 17 -11.5t14 11.5q16 34 41.5 82.5t56.5 105t64.5 116t65.5 115t61 103.5t49 80zM497 281q-2 18 -9 35.5 t-20 31.5q-9 10 -24.5 19.5t-31.5 14.5q-12 3 -27.5 -1t-26.5 -14q-25 -24 -42.5 -61.5t-26.5 -79t-8.5 -83t11.5 -73.5t31 -50q11 -10 25 -15.5t28 -8.5q37 -9 66 20q15 16 26 38.5t18.5 48.5t11 54t3.5 55q0 19 -1 36t-3 33zM149 673q6 -3 8 -16.5t2 -32.5t-2.5 -42 t-5.5 -47q-10 -57 -24 -84t-27 -20q-13 6 -13.5 44.5t9.5 92.5q4 19 11 39t14.5 35.5t15 24.5t12.5 6zM421 307q5 -3 7 -17t1.5 -34t-3 -43.5t-7.5 -44.5q-11 -55 -26 -83t-27 -21q-13 7 -13 45q0 41 13 93q4 19 11 39t15 36t16 24.5t13 5.5z" />
<glyph unicode="&#x26;" horiz-adv-x="519" d="M307 56q-44 -38 -96 -56q-18 -8 -39 -13.5t-43.5 -3.5t-47.5 14.5t-52 39.5q-58 63 -60 124.5t33 121.5q18 29 43 54t54 48q-14 29 -21 46q-26 64 -29 112.5t17 100.5q19 48 56.5 81t79.5 44q19 5 37 6.5t35 -4t35 -20t38 -41.5q48 -64 52 -130t-34 -123 q-20 -32 -52.5 -61t-64.5 -55q15 -28 31.5 -55t33.5 -53q15 15 28.5 31t29.5 34q16 16 25 16q11 0 17 -14q14 -33 7.5 -66.5t-22.5 -65.5q-5 -8 -9 -16t-9 -15q13 -17 23.5 -31.5t21.5 -28.5q14 -17 13.5 -26.5t-11.5 -20.5t-20 -17.5t-24 -10.5q-15 -2 -26.5 5t-31.5 28 q-8 10 -18 21zM191 456q20 15 38 31t31 33q9 10 17 26.5t11 34.5t0.5 37t-14.5 36q-13 -4 -27 -12.5t-26.5 -19.5t-22.5 -24.5t-15 -26.5q-19 -46 5 -108zM230 162q-17 24 -33.5 50.5t-33.5 55.5q-38 -38 -54 -70.5t-16 -55.5q0 -13 5 -21q12 -17 48 -5.5t84 46.5z" />
<glyph unicode="'" horiz-adv-x="212" d="M129 572q8 13 18 33t20 43t18 46.5t13 43.5q5 28 5 33q0 12 -11 32q-8 11 -18 22t-23 21q-28 25 -38 -10q-8 -26 -19.5 -60t-23.5 -69t-23.5 -67t-19.5 -54q-12 -31 17 -39q12 -2 23.5 -3.5t22.5 0.5q23 2 39 28z" />
<glyph unicode="(" horiz-adv-x="243" d="M137 812q-51 -80 -82.5 -178t-42 -201.5t1 -205.5t46.5 -189q20 -45 45 -59t50 -12q14 3 17 7.5t-4 21.5q-29 73 -38.5 158t-3.5 171.5t25.5 168.5t49.5 150q35 78 -21 164q-24 38 -43 4z" />
<glyph unicode=")" horiz-adv-x="271" d="M179 670q-11 51 -39 88t-77 48q-24 7 -27 -5t2 -34q22 -93 26.5 -201t-7 -213.5t-39 -198.5t-67.5 -156q-16 -29 14 -34q59 -8 94 36q41 54 71 134t46 171t17.5 186t-14.5 179z" />
<glyph unicode="*" horiz-adv-x="475" d="M396 505q26 6 9 35q-14 26 -34 38.5t-55 5.5q-11 -2 -23 -4.5t-24 -5.5q3 18 7 37t9 39q8 36 -3.5 62.5t-34.5 47.5q-24 23 -33 -11q-10 -39 -17.5 -75.5t-13.5 -71.5q-11 12 -20.5 25t-22.5 27q-24 30 -48 33.5t-47 -10.5q-24 -15 -4 -41q25 -32 47 -59t43 -51 q-32 -12 -60.5 -25t-51.5 -25q-15 -7 -16 -15t9 -23q17 -28 38 -41.5t50 0.5q14 7 28 12.5t28 11.5q-2 -11 -3 -23t-3 -26q-5 -45 7 -67.5t34 -35.5q14 -10 19.5 -8t8.5 20q6 35 10.5 66t9.5 63q11 -11 23 -23.5t26 -25.5q32 -32 53 -32q20 0 40 15q11 11 12 17.5t-12 20.5 q-24 26 -45.5 48t-41.5 45q26 8 51 16t51 14z" />
<glyph unicode="+" horiz-adv-x="488" d="M376 316q-36 -2 -73 -3.5t-75 -6.5q-8 -48 -14.5 -93t-11.5 -82q-3 -19 -8 -22t-19 5q-12 8 -23.5 15.5t-25.5 18.5q-21 17 -20 50q2 18 3.5 41t5.5 51q-17 -2 -33 -5.5t-31 -7.5t-23 -0.5t-19 18.5q-10 14 -20 36.5t-15 39.5t3.5 25t19.5 11q26 7 62 12.5t76 8.5 q8 47 16.5 88.5t17.5 71.5q4 14 12.5 21.5t20.5 1.5q15 -8 31 -21t26 -27q11 -14 13 -24.5t-3 -27.5q-4 -17 -8.5 -35.5t-8.5 -38.5q47 2 79 0q26 -1 40 -30q8 -17 12.5 -31.5t9.5 -29.5q5 -17 1 -23.5t-18 -6.5z" />
<glyph unicode="," horiz-adv-x="209" d="M38 -119q7 10 17 26.5t20 35t19 38t15 36.5q7 17 6 29.5t-12 26.5q-13 17 -27.5 29.5t-29.5 22.5q-14 10 -23.5 8t-16.5 -20q-15 -54 -36.5 -105.5t-39.5 -99.5q-12 -30 13 -40q13 -7 28 -11t29 -3q11 2 19.5 7.5t18.5 19.5z" />
<glyph unicode="-" horiz-adv-x="395" d="M-56 492q20 6 48 12t59.5 10.5t64 7t62.5 2.5q27 0 46 -37q10 -22 16 -41t13 -37q7 -22 3 -29t-20 -8q-53 -5 -109.5 -14t-104.5 -26q-13 -5 -24 1t-24 27q-13 20 -22.5 39t-17.5 39q-19 46 10 54z" />
<glyph unicode="." horiz-adv-x="221" d="M-19 73q-2 -46 19.5 -73t52.5 -25q15 0 27 7.5t20 18t13.5 22.5t7.5 21q3 13 3 29t-5.5 31.5t-16.5 28.5t-29 21q-20 8 -36.5 4t-28.5 -16t-19 -30.5t-8 -38.5z" />
<glyph unicode="/" horiz-adv-x="354" d="M322 713q-13 15 -27 28.5t-28 25.5q-29 26 -45 -11q-16 -32 -38.5 -86.5t-47.5 -120t-51 -136.5t-49 -135.5t-41.5 -118t-28.5 -83.5q-7 -24 -6 -40q2 -18 14 -29q10 -9 20 -18.5t24 -20.5q15 -11 23 -7.5t14 21.5q14 37 35.5 92.5t47 119t53 131t53.5 130t48 114 t37 84.5q8 18 7.5 30.5t-14.5 29.5z" />
<glyph unicode="0" horiz-adv-x="457" d="M335 701q-20 20 -50 33.5t-63 20.5q-24 5 -52 -4.5t-49 -30.5q-48 -51 -79.5 -128.5t-45.5 -162.5t-12 -169t20 -150q10 -28 27 -50t32 -34q23 -17 49 -26t50 -12q38 -5 67 4t55 43q37 49 61 119t36 146t13 151.5t-8 136.5q-5 33 -16.5 60.5t-34.5 52.5zM244 620 q12 -5 17 -34t5 -71t-4 -88.5t-11 -88.5q-8 -53 -20.5 -96.5t-27 -74.5t-30 -45.5t-28.5 -8.5q-14 7 -22 34.5t-9.5 66.5t2.5 85t13 91t23.5 88.5t30.5 76.5t32 51.5t29 13.5z" />
<glyph unicode="1" horiz-adv-x="258" d="M208 652q5 21 1 32t-20 25q-17 16 -34 26t-34 16q-18 7 -26.5 3t-19.5 -23q-12 -21 -26 -49.5t-24 -56.5q-9 -24 -2.5 -34.5t30.5 -27.5q-10 -57 -20 -125.5t-18.5 -135t-14 -124.5t-7.5 -94q-2 -26 2 -41t16 -26q16 -12 31.5 -17.5t31.5 -11.5q17 -7 23 -2t9 22 q5 43 12.5 97t16 112.5t18 119.5t19 118t19 108t17.5 89z" />
<glyph unicode="2" horiz-adv-x="413" d="M148 143q26 6 55 9t49 4q15 1 25 -6.5t19 -24.5q8 -14 15.5 -33t11.5 -34q5 -18 1 -24t-19 -9q-24 -2 -55.5 -7t-63.5 -11.5t-61 -13t-49 -12.5q-29 -8 -40 -3.5t-20 16.5q-11 12 -26.5 34t-25.5 40q-4 7 -7.5 16t-4.5 18t1.5 18t10.5 18q35 37 72.5 84t72.5 96.5 t64.5 98t50 88t29 66.5t0.5 34q-7 7 -18.5 3t-25.5 -16.5t-29.5 -31t-30.5 -38.5q-23 -24 -54.5 -25t-58.5 12q-8 4 -13 9.5t-6 15.5t2 23.5t12 34.5q29 64 71 107t90 55q28 7 53.5 0.5t47.5 -21.5t38.5 -34.5t26.5 -38.5q14 -29 18.5 -56t2 -54t-11 -54.5t-20.5 -56.5 q-14 -35 -36 -73.5t-48.5 -77.5t-56 -76.5t-58.5 -68.5z" />
<glyph unicode="3" horiz-adv-x="433" d="M249 371q60 36 95 79q14 18 23 44.5t10 58t-8.5 66t-31.5 69.5q-21 31 -42 47.5t-41 22.5t-38 4t-33 -6q-21 -6 -41.5 -18.5t-38.5 -28t-32.5 -33.5t-24.5 -35q-16 -28 5 -53q11 -12 26.5 -19.5t32 -10t33 1t28.5 15.5q17 14 36.5 27.5t33.5 13.5q10 0 15 -9 q7 -12 -0.5 -31.5t-31.5 -44t-65.5 -51.5t-101.5 -54q-25 -12 -9 -49q19 -43 47 -65t57 -16q23 4 37.5 2t27.5 -16q6 -7 9.5 -20.5t2.5 -30t-6.5 -35.5t-17.5 -38q-26 -38 -61.5 -43t-91.5 35q-19 14 -44 17t-45 -15q-12 -10 -12.5 -26.5t27.5 -49.5q45 -58 91 -79t88 -21 q55 0 99.5 23t78.5 86q14 27 21 58.5t4.5 64t-15.5 64t-38 60.5q-13 15 -27.5 23.5t-30.5 15.5z" />
<glyph unicode="4" horiz-adv-x="474" d="M346 368q27 -2 39 -33q7 -18 10.5 -32.5t8.5 -31.5q4 -19 -0.5 -26t-20.5 -9l-30 -2l-30 -2q-11 -66 -20.5 -124.5t-15.5 -106.5q-3 -19 -9.5 -24t-23.5 1q-13 5 -29 13.5t-30 19.5q-14 14 -18.5 27.5t-1.5 39.5q2 24 6.5 58.5t11.5 79.5q-29 -5 -57 -9.5t-54 -10.5 q-14 -4 -26 -2.5t-25 18.5q-15 17 -29 38.5t-26 43.5q-8 18 -8.5 34.5t9.5 37.5q19 43 48.5 96t63 105.5t67 100t60.5 80.5q14 15 24 17.5t27 -4.5q9 -4 24 -13t31.5 -19.5t32 -21.5t24.5 -18q16 -14 19.5 -25.5t-1.5 -32.5q-11 -51 -24 -119t-27 -144zM94 346q27 5 59 8 t64 7q11 59 21.5 118.5t22.5 114.5q-22 -27 -44 -58t-43.5 -63.5t-41.5 -64.5t-38 -62z" />
<glyph unicode="5" horiz-adv-x="393" d="M198 581l81 13.5t74 11.5q17 3 21.5 10t-0.5 27q-4 18 -7 38t-11 39q-12 35 -46 32q-43 -2 -87.5 -6t-92.5 -14q-33 -7 -45 -44q-25 -82 -42.5 -150.5t-27.5 -123.5q-5 -26 -1 -40.5t13 -24.5q14 -14 23 -22t20 -19q10 -11 17 -12.5t27 6.5q9 4 21 6.5t24 3t21.5 -1.5 t13.5 -6q4 -6 7 -22t3 -37q0 -20 -5 -43t-15 -42q-7 -15 -17 -26.5t-23.5 -15t-32 4t-43.5 31.5q-17 17 -45 18.5t-48 -15.5q-13 -10 -11 -25q2 -17 26 -53q27 -51 66.5 -70.5t81.5 -18.5q38 1 66.5 15t49 34t33 43.5t18.5 43.5q29 91 16 159t-59 104q-51 39 -107 39 q8 35 19 74t24 79z" />
<glyph unicode="6" horiz-adv-x="408" d="M178 454q28 60 63 115.5t77 103.5q14 17 10.5 29t-17.5 24q-14 10 -38.5 20.5t-43.5 15.5q-20 5 -28.5 0.5t-22.5 -19.5q-60 -69 -99 -144t-62.5 -147t-32.5 -136t-9 -111q-1 -72 22 -120.5t81 -80.5q30 -14 54 -19t43 -3t34 10t27 19q19 18 37 47.5t31.5 67t20.5 80.5 t4 88q-2 46 -19.5 81.5t-66.5 62.5q-33 17 -65 16zM109 265q18 39 42.5 57.5t41.5 8.5q19 -11 18 -47t-16 -82q-18 -54 -41 -78.5t-43 -10.5q-17 11 -16.5 51.5t14.5 100.5z" />
<glyph unicode="7" horiz-adv-x="429" d="M248 610q-30 -58 -59.5 -120.5t-57 -127.5t-52 -130.5t-44.5 -128.5q-7 -24 -6 -38t12 -31q12 -17 27 -31t30 -25q16 -10 23 -8t13 20q26 74 57.5 153t65.5 155.5t68 147.5t66 131q12 22 11 40t-12 37q-8 15 -19 34.5t-25 39.5q-11 20 -23.5 26t-29.5 6q-31 -2 -67 -5 t-71.5 -7.5t-68 -11t-57.5 -15.5q-11 -4 -14 -11t5 -24q7 -18 19 -39.5t20 -35.5q13 -17 27.5 -21.5t28.5 -0.5q12 2 28 4.5t34 5.5t36.5 6t34.5 5z" />
<glyph unicode="8" horiz-adv-x="436" d="M377 485q29 61 14 119.5t-58 103.5q-35 35 -72 48t-75 -6q-45 -23 -80.5 -61t-57.5 -89q-26 -60 -14 -114.5t60 -100.5q-45 -39 -80 -87t-41 -110q-6 -61 21 -112t85 -76q31 -14 63 -18t62.5 5t58 31t49.5 61q19 36 29.5 71.5t7.5 71t-21.5 71t-58.5 71.5q37 29 65 58 t43 63zM186 296q28 -29 26.5 -63t-16.5 -70q-17 -38 -39 -53.5t-38 -7.5q-12 6 -19.5 25.5t3.5 51.5t32 62t51 55zM244 635q38 -39 19 -83t-89 -104q-12 16 -14 37.5t6.5 46t28 51t49.5 52.5z" />
<glyph unicode="9" horiz-adv-x="406" d="M130 250q-25 -46 -55 -89t-65 -83q-14 -15 -10.5 -27t13.5 -23q14 -15 26.5 -22.5t28.5 -17.5q17 -11 29 -6t26 18q53 50 98 120.5t77.5 147t49.5 151.5t14 133q-2 36 -11 64.5t-24.5 51t-38 40.5t-50.5 34q-28 15 -51 18.5t-42 -1t-34 -14t-27 -20.5 q-23 -23 -42.5 -59.5t-32 -80t-17 -91t2.5 -92.5q6 -51 29 -85.5t71 -56.5q8 -5 17 -6.5t18 -3.5zM189 386q-26 -35 -50 -22q-11 5 -16.5 18.5t-6.5 33t2 42.5t9 47q7 26 17.5 49.5t21.5 40.5t22.5 25.5t21.5 3.5q11 -6 15 -27t1.5 -52.5t-12 -72t-25.5 -86.5z" />
<glyph unicode=":" horiz-adv-x="246" d="M17 385q-2 -46 20 -74t53 -27q15 0 27 7.5t20.5 19t14 24t7.5 21.5q1 7 1.5 14t0.5 15q0 23 -12 46.5t-39 34.5q-20 8 -36.5 4t-28.5 -16t-19.5 -30t-8.5 -39zM-29 84q-5 -45 13 -72.5t47 -34.5q29 -8 51 9t28 49q2 13 1.5 31t-5.5 35t-16 32t-30 22q-38 14 -61.5 -9 t-27.5 -62z" />
<glyph unicode=";" horiz-adv-x="260" d="M-36 462q6 -55 31.5 -88.5t56.5 -32.5q16 0 27 9t18 22.5t10 28.5t4 26q1 15 -1.5 34.5t-10 38t-20.5 34.5t-34 25q-20 10 -36 5t-26.5 -19.5t-15.5 -36.5t-3 -46zM61 -144q6 12 13.5 31.5t14.5 42t13.5 46t10.5 44.5q8 26 -4.5 51t-41.5 51q-13 13 -25 23t-21.5 13.5 t-15.5 -1.5t-8 -21q-10 -66 -23.5 -128.5t-24.5 -119.5q-9 -34 20 -48q14 -8 29 -13t29 -4q11 2 19 9t15 24z" />
<glyph unicode="&#x3c;" horiz-adv-x="348" d="M258 450q14 6 16 14.5t-8 23.5q-15 25 -36 51q-8 10 -15.5 13.5t-16 2t-20 -7t-28.5 -13.5q-31 -17 -66 -38.5t-59 -39.5q-11 -6 -16.5 -17.5t-8.5 -26t-4 -30t-3 -29.5q-3 -9 -1 -28q2 -11 11 -17q51 -28 101.5 -57t95.5 -61q14 -11 20.5 -8t11.5 20q6 22 9 58 q1 17 -4.5 27.5t-17.5 20.5q-19 14 -44 30t-54 33q35 22 69 42t68 37z" />
<glyph unicode="=" horiz-adv-x="436" d="M75 398q-16 -2 -25 2.5t-17 21.5q-7 14 -13.5 31.5t-10.5 32.5q-5 19 2 27.5t19 10.5q30 5 66 8t73 3.5t72.5 -1t65.5 -5.5q28 -3 39 -31q6 -17 10.5 -31t7.5 -28q4 -17 -1 -23t-19 -4q-70 2 -136.5 -0.5t-132.5 -13.5zM68 192q-16 -4 -25.5 0.5t-17.5 19.5 q-8 14 -15.5 31.5t-12.5 31.5q-7 18 -0.5 28t18.5 13q31 7 66.5 13t71.5 9.5t71.5 5t65.5 0.5q27 0 39 -28q8 -16 12.5 -30t8.5 -28q5 -17 0.5 -23t-18.5 -7q-136 -6 -264 -36z" />
<glyph unicode="&#x3e;" horiz-adv-x="370" d="M299 397q-6 -39 -15 -68q-5 -17 -11.5 -24.5t-20.5 -14.5q-51 -20 -91 -39.5t-78 -42.5q-11 -8 -18.5 -7t-19.5 13q-11 11 -23 27.5t-23 33.5q-8 14 -4 23t13 15q28 17 68 36.5t83 36.5q-24 14 -47.5 26.5t-46.5 23.5q-15 6 -19.5 13t-9.5 25q-2 15 -2.5 37t1.5 39 q2 14 10.5 17t19.5 -2q21 -9 47 -22.5t55 -29.5t58 -33.5t56 -35.5q12 -8 17 -16.5t1 -30.5z" />
<glyph unicode="?" horiz-adv-x="453" d="M89 198q13 -9 29 -18.5t29.5 -13t22.5 1t8 22.5q6 58 27 93t47.5 60.5t54 47t47.5 53.5q13 21 23 48.5t11.5 60.5t-7.5 69.5t-34 75.5q-11 19 -28 36.5t-38.5 29t-46.5 15.5t-52 -3q-45 -11 -84.5 -49t-70.5 -98q-21 -39 -17.5 -56t18.5 -25q30 -18 61.5 -15t53.5 27 q15 16 29 31.5t27.5 28.5t26.5 21t27 8q9 0 17.5 -7t10.5 -23q2 -24 -13.5 -57t-60.5 -71q-18 -16 -40.5 -36.5t-43 -48t-35.5 -63.5t-18 -83q-2 -24 1.5 -37.5t17.5 -24.5zM32 65q-4 -45 16.5 -70t49.5 -30q33 -7 54.5 11.5t26.5 46.5q1 3 1 12v15q0 23 -10 45.5t-42 36.5 q-21 9 -38 6.5t-29.5 -12.5t-20 -26t-8.5 -35z" />
<glyph unicode="@" horiz-adv-x="595" d="M512 300q13 60 11.5 123t-19 119.5t-52 102t-88.5 71.5q-53 27 -110.5 25.5t-108.5 -32.5t-90 -91t-55 -151q-15 -96 -4.5 -171.5t37 -131t63.5 -91t75 -51.5q45 -21 79 -21.5t58 10.5q8 4 9 12t-5 18q-10 15 -25.5 25.5t-30.5 15.5q-10 3 -19.5 3.5l-19 1t-21 2.5 t-24.5 7q-18 7 -40 29.5t-38 61.5t-21 96.5t11 135.5t46 132t66.5 84t75.5 36t74 -11q41 -20 62 -58.5t28.5 -83.5t5 -91t-8.5 -80q-17 -86 -40.5 -126t-37.5 -24q-5 5 -5 21q0 19 4 49t9 61t10 57.5t7 38.5q4 23 0 37.5t-27 31.5q-5 25 -18 43t-30 26q-24 10 -49.5 0 t-48 -35.5t-41 -65t-28.5 -87.5q-11 -48 -8.5 -83t13.5 -60t27.5 -40t33.5 -22q56 -23 92 19q19 -40 54 -52q22 -10 45 -9t44.5 18.5t40.5 54.5t32 100zM316 476q-10 -55 -21.5 -102t-23.5 -80.5t-24 -51t-22 -13.5q-12 4 -16.5 32t9.5 93q7 33 19 61t25 48t24 30.5t16 8.5 q11 -6 14 -26z" />
<glyph unicode="A" horiz-adv-x="479" d="M275 186q2 -39 5 -73t6 -63q3 -28 9.5 -39t22.5 -18q16 -8 31 -9.5t32 -1.5t22 7t4 25q-4 84 -7.5 176.5t-6 181.5t-3 168.5t0.5 136.5q1 23 -4.5 37.5t-24.5 22.5q-26 10 -55 20t-76 13q-27 3 -41 -10t-23 -34q-25 -60 -55 -141.5t-59 -168t-55.5 -170t-44.5 -149.5 q-6 -29 -5 -41t8 -22t17 -18t20.5 -14.5t18.5 -11.5q15 -8 22.5 -5t13.5 20q10 32 20.5 65.5t24.5 71.5q37 14 85.5 24t96.5 20zM152 316q29 84 57.5 160t51.5 136q0 -66 2 -136t4 -142q-58 -6 -115 -18z" />
<glyph unicode="B" d="M313 364q20 16 35.5 32t29.5 32q26 32 42 74t8 90q-8 43 -23.5 74.5t-36.5 59.5q-24 30 -66.5 38.5t-90.5 2t-95.5 -25.5t-81.5 -43q-3 -62 -10.5 -134.5t-15.5 -146t-16 -144t-12 -128.5q-2 -18 -1.5 -30t3.5 -21.5t8.5 -18t12.5 -20.5q19 -23 33.5 -37.5t34.5 -27.5 q10 -9 18 -13.5t16.5 -5.5t17.5 1.5t22 7.5q24 9 50.5 22.5t52.5 30.5t49 37.5t40 43.5q23 29 33.5 59.5t5.5 72.5q-5 35 -21.5 67.5t-41.5 50.5zM149 427q8 45 15 85t15 75q51 32 87 33.5t41 -19.5q3 -13 -6.5 -35t-30.5 -47t-51.5 -49.5t-69.5 -42.5zM123 278q25 12 46 16 t37 1.5t25.5 -9.5t12.5 -17q3 -16 -6.5 -35t-28.5 -38.5t-47 -37t-62 -30.5q5 38 11 75t12 75z" />
<glyph unicode="C" horiz-adv-x="428" d="M311 206q-61 25 -99 -32q-52 -82 -79 -68q-14 6 -20.5 32t-7.5 64.5t3.5 84.5t13.5 91q9 42 24 89t32 86t33 63t28 19q12 -6 14.5 -27.5t2.5 -47.5q0 -8 0.5 -16t1.5 -16q6 -42 24 -66.5t58 -35.5q21 -6 26 2.5t9 22.5q6 30 8 74t0 81q-2 32 -10.5 57t-32.5 50 q-23 20 -57.5 37.5t-67.5 21.5q-22 2 -47 -6t-50 -36q-31 -36 -57 -85.5t-45 -107t-31 -119t-15.5 -121t1.5 -112.5t20 -94q9 -28 26.5 -49t34.5 -32q20 -10 45.5 -21.5t56.5 -15.5q30 -4 60.5 7.5t49.5 30.5q18 20 36 50t29 65q10 30 8.5 50t-26.5 30z" />
<glyph unicode="D" horiz-adv-x="489" d="M34 706l-56 -551q-3 -24 -2 -39.5t4.5 -26.5t9.5 -19.5t12 -17.5q17 -20 30.5 -33.5t32.5 -27.5q36 -29 71 -9q66 28 117 73t86.5 100t57 116t28.5 121.5t1 117t-25 101.5q-21 53 -50 85t-62.5 48t-69 18.5t-69 -4.5t-64 -21.5t-52.5 -30.5zM103 138q17 121 35.5 235 t40.5 223q38 17 65.5 3.5t38.5 -41.5q5 -14 8 -34t2 -46q-1 -38 -12 -84t-33.5 -92t-58 -89t-86.5 -75z" />
<glyph unicode="E" horiz-adv-x="385" d="M45 710l-76 -578q-2 -26 3.5 -45t16.5 -33q13 -18 23 -29.5t21 -22.5q10 -10 23.5 -15.5t40.5 4.5q40 11 84 24t86 25q17 5 20.5 12.5t-0.5 27.5q-5 18 -10 35t-13 36q-7 17 -17.5 23t-27.5 4q-32 -3 -60 -7.5t-58 -12.5q5 26 10 53.5t10 56.5q37 11 76.5 20.5t77.5 19.5 q17 5 21 12t-1 28q-4 18 -8.5 35t-12.5 35q-7 17 -17 22.5t-27 4.5q-20 -1 -38.5 -2.5t-37.5 -5.5q10 45 18 86t16 78q42 8 80.5 14t73.5 11q17 3 21.5 10.5t1.5 28.5q-4 18 -7.5 33t-11.5 34q-10 36 -43 34q-70 -4 -138.5 -21t-119.5 -35z" />
<glyph unicode="F" horiz-adv-x="380" d="M341 626q17 3 21 10t1 28q-5 34 -21 69q-11 21 -20 27.5t-26 5.5q-35 -2 -70.5 -6t-70 -9.5t-65.5 -13t-56 -16.5q1 -39 -3 -93.5t-11 -116.5t-16 -126t-17 -122t-14 -105t-8 -74q-1 -26 2 -40t19 -26q13 -8 29.5 -17t31.5 -13t26 0t12 22q8 54 18.5 121.5t23.5 139.5 q35 11 72.5 21t72.5 18q17 3 21.5 11t-0.5 28q-4 17 -8.5 34.5t-12.5 35.5q-14 30 -44 27q-19 -1 -37 -3t-36 -5q10 46 16.5 87.5t14.5 74.5q42 8 81 14t74 12z" />
<glyph unicode="G" horiz-adv-x="442" d="M379 448q2 14 3.5 34t2 41.5t0 43.5t-2.5 39q-4 32 -13.5 57.5t-29.5 46.5q-21 23 -52.5 38.5t-61.5 20.5q-21 4 -47 0t-47 -25q-34 -33 -62 -81t-49 -104.5t-34.5 -117.5t-18.5 -121t-0.5 -114.5t19.5 -97.5q8 -28 24 -51.5t33 -37.5q46 -32 99 -42q59 -14 107 27 q36 33 66 93t51 145q5 25 4 41t-12 37q-6 11 -13 24t-15 24q-11 17 -24.5 22t-34.5 1q-18 -4 -43 -8.5t-48 -11.5q-24 -5 -39 -11t-10 -29q11 -51 32 -73.5t59 -19.5q-10 -31 -21.5 -58.5t-24 -46.5t-25 -28t-24.5 -3q-14 7 -21 35.5t-8 69t4.5 87.5t16.5 90q12 52 28.5 99 t33.5 81.5t33.5 53.5t28.5 14q6 -2 8.5 -13t4.5 -26q1 -8 1.5 -16.5t0.5 -17.5t0.5 -17t1.5 -16q4 -43 24.5 -70t63.5 -35q16 -2 21.5 4t9.5 23z" />
<glyph unicode="H" horiz-adv-x="452" d="M428 664q4 20 0.5 31.5t-19.5 25.5q-17 14 -35.5 25.5t-35.5 17.5q-18 7 -27.5 3.5t-14.5 -28.5q-12 -66 -25 -152t-27 -177q-23 -2 -48.5 -5t-51.5 -7q13 75 24 140t21 111q4 21 0.5 32.5t-20.5 25.5q-16 14 -37 26t-39 19q-17 8 -26 4t-14 -29q-9 -67 -19 -151.5 t-20.5 -172t-21.5 -171t-23 -149.5q-5 -26 1 -40.5t21 -25.5q12 -11 29.5 -18t33.5 -14q17 -6 23 -1t9 22q7 48 14.5 107t18.5 125q26 6 52.5 11t52.5 11q-7 -54 -12 -99.5t-7 -80.5q-6 -36 9.5 -53.5t42.5 -29.5q13 -5 25 -9.5t20.5 -5.5t13.5 4t5 19q11 81 24.5 171 t28 178t28.5 168t26 142z" />
<glyph unicode="I" horiz-adv-x="208" d="M160 707q-16 14 -37 26.5t-39 18.5q-18 7 -27 2t-14 -27q-7 -37 -15.5 -90t-17 -113t-16.5 -124t-15 -123t-12 -109.5t-7 -84.5q-2 -26 2.5 -40.5t19.5 -25.5q14 -11 30 -18t33 -14q17 -6 23 -1t9 22q6 44 13.5 98.5t16.5 113.5t18.5 120t19 117.5t18.5 106.5t17 87 q4 21 0.5 32.5t-20.5 25.5z" />
<glyph unicode="J" horiz-adv-x="418" d="M92 -13q50 -18 82.5 -8t55.5 31q29 28 52 86.5t41.5 142.5t32.5 190.5t25 231.5q2 21 -1.5 31.5t-20.5 25.5q-17 14 -39 24.5t-39 17.5q-18 6 -27.5 1t-12.5 -28q-5 -50 -12 -116.5t-16 -137t-19.5 -138t-22.5 -121t-25 -85.5t-26 -31q-16 3 -19.5 24.5t-5.5 69.5 q-2 74 -74 116q-22 14 -32 -1t-15 -47q-5 -43 -4.5 -76.5t9.5 -65.5q11 -45 36 -82t77 -55z" />
<glyph unicode="K" horiz-adv-x="443" d="M220 292q13 -30 29 -63t31 -63.5t29 -56.5t25 -44q11 -17 9 -27.5t-16 -20.5q-8 -7 -20 -12t-23 -7q-17 -7 -35 -3t-36 33q-7 12 -19.5 33t-27.5 47t-30.5 55.5t-28.5 58.5q-9 -62 -16.5 -116.5t-14.5 -99.5q0 -15 -5 -21t-13.5 -5t-20.5 6.5t-27 11.5q-29 12 -42 30 t-10 55q2 34 7.5 85.5t13 112t16 125.5t17 126.5t17 115t15.5 90.5q5 22 14.5 27t26.5 -2q18 -6 39 -18.5t37 -26.5q17 -15 21 -25.5t-1 -31.5q-9 -41 -18.5 -95.5t-20.5 -120.5q26 39 55.5 82t56.5 85t50.5 78.5t37.5 61.5q9 17 18 17q11 0 23 -14q13 -14 22.5 -32 t17.5 -39q6 -17 5 -34t-11 -42q-13 -32 -35 -71t-49 -81t-56.5 -84.5t-56.5 -79.5z" />
<glyph unicode="L" horiz-adv-x="355" d="M255 41q20 6 22 13t-3 28q-3 17 -8.5 35t-13.5 35q-8 18 -18 23.5t-27 3.5q-30 -3 -56.5 -7t-55.5 -11q10 64 22 132t24 134t24 127t23 110q5 20 1.5 31.5t-19.5 25.5t-37 25.5t-39 17.5q-17 7 -26.5 2.5t-15.5 -26.5q-9 -41 -18.5 -91.5t-19 -106.5t-18.5 -114 t-16.5 -112.5t-13 -103t-8.5 -85.5q-3 -24 2.5 -41.5t16.5 -31.5q15 -18 24 -29.5t20 -22.5q9 -9 22 -15.5t42 5.5q40 12 84 24.5t86 24.5z" />
<glyph unicode="M" horiz-adv-x="616" d="M137 457q7 -88 17 -174t21 -155q3 -17 6 -28t7 -18t9 -11.5t12 -8.5q22 -11 46 -18q18 -5 22.5 1t11.5 27q10 34 26.5 83.5t36 104t39.5 110t37 100.5q-9 -52 -17 -109t-14.5 -110t-11 -98t-6.5 -74q-3 -25 2 -40t21 -26q12 -10 28 -17t32 -12q17 -6 23 2t10 26 q4 35 10.5 85t15 107.5t17.5 120t18.5 121.5t18 111.5t15.5 91.5q5 26 0 40.5t-23 25.5q-26 16 -53.5 27.5t-51.5 19.5q-20 8 -33 6.5t-23 -13.5t-19.5 -35t-22.5 -59q-13 -32 -27.5 -69.5t-28 -75.5t-26.5 -75t-23 -68q-9 87 -14.5 137.5t-8.5 77.5t-3.5 37t-0.5 17 q-2 15 -4 27t-6.5 22t-12.5 18t-22 15q-22 11 -43.5 19t-52.5 14q-20 4 -30 -3t-16 -33q-7 -37 -15.5 -89t-17 -111t-17.5 -121.5t-16 -121.5t-12 -111t-7 -89q-2 -26 3 -40t21 -26q13 -10 28.5 -17.5t30.5 -12.5q16 -5 22 0.5t9 23.5q4 42 10.5 95.5t15 112.5t18 121 t19.5 122z" />
<glyph unicode="N" horiz-adv-x="468" d="M258 314q-7 45 -14 93.5t-13.5 93t-11.5 82t-8 60.5q-4 30 -11.5 45.5t-25.5 25.5q-22 14 -42.5 23t-41.5 17q-17 6 -28 0t-16 -29q-8 -42 -17 -98t-17.5 -118.5t-17 -126t-15 -120.5t-11.5 -102.5t-7 -71.5q-3 -26 1.5 -40.5t18.5 -25.5q14 -14 30.5 -20.5t32.5 -12.5 q17 -7 23.5 -2.5t8.5 21.5q4 36 10.5 83t14 100t16 110.5t16.5 113.5q8 -47 17 -94t18 -91.5t18.5 -83.5t18.5 -69q12 -43 41 -60q16 -8 31.5 -14.5t31.5 -11.5q36 -12 39 26q9 69 20.5 154.5t23.5 172.5t24.5 168.5t23.5 142.5q4 21 1 35.5t-20 28.5q-21 17 -33 23t-30 12 t-27.5 0.5t-13.5 -27.5q-15 -85 -31.5 -191.5t-27.5 -221.5z" />
<glyph unicode="O" d="M340 704q-20 21 -50.5 35.5t-63.5 21.5q-25 5 -53.5 -5.5t-48.5 -31.5q-48 -53 -80 -131.5t-47.5 -164t-13.5 -169.5t23 -150q9 -28 26 -50t34 -36q22 -17 48.5 -25.5t51.5 -12.5q38 -6 67.5 4.5t55.5 41.5q37 51 61 121.5t36.5 147t13.5 152t-8 137.5q-6 35 -17.5 63 t-34.5 52zM247 625q12 -5 18 -35t6.5 -72t-3.5 -90t-12 -90q-9 -53 -22 -98t-27.5 -76.5t-30 -46.5t-28.5 -8q-15 7 -22 36t-8 69.5t3.5 87.5t13.5 89q9 41 23 85t29.5 78.5t31.5 55t28 15.5z" />
<glyph unicode="P" horiz-adv-x="472" d="M127 210q39 15 77.5 36t73.5 46.5t64.5 54.5t49.5 59q24 36 38.5 76.5t3.5 91.5t-29.5 86t-39.5 64q-26 33 -64.5 37t-81.5 -8.5t-86 -36.5t-77 -48q-6 -4 -11.5 -42.5t-11.5 -96.5t-12 -126.5t-12 -133t-12.5 -116t-13.5 -74.5q-5 -26 0.5 -42t17.5 -26.5t28.5 -17 t33.5 -13.5q17 -5 23 0t10 21q6 51 14 103t17 106zM156 382l19 104.5t19 94.5q22 13 43.5 19.5t38.5 7t28 -4.5t13 -15q5 -18 -3 -45t-28.5 -56t-53 -57t-76.5 -48z" />
<glyph unicode="Q" horiz-adv-x="462" d="M367 38q-10 15 -18 31t-19 33q25 52 40.5 115.5t23 129t6.5 128.5t-9 114q-6 35 -17 63t-34 52q-20 21 -50.5 35.5t-63.5 21.5q-25 5 -53.5 -5.5t-48.5 -31.5q-48 -53 -80 -131.5t-47.5 -164t-13.5 -169.5t23 -150q9 -28 26 -50t34 -36q22 -17 48 -26t52 -12q24 -2 46 0 t41 15q3 -3 5.5 -6t6.5 -8q22 -28 52 -20q12 4 24 10t23 16q13 9 13.5 19t-10.5 27zM177 118q-15 -17 -29 -9q-11 6 -18 24t-10 44t-2.5 58t3.5 67q8 67 24.5 132.5t41.5 119.5q12 27 24 45t22.5 24t19 -1.5t12.5 -31.5q4 -21 5.5 -51.5t0 -65t-5.5 -69.5t-10 -66 q-5 -35 -12 -66t-17 -57q-18 -5 -32.5 -11t-25.5 -14q-23 -17 -7 -44q4 -7 7.5 -14t8.5 -14z" />
<glyph unicode="R" horiz-adv-x="485" d="M124 228q17 -30 37.5 -60.5t41.5 -58.5t41 -52t35 -40q23 -21 41 -23.5t32 3.5q12 3 20.5 5.5t19.5 16.5q10 11 11 21t-13 27q-17 20 -36 46t-38.5 53.5t-37.5 55.5t-33 52q70 45 119 96.5t68 111.5q13 35 2 92q-11 51 -29.5 86t-39.5 64q-26 33 -60.5 40.5t-72.5 -1.5 t-77.5 -29.5t-75.5 -42.5q-11 -7 -21 -47.5t-20 -99.5t-18.5 -128.5t-15.5 -135t-12.5 -119.5t-8.5 -82q-2 -26 2 -41.5t16 -26.5q12 -10 26 -14t31 -11q16 -5 22 0t9 21q8 54 16.5 108.5t18.5 112.5zM194 584q23 15 44 21t38 6q35 0 43 -23q4 -14 -5.5 -40t-31 -55 t-54.5 -58t-75 -49q12 57 21.5 106.5t19.5 91.5z" />
<glyph unicode="S" horiz-adv-x="401" d="M-48 195q-13 -10 -13 -28q0 -17 27 -54q51 -75 101 -105t104 -28q40 1 68.5 15t47.5 34.5t30.5 44t17.5 44.5q14 42 -1.5 76t-45 65t-66 62t-63.5 67q-21 27 -20 62t13 68.5t30.5 60.5t33.5 38q16 16 19.5 5t1 -35.5t-8 -55t-6.5 -51.5q-6 -72 80 -114q15 -8 23 -3.5 t14 22.5q6 19 11.5 45t10 53.5t8 54.5t4.5 49q-1 25 -5.5 54t-29.5 58q-18 22 -45 40t-53 30q-17 7 -33 8t-29.5 -2t-24.5 -9.5t-18 -13.5q-21 -17 -42 -42.5t-39 -55t-31.5 -61t-19.5 -59.5q-18 -69 -3 -126.5t49 -96.5q23 -28 54 -56t56.5 -52.5t39.5 -43.5t3 -30 q-18 -21 -58.5 -6.5t-94.5 63.5q-19 18 -46.5 20.5t-50.5 -11.5z" />
<glyph unicode="T" horiz-adv-x="443" d="M405 634q18 2 21 8.5t-1 25.5q-5 20 -13.5 41t-20.5 39q-6 10 -14.5 14.5t-25.5 4.5q-34 -2 -77.5 -6t-88.5 -10t-88.5 -14t-77.5 -17q-11 -4 -15 -10t2 -24q6 -17 15.5 -43t21.5 -43q11 -17 20.5 -20.5t24.5 1.5q11 4 27.5 7t33.5 7q-10 -57 -20.5 -127t-19.5 -140 t-16 -135t-10 -111q-6 -38 10 -56t44 -30q14 -6 25.5 -11t20 -6t13.5 4t6 19q9 71 20.5 150t24.5 159.5t26 159t25 149.5q29 4 56.5 7.5t50.5 6.5z" />
<glyph unicode="U" horiz-adv-x="451" d="M0 102q10 -28 24 -47t30 -33q38 -32 98 -38q30 -3 53.5 3.5t46.5 23.5q32 28 56.5 87t44 142.5t34.5 188.5t29 227q3 21 0 32t-20 25q-16 12 -35 24.5t-36 18.5t-28.5 1t-12.5 -27q-6 -50 -14.5 -117.5t-19.5 -138.5t-24 -139.5t-27.5 -120.5t-31 -81.5t-34.5 -22.5 q-14 6 -19 34.5t-3 71t9 95.5t17 107.5t21.5 107.5t21.5 96q11 48 -21 80q-15 14 -31 25t-33 18q-18 8 -27.5 3.5t-14.5 -26.5q-18 -77 -35.5 -164.5t-27.5 -172t-9.5 -159t19.5 -124.5z" />
<glyph unicode="V" horiz-adv-x="466" d="M440 647q10 35 -3 55.5t-37 37.5q-11 9 -22 16t-20.5 8.5t-17 -3.5t-11.5 -19q-35 -125 -73 -263t-80 -270q-6 67 -11 132.5t-9.5 125.5t-8 111.5t-6.5 91.5q-5 51 -42 69q-16 8 -30 11.5t-31 3.5t-21 -8.5t-4 -29.5q6 -166 17.5 -317.5t29.5 -279.5q4 -23 16 -51.5 t36 -45.5q22 -16 42 -26t43 -20t35.5 -3.5t22.5 31.5q14 41 31 94.5t35.5 113t36.5 121.5t34 120t28.5 108t19.5 86z" />
<glyph unicode="W" horiz-adv-x="641" d="M118 254q2 54 5 112.5t6.5 111.5t6.5 95t4 63q2 22 -1.5 46.5t-20.5 38.5q-15 12 -32 18.5t-38 12.5q-18 5 -25 -2t-9 -31q-3 -45 -5.5 -100t-4 -114t-2.5 -119.5t-1 -118.5q0 -57 1.5 -108.5t3.5 -91.5q1 -28 7 -41.5t22 -21.5q35 -17 75 -28q15 -4 24.5 -0.5t17.5 24.5 q8 25 20.5 62.5t27.5 80.5t31 88.5t31 86.5q0 -32 2 -67t4.5 -68.5t5 -63t4.5 -49.5q2 -21 10 -38.5t27 -27.5q19 -7 32 -13t37 -13q22 -6 33.5 -0.5t17.5 24.5q11 41 25.5 93t30.5 109.5t33.5 117.5t34.5 116.5t32.5 107.5t28.5 89q6 20 5 40.5t-15 37.5q-26 25 -54 42 q-19 10 -27.5 7.5t-16.5 -26.5q-9 -27 -26 -79.5t-37 -118t-42 -138t-41 -138.5q2 53 4 107.5t4 101.5t3.5 82t1.5 49q0 25 -3 36t-20 21q-16 8 -27.5 14t-28.5 11t-25.5 0t-15.5 -22q-10 -21 -26.5 -66.5t-36 -103t-40 -120.5t-38.5 -118z" />
<glyph unicode="X" horiz-adv-x="472" d="M201 545q36 65 66.5 119t53.5 90q11 17 23 17t26 -11q14 -14 27.5 -34t22.5 -37q11 -21 9 -39.5t-12 -35.5q-30 -51 -70.5 -120t-85.5 -146q28 -91 53.5 -174t46.5 -149q8 -19 5 -28.5t-18 -12.5q-33 -4 -70 0q-18 3 -28 13.5t-21 34.5q-8 17 -23.5 63t-36.5 111 q-35 -62 -65 -119.5t-53 -98.5q-17 -30 -43 -5q-13 12 -25.5 29t-23.5 34t-11 31t10 36q25 54 64.5 130.5t85.5 156.5q-14 44 -27.5 87.5t-25.5 83t-22 73.5t-17 59q-6 25 -2 34t21 12q8 1 17 1h17t17.5 -0.5t19.5 -1.5q20 -3 31 -17t19 -36q9 -32 20.5 -70t24.5 -80z" />
<glyph unicode="Y" horiz-adv-x="434" d="M404 644q8 25 7 39t-12 31q-10 12 -23.5 26t-27 23t-25 8t-16.5 -20q-29 -72 -60 -145.5t-63 -145.5q-16 72 -30.5 135t-27.5 111q-8 25 -16 37t-25 17t-34 4t-34 -3q-16 -3 -19 -10.5t2 -28.5q9 -44 20.5 -97.5t24.5 -110.5t26 -114.5t25 -111.5q-8 -63 -13.5 -117.5 t-10.5 -96.5q-2 -26 2.5 -39.5t18.5 -27.5q14 -9 31.5 -17.5t33.5 -15.5q17 -6 23 -1.5t10 24.5q7 54 15 110.5t19 119.5q27 57 55 118t52.5 117t43.5 103.5t28 78.5z" />
<glyph unicode="Z" horiz-adv-x="375" d="M198 601q-35 -60 -71.5 -128.5t-69.5 -134.5t-60.5 -124.5t-43.5 -97.5q-10 -23 -2.5 -41t16.5 -32q14 -18 24 -30t21 -24q11 -11 24 -16.5t40 4.5q40 14 87.5 26.5t89.5 24.5q17 3 22 11t0 28q-3 17 -9 34.5t-14 36.5q-14 32 -49 26q-26 -5 -50 -10.5t-48 -13.5 q61 115 125.5 232t124.5 223q11 19 11.5 35.5t-4.5 34.5q-4 14 -8 30t-12 37q-7 17 -15.5 24t-25.5 6q-32 -2 -67.5 -5.5t-71 -8.5t-68.5 -12t-60 -15q-11 -5 -14.5 -11.5t1.5 -24.5q6 -18 16 -42t16 -38q11 -18 24.5 -23t29.5 -1q21 6 43 10t48 10z" />
<glyph unicode="[" horiz-adv-x="304" d="M209 35q5 -19 0.5 -27t-21.5 -8q-20 -5 -45 -11t-48 -12q-19 -5 -32 -0.5t-24 15.5q-10 9 -18.5 20t-18.5 22q-9 15 -13.5 32t-1.5 46q6 62 16 141t22.5 161t26.5 161t27 141q6 31 35 36q27 5 55.5 7t52.5 3q16 1 25.5 -8t16.5 -26q8 -18 12.5 -33t8.5 -33q5 -19 0 -26 t-21 -10q-17 -2 -37 -5t-40 -5q-11 -53 -23 -115.5t-23 -127t-21 -128.5t-18 -121q11 1 21.5 2t21.5 2q30 5 44 -27q8 -17 11.5 -33t8.5 -33z" />
<glyph unicode="\" horiz-adv-x="358" d="M106 768q-18 5 -34 6t-33 0q-35 -2 -27 -43q6 -39 17.5 -97.5t25.5 -126t30 -139t31.5 -137.5t29.5 -120.5t24 -88.5q8 -24 16 -36.5t24 -14.5q25 -6 55 -1q17 2 21 10t-1 25q-10 43 -22.5 102.5t-26.5 126t-28 136.5t-26.5 135t-22.5 121t-16 95q-5 23 -11.5 32.5 t-25.5 14.5z" />
<glyph unicode="]" horiz-adv-x="318" d="M261 631q3 18 1.5 30.5t-12.5 29.5q-8 14 -16 25.5t-16 22.5q-10 14 -19.5 19t-26.5 3q-33 -3 -62.5 -7t-52.5 -10q-15 -3 -19 -13.5t-2 -25.5t8.5 -32t13.5 -33q7 -18 16 -23.5t27 -3.5q8 1 16 2.5t16 2.5q-10 -54 -21 -117t-22 -128.5t-21 -129.5t-17 -118 q-19 -4 -39.5 -10t-35.5 -11q-29 -11 -14 -43q7 -17 13.5 -32.5t13.5 -27.5q8 -12 17 -17.5t27 -1.5q21 5 43.5 9t45.5 9q22 1 28.5 10.5t8.5 23.5q9 61 21 140t25.5 160.5t27.5 159.5t27 137z" />
<glyph unicode="^" horiz-adv-x="447" d="M328 353q14 -1 18.5 5.5t0.5 23.5q-6 28 -13.5 64.5t-15.5 76.5t-15 81t-12 79q-3 24 -7.5 34.5t-14.5 24.5q-10 11 -21.5 21t-23.5 21q-11 8 -20.5 7.5t-21.5 -17.5q-23 -29 -47 -64t-45.5 -70t-39.5 -67t-30 -56q-14 -26 1 -54q9 -17 17 -29t18 -24q10 -13 17 -13 q9 0 16 13q23 38 51 83t60 91q11 -54 21 -102t19 -80q11 -32 35 -40q15 -5 28 -6.5t25 -2.5z" />
<glyph unicode="_" horiz-adv-x="430" d="M2 -220q-14 0 -20 7.5t-2 25.5l4 28t6 29q4 18 11.5 25t22.5 7h446q13 1 19 -3.5t7 -13.5t-1.5 -20.5t-4.5 -22.5t-4 -22.5t-6.5 -21t-11.5 -15t-19 -3.5h-447z" />
<glyph unicode="`" horiz-adv-x="395" d="M87 972q16 -14 39 -31t49.5 -34t55 -33.5t55.5 -28.5q22 -12 57 14q0 -1 3.5 3t6 11t1.5 15.5t-11 16.5q-46 27 -93.5 59t-83.5 68q-10 10 -23 9.5t-33 -14.5q-11 -7 -16 -20.5t-7 -34.5z" />
<glyph unicode="a" horiz-adv-x="479" d="M275 186q2 -39 5 -73t6 -63q3 -28 9.5 -39t22.5 -18q16 -8 31 -9.5t32 -1.5t22 7t4 25q-4 84 -7.5 176.5t-6 181.5t-3 168.5t0.5 136.5q1 23 -4.5 37.5t-24.5 22.5q-26 10 -55 20t-76 13q-27 3 -41 -10t-23 -34q-25 -60 -55 -141.5t-59 -168t-55.5 -170t-44.5 -149.5 q-6 -29 -5 -41t8 -22t17 -18t20.5 -14.5t18.5 -11.5q15 -8 22.5 -5t13.5 20q10 32 20.5 65.5t24.5 71.5q37 14 85.5 24t96.5 20zM152 316q29 84 57.5 160t51.5 136q0 -66 2 -136t4 -142q-58 -6 -115 -18z" />
<glyph unicode="b" d="M313 364q20 16 35.5 32t29.5 32q26 32 42 74t8 90q-8 43 -23.5 74.5t-36.5 59.5q-24 30 -66.5 38.5t-90.5 2t-95.5 -25.5t-81.5 -43q-3 -62 -10.5 -134.5t-15.5 -146t-16 -144t-12 -128.5q-2 -18 -1.5 -30t3.5 -21.5t8.5 -18t12.5 -20.5q19 -23 33.5 -37.5t34.5 -27.5 q10 -9 18 -13.5t16.5 -5.5t17.5 1.5t22 7.5q24 9 50.5 22.5t52.5 30.5t49 37.5t40 43.5q23 29 33.5 59.5t5.5 72.5q-5 35 -21.5 67.5t-41.5 50.5zM149 427q8 45 15 85t15 75q51 32 87 33.5t41 -19.5q3 -13 -6.5 -35t-30.5 -47t-51.5 -49.5t-69.5 -42.5zM123 278q25 12 46 16 t37 1.5t25.5 -9.5t12.5 -17q3 -16 -6.5 -35t-28.5 -38.5t-47 -37t-62 -30.5q5 38 11 75t12 75z" />
<glyph unicode="c" horiz-adv-x="428" d="M311 206q-61 25 -99 -32q-52 -82 -79 -68q-14 6 -20.5 32t-7.5 64.5t3.5 84.5t13.5 91q9 42 24 89t32 86t33 63t28 19q12 -6 14.5 -27.5t2.5 -47.5q0 -8 0.5 -16t1.5 -16q6 -42 24 -66.5t58 -35.5q21 -6 26 2.5t9 22.5q6 30 8 74t0 81q-2 32 -10.5 57t-32.5 50 q-23 20 -57.5 37.5t-67.5 21.5q-22 2 -47 -6t-50 -36q-31 -36 -57 -85.5t-45 -107t-31 -119t-15.5 -121t1.5 -112.5t20 -94q9 -28 26.5 -49t34.5 -32q20 -10 45.5 -21.5t56.5 -15.5q30 -4 60.5 7.5t49.5 30.5q18 20 36 50t29 65q10 30 8.5 50t-26.5 30z" />
<glyph unicode="d" horiz-adv-x="489" d="M34 706l-56 -551q-3 -24 -2 -39.5t4.5 -26.5t9.5 -19.5t12 -17.5q17 -20 30.5 -33.5t32.5 -27.5q36 -29 71 -9q66 28 117 73t86.5 100t57 116t28.5 121.5t1 117t-25 101.5q-21 53 -50 85t-62.5 48t-69 18.5t-69 -4.5t-64 -21.5t-52.5 -30.5zM103 138q17 121 35.5 235 t40.5 223q38 17 65.5 3.5t38.5 -41.5q5 -14 8 -34t2 -46q-1 -38 -12 -84t-33.5 -92t-58 -89t-86.5 -75z" />
<glyph unicode="e" horiz-adv-x="385" d="M45 710l-76 -578q-2 -26 3.5 -45t16.5 -33q13 -18 23 -29.5t21 -22.5q10 -10 23.5 -15.5t40.5 4.5q40 11 84 24t86 25q17 5 20.5 12.5t-0.5 27.5q-5 18 -10 35t-13 36q-7 17 -17.5 23t-27.5 4q-32 -3 -60 -7.5t-58 -12.5q5 26 10 53.5t10 56.5q37 11 76.5 20.5t77.5 19.5 q17 5 21 12t-1 28q-4 18 -8.5 35t-12.5 35q-7 17 -17 22.5t-27 4.5q-20 -1 -38.5 -2.5t-37.5 -5.5q10 45 18 86t16 78q42 8 80.5 14t73.5 11q17 3 21.5 10.5t1.5 28.5q-4 18 -7.5 33t-11.5 34q-10 36 -43 34q-70 -4 -138.5 -21t-119.5 -35z" />
<glyph unicode="f" horiz-adv-x="380" d="M341 626q17 3 21 10t1 28q-5 34 -21 69q-11 21 -20 27.5t-26 5.5q-35 -2 -70.5 -6t-70 -9.5t-65.5 -13t-56 -16.5q1 -39 -3 -93.5t-11 -116.5t-16 -126t-17 -122t-14 -105t-8 -74q-1 -26 2 -40t19 -26q13 -8 29.5 -17t31.5 -13t26 0t12 22q8 54 18.5 121.5t23.5 139.5 q35 11 72.5 21t72.5 18q17 3 21.5 11t-0.5 28q-4 17 -8.5 34.5t-12.5 35.5q-14 30 -44 27q-19 -1 -37 -3t-36 -5q10 46 16.5 87.5t14.5 74.5q42 8 81 14t74 12z" />
<glyph unicode="g" horiz-adv-x="442" d="M379 448q2 14 3.5 34t2 41.5t0 43.5t-2.5 39q-4 32 -13.5 57.5t-29.5 46.5q-21 23 -52.5 38.5t-61.5 20.5q-21 4 -47 0t-47 -25q-34 -33 -62 -81t-49 -104.5t-34.5 -117.5t-18.5 -121t-0.5 -114.5t19.5 -97.5q8 -28 24 -51.5t33 -37.5q46 -32 99 -42q59 -14 107 27 q36 33 66 93t51 145q5 25 4 41t-12 37q-6 11 -13 24t-15 24q-11 17 -24.5 22t-34.5 1q-18 -4 -43 -8.5t-48 -11.5q-24 -5 -39 -11t-10 -29q11 -51 32 -73.5t59 -19.5q-10 -31 -21.5 -58.5t-24 -46.5t-25 -28t-24.5 -3q-14 7 -21 35.5t-8 69t4.5 87.5t16.5 90q12 52 28.5 99 t33.5 81.5t33.5 53.5t28.5 14q6 -2 8.5 -13t4.5 -26q1 -8 1.5 -16.5t0.5 -17.5t0.5 -17t1.5 -16q4 -43 24.5 -70t63.5 -35q16 -2 21.5 4t9.5 23z" />
<glyph unicode="h" horiz-adv-x="452" d="M428 664q4 20 0.5 31.5t-19.5 25.5q-17 14 -35.5 25.5t-35.5 17.5q-18 7 -27.5 3.5t-14.5 -28.5q-12 -66 -25 -152t-27 -177q-23 -2 -48.5 -5t-51.5 -7q13 75 24 140t21 111q4 21 0.5 32.5t-20.5 25.5q-16 14 -37 26t-39 19q-17 8 -26 4t-14 -29q-9 -67 -19 -151.5 t-20.5 -172t-21.5 -171t-23 -149.5q-5 -26 1 -40.5t21 -25.5q12 -11 29.5 -18t33.5 -14q17 -6 23 -1t9 22q7 48 14.5 107t18.5 125q26 6 52.5 11t52.5 11q-7 -54 -12 -99.5t-7 -80.5q-6 -36 9.5 -53.5t42.5 -29.5q13 -5 25 -9.5t20.5 -5.5t13.5 4t5 19q11 81 24.5 171 t28 178t28.5 168t26 142z" />
<glyph unicode="i" horiz-adv-x="208" d="M160 707q-16 14 -37 26.5t-39 18.5q-18 7 -27 2t-14 -27q-7 -37 -15.5 -90t-17 -113t-16.5 -124t-15 -123t-12 -109.5t-7 -84.5q-2 -26 2.5 -40.5t19.5 -25.5q14 -11 30 -18t33 -14q17 -6 23 -1t9 22q6 44 13.5 98.5t16.5 113.5t18.5 120t19 117.5t18.5 106.5t17 87 q4 21 0.5 32.5t-20.5 25.5z" />
<glyph unicode="j" horiz-adv-x="418" d="M92 -13q50 -18 82.5 -8t55.5 31q29 28 52 86.5t41.5 142.5t32.5 190.5t25 231.5q2 21 -1.5 31.5t-20.5 25.5q-17 14 -39 24.5t-39 17.5q-18 6 -27.5 1t-12.5 -28q-5 -50 -12 -116.5t-16 -137t-19.5 -138t-22.5 -121t-25 -85.5t-26 -31q-16 3 -19.5 24.5t-5.5 69.5 q-2 74 -74 116q-22 14 -32 -1t-15 -47q-5 -43 -4.5 -76.5t9.5 -65.5q11 -45 36 -82t77 -55z" />
<glyph unicode="k" horiz-adv-x="443" d="M220 292q13 -30 29 -63t31 -63.5t29 -56.5t25 -44q11 -17 9 -27.5t-16 -20.5q-8 -7 -20 -12t-23 -7q-17 -7 -35 -3t-36 33q-7 12 -19.5 33t-27.5 47t-30.5 55.5t-28.5 58.5q-9 -62 -16.5 -116.5t-14.5 -99.5q0 -15 -5 -21t-13.5 -5t-20.5 6.5t-27 11.5q-29 12 -42 30 t-10 55q2 34 7.5 85.5t13 112t16 125.5t17 126.5t17 115t15.5 90.5q5 22 14.5 27t26.5 -2q18 -6 39 -18.5t37 -26.5q17 -15 21 -25.5t-1 -31.5q-9 -41 -18.5 -95.5t-20.5 -120.5q26 39 55.5 82t56.5 85t50.5 78.5t37.5 61.5q9 17 18 17q11 0 23 -14q13 -14 22.5 -32 t17.5 -39q6 -17 5 -34t-11 -42q-13 -32 -35 -71t-49 -81t-56.5 -84.5t-56.5 -79.5z" />
<glyph unicode="l" horiz-adv-x="355" d="M255 41q20 6 22 13t-3 28q-3 17 -8.5 35t-13.5 35q-8 18 -18 23.5t-27 3.5q-30 -3 -56.5 -7t-55.5 -11q10 64 22 132t24 134t24 127t23 110q5 20 1.5 31.5t-19.5 25.5t-37 25.5t-39 17.5q-17 7 -26.5 2.5t-15.5 -26.5q-9 -41 -18.5 -91.5t-19 -106.5t-18.5 -114 t-16.5 -112.5t-13 -103t-8.5 -85.5q-3 -24 2.5 -41.5t16.5 -31.5q15 -18 24 -29.5t20 -22.5q9 -9 22 -15.5t42 5.5q40 12 84 24.5t86 24.5z" />
<glyph unicode="m" horiz-adv-x="616" d="M137 457q7 -88 17 -174t21 -155q3 -17 6 -28t7 -18t9 -11.5t12 -8.5q22 -11 46 -18q18 -5 22.5 1t11.5 27q10 34 26.5 83.5t36 104t39.5 110t37 100.5q-9 -52 -17 -109t-14.5 -110t-11 -98t-6.5 -74q-3 -25 2 -40t21 -26q12 -10 28 -17t32 -12q17 -6 23 2t10 26 q4 35 10.5 85t15 107.5t17.5 120t18.5 121.5t18 111.5t15.5 91.5q5 26 0 40.5t-23 25.5q-26 16 -53.5 27.5t-51.5 19.5q-20 8 -33 6.5t-23 -13.5t-19.5 -35t-22.5 -59q-13 -32 -27.5 -69.5t-28 -75.5t-26.5 -75t-23 -68q-9 87 -14.5 137.5t-8.5 77.5t-3.5 37t-0.5 17 q-2 15 -4 27t-6.5 22t-12.5 18t-22 15q-22 11 -43.5 19t-52.5 14q-20 4 -30 -3t-16 -33q-7 -37 -15.5 -89t-17 -111t-17.5 -121.5t-16 -121.5t-12 -111t-7 -89q-2 -26 3 -40t21 -26q13 -10 28.5 -17.5t30.5 -12.5q16 -5 22 0.5t9 23.5q4 42 10.5 95.5t15 112.5t18 121 t19.5 122z" />
<glyph unicode="n" horiz-adv-x="468" d="M258 314q-7 45 -14 93.5t-13.5 93t-11.5 82t-8 60.5q-4 30 -11.5 45.5t-25.5 25.5q-22 14 -42.5 23t-41.5 17q-17 6 -28 0t-16 -29q-8 -42 -17 -98t-17.5 -118.5t-17 -126t-15 -120.5t-11.5 -102.5t-7 -71.5q-3 -26 1.5 -40.5t18.5 -25.5q14 -14 30.5 -20.5t32.5 -12.5 q17 -7 23.5 -2.5t8.5 21.5q4 36 10.5 83t14 100t16 110.5t16.5 113.5q8 -47 17 -94t18 -91.5t18.5 -83.5t18.5 -69q12 -43 41 -60q16 -8 31.5 -14.5t31.5 -11.5q36 -12 39 26q9 69 20.5 154.5t23.5 172.5t24.5 168.5t23.5 142.5q4 21 1 35.5t-20 28.5q-21 17 -33 23t-30 12 t-27.5 0.5t-13.5 -27.5q-15 -85 -31.5 -191.5t-27.5 -221.5z" />
<glyph unicode="o" d="M340 704q-20 21 -50.5 35.5t-63.5 21.5q-25 5 -53.5 -5.5t-48.5 -31.5q-48 -53 -80 -131.5t-47.5 -164t-13.5 -169.5t23 -150q9 -28 26 -50t34 -36q22 -17 48.5 -25.5t51.5 -12.5q38 -6 67.5 4.5t55.5 41.5q37 51 61 121.5t36.5 147t13.5 152t-8 137.5q-6 35 -17.5 63 t-34.5 52zM247 625q12 -5 18 -35t6.5 -72t-3.5 -90t-12 -90q-9 -53 -22 -98t-27.5 -76.5t-30 -46.5t-28.5 -8q-15 7 -22 36t-8 69.5t3.5 87.5t13.5 89q9 41 23 85t29.5 78.5t31.5 55t28 15.5z" />
<glyph unicode="p" horiz-adv-x="472" d="M127 210q39 15 77.5 36t73.5 46.5t64.5 54.5t49.5 59q24 36 38.5 76.5t3.5 91.5t-29.5 86t-39.5 64q-26 33 -64.5 37t-81.5 -8.5t-86 -36.5t-77 -48q-6 -4 -11.5 -42.5t-11.5 -96.5t-12 -126.5t-12 -133t-12.5 -116t-13.5 -74.5q-5 -26 0.5 -42t17.5 -26.5t28.5 -17 t33.5 -13.5q17 -5 23 0t10 21q6 51 14 103t17 106zM156 382l19 104.5t19 94.5q22 13 43.5 19.5t38.5 7t28 -4.5t13 -15q5 -18 -3 -45t-28.5 -56t-53 -57t-76.5 -48z" />
<glyph unicode="q" horiz-adv-x="462" d="M367 38q-10 15 -18 31t-19 33q25 52 40.5 115.5t23 129t6.5 128.5t-9 114q-6 35 -17 63t-34 52q-20 21 -50.5 35.5t-63.5 21.5q-25 5 -53.5 -5.5t-48.5 -31.5q-48 -53 -80 -131.5t-47.5 -164t-13.5 -169.5t23 -150q9 -28 26 -50t34 -36q22 -17 48 -26t52 -12q24 -2 46 0 t41 15q3 -3 5.5 -6t6.5 -8q22 -28 52 -20q12 4 24 10t23 16q13 9 13.5 19t-10.5 27zM177 118q-15 -17 -29 -9q-11 6 -18 24t-10 44t-2.5 58t3.5 67q8 67 24.5 132.5t41.5 119.5q12 27 24 45t22.5 24t19 -1.5t12.5 -31.5q4 -21 5.5 -51.5t0 -65t-5.5 -69.5t-10 -66 q-5 -35 -12 -66t-17 -57q-18 -5 -32.5 -11t-25.5 -14q-23 -17 -7 -44q4 -7 7.5 -14t8.5 -14z" />
<glyph unicode="r" horiz-adv-x="485" d="M124 228q17 -30 37.5 -60.5t41.5 -58.5t41 -52t35 -40q23 -21 41 -23.5t32 3.5q12 3 20.5 5.5t19.5 16.5q10 11 11 21t-13 27q-17 20 -36 46t-38.5 53.5t-37.5 55.5t-33 52q70 45 119 96.5t68 111.5q13 35 2 92q-11 51 -29.5 86t-39.5 64q-26 33 -60.5 40.5t-72.5 -1.5 t-77.5 -29.5t-75.5 -42.5q-11 -7 -21 -47.5t-20 -99.5t-18.5 -128.5t-15.5 -135t-12.5 -119.5t-8.5 -82q-2 -26 2 -41.5t16 -26.5q12 -10 26 -14t31 -11q16 -5 22 0t9 21q8 54 16.5 108.5t18.5 112.5zM194 584q23 15 44 21t38 6q35 0 43 -23q4 -14 -5.5 -40t-31 -55 t-54.5 -58t-75 -49q12 57 21.5 106.5t19.5 91.5z" />
<glyph unicode="s" horiz-adv-x="401" d="M-48 198q-13 -10 -13 -28t28 -55q51 -75 101.5 -106t104.5 -29q40 1 68.5 15t47.5 35t30.5 45t17.5 45q14 43 -1.5 77.5t-45 66t-66 63t-64.5 68.5q-21 28 -20 63.5t13 69.5t31 61.5t34 38.5q11 11 16 9t6 -12.5t-1 -27.5t-5 -36t-6 -38.5t-4 -34.5q-6 -73 80 -115 q16 -9 23.5 -4t14.5 22q6 19 11.5 45.5t10 55t8 56.5t4.5 49q-1 25 -5.5 55t-29.5 59q-19 22 -46 40.5t-53 30.5q-17 7 -33 8t-30 -2t-25 -9.5t-18 -13.5q-21 -17 -42.5 -43t-39.5 -56t-31.5 -61.5t-19.5 -61.5q-18 -69 -3 -127.5t49 -98.5q24 -29 55 -57t57 -53t39.5 -44.5 t2.5 -30.5q-18 -22 -59 -7.5t-95 65.5q-19 18 -46.5 20.5t-50.5 -12.5z" />
<glyph unicode="t" horiz-adv-x="443" d="M405 634q18 2 21 8.5t-1 25.5q-5 20 -13.5 41t-20.5 39q-6 10 -14.5 14.5t-25.5 4.5q-34 -2 -77.5 -6t-88.5 -10t-88.5 -14t-77.5 -17q-11 -4 -15 -10t2 -24q6 -17 15.5 -43t21.5 -43q11 -17 20.5 -20.5t24.5 1.5q11 4 27.5 7t33.5 7q-10 -57 -20.5 -127t-19.5 -140 t-16 -135t-10 -111q-6 -38 10 -56t44 -30q14 -6 25.5 -11t20 -6t13.5 4t6 19q9 71 20.5 150t24.5 159.5t26 159t25 149.5q29 4 56.5 7.5t50.5 6.5z" />
<glyph unicode="u" horiz-adv-x="451" d="M0 102q10 -28 24 -47t30 -33q38 -32 98 -38q30 -3 53.5 3.5t46.5 23.5q32 28 56.5 87t44 142.5t34.5 188.5t29 227q3 21 0 32t-20 25q-16 12 -35 24.5t-36 18.5t-28.5 1t-12.5 -27q-6 -50 -14.5 -117.5t-19.5 -138.5t-24 -139.5t-27.5 -120.5t-31 -81.5t-34.5 -22.5 q-14 6 -19 34.5t-3 71t9 95.5t17 107.5t21.5 107.5t21.5 96q11 48 -21 80q-15 14 -31 25t-33 18q-18 8 -27.5 3.5t-14.5 -26.5q-18 -77 -35.5 -164.5t-27.5 -172t-9.5 -159t19.5 -124.5z" />
<glyph unicode="v" horiz-adv-x="466" d="M440 647q10 35 -3 55.5t-37 37.5q-11 9 -22 16t-20.5 8.5t-17 -3.5t-11.5 -19q-35 -125 -73 -263t-80 -270q-6 67 -11 132.5t-9.5 125.5t-8 111.5t-6.5 91.5q-5 51 -42 69q-16 8 -30 11.5t-31 3.5t-21 -8.5t-4 -29.5q6 -166 17.5 -317.5t29.5 -279.5q4 -23 16 -51.5 t36 -45.5q22 -16 42 -26t43 -20t35.5 -3.5t22.5 31.5q14 41 31 94.5t35.5 113t36.5 121.5t34 120t28.5 108t19.5 86z" />
<glyph unicode="w" horiz-adv-x="641" d="M118 254q2 54 5 112.5t6.5 111.5t6.5 95t4 63q2 22 -1.5 46.5t-20.5 38.5q-15 12 -32 18.5t-38 12.5q-18 5 -25 -2t-9 -31q-3 -45 -5.5 -100t-4 -114t-2.5 -119.5t-1 -118.5q0 -57 1.5 -108.5t3.5 -91.5q1 -28 7 -41.5t22 -21.5q35 -17 75 -28q15 -4 24.5 -0.5t17.5 24.5 q8 25 20.5 62.5t27.5 80.5t31 88.5t31 86.5q0 -32 2 -67t4.5 -68.5t5 -63t4.5 -49.5q2 -21 10 -38.5t27 -27.5q19 -7 32 -13t37 -13q22 -6 33.5 -0.5t17.5 24.5q11 41 25.5 93t30.5 109.5t33.5 117.5t34.5 116.5t32.5 107.5t28.5 89q6 20 5 40.5t-15 37.5q-26 25 -54 42 q-19 10 -27.5 7.5t-16.5 -26.5q-9 -27 -26 -79.5t-37 -118t-42 -138t-41 -138.5q2 53 4 107.5t4 101.5t3.5 82t1.5 49q0 25 -3 36t-20 21q-16 8 -27.5 14t-28.5 11t-25.5 0t-15.5 -22q-10 -21 -26.5 -66.5t-36 -103t-40 -120.5t-38.5 -118z" />
<glyph unicode="x" horiz-adv-x="472" d="M201 545q36 65 66.5 119t53.5 90q11 17 23 17t26 -11q14 -14 27.5 -34t22.5 -37q11 -21 9 -39.5t-12 -35.5q-30 -51 -70.5 -120t-85.5 -146q28 -91 53.5 -174t46.5 -149q8 -19 5 -28.5t-18 -12.5q-33 -4 -70 0q-18 3 -28 13.5t-21 34.5q-8 17 -23.5 63t-36.5 111 q-35 -62 -65 -119.5t-53 -98.5q-17 -30 -43 -5q-13 12 -25.5 29t-23.5 34t-11 31t10 36q25 54 64.5 130.5t85.5 156.5q-14 44 -27.5 87.5t-25.5 83t-22 73.5t-17 59q-6 25 -2 34t21 12q8 1 17 1h17t17.5 -0.5t19.5 -1.5q20 -3 31 -17t19 -36q9 -32 20.5 -70t24.5 -80z" />
<glyph unicode="y" horiz-adv-x="434" d="M404 644q8 25 7 39t-12 31q-10 12 -23.5 26t-27 23t-25 8t-16.5 -20q-29 -72 -60 -145.5t-63 -145.5q-16 72 -30.5 135t-27.5 111q-8 25 -16 37t-25 17t-34 4t-34 -3q-16 -3 -19 -10.5t2 -28.5q9 -44 20.5 -97.5t24.5 -110.5t26 -114.5t25 -111.5q-8 -63 -13.5 -117.5 t-10.5 -96.5q-2 -26 2.5 -39.5t18.5 -27.5q14 -9 31.5 -17.5t33.5 -15.5q17 -6 23 -1.5t10 24.5q7 54 15 110.5t19 119.5q27 57 55 118t52.5 117t43.5 103.5t28 78.5z" />
<glyph unicode="z" horiz-adv-x="375" d="M198 601q-35 -60 -71.5 -128.5t-69.5 -134.5t-60.5 -124.5t-43.5 -97.5q-10 -23 -2.5 -41t16.5 -32q14 -18 24 -30t21 -24q11 -11 24 -16.5t40 4.5q40 14 87.5 26.5t89.5 24.5q17 3 22 11t0 28q-3 17 -9 34.5t-14 36.5q-14 32 -49 26q-26 -5 -50 -10.5t-48 -13.5 q61 115 125.5 232t124.5 223q11 19 11.5 35.5t-4.5 34.5q-4 14 -8 30t-12 37q-7 17 -15.5 24t-25.5 6q-32 -2 -67.5 -5.5t-71 -8.5t-68.5 -12t-60 -15q-11 -5 -14.5 -11.5t1.5 -24.5q6 -18 16 -42t16 -38q11 -18 24.5 -23t29.5 -1q21 6 43 10t48 10z" />
<glyph unicode="{" horiz-adv-x="339" d="M245 35q5 -19 0.5 -27t-21.5 -8q-21 -5 -45.5 -11t-47.5 -12q-21 -7 -33.5 -1.5t-23.5 16.5q-9 9 -18 20t-19 22q-13 15 -17 32t-1 46q5 38 10.5 81t12.5 94q-8 1 -13 6t-13 17q-10 17 -17.5 40t-12.5 41q-8 32 14 39q12 5 29 8t37 7q13 76 25 145t23 126q4 16 11.5 25 t24.5 11q26 5 54.5 7t52.5 3q30 1 43 -34q8 -18 12 -33t8 -33q5 -19 0.5 -26t-21.5 -10q-17 -2 -36.5 -5t-40.5 -5q-11 -53 -22.5 -115.5t-22.5 -127t-21 -128.5t-18 -121q11 1 21.5 2t21.5 2q29 5 43 -27q8 -17 12.5 -33t8.5 -33z" />
<glyph unicode="|" horiz-adv-x="358" d="M233 774q-16 14 -31.5 22t-31.5 16q-17 8 -26.5 3t-14.5 -27q-7 -38 -16.5 -99.5t-20 -135t-21.5 -152.5t-20 -151t-16 -132t-10 -94q-2 -24 2 -38t19 -25q12 -8 24.5 -15t28.5 -14q17 -6 22.5 -0.5t9.5 24.5q5 42 14 104t20 134t23.5 148.5t24 147t22 130t17.5 96.5 q5 21 1.5 32.5t-20.5 25.5z" />
<glyph unicode="}" horiz-adv-x="377" d="M261 631q3 18 1.5 30.5t-12.5 29.5q-8 14 -16 25.5t-16 22.5q-10 14 -19.5 19t-26.5 3q-33 -3 -62.5 -7t-52.5 -10q-12 -3 -20 -12t-3 -26t10 -33t13 -33q8 -18 17 -23.5t27 -3.5q8 1 16 2.5t16 2.5q-10 -54 -21 -117t-22 -128.5t-21 -129.5t-17 -118q-31 -6 -60 -14.5 t-33 -22.5q-2 -6 1.5 -18t8.5 -25t11 -25t10 -19q8 -12 17 -17.5t26 -1.5q21 5 43.5 9t45.5 9q22 1 29 10.5t9 23.5q7 51 16.5 113t20.5 131q17 6 35.5 7.5t33 4.5t21 11t-0.5 28q-5 18 -9.5 37t-11.5 36q-13 34 -42 34q11 54 20.5 103.5t17.5 91.5z" />
<glyph unicode="~" horiz-adv-x="495" d="M327 511q39 0 94 53q55 52 55 91q0 19 -19 32q-16 10 -33 10q-20 0 -40 -20q-3 -4 -10 -13t-14.5 -18t-14.5 -16t-11 -6q-13 1 -26 7.5t-26 14t-25.5 15t-24.5 12.5q-42 20 -77 20q-16 0 -40 -10.5t-47 -26.5t-42 -33.5t-26 -32.5q-9 -20 -9 -36q0 -40 44 -40q24 0 42 15 q1 0 8 7l16 16t18.5 16t17.5 7q9 0 23 -3t28.5 -8t27 -11t19.5 -13q29 -29 92 -29z" />
<glyph unicode="&#xa1;" horiz-adv-x="267" d="M-7 11q16 -14 36.5 -25.5t37.5 -17.5q19 -8 27.5 -2.5t13.5 28.5q10 50 22 116t23 135.5t21 136.5t16 120q4 26 -0.5 40t-19.5 25q-29 21 -62 30q-15 5 -22 0.5t-10 -24.5q-9 -55 -21 -117t-25.5 -126.5t-27.5 -129t-28 -125.5q-5 -21 -1 -35.5t20 -28.5zM226 708 q2 48 -19.5 74.5t-52.5 25.5q-15 0 -27 -7.5t-20.5 -18.5t-14 -23.5t-7.5 -21.5q-3 -12 -2.5 -28t6 -31.5t16.5 -29t29 -20.5q21 -9 37.5 -5t28 16t18.5 30.5t8 38.5z" />
<glyph unicode="&#xa2;" horiz-adv-x="372" d="M270 258q-46 18 -73 -24q-38 -60 -59 -50q-10 4 -15 23.5t-5.5 48t2.5 62.5t10 67q7 31 18 65.5t23.5 63.5t24.5 46.5t21 14.5q8 -5 10 -20.5t2 -35.5q0 -6 0.5 -11.5t1.5 -11.5q5 -32 18 -50t42 -26q16 -5 19.5 1.5t6.5 17.5q5 22 6.5 54.5t-0.5 59.5q-2 24 -8 42.5 t-24 36.5l-12 9q4 17 6.5 34t4.5 31q5 36 -5.5 62.5t-30.5 43.5q-25 23 -35 -10q-7 -23 -14.5 -57t-15.5 -69q-14 0 -30 -7t-32 -24q-35 -39 -60 -101t-38 -129.5t-13 -132.5q0 -64 17 -109q6 -18 16.5 -32t21.5 -23q-1 -8 -1.5 -15.5t-0.5 -15.5q-2 -36 6.5 -71t31.5 -52 q13 -10 20 -7.5t9 20.5q2 22 6.5 50.5t9.5 57.5h2q22 -2 44.5 6.5t36.5 22.5t27 36t21 48q8 23 6.5 37.5t-19.5 22.5z" />
<glyph unicode="&#xa3;" horiz-adv-x="440" d="M50 443q9 2 17.5 2.5t16.5 2.5q-2 -18 -5 -36t-5 -36q-45 -6 -84 -15q-12 -3 -18.5 -13t0.5 -28q5 -14 12.5 -31.5t15.5 -31.5q8 -15 17.5 -19.5t25.5 -0.5l12 3q-4 -32 -7 -61t-5 -52q-3 -24 2.5 -41.5t16.5 -31.5q15 -18 24 -29.5t20 -22.5q9 -9 22 -15.5t42 5.5 q40 12 84 24.5t86 24.5q20 6 22 13t-3 28q-3 17 -8.5 35t-13.5 35q-8 18 -18 23.5t-27 3.5q-30 -3 -56.5 -7t-55.5 -11q4 25 8 51t9 52q54 6 110 9q14 1 18.5 7t-0.5 23q-4 14 -8.5 28t-12.5 30q-12 28 -39 28q-11 0 -22.5 0.5t-23.5 -0.5l12 69h43q22 0 45 -1q14 -2 19 4 t1 23q-3 14 -7.5 28t-10.5 31q-10 28 -39 31q-7 1 -13.5 1.5t-14.5 1.5q5 23 9.5 45t9.5 42t1.5 31.5t-19.5 25.5t-37 25.5t-39 17.5q-17 7 -26.5 2.5t-15.5 -26.5q-8 -34 -16 -75t-16 -86q-26 -2 -51.5 -4t-48.5 -6q-12 -2 -19 -10.5t-2 -27.5q4 -15 10.5 -32.5t13.5 -31.5 q8 -17 17 -21.5t25 -2.5z" />
<glyph unicode="&#xa5;" horiz-adv-x="434" d="M57 282l39 6q-5 -38 -9 -72q-24 -3 -46.5 -7t-43.5 -9q-12 -3 -18.5 -13t0.5 -28q5 -14 12.5 -31.5t15.5 -31.5q8 -15 17.5 -19.5t25.5 -0.5q13 4 23 5q-1 -2 -1 -7q-2 -26 2.5 -39.5t18.5 -27.5q14 -9 31.5 -17.5t33.5 -15.5q17 -6 23 -1.5t10 24.5q3 26 6.5 52.5 t7.5 53.5q54 6 109 9q14 1 18.5 7t-0.5 23q-4 14 -8.5 28t-12.5 30q-12 28 -39 28q-11 0 -23 0.5t-24 -0.5q8 17 16.5 34t16.5 35q17 0 34 -0.5t34 -0.5q14 -2 19 4t1 23q-3 14 -7.5 28t-10.5 31q-8 19 -20 25q33 73 59 136t37 101q8 25 7 39t-12 31q-10 12 -23.5 26t-27 23 t-25 8t-16.5 -20q-29 -72 -60 -145.5t-63 -145.5q-16 72 -30.5 135t-27.5 111q-8 25 -16 37t-25 17t-34 4t-34 -3q-16 -3 -19 -10.5t2 -28.5q13 -64 30.5 -144.5t36.5 -162.5q-15 -2 -28.5 -3.5t-26.5 -3.5q-12 -2 -19 -10.5t-2 -27.5q4 -15 10.5 -32.5t13.5 -31.5 q8 -17 17 -21.5t25 -2.5z" />
<glyph unicode="&#xa6;" horiz-adv-x="286" d="M233 774q-16 14 -31.5 22t-31.5 16q-17 8 -26.5 3t-14.5 -27q-7 -42 -12 -69.5t-8.5 -47.5t-5.5 -36t-4 -33.5t-4 -40t-5 -57.5q-2 -24 2 -38t19 -25q12 -8 24.5 -15t28.5 -14q17 -6 22.5 -0.5t9.5 24.5q7 35 12.5 58.5t9.5 42.5t7 35t6.5 35.5t8.5 45.5t12 63 q5 21 1.5 32.5t-20.5 25.5zM163 299q-16 14 -31.5 22t-31.5 16q-17 8 -26.5 3t-14.5 -27q-7 -42 -12 -69.5t-8 -47.5t-4.5 -36t-3 -33.5t-3.5 -40.5t-5 -57q-2 -24 2 -38t19 -25q12 -8 24.5 -15t28.5 -14q17 -6 22.5 -0.5t9.5 24.5q7 35 12 58.5t8.5 42.5t6.5 35t6.5 35.5 t8 45.5t11.5 63q5 21 1.5 32.5t-20.5 25.5z" />
<glyph unicode="&#xa7;" horiz-adv-x="603" d="M-28 172q-13 -10 -13 -28q0 -17 27 -54q51 -75 101 -105t104 -28q34 1 59 11t43.5 26t31 35t20.5 38q20 -5 41 -3q40 1 68.5 15t47.5 34.5t30.5 44t17.5 44.5q14 42 -1.5 76t-45 65t-66 62t-63.5 67q-21 27 -20 62t13 68.5t30.5 60.5t33.5 38q16 16 19.5 5t1 -35.5 t-8 -55t-6.5 -51.5q-6 -72 80 -114q15 -8 23 -3.5t14 22.5q6 19 11.5 45t10 53.5t8 54.5t4.5 49q-1 25 -5.5 54t-29.5 58q-18 22 -45 40t-53 30q-17 7 -33 8t-29.5 -2t-24.5 -9.5t-18 -13.5q-21 -17 -41.5 -41.5t-38.5 -53.5q-2 2 -5 2.5t-5 2.5q-17 7 -33 8t-29.5 -2 t-24.5 -9.5t-18 -13.5q-21 -17 -42 -42.5t-39 -55t-31.5 -61t-19.5 -59.5q-18 -69 -3 -126.5t49 -96.5q23 -28 54 -56t56.5 -52.5t39.5 -43.5t3 -30q-18 -21 -58.5 -6.5t-94.5 63.5q-19 18 -46.5 20.5t-50.5 -11.5zM179 365q-21 27 -30.5 59.5t-10 62.5t7.5 54.5t23 35.5 q32 32 44 23q0 -11 -0.5 -29t0.5 -37t3 -36t5 -27q10 -35 32.5 -66.5t49.5 -51.5q23 -23 47 -44.5t42 -40t26 -32.5t-1 -23q-14 -16 -41 -11.5t-63 28.5q-30 33 -67.5 65t-66.5 70z" />
<glyph unicode="&#xa8;" horiz-adv-x="420" d="M66 905q-2 -34 14.5 -54.5t39.5 -18.5q11 0 20 5.5t15.5 13.5t10.5 17t5 16q3 9 3 21q0 18 -9.5 35t-29.5 26q-15 6 -27 3t-21 -12t-14.5 -23t-6.5 -29zM241 905q-1 -17 3 -31t11.5 -24t17.5 -15t22 -4q11 0 20 5.5t15.5 13.5t10 17t5.5 16q1 5 1.5 10t0.5 12q0 17 -9 34 t-29 26q-15 6 -27.5 3t-21.5 -12t-14 -22.5t-6 -28.5z" />
<glyph unicode="&#xa9;" horiz-adv-x="833" d="M778 673q-24 45 -63 84t-84 67t-90.5 44t-82.5 16q-65 0 -129.5 -34.5t-121.5 -93t-102 -135.5t-70.5 -161.5t-28 -171t26.5 -163.5q14 -41 37 -72t59 -53q53 -32 117 -44t132 -6t135 30t125.5 65t104 98.5t69.5 130.5q16 49 22.5 105t2.5 110t-18.5 102.5t-40.5 81.5z M735 346q-15 -32 -32 -64.5t-37 -62.5t-43.5 -56t-50.5 -45q-40 -28 -77 -47t-77.5 -26.5t-88 -1.5t-108.5 30q-56 21 -83 64t-32 99.5t9.5 121.5t43 128.5t68 121t84 99t90.5 62t89 11.5q54 -12 106.5 -57.5t90.5 -108.5t53.5 -134t-5.5 -134zM506 277q-44 19 -72 -23 q-38 -61 -58 -50q-10 4 -15 23.5t-5.5 47.5t2.5 61.5t10 66.5q6 30 17 64.5t23.5 63t24.5 46t20 14.5q9 -5 11 -20t2 -35q0 -6 0.5 -11.5t0.5 -11.5q5 -31 18 -49t42 -26q16 -5 19.5 1t6.5 17q5 23 6.5 55t-0.5 59q-2 23 -8 41.5t-24 36.5q-17 15 -42 27.5t-49 15.5 q-16 2 -34.5 -4.5t-36.5 -26.5q-34 -39 -59 -100t-38 -127.5t-13 -130.5t17 -109q7 -20 19.5 -35.5t25.5 -23.5q14 -8 32.5 -16.5t41.5 -10.5q23 -3 45 5t36 22q13 15 26 37t21 48q8 22 6.5 36.5t-19.5 21.5z" />
<glyph unicode="&#xaa;" horiz-adv-x="274" d="M200 521q9 48 17 89.5t15 73.5q3 13 1 20t-12 16q-6 4 -15.5 11t-19.5 13.5t-19.5 12t-14.5 7.5q-11 5 -17 3.5t-15 -11.5q-17 -20 -37.5 -49.5t-41 -62t-39 -65t-30.5 -59.5q-6 -13 -6 -24q0 -10 5 -21q16 -29 34 -50q8 -11 15.5 -11.5t16.5 1.5q17 4 34 6.5t35 5.5 q-5 -28 -7.5 -49t-3.5 -36q-2 -17 0.5 -25t11.5 -17q9 -7 18.5 -12t17.5 -8q11 -4 15 -0.5t6 14.5q4 30 9.5 66t12.5 77q10 1 19 1.5t18 1.5q17 1 13 21q-3 11 -5 20t-6 20q-8 20 -25 20zM44 508q23 36 49.5 78t54.5 75q-8 -34 -14 -70.5t-13 -73.5l-40 -4t-37 -5z" />
<glyph unicode="&#xab;" horiz-adv-x="624" d="M293 351q-4 -22 1 -30.5t17 -16.5q27 -18 56 -35.5t58 -33.5t55 -29.5t47 -22.5q11 -5 19.5 -2t10.5 17q2 17 1.5 39t-2.5 37q-5 18 -9.5 25t-19.5 13q-23 11 -46.5 23.5t-47.5 26.5q43 17 83 36.5t68 36.5q9 6 13 15t-4 23q-11 17 -23 33.5t-23 27.5q-12 12 -19.5 13 t-18.5 -7q-38 -23 -78 -42.5t-91 -39.5q-14 -7 -20.5 -14.5t-11.5 -24.5q-9 -28 -15 -68zM-6 372q-4 -22 1 -30.5t17 -16.5q27 -18 56 -35.5t58 -33.5t55 -29.5t47 -22.5q11 -5 19.5 -2t10.5 17q2 17 1.5 39t-2.5 37q-5 18 -9.5 25t-19.5 13q-23 11 -46.5 23.5t-47.5 26.5 q43 17 83 36.5t68 36.5q9 6 13 15t-4 23q-11 17 -23 33.5t-23 27.5q-12 12 -19.5 13t-18.5 -7q-38 -23 -78 -42.5t-91 -39.5q-14 -7 -20.5 -14.5t-11.5 -24.5q-9 -28 -15 -68z" />
<glyph unicode="&#xac;" horiz-adv-x="949" d="M860 173q28 17 46 32q20 17 32.5 37.5t4.5 44.5q-5 22 -16.5 37.5t-27.5 29.5q-17 15 -48 19t-66.5 1t-71 -12.5t-61.5 -21.5q-2 -31 -7 -67.5t-10.5 -73t-11 -71.5t-8.5 -64q-4 -18 0.5 -25.5t15.5 -19.5q13 -11 23.5 -18.5t26.5 -13.5q14 -9 25 -9.5t31 4.5 q16 4 35.5 11t38.5 15.5t36.5 18.5t29.5 22q17 14 25 29.5t3 36.5q-2 17 -15 33t-30 25zM503 78q2 -20 4 -36.5t4 -31.5q3 -14 8 -19.5t16 -8.5q12 -5 23 -5.5t24 -0.5q12 0 15.5 3.5t3.5 12.5q-3 42 -5.5 88.5t-4.5 90.5t-2.5 83.5t1.5 68.5q0 12 -4.5 18.5t-18.5 11.5 q-18 5 -39.5 9.5t-55.5 6.5q-20 2 -30.5 -4.5t-17.5 -17.5q-19 -30 -41 -70.5t-43.5 -83.5t-40.5 -84.5t-32 -74.5q-7 -21 -2 -27t16 -14q8 -4 15.5 -7t13.5 -6q12 -4 16.5 -2.5t9.5 10.5q8 16 15.5 32.5t18.5 35.5q27 8 62.5 12.5t70.5 9.5zM660 718q2 10 0 15.5t-14 12.5 q-25 16 -52 22q-14 3 -20.5 1.5t-9.5 -14.5q-10 -33 -19 -76t-20 -88q-17 -2 -35.5 -3t-38.5 -3q11 38 18.5 70t15.5 55q2 11 -0.5 16.5t-14.5 12.5q-13 8 -27.5 13.5t-27.5 9.5q-14 4 -21 2t-9 -15q-7 -33 -14 -75.5t-15 -86t-16.5 -85t-17.5 -74.5q-3 -14 1 -21t15 -12 q10 -6 23 -9.5t24 -6.5q13 -3 17 -0.5t6 10.5q6 24 11 53.5t14 62.5q19 3 38.5 5.5t38.5 5.5q-5 -27 -8 -49.5t-5 -40.5q-5 -18 6.5 -26.5t31.5 -14.5q20 -5 33.5 -7.5t13.5 11.5q7 40 17.5 85t21 89t21 84t18.5 71zM697 738l-54 -289q-2 -13 1.5 -22t11.5 -17 q9 -9 17 -14.5t16 -11.5q7 -5 17 -7.5t31 2.5q29 5 61 11.5t63 12.5q13 3 16 6.5t-2 13.5q-3 9 -6.5 17.5t-8.5 18.5q-5 8 -13 11.5t-22 1.5q-23 -2 -43.5 -3.5t-42.5 -6.5q5 14 7.5 27.5t7.5 27.5q27 6 56 10.5t57 9.5q13 3 16.5 6t-1.5 14q-3 9 -6.5 17.5t-8.5 17.5 q-5 8 -12.5 11t-20.5 2q-32 0 -55 -4q7 23 12.5 43.5t12.5 38.5q31 5 59 7.5t54 5.5q12 2 15 5t1 14q-2 9 -5 16.5t-8 17.5q-9 17 -32 17q-51 -2 -102 -10.5t-89 -17.5zM343 703q13 2 15 5t0 12q-10 23 -24 40q-5 5 -11 7.5t-20 2.5q-25 -1 -56.5 -3.5t-65 -5.5t-65.5 -7 t-58 -8q-8 -2 -10.5 -5t1.5 -12q5 -8 11.5 -21t16.5 -22q8 -8 15 -10t19 1q8 2 19.5 3.5t24.5 3.5q-7 -29 -15 -63.5t-14.5 -69.5t-12 -67.5t-7.5 -55.5q-5 -20 7.5 -28.5t31.5 -14.5q21 -6 34 -8.5t15 11.5q7 36 15.5 75t18 79t19.5 79.5t19 74.5q20 2 40 3.5t37 3.5z M235 6q15 3 16 6t-1 14q-4 9 -7.5 18t-8.5 17q-8 9 -14.5 12t-19.5 2q-23 -2 -42.5 -4t-42.5 -5q8 31 17 65t18 67t18 63.5t18 55.5q3 10 0 15.5t-14 12.5q-26 14 -57 21q-13 4 -19 1.5t-11 -13.5q-10 -30 -21 -71t-20.5 -84t-17 -82.5t-11.5 -67.5q-2 -12 2 -20.5t12 -16.5 q11 -9 18 -14.5t15 -11.5q7 -5 16 -8t31 3q29 6 61.5 12.5t64.5 12.5zM291 226q6 6 13 16t14 21.5t13 23.5t10 22q1 6 1.5 10t0.5 6q0 8 -7 16q-6 5 -13.5 10.5t-15.5 10.5q-11 7 -17.5 5.5t-11.5 -10.5q-6 -13 -14.5 -30t-17.5 -34t-17.5 -33t-14.5 -27q-7 -16 13 -20 q8 -1 17 -2t16 1q9 0 16 3.5t15 10.5zM739 205q5 23 10 42.5t12 37.5q38 16 63.5 17t30.5 -10q2 -7 -5 -18t-22 -23.5t-37.5 -24.5t-51.5 -21zM413 143q23 42 43 80t38 68q0 -33 1 -68t4 -71q-23 -2 -44 -4t-42 -5zM719 130q38 13 61.5 9.5t27.5 -13.5q4 -16 -25.5 -36.5 t-81.5 -33.5q5 19 9 37t9 37z" />
<glyph unicode="&#xad;" horiz-adv-x="395" d="M-56 492q20 6 48 12t59.5 10.5t64 7t62.5 2.5q27 0 46 -37q10 -22 16 -41t13 -37q7 -22 3 -29t-20 -8q-53 -5 -109.5 -14t-104.5 -26q-13 -5 -24 1t-24 27q-13 20 -22.5 39t-17.5 39q-19 46 10 54z" />
<glyph unicode="&#xae;" horiz-adv-x="833" d="M778 673q-24 45 -63 84t-84 67t-90.5 44t-82.5 16q-65 0 -129.5 -34.5t-121.5 -93t-102 -135.5t-70.5 -161.5t-28 -171t26.5 -163.5q14 -41 37 -72t59 -53q53 -32 117 -44t132 -6t135 30t125.5 65t104 98.5t69.5 130.5q16 49 22.5 105t2.5 110t-18.5 102.5t-40.5 81.5z M735 346q-15 -32 -32 -64.5t-37 -62.5t-43.5 -56t-50.5 -45q-40 -28 -77 -47t-77.5 -26.5t-88 -1.5t-108.5 30q-56 21 -83 64t-32 99.5t9.5 121.5t43 128.5t68 121t84 99t90.5 62t89 11.5q54 -12 106.5 -57.5t90.5 -108.5t53.5 -134t-5.5 -134zM371 319q12 -22 27 -44 t30 -42t29.5 -37t25.5 -29q17 -16 29.5 -18t23.5 3q9 2 15 3.5t14 12.5q6 8 7 15t-8 19q-13 15 -27 33.5t-27.5 39t-27 40.5t-24.5 38q51 32 86.5 69t49.5 81q8 25 1 66q-8 36 -21 61.5t-29 46.5q-19 24 -43.5 29.5t-52 -1t-56 -21.5t-55.5 -31q-8 -5 -15 -34.5t-14 -71.5 t-13.5 -92.5t-11.5 -97.5t-9 -86t-6 -59t1.5 -31t11.5 -18q9 -8 19 -11t22 -8q11 -4 15.5 0t6.5 15q7 40 13 79t13 81zM421 576q34 20 60 20q25 0 30 -17q3 -11 -3.5 -29.5t-22 -39.5t-39.5 -41.5t-55 -35.5q9 42 16 77.5t14 65.5z" />
<glyph unicode="&#xaf;" horiz-adv-x="395" d="M53 974q-29 -8 -10 -54q4 -10 6 -12.5t4 -4t5.5 -4t9.5 -12.5q13 -21 24 -27t24 -1q48 17 104 26t110 14q16 1 20 8t-3 29q-3 9 -4 11t-1.5 3.5t-2 4.5t-6.5 14q-19 37 -46 37q-30 0 -62.5 -3t-64 -7.5t-59.5 -10t-48 -11.5z" />
<glyph unicode="&#xb0;" horiz-adv-x="249" d="M178 750q-25 13 -62 18q-14 2 -29.5 -1.5t-26.5 -10.5q-26 -17 -43.5 -41.5t-26 -51.5t-7.5 -53.5t13 -46.5q5 -9 14 -16t18 -11q12 -6 26.5 -8.5t28.5 -3.5q40 -4 67 14q20 16 33.5 38.5t20 46.5t7.5 47.5t-4 43.5q-4 11 -10 19.5t-19 16.5zM127 725q7 -2 10 -11 t3.5 -22.5t-2 -28.5t-6.5 -28q-10 -34 -27 -55.5t-32 -16.5q-8 2 -12 11t-4.5 21.5t2 27.5t7.5 28t12.5 27t16 25t17 17t15.5 5z" />
<glyph unicode="&#xb1;" horiz-adv-x="488" d="M376 434q14 0 18 6.5t-1 23.5q-5 15 -9.5 29.5t-12.5 31.5q-13 28 -40 30q-32 2 -79 0q4 20 8.5 38.5t8.5 35.5q5 17 3 27.5t-13 24.5q-10 14 -26 27t-31 21q-12 6 -20.5 -1.5t-12.5 -21.5q-9 -30 -17.5 -71t-16.5 -89q-40 -3 -76 -8.5t-62 -12.5q-11 -3 -19.5 -11 t-3.5 -25t15 -39.5t20 -36.5q11 -15 19 -18.5t23 0.5t31 7.5t33 5.5q-4 -28 -5.5 -51t-3.5 -41q-2 -33 20 -50q14 -11 25.5 -18.5t23.5 -15.5q14 -8 19 -5t8 22q5 37 11.5 82t14.5 93q38 5 75 6.5t73 3.5zM374 82q14 0 18 6.5t-1 23.5q-5 15 -9.5 29.5t-12.5 31.5 q-14 30 -40 30q-45 -1 -75.5 -2t-53.5 -3t-41.5 -5.5t-40 -8t-49 -11.5t-67.5 -15q-11 -2 -19.5 -10.5t-3.5 -25.5t15 -39.5t20 -36.5q11 -15 19 -18.5t23 0.5q43 11 69.5 19t45 13.5t33.5 9.5t36 6.5t52 3.5t82 2z" />
<glyph unicode="&#xb2;" horiz-adv-x="237" d="M71 380q18 19 36.5 42.5t35 48t30 48.5t22.5 46q15 36 19.5 68.5t-12.5 68.5q-6 12 -16.5 24.5t-24 21.5t-29.5 13t-34 0q-30 -8 -56 -34.5t-44 -66.5q-11 -26 -9 -36.5t12 -15.5q17 -8 36.5 -7.5t34.5 15.5q9 13 18.5 24.5t18 19t15.5 10.5t12 -2q7 -6 -7.5 -39.5 t-42 -77.5t-62.5 -91.5t-68 -82.5q-10 -11 -7.5 -22.5t7.5 -21.5q6 -11 15.5 -24.5t17.5 -21.5q5 -8 12 -10.5t25 2.5q12 4 30 8t38.5 8t40 7t34.5 4q9 2 11.5 6t-0.5 15q-2 9 -7 21t-10 21q-10 20 -27 19q-13 -1 -30.5 -2.5t-34.5 -5.5z" />
<glyph unicode="&#xb3;" horiz-adv-x="242" d="M129 527q18 11 32.5 23t25.5 26q9 11 14.5 27t6 35t-5.5 40.5t-19 42.5q-13 19 -26 29t-25 13.5t-23 2.5t-20 -4q-26 -8 -48.5 -28.5t-35.5 -41.5q-10 -16 3 -32q6 -7 15.5 -12t20 -6.5t20.5 0.5t17 10q11 8 22.5 16.5t20.5 8.5q6 0 9 -6q9 -14 -19 -45.5t-102 -64.5 q-15 -7 -6 -30q12 -26 29 -39.5t35 -9.5q14 2 22.5 1t16.5 -10t8 -31t-15 -45q-16 -23 -37.5 -26t-55.5 22q-12 8 -27 10t-28 -9q-7 -6 -7 -17q0 -10 17 -30q27 -35 55 -48t54 -13q33 0 60.5 14.5t47.5 52.5q18 34 16 75t-33 76q-8 9 -16.5 14t-18.5 9z" />
<glyph unicode="&#xb4;" horiz-adv-x="395" d="M355 972q-2 21 -7 34.5t-16 20.5q-20 14 -33 14.5t-23 -9.5q-36 -36 -83.5 -68t-93.5 -59q-10 -8 -11 -16.5t1.5 -15.5t6 -11t3.5 -3q35 -26 57 -14q27 12 55.5 28.5t55 33.5t49.5 34t39 31z" />
<glyph unicode="&#xb6;" horiz-adv-x="472" d="M81 153q-5 -54 -9.5 -106t-12.5 -103q0 -16 4.5 -21t23.5 0q19 7 37 13.5t32.5 17t24.5 26.5t12 42q0 6 6.5 43.5t16.5 91t21.5 116t22.5 119t19 100t10 58.5q14 7 23 -3t12 -30q-2 -18 -9 -64t-17.5 -105.5t-22.5 -126.5t-22.5 -126.5t-19 -104.5t-10.5 -62 q0 -16 4.5 -21t23.5 0q19 7 37 13.5t32.5 17t24 26.5t11.5 42q1 23 8.5 75t17.5 116t21 132.5t19 126.5t11.5 96.5t-1.5 42.5q-28 24 -65 48t-77 36.5t-79.5 8.5t-73.5 -37q-29 -29 -56 -64t-51 -86q-12 -26 -16.5 -48.5t-3.5 -43t6.5 -39.5t13.5 -37q19 -46 61 -90 q-5 -14 -6.5 -35.5t-3.5 -54.5z" />
<glyph unicode="&#xb7;" horiz-adv-x="221" d="M38 426q-2 -46 19.5 -73t52.5 -25q15 0 27 7.5t20.5 18t13.5 22.5t7 21q3 13 3 29q0 23 -12.5 46t-38.5 35q-20 8 -36.5 4t-28.5 -16t-19 -30.5t-8 -38.5z" />
<glyph unicode="&#xb8;" horiz-adv-x="201" d="M56 -180q8 13 18 33t20 43t18 46.5t13 43.5q5 28 5 33q0 12 -11 32q-8 11 -18 22t-23 21q-28 25 -38 -10q-8 -26 -19.5 -60t-23.5 -69t-23.5 -67t-19.5 -54q-12 -31 17 -39q12 -2 23.5 -3.5t22.5 0.5q23 2 39 28z" />
<glyph unicode="&#xb9;" horiz-adv-x="151" d="M134 687q3 13 0.5 19.5t-12.5 15.5q-11 9 -27 19t-27 14t-15.5 1.5t-11.5 -13.5q-7 -13 -16 -30t-14 -34q-5 -14 -1.5 -20t17.5 -17q-6 -34 -12 -75t-10.5 -81t-8 -74.5t-4.5 -55.5q-2 -17 0.5 -25.5t9.5 -15.5q10 -7 25.5 -14t26.5 -11q10 -4 13 -1.5t5 13.5 q4 39 11.5 91t16.5 106t17.5 103.5t16.5 84.5z" />
<glyph unicode="&#xba;" horiz-adv-x="802" d="M258 314q-7 45 -14 93.5t-13.5 93t-11.5 82t-8 60.5q-4 30 -11.5 45.5t-25.5 25.5q-22 14 -42.5 23t-41.5 17q-17 6 -28 0t-16 -29q-8 -42 -17 -98t-17.5 -118.5t-17 -126t-15 -120.5t-11.5 -102.5t-7 -71.5q-3 -26 1.5 -40.5t18.5 -25.5q14 -14 30.5 -20.5t32.5 -12.5 q17 -7 23.5 -2.5t8.5 21.5q4 36 10.5 83t14 100t16 110.5t16.5 113.5q8 -47 17 -94t18 -91.5t18.5 -83.5t18.5 -69q12 -43 41 -60q16 -8 31.5 -14.5t31.5 -11.5q36 -12 39 26q9 69 20.5 154.5t23.5 172.5t24.5 168.5t23.5 142.5q4 21 1 35.5t-20 28.5q-21 17 -33 23t-30 12 t-27.5 0.5t-13.5 -27.5q-15 -85 -31.5 -191.5t-27.5 -221.5zM684 584q-25 13 -62 18q-14 2 -29.5 -1.5t-26.5 -10.5q-26 -17 -43.5 -41.5t-26 -51.5t-7.5 -53.5t13 -46.5q5 -9 14 -16t18 -11q12 -6 26.5 -8.5t28.5 -3.5q40 -4 67 14q20 16 33.5 38.5t20 46.5t7.5 47.5 t-4 43.5q-4 11 -10 19.5t-19 16.5zM438 268q-29 -8 -10 -54q4 -10 4.5 -13t1 -5t2.5 -5t8 -13q13 -21 30.5 -27t30.5 -1q48 17 104 26t110 14q16 1 20 8t-3 29q-3 9 -4.5 11.5t-3 4.5t-3.5 5.5t-7 14.5q-19 37 -46 37q-30 0 -62.5 -3t-64 -7.5t-59.5 -10t-48 -11.5zM629 540 q5 -1 7.5 -8t2.5 -17q0 -9 -1.5 -20t-4.5 -20q-8 -24 -19.5 -39.5t-22.5 -11.5q-11 3 -12 23.5t7 39.5q7 19 20 36.5t23 16.5z" />
<glyph unicode="&#xbb;" horiz-adv-x="624" d="M299 397q4 22 -1 30.5t-17 16.5q-27 18 -56 35.5t-58 33.5t-55 29.5t-47 22.5q-11 5 -19.5 2t-10.5 -17q-2 -17 -1.5 -39t2.5 -37q5 -18 9.5 -25t19.5 -13q23 -11 46.5 -23.5t47.5 -26.5q-43 -17 -83 -36.5t-68 -36.5q-9 -6 -13 -15t4 -23q11 -17 23 -33.5t23 -27.5 q12 -12 19.5 -13t18.5 7q38 23 78 42.5t91 39.5q14 7 20.5 14.5t11.5 24.5q9 28 15 68zM598 376q4 22 -1 30.5t-17 16.5q-27 18 -56 35.5t-58 33.5t-55 29.5t-47 22.5q-11 5 -19.5 2t-10.5 -17q-2 -17 -1.5 -39t2.5 -37q5 -18 9.5 -25t19.5 -13q23 -11 46.5 -23.5 t47.5 -26.5q-43 -17 -83 -36.5t-68 -36.5q-9 -6 -13 -15t4 -23q11 -17 23 -33.5t23 -27.5q12 -12 19.5 -13t18.5 7q38 23 78 42.5t91 39.5q14 7 20.5 14.5t11.5 24.5q9 28 15 68z" />
<glyph unicode="&#xbc;" horiz-adv-x="536" d="M462 211q9 48 17 89.5t15 73.5q3 13 1 20t-12 16q-6 4 -15.5 11t-19.5 13.5t-19.5 12t-14.5 7.5q-11 5 -17 3.5t-15 -11.5q-17 -20 -37.5 -49.5t-41 -62t-39 -65t-30.5 -59.5q-6 -13 -6 -24q0 -10 5 -21q16 -29 34 -50q8 -11 15.5 -11.5t16.5 1.5q17 4 34 6.5t35 5.5 q-5 -28 -7.5 -49t-3.5 -36q-2 -17 0.5 -25t11.5 -17q9 -7 18.5 -12t17.5 -8q11 -4 15 -0.5t6 14.5q4 30 9.5 66t12.5 77q10 1 19 1.5t18 1.5q17 1 13 21q-3 11 -5 20t-6 20q-8 20 -25 20zM478 696q-4 9 -5.5 11t-2.5 2t-3 1t-7 9q-20 32 -47 2q-25 -27 -61.5 -73t-78.5 -102 t-86.5 -117t-84.5 -117t-72.5 -102t-50.5 -72q-14 -20 -17 -36q-1 -8 0 -16t6 -16q3 -6 3.5 -4.5t0.5 3.5t2 2q1 0 6 -7q11 -14 19.5 -13.5t19.5 17.5q24 32 60 79t78 101t87 111t87 109.5t78 96.5t59 71q13 15 16 27t-6 33zM112 694q3 13 0.5 19.5t-12.5 15.5q-11 9 -27 19 t-27 14t-15.5 1.5t-11.5 -13.5q-7 -13 -16 -30t-14 -34q-5 -14 -1.5 -20t17.5 -17q-6 -34 -12 -75t-10.5 -81t-8 -74.5t-4.5 -55.5q-2 -17 0.5 -25.5t9.5 -15.5q10 -7 25.5 -14t26.5 -11q10 -4 13 -1.5t5 13.5q4 39 11.5 91t16.5 106t17.5 103.5t16.5 84.5zM306 198 q23 36 49.5 78t54.5 75q-8 -34 -14 -70.5t-13 -73.5l-40 -4t-37 -5z" />
<glyph unicode="&#xbd;" horiz-adv-x="563" d="M478 696q-4 9 -5.5 11t-2.5 2t-3 1t-7 9q-20 32 -47 2q-25 -27 -61.5 -73t-78.5 -102t-86.5 -117t-84.5 -117t-72.5 -102t-50.5 -72q-14 -20 -17 -36q-1 -8 0 -16t6 -16q3 -6 3.5 -4.5t0.5 3.5t2 2q1 0 6 -7q11 -14 19.5 -13.5t19.5 17.5q24 32 60 79t78 101t87 111 t87 109.5t78 96.5t59 71q13 15 16 27t-6 33zM385 78q18 19 36.5 42.5t35 48t30 48.5t22.5 46q15 36 19.5 68.5t-12.5 68.5q-6 12 -16.5 24.5t-24 21.5t-29.5 13t-34 0q-30 -8 -56 -34.5t-44 -66.5q-11 -26 -9 -36.5t12 -15.5q17 -8 36.5 -7.5t34.5 15.5q9 13 18.5 24.5 t18 19t15.5 10.5t12 -2q7 -6 -7.5 -39.5t-42 -77.5t-62.5 -91.5t-68 -82.5q-10 -11 -7.5 -22.5t7.5 -21.5q6 -11 15.5 -24.5t17.5 -21.5q5 -8 12 -10.5t25 2.5q12 4 30 8t38.5 8t40 7t34.5 4q9 2 11.5 6t-0.5 15q-2 9 -7 21t-10 21q-10 20 -27 19q-13 -1 -30.5 -2.5 t-34.5 -5.5zM112 694q3 13 0.5 19.5t-12.5 15.5q-11 9 -27 19t-27 14t-15.5 1.5t-11.5 -13.5q-7 -13 -16 -30t-14 -34q-5 -14 -1.5 -20t17.5 -17q-6 -34 -12 -75t-10.5 -81t-8 -74.5t-4.5 -55.5q-2 -17 0.5 -25.5t9.5 -15.5q10 -7 25.5 -14t26.5 -11q10 -4 13 -1.5t5 13.5 q4 39 11.5 91t16.5 106t17.5 103.5t16.5 84.5z" />
<glyph unicode="&#xbe;" horiz-adv-x="632" d="M558 211q9 48 17 89.5t15 73.5q3 13 1 20t-12 16q-6 4 -15.5 11t-19.5 13.5t-19.5 12t-14.5 7.5q-11 5 -17 3.5t-15 -11.5q-17 -20 -37.5 -49.5t-41 -62t-39 -65t-30.5 -59.5q-6 -13 -6 -24q0 -10 5 -21q16 -29 34 -50q8 -11 15.5 -11.5t16.5 1.5q17 4 34 6.5t35 5.5 q-5 -28 -7.5 -49t-3.5 -36q-2 -17 0.5 -25t11.5 -17q9 -7 18.5 -12t17.5 -8q11 -4 15 -0.5t6 14.5q4 30 9.5 66t12.5 77q10 1 19 1.5t18 1.5q17 1 13 21q-3 11 -5 20t-6 20q-8 20 -25 20zM574 696q-4 9 -5.5 11t-2.5 2t-3 1t-7 9q-20 32 -47 2q-25 -27 -61.5 -73t-78.5 -102 t-86.5 -117t-84.5 -117t-72.5 -102t-50.5 -72q-14 -20 -17 -36q-1 -8 0 -16t6 -16q3 -6 3.5 -4.5t0.5 3.5t1 2q2 0 7 -7q11 -14 19.5 -13.5t19.5 17.5q24 32 60 79t78 101t87 111t87 109.5t78 96.5t59 71q13 15 16 27t-6 33zM143 558q18 11 32.5 23t25.5 26q9 11 14.5 27 t6 35t-5.5 40.5t-19 42.5q-13 19 -26 29t-25 13.5t-23 2.5t-20 -4q-26 -8 -48.5 -28.5t-35.5 -41.5q-10 -16 3 -32q6 -7 15.5 -12t20 -6.5t20.5 0.5t17 10q11 8 22.5 16.5t20.5 8.5q6 0 9 -6q9 -14 -19 -45.5t-102 -64.5q-15 -7 -6 -30q12 -26 29 -39.5t35 -9.5q14 2 22.5 1 t16.5 -10t8 -31t-15 -45q-16 -23 -37.5 -26t-55.5 22q-12 8 -27 10t-28 -9q-7 -6 -7 -17q0 -10 17 -30q27 -35 55 -48t54 -13q33 0 60.5 14.5t47.5 52.5q18 34 16 75t-33 76q-8 9 -16.5 14t-18.5 9zM402 198q23 36 49.5 78t54.5 75q-8 -34 -14 -70.5t-13 -73.5l-40 -4 t-37 -5z" />
<glyph unicode="&#xbf;" horiz-adv-x="453" d="M309 546q-13 9 -29 18.5t-29.5 13t-22.5 -1t-8 -22.5q-6 -58 -27 -93t-47.5 -60.5t-54.5 -47.5t-47 -53q-13 -21 -23 -48.5t-11.5 -60.5t7.5 -69.5t34 -75.5q11 -19 28 -36.5t38.5 -29t46.5 -15.5t52 3q45 11 84.5 49t70.5 98q21 39 17.5 56t-18.5 25q-30 18 -61.5 15 t-53.5 -27q-15 -16 -29 -32t-27.5 -28.5t-27 -20.5t-26.5 -8q-9 0 -17.5 7t-10.5 23q-2 24 13.5 57t60.5 71q18 16 40.5 36.5t43 48t35.5 63.5t18 83q2 24 -1.5 37.5t-17.5 24.5zM366 679q4 45 -16.5 70t-49.5 30q-33 7 -54.5 -11.5t-26.5 -46.5q-1 -3 -1 -12v-15 q0 -23 10 -45.5t42 -36.5q21 -9 38 -6.5t29.5 12.5t20 26t8.5 35z" />
<glyph unicode="&#xc0;" horiz-adv-x="479" d="M275 186q2 -39 5 -73t6 -63q3 -28 9.5 -39t22.5 -18q16 -8 31 -9.5t32 -1.5t22 7t4 25q-4 84 -7.5 176.5t-6 181.5t-3 168.5t0.5 136.5q1 23 -4.5 37.5t-24.5 22.5q-26 10 -55 20t-76 13q-27 3 -41 -10t-23 -34q-25 -60 -55 -141.5t-59 -168t-55.5 -170t-44.5 -149.5 q-5 -21 -5 -34q0 -12 3 -20t8.5 -13.5l13.5 -13.5q10 -8 20.5 -14.5t18.5 -11.5q15 -8 22.5 -5t13.5 20q10 32 20.5 65.5t24.5 71.5q37 14 85.5 24t96.5 20zM131 977q16 -14 39 -31t49.5 -34t55 -33.5t55.5 -28.5q22 -12 57 14q0 -1 3.5 3t6 11t1.5 15.5t-11 16.5 q-46 27 -93.5 59t-83.5 68q-10 10 -23 9.5t-33 -14.5q-11 -7 -16 -20.5t-7 -34.5zM152 316q29 85 57.5 160.5t51.5 135.5q0 -66 2 -136t4 -142q-58 -6 -115 -18z" />
<glyph unicode="&#xc1;" horiz-adv-x="479" d="M275 186q2 -39 5 -73t6 -63q3 -28 9.5 -39t22.5 -18q16 -8 31 -9.5t32 -1.5t22 7t4 25q-4 84 -7.5 176.5t-6 181.5t-3 168.5t0.5 136.5q1 23 -4.5 37.5t-24.5 22.5q-26 10 -55 20t-76 13q-27 3 -41 -10t-23 -34q-25 -60 -55 -141.5t-59 -168t-55.5 -170t-44.5 -149.5 q-5 -21 -5 -34q0 -12 3 -20t8.5 -13.5l13.5 -13.5q10 -8 20.5 -14.5t18.5 -11.5q15 -8 22.5 -5t13.5 20q10 32 20.5 65.5t24.5 71.5q37 14 85.5 24t96.5 20zM414 972q-2 21 -7 34.5t-16 20.5q-20 14 -33 14.5t-23 -9.5q-36 -36 -83.5 -68t-93.5 -59q-10 -8 -11 -16.5 t1.5 -15.5t6 -11t3.5 -3q35 -26 57 -14q27 12 55.5 28.5t55 33.5t49.5 34t39 31zM152 316q29 85 57.5 160.5t51.5 135.5q0 -66 2 -136t4 -142q-58 -6 -115 -18z" />
<glyph unicode="&#xc2;" horiz-adv-x="479" d="M275 186q2 -39 5 -73t6 -63q3 -28 9.5 -39t22.5 -18q16 -8 31 -9.5t32 -1.5t22 7t4 25q-4 84 -7.5 176.5t-6 181.5t-3 168.5t0.5 136.5q1 23 -4.5 37.5t-24.5 22.5q-26 10 -55 20t-76 13q-27 3 -41 -10t-23 -34q-25 -60 -55 -141.5t-59 -168t-55.5 -170t-44.5 -149.5 q-5 -21 -5 -34q0 -12 3 -20t8.5 -13.5l13.5 -13.5q10 -8 20.5 -14.5t18.5 -11.5q15 -8 22.5 -5t13.5 20q10 32 20.5 65.5t24.5 71.5q37 14 85.5 24t96.5 20zM384 834q17 -1 13 19q-4 19 -9.5 43t-10.5 51t-10 54.5t-8 52.5q-2 16 -5 23t-9 16q-7 8 -14.5 14t-15.5 14 q-8 6 -14 5.5t-14 -11.5q-16 -20 -32 -43t-30 -46.5t-26.5 -45t-20.5 -37.5q-9 -17 1 -36q6 -11 11.5 -19t11.5 -16q7 -9 12 -9t10 9q16 26 34.5 55.5t40.5 60.5q8 -36 14 -68t12 -54q8 -22 24 -26q10 -4 18.5 -5t16.5 -1zM152 316q29 85 57.5 160.5t51.5 135.5 q0 -66 2 -136t4 -142q-58 -6 -115 -18z" />
<glyph unicode="&#xc3;" horiz-adv-x="479" d="M275 186q2 -39 5 -73t6 -63q3 -28 9.5 -39t22.5 -18q16 -8 31 -9.5t32 -1.5t22 7t4 25q-4 84 -7.5 176.5t-6 181.5t-3 168.5t0.5 136.5q1 23 -4.5 37.5t-24.5 22.5q-26 10 -55 20t-76 13q-27 3 -41 -10t-23 -34q-25 -60 -55 -141.5t-59 -168t-55.5 -170t-44.5 -149.5 q-5 -21 -5 -34q0 -12 3 -20t8.5 -13.5l13.5 -13.5q10 -8 20.5 -14.5t18.5 -11.5q15 -8 22.5 -5t13.5 20q10 32 20.5 65.5t24.5 71.5q37 14 85.5 24t96.5 20zM336 852q30 0 67 37q39 36 39 65q0 13 -13 23q-11 7 -24 7q-14 0 -28 -14q-2 -3 -7 -9t-10.5 -13t-10.5 -11.5 t-8 -4.5q-19 2 -37 15t-35 20q-15 7 -28 10.5t-27 3.5q-12 0 -29 -7.5t-33.5 -18.5t-30 -24t-18.5 -23q-6 -14 -6 -26q0 -28 31 -28q19 0 30 10q1 0 6 5t11 11.5t13 11.5t13 5q7 0 17 -2t20 -5.5t19 -8t14 -9.5q20 -20 65 -20zM152 316q29 85 57.5 160.5t51.5 135.5 q0 -66 2 -136t4 -142q-58 -6 -115 -18z" />
<glyph unicode="&#xc4;" horiz-adv-x="479" d="M275 186q2 -39 5 -73t6 -63q3 -28 9.5 -39t22.5 -18q16 -8 31 -9.5t32 -1.5t22 7t4 25q-4 84 -7.5 176.5t-6 181.5t-3 168.5t0.5 136.5q1 23 -4.5 37.5t-24.5 22.5q-26 10 -55 20t-76 13q-27 3 -41 -10t-23 -34q-25 -60 -55 -141.5t-59 -168t-55.5 -170t-44.5 -149.5 q-5 -21 -5 -34q0 -12 3 -20t8.5 -13.5l13.5 -13.5q10 -8 20.5 -14.5t18.5 -11.5q15 -8 22.5 -5t13.5 20q10 32 20.5 65.5t24.5 71.5q37 14 85.5 24t96.5 20zM152 316q29 85 57.5 160.5t51.5 135.5q0 -66 2 -136t4 -142q-58 -6 -115 -18zM138 910q-2 -34 14.5 -54.5 t39.5 -18.5q11 0 20 5.5t15.5 13.5t10.5 17t5 16q3 9 3 21q0 18 -9.5 35t-29.5 26q-15 6 -27 3t-21 -12t-14.5 -23t-6.5 -29zM313 910q-1 -17 3 -31t11.5 -24t17.5 -15t22 -4q11 0 20 5.5t15.5 13.5t10 17t5.5 16q1 5 1.5 10t0.5 12q0 17 -9 34t-29 26q-15 6 -27.5 3 t-21.5 -12t-14 -22.5t-6 -28.5z" />
<glyph unicode="&#xc5;" horiz-adv-x="479" d="M275 186q2 -39 5 -73t6 -63q3 -28 9.5 -39t22.5 -18q16 -8 31 -9.5t32 -1.5t22 7t4 25q-4 84 -7.5 176.5t-6 181.5t-3 168.5t0.5 136.5q1 23 -4.5 37.5t-24.5 22.5q-26 10 -55 20t-76 13q-27 3 -41 -10t-23 -34q-25 -60 -55 -141.5t-59 -168t-55.5 -170t-44.5 -149.5 q-5 -21 -5 -34q0 -12 3 -20t8.5 -13.5l13.5 -13.5q10 -8 20.5 -14.5t18.5 -11.5q15 -8 22.5 -5t13.5 20q10 32 20.5 65.5t24.5 71.5q37 14 85.5 24t96.5 20zM378 1036q-25 13 -62 18q-14 2 -29.5 -1.5t-26.5 -10.5q-26 -17 -43.5 -41.5t-26 -51.5t-7.5 -53.5t13 -46.5 q5 -9 14 -16t18 -11q12 -6 26.5 -8.5t28.5 -3.5q40 -4 67 14q20 16 33.5 38.5t20 46.5t7.5 47.5t-4 43.5q-4 11 -10 19.5t-19 16.5zM152 316q29 85 57.5 160.5t51.5 135.5q0 -66 2 -136t4 -142q-58 -6 -115 -18zM327 1011q7 -2 10 -11t3.5 -22.5t-2 -28.5t-6.5 -28 q-10 -34 -27 -55.5t-32 -16.5q-8 2 -12 11t-4.5 21.5t2 27.5t7.5 28t12.5 27t16 25t17 17t15.5 5z" />
<glyph unicode="&#xc6;" horiz-adv-x="704" d="M471 738q-25 10 -52.5 20t-74.5 13q-26 3 -42 -10t-28 -34q-34 -60 -76 -141.5t-84.5 -168t-81.5 -170t-67 -149.5q-8 -21 -10.5 -33.5t-0.5 -20.5t7 -13.5t11 -13.5q9 -8 18.5 -14.5t16.5 -11.5q15 -8 23 -5t16 20q14 32 29.5 65.5t35.5 71.5q38 14 88.5 23.5t98.5 19.5 q-3 -32 -6.5 -53l-6 -36t-4 -25.5t-1.5 -21.5q-2 -28 8.5 -38.5t26.5 -17.5q4 -4 18 -5.5t30 -1.5t31 1t22 3q40 11 84 24t86 25q17 5 20.5 12.5t-0.5 27.5q-5 18 -10 35t-13 36q-7 17 -17.5 23t-27.5 4q-32 -3 -60 -7.5t-57 -12.5q0 4 0.5 7t0.5 7q9 45 18 96 q37 11 76.5 20.5t77.5 19.5q17 5 21 12t-1 28q-4 18 -8.5 35t-12.5 35q-7 17 -17 22.5t-27 4.5q-20 -1 -38.5 -2.5t-37.5 -5.5q10 45 18 86t16 78q42 8 80.5 14t73.5 11q17 3 21.5 10.5t1.5 28.5q-4 18 -7.5 33t-11.5 34q-10 35 -43 34q-45 -2 -80 -10.5t-67 -19.5 q-1 1 -2 1t-2 1zM196 317q42 85 82 160.5t73 135.5q-10 -66 -19 -136t-17 -142q-30 -3 -59 -7.5t-60 -10.5z" />
<glyph unicode="&#xc7;" horiz-adv-x="428" d="M97 -203q8 13 18 33t20 43t18 46.5t13 43.5q0 2 0.5 4.5t0.5 4.5q28 0 54 11t43 28q18 20 36 50t29 65q10 30 8.5 50t-26.5 30q-61 25 -99 -32q-52 -82 -79 -68q-14 6 -20.5 32t-7.5 64.5t3.5 84.5t13.5 91q9 42 24 89t32 86t33 63t28 19q12 -6 14.5 -27.5t2.5 -47.5 q0 -8 0.5 -16t1.5 -16q6 -42 24 -66.5t58 -35.5q21 -6 26 2.5t9 22.5q6 30 8 74t0 81q-2 32 -10.5 57t-32.5 50q-23 20 -57.5 37.5t-67.5 21.5q-22 2 -47 -6t-50 -36q-31 -36 -57 -85.5t-45 -107t-31 -119t-15.5 -121t1.5 -112.5t20 -94q9 -28 26.5 -49t34.5 -32q3 -2 11 -6 q-9 -25 -18.5 -52t-18.5 -52.5t-17 -48.5t-14 -40q-12 -31 17 -39q12 -2 23.5 -3.5t22.5 0.5q23 2 39 28z" />
<glyph unicode="&#xc8;" horiz-adv-x="385" d="M45 710l-76 -578q-2 -26 3.5 -45t16.5 -33q13 -18 23 -29.5t21 -22.5q10 -10 23.5 -15.5t40.5 4.5q40 11 84 24t86 25q17 5 20.5 12.5t-0.5 27.5q-5 18 -10 35t-13 36q-7 17 -17.5 23t-27.5 4q-32 -3 -60 -7.5t-58 -12.5q5 26 10 53.5t10 56.5q37 11 76.5 20.5t77.5 19.5 q17 5 21 12t-1 28q-4 18 -8.5 35t-12.5 35q-7 17 -17 22.5t-27 4.5q-20 -1 -38.5 -2.5t-37.5 -5.5q10 45 18 86t16 78q42 8 80.5 14t73.5 11q17 3 21.5 10.5t1.5 28.5q-4 18 -7.5 33t-11.5 34q-10 35 -43 34q-70 -4 -138.5 -21t-119.5 -35zM87 972q16 -14 39 -31t49.5 -34 t55 -33.5t55.5 -28.5q22 -12 57 14q0 -1 3.5 3t6 11t1.5 15.5t-11 16.5q-46 27 -93.5 59t-83.5 68q-10 10 -23 9.5t-33 -14.5q-11 -7 -16 -20.5t-7 -34.5z" />
<glyph unicode="&#xc9;" horiz-adv-x="385" d="M45 710l-76 -578q-2 -26 3.5 -45t16.5 -33q13 -18 23 -29.5t21 -22.5q10 -10 23.5 -15.5t40.5 4.5q40 11 84 24t86 25q17 5 20.5 12.5t-0.5 27.5q-5 18 -10 35t-13 36q-7 17 -17.5 23t-27.5 4q-32 -3 -60 -7.5t-58 -12.5q5 26 10 53.5t10 56.5q37 11 76.5 20.5t77.5 19.5 q17 5 21 12t-1 28q-4 18 -8.5 35t-12.5 35q-7 17 -17 22.5t-27 4.5q-20 -1 -38.5 -2.5t-37.5 -5.5q10 45 18 86t16 78q42 8 80.5 14t73.5 11q17 3 21.5 10.5t1.5 28.5q-4 18 -7.5 33t-11.5 34q-10 35 -43 34q-70 -4 -138.5 -21t-119.5 -35zM355 972q-2 21 -7 34.5t-16 20.5 q-20 14 -33 14.5t-23 -9.5q-36 -36 -83.5 -68t-93.5 -59q-10 -8 -11 -16.5t1.5 -15.5t6 -11t3.5 -3q35 -26 57 -14q27 12 55.5 28.5t55 33.5t49.5 34t39 31z" />
<glyph unicode="&#xca;" horiz-adv-x="385" d="M45 710l-76 -578q-2 -26 3.5 -45t16.5 -33q13 -18 23 -29.5t21 -22.5q10 -10 23.5 -15.5t40.5 4.5q40 11 84 24t86 25q17 5 20.5 12.5t-0.5 27.5q-5 18 -10 35t-13 36q-7 17 -17.5 23t-27.5 4q-32 -3 -60 -7.5t-58 -12.5q5 26 10 53.5t10 56.5q37 11 76.5 20.5t77.5 19.5 q17 5 21 12t-1 28q-4 18 -8.5 35t-12.5 35q-7 17 -17 22.5t-27 4.5q-20 -1 -38.5 -2.5t-37.5 -5.5q10 45 18 86t16 78q42 8 80.5 14t73.5 11q17 3 21.5 10.5t1.5 28.5q-4 18 -7.5 33t-11.5 34q-10 35 -43 34q-70 -4 -138.5 -21t-119.5 -35zM329 831q17 -1 13 19 q-4 19 -9.5 43t-10.5 51t-10 54.5t-8 52.5q-2 16 -5 23t-9 16q-7 8 -14.5 14t-15.5 14q-8 6 -14 5.5t-14 -11.5q-16 -20 -32 -43t-30 -46.5t-26.5 -45t-20.5 -37.5q-9 -17 1 -36q6 -11 11.5 -19t11.5 -16q7 -9 12 -9t10 9q16 26 34.5 55.5t40.5 60.5q8 -36 14 -68t12 -54 q8 -22 24 -26q10 -4 18.5 -5t16.5 -1z" />
<glyph unicode="&#xcb;" horiz-adv-x="385" d="M45 710l-76 -578q-2 -26 3.5 -45t16.5 -33q13 -18 23 -29.5t21 -22.5q10 -10 23.5 -15.5t40.5 4.5q40 11 84 24t86 25q17 5 20.5 12.5t-0.5 27.5q-5 18 -10 35t-13 36q-7 17 -17.5 23t-27.5 4q-32 -3 -60 -7.5t-58 -12.5q5 26 10 53.5t10 56.5q37 11 76.5 20.5t77.5 19.5 q17 5 21 12t-1 28q-4 18 -8.5 35t-12.5 35q-7 17 -17 22.5t-27 4.5q-20 -1 -38.5 -2.5t-37.5 -5.5q10 45 18 86t16 78q42 8 80.5 14t73.5 11q17 3 21.5 10.5t1.5 28.5q-4 18 -7.5 33t-11.5 34q-10 35 -43 34q-70 -4 -138.5 -21t-119.5 -35zM66 905q-2 -34 14.5 -54.5 t39.5 -18.5q11 0 20 5.5t15.5 13.5t10.5 17t5 16q3 9 3 21q0 18 -9.5 35t-29.5 26q-15 6 -27 3t-21 -12t-14.5 -23t-6.5 -29zM241 905q-1 -17 3 -31t11.5 -24t17.5 -15t22 -4q11 0 20 5.5t15.5 13.5t10 17t5.5 16q1 5 1.5 10t0.5 12q0 17 -9 34t-29 26q-15 6 -27.5 3 t-21.5 -12t-14 -22.5t-6 -28.5z" />
<glyph unicode="&#xcc;" horiz-adv-x="208" d="M160 707q-16 14 -37 26.5t-39 18.5q-18 7 -27 2t-14 -27q-7 -37 -15.5 -90t-17 -113t-16.5 -124t-15 -123t-12 -109.5t-7 -84.5q-2 -26 2.5 -40.5t19.5 -25.5q14 -11 30 -18t33 -14q17 -6 23 -1t9 22q6 44 13.5 98.5t16.5 113.5t18.5 120t19 117.5t18.5 106.5t17 87 q4 21 0.5 32.5t-20.5 25.5zM-29 993q16 -14 39 -31t49.5 -34t55 -33.5t55.5 -28.5q22 -12 57 14q0 -1 3.5 3t6 11t1.5 15.5t-11 16.5q-46 27 -93.5 59t-83.5 68q-10 10 -23 9.5t-33 -14.5q-11 -7 -16 -20.5t-7 -34.5z" />
<glyph unicode="&#xcd;" horiz-adv-x="208" d="M160 707q-16 14 -37 26.5t-39 18.5q-18 7 -27 2t-14 -27q-7 -37 -15.5 -90t-17 -113t-16.5 -124t-15 -123t-12 -109.5t-7 -84.5q-2 -26 2.5 -40.5t19.5 -25.5q14 -11 30 -18t33 -14q17 -6 23 -1t9 22q6 44 13.5 98.5t16.5 113.5t18.5 120t19 117.5t18.5 106.5t17 87 q4 21 0.5 32.5t-20.5 25.5zM282 974q-2 21 -7 34.5t-16 20.5q-20 14 -33 14.5t-23 -9.5q-36 -36 -83.5 -68t-93.5 -59q-10 -8 -11 -16.5t1.5 -15.5t6 -11t3.5 -3q35 -26 57 -14q27 12 55.5 28.5t55 33.5t49.5 34t39 31z" />
<glyph unicode="&#xce;" horiz-adv-x="208" d="M160 707q-16 14 -37 26.5t-39 18.5q-18 7 -27 2t-14 -27q-7 -37 -15.5 -90t-17 -113t-16.5 -124t-15 -123t-12 -109.5t-7 -84.5q-2 -26 2.5 -40.5t19.5 -25.5q14 -11 30 -18t33 -14q17 -6 23 -1t9 22q6 44 13.5 98.5t16.5 113.5t18.5 120t19 117.5t18.5 106.5t17 87 q4 21 0.5 32.5t-20.5 25.5zM232 826q17 -1 13 19q-4 19 -9.5 43t-10.5 51t-10 54.5t-8 52.5q-2 16 -5 23t-9 16q-7 8 -14.5 14t-15.5 14q-8 6 -14 5.5t-14 -11.5q-16 -20 -32 -43t-30 -46.5t-26.5 -45t-20.5 -37.5q-9 -17 1 -36q6 -11 11.5 -19t11.5 -16q7 -9 12 -9t10 9 q16 26 34.5 55.5t40.5 60.5q8 -36 14 -68t12 -54q8 -22 24 -26q10 -4 18.5 -5t16.5 -1z" />
<glyph unicode="&#xcf;" horiz-adv-x="208" d="M160 707q-16 14 -37 26.5t-39 18.5q-18 7 -27 2t-14 -27q-7 -37 -15.5 -90t-17 -113t-16.5 -124t-15 -123t-12 -109.5t-7 -84.5q-2 -26 2.5 -40.5t19.5 -25.5q14 -11 30 -18t33 -14q17 -6 23 -1t9 22q6 44 13.5 98.5t16.5 113.5t18.5 120t19 117.5t18.5 106.5t17 87 q4 21 0.5 32.5t-20.5 25.5zM-19 905q-2 -34 14.5 -54.5t39.5 -18.5q11 0 20 5.5t15.5 13.5t10.5 17t5 16q3 9 3 21q0 18 -9.5 35t-29.5 26q-15 6 -27 3t-21 -12t-14.5 -23t-6.5 -29zM156 905q-1 -17 3 -31t11.5 -24t17.5 -15t22 -4q11 0 20 5.5t15.5 13.5t10 17t5.5 16 q1 5 1.5 10t0.5 12q0 17 -9 34t-29 26q-15 6 -27.5 3t-21.5 -12t-14 -22.5t-6 -28.5z" />
<glyph unicode="&#xd0;" horiz-adv-x="601" d="M27 462q-47 -6 -28 -45q13 -29 42 -65q15 -17 30 -22t37 -1l-18 -174q-3 -24 -2 -39.5t4.5 -26.5t9.5 -19.5t12 -17.5q17 -20 30.5 -33.5t32.5 -27.5q36 -29 71 -9q66 28 117 73t86.5 100t57 116t28.5 121.5t1 117t-25 101.5q-21 53 -50 85t-62.5 48t-69 18.5t-69 -4.5 t-64 -21.5t-52.5 -30.5l-24 -233q-23 -2 -45.5 -4.5t-49.5 -6.5zM215 138q8 54 15.5 106t15.5 103q16 1 35.5 1.5t46.5 2.5q23 1 31.5 7t2.5 24q-5 14 -10 30.5t-16 34.5q-16 31 -60 31h-8q5 30 11 59.5t12 58.5q38 17 65.5 3.5t38.5 -41.5q5 -14 8 -34t2 -46 q-1 -38 -12 -84t-33.5 -92t-58 -89t-86.5 -75z" />
<glyph unicode="&#xd1;" horiz-adv-x="468" d="M258 314q-7 45 -14 93.5t-13.5 93t-11.5 82t-8 60.5q-4 30 -11.5 45.5t-25.5 25.5q-22 14 -42.5 23t-41.5 17q-17 6 -28 0t-16 -29q-8 -42 -17 -98t-17.5 -118.5t-17 -126t-15 -120.5t-11.5 -102.5t-7 -71.5q-3 -26 1.5 -40.5t18.5 -25.5q14 -14 30.5 -20.5t32.5 -12.5 q17 -7 23.5 -2.5t8.5 21.5q4 36 10.5 83t14 100t16 110.5t16.5 113.5q8 -47 17 -94t18 -91.5t18.5 -83.5t18.5 -69q12 -43 41 -60q16 -8 31.5 -14.5t31.5 -11.5q36 -12 39 26q9 69 20.5 154.5t23.5 172.5t24.5 168.5t23.5 142.5q4 21 1 35.5t-20 28.5q-21 17 -33 23t-30 12 t-27.5 0.5t-13.5 -27.5q-15 -85 -31.5 -191.5t-27.5 -221.5zM336 852q30 0 67 37q39 36 39 65q0 13 -13 23q-11 7 -24 7q-14 0 -28 -14q-2 -3 -7 -9t-10.5 -13t-10.5 -11.5t-8 -4.5q-19 2 -37 15t-35 20q-15 7 -28 10.5t-27 3.5q-12 0 -29 -7.5t-33.5 -18.5t-30 -24 t-18.5 -23q-6 -14 -6 -26q0 -28 31 -28q19 0 30 10q1 0 6 5t11 11.5t13 11.5t13 5q7 0 17 -2t20 -5.5t19 -8t14 -9.5q20 -20 65 -20z" />
<glyph unicode="&#xd2;" d="M340 704q-20 21 -50.5 35.5t-63.5 21.5q-25 5 -53.5 -5.5t-48.5 -31.5q-48 -53 -80 -131.5t-47.5 -164t-13.5 -169.5t23 -150q9 -28 26 -50t34 -36q22 -17 48.5 -25.5t51.5 -12.5q38 -6 67.5 4.5t55.5 41.5q37 51 61 121.5t36.5 147t13.5 152t-8 137.5q-6 35 -17.5 63 t-34.5 52zM247 625q12 -5 18 -35t6.5 -72t-3.5 -90t-12 -90q-9 -53 -22 -98t-27.5 -76.5t-30 -46.5t-28.5 -8q-15 7 -22 36t-8 69.5t3.5 87.5t13.5 89q9 41 23 85t29.5 78.5t31.5 55t28 15.5zM87 972q16 -14 39 -31t49.5 -34t55 -33.5t55.5 -28.5q22 -12 57 14q0 -1 3.5 3 t6 11t1.5 15.5t-11 16.5q-46 27 -93.5 59t-83.5 68q-10 10 -23 9.5t-33 -14.5q-11 -7 -16 -20.5t-7 -34.5z" />
<glyph unicode="&#xd3;" d="M340 704q-20 21 -50.5 35.5t-63.5 21.5q-25 5 -53.5 -5.5t-48.5 -31.5q-48 -53 -80 -131.5t-47.5 -164t-13.5 -169.5t23 -150q9 -28 26 -50t34 -36q22 -17 48.5 -25.5t51.5 -12.5q38 -6 67.5 4.5t55.5 41.5q37 51 61 121.5t36.5 147t13.5 152t-8 137.5q-6 35 -17.5 63 t-34.5 52zM247 625q12 -5 18 -35t6.5 -72t-3.5 -90t-12 -90q-9 -53 -22 -98t-27.5 -76.5t-30 -46.5t-28.5 -8q-15 7 -22 36t-8 69.5t3.5 87.5t13.5 89q9 41 23 85t29.5 78.5t31.5 55t28 15.5zM355 972q-2 21 -7 34.5t-16 20.5q-20 14 -33 14.5t-23 -9.5q-36 -36 -83.5 -68 t-93.5 -59q-10 -8 -11 -16.5t1.5 -15.5t6 -11t3.5 -3q35 -26 57 -14q27 12 55.5 28.5t55 33.5t49.5 34t39 31z" />
<glyph unicode="&#xd4;" d="M340 704q-20 21 -50.5 35.5t-63.5 21.5q-25 5 -53.5 -5.5t-48.5 -31.5q-48 -53 -80 -131.5t-47.5 -164t-13.5 -169.5t23 -150q9 -28 26 -50t34 -36q22 -17 48.5 -25.5t51.5 -12.5q38 -6 67.5 4.5t55.5 41.5q37 51 61 121.5t36.5 147t13.5 152t-8 137.5q-6 35 -17.5 63 t-34.5 52zM247 625q12 -5 18 -35t6.5 -72t-3.5 -90t-12 -90q-9 -53 -22 -98t-27.5 -76.5t-30 -46.5t-28.5 -8q-15 7 -22 36t-8 69.5t3.5 87.5t13.5 89q9 41 23 85t29.5 78.5t31.5 55t28 15.5zM363 814q17 -1 13 19q-4 19 -9.5 43t-10.5 51t-10 54.5t-8 52.5q-2 16 -5 23 t-9 16q-7 8 -14.5 14t-15.5 14q-8 6 -14 5.5t-14 -11.5q-16 -20 -32 -43t-30 -46.5t-26.5 -45t-20.5 -37.5q-9 -17 1 -36q6 -11 11.5 -19t11.5 -16q7 -9 12 -9t10 9q16 26 34.5 55.5t40.5 60.5q8 -36 14 -68t12 -54q8 -22 24 -26q10 -4 18.5 -5t16.5 -1z" />
<glyph unicode="&#xd5;" d="M340 704q-20 21 -50.5 35.5t-63.5 21.5q-25 5 -53.5 -5.5t-48.5 -31.5q-48 -53 -80 -131.5t-47.5 -164t-13.5 -169.5t23 -150q9 -28 26 -50t34 -36q22 -17 48.5 -25.5t51.5 -12.5q38 -6 67.5 4.5t55.5 41.5q37 51 61 121.5t36.5 147t13.5 152t-8 137.5q-6 35 -17.5 63 t-34.5 52zM247 625q12 -5 18 -35t6.5 -72t-3.5 -90t-12 -90q-9 -53 -22 -98t-27.5 -76.5t-30 -46.5t-28.5 -8q-15 7 -22 36t-8 69.5t3.5 87.5t13.5 89q9 41 23 85t29.5 78.5t31.5 55t28 15.5zM336 852q30 0 67 37q39 36 39 65q0 13 -13 23q-11 7 -24 7q-14 0 -28 -14 q-2 -3 -7 -9t-10.5 -13t-10.5 -11.5t-8 -4.5q-19 2 -37 15t-35 20q-15 7 -28 10.5t-27 3.5q-12 0 -29 -7.5t-33.5 -18.5t-30 -24t-18.5 -23q-6 -14 -6 -26q0 -28 31 -28q19 0 30 10q1 0 6 5t11 11.5t13 11.5t13 5q7 0 17 -2t20 -5.5t19 -8t14 -9.5q20 -20 65 -20z" />
<glyph unicode="&#xd6;" d="M340 704q-20 21 -50.5 35.5t-63.5 21.5q-25 5 -53.5 -5.5t-48.5 -31.5q-48 -53 -80 -131.5t-47.5 -164t-13.5 -169.5t23 -150q9 -28 26 -50t34 -36q22 -17 48.5 -25.5t51.5 -12.5q38 -6 67.5 4.5t55.5 41.5q37 51 61 121.5t36.5 147t13.5 152t-8 137.5q-6 35 -17.5 63 t-34.5 52zM247 625q12 -5 18 -35t6.5 -72t-3.5 -90t-12 -90q-9 -53 -22 -98t-27.5 -76.5t-30 -46.5t-28.5 -8q-15 7 -22 36t-8 69.5t3.5 87.5t13.5 89q9 41 23 85t29.5 78.5t31.5 55t28 15.5zM100 905q-2 -34 14.5 -54.5t39.5 -18.5q11 0 20 5.5t15.5 13.5t10.5 17t5 16 q3 9 3 21q0 18 -9.5 35t-29.5 26q-15 6 -27 3t-21 -12t-14.5 -23t-6.5 -29zM275 905q-1 -17 3 -31t11.5 -24t17.5 -15t22 -4q11 0 20 5.5t15.5 13.5t10 17t5.5 16q1 5 1.5 10t0.5 12q0 17 -9 34t-29 26q-15 6 -27.5 3t-21.5 -12t-14 -22.5t-6 -28.5z" />
<glyph unicode="&#xd7;" horiz-adv-x="437" d="M275 193q10 -10 17.5 -8.5t15.5 17.5q7 14 14 27.5t13 31.5q12 30 -7 50q-21 23 -55 55q17 12 33 21.5t31 19.5q16 8 22 16.5t8 27.5q3 17 0.5 37t-7.5 37q-4 13 -15 14t-24 -7q-28 -15 -63 -38t-75 -51q-30 26 -59.5 47t-52.5 35q-10 6 -21.5 6.5t-20.5 -15.5 q-8 -16 -16.5 -38.5t-12.5 -39.5q-2 -19 1 -27t16 -16q25 -14 55 -36q-23 -17 -40.5 -32t-31.5 -26q-24 -23 -21 -50q2 -18 5 -31t6 -28q4 -16 9.5 -17t21.5 10q29 23 65.5 50t76.5 56q31 -23 58 -48.5t54 -49.5z" />
<glyph unicode="&#xd8;" d="M391 812q-6 7 -5.5 8.5t2.5 0.5l2 -1q0 1 -7 7q-29 26 -45 -11q-8 -14 -17 -35.5t-20 -47.5q-17 10 -36 16.5t-39 11.5q-25 5 -53.5 -5.5t-48.5 -31.5q-48 -53 -80 -131.5t-47.5 -164t-13.5 -169.5t23 -150q5 -17 14 -32.5t20 -27.5q-7 -18 -12 -33t-8 -25q-7 -24 -6 -40 q2 -18 14 -29q5 -5 2.5 -3t-6 4.5t-5 3.5t5.5 -5q15 -11 23 -7.5t14 21.5q5 14 12 32t15 39q19 -9 38.5 -14t38.5 -8q38 -6 67.5 4.5t55.5 41.5q37 51 61 121.5t36.5 147t13.5 152t-8 137.5q-5 24 -11.5 45t-17.5 39q21 49 35 79q8 18 7.5 30.5t-14.5 29.5zM256 338 q-9 -53 -22 -98t-27.5 -76.5t-30 -46.5t-28.5 -8q-8 3 -13 13q30 75 65 160t69 168q-2 -29 -5 -57.5t-8 -54.5zM247 625q4 -2 7 -6q-32 -81 -68 -174.5t-68 -180.5q3 65 17 127q9 41 23 85t29.5 78.5t31.5 55t28 15.5z" />
<glyph unicode="&#xd9;" horiz-adv-x="451" d="M0 102q10 -28 24 -47t30 -33q38 -32 98 -38q30 -3 53.5 3.5t46.5 23.5q32 28 56.5 87t44 142.5t34.5 188.5t29 227q3 21 0 32t-20 25q-16 12 -35 24.5t-36 18.5t-28.5 1t-12.5 -27q-6 -50 -14.5 -117.5t-19.5 -138.5t-24 -139.5t-27.5 -120.5t-31 -81.5t-34.5 -22.5 q-14 6 -19 34.5t-3 71t9 95.5t17 107.5t21.5 107.5t21.5 96q11 48 -21 80q-15 14 -31 25t-33 18q-18 8 -27.5 3.5t-14.5 -26.5q-18 -77 -35.5 -164.5t-27.5 -172t-9.5 -159t19.5 -124.5zM87 972q16 -14 39 -31t49.5 -34t55 -33.5t55.5 -28.5q22 -12 57 14q0 -1 3.5 3t6 11 t1.5 15.5t-11 16.5q-46 27 -93.5 59t-83.5 68q-10 10 -23 9.5t-33 -14.5q-11 -7 -16 -20.5t-7 -34.5z" />
<glyph unicode="&#xda;" horiz-adv-x="451" d="M0 102q10 -28 24 -47t30 -33q38 -32 98 -38q30 -3 53.5 3.5t46.5 23.5q32 28 56.5 87t44 142.5t34.5 188.5t29 227q3 21 0 32t-20 25q-16 12 -35 24.5t-36 18.5t-28.5 1t-12.5 -27q-6 -50 -14.5 -117.5t-19.5 -138.5t-24 -139.5t-27.5 -120.5t-31 -81.5t-34.5 -22.5 q-14 6 -19 34.5t-3 71t9 95.5t17 107.5t21.5 107.5t21.5 96q11 48 -21 80q-15 14 -31 25t-33 18q-18 8 -27.5 3.5t-14.5 -26.5q-18 -77 -35.5 -164.5t-27.5 -172t-9.5 -159t19.5 -124.5zM355 972q-2 21 -7 34.5t-16 20.5q-20 14 -33 14.5t-23 -9.5q-36 -36 -83.5 -68 t-93.5 -59q-10 -8 -11 -16.5t1.5 -15.5t6 -11t3.5 -3q35 -26 57 -14q27 12 55.5 28.5t55 33.5t49.5 34t39 31z" />
<glyph unicode="&#xdb;" horiz-adv-x="451" d="M0 102q10 -28 24 -47t30 -33q38 -32 98 -38q30 -3 53.5 3.5t46.5 23.5q32 28 56.5 87t44 142.5t34.5 188.5t29 227q3 21 0 32t-20 25q-16 12 -35 24.5t-36 18.5t-28.5 1t-12.5 -27q-6 -50 -14.5 -117.5t-19.5 -138.5t-24 -139.5t-27.5 -120.5t-31 -81.5t-34.5 -22.5 q-14 6 -19 34.5t-3 71t9 95.5t17 107.5t21.5 107.5t21.5 96q11 48 -21 80q-15 14 -31 25t-33 18q-18 8 -27.5 3.5t-14.5 -26.5q-18 -77 -35.5 -164.5t-27.5 -172t-9.5 -159t19.5 -124.5zM329 831q17 -1 13 19q-4 19 -9.5 43t-10.5 51t-10 54.5t-8 52.5q-2 16 -5 23t-9 16 q-7 8 -14.5 14t-15.5 14q-8 6 -14 5.5t-14 -11.5q-16 -20 -32 -43t-30 -46.5t-26.5 -45t-20.5 -37.5q-9 -17 1 -36q6 -11 11.5 -19t11.5 -16q7 -9 12 -9t10 9q16 26 34.5 55.5t40.5 60.5q8 -36 14 -68t12 -54q8 -22 24 -26q10 -4 18.5 -5t16.5 -1z" />
<glyph unicode="&#xdc;" horiz-adv-x="451" d="M0 102q10 -28 24 -47t30 -33q38 -32 98 -38q30 -3 53.5 3.5t46.5 23.5q32 28 56.5 87t44 142.5t34.5 188.5t29 227q3 21 0 32t-20 25q-16 12 -35 24.5t-36 18.5t-28.5 1t-12.5 -27q-6 -50 -14.5 -117.5t-19.5 -138.5t-24 -139.5t-27.5 -120.5t-31 -81.5t-34.5 -22.5 q-14 6 -19 34.5t-3 71t9 95.5t17 107.5t21.5 107.5t21.5 96q11 48 -21 80q-15 14 -31 25t-33 18q-18 8 -27.5 3.5t-14.5 -26.5q-18 -77 -35.5 -164.5t-27.5 -172t-9.5 -159t19.5 -124.5zM95 905q-2 -34 14.5 -54.5t39.5 -18.5q11 0 20 5.5t15.5 13.5t10.5 17t5 16q3 9 3 21 q0 18 -9.5 35t-29.5 26q-15 6 -27 3t-21 -12t-14.5 -23t-6.5 -29zM270 905q-1 -17 3 -31t11.5 -24t17.5 -15t22 -4q11 0 20 5.5t15.5 13.5t10 17t5.5 16q1 5 1.5 10t0.5 12q0 17 -9 34t-29 26q-15 6 -27.5 3t-21.5 -12t-14 -22.5t-6 -28.5z" />
<glyph unicode="&#xdd;" horiz-adv-x="434" d="M404 644q8 25 7 39t-12 31q-10 12 -23.5 26t-27 23t-25 8t-16.5 -20q-29 -72 -60 -145.5t-63 -145.5q-16 72 -30.5 135t-27.5 111q-8 25 -16 37t-25 17t-34 4t-34 -3q-16 -3 -19 -10.5t2 -28.5q9 -44 20.5 -97.5t24.5 -110.5t26 -114.5t25 -111.5q-8 -63 -13.5 -117.5 t-10.5 -96.5q-2 -26 2.5 -39.5t18.5 -27.5q14 -9 31.5 -17.5t33.5 -15.5q17 -6 23 -1.5t10 24.5q7 54 15 110.5t19 119.5q27 57 55 118t52.5 117t43.5 103.5t28 78.5zM355 972q-2 21 -7 34.5t-16 20.5q-20 14 -33 14.5t-23 -9.5q-36 -36 -83.5 -68t-93.5 -59 q-10 -8 -11 -16.5t1.5 -15.5t6 -11t3.5 -3q35 -26 57 -14q27 12 55.5 28.5t55 33.5t49.5 34t39 31z" />
<glyph unicode="&#xde;" horiz-adv-x="438" d="M160 707q-16 14 -37 26.5t-39 18.5q-18 7 -27 2t-14 -27q-7 -37 -15.5 -90t-17 -113t-16.5 -124t-15 -123t-12 -109.5t-7 -84.5q-2 -26 2.5 -40.5t19.5 -25.5q14 -11 30 -18t33 -14q17 -6 23 -1t9 22q2 17 4.5 35t5.5 37q38 15 76.5 36t73.5 46.5t64.5 54.5t49.5 59 q24 36 38.5 76.5t3.5 91.5t-29.5 86t-39.5 64q-27 33 -66.5 37t-84.5 -10q2 8 3.5 15t3.5 15q4 21 0.5 32.5t-20.5 25.5zM115 250l19 104.5t19 94.5q22 13 43.5 19.5t38.5 7t28 -4.5t13 -15q5 -18 -3 -45t-28.5 -56t-53 -57t-76.5 -48z" />
<glyph unicode="&#xdf;" horiz-adv-x="682" d="M597 696q-4 9 -5.5 11t-2.5 2t-3 1t-7 9q-20 32 -47 2q-25 -27 -61.5 -73t-78.5 -102t-86.5 -117t-84.5 -117t-72.5 -102t-50.5 -72q-14 -20 -17 -36q-1 -8 0 -16t6 -16q3 -6 3.5 -4.5t0.5 3.5t1 2q2 0 7 -7q11 -14 19.5 -13.5t19.5 17.5q24 32 60 79t78 101t87 111 t87 109.5t78 96.5t59 71q13 15 16 27t-6 33zM94 414q18 19 36.5 42.5t35 48t30 48.5t22.5 46q15 36 19.5 68.5t-12.5 68.5q-6 12 -16.5 24.5t-24 21.5t-29.5 13t-34 0q-30 -8 -56 -34.5t-44 -66.5q-11 -26 -9 -36.5t12 -15.5q17 -8 36.5 -7.5t34.5 15.5q9 13 18.5 24.5 t18 19t15.5 10.5t12 -2q7 -6 -7.5 -39.5t-42 -77.5t-62.5 -91.5t-68 -82.5q-10 -11 -7.5 -22.5t7.5 -21.5q6 -11 15.5 -24.5t17.5 -21.5q5 -8 12 -10.5t25 2.5q12 4 30 8t38.5 8t40 7t34.5 4q9 2 11.5 6t-0.5 15q-2 9 -7 21t-10 21q-10 20 -27 19q-13 -1 -30.5 -2.5 t-34.5 -5.5zM569 230q18 11 32.5 23t25.5 26q9 11 14.5 27t6 35t-5.5 40.5t-19 42.5q-13 19 -26 29t-25 13.5t-23 2.5t-20 -4q-26 -8 -48.5 -28.5t-35.5 -41.5q-10 -16 3 -32q6 -7 15.5 -12t20 -6.5t20.5 0.5t17 10q11 8 22.5 16.5t20.5 8.5q6 0 9 -6q9 -14 -19 -45.5 t-102 -64.5q-15 -7 -6 -30q12 -26 29 -39.5t35 -9.5q14 2 22.5 1t16.5 -10t8 -31t-15 -45q-16 -23 -37.5 -26t-55.5 22q-12 8 -27 10t-28 -9q-7 -6 -7 -17q0 -10 17 -30q27 -35 55 -48t54 -13q33 0 60.5 14.5t47.5 52.5q18 34 16 75t-33 76q-8 9 -16.5 14t-18.5 9z" />
<glyph unicode="&#xe0;" horiz-adv-x="479" d="M275 186q2 -39 5 -73t6 -63q3 -28 9.5 -39t22.5 -18q16 -8 31 -9.5t32 -1.5t22 7t4 25q-4 84 -7.5 176.5t-6 181.5t-3 168.5t0.5 136.5q1 23 -4.5 37.5t-24.5 22.5q-26 10 -55 20t-76 13q-27 3 -41 -10t-23 -34q-25 -60 -55 -141.5t-59 -168t-55.5 -170t-44.5 -149.5 q-5 -21 -5 -34q0 -12 3 -20t8.5 -13.5l13.5 -13.5q10 -8 20.5 -14.5t18.5 -11.5q15 -8 22.5 -5t13.5 20q10 32 20.5 65.5t24.5 71.5q37 14 85.5 24t96.5 20zM131 977q16 -14 39 -31t49.5 -34t55 -33.5t55.5 -28.5q22 -12 57 14q0 -1 3.5 3t6 11t1.5 15.5t-11 16.5 q-46 27 -93.5 59t-83.5 68q-10 10 -23 9.5t-33 -14.5q-11 -7 -16 -20.5t-7 -34.5zM152 316q29 85 57.5 160.5t51.5 135.5q0 -66 2 -136t4 -142q-58 -6 -115 -18z" />
<glyph unicode="&#xe1;" horiz-adv-x="479" d="M275 186q2 -39 5 -73t6 -63q3 -28 9.5 -39t22.5 -18q16 -8 31 -9.5t32 -1.5t22 7t4 25q-4 84 -7.5 176.5t-6 181.5t-3 168.5t0.5 136.5q1 23 -4.5 37.5t-24.5 22.5q-26 10 -55 20t-76 13q-27 3 -41 -10t-23 -34q-25 -60 -55 -141.5t-59 -168t-55.5 -170t-44.5 -149.5 q-5 -21 -5 -34q0 -12 3 -20t8.5 -13.5l13.5 -13.5q10 -8 20.5 -14.5t18.5 -11.5q15 -8 22.5 -5t13.5 20q10 32 20.5 65.5t24.5 71.5q37 14 85.5 24t96.5 20zM414 972q-2 21 -7 34.5t-16 20.5q-20 14 -33 14.5t-23 -9.5q-36 -36 -83.5 -68t-93.5 -59q-10 -8 -11 -16.5 t1.5 -15.5t6 -11t3.5 -3q35 -26 57 -14q27 12 55.5 28.5t55 33.5t49.5 34t39 31zM152 316q29 85 57.5 160.5t51.5 135.5q0 -66 2 -136t4 -142q-58 -6 -115 -18z" />
<glyph unicode="&#xe2;" horiz-adv-x="479" d="M275 186q2 -39 5 -73t6 -63q3 -28 9.5 -39t22.5 -18q16 -8 31 -9.5t32 -1.5t22 7t4 25q-4 84 -7.5 176.5t-6 181.5t-3 168.5t0.5 136.5q1 23 -4.5 37.5t-24.5 22.5q-26 10 -55 20t-76 13q-27 3 -41 -10t-23 -34q-25 -60 -55 -141.5t-59 -168t-55.5 -170t-44.5 -149.5 q-5 -21 -5 -34q0 -12 3 -20t8.5 -13.5l13.5 -13.5q10 -8 20.5 -14.5t18.5 -11.5q15 -8 22.5 -5t13.5 20q10 32 20.5 65.5t24.5 71.5q37 14 85.5 24t96.5 20zM384 834q17 -1 13 19q-4 19 -9.5 43t-10.5 51t-10 54.5t-8 52.5q-2 16 -5 23t-9 16q-7 8 -14.5 14t-15.5 14 q-8 6 -14 5.5t-14 -11.5q-16 -20 -32 -43t-30 -46.5t-26.5 -45t-20.5 -37.5q-9 -17 1 -36q6 -11 11.5 -19t11.5 -16q7 -9 12 -9t10 9q16 26 34.5 55.5t40.5 60.5q8 -36 14 -68t12 -54q8 -22 24 -26q10 -4 18.5 -5t16.5 -1zM152 316q29 85 57.5 160.5t51.5 135.5 q0 -66 2 -136t4 -142q-58 -6 -115 -18z" />
<glyph unicode="&#xe3;" horiz-adv-x="479" d="M275 186q2 -39 5 -73t6 -63q3 -28 9.5 -39t22.5 -18q16 -8 31 -9.5t32 -1.5t22 7t4 25q-4 84 -7.5 176.5t-6 181.5t-3 168.5t0.5 136.5q1 23 -4.5 37.5t-24.5 22.5q-26 10 -55 20t-76 13q-27 3 -41 -10t-23 -34q-25 -60 -55 -141.5t-59 -168t-55.5 -170t-44.5 -149.5 q-5 -21 -5 -34q0 -12 3 -20t8.5 -13.5l13.5 -13.5q10 -8 20.5 -14.5t18.5 -11.5q15 -8 22.5 -5t13.5 20q10 32 20.5 65.5t24.5 71.5q37 14 85.5 24t96.5 20zM336 852q30 0 67 37q39 36 39 65q0 13 -13 23q-11 7 -24 7q-14 0 -28 -14q-2 -3 -7 -9t-10.5 -13t-10.5 -11.5 t-8 -4.5q-19 2 -37 15t-35 20q-15 7 -28 10.5t-27 3.5q-12 0 -29 -7.5t-33.5 -18.5t-30 -24t-18.5 -23q-6 -14 -6 -26q0 -28 31 -28q19 0 30 10q1 0 6 5t11 11.5t13 11.5t13 5q7 0 17 -2t20 -5.5t19 -8t14 -9.5q20 -20 65 -20zM152 316q29 85 57.5 160.5t51.5 135.5 q0 -66 2 -136t4 -142q-58 -6 -115 -18z" />
<glyph unicode="&#xe4;" horiz-adv-x="479" d="M275 186q2 -39 5 -73t6 -63q3 -28 9.5 -39t22.5 -18q16 -8 31 -9.5t32 -1.5t22 7t4 25q-4 84 -7.5 176.5t-6 181.5t-3 168.5t0.5 136.5q1 23 -4.5 37.5t-24.5 22.5q-26 10 -55 20t-76 13q-27 3 -41 -10t-23 -34q-25 -60 -55 -141.5t-59 -168t-55.5 -170t-44.5 -149.5 q-5 -21 -5 -34q0 -12 3 -20t8.5 -13.5l13.5 -13.5q10 -8 20.5 -14.5t18.5 -11.5q15 -8 22.5 -5t13.5 20q10 32 20.5 65.5t24.5 71.5q37 14 85.5 24t96.5 20zM152 316q29 85 57.5 160.5t51.5 135.5q0 -66 2 -136t4 -142q-58 -6 -115 -18zM138 910q-2 -34 14.5 -54.5 t39.5 -18.5q11 0 20 5.5t15.5 13.5t10.5 17t5 16q3 9 3 21q0 18 -9.5 35t-29.5 26q-15 6 -27 3t-21 -12t-14.5 -23t-6.5 -29zM313 910q-1 -17 3 -31t11.5 -24t17.5 -15t22 -4q11 0 20 5.5t15.5 13.5t10 17t5.5 16q1 5 1.5 10t0.5 12q0 17 -9 34t-29 26q-15 6 -27.5 3 t-21.5 -12t-14 -22.5t-6 -28.5z" />
<glyph unicode="&#xe5;" horiz-adv-x="479" d="M275 186q2 -39 5 -73t6 -63q3 -28 9.5 -39t22.5 -18q16 -8 31 -9.5t32 -1.5t22 7t4 25q-4 84 -7.5 176.5t-6 181.5t-3 168.5t0.5 136.5q1 23 -4.5 37.5t-24.5 22.5q-26 10 -55 20t-76 13q-27 3 -41 -10t-23 -34q-25 -60 -55 -141.5t-59 -168t-55.5 -170t-44.5 -149.5 q-5 -21 -5 -34q0 -12 3 -20t8.5 -13.5l13.5 -13.5q10 -8 20.5 -14.5t18.5 -11.5q15 -8 22.5 -5t13.5 20q10 32 20.5 65.5t24.5 71.5q37 14 85.5 24t96.5 20zM378 1036q-25 13 -62 18q-14 2 -29.5 -1.5t-26.5 -10.5q-26 -17 -43.5 -41.5t-26 -51.5t-7.5 -53.5t13 -46.5 q5 -9 14 -16t18 -11q12 -6 26.5 -8.5t28.5 -3.5q40 -4 67 14q20 16 33.5 38.5t20 46.5t7.5 47.5t-4 43.5q-4 11 -10 19.5t-19 16.5zM152 316q29 85 57.5 160.5t51.5 135.5q0 -66 2 -136t4 -142q-58 -6 -115 -18zM327 1011q7 -2 10 -11t3.5 -22.5t-2 -28.5t-6.5 -28 q-10 -34 -27 -55.5t-32 -16.5q-8 2 -12 11t-4.5 21.5t2 27.5t7.5 28t12.5 27t16 25t17 17t15.5 5z" />
<glyph unicode="&#xe6;" horiz-adv-x="704" d="M471 738q-25 10 -52.5 20t-74.5 13q-26 3 -42 -10t-28 -34q-34 -60 -76 -141.5t-84.5 -168t-81.5 -170t-67 -149.5q-8 -21 -10.5 -33.5t-0.5 -20.5t7 -13.5t11 -13.5q9 -8 18.5 -14.5t16.5 -11.5q15 -8 23 -5t16 20q14 32 29.5 65.5t35.5 71.5q38 14 88.5 23.5t98.5 19.5 q-3 -32 -6.5 -53l-6 -36t-4 -25.5t-1.5 -21.5q-2 -28 8.5 -38.5t26.5 -17.5q4 -4 18 -5.5t30 -1.5t31 1t22 3q40 11 84 24t86 25q17 5 20.5 12.5t-0.5 27.5q-5 18 -10 35t-13 36q-7 17 -17.5 23t-27.5 4q-32 -3 -60 -7.5t-57 -12.5q0 4 0.5 7t0.5 7q9 45 18 96 q37 11 76.5 20.5t77.5 19.5q17 5 21 12t-1 28q-4 18 -8.5 35t-12.5 35q-7 17 -17 22.5t-27 4.5q-20 -1 -38.5 -2.5t-37.5 -5.5q10 45 18 86t16 78q42 8 80.5 14t73.5 11q17 3 21.5 10.5t1.5 28.5q-4 18 -7.5 33t-11.5 34q-10 35 -43 34q-45 -2 -80 -10.5t-67 -19.5 q-1 1 -2 1t-2 1zM196 317q42 85 82 160.5t73 135.5q-10 -66 -19 -136t-17 -142q-30 -3 -59 -7.5t-60 -10.5z" />
<glyph unicode="&#xe7;" horiz-adv-x="428" d="M97 -203q8 13 18 33t20 43t18 46.5t13 43.5q0 2 0.5 4.5t0.5 4.5q28 0 54 11t43 28q18 20 36 50t29 65q10 30 8.5 50t-26.5 30q-61 25 -99 -32q-52 -82 -79 -68q-14 6 -20.5 32t-7.5 64.5t3.5 84.5t13.5 91q9 42 24 89t32 86t33 63t28 19q12 -6 14.5 -27.5t2.5 -47.5 q0 -8 0.5 -16t1.5 -16q6 -42 24 -66.5t58 -35.5q21 -6 26 2.5t9 22.5q6 30 8 74t0 81q-2 32 -10.5 57t-32.5 50q-23 20 -57.5 37.5t-67.5 21.5q-22 2 -47 -6t-50 -36q-31 -36 -57 -85.5t-45 -107t-31 -119t-15.5 -121t1.5 -112.5t20 -94q9 -28 26.5 -49t34.5 -32q3 -2 11 -6 q-9 -25 -18.5 -52t-18.5 -52.5t-17 -48.5t-14 -40q-12 -31 17 -39q12 -2 23.5 -3.5t22.5 0.5q23 2 39 28z" />
<glyph unicode="&#xe8;" horiz-adv-x="385" d="M45 710l-76 -578q-2 -26 3.5 -45t16.5 -33q13 -18 23 -29.5t21 -22.5q10 -10 23.5 -15.5t40.5 4.5q40 11 84 24t86 25q17 5 20.5 12.5t-0.5 27.5q-5 18 -10 35t-13 36q-7 17 -17.5 23t-27.5 4q-32 -3 -60 -7.5t-58 -12.5q5 26 10 53.5t10 56.5q37 11 76.5 20.5t77.5 19.5 q17 5 21 12t-1 28q-4 18 -8.5 35t-12.5 35q-7 17 -17 22.5t-27 4.5q-20 -1 -38.5 -2.5t-37.5 -5.5q10 45 18 86t16 78q42 8 80.5 14t73.5 11q17 3 21.5 10.5t1.5 28.5q-4 18 -7.5 33t-11.5 34q-10 35 -43 34q-70 -4 -138.5 -21t-119.5 -35zM87 972q16 -14 39 -31t49.5 -34 t55 -33.5t55.5 -28.5q22 -12 57 14q0 -1 3.5 3t6 11t1.5 15.5t-11 16.5q-46 27 -93.5 59t-83.5 68q-10 10 -23 9.5t-33 -14.5q-11 -7 -16 -20.5t-7 -34.5z" />
<glyph unicode="&#xe9;" horiz-adv-x="385" d="M45 710l-76 -578q-2 -26 3.5 -45t16.5 -33q13 -18 23 -29.5t21 -22.5q10 -10 23.5 -15.5t40.5 4.5q40 11 84 24t86 25q17 5 20.5 12.5t-0.5 27.5q-5 18 -10 35t-13 36q-7 17 -17.5 23t-27.5 4q-32 -3 -60 -7.5t-58 -12.5q5 26 10 53.5t10 56.5q37 11 76.5 20.5t77.5 19.5 q17 5 21 12t-1 28q-4 18 -8.5 35t-12.5 35q-7 17 -17 22.5t-27 4.5q-20 -1 -38.5 -2.5t-37.5 -5.5q10 45 18 86t16 78q42 8 80.5 14t73.5 11q17 3 21.5 10.5t1.5 28.5q-4 18 -7.5 33t-11.5 34q-10 35 -43 34q-70 -4 -138.5 -21t-119.5 -35zM355 972q-2 21 -7 34.5t-16 20.5 q-20 14 -33 14.5t-23 -9.5q-36 -36 -83.5 -68t-93.5 -59q-10 -8 -11 -16.5t1.5 -15.5t6 -11t3.5 -3q35 -26 57 -14q27 12 55.5 28.5t55 33.5t49.5 34t39 31z" />
<glyph unicode="&#xea;" horiz-adv-x="385" d="M45 710l-76 -578q-2 -26 3.5 -45t16.5 -33q13 -18 23 -29.5t21 -22.5q10 -10 23.5 -15.5t40.5 4.5q40 11 84 24t86 25q17 5 20.5 12.5t-0.5 27.5q-5 18 -10 35t-13 36q-7 17 -17.5 23t-27.5 4q-32 -3 -60 -7.5t-58 -12.5q5 26 10 53.5t10 56.5q37 11 76.5 20.5t77.5 19.5 q17 5 21 12t-1 28q-4 18 -8.5 35t-12.5 35q-7 17 -17 22.5t-27 4.5q-20 -1 -38.5 -2.5t-37.5 -5.5q10 45 18 86t16 78q42 8 80.5 14t73.5 11q17 3 21.5 10.5t1.5 28.5q-4 18 -7.5 33t-11.5 34q-10 35 -43 34q-70 -4 -138.5 -21t-119.5 -35zM329 831q17 -1 13 19 q-4 19 -9.5 43t-10.5 51t-10 54.5t-8 52.5q-2 16 -5 23t-9 16q-7 8 -14.5 14t-15.5 14q-8 6 -14 5.5t-14 -11.5q-16 -20 -32 -43t-30 -46.5t-26.5 -45t-20.5 -37.5q-9 -17 1 -36q6 -11 11.5 -19t11.5 -16q7 -9 12 -9t10 9q16 26 34.5 55.5t40.5 60.5q8 -36 14 -68t12 -54 q8 -22 24 -26q10 -4 18.5 -5t16.5 -1z" />
<glyph unicode="&#xeb;" horiz-adv-x="385" d="M45 710l-76 -578q-2 -26 3.5 -45t16.5 -33q13 -18 23 -29.5t21 -22.5q10 -10 23.5 -15.5t40.5 4.5q40 11 84 24t86 25q17 5 20.5 12.5t-0.5 27.5q-5 18 -10 35t-13 36q-7 17 -17.5 23t-27.5 4q-32 -3 -60 -7.5t-58 -12.5q5 26 10 53.5t10 56.5q37 11 76.5 20.5t77.5 19.5 q17 5 21 12t-1 28q-4 18 -8.5 35t-12.5 35q-7 17 -17 22.5t-27 4.5q-20 -1 -38.5 -2.5t-37.5 -5.5q10 45 18 86t16 78q42 8 80.5 14t73.5 11q17 3 21.5 10.5t1.5 28.5q-4 18 -7.5 33t-11.5 34q-10 35 -43 34q-70 -4 -138.5 -21t-119.5 -35zM66 905q-2 -34 14.5 -54.5 t39.5 -18.5q11 0 20 5.5t15.5 13.5t10.5 17t5 16q3 9 3 21q0 18 -9.5 35t-29.5 26q-15 6 -27 3t-21 -12t-14.5 -23t-6.5 -29zM241 905q-1 -17 3 -31t11.5 -24t17.5 -15t22 -4q11 0 20 5.5t15.5 13.5t10 17t5.5 16q1 5 1.5 10t0.5 12q0 17 -9 34t-29 26q-15 6 -27.5 3 t-21.5 -12t-14 -22.5t-6 -28.5z" />
<glyph unicode="&#xec;" horiz-adv-x="208" d="M160 707q-16 14 -37 26.5t-39 18.5q-18 7 -27 2t-14 -27q-7 -37 -15.5 -90t-17 -113t-16.5 -124t-15 -123t-12 -109.5t-7 -84.5q-2 -26 2.5 -40.5t19.5 -25.5q14 -11 30 -18t33 -14q17 -6 23 -1t9 22q6 44 13.5 98.5t16.5 113.5t18.5 120t19 117.5t18.5 106.5t17 87 q4 21 0.5 32.5t-20.5 25.5zM-29 993q16 -14 39 -31t49.5 -34t55 -33.5t55.5 -28.5q22 -12 57 14q0 -1 3.5 3t6 11t1.5 15.5t-11 16.5q-46 27 -93.5 59t-83.5 68q-10 10 -23 9.5t-33 -14.5q-11 -7 -16 -20.5t-7 -34.5z" />
<glyph unicode="&#xed;" horiz-adv-x="208" d="M160 707q-16 14 -37 26.5t-39 18.5q-18 7 -27 2t-14 -27q-7 -37 -15.5 -90t-17 -113t-16.5 -124t-15 -123t-12 -109.5t-7 -84.5q-2 -26 2.5 -40.5t19.5 -25.5q14 -11 30 -18t33 -14q17 -6 23 -1t9 22q6 44 13.5 98.5t16.5 113.5t18.5 120t19 117.5t18.5 106.5t17 87 q4 21 0.5 32.5t-20.5 25.5zM282 974q-2 21 -7 34.5t-16 20.5q-20 14 -33 14.5t-23 -9.5q-36 -36 -83.5 -68t-93.5 -59q-10 -8 -11 -16.5t1.5 -15.5t6 -11t3.5 -3q35 -26 57 -14q27 12 55.5 28.5t55 33.5t49.5 34t39 31z" />
<glyph unicode="&#xee;" horiz-adv-x="208" d="M160 707q-16 14 -37 26.5t-39 18.5q-18 7 -27 2t-14 -27q-7 -37 -15.5 -90t-17 -113t-16.5 -124t-15 -123t-12 -109.5t-7 -84.5q-2 -26 2.5 -40.5t19.5 -25.5q14 -11 30 -18t33 -14q17 -6 23 -1t9 22q6 44 13.5 98.5t16.5 113.5t18.5 120t19 117.5t18.5 106.5t17 87 q4 21 0.5 32.5t-20.5 25.5zM232 826q17 -1 13 19q-4 19 -9.5 43t-10.5 51t-10 54.5t-8 52.5q-2 16 -5 23t-9 16q-7 8 -14.5 14t-15.5 14q-8 6 -14 5.5t-14 -11.5q-16 -20 -32 -43t-30 -46.5t-26.5 -45t-20.5 -37.5q-9 -17 1 -36q6 -11 11.5 -19t11.5 -16q7 -9 12 -9t10 9 q16 26 34.5 55.5t40.5 60.5q8 -36 14 -68t12 -54q8 -22 24 -26q10 -4 18.5 -5t16.5 -1z" />
<glyph unicode="&#xef;" horiz-adv-x="208" d="M160 707q-16 14 -37 26.5t-39 18.5q-18 7 -27 2t-14 -27q-7 -37 -15.5 -90t-17 -113t-16.5 -124t-15 -123t-12 -109.5t-7 -84.5q-2 -26 2.5 -40.5t19.5 -25.5q14 -11 30 -18t33 -14q17 -6 23 -1t9 22q6 44 13.5 98.5t16.5 113.5t18.5 120t19 117.5t18.5 106.5t17 87 q4 21 0.5 32.5t-20.5 25.5zM-19 905q-2 -34 14.5 -54.5t39.5 -18.5q11 0 20 5.5t15.5 13.5t10.5 17t5 16q3 9 3 21q0 18 -9.5 35t-29.5 26q-15 6 -27 3t-21 -12t-14.5 -23t-6.5 -29zM156 905q-1 -17 3 -31t11.5 -24t17.5 -15t22 -4q11 0 20 5.5t15.5 13.5t10 17t5.5 16 q1 5 1.5 10t0.5 12q0 17 -9 34t-29 26q-15 6 -27.5 3t-21.5 -12t-14 -22.5t-6 -28.5z" />
<glyph unicode="&#xf0;" horiz-adv-x="408" d="M114 635q-29 -8 -10 -54q4 -10 6 -12.5t4 -4t5.5 -4t9.5 -12.5q13 -21 24 -27t24 -1q4 1 14 5q3 -36 3 -73q-31 15 -66 12q-56 -4 -86.5 -29.5t-51.5 -65.5t-32.5 -82t-14.5 -82t1 -74t14 -58q7 -15 17.5 -28.5t27 -23.5t40 -15t57.5 -5q66 6 106.5 40.5t70.5 100.5 q15 33 29 77t24 97.5t14 113.5t-1 125q12 2 24 2.5t24 2.5q16 1 20 8t-3 29q-3 9 -4 11t-1.5 3.5t-2 4.5t-6.5 14q-19 37 -46 37h-12q-5 0 -11 -1q-5 26 -12 49q-7 20 -13 27.5t-25 11.5q-20 2 -46.5 3t-42.5 -2q-20 -5 -27.5 -14.5t-1.5 -31.5q9 -30 15 -60 q-17 -4 -31.5 -7t-26.5 -7zM179 252q-13 -61 -29 -97.5t-36 -40.5q-24 -5 -35 27t-4 89q5 48 19 81t35 35q20 2 35 -24.5t15 -69.5z" />
<glyph unicode="&#xf1;" horiz-adv-x="468" d="M258 314q-7 45 -14 93.5t-13.5 93t-11.5 82t-8 60.5q-4 30 -11.5 45.5t-25.5 25.5q-22 14 -42.5 23t-41.5 17q-17 6 -28 0t-16 -29q-8 -42 -17 -98t-17.5 -118.5t-17 -126t-15 -120.5t-11.5 -102.5t-7 -71.5q-3 -26 1.5 -40.5t18.5 -25.5q14 -14 30.5 -20.5t32.5 -12.5 q17 -7 23.5 -2.5t8.5 21.5q4 36 10.5 83t14 100t16 110.5t16.5 113.5q8 -47 17 -94t18 -91.5t18.5 -83.5t18.5 -69q12 -43 41 -60q16 -8 31.5 -14.5t31.5 -11.5q36 -12 39 26q9 69 20.5 154.5t23.5 172.5t24.5 168.5t23.5 142.5q4 21 1 35.5t-20 28.5q-21 17 -33 23t-30 12 t-27.5 0.5t-13.5 -27.5q-15 -85 -31.5 -191.5t-27.5 -221.5zM336 852q30 0 67 37q39 36 39 65q0 13 -13 23q-11 7 -24 7q-14 0 -28 -14q-2 -3 -7 -9t-10.5 -13t-10.5 -11.5t-8 -4.5q-19 2 -37 15t-35 20q-15 7 -28 10.5t-27 3.5q-12 0 -29 -7.5t-33.5 -18.5t-30 -24 t-18.5 -23q-6 -14 -6 -26q0 -28 31 -28q19 0 30 10q1 0 6 5t11 11.5t13 11.5t13 5q7 0 17 -2t20 -5.5t19 -8t14 -9.5q20 -20 65 -20z" />
<glyph unicode="&#xf2;" d="M340 704q-20 21 -50.5 35.5t-63.5 21.5q-25 5 -53.5 -5.5t-48.5 -31.5q-48 -53 -80 -131.5t-47.5 -164t-13.5 -169.5t23 -150q9 -28 26 -50t34 -36q22 -17 48.5 -25.5t51.5 -12.5q38 -6 67.5 4.5t55.5 41.5q37 51 61 121.5t36.5 147t13.5 152t-8 137.5q-6 35 -17.5 63 t-34.5 52zM247 625q12 -5 18 -35t6.5 -72t-3.5 -90t-12 -90q-9 -53 -22 -98t-27.5 -76.5t-30 -46.5t-28.5 -8q-15 7 -22 36t-8 69.5t3.5 87.5t13.5 89q9 41 23 85t29.5 78.5t31.5 55t28 15.5zM87 972q16 -14 39 -31t49.5 -34t55 -33.5t55.5 -28.5q22 -12 57 14q0 -1 3.5 3 t6 11t1.5 15.5t-11 16.5q-46 27 -93.5 59t-83.5 68q-10 10 -23 9.5t-33 -14.5q-11 -7 -16 -20.5t-7 -34.5z" />
<glyph unicode="&#xf3;" d="M340 704q-20 21 -50.5 35.5t-63.5 21.5q-25 5 -53.5 -5.5t-48.5 -31.5q-48 -53 -80 -131.5t-47.5 -164t-13.5 -169.5t23 -150q9 -28 26 -50t34 -36q22 -17 48.5 -25.5t51.5 -12.5q38 -6 67.5 4.5t55.5 41.5q37 51 61 121.5t36.5 147t13.5 152t-8 137.5q-6 35 -17.5 63 t-34.5 52zM247 625q12 -5 18 -35t6.5 -72t-3.5 -90t-12 -90q-9 -53 -22 -98t-27.5 -76.5t-30 -46.5t-28.5 -8q-15 7 -22 36t-8 69.5t3.5 87.5t13.5 89q9 41 23 85t29.5 78.5t31.5 55t28 15.5zM355 972q-2 21 -7 34.5t-16 20.5q-20 14 -33 14.5t-23 -9.5q-36 -36 -83.5 -68 t-93.5 -59q-10 -8 -11 -16.5t1.5 -15.5t6 -11t3.5 -3q35 -26 57 -14q27 12 55.5 28.5t55 33.5t49.5 34t39 31z" />
<glyph unicode="&#xf4;" d="M340 704q-20 21 -50.5 35.5t-63.5 21.5q-25 5 -53.5 -5.5t-48.5 -31.5q-48 -53 -80 -131.5t-47.5 -164t-13.5 -169.5t23 -150q9 -28 26 -50t34 -36q22 -17 48.5 -25.5t51.5 -12.5q38 -6 67.5 4.5t55.5 41.5q37 51 61 121.5t36.5 147t13.5 152t-8 137.5q-6 35 -17.5 63 t-34.5 52zM247 625q12 -5 18 -35t6.5 -72t-3.5 -90t-12 -90q-9 -53 -22 -98t-27.5 -76.5t-30 -46.5t-28.5 -8q-15 7 -22 36t-8 69.5t3.5 87.5t13.5 89q9 41 23 85t29.5 78.5t31.5 55t28 15.5zM363 814q17 -1 13 19q-4 19 -9.5 43t-10.5 51t-10 54.5t-8 52.5q-2 16 -5 23 t-9 16q-7 8 -14.5 14t-15.5 14q-8 6 -14 5.5t-14 -11.5q-16 -20 -32 -43t-30 -46.5t-26.5 -45t-20.5 -37.5q-9 -17 1 -36q6 -11 11.5 -19t11.5 -16q7 -9 12 -9t10 9q16 26 34.5 55.5t40.5 60.5q8 -36 14 -68t12 -54q8 -22 24 -26q10 -4 18.5 -5t16.5 -1z" />
<glyph unicode="&#xf5;" d="M340 704q-20 21 -50.5 35.5t-63.5 21.5q-25 5 -53.5 -5.5t-48.5 -31.5q-48 -53 -80 -131.5t-47.5 -164t-13.5 -169.5t23 -150q9 -28 26 -50t34 -36q22 -17 48.5 -25.5t51.5 -12.5q38 -6 67.5 4.5t55.5 41.5q37 51 61 121.5t36.5 147t13.5 152t-8 137.5q-6 35 -17.5 63 t-34.5 52zM247 625q12 -5 18 -35t6.5 -72t-3.5 -90t-12 -90q-9 -53 -22 -98t-27.5 -76.5t-30 -46.5t-28.5 -8q-15 7 -22 36t-8 69.5t3.5 87.5t13.5 89q9 41 23 85t29.5 78.5t31.5 55t28 15.5zM336 852q30 0 67 37q39 36 39 65q0 13 -13 23q-11 7 -24 7q-14 0 -28 -14 q-2 -3 -7 -9t-10.5 -13t-10.5 -11.5t-8 -4.5q-19 2 -37 15t-35 20q-15 7 -28 10.5t-27 3.5q-12 0 -29 -7.5t-33.5 -18.5t-30 -24t-18.5 -23q-6 -14 -6 -26q0 -28 31 -28q19 0 30 10q1 0 6 5t11 11.5t13 11.5t13 5q7 0 17 -2t20 -5.5t19 -8t14 -9.5q20 -20 65 -20z" />
<glyph unicode="&#xf6;" d="M340 704q-20 21 -50.5 35.5t-63.5 21.5q-25 5 -53.5 -5.5t-48.5 -31.5q-48 -53 -80 -131.5t-47.5 -164t-13.5 -169.5t23 -150q9 -28 26 -50t34 -36q22 -17 48.5 -25.5t51.5 -12.5q38 -6 67.5 4.5t55.5 41.5q37 51 61 121.5t36.5 147t13.5 152t-8 137.5q-6 35 -17.5 63 t-34.5 52zM247 625q12 -5 18 -35t6.5 -72t-3.5 -90t-12 -90q-9 -53 -22 -98t-27.5 -76.5t-30 -46.5t-28.5 -8q-15 7 -22 36t-8 69.5t3.5 87.5t13.5 89q9 41 23 85t29.5 78.5t31.5 55t28 15.5zM100 905q-2 -34 14.5 -54.5t39.5 -18.5q11 0 20 5.5t15.5 13.5t10.5 17t5 16 q3 9 3 21q0 18 -9.5 35t-29.5 26q-15 6 -27 3t-21 -12t-14.5 -23t-6.5 -29zM275 905q-1 -17 3 -31t11.5 -24t17.5 -15t22 -4q11 0 20 5.5t15.5 13.5t10 17t5.5 16q1 5 1.5 10t0.5 12q0 17 -9 34t-29 26q-15 6 -27.5 3t-21.5 -12t-14 -22.5t-6 -28.5z" />
<glyph unicode="&#xf7;" horiz-adv-x="488" d="M406 320q14 0 18 6.5t-1 23.5q-5 15 -9.5 29.5t-12.5 31.5q-14 30 -40 30q-45 -1 -75.5 -2t-53.5 -3t-41.5 -5.5t-40 -8.5t-49 -11.5t-67.5 -14.5q-11 -2 -19.5 -10.5t-3.5 -25.5t15 -39.5t20 -36.5q11 -15 19 -18.5t23 0.5q43 11 69.5 19t45 13.5t33.5 9.5t36 6.5 t52 3.5t82 2zM146 164q-2 -46 19.5 -73t52.5 -25q15 0 27 7.5t20.5 18t13.5 22.5t7 21q3 13 3 29q0 23 -12.5 46t-38.5 35q-20 8 -36.5 4t-28.5 -16t-19 -30.5t-8 -38.5zM173 588q-2 -46 19.5 -73t52.5 -25q15 0 27 7.5t20.5 18t13.5 22.5t7 21q3 13 3 29q0 23 -12.5 46 t-38.5 35q-20 8 -36.5 4t-28.5 -16t-19 -30.5t-8 -38.5z" />
<glyph unicode="&#xf8;" d="M391 812q-6 7 -5.5 8.5t2.5 0.5l2 -1q0 1 -7 7q-29 26 -45 -11q-8 -14 -17 -35.5t-20 -47.5q-17 10 -36 16.5t-39 11.5q-25 5 -53.5 -5.5t-48.5 -31.5q-48 -53 -80 -131.5t-47.5 -164t-13.5 -169.5t23 -150q5 -17 14 -32.5t20 -27.5q-7 -18 -12 -33t-8 -25q-7 -24 -6 -40 q2 -18 14 -29q5 -5 2.5 -3t-6 4.5t-5 3.5t5.5 -5q15 -11 23 -7.5t14 21.5q5 14 12 32t15 39q19 -9 38.5 -14t38.5 -8q38 -6 67.5 4.5t55.5 41.5q37 51 61 121.5t36.5 147t13.5 152t-8 137.5q-5 24 -11.5 45t-17.5 39q21 49 35 79q8 18 7.5 30.5t-14.5 29.5zM256 338 q-9 -53 -22 -98t-27.5 -76.5t-30 -46.5t-28.5 -8q-8 3 -13 13q30 75 65 160t69 168q-2 -29 -5 -57.5t-8 -54.5zM247 625q4 -2 7 -6q-32 -81 -68 -174.5t-68 -180.5q3 65 17 127q9 41 23 85t29.5 78.5t31.5 55t28 15.5z" />
<glyph unicode="&#xf9;" horiz-adv-x="451" d="M0 102q10 -28 24 -47t30 -33q38 -32 98 -38q30 -3 53.5 3.5t46.5 23.5q32 28 56.5 87t44 142.5t34.5 188.5t29 227q3 21 0 32t-20 25q-16 12 -35 24.5t-36 18.5t-28.5 1t-12.5 -27q-6 -50 -14.5 -117.5t-19.5 -138.5t-24 -139.5t-27.5 -120.5t-31 -81.5t-34.5 -22.5 q-14 6 -19 34.5t-3 71t9 95.5t17 107.5t21.5 107.5t21.5 96q11 48 -21 80q-15 14 -31 25t-33 18q-18 8 -27.5 3.5t-14.5 -26.5q-18 -77 -35.5 -164.5t-27.5 -172t-9.5 -159t19.5 -124.5zM87 972q16 -14 39 -31t49.5 -34t55 -33.5t55.5 -28.5q22 -12 57 14q0 -1 3.5 3t6 11 t1.5 15.5t-11 16.5q-46 27 -93.5 59t-83.5 68q-10 10 -23 9.5t-33 -14.5q-11 -7 -16 -20.5t-7 -34.5z" />
<glyph unicode="&#xfa;" horiz-adv-x="451" d="M0 102q10 -28 24 -47t30 -33q38 -32 98 -38q30 -3 53.5 3.5t46.5 23.5q32 28 56.5 87t44 142.5t34.5 188.5t29 227q3 21 0 32t-20 25q-16 12 -35 24.5t-36 18.5t-28.5 1t-12.5 -27q-6 -50 -14.5 -117.5t-19.5 -138.5t-24 -139.5t-27.5 -120.5t-31 -81.5t-34.5 -22.5 q-14 6 -19 34.5t-3 71t9 95.5t17 107.5t21.5 107.5t21.5 96q11 48 -21 80q-15 14 -31 25t-33 18q-18 8 -27.5 3.5t-14.5 -26.5q-18 -77 -35.5 -164.5t-27.5 -172t-9.5 -159t19.5 -124.5zM355 972q-2 21 -7 34.5t-16 20.5q-20 14 -33 14.5t-23 -9.5q-36 -36 -83.5 -68 t-93.5 -59q-10 -8 -11 -16.5t1.5 -15.5t6 -11t3.5 -3q35 -26 57 -14q27 12 55.5 28.5t55 33.5t49.5 34t39 31z" />
<glyph unicode="&#xfb;" horiz-adv-x="451" d="M0 102q10 -28 24 -47t30 -33q38 -32 98 -38q30 -3 53.5 3.5t46.5 23.5q32 28 56.5 87t44 142.5t34.5 188.5t29 227q3 21 0 32t-20 25q-16 12 -35 24.5t-36 18.5t-28.5 1t-12.5 -27q-6 -50 -14.5 -117.5t-19.5 -138.5t-24 -139.5t-27.5 -120.5t-31 -81.5t-34.5 -22.5 q-14 6 -19 34.5t-3 71t9 95.5t17 107.5t21.5 107.5t21.5 96q11 48 -21 80q-15 14 -31 25t-33 18q-18 8 -27.5 3.5t-14.5 -26.5q-18 -77 -35.5 -164.5t-27.5 -172t-9.5 -159t19.5 -124.5zM329 831q17 -1 13 19q-4 19 -9.5 43t-10.5 51t-10 54.5t-8 52.5q-2 16 -5 23t-9 16 q-7 8 -14.5 14t-15.5 14q-8 6 -14 5.5t-14 -11.5q-16 -20 -32 -43t-30 -46.5t-26.5 -45t-20.5 -37.5q-9 -17 1 -36q6 -11 11.5 -19t11.5 -16q7 -9 12 -9t10 9q16 26 34.5 55.5t40.5 60.5q8 -36 14 -68t12 -54q8 -22 24 -26q10 -4 18.5 -5t16.5 -1z" />
<glyph unicode="&#xfc;" horiz-adv-x="451" d="M0 102q10 -28 24 -47t30 -33q38 -32 98 -38q30 -3 53.5 3.5t46.5 23.5q32 28 56.5 87t44 142.5t34.5 188.5t29 227q3 21 0 32t-20 25q-16 12 -35 24.5t-36 18.5t-28.5 1t-12.5 -27q-6 -50 -14.5 -117.5t-19.5 -138.5t-24 -139.5t-27.5 -120.5t-31 -81.5t-34.5 -22.5 q-14 6 -19 34.5t-3 71t9 95.5t17 107.5t21.5 107.5t21.5 96q11 48 -21 80q-15 14 -31 25t-33 18q-18 8 -27.5 3.5t-14.5 -26.5q-18 -77 -35.5 -164.5t-27.5 -172t-9.5 -159t19.5 -124.5zM95 905q-2 -34 14.5 -54.5t39.5 -18.5q11 0 20 5.5t15.5 13.5t10.5 17t5 16q3 9 3 21 q0 18 -9.5 35t-29.5 26q-15 6 -27 3t-21 -12t-14.5 -23t-6.5 -29zM270 905q-1 -17 3 -31t11.5 -24t17.5 -15t22 -4q11 0 20 5.5t15.5 13.5t10 17t5.5 16q1 5 1.5 10t0.5 12q0 17 -9 34t-29 26q-15 6 -27.5 3t-21.5 -12t-14 -22.5t-6 -28.5z" />
<glyph unicode="&#xfd;" horiz-adv-x="434" d="M404 644q8 25 7 39t-12 31q-10 12 -23.5 26t-27 23t-25 8t-16.5 -20q-29 -72 -60 -145.5t-63 -145.5q-16 72 -30.5 135t-27.5 111q-8 25 -16 37t-25 17t-34 4t-34 -3q-16 -3 -19 -10.5t2 -28.5q9 -44 20.5 -97.5t24.5 -110.5t26 -114.5t25 -111.5q-8 -63 -13.5 -117.5 t-10.5 -96.5q-2 -26 2.5 -39.5t18.5 -27.5q14 -9 31.5 -17.5t33.5 -15.5q17 -6 23 -1.5t10 24.5q7 54 15 110.5t19 119.5q27 57 55 118t52.5 117t43.5 103.5t28 78.5zM355 972q-2 21 -7 34.5t-16 20.5q-20 14 -33 14.5t-23 -9.5q-36 -36 -83.5 -68t-93.5 -59 q-10 -8 -11 -16.5t1.5 -15.5t6 -11t3.5 -3q35 -26 57 -14q27 12 55.5 28.5t55 33.5t49.5 34t39 31z" />
<glyph unicode="&#xfe;" horiz-adv-x="438" d="M160 707q-16 14 -37 26.5t-39 18.5q-18 7 -27 2t-14 -27q-7 -37 -15.5 -90t-17 -113t-16.5 -124t-15 -123t-12 -109.5t-7 -84.5q-2 -26 2.5 -40.5t19.5 -25.5q14 -11 30 -18t33 -14q17 -6 23 -1t9 22q2 17 4.5 35t5.5 37q38 15 76.5 36t73.5 46.5t64.5 54.5t49.5 59 q24 36 38.5 76.5t3.5 91.5t-29.5 86t-39.5 64q-27 33 -66.5 37t-84.5 -10q2 8 3.5 15t3.5 15q4 21 0.5 32.5t-20.5 25.5zM115 250l19 104.5t19 94.5q22 13 43.5 19.5t38.5 7t28 -4.5t13 -15q5 -18 -3 -45t-28.5 -56t-53 -57t-76.5 -48z" />
<glyph unicode="&#xff;" horiz-adv-x="434" d="M404 644q8 25 7 39t-12 31q-10 12 -23.5 26t-27 23t-25 8t-16.5 -20q-29 -72 -60 -145.5t-63 -145.5q-16 72 -30.5 135t-27.5 111q-8 25 -16 37t-25 17t-34 4t-34 -3q-16 -3 -19 -10.5t2 -28.5q9 -44 20.5 -97.5t24.5 -110.5t26 -114.5t25 -111.5q-8 -63 -13.5 -117.5 t-10.5 -96.5q-2 -26 2.5 -39.5t18.5 -27.5q14 -9 31.5 -17.5t33.5 -15.5q17 -6 23 -1.5t10 24.5q7 54 15 110.5t19 119.5q27 57 55 118t52.5 117t43.5 103.5t28 78.5zM66 905q-2 -34 14.5 -54.5t39.5 -18.5q11 0 20 5.5t15.5 13.5t10.5 17t5 16q3 9 3 21q0 18 -9.5 35 t-29.5 26q-15 6 -27 3t-21 -12t-14.5 -23t-6.5 -29zM241 905q-1 -17 3 -31t11.5 -24t17.5 -15t22 -4q11 0 20 5.5t15.5 13.5t10 17t5.5 16q1 5 1.5 10t0.5 12q0 17 -9 34t-29 26q-15 6 -27.5 3t-21.5 -12t-14 -22.5t-6 -28.5z" />
<glyph unicode="&#x152;" horiz-adv-x="643" d="M226 761q-25 5 -53.5 -5.5t-48.5 -31.5q-48 -53 -80 -131.5t-47.5 -164t-13.5 -169.5t23 -150q9 -28 26 -50t34 -36q22 -17 48.5 -25.5t51.5 -12.5q35 -5 62 3t52 33q3 -4 6.5 -7t7.5 -7q10 -10 23.5 -15.5t40.5 4.5q40 11 84 24t86 25q17 5 20.5 12.5t-0.5 27.5 q-5 18 -10 35t-13 36q-7 17 -17.5 23t-27.5 4q-32 -3 -60 -7.5t-58 -12.5q5 26 10 53.5t10 56.5q37 11 76.5 20.5t77.5 19.5q17 5 21 12t-1 28q-4 18 -8.5 35t-12.5 35q-7 17 -17 22.5t-27 4.5q-20 -1 -38.5 -2.5t-37.5 -5.5q10 45 18 86t16 78q42 8 80.5 14t73.5 11 q17 3 21.5 10.5t1.5 28.5q-4 18 -7.5 33t-11.5 34q-10 35 -43 34q-65 -4 -128.5 -19t-114.5 -32q-20 15 -44.5 25.5t-50.5 15.5zM247 625q9 -4 14.5 -22.5t8 -46.5t1.5 -62.5t-4 -70.5l-10 -76q0 -2 -0.5 -4.5t-0.5 -4.5q-9 -53 -22 -98t-27.5 -76.5t-30 -46.5t-28.5 -8 q-15 7 -22 36t-8 69.5t3.5 87.5t13.5 89q9 41 23 85t29.5 78.5t31.5 55t28 15.5z" />
<glyph unicode="&#x153;" horiz-adv-x="643" d="M226 761q-25 5 -53.5 -5.5t-48.5 -31.5q-48 -53 -80 -131.5t-47.5 -164t-13.5 -169.5t23 -150q9 -28 26 -50t34 -36q22 -17 48.5 -25.5t51.5 -12.5q35 -5 62 3t52 33q3 -4 6.5 -7t7.5 -7q10 -10 23.5 -15.5t40.5 4.5q40 11 84 24t86 25q17 5 20.5 12.5t-0.5 27.5 q-5 18 -10 35t-13 36q-7 17 -17.5 23t-27.5 4q-32 -3 -60 -7.5t-58 -12.5q5 26 10 53.5t10 56.5q37 11 76.5 20.5t77.5 19.5q17 5 21 12t-1 28q-4 18 -8.5 35t-12.5 35q-7 17 -17 22.5t-27 4.5q-20 -1 -38.5 -2.5t-37.5 -5.5q10 45 18 86t16 78q42 8 80.5 14t73.5 11 q17 3 21.5 10.5t1.5 28.5q-4 18 -7.5 33t-11.5 34q-10 35 -43 34q-65 -4 -128.5 -19t-114.5 -32q-20 15 -44.5 25.5t-50.5 15.5zM247 625q9 -4 14.5 -22.5t8 -46.5t1.5 -62.5t-4 -70.5l-10 -76q0 -2 -0.5 -4.5t-0.5 -4.5q-9 -53 -22 -98t-27.5 -76.5t-30 -46.5t-28.5 -8 q-15 7 -22 36t-8 69.5t3.5 87.5t13.5 89q9 41 23 85t29.5 78.5t31.5 55t28 15.5z" />
<glyph unicode="&#x178;" horiz-adv-x="434" d="M404 644q8 25 7 39t-12 31q-10 12 -23.5 26t-27 23t-25 8t-16.5 -20q-29 -72 -60 -145.5t-63 -145.5q-16 72 -30.5 135t-27.5 111q-8 25 -16 37t-25 17t-34 4t-34 -3q-16 -3 -19 -10.5t2 -28.5q9 -44 20.5 -97.5t24.5 -110.5t26 -114.5t25 -111.5q-8 -63 -13.5 -117.5 t-10.5 -96.5q-2 -26 2.5 -39.5t18.5 -27.5q14 -9 31.5 -17.5t33.5 -15.5q17 -6 23 -1.5t10 24.5q7 54 15 110.5t19 119.5q27 57 55 118t52.5 117t43.5 103.5t28 78.5zM66 905q-2 -34 14.5 -54.5t39.5 -18.5q11 0 20 5.5t15.5 13.5t10.5 17t5 16q3 9 3 21q0 18 -9.5 35 t-29.5 26q-15 6 -27 3t-21 -12t-14.5 -23t-6.5 -29zM241 905q-1 -17 3 -31t11.5 -24t17.5 -15t22 -4q11 0 20 5.5t15.5 13.5t10 17t5.5 16q1 5 1.5 10t0.5 12q0 17 -9 34t-29 26q-15 6 -27.5 3t-21.5 -12t-14 -22.5t-6 -28.5z" />
<glyph unicode="&#x2c6;" horiz-adv-x="447" d="M329 831q17 -1 13 19q-4 19 -9.5 43t-10.5 51t-10 54.5t-8 52.5q-2 16 -5 23t-9 16q-7 8 -14.5 14t-15.5 14q-8 6 -14 5.5t-14 -11.5q-16 -20 -32 -43t-30 -46.5t-26.5 -45t-20.5 -37.5q-9 -17 1 -36q6 -11 11.5 -19t11.5 -16q7 -9 12 -9t10 9q16 26 34.5 55.5t40.5 60.5 q8 -36 14 -68t12 -54q8 -22 24 -26q10 -4 18.5 -5t16.5 -1z" />
<glyph unicode="&#x2dc;" horiz-adv-x="495" d="M336 852q30 0 67 37q39 36 39 65q0 13 -13 23q-11 7 -24 7q-14 0 -28 -14q-2 -3 -7 -9t-10.5 -13t-10.5 -11.5t-8 -4.5q-19 2 -37 15t-35 20q-15 7 -28 10.5t-27 3.5q-12 0 -29 -7.5t-33.5 -18.5t-30 -24t-18.5 -23q-6 -14 -6 -26q0 -28 31 -28q19 0 30 10q1 0 6 5 t11 11.5t13 11.5t13 5q7 0 17 -2t20 -5.5t19 -8t14 -9.5q20 -20 65 -20z" />
<glyph unicode="&#x2000;" horiz-adv-x="563" />
<glyph unicode="&#x2001;" horiz-adv-x="1126" />
<glyph unicode="&#x2002;" horiz-adv-x="563" />
<glyph unicode="&#x2003;" horiz-adv-x="1126" />
<glyph unicode="&#x2004;" horiz-adv-x="375" />
<glyph unicode="&#x2005;" horiz-adv-x="281" />
<glyph unicode="&#x2006;" horiz-adv-x="187" />
<glyph unicode="&#x2007;" horiz-adv-x="187" />
<glyph unicode="&#x2008;" horiz-adv-x="140" />
<glyph unicode="&#x2009;" horiz-adv-x="225" />
<glyph unicode="&#x200a;" horiz-adv-x="62" />
<glyph unicode="&#x2010;" horiz-adv-x="395" d="M-56 492q20 6 48 12t59.5 10.5t64 7t62.5 2.5q27 0 46 -37q10 -22 16 -41t13 -37q7 -22 3 -29t-20 -8q-53 -5 -109.5 -14t-104.5 -26q-13 -5 -24 1t-24 27q-13 20 -22.5 39t-17.5 39q-19 46 10 54z" />
<glyph unicode="&#x2011;" horiz-adv-x="395" d="M-56 492q20 6 48 12t59.5 10.5t64 7t62.5 2.5q27 0 46 -37q10 -22 16 -41t13 -37q7 -22 3 -29t-20 -8q-53 -5 -109.5 -14t-104.5 -26q-13 -5 -24 1t-24 27q-13 20 -22.5 39t-17.5 39q-19 46 10 54z" />
<glyph unicode="&#x2012;" horiz-adv-x="395" d="M-56 492q20 6 48 12t59.5 10.5t64 7t62.5 2.5q27 0 46 -37q10 -22 16 -41t13 -37q7 -22 3 -29t-20 -8q-53 -5 -109.5 -14t-104.5 -26q-13 -5 -24 1t-24 27q-13 20 -22.5 39t-17.5 39q-19 46 10 54z" />
<glyph unicode="&#x2013;" horiz-adv-x="555" d="M18 410q31 5 74 10t91 8.5t98 6t95 2.5q43 0 60 -31q11 -18 16 -34.5t10 -30.5q6 -18 -2.5 -24t-31.5 -7q-81 -4 -167 -11.5t-162 -21.5q-22 -4 -37 1t-30 22q-28 34 -42 65q-19 39 28 45z" />
<glyph unicode="&#x2014;" horiz-adv-x="844" d="M18 410q-47 -6 -28 -45q13 -29 42 -65q15 -17 30 -22t37 -1q25 5 77 8.5t117 6.5t136.5 5.5t137 4.5t118.5 3.5t80 2.5q23 1 31.5 7t2.5 24q-5 14 -10 30.5t-16 34.5q-16 31 -60 31q-30 0 -87.5 -1t-127.5 -2.5t-146 -4t-143.5 -5.5t-118.5 -6t-72 -6z" />
<glyph unicode="&#x2018;" horiz-adv-x="262" d="M91 602q14 -32 36 -44q10 -5 22.5 -8.5t23.5 -5.5q29 -4 19 31q-7 25 -16 61t-18.5 75.5t-18.5 78t-15 67.5q-7 34 -37 24q-12 -7 -23.5 -13.5t-19.5 -14.5q-9 -11 -11.5 -21t-1.5 -21.5t4.5 -27t6.5 -38.5q10 -39 23.5 -79.5t25.5 -63.5z" />
<glyph unicode="&#x2019;" horiz-adv-x="232" d="M148 604q5 15 10.5 37.5t10.5 47.5t9 51t6 47q1 21 -1.5 34.5t-16.5 28.5q-10 10 -22 18.5t-25 15.5q-15 8 -23.5 5t-10.5 -24q-3 -28 -7.5 -65.5t-10 -76t-10.5 -74t-9 -59.5q-6 -34 22 -33q28 0 46 7q11 5 18 14t14 26z" />
<glyph unicode="&#x201a;" horiz-adv-x="232" d="M148 -100q5 15 10.5 37.5t10.5 47.5t9 51t6 47q1 21 -1.5 34.5t-16.5 28.5q-10 10 -22 18.5t-25 15.5q-15 8 -23.5 5t-10.5 -24q-3 -28 -7.5 -65.5t-10 -76t-10.5 -74t-9 -59.5q-6 -34 22 -33q29 0 46 7q11 5 18 14t14 26z" />
<glyph unicode="&#x201c;" horiz-adv-x="388" d="M228 602q8 -17 16 -27.5t20 -16.5q10 -5 22.5 -8.5t23.5 -5.5q29 -4 19 31q-7 25 -16 61t-18.5 75.5t-18.5 78t-15 67.5q-7 34 -37 24q-12 -7 -23.5 -13.5t-19.5 -14.5q-13 -14 -14.5 -26.5t3.5 -33.5q3 -21 9.5 -48t14.5 -53.5t17 -50.5t17 -39zM83 611q10 -17 18.5 -26 t21.5 -14q11 -4 23 -5.5t24 -2.5q27 -1 14 33q-8 24 -20.5 59.5t-26 74t-26 76t-20.5 65.5q-10 37 -38 19q-23 -14 -39 -33q-14 -19 -9.5 -44.5t18.5 -65.5q14 -38 30 -75.5t30 -60.5z" />
<glyph unicode="&#x201d;" horiz-adv-x="384" d="M148 604q5 15 10.5 37.5t10.5 47.5t9 51t6 47q1 21 -1.5 34.5t-16.5 28.5q-10 10 -22 18.5t-25 15.5q-15 8 -23.5 5t-10.5 -24q-3 -28 -7.5 -65.5t-10 -76t-10.5 -74t-9 -59.5q-6 -34 22 -33q31 0 46 7q11 5 18 14t14 26zM292 592q9 16 19.5 45t19 60t13.5 59t4 43 t-14 31q-8 11 -19.5 20.5t-23.5 19.5q-29 23 -37 -14q-5 -28 -13 -64t-17 -73t-18 -71t-15 -56q-11 -33 19 -36q26 -6 46 1q12 2 20 10.5t16 24.5z" />
<glyph unicode="&#x201e;" horiz-adv-x="384" d="M148 -96q5 15 10.5 37.5t10.5 47.5t9 51t6 47q1 21 -1.5 34.5t-16.5 28.5q-10 10 -22 18.5t-25 15.5q-15 8 -23.5 5t-10.5 -24q-3 -28 -7.5 -65.5t-10 -76t-10.5 -74t-9 -59.5q-6 -34 22 -33q31 0 46 7q11 5 18 14t14 26zM292 -108q9 16 19.5 45t19 60t13.5 59t4 43 t-14 31q-8 11 -19.5 20.5t-23.5 19.5q-29 23 -37 -14q-5 -28 -13 -64t-17 -73t-18 -71t-15 -56q-11 -33 19 -36q26 -6 46 1q12 2 20 10.5t16 24.5z" />
<glyph unicode="&#x2022;" horiz-adv-x="324" d="M23 375q-2 -41 7.5 -73.5t27 -55.5t41.5 -34.5t51 -9.5q26 0 47 13t36 32t24.5 40t12.5 37q2 12 3.5 24t1.5 27q0 20 -5.5 41t-16.5 40t-28 34.5t-40 26.5q-35 14 -64 7t-50 -28.5t-33.5 -53t-14.5 -67.5z" />
<glyph unicode="&#x2026;" horiz-adv-x="751" d="M509 73q-2 -46 21 -73t53 -25q15 0 27 7.5t20 18t13.5 22.5t7.5 21q3 13 3 29t-5.5 31.5t-16.5 28.5t-29 21q-20 8 -36.5 4t-29 -16t-20 -30t-8.5 -39zM244 73q-2 -46 21 -73t53 -25q15 0 27 7.5t20 18t13.5 22.5t7.5 21q3 13 3 29t-5.5 31.5t-16.5 28.5t-29 21 q-20 8 -36.5 4t-29 -16t-20 -30t-8.5 -39zM-19 73q-2 -46 19.5 -73t52.5 -25q15 0 27 7.5t20 18t13.5 22.5t7.5 21q3 13 3 29t-5.5 31.5t-16.5 28.5t-29 21q-20 8 -36.5 4t-28.5 -16t-19 -30.5t-8 -38.5z" />
<glyph unicode="&#x202f;" horiz-adv-x="225" />
<glyph unicode="&#x2039;" horiz-adv-x="348" d="M258 450q14 6 16 14.5t-8 23.5q-15 25 -36 51q-8 10 -15.5 13.5t-16 2t-20 -7t-28.5 -13.5q-31 -17 -66 -38.5t-59 -39.5q-11 -6 -16.5 -17.5t-8.5 -26t-4 -30t-3 -29.5q-3 -9 -1 -28q2 -11 11 -17q51 -28 101.5 -57t95.5 -61q14 -11 20.5 -8t11.5 20q6 22 9 58 q1 17 -4.5 27.5t-17.5 20.5q-19 14 -44 30t-54 33q35 22 69 42t68 37z" />
<glyph unicode="&#x203a;" horiz-adv-x="370" d="M299 397q-6 -39 -15 -68q-5 -17 -11.5 -24.5t-20.5 -14.5q-51 -20 -91 -39.5t-78 -42.5q-11 -8 -18.5 -7t-19.5 13q-11 11 -23 27.5t-23 33.5q-8 14 -4 23t13 15q28 17 68 36.5t83 36.5q-24 14 -47.5 26.5t-46.5 23.5q-15 6 -19.5 13t-9.5 25q-2 15 -2.5 37t1.5 39 q2 14 10.5 17t19.5 -2q21 -9 47 -22.5t55 -29.5t58 -33.5t56 -35.5q12 -8 17 -16.5t1 -30.5z" />
<glyph unicode="&#x205f;" horiz-adv-x="281" />
<glyph unicode="&#x20ac;" horiz-adv-x="512" d="M51 397q4 1 7 1q4 0 8 1q-3 -18 -5.5 -36t-4.5 -36q-17 -2 -33 -5.5t-32 -6.5q-12 -3 -18.5 -13t0.5 -28q5 -14 12.5 -31.5t15.5 -31.5q8 -15 17.5 -19.5t25.5 -0.5q3 1 5 1q3 0 5 1q5 -59 21 -102q9 -28 26.5 -49t34.5 -32q20 -10 45.5 -21.5t56.5 -15.5q30 -4 60.5 7.5 t49.5 30.5q18 20 36 50t29 65q10 30 8.5 50t-26.5 30q-61 25 -99 -32q-52 -82 -79 -68q-15 6 -21.5 36.5t-6.5 74.5q29 4 58.5 6t60.5 4q14 1 18.5 7t-0.5 23q-4 14 -8.5 28t-12.5 30q-12 28 -39 28q-16 1 -32.5 0.5t-34.5 -1.5q2 9 3.5 18t3.5 18q2 8 4 16.5t4 17.5 q26 1 52.5 0.5t53.5 -1.5q14 -2 19 4t1 23q-3 14 -7.5 28t-10.5 31q-10 28 -39 31l-30 3q19 48 37.5 78.5t32.5 25.5q12 -6 14.5 -27.5t2.5 -47.5q0 -8 0.5 -16t1.5 -16q6 -42 24 -66.5t58 -35.5q21 -6 26 2.5t9 22.5q6 30 8 74t0 81q-2 32 -10.5 57t-32.5 50 q-23 20 -57.5 37.5t-67.5 21.5q-22 2 -47 -6t-50 -36q-32 -37 -58 -87.5t-46 -109.5q-25 -2 -48 -4.5t-44 -5.5q-12 -2 -19 -10.5t-2 -27.5q4 -15 10.5 -32.5t13.5 -31.5q8 -17 17 -21.5t25 -2.5z" />
<glyph unicode="&#x2122;" horiz-adv-x="629" d="M335 582q4 -52 10 -103t13 -92q3 -20 7.5 -27.5t12.5 -12.5q6 -3 12.5 -5.5t14.5 -4.5q11 -3 13.5 0.5t6.5 15.5q6 20 16 49.5t21.5 62t23.5 65.5t22 60q-5 -31 -10 -65t-8.5 -65.5t-6.5 -58t-4 -43.5q-2 -15 1 -24t13 -16q7 -5 16.5 -9.5t18.5 -7.5q11 -4 14.5 1t5.5 16 q3 31 10 81t15.5 104.5t16.5 106t14 86.5q3 16 0.5 24.5t-13.5 15.5q-16 9 -32.5 16t-30.5 12q-23 9 -33 -4.5t-25 -56.5q-8 -19 -16.5 -41t-16.5 -44.5t-15.5 -44.5t-13.5 -41q-6 52 -9 82t-4.5 46t-2 22t-0.5 10q-2 19 -6 30t-21 19q-13 7 -26 11.5t-31 8.5q-12 2 -18 -2 t-10 -20q-6 -33 -14 -84.5t-15.5 -106.5t-13 -106.5t-7.5 -84.5q-2 -16 1.5 -24t12.5 -15q8 -6 17 -10.5t18 -7.5q10 -3 13.5 0t5.5 14q5 51 15 123.5t22 144.5zM240 692q11 1 12.5 5t-0.5 15q-7 26 -20 47q-4 6 -8.5 9t-15.5 3q-20 -1 -46 -3.5t-53 -6.5t-52.5 -8.5 t-46.5 -9.5q-6 -2 -8.5 -5.5t1.5 -14.5t9 -26t13 -26q7 -10 12.5 -12t13.5 1q7 2 16.5 4t20.5 4q-6 -34 -12.5 -75.5t-11.5 -83t-9.5 -80t-5.5 -66.5q-4 -23 5.5 -33t26.5 -18q17 -7 26.5 -10t11.5 14q6 42 12.5 89t14 95t15.5 94.5t15 88.5q18 2 34 4.5t30 4.5z" />
<glyph unicode="&#xe000;" horiz-adv-x="770" d="M0 770h770v-770h-770v770z" />
<glyph unicode="&#xfb01;" horiz-adv-x="604" d="M-14 18q13 -8 29.5 -17t31.5 -13t26 0t12 22q8 54 18.5 121.5t23.5 139.5q35 11 72.5 21t72.5 18q17 3 21.5 11t-0.5 28q-4 17 -8.5 34.5t-12.5 35.5q-14 30 -44 27q-19 -1 -37 -3t-36 -5q10 46 16.5 87.5t14.5 74.5q16 3 41.5 8t55 11t59.5 12.5t56 11.5 q-10 -65 -21 -143t-20 -153.5t-16 -142t-9 -108.5q-2 -26 2.5 -40.5t19.5 -25.5q14 -11 30 -18t33 -14q17 -6 23 -1t9 22q6 44 13.5 98.5t16.5 113.5t18.5 120t19 117.5t18.5 106.5t17 87q6 24 -5 49t-32 44.5t-49.5 30.5t-57.5 7q-34 -5 -87.5 -13.5t-108.5 -18.5 t-104 -20.5t-74 -19.5q1 -39 -3 -93.5t-11 -116.5t-16 -126t-17 -122t-14 -105t-8 -74q-1 -26 2 -40t19 -26z" />
<glyph unicode="&#xfb02;" horiz-adv-x="705" d="M617 42q20 6 22 13t-3 28q-3 17 -8.5 35t-13.5 35q-8 18 -18 23.5t-27 3.5q-30 -3 -56.5 -7t-55.5 -11q10 64 22 132t24 134t24 127t23 110q8 32 -3.5 54.5t-32 37t-45.5 20.5t-45 5q-35 -2 -90.5 -8.5t-114 -15t-109.5 -18.5t-76 -19q1 -39 -3 -93.5t-11 -116.5 t-16 -126t-17 -122t-14 -105t-8 -74q-1 -26 2 -40t19 -26q13 -8 29.5 -17t31.5 -13t26 0t12 22q8 54 18.5 121.5t23.5 139.5q35 11 72.5 21t72.5 18q17 3 21.5 11t-0.5 28q-4 17 -8.5 34.5t-12.5 35.5q-14 30 -44 27q-19 -1 -37 -3t-36 -5q10 46 16.5 87.5t14.5 74.5 q14 3 38 6.5t52 7.5t58 8t57 8q-11 -62 -22.5 -131.5t-21 -137t-17 -128t-10.5 -105.5q-3 -24 2.5 -41.5t16.5 -31.5q15 -18 24 -29.5t20 -22.5q9 -9 22 -15.5t42 5.5q40 12 84 24.5t86 24.5z" />
</font>
</defs>
</svg>
