<?xml version="1.0" standalone="no"?>
<!DOCTYPE svg PUBLIC "-//W3C//DTD SVG 1.1//EN" "http://www.w3.org/Graphics/SVG/1.1/DTD/svg11.dtd" >
<svg xmlns="http://www.w3.org/2000/svg">
<metadata></metadata>
<defs>
<font id="komika_text_kapsbold_italic" horiz-adv-x="611" >
<font-face units-per-em="1000" ascent="800" descent="-200" />
<missing-glyph horiz-adv-x="262" />
<glyph horiz-adv-x="1000" />
<glyph horiz-adv-x="1000" />
<glyph unicode="&#xd;" horiz-adv-x="500" />
<glyph unicode=" "  horiz-adv-x="262" />
<glyph unicode="&#x09;" horiz-adv-x="262" />
<glyph unicode="&#xa0;" horiz-adv-x="262" />
<glyph unicode="!" horiz-adv-x="222" d="M235 240l103 347q4 15 9 33q3 15 3 28q0 14 -4.5 24.5t-13.5 17t-25 6.5q-21 0 -35.5 -7.5t-24 -19.5t-15 -26.5t-7.5 -27.5q-1 -3 -1 -9l-2 -7l-99 -354v1q-10 -23 -15 -46t2.5 -37t32.5 -14q38 0 59.5 25.5t32.5 65.5zM194 62l2 10q5 26 -6 41.5t-43 15.5 q-17 0 -33.5 -7t-31 -19.5t-25 -29.5t-16.5 -36l-1 -8q-5 -21 5 -39t40 -18q41 0 66.5 18t42.5 72z" />
<glyph unicode="&#x22;" horiz-adv-x="344" d="M244 490l36 128q1 3 1 6q0 4 1 7q1 12 2 25t-2.5 24t-13 18t-29.5 7q-35 0 -52 -24t-24 -56l-1 -7v-7l-25 -119v2q-3 -7 -3.5 -9.5t-2.5 -13.5q-2 -10 -3 -21t2 -21.5t10 -18t21 -9.5h7q25 0 46.5 25.5t29.5 63.5zM447 617q1 4 1.5 7.5t2.5 8.5q1 5 2.5 10t2.5 10 q2 10 2 19q0 10 -4 17.5t-13.5 11.5t-26.5 4q-21 0 -34.5 -8t-21.5 -20.5t-12.5 -29t-7.5 -33.5l-27 -123l-2 -14q-6 -31 -2.5 -52.5t31.5 -23.5h5q30 0 49.5 27t27.5 67l-1 1z" />
<glyph unicode="#" horiz-adv-x="699" d="M776 453q3 15 -9 28.5t-43 13.5q-13 0 -28 -3h-9l35 61v-1q33 45 39 74q7 39 -36 39q-17 0 -27.5 -3t-19.5 -12t-19 -26t-25 -44v1l-52 -89h-89l43 76q22 31 27 55q4 20 -5 31t-34 11q-16 0 -29 -8.5t-23.5 -21t-17.5 -26t-10 -22.5l-56 -95h-48q-85 0 -100 -49l-1 -7 q-5 -25 9.5 -33.5t41.5 -8.5h12q7 0 14 1h16l-78 -134h-37q-43 0 -70 -12.5t-34 -38.5q-2 -8 -2.5 -17t3.5 -16.5t14.5 -12t31.5 -4.5q5 0 10 0.5t11 1.5h16l-43 -76q-29 -50 -33 -72q-4 -20 6 -28.5t37 -8.5q11 0 23 8.5t23.5 21t21 28.5t15.5 31l-2 -2l56 98h90l-47 -84v1 q-23 -33 -26 -55q-5 -26 7.5 -35.5t29.5 -11.5h3q12 0 24 9.5t23.5 23.5t21.5 30.5t18 31.5l-1 -1l51 91h31q3 0 6.5 -0.5t6.5 -0.5q12 -1 22 -1h18q31 0 46 11t26 49l1 7q2 12 -1 18.5t-12.5 10t-27.5 4.5t-46 1h-11l76 134h27q11 -1 21 -1h19q29 0 49 9.5t25 31.5v6 q4 8 5 12zM436 395h89l-77 -134h-89z" />
<glyph unicode="$" horiz-adv-x="500" d="M556 283q2 5 3 10.5t2 11.5q7 38 3 65.5t-17 45.5t-34 26.5t-47 8.5q-22 0 -44 -7l24 86q17 -2 27.5 -8.5t16.5 -11.5q35 -30 58 -30q38 0 54 58l1 5q4 19 -6.5 36t-29 30t-42.5 20.5t-48 9.5l3 11l-1 -2q2 5 5 12t5 14q4 19 -3 35t-35 16h-5q-17 -2 -29.5 -9t-21 -16.5 t-13 -20.5t-6.5 -21v-6l-1 -3l-6 -19q-36 -11 -72.5 -33t-68.5 -52.5t-57 -68.5t-37 -81v1q-2 -4 -2.5 -8t-1.5 -9q-6 -30 -0.5 -53.5t18 -40.5t30 -26t35.5 -9q22 0 54 17l-45 -161q-11 -3 -18 -3q-35 0 -47 1t-11 3q0 2 5.5 2.5l5.5 0.5q8 19 9.5 24.5t2.5 8.5 q5 28 -6.5 43t-29.5 15q-20 0 -39.5 -16.5t-30.5 -48.5q0 -2 -1 -3.5t-1 -3.5l-1 -6q-6 -31 3 -52.5t27.5 -36t45 -22.5t56.5 -11l-12 -43v1q-3 -8 -4.5 -15.5t-3.5 -15.5q-12 -62 35 -62q20 0 33 7.5t22 20t14 29t9 34.5l13 49q39 11 78 34.5t73.5 58.5t62.5 81t44 103z M453 292q-17 -58 -48.5 -98t-69.5 -60l58 204q25 11 46 11q26 0 17 -43q0 -6 -3 -13v-1zM244 367q-5 0 -5.5 6.5t1.5 16.5q0 2 0.5 3.5l1.5 4.5q11 38 37.5 68t58.5 48l-34 -120q-18 -11 -34 -19t-26 -8z" />
<glyph unicode="%" horiz-adv-x="662" d="M679 620v3q5 25 -10.5 43t-38.5 18q-17 0 -33 -9.5t-32 -31.5q-60 -91 -109 -164t-87.5 -130.5t-68 -101.5t-51.5 -77l-50 -75t-27 -41t-11 -18.5t-3 -8.5l-1 -6q-5 -26 5.5 -41t31.5 -15q18 0 42.5 15t47.5 47q60 89 108 160.5t86 128t66.5 98.5t49.5 73 q29 43 45.5 67.5t25 38t11 18.5t3.5 9zM677 132l2 13q4 24 1.5 45t-12 37.5t-25.5 26t-39 9.5q-34 0 -68 -9t-64 -29t-54 -52.5t-38 -80.5v1q-2 -4 -2.5 -8t-1.5 -9q-4 -19 -3 -39.5t10 -37t27.5 -27.5t49.5 -11q24 0 56.5 11.5t64.5 33.5t58.5 54t37.5 72zM461 549 q2 4 2.5 8t1.5 9q10 51 -15.5 82.5t-81.5 31.5q-30 0 -60.5 -12t-57.5 -33t-48 -49.5t-30 -61.5q-1 -2 -1.5 -3.5t-1.5 -3.5v-5q-4 -20 -1.5 -41t13 -38t29 -28t47.5 -11q24 0 55 12.5t61 33.5t54 49.5t34 60.5v-1zM499 65q-11 0 -12.5 6t-0.5 13l3 12q8 28 28 44.5t39 16.5 q12 0 16 -3.5t2 -8.5l-2 -11q-4 -14 -12.5 -26.5t-19 -22t-21.5 -15t-20 -5.5zM285 497q-3 0 -7 2t-2 16l1 7q7 20 26.5 36.5t36.5 16.5q11 0 15 -5.5t3 -10.5q-3 -12 -12 -23t-20 -19.5t-22 -14t-19 -5.5z" />
<glyph unicode="&#x26;" horiz-adv-x="627" d="M636 266l-1 -1q19 19 22 34q2 12 -3.5 20t-15.5 13.5t-23.5 8t-27.5 2.5q-13 0 -22.5 -5t-17 -13.5t-13 -18t-9.5 -18.5q-2 -3 -4 -7t-4 -6q-2 -3 -4.5 -6.5t-4.5 -5.5q-3 -3 -5 -6l-4 -6q-11 27 -21 54t-19 52q-5 11 -8.5 22t-6.5 21q23 13 48 30.5t46.5 39t38 45.5 t23.5 49l1 7q5 26 -4.5 46t-28.5 34t-45 21.5t-55 7.5q-66 0 -112 -24.5t-65 -89.5l-2 -9q-5 -27 -1 -57t12 -56q-83 -43 -141.5 -106.5t-85.5 -161.5l-1 -4q-2 -9 -4 -17.5t-4 -16.5q-7 -35 -6.5 -67t12 -56t36 -38.5t65.5 -14.5q58 0 129 30.5t139 80.5l19 -44 q9 -26 23 -37t31 -11q13 0 27 7t26 17.5t21.5 23.5t14.5 25l-62 101q13 13 26.5 28t26.5 30t24.5 28.5t19.5 24.5zM200 70q-10 0 -16 7.5t-9 19.5t-2.5 27t3.5 31q1 5 2 9t3 9q17 65 57 106.5t97 71.5q6 -20 15 -42q12 -32 25.5 -70t27.5 -74q-26 -19 -53 -36.5t-53.5 -30.5 t-51.5 -20.5t-45 -7.5zM410 493q-7 17 -11 34t-1 32l1 5q7 22 44 22q6 0 14.5 -1t16 -3.5t12.5 -6.5t4 -10v-1q-8 -24 -30.5 -41t-49.5 -30z" />
<glyph unicode="'" horiz-adv-x="171" d="M244 490l36 128q1 3 1 6q0 4 1 7q1 12 2 25t-2.5 24t-13 18t-29.5 7q-35 0 -52 -24t-24 -56l-1 -7v-7l-25 -119v2q-3 -7 -3.5 -9.5t-2.5 -13.5q-2 -10 -3 -21t2 -21.5t10 -18t21 -9.5h7q25 0 46.5 25.5t29.5 63.5z" />
<glyph unicode="(" horiz-adv-x="384" d="M543 765l2 10q6 31 -6 45t-34 14q-14 0 -31.5 -6.5t-34.5 -17.5q-109 -71 -178 -179t-114 -267q-7 -23 -12 -45.5t-10 -44.5q-25 -131 -5.5 -225t85.5 -152q20 -16 38 -16q22 0 35.5 18t22.5 45l1 4q2 11 -1.5 21t-10 19t-14 16.5l-13.5 13.5q-1 2 -2.5 2.5t-2.5 2.5 q-7 15 -13.5 41.5t-9.5 61.5t-1 78.5t12 93.5q3 15 6.5 31t8.5 33q37 130 93 222.5t126 134.5q2 2 8 5t13 7q14 7 25.5 14.5t16.5 19.5z" />
<glyph unicode=")" horiz-adv-x="384" d="M442 358l4 22q1 5 2.5 10.5t2.5 10.5q13 66 18 127t-2 114t-27 96.5t-58 75.5q-8 8 -17 10.5t-18 2.5q-23 0 -42.5 -19.5t-27.5 -50.5v-3q-3 -15 3.5 -26t17.5 -23q10 -11 19.5 -23t11.5 -28v1l1.5 -7.5t1.5 -4.5q3 -15 7.5 -38t6.5 -53t0.5 -66.5t-9.5 -78.5 q-2 -11 -5 -22t-6 -23v-2q-11 -37 -19.5 -65.5t-18.5 -53.5t-22.5 -48t-30.5 -49t-42 -58t-58 -74q-2 -2 -5.5 -4t-6.5 -4h1q-21 -12 -45 -29.5t-30 -42.5l-1 -5q-3 -14 0.5 -24.5t11.5 -17t19 -9.5t22 -3q28 0 42 13h-1q64 57 110.5 108.5t81.5 106t61 116.5t47 141z" />
<glyph unicode="*" horiz-adv-x="531" d="M637 580q7 37 -4.5 49t-50.5 12q-5 0 -12 3q-5 2 -12.5 3.5t-15.5 1.5q-2 0 -3 -0.5t-2 -0.5h-5q-15 -2 -24.5 -3t-15.5 -1q-29 0 -34 11l1 -1q-5 15 3 63q9 52 4 73l-1 -1q-6 40 -54 40q-14 -1 -26.5 -7.5t-23 -16.5t-18 -22.5t-10.5 -25.5l-1 -5v-4q-2 -11 -3 -21.5 t-1 -21.5l-26 36q-24 27 -58 27q-22 0 -39 -15.5t-22 -36.5q-4 -23 19 -66l29 -49q-9 -4 -24 -4h-2q-19 0 -23 -2l1 1q-20 -5 -38.5 -19.5t-21.5 -32.5q-8 -40 18 -69q31 -28 67 -28q4 0 9 0.5t10 1.5t11 1.5t8 0.5q16 0 19 -5q5 -6 0 -30q-1 -5 -2.5 -10.5t-2.5 -10.5 q-2 -6 -3.5 -12.5t-2.5 -10.5q-10 -58 35 -90q6 -5 29 -5q39 0 59 55q15 46 26 65q6 -3 15.5 -7t23.5 -11h-1q33 -20 44 -20q21 0 39.5 17.5t23.5 38.5q5 26 -26 53q-9 8 -15.5 13.5t-9.5 10.5q8 2 15.5 3.5t15.5 3.5l42 9q55 16 67 72z" />
<glyph unicode="+" horiz-adv-x="543" d="M498 275h-101l26 89q3 5 5.5 11t4.5 14q1 13 4 16l1 8q6 30 -6.5 44t-32.5 14q-22 0 -44 -15.5t-30 -44.5q-2 -7 -8 -18q-2 -6 -4 -11.5t-3 -10.5q0 -1 0.5 -1.5t0.5 -1.5l-1 -1l-26 -92h-91q-4 2 -10 2q-16 0 -18 -1t-7 -2q-4 -1 -7 -1h-3q-36 0 -57.5 -19t-26.5 -41 q-4 -20 7.5 -35t41.5 -15l11 -2q5 -1 11.5 -1.5t14.5 -0.5q5 0 9 0.5t9 2.5h84l-25 -92l-1 -3l2 4q-5 -7 -8 -17t-5 -19l-3 -16q-2 -5 -4 -13q-5 -29 7.5 -41.5t32.5 -12.5q21 0 43 14t30 39q1 5 4 14.5t6 20.5q4 12 6.5 24t4.5 19l23 79h98q5 -2 8.5 -2.5t8.5 -0.5 q9 0 14 1l10 2t8 1q17 0 31.5 6t26 16t19 21.5t9.5 23.5q3 18 -6.5 32t-38.5 14z" />
<glyph unicode="," horiz-adv-x="214" d="M198 24q2 5 2.5 10t2.5 10q7 38 -6.5 59.5t-55.5 21.5q-25 0 -43.5 -6.5t-31 -17t-20 -24.5t-10.5 -28t-1 -26t7 -23q10 -19 7 -31q-3 -14 -16.5 -21.5t-27.5 -12.5q-10 -4 -16.5 -7.5t-9.5 -10.5l-2 -9q-5 -26 7 -34t30 -8q30 0 60 15.5t55.5 38.5t43.5 51t25 53z" />
<glyph unicode="-" horiz-adv-x="386" d="M393 224q28 0 46.5 17t22.5 38q5 21 -9.5 39t-52.5 18q-4 0 -7 0.5t-8 0.5h2q-5 1 -11 1h-10q-11 0 -23 -3h-136q-3 1 -13 1q-6 0 -14 -0.5t-14 -1.5q-5 -1 -8 -1h-4q-30 0 -48 -17t-22 -37q-4 -22 8 -40t43 -18q1 0 11 -2q5 -1 10.5 -1.5t12.5 -0.5q14 0 23 5l131 1z " />
<glyph unicode="." horiz-adv-x="199" d="M194 62q2 4 2.5 8.5t2.5 9.5q2 12 2 25t-5 23t-16 16.5t-30 6.5q-22 0 -42.5 -8.5t-37 -21.5t-28 -28.5t-15.5 -30.5l-1 -6q-3 -15 0.5 -30t12 -27t21 -19.5t28.5 -7.5q22 0 40 9t31.5 22.5t22 29.5t12.5 30v-1z" />
<glyph unicode="/" horiz-adv-x="403" d="M536 629q4 19 -2 31.5t-31 12.5q-21 0 -36 -5t-25 -12.5t-16.5 -16.5t-11.5 -17q-17 -28 -42 -70t-54.5 -91.5t-62 -102.5t-63.5 -103.5t-59 -95t-48 -76.5q-35 -55 -41 -82q-4 -22 6.5 -32.5t39.5 -10.5q14 0 26 7t22 17.5t18.5 22.5t14.5 22q4 7 7 11t5 6 q14 24 37.5 60t51.5 78q32 48 67.5 102t68.5 106.5t60.5 99t43.5 80.5h-1q8 14 15.5 30t9.5 29z" />
<glyph unicode="0" horiz-adv-x="405" d="M61 251q-10 -53 -6.5 -100t19.5 -83t45 -57t70 -21q43 0 82.5 23.5t71.5 64t55.5 94t35.5 112.5l1 5q8 42 11.5 89t-5 87.5t-32.5 67t-70 26.5q-20 0 -37 -1.5t-32.5 -6.5t-31.5 -14.5t-34 -24.5q-53 -44 -90.5 -113.5t-52.5 -147.5zM179 250q9 50 27 92t39 65 q5 6 13.5 13t17.5 12.5t16.5 9t12.5 3.5q14 0 22 -11.5t11 -32t0.5 -48t-8.5 -59.5q-6 -33 -16 -64.5t-24 -57t-34 -42t-46 -18.5q-26 2 -35.5 36t4.5 102z" />
<glyph unicode="1" horiz-adv-x="200" d="M108 340q-11 -34 -22 -71.5t-20 -81.5q-5 -23 -9 -52t-9 -59q-2 -6 -2 -12t-2 -12q-2 -7 -2.5 -13t-1.5 -11q-1 -9 7 -17t19 -13h-1q6 -5 14.5 -6.5t16.5 -1.5q30 0 39.5 12.5t13.5 33.5q9 39 15 73l3 16q15 69 29.5 128t33.5 100q8 17 14.5 39t17.5 59q1 7 4.5 18.5 t5.5 17.5q0 2 1 4q1 16 -7 26.5t-18 16.5t-18.5 8t-9.5 2q-17 0 -38 -9.5t-40.5 -21.5t-33 -23t-13.5 -14q-8 -40 37 -53q-4 -17 -9.5 -36.5t-12.5 -39.5q0 -2 -1 -3.5t-1 -3.5z" />
<glyph unicode="2" horiz-adv-x="406" d="M264 178l18 18q15 14 28 27t26 24q66 59 98.5 112t37.5 79l1 2q8 45 -15.5 72.5t-73.5 27.5q-26 0 -54 -6t-58 -20q-23 -11 -52.5 -28t-56.5 -37t-47 -40.5t-23 -37.5q-2 -11 2 -21.5t11.5 -19t16 -13.5t15.5 -5q19 3 39.5 15.5t52.5 38.5q14 11 30.5 21.5t32 19 t29.5 13.5t23 5q7 0 7 -5q-2 -8 -19 -28.5t-44 -49t-59 -61t-64 -62.5t-59 -55.5t-44 -39.5q-24 -20 -38.5 -34t-22.5 -23.5t-11.5 -15t-4.5 -9.5q-4 -21 5 -36t33 -15q13 2 17.5 3t15.5 3q29 6 72.5 13.5t87.5 7.5q33 0 54.5 -0.5t35.5 -1.5t21 -2t11 -2q2 0 4 -0.5t3 -0.5 h7q25 0 39 16.5t19 38.5q8 41 -23 55.5t-106 14.5q-31 0 -65 -3q10 9 19.5 18t20.5 20l4.5 4.5t3.5 4.5z" />
<glyph unicode="3" horiz-adv-x="421" d="M503 419q5 27 -2 49t-22.5 38t-38 24.5t-48.5 8.5q-20 0 -48.5 -7.5t-61 -20t-64.5 -29t-58.5 -34.5t-44.5 -36.5t-21 -35.5q-2 -11 1.5 -22t11 -19.5t17 -14t19.5 -5.5q11 0 20 4l-1 -5q27 25 56 45.5t56 35.5t49.5 23t37.5 8q8 0 13 -2.5t4 -8.5q-3 -16 -26 -34 t-55 -34.5t-67.5 -29.5t-63.5 -17q-23 -2 -32 -13t-14 -33q-2 -13 -0.5 -25.5t6.5 -22.5t12.5 -16t16.5 -6q2 0 3.5 0.5t8.5 2.5q-1 0 -1 -1v0h1t2 1q2 0 3.5 0.5t3.5 0.5q20 8 39.5 11t37.5 3q27 0 43 -8t12 -27q-5 -26 -36.5 -47.5t-82.5 -21.5q-28 0 -47 5t-21 17 q-3 12 -10 19.5t-15.5 11t-15.5 4.5t-10 1q-23 0 -44 -10t-26 -39q-5 -24 7 -45t36 -37t58.5 -25.5t74.5 -9.5q43 0 84 11t75 32.5t58 54t33 76.5q17 86 -46 120q56 31 85.5 62t37.5 73z" />
<glyph unicode="4" horiz-adv-x="478" d="M228 91q-11 -54 1 -76.5t47 -22.5q15 0 28.5 5.5t23.5 13.5t16.5 17.5t8.5 17.5q-3 21 -2 33t3 26q2 11 6 26t10 35q6 1 13 1.5t13 0.5l62 -4h4q11 0 21 6t17.5 15t13 19.5t7.5 19.5q3 19 -3.5 30t-20 16.5t-32 7t-38.5 1.5h-20q13 35 37 85.5t51 101.5l3 5l13 23 q-3 7 -9 17t-13.5 19t-17 15.5t-18.5 6.5q-19 -8 -57.5 -33t-85 -60t-95.5 -75t-90.5 -77.5t-69 -68.5t-30.5 -47q-2 -10 1 -21.5t8.5 -21t13 -15.5t15.5 -6h4q1 0 3 0.5t3 0.5q19 6 44 12t49.5 11t45.5 8.5t34 4.5q-12 -45 -18 -73zM314 343l-14 -32t-15 -36q-16 -1 -30 -2 t-25 -3q29 26 48 43t36 30z" />
<glyph unicode="5" horiz-adv-x="414" d="M245 410q1 3 14 5.5t32.5 4t43 2.5t46.5 1.5t42.5 1t30.5 0.5q25 0 36 15.5t15 33.5q4 22 1.5 35t-9 20t-16.5 9t-20 2h-20q-9 -1 -39 -4t-69.5 -8t-83 -13.5t-79.5 -19.5q-8 -3 -19 -21t-23.5 -43t-24.5 -54.5t-21.5 -54.5t-16 -43t-6.5 -21q-2 -10 0.5 -21t8.5 -20.5 t16 -15.5t24 -6q5 0 10.5 1t14.5 5q30 11 55 17t48 6q37 0 60.5 -18t18.5 -44q-5 -25 -31.5 -38t-68.5 -16h-7q-16 0 -29.5 5t-25 12.5t-21 16.5t-16.5 16q-3 2 -5 4l-4 4q-7 6 -12.5 10t-13.5 4q-25 0 -55 -27l-1 -2q-19 -21 -23 -37q-5 -23 9.5 -45t40.5 -39t60.5 -27.5 t69.5 -10.5q51 0 94.5 14t77 37.5t55 54.5t28.5 66q6 33 -1 64.5t-29 56t-58.5 40t-88.5 15.5q-24 0 -45 -3z" />
<glyph unicode="6" horiz-adv-x="443" d="M377 463q28 22 29 33q5 23 -11.5 40t-41.5 17q-28 0 -66 -27.5t-90 -91.5h1q-43 -52 -69.5 -89.5t-42.5 -66t-23 -50.5t-11 -44q-12 -61 4.5 -99t44.5 -59t57 -28t43 -7q45 0 89.5 19t82 50.5t63.5 72t35 84.5q7 36 0 68.5t-26.5 57t-50 39t-70.5 14.5q-5 0 -10.5 -0.5 t-11.5 -1.5q21 25 41 41.5t34 27.5zM345 212q-13 -35 -28 -56t-31 -32t-31.5 -15t-28.5 -4q-29 0 -44.5 20.5t-7.5 60.5q10 51 41 77t67 26q21 0 32.5 -4t17 -10t7 -13t2.5 -12q-1 -3 -1 -7v-3h5q1 -13 0 -28z" />
<glyph unicode="7" horiz-adv-x="386" d="M97 55l-1 -4q-5 -27 6 -44t43 -17q19 0 33.5 5.5t24.5 13.5t16 16t7 14l1 6q-2 10 -2 15q0 6 2 11q4 19 28 71.5t81 138.5q18 27 36.5 52t36 46.5t31.5 38t23 26.5q16 18 18 26q3 23 -3.5 36t-17 20t-23.5 8.5t-23 1.5l-8 -40q1 0 -6.5 4.5t-22.5 9.5t-36.5 9.5 t-48.5 4.5q-54 0 -76.5 1t-29.5 2h-14q-46 -5 -66.5 -22.5t-23.5 -33.5q-5 -22 8.5 -34t33 -18t39 -7t27.5 -1h7h35q16 0 30.5 0.5t30.5 2.5q-85 -129 -136.5 -223.5t-59.5 -135.5z" />
<glyph unicode="8" horiz-adv-x="413" d="M440 378q15 20 22.5 37t10.5 32t-1 31t-15 29.5t-29.5 22t-45.5 8.5q-26 0 -56 -5t-58.5 -12.5t-53 -16.5t-39.5 -16q-75 -38 -88 -105q-12 -62 43 -134q-51 -43 -76 -76t-31 -66q-5 -27 3 -48.5t27.5 -36.5t48.5 -23.5t67 -8.5q31 0 63 5.5t59 18t46.5 31.5t24.5 46v3 q3 16 0.5 32t-11 33.5t-23 38.5t-35.5 49l37.5 30t44.5 37t40 36.5t25 27.5zM204 381q1 8 14 17t33 17t44.5 13t49.5 6h2q13 0 11 -6q-1 -7 -10 -16.5t-21 -19t-24.5 -18t-20.5 -14.5l2 1l-3.5 -2.5t-4.5 -3.5l-2 -2q-20 -14 -29 -20.5t-13 -8.5q-17 19 -23 37t-5 20z M235 107q-2 -5 -8 -9l1 1q-18 -8 -35 -8q-55 0 -52 19q2 12 15.5 28t36.5 34q45 -50 42 -65z" />
<glyph unicode="9" horiz-adv-x="421" d="M262 18q13 -28 51 -28q22 0 44 10t28 39q1 18 3 33t6 35q8 41 20.5 84.5t27.5 85.5t31.5 81.5t33.5 72.5h-2q13 23 16 30t4 12q1 8 -1.5 17.5t-7.5 18.5t-11 16t-12 10q-7 2 -27 5.5t-46 3.5q-44 0 -79 -7.5t-61.5 -17.5t-44.5 -20t-27 -16q-2 -2 -4 -2q-47 -30 -76 -61 t-45.5 -58.5t-23.5 -49.5t-9 -34q-6 -29 0.5 -53.5t21.5 -42t37 -27t49 -9.5q34 0 71.5 12.5t73.5 31.5zM364 400q-4 -20 -20 -45.5t-39 -48t-51.5 -38t-56.5 -15.5q-14 0 -21.5 7.5t-4.5 20.5q5 25 22.5 51t41 47t49.5 34t49 13q13 0 22 -6t9 -20z" />
<glyph unicode=":" horiz-adv-x="198" d="M270 343l1 7q0 2 1 3.5t1 3.5q7 32 -4 51.5t-43 19.5q-22 0 -40.5 -9t-32.5 -22.5t-24 -31t-14 -33.5l-2 -7q-5 -29 7 -52.5t44 -23.5q41 0 67.5 28.5t38.5 65.5zM194 66l1 7q2 4 2 6q7 32 -4.5 52t-43.5 20q-21 0 -39.5 -9t-32.5 -22.5t-23.5 -31t-13.5 -33.5l-2 -8 q-5 -29 6.5 -52t43.5 -23q41 0 67.5 28.5t38.5 65.5z" />
<glyph unicode=";" horiz-adv-x="198" d="M189 23q2 5 3 10.5t3 10.5q7 38 -6.5 59.5t-55.5 21.5q-23 0 -41 -9.5t-31.5 -23t-22.5 -29t-12 -27.5l-2 -8q-5 -29 9.5 -41.5t34.5 -13.5q-10 -6 -21 -9.5t-20 -6.5q-20 -5 -36 -13t-21 -30l-1 -7q-5 -26 7 -34t30 -8q30 0 60 15.5t55 38.5t43.5 51t25.5 54zM272 343 l1 7q0 2 1 3.5t1 3.5q7 32 -4 51.5t-43 19.5q-21 0 -39.5 -9t-33 -22.5t-24 -31t-13.5 -33.5l-2 -7q-5 -29 6.5 -52.5t43.5 -23.5q41 0 67.5 28.5t38.5 65.5z" />
<glyph unicode="&#x3c;" horiz-adv-x="526" d="M583 392l1 6q5 25 -10.5 40t-38.5 15q-16 0 -32 -8t-27 -23l-305 -138q-24 -11 -37 -26t-16 -30q-2 -14 4 -28t18 -25l221 -179q13 -19 37 -19q12 0 25 4.5t24 13t19.5 19.5t11.5 24l2 9q5 27 -7 34.5t-26 9.5l-170 133l245 111q18 1 35.5 14.5t25.5 42.5z" />
<glyph unicode="=" horiz-adv-x="587" d="M544 278q-16 0 -21 -1t-14 -8h-297q-6 5 -14.5 6t-16.5 1q-32 0 -52 -23t-25 -49q-5 -23 4 -41t36 -18q6 0 16.5 2.5t23.5 8.5h295q9 -4 14 -5t9 -1h3q17 0 31.5 6.5t26 17t19 23t9.5 25.5q5 22 -6 39t-41 17zM639 408l2 8q5 23 -4 42t-35 19q-16 0 -21 -1.5t-18 -8.5 h-295q-9 6 -18.5 7t-13.5 1q-16 0 -29.5 -6.5t-23 -16.5t-16 -22.5t-8.5 -25.5q-5 -23 4.5 -41.5t35.5 -18.5q22 0 38 10h296q8 -5 14.5 -6t14.5 -1q32 0 50.5 16t26.5 45z" />
<glyph unicode="&#x3e;" horiz-adv-x="526" d="M499 182v-1q15 8 27 22.5t16 31.5q2 13 -2.5 25.5t-18.5 21.5l-232 142q-2 11 -14 21t-25 10q-17 0 -32 -6.5t-26.5 -16.5t-19 -22.5t-9.5 -24.5q-3 -17 3.5 -31t27.5 -19l184 -110l-247 -132q-14 -1 -32.5 -9.5t-27.5 -39.5l-2 -6q-5 -30 12 -47t40 -17q13 0 26.5 6.5 t23.5 18.5v1z" />
<glyph unicode="?" horiz-adv-x="531" d="M607 551l1 6q2 4 2 6q6 27 -2.5 50.5t-27 41t-44.5 27t-56 9.5q-33 0 -66.5 -10t-66.5 -25.5t-64 -35t-58 -37.5q-25 -17 -46 -39.5t-28 -45.5l-2 -9q-5 -28 5 -41.5t31 -13.5t49.5 15t60.5 47q42 33 81.5 57.5t72.5 24.5q20 0 33.5 -6t11.5 -17l-1 -3q-3 -9 -14 -20 t-27.5 -23.5t-38 -26.5t-44.5 -29q-33 -21 -67 -44.5t-63.5 -47.5t-51 -49.5t-28.5 -51.5q-3 -10 -5.5 -20t-4.5 -19q-6 -31 6.5 -48.5t56.5 -17.5q17 0 27 14.5t24 38.5q10 17 23.5 39t34.5 45.5t51 47.5t74 45q26 12 51.5 29.5t47.5 39t38 46t24 51.5zM268 36q2 6 3 10 q2 5 3 9.5t3 9.5l-3 -2q4 25 -5.5 40.5t-38.5 15.5q-39 0 -71 -18t-45 -68l-1 -9q-3 -17 0.5 -29t12.5 -19.5t21 -11t25 -3.5q33 0 57 19.5t38 55.5h1z" />
<glyph unicode="@" horiz-adv-x="806" d="M888 406q2 8 4 16.5t4 17.5q9 49 5 93.5t-28 78.5t-69.5 53.5t-118.5 19.5q-63 0 -127 -18t-125 -50t-116.5 -75.5t-101 -94.5t-78.5 -107t-49 -112q-2 -11 -5 -21.5t-5 -21.5q-9 -47 -5.5 -87.5t25 -70.5t63.5 -47.5t109 -17.5q26 0 50 4t43.5 9.5t33.5 11t20 8.5l2 1 q29 1 50.5 22.5t26.5 45.5q4 20 -6.5 34.5t-41.5 14.5q-19 0 -28.5 -7.5t-22.5 -21.5l-6 -7q-18 -10 -29 -15t-20 -7.5t-19.5 -3t-28.5 -0.5q-42 0 -67.5 11.5t-37.5 30.5t-13.5 44t3.5 51q1 13 6 28q10 34 32.5 76t56 84.5t77.5 82.5t96 71t112 49.5t125 18.5q42 0 67 -14 t37 -37t13.5 -51.5t-4.5 -58.5q-2 -8 -3.5 -14.5t-3.5 -14.5q-15 -54 -37 -95.5t-44.5 -70t-43.5 -43t-33 -14.5v6q1 2 1.5 5t2.5 7q1 1 1.5 3.5t1.5 4.5l94 275q3 4 5.5 9t3.5 10q3 15 -3.5 31.5t-33.5 16.5h-2q-11 0 -24.5 -6.5t-22.5 -18.5q-8 2 -12 2h-11 q-40 0 -81.5 -14.5t-80.5 -39t-74 -56t-63.5 -66t-48.5 -69.5t-29 -66q-1 -2 -2 -4.5t-1 -4.5l-2 -7q-8 -41 10.5 -65.5t75.5 -24.5q25 0 52 11t55 28t54.5 38.5t49.5 41.5q-5 -13 -7.5 -25t-4.5 -23q-9 -47 3.5 -72.5t52.5 -25.5q36 0 79 23t84.5 65t77 101t55.5 131z M375 211q-11 0 -13 5t-1 10l1 3q6 24 32 60t62 70t77 58.5t77 24.5q13 0 11 -9v-1q-3 -11 -18 -31t-37 -45t-48.5 -50.5t-52.5 -46.5t-50 -34.5t-40 -13.5z" />
<glyph unicode="A" horiz-adv-x="597" d="M618 81q-4 36 -13 86.5t-20 107.5q-8 42 -15.5 85.5t-13.5 86t-10.5 81.5t-5.5 72l-1 -1q2 34 -10.5 57t-35.5 23q-18 0 -38.5 -16t-43.5 -53v1l-373 -522l1 1q-1 -1 -1.5 -3t-2.5 -4q-7 -11 -16.5 -26.5t-12.5 -32.5q-4 -20 5 -33.5t39 -15.5h4q23 0 41.5 22.5 t41.5 54.5q2 3 4.5 6.5t4.5 6.5l119 173l23 -1t55.5 -2.5t66 -2.5t54.5 -1l2 -9q6 -25 9.5 -39.5t6 -25t4 -21t3.5 -26.5q3 -17 8.5 -40t12 -44t13 -36t11.5 -15h8q32 0 49.5 18t23.5 47q3 19 3 40v1zM452 337l-124 -7l109 161q2 -34 6 -78t9 -76z" />
<glyph unicode="B" horiz-adv-x="613" d="M670 284l2 7q0 2 1 3.5t1 3.5q11 54 -18.5 90t-96.5 44q56 31 83 65t39 74l1 7q8 39 -24 66t-107 27q-69 0 -132.5 -12.5t-119.5 -26.5l-14 -3.5l-14 -3.5q-17 -4 -37.5 -19t-26.5 -44q-2 -10 -1 -14l-121 -446v1q-7 -20 -13 -39.5t-10 -38.5q-5 -25 -0.5 -41t25.5 -16 q45 0 102 9.5t117 28.5t119.5 46t109.5 62t85.5 78t49.5 92zM192 81l64 228q54 12 99.5 19t84.5 7q19 0 41 -1t39.5 -5.5t28.5 -13t8 -22.5l-1 -3q-12 -42 -53.5 -77t-95.5 -62t-112 -45t-103 -25zM286 415l28 100q46 24 99 36.5t110 12.5q13 0 25 -2t11 -7v-1 q-7 -25 -35.5 -48t-68 -41.5t-84.5 -31.5t-85 -18z" />
<glyph unicode="C" horiz-adv-x="574" d="M570 130q10 11 14 19.5t6 16.5q4 18 -7.5 28t-31.5 10q-21 0 -48.5 -12.5t-50.5 -38.5q-10 -13 -29.5 -28t-43.5 -27.5t-49 -21t-46 -8.5q-30 0 -48 12t-26.5 33t-9 48t5.5 57q2 8 3.5 16t4.5 16q16 60 47 118.5t70.5 104.5t86 74.5t93.5 28.5q29 0 43.5 -3.5t19.5 -10.5 q8 -9 15 -16.5t12 -14.5q22 -27 30 -27q29 0 52 20t28 46q2 14 -1 27t-13 24q-33 37 -75 50.5t-93 13.5q-66 0 -133.5 -36.5t-126 -97t-104.5 -138.5t-69 -161q-2 -9 -4.5 -18t-4.5 -19q-11 -53 -6.5 -99.5t24 -81t53.5 -54.5t83 -20q46 0 94.5 15.5t92.5 40.5t81 55t61 60 v-1z" />
<glyph unicode="D" horiz-adv-x="606" d="M705 433q2 6 3.5 13t2.5 13q9 43 3.5 83.5t-27 71.5t-59.5 49.5t-94 18.5q-70 0 -118 -12t-92 -26q-9 -3 -17.5 -5.5t-18.5 -5.5q-35 -11 -55.5 -36t-25.5 -53q-1 -5 -2 -9t-1 -8l-118 -419q-1 -5 -2.5 -11t-2.5 -11q-3 -11 -5.5 -21t-4.5 -20q-6 -30 -0.5 -50t35.5 -20 q28 0 76.5 10.5t107 33t122 58.5t120.5 86.5t103 117.5t70 152zM197 100l121 429q33 17 79.5 31.5t97.5 14.5q33 0 53.5 -10.5t31.5 -28.5t13 -41t-3 -47l-2 -13q-22 -77 -68 -134.5t-102 -98.5t-114.5 -66t-106.5 -36z" />
<glyph unicode="E" horiz-adv-x="531" d="M549 55l1 6q5 28 -8 39t-47 11h-17l-284 -24l50 182l222 24q5 1 11 1.5t12 0.5q24 0 45.5 10t32.5 45l1 7q4 17 -7 32t-53 15h-12q-6 0 -14 -1l-207 -26l42 149l244 16q5 0 11 0.5t11 0.5q21 1 37 2t27.5 6.5t19.5 16.5t14 31l2 7q5 29 -11.5 38.5t-44.5 9.5 q-9 0 -17.5 -0.5t-16.5 -1.5q-5 0 -9 -0.5t-9 -0.5q-90 -6 -141 -8.5t-80 -2.5h-68q-18 0 -32.5 -6.5t-24.5 -17t-16.5 -22.5t-8.5 -22q0 -2 -0.5 -4t-0.5 -5q-2 -11 -6 -26.5t-8 -33.5q-10 -41 -23.5 -97t-33.5 -128l-46 -170q-2 -5 -3.5 -10t-3.5 -10q-4 -13 -7.5 -25 t-5.5 -23q-6 -29 5 -46t52 -17h9q5 0 10 1h-1l317 23q25 0 41.5 5t27 12.5t15.5 17.5t7 19z" />
<glyph unicode="F" horiz-adv-x="485" d="M668 615q2 32 -13 43.5t-49 11.5h-9q-2 0 -5 -0.5t-6 -0.5q-70 -6 -115 -10t-73 -7t-42.5 -5t-23.5 -3q-5 -1 -9 -1t-9 -1h1q-53 -5 -76 -16.5t-28 -40.5q-2 -8 -3 -17.5t1 -19.5q-11 -38 -18.5 -66t-13.5 -49t-10.5 -37t-8.5 -31q-5 -16 -9.5 -33.5t-11.5 -40.5 l-70 -226l-2 -7q-4 -15 -7 -28q-6 -29 1 -41.5t30 -12.5h9t9 1h-1q20 2 32.5 7.5t21 15.5t14.5 25t14 38l61 205l228 34h-1q30 2 47 6.5t27 11.5t14 17t9 23q0 2 1 3t1 3q2 3 2 4q0 2 1 4q5 26 -14.5 35t-47.5 9q-18 0 -34.5 -1.5t-29.5 -3.5q-8 -2 -10 -2l-163 -24l41 148 l256 18q45 5 64 18t27 42z" />
<glyph unicode="G" horiz-adv-x="720" d="M800 367l2 6q5 24 -10.5 35.5t-42.5 11.5q-16 0 -36 -7q-6 -2 -9.5 -3l-7 -2t-8.5 -2t-14 -4q-21 -6 -48 -14.5t-53 -16t-47.5 -13t-31.5 -7.5h1q-21 -2 -38 -10t-29 -19t-19.5 -23.5t-9.5 -24.5q-3 -18 3.5 -30t24.5 -12h4q3 0 8 2l-1 -1q34 8 65.5 16.5t61.5 17.5 q45 13 91 25q-24 -38 -59 -77.5t-79.5 -72t-98 -53.5t-113.5 -21q-35 0 -57 13t-34 35t-14 50.5t4 58.5q1 5 2 10.5t3 10.5q16 59 60 118t101.5 106t121.5 76.5t121 29.5h13q25 -2 40 -5.5t23 -9t10.5 -11t4.5 -11.5q4 -12 10.5 -21t32.5 -9h10t11 1q21 2 33.5 15.5 t16.5 33.5q1 6 1 14t-2 16q-7 40 -47.5 68t-113.5 28q-49 0 -104 -14t-111.5 -40.5t-111 -64.5t-101 -86.5t-82 -107t-53.5 -124.5q-2 -10 -5 -20t-5 -20q-9 -49 -5 -94t26 -79t64 -54.5t108 -20.5q61 0 119.5 16.5t112 45t100.5 67.5t85 84.5t65 95t41 98.5z" />
<glyph unicode="H" horiz-adv-x="615" d="M174 48l66 235l294 9l-56 -207v1q-2 -4 -2.5 -8t-2.5 -9q-5 -27 7 -47t41 -20h5q18 1 30.5 9t21 19t13 24.5t7.5 26.5q2 8 3 15t3 13l142 511l-1 -1q3 8 5.5 16.5t4.5 16.5q4 21 -3.5 34.5t-36.5 13.5q-24 0 -39 -5.5t-24.5 -15t-14.5 -22t-10 -25.5l-62 -230l-296 -12 l53 189l-1 -1q2 4 3.5 10t3.5 13q4 20 -1.5 39t-33.5 23h-8q-15 0 -27.5 -6.5t-21.5 -16t-15.5 -21.5t-10.5 -23q-3 -10 -6.5 -23t-8.5 -30q-8 -29 -18.5 -65t-21 -74t-21 -75.5t-19.5 -70.5l-53 -199q-2 -6 -3 -12t-2 -11q-5 -29 3.5 -42t38.5 -19q1 0 2.5 -0.5t2.5 -0.5h4 q20 0 39 18t27 56z" />
<glyph unicode="I" horiz-adv-x="222" d="M185 55l144 513v-1q2 3 2.5 6.5t2.5 6.5q3 8 6 16.5t5 18.5q4 20 -2.5 34t-32.5 14t-42 -5t-25.5 -15.5t-15 -25.5t-9.5 -36l-148 -522l1 1q-6 -14 -9 -27q-4 -23 4.5 -38.5t37.5 -19.5q1 0 2 -0.5t3 -0.5h5q16 0 26 5.5t17.5 14.5t12.5 21.5t10 26.5q2 4 4 12z" />
<glyph unicode="J" horiz-adv-x="522" d="M517 170l113 401l1 3q2 10 4.5 19t4.5 17q5 25 -2 39t-37 14q-23 0 -38 -9.5t-24.5 -23t-14.5 -29t-9 -28.5l-114 -401q-6 -21 -22.5 -45t-41.5 -44.5t-56.5 -34t-66.5 -13.5q-20 0 -32 2t-18.5 6.5t-9.5 12.5t-4 19q1 5 2.5 11.5t3.5 13.5q2 8 4 15.5t4 15.5q5 24 -2 42 t-39 18h-15q-8 0 -18 -3.5t-20.5 -12.5t-19.5 -24t-16 -38v1q-2 -4 -2.5 -8t-1.5 -9q-6 -29 -0.5 -56.5t26 -50t56.5 -36t92 -13.5t107 18.5t92 50t70.5 73t43.5 87.5z" />
<glyph unicode="K" horiz-adv-x="551" d="M539 71l-196 292l252 179l-1 -1q31 15 45.5 31.5t16.5 31.5q5 20 -8.5 33.5t-35.5 13.5q-14 0 -28.5 -5.5t-28.5 -18.5l2 1l-265 -191l45 148l2 10q3 16 4.5 29.5t-2 23t-14 14.5t-30.5 5q-27 -1 -47 -24t-31 -56l-149 -528l-3 -18q-8 -40 1 -54t36 -14q24 0 47.5 15.5 t32.5 62.5l1 7l65 230l184 -280q23 -39 45 -39q7 0 11 2l-1 -1q56 16 62 50q4 19 -12 50v1z" />
<glyph unicode="L" horiz-adv-x="444" d="M468 68q5 23 -8 33t-39 10q-18 0 -36 -3h1l-194 -26l142 503q2 7 3 13.5t3 11.5q5 29 -2.5 42.5t-35.5 13.5q-23 0 -36.5 -6t-22.5 -16.5t-14 -25.5t-10 -33l-149 -529v2q-2 -5 -4 -12t-4 -16q-2 -12 -2 -24t3.5 -21.5t11 -15.5t19.5 -6h3q1 0 2 0.5t3 0.5l284 37 q36 7 57.5 22.5t24.5 31.5q0 2 0.5 4.5t-0.5 5.5v3zM467 63l1 2v-4q0 1 -1 1v1z" />
<glyph unicode="M" horiz-adv-x="776" d="M889 588q4 22 3.5 36t-6 22.5t-16 12.5t-25.5 6h-3q-8 0 -19.5 -7.5t-26 -19.5t-29.5 -28t-28 -33h1q-79 -97 -132 -159.5t-87 -102.5v1q-30 -36 -48 -57q-11 -14 -19 -25.5t-14 -19.5q-2 -3 -4 -5.5t-3 -4.5q-2 6 -3 22q-7 36 -15.5 78.5t-16.5 77.5q-6 27 -10.5 46 t-3.5 24q-5 29 -13 55.5t-16 46.5t-14.5 33t-9.5 15l19 3q-4 32 -19.5 47.5t-34.5 15.5t-36 -16t-28 -48l-162 -549q-9 -44 2 -60t36 -20h5q13 0 25 8.5t21.5 21.5t16 26.5t9.5 24.5l89 317q4 -17 8 -35t9 -35q8 -34 16 -67.5t15 -66.5q4 -18 6 -28.5t3.5 -16.5t2 -10 t2.5 -9l1 1l5 -18q2 -11 17 -22.5t38 -11.5q16 0 34 7.5t35 27.5q16 17 22.5 26t14.5 21q5 8 12 17t19 26q10 13 29.5 35t44 50t52.5 59t55 62l6 8l-98 -342v1l-4 -12l-4 -12q-4 -22 4.5 -36.5t35.5 -16.5h6q33 0 52 22t24 51l2 8z" />
<glyph unicode="N" horiz-adv-x="653" d="M610 48l153 546q2 6 3.5 12t2.5 11q6 32 -3.5 44.5t-41.5 12.5q-20 0 -32.5 -7t-20.5 -17.5t-12.5 -23t-7.5 -24.5l-114 -410q-8 14 -16 28.5t-10 21.5q-13 23 -24 44t-20.5 41.5t-19 42.5t-20.5 48q-10 23 -22 50.5t-26 59.5q-5 10 -7 13q-2 2 -3 5t-3 8t-4.5 14.5 t-6.5 24.5q-3 10 -8 22t-12.5 22.5t-17 18t-22.5 7.5q-14 0 -25 -3t-20.5 -11.5t-17.5 -24.5t-17 -42l-148 -526q-3 -7 -4 -13t-3 -12q-11 -57 46 -57h7q28 2 44.5 20t21.5 40q1 5 1 9v8l104 369q5 -9 10.5 -19t10.5 -20q22 -41 42 -82.5t33 -75.5q7 -19 19.5 -47.5 t27.5 -59t29 -58.5t24 -47l-1 1l1 -1q1 0 2 -1q3 -6 6.5 -11.5t10 -10.5t17 -8t27.5 -3q15 0 26 7.5t19 18.5t13.5 23t8.5 22z" />
<glyph unicode="O" horiz-adv-x="637" d="M715 359q8 28 12 55q10 53 9.5 102t-18.5 86.5t-55.5 60t-100.5 22.5q-52 0 -103 -20.5t-99.5 -54.5t-91 -78t-77 -91t-59 -93.5t-34.5 -85.5v-2l-6 -22t-5 -21q-23 -121 21 -189.5t150 -68.5q70 0 141.5 31.5t134 86t110.5 127t71 155.5zM602 361q-16 -59 -49 -112.5 t-75.5 -94t-92 -64t-98.5 -23.5q-59 0 -79 42t-6 113q2 9 4.5 17.5t4.5 18.5l1 3q8 29 26 63.5t43 69.5t55 68t63 58.5t67 41t67 15.5t52.5 -13.5t28 -36.5t8 -53t-6.5 -62q-2 -12 -5.5 -25t-7.5 -26z" />
<glyph unicode="P" horiz-adv-x="553" d="M691 534l2 9q0 2 1 4t1 4q7 34 0 56t-23.5 35t-40 18t-48.5 5q-106 0 -177 -10t-116 -18q-33 -6 -52 -29t-27 -50q-2 -11 -5.5 -22t-7.5 -22q-9 -30 -17 -59.5t-13 -49.5l-95 -340v1q-3 -8 -5.5 -16.5t-4.5 -17.5q-4 -22 2 -39t35 -17h4q17 1 31 7.5t24.5 16.5t17 21.5 t8.5 22.5q1 9 0 15l56 198q39 6 85 19.5t92.5 32.5t91 43t81.5 52.5t63.5 61.5t36.5 68zM273 368l41 167q23 6 50.5 10t57 6.5t58 4t54.5 1.5q15 0 30 -2t13 -16l-1 -3q-8 -25 -39.5 -51t-76 -48.5t-94.5 -40.5t-93 -28z" />
<glyph unicode="Q" horiz-adv-x="658" d="M671 -6q-8 14 -17 24t-20 21q-3 2 -5 4.5t-5 4.5l1 -1q-5 5 -8.5 9t-6.5 9q-9 11 -17.5 21t-19.5 27q60 59 105.5 131t70.5 157q5 18 8 35q10 52 5 97.5t-24.5 79t-53.5 53t-82 19.5q-51 0 -105 -20t-106.5 -53.5t-101 -78.5t-88 -95t-68.5 -102t-43 -101 q-3 -11 -6 -22.5t-5 -22.5q-10 -51 -7 -93.5t21.5 -72.5t54 -47t90.5 -17q60 0 120 20t118 57q11 -15 28 -29l-1 1q11 -13 22.5 -26.5t18.5 -29.5q17 -10 31.5 -14t25.5 -4q42 0 67 52l-10 -2zM635 403q-17 -60 -47 -112.5t-71 -95.5q-14 14 -23 26t-17 23l-12 15 q-13 11 -28 11q-20 0 -39 -16.5t-23 -38.5q-5 -20 10 -41q9 -4 18.5 -19t22.5 -35q-38 -25 -78 -38.5t-81 -13.5q-28 0 -45 10t-25 27t-8 40q0 24 5 51q2 9 4.5 18t4.5 19q10 35 31 74.5t50 77.5t63.5 72.5t72.5 60.5t77 41.5t76 15.5q25 0 41.5 -11.5t24.5 -31t8.5 -45.5 t-5.5 -56q-2 -7 -3.5 -13.5t-3.5 -14.5z" />
<glyph unicode="R" horiz-adv-x="562" d="M538 86l1 -1l-191 212q50 13 101 34t94.5 49.5t76 65t45.5 80.5v-1q4 11 5 20q22 119 -128 119q-88 0 -145.5 -3.5t-97.5 -9.5q-36 -6 -57.5 -33t-29.5 -64v1q-10 -39 -20 -80.5t-18 -78.5v1l-103 -337q-4 -13 -6 -25q-6 -31 1 -45.5t33 -14.5h2q21 0 35 6.5t23 18 t14.5 25.5t10.5 29l53 188l203 -237q13 -16 29.5 -23.5t33.5 -7.5q25 0 46.5 15t29.5 44l-6 1q-1 16 -11 28.5t-24 23.5zM275 375l47 171q24 6 60 9.5t72 3.5q32 0 59 -3q40 -6 35 -26v-2q-7 -25 -36.5 -49t-69.5 -45t-85 -36.5t-82 -22.5z" />
<glyph unicode="S" horiz-adv-x="631" d="M689 289q4 11 5 19q8 42 -4 68.5t-33.5 41.5t-47 20t-43.5 5q-57 0 -110.5 -14t-95.5 -27q-24 -8 -43 -13t-33 -5q-11 0 -19.5 6.5t-5.5 20.5l1 4q6 20 27 47.5t54.5 52t77 42t93.5 17.5q23 0 32 -4.5t14 -8.5q4 -2 4 -3q5 -4 9 -7.5t9 -9.5q10 -10 18.5 -14.5t36.5 -4.5 q12 0 23 6t19 14.5t13.5 17.5t7.5 16l1 5q4 22 -7 40.5t-33 32.5t-53 22t-65 8q-62 0 -127 -23.5t-121.5 -63t-98.5 -91t-58 -108.5q0 -2 -1 -4.5t-1 -4.5l-2 -7q-7 -35 1 -57.5t25 -35.5t39.5 -18t45.5 -5q29 0 63 8t71 19q41 11 81.5 21.5t75.5 10.5q18 0 28.5 -8t6.5 -30 l-2 -9q-15 -56 -55.5 -95t-87.5 -63t-92.5 -35t-71.5 -11q-23 0 -36.5 4.5t-21 11t-11 14.5t-5.5 15q0 3 -2 7q-6 21 -14 37.5t-30 16.5q-35 0 -53.5 -17.5t-26.5 -41.5l-2 -10q-5 -27 0.5 -53.5t24 -48.5t50.5 -35.5t80 -13.5q40 0 86 8.5t94 26.5t94 45t86 63.5t70 83 t46 103.5v-1z" />
<glyph unicode="T" horiz-adv-x="499" d="M702 630l2 7q5 24 -6.5 37t-34.5 13q-5 0 -8.5 -0.5t-7.5 -1.5h-3q-29 -5 -54 -9.5t-49.5 -9t-49.5 -9t-55 -10.5q-35 -7 -75.5 -14.5t-98.5 -18.5q-2 -1 -7 -2t-7 -2v1q-14 -4 -28.5 -8t-26.5 -10.5t-21.5 -16t-13.5 -23.5l-1 -6q-4 -20 8 -33t46 -13h11t12 1q2 0 3 0.5 t3 0.5l108 21l-132 -471q0 -3 -1 -6.5t-2 -6.5q-4 -9 -5 -19q-4 -18 2.5 -32t38.5 -14q19 0 31.5 4t21 13t14.5 23t13 35l139 495l138 25q26 7 43 13t27.5 12.5t16.5 15t9 19.5z" />
<glyph unicode="U" d="M606 170l116 411q2 5 5.5 12.5t5.5 16.5q3 19 -4 36t-39 17q-22 0 -36 -7t-23 -18.5t-13.5 -26t-7.5 -30.5l-124 -413q-5 -17 -24.5 -34.5t-49.5 -32t-69 -24t-82 -9.5q-27 0 -46 10.5t-15 30.5l1 3l138 490q1 7 1.5 17.5t-3 20.5t-13.5 16.5t-28 6.5t-30 -5t-20 -13.5 t-13 -19t-9 -21.5q0 -3 -2 -5l-136 -485v1q-2 -4 -2.5 -8.5t-1.5 -9.5q-6 -30 0 -55.5t26.5 -43.5t55.5 -28.5t86 -10.5q65 0 124.5 18.5t107.5 48t80.5 67.5t43.5 77z" />
<glyph unicode="V" horiz-adv-x="520" d="M691 584l1 8q5 26 -6.5 38.5t-31.5 12.5q-16 0 -34.5 -8.5t-36.5 -27.5q-16 -16 -29.5 -32.5t-37.5 -47.5h1q-20 -25 -31 -38.5t-16.5 -20t-7.5 -9t-3 -4.5q-1 -3 -5 -9.5t-15 -23.5q-8 -11 -22 -28.5t-31 -39t-36 -44.5t-36 -44q-13 -16 -23 -28.5l-18 -22.5 q0 17 0.5 41t0.5 46t0.5 38t0.5 17q2 35 2.5 49t2.5 24q0 6 0.5 12t1 16t1 25t0.5 38q0 8 0.5 18.5t1.5 22.5q1 9 1.5 17.5t1.5 15.5q1 29 -15 43.5t-37 14.5t-41 -12.5t-26 -38.5q-2 -5 -2.5 -9.5t-2.5 -9.5q-3 -18 -7 -41t-3 -34v1q-1 -17 -1.5 -34t-0.5 -33 q-2 -49 -2.5 -87.5t-0.5 -61.5v-22v-15q-2 -13 -2 -37q0 -23 -1 -48q-1 -29 -1 -56t1 -50t4 -41.5t9 -30.5q6 -11 14.5 -17.5t19.5 -6.5q16 0 34 14.5t41 46.5q11 18 31 46.5t44.5 62t50 68.5t46.5 64q14 19 25 34t18 26l5 6l-1 -1q9 13 16 23t18 23t29 33t50 55 q16 17 25.5 27.5t14.5 16.5v-1q8 9 10.5 12t10.5 11z" />
<glyph unicode="W" horiz-adv-x="762" d="M940 627v-3l1 3q0 1 2 5q1 8 0.5 17t-5.5 16.5t-15 12t-27 4.5q-14 0 -25.5 -6.5t-21.5 -17.5t-19 -25l-18 -28q-6 -9 -29.5 -47t-56.5 -93t-72.5 -122.5t-78.5 -135.5v57t-0.5 68.5t-1 70t-1 63t-0.5 46.5v22l1 -1q-1 4 -1 14v28t-2 29.5t-7 23t-14 9.5 q-16 0 -26.5 -1.5t-21 -11t-24.5 -30.5t-37 -59q-5 -7 -19 -29.5t-34 -54.5q-16 -25 -34 -53.5t-36.5 -58.5t-37 -59t-34.5 -55q3 42 6 86.5t6.5 86.5t7 80t6.5 69q2 8 2 13v-1q0 11 1 25t4 30q-7 32 -19 40t-33 8q-37 0 -52.5 -16.5t-21.5 -47.5q-17 -91 -23 -179t-9 -154 q-2 -17 -2 -33t-2 -29q-1 -24 -3 -52t-4 -52q-1 -17 -2 -29.5t-1 -18.5q-3 -46 4 -61t29 -15h4q1 0 2.5 0.5t3.5 0.5q12 1 20.5 2.5t17.5 8.5t21.5 22t32.5 44l-1 -1q2 3 13.5 19t29 41t39 56.5t44.5 65.5t45 68t40 63q0 -47 2 -100.5t4.5 -101t5.5 -83t6 -46.5 q6 -23 11 -36t10.5 -20t10.5 -8.5t11 -1.5h11q19 0 39.5 14t44.5 58q11 19 32.5 54.5t50.5 83.5q33 54 70.5 117t72.5 124t64 114t44 87z" />
<glyph unicode="X" horiz-adv-x="480" d="M469 49q0 1 0.5 2t0.5 2q2 10 0 15.5t-5 10.5q-1 2 -2 3.5t-1 3.5q-12 24 -18.5 40.5t-12.5 39.5t-12.5 62t-18.5 108l10.5 11.5t28.5 30.5t40.5 42t45.5 47t45 45.5t38 36.5q13 14 25.5 34.5t16.5 37.5q3 16 -2.5 27.5t-23.5 16.5q-4 1 -7 1.5t-8 0.5q-20 0 -36 -11.5 t-33 -26.5l-6 -5q-8 -9 -21.5 -24t-30.5 -32q-20 -21 -40.5 -44.5t-37 -42.5t-27 -31.5l-10.5 -12.5h-1l-3 10t-7 26.5t-9.5 37.5t-10.5 43q-5 20 -10.5 39.5t-10.5 35.5q-1 3 -1 7q-5 17 -11.5 29t-31.5 12q-29 0 -47 -14t-25 -35l-1 -5q-3 -16 1.5 -37t6.5 -28 q1 -10 9 -41t17 -67t17.5 -69.5t12.5 -47.5q-53 -67 -83 -104.5t-48.5 -60t-32 -37t-33.5 -36.5q1 1 -1.5 -1.5t-4.5 -5.5l1 1q-6 -7 -15 -16.5t-17 -20t-15 -20t-8 -15.5v-2q-3 -11 2 -11q5 -16 17.5 -23.5t28.5 -7.5q17 0 35 8.5t33 23.5q21 24 35 39.5t30.5 36t41 51 t67.5 83.5q4 -15 10 -40t13 -52t14.5 -52.5t14.5 -42.5q2 -19 17.5 -33.5t39.5 -14.5q14 0 31 7.5t39 27.5l-6 32z" />
<glyph unicode="Y" d="M748 554q20 20 29 33.5t11 23.5q3 15 -5 23.5t-19 15.5h-1q-9 6 -19 6q-14 0 -27 -7t-27 -16q-6 -4 -11.5 -8t-15.5 -9l-238 -196l-118 173v-2q-15 33 -28.5 55t-29.5 22h-5q-23 -5 -44.5 -18.5t-26.5 -38.5q-2 -12 1 -26.5t15 -30.5l141 -245l-67 -244q-4 -11 -6 -24 q-5 -28 0.5 -46t30.5 -18h5q21 2 35 9t23 18t14.5 24.5t9.5 28.5l70 250z" />
<glyph unicode="Z" horiz-adv-x="568" d="M569 51q4 8 4 11q4 20 -10.5 26.5t-41.5 6.5q-25 0 -56 -3q-13 -1 -26.5 -2t-27.5 -2q-32 0 -58 -0.5t-51 -1t-50 -2t-54 -3.5l522 512q18 18 21 36q4 19 -6.5 33t-30.5 14h-5l-322 -19q-47 -1 -74 -4.5t-42 -11t-22 -21t-12 -34.5l-1 -3q-4 -21 9.5 -30.5t40.5 -9.5 q16 0 34 2.5t41 7.5h-1l210 16l-508 -496v1q-24 -24 -29 -50q-5 -23 9 -37.5t40 -14.5h5q39 2 94 3.5t110.5 2t105.5 1t79 0.5h31q26 0 45.5 22.5t27.5 51.5z" />
<glyph unicode="[" horiz-adv-x="404" d="M329 -61q2 7 4 17q5 25 -2 33.5t-26 8.5q-7 0 -15.5 -1t-17.5 -2q-3 0 -6 -0.5t-6 -0.5l-100 -10l194 686l103 27q15 5 24 7t17 4q12 3 19.5 5.5t12.5 7t8.5 12t6.5 20.5l1 5q5 26 -12.5 37t-49.5 11h-17q-8 0 -16 -2l-101 -23q-41 -10 -72 -33t-42 -57l-203 -747 q-2 -6 -3 -12.5t-3 -11.5q-5 -30 2.5 -42.5t34.5 -12.5q18 0 50 6h-1l157 16q29 3 40.5 17t18.5 36v-1z" />
<glyph unicode="\" horiz-adv-x="449" d="M385 75q-8 49 -15 103t-12 107t-9 102.5t-6.5 89t-4 67.5t-1.5 38q-1 8 -1 13v12q-1 18 -2.5 34t-6 28t-13 19t-23.5 7q-14 0 -33 -8q-20 -8 -28 -18t-10 -23q-2 -5 -2 -9v-8v-7q-1 -23 0 -65.5t3.5 -96t6.5 -112.5t10 -115t14 -104.5t18 -80.5q0 -10 2 -22.5t5.5 -25 t9 -23t13.5 -15.5q9 -7 19 -10t19 -3q18 0 31 12t18 38q2 14 2 32q0 19 -4 44z" />
<glyph unicode="]" horiz-adv-x="404" d="M340 -58l232 802l1 6q0 2 1 3t1 3q4 19 -4 33.5t-42 14.5q-10 0 -20.5 -1.5t-23.5 -3.5q-8 -3 -33.5 -6.5t-51.5 -6.5q-20 -3 -36.5 -5.5t-24.5 -6.5l5 4q-38 -4 -55 -16.5t-25 -34.5l-1 -9q-6 -29 6 -39t41 -10q6 0 12 0.5t13 1.5h3l97 13l-195 -689l-97 -22 q-5 -1 -9.5 -1.5t-8.5 -1.5q-14 -2 -25.5 -5t-21.5 -9t-17.5 -17t-12.5 -30l-1 -7q-5 -26 6.5 -36t33.5 -10q13 0 27 2.5t28 5.5q3 1 5.5 1.5t5.5 1.5h-1l78 11q5 1 10 1.5t10 1.5q19 3 33.5 6.5t25 9.5t18 16.5t13.5 28.5z" />
<glyph unicode="^" horiz-adv-x="400" d="M669 538v4q3 12 -4 32l-63 124l-1 -2q-2 17 -13 29t-28 12q-20 0 -29 -8t-18 -19l2 2l-152 -129l-3 -3q-13 -10 -21 -17.5t-13 -21.5l-2 -10q-2 -11 5 -18.5t28 -14.5v1q5 -2 7 -2h4q11 0 23 7t32 27l104 88l43 -85q7 -23 21.5 -30t23.5 -7q6 0 10 2q22 8 30.5 16 t13.5 23z" />
<glyph unicode="_" horiz-adv-x="470" d="M438 -135q21 0 35.5 15.5t17.5 33.5q4 17 -2.5 30t-26.5 13h-458q-22 0 -37 -16t-19 -34q-3 -17 4 -29.5t28 -12.5h458z" />
<glyph unicode="`" horiz-adv-x="527" d="M444 489q21 8 31.5 13.5t12.5 18.5q3 12 -5 35q-6 18 -15 38.5t-20.5 40t-24.5 36t-26 26.5q-16 11 -30.5 17.5t-25.5 6.5q-34 0 -41 -37q-1 -5 -1.5 -11t-0.5 -12l1 2v-3q3 -18 7.5 -31t11.5 -23.5t17.5 -20.5t24.5 -23q17 -14 28.5 -24.5t16.5 -18.5q13 -20 24 -25 t14 -5h1z" />
<glyph unicode="a" horiz-adv-x="478" d="M509 78q-3 24 -8.5 57.5t-13.5 71.5v-1q-1 8 -3 16.5t-4 16.5h-1q-11 64 -21 130.5t-13 120.5q4 32 -9.5 53.5t-36.5 21.5q-17 0 -36 -13t-39 -43l-301 -424q-1 -1 -5 -8v1q-5 -9 -13 -22t-10 -27q-5 -21 3.5 -35t40.5 -16h4q23 0 43 23t42 56l79 115q8 1 15 1.5t14 1.5 q33 3 53.5 4.5t34 2t22 1t17.5 0.5l4 -16q3 -12 5 -20.5t3.5 -16t2 -16t2.5 -20.5q3 -14 8.5 -34t12 -38t13.5 -31t13 -13h7q32 0 49.5 17.5t22.5 46.5q5 20 3 36zM349 290l-63 -3l56 81q1 -20 3 -40t4 -38z" />
<glyph unicode="b" horiz-adv-x="490" d="M550 238q2 4 2 6l1 5q8 42 -10.5 71t-62.5 41q33 24 51.5 50t27.5 55l1 6q7 35 -20.5 61t-93.5 26q-56 0 -107.5 -10t-95.5 -21q-7 -2 -13.5 -3t-12.5 -3q-17 -5 -36.5 -19.5t-25.5 -43.5q-1 -4 -1 -12l-96 -354l-10 -32t-8 -31q-5 -26 0.5 -42t28.5 -16q37 0 83.5 8 t96 23.5t98.5 38t90.5 52t71 65.5t41.5 77v2zM435 244v-1q-9 -29 -38 -54t-67.5 -45t-80.5 -34t-78 -21l45 159q40 8 74 13t62 5q14 0 29 -0.5t27.5 -3t20 -7t6.5 -11.5zM417 449q6 0 12 1t8 3q-5 -17 -24.5 -32t-46.5 -28t-58.5 -22.5t-61.5 -14.5l16 58q72 35 155 35z" />
<glyph unicode="c" horiz-adv-x="459" d="M444 80q5 7 10 13.5t9 11.5q2 1 2.5 2t1.5 2h-1q18 22 21 33q4 22 -9.5 32.5t-33.5 10.5t-44 -10.5t-45 -34.5q-8 -10 -22.5 -21t-31.5 -20.5t-35.5 -16t-33.5 -6.5q-21 0 -33.5 9t-18 24t-5.5 35t4 42q2 5 3 11t3 12q13 46 36 91t53 80t64.5 57t69.5 22q38 0 44 -9 q4 -5 7.5 -8.5t6.5 -7.5l10 -12q18 -21 28 -21q29 0 51.5 20t27.5 45q5 28 -14 49q-28 32 -63.5 43.5t-77.5 11.5q-56 0 -112 -30t-105 -80t-87 -114t-57 -133q-2 -8 -3.5 -16t-3.5 -16q-9 -45 -5 -84t20.5 -68.5t45.5 -46t71 -16.5q34 0 69 10t68 26.5t62.5 38t52.5 43.5 v-4z" />
<glyph unicode="d" horiz-adv-x="485" d="M578 355q2 5 3 10t2 12q7 37 2.5 71.5t-23 61t-51 42.5t-80.5 16q-57 0 -97 -10.5t-75 -21.5q-2 -1 -6 -2t-9 -2l-13 -4q-33 -11 -51.5 -34t-23.5 -48q-3 -11 -3 -17l-94 -331q-1 -2 -2 -5.5t-1 -5.5l-2 -8l-4 -16t-4 -17q-6 -29 0.5 -48.5t38.5 -19.5q23 0 63 8.5t88 27 t100.5 48t99.5 71.5t84.5 97t57.5 125zM462 368l-2 -9q-16 -56 -48.5 -98.5t-72.5 -73.5t-83 -51t-79 -30l89 319q26 13 59.5 23t69.5 10q23 0 37.5 -7.5t22 -20t9 -29t-1.5 -33.5z" />
<glyph unicode="e" horiz-adv-x="425" d="M452 54l2 6q5 28 -8.5 39.5t-46.5 11.5h-13l-213 -18l33 121l167 18q5 1 9 1.5t9 0.5q23 0 45 10.5t31 44.5l2 7q3 18 -7.5 33.5t-50.5 15.5h-11t-11 -1l-151 -19l26 94l186 13h7q2 0 4.5 0.5t4.5 0.5q20 0 34.5 1.5t25.5 7t19 16t14 30.5l1 7q6 31 -11 40.5t-46 9.5 q-3 0 -6.5 -0.5t-6.5 -0.5h-12q-2 0 -4 -0.5t-4 -0.5h-7q-72 -5 -112 -7t-63 -2h-54q-18 0 -32 -6.5t-24.5 -16.5t-16.5 -22t-8 -22q-2 -3 0 -5q-4 -9 -5 -19q-1 -5 -2 -9.5t-3 -9.5q-1 -6 -2.5 -12.5t-3.5 -13.5q-8 -32 -17.5 -72.5t-24.5 -91.5l-36 -137l-3 -9 q0 -3 -4 -11q-2 -6 -4.5 -15.5t-4.5 -20.5q-5 -29 4.5 -45.5t50.5 -16.5h6q2 0 3.5 0.5t3.5 0.5l257 19q24 0 39.5 5t24.5 13t13.5 17.5t6.5 19.5z" />
<glyph unicode="f" horiz-adv-x="388" d="M548 503q2 32 -11.5 43.5t-45.5 11.5h-8q-2 0 -5.5 -0.5t-5.5 -0.5q-44 -4 -76 -6.5t-54.5 -5t-36.5 -4t-23 -2.5q-4 -1 -8 -1q-2 0 -5 -0.5t-5 -0.5q-5 0 -9 -1q-48 -5 -69.5 -17.5t-26.5 -41.5q-2 -8 -3.5 -16t-0.5 -16q-5 -21 -10 -38t-9 -31q-5 -21 -9 -36t-9 -29 q0 -2 -1 -4.5t-1 -4.5q-5 -13 -8.5 -26t-8.5 -32l-56 -181l-1 -4q-2 -7 -3.5 -13t-2.5 -11q-6 -29 2 -42.5t32 -13.5h10t9 1v1q18 2 29.5 7t19 14t13.5 22t13 33l46 157l175 26q27 2 42 6t23.5 10.5t12.5 16t9 23.5v3q0 1 1 2t1 2v3q2 2 2 4q3 14 -1 23t-12.5 14.5 t-20.5 7.5t-25 2q-17 0 -30.5 -1.5t-24.5 -3.5q-2 -1 -4 -1h-3l-114 -17l26 92l195 14q41 3 59 17.5t26 41.5z" />
<glyph unicode="g" horiz-adv-x="576" d="M654 302l1 7q5 26 -10 37.5t-41 11.5q-13 0 -33 -7l-32 -10q-16 -5 -36.5 -11t-40.5 -11.5t-37 -10t-26 -5.5q-40 -5 -62.5 -28t-26.5 -46q-4 -18 3.5 -32t28.5 -14h4q4 0 7 1q24 6 47 12t46 13q7 2 14.5 4.5t14.5 4.5q11 4 26 7q-20 -27 -46 -53.5t-57.5 -47.5 t-69 -34.5t-79.5 -13.5q-24 0 -40 9.5t-24 25t-10 36t3 42.5q0 4 3 13q13 46 46.5 92t77.5 82.5t93 59.5t93 23h9q18 -1 28.5 -4t15.5 -6.5t7 -7.5t3 -7q5 -12 11.5 -20.5t31.5 -8.5h9t10 1q20 1 34 15t19 36q2 7 2 14q0 8 -2 16q-8 34 -42.5 58.5t-96.5 24.5 q-60 0 -132 -25.5t-138.5 -73t-119 -114t-74.5 -148.5l-1 -1q-2 -8 -4 -15.5t-4 -16.5q-8 -42 -4.5 -80t22.5 -67t54.5 -46t91.5 -17q76 0 147 29.5t129 77.5t99 108t58 121z" />
<glyph unicode="h" horiz-adv-x="492" d="M153 47l50 177l210 6l-41 -151q-3 -9 -3 -14q-6 -28 5.5 -46.5t41.5 -18.5h5q18 1 30.5 8t20.5 18t13 24t8 25l4 21l113 409l1 2q2 6 3.5 12t2.5 13q5 23 -2.5 36.5t-38.5 13.5q-24 0 -38.5 -5t-23 -13.5t-13.5 -20t-9 -24.5l-48 -177l-211 -8l38 138h-1q2 4 3.5 9 t2.5 10q4 19 -2.5 38t-34.5 23h-8q-31 0 -48 -20.5t-25 -42.5q-1 -3 -2 -7l-2 -8v1q-2 -7 -4.5 -15t-4.5 -18q-7 -23 -15 -51t-16 -58t-16.5 -60t-15.5 -55l-41 -156q-3 -10 -5 -23q-6 -29 2.5 -41.5t38.5 -19.5q1 0 2.5 -0.5t3.5 -0.5h4q21 0 39 17.5t27 52.5z" />
<glyph unicode="i" horiz-adv-x="178" d="M277 463q1 2 1.5 5.5t1.5 5.5q2 4 2 7q2 5 3.5 11t3.5 11q4 21 -2.5 35t-34.5 14q-24 0 -39.5 -4.5t-25 -14.5t-14.5 -24.5t-9 -33.5l1 1l-118 -414q-3 -9 -7 -25q-5 -23 4 -39t38 -20h10q16 0 27 7t19.5 19.5t15.5 30t15 38.5l-3 -3z" />
<glyph unicode="j" horiz-adv-x="418" d="M427 145l91 321v3q2 8 4 14.5t4 14.5q5 25 -2.5 39.5t-38.5 14.5q-21 0 -35 -7.5t-23 -19t-14 -25t-9 -25.5q0 -1 -0.5 -2t-0.5 -2l-1 -2l-91 -320q-5 -15 -17 -32t-29.5 -32t-40.5 -25t-48 -10q-26 0 -33 4.5t-9 18.5q1 4 1.5 8t2.5 8q4 10 7 26q5 23 -2 41.5t-40 18.5 h-12q-8 0 -18.5 -3.5t-21 -11.5t-19.5 -22t-14 -36q-3 -8 -4 -15q-5 -25 -0.5 -49t22 -43.5t48 -31.5t78.5 -12t91 15.5t77.5 42.5t59.5 62t37 74z" />
<glyph unicode="k" horiz-adv-x="441" d="M446 73l-153 226l186 132q29 15 43 30.5t17 31.5q4 22 -9.5 36t-35.5 14q-14 0 -28 -5.5t-27 -17.5l2 1l-186 -134l28 90l2 11q3 15 4 27.5t-3 21.5t-14.5 14t-29.5 5q-27 -1 -48 -22.5t-29 -52.5l-119 -423l-2 -14q-8 -40 1 -54t37 -14q12 0 24 3t23 11.5t19 22.5t13 36 l1 6l44 155l132 -201q11 -19 21 -27.5t24 -8.5q3 0 6 0.5t8 2.5q52 19 58 49q2 10 -1 21t-8 24v3z" />
<glyph unicode="l" horiz-adv-x="355" d="M388 63q5 25 -7.5 36.5t-38.5 11.5q-19 0 -34 -3v-1l-137 -18l110 388q2 5 2.5 10t2.5 11q6 30 -3 43.5t-37 13.5q-42 0 -57.5 -21t-23.5 -55l-118 -419q-2 -5 -3.5 -10t-3.5 -16q-2 -12 -2 -24q0 -11 4 -20.5t11.5 -15.5t20.5 -6h3q1 0 2.5 0.5t2.5 0.5l228 30 q35 6 54.5 22t22.5 33q1 2 1 8v1z" />
<glyph unicode="m" horiz-adv-x="621" d="M725 479q4 22 3.5 35.5t-6 21.5t-15.5 12t-25 6h-3q-7 0 -19.5 -7.5t-27.5 -20.5t-30.5 -29t-29.5 -34h1q-35 -42 -62 -75.5t-50 -59.5v1q-10 -11 -18 -21.5t-16 -19.5q-9 -11 -17 -19.5t-14 -16.5l-14 -17.5t-8 -10.5q-2 -2 -3.5 -4t-3.5 -4q-3 -4 -6 -7l-6 -6 q-3 17 -7 36.5t-8 38.5q-2 10 -4 19.5t-4 18.5q-1 4 -1 8t-2 9q-7 29 -16.5 67.5t-20.5 73t-24 58.5t-27 24q-20 0 -38.5 -15t-26.5 -47l-130 -439q-8 -43 4 -58t35 -19h6q14 0 25.5 8t20.5 20t15 25t9 23l58 206l1 -2v1q2 -8 4 -17t4 -17q5 -22 10 -43t9 -42v1q1 -7 2 -8v1 q2 -13 3.5 -20.5t3 -14.5t5 -16.5t10.5 -26.5l1 6q7 -8 19 -14t27 -6t32 7t33 25q13 15 19 22.5t12 17.5l2 2q0 1 1 3l6 8t16 20q7 9 19 23t27 31t32.5 37t35.5 41l-65 -227v-1q-2 -4 -3 -8t-2 -9q-5 -23 3 -38.5t37 -17.5h5q32 0 51 21.5t24 48.5l1 6z" />
<glyph unicode="n" horiz-adv-x="522" d="M624 484q1 3 2 6.5t2 6.5l1 8q6 31 -3 43.5t-43 12.5q-19 0 -31 -6t-19.5 -15t-12 -20t-7.5 -21q0 -1 -1 -2.5t-1 -2.5v-1l-83 -296q-2 3 -3.5 6t-2.5 6q-20 42 -35 75t-27 58q-20 44 -31.5 68.5t-17.5 39t-9 24t-6 24.5q-3 7 -7 16.5t-10.5 18t-16 14t-22.5 5.5 q-14 0 -25 -2.5t-20 -10.5t-17 -23t-15 -39l-119 -422l-1 -1q-2 -5 -3 -9.5t-2 -10.5q-12 -57 47 -57h7q26 3 43.5 20.5t21.5 40.5q2 5 1.5 8t-0.5 6l73 262l2 -3q1 -2 1.5 -3.5t2.5 -3.5q3 -5 5.5 -11t5.5 -11l25.5 -51t20.5 -49q5 -15 15 -37.5t22 -46.5l23.5 -47 l19.5 -39l2 -3q3 -10 13 -19.5t45 -9.5q15 0 26 7t19 16.5t14 21t9 20.5v2z" />
<glyph unicode="o" horiz-adv-x="510" d="M586 296q2 11 5 22.5t5 22.5q9 45 8.5 86.5t-16 73t-48 50.5t-86.5 19q-65 0 -128 -36.5t-116 -90t-90.5 -113.5t-50.5 -108q-2 -10 -4.5 -20t-4.5 -19q-20 -103 18 -160.5t128 -57.5q58 0 117.5 26t111.5 71t92 105.5t59 128.5zM472 300q-13 -45 -38 -85.5t-57 -71.5 t-69 -49t-74 -18q-41 0 -55 30.5t-3 81.5q1 6 3 14l4 16q10 33 35 75t59 79t73 62.5t76 25.5q23 0 36 -10t19 -27t5.5 -39t-4.5 -46q-2 -10 -4.5 -19t-5.5 -19z" />
<glyph unicode="p" horiz-adv-x="442" d="M567 436l2 14q6 31 0 51t-20 32t-34.5 16.5t-43.5 4.5q-72 0 -121 -5t-83 -11l1 1q-2 -1 -4 -1t-5 -1q-3 0 -6 -1t-6 -1q-2 -1 -4.5 -1.5t-4.5 -1.5t-4 -1v-2q-32 -13 -50 -32t-25 -39q-2 -8 -4.5 -15.5t-4.5 -15.5l-9 -33q-5 -17 -9.5 -32.5t-7.5 -26.5l-76 -272 q-2 -6 -3.5 -12.5t-3.5 -14.5q-5 -22 1.5 -39.5t36.5 -17.5h5q33 2 53 23t25 43q0 4 -1 7l43 153q49 9 107 30t110.5 51t92.5 68t53 82zM427 444q8 0 16.5 -0.5t8.5 -2.5v-1q-6 -17 -28 -35t-53 -34t-66.5 -29.5t-68.5 -21.5l26 108q36 8 81.5 12t83.5 4z" />
<glyph unicode="q" horiz-adv-x="526" d="M554 1q-1 1 -1 2t-1 2l0.5 0.5t0.5 1.5h-2q-8 17 -15.5 25.5t-15.5 16.5q-4 3 -9 8l-11 14q-5 5 -10.5 11.5t-14.5 17.5q48 48 83 106t55 124q2 7 3.5 13.5t3.5 14.5q9 44 4.5 83t-21.5 67.5t-46.5 45t-70.5 16.5q-42 0 -87 -16.5t-88.5 -44t-83.5 -64.5t-73 -78 t-57 -84.5t-35 -83.5q-3 -9 -4.5 -18.5t-3.5 -17.5q-9 -44 -6 -80t18.5 -62t46 -40.5t77.5 -14.5q48 0 94 15t93 42q3 -3 6.5 -6t6.5 -6q1 -2 2 -2.5t2 -1.5l4 -5q8 -8 15 -17t14 -22q34 -17 54 -17q38 0 68 54zM499 334q-12 -43 -33 -81t-49 -70q-8 8 -13.5 15.5 t-10.5 14.5l-4 6q-2 2 -2.5 3.5t-2.5 3.5q-7 7 -14.5 9.5t-15.5 2.5q-20 0 -40 -17t-24 -39q-2 -10 0.5 -20.5t10.5 -21.5q10 -7 26 -32q-26 -15 -53.5 -23.5t-55.5 -8.5q-38 0 -47 26.5t-2 64.5q2 7 3.5 13.5t3.5 14.5q12 41 41.5 87t69 85t84.5 65t87 26q34 0 44 -30.5 t2 -73.5q-2 -5 -2.5 -10t-2.5 -10z" />
<glyph unicode="r" horiz-adv-x="450" d="M303 241q39 12 78 29.5t71.5 40.5t56.5 51.5t35 63.5h1q2 4 2.5 9.5t2.5 11.5q21 106 -113 106q-72 0 -118 -2.5t-78 -7.5q-35 -6 -54.5 -31t-27.5 -59q-1 -4 -2 -7.5t-2 -6.5l-2 -10q-6 -25 -12 -51.5t-11 -49.5v1l-84 -270q0 -3 -1 -6t-2 -5l-1 -9q-7 -32 0.5 -46.5 t36.5 -14.5h2q21 0 34.5 6t22 16.5t13.5 24t10 27.5l35 125l148 -171q11 -14 27.5 -21.5t31.5 -7.5q25 0 46 18t31 50l-8 1q-3 12 -10.5 22t-18.5 18zM429 435l-1 -1q-5 -17 -24.5 -33.5t-47 -31.5t-59 -26.5t-59.5 -17.5l31 112q19 4 44 6.5t50 2.5q21 0 44 -3q22 -3 22 -8 z" />
<glyph unicode="s" horiz-adv-x="505" d="M565 243q2 6 3 8l1 6q7 37 -3.5 60.5t-29.5 36.5t-41 17.5t-38 4.5q-45 0 -87.5 -10.5t-76.5 -21.5q-1 0 -3.5 -0.5t-3.5 -0.5q-18 -5 -32.5 -9.5t-22.5 -4.5q-11 0 -10 10v2q4 15 20 35t41 38t57 30.5t70 12.5q15 0 22.5 -3.5t11.5 -6.5h2q4 -3 7 -5.5t6 -6.5l2 -3 q8 -8 16.5 -12t31.5 -4q12 0 23.5 6t20 14.5t14 18t7.5 16.5v4q4 20 -5.5 37t-28.5 30t-45.5 20t-56.5 7q-52 0 -106 -19.5t-100.5 -52.5t-82 -76.5t-49.5 -90.5l-2 -13q-6 -32 0.5 -52.5t21 -32.5t34.5 -16.5t41 -4.5q26 0 51 5.5t52 13.5q2 1 4.5 2t4.5 2l-1 -1 q33 9 65 17t57 8q9 0 15 -3.5t4 -13.5q-2 -4 -2 -5l-1 -2q-11 -42 -41.5 -71t-66 -47.5t-69.5 -26.5t-53 -8q-31 0 -39.5 10t-11.5 19q0 3 -1 5q-5 20 -13.5 35.5t-31.5 15.5q-34 0 -53 -17.5t-25 -41.5l-2 -8q-5 -24 0 -47.5t21 -42.5t44 -31t69 -12q49 0 109.5 16.5 t117 50t102.5 85.5t66 123v2z" />
<glyph unicode="t" horiz-adv-x="399" d="M576 513l1 6q5 26 -7 39t-36 13h-9t-8 -1q-28 -5 -51 -9t-45.5 -8.5t-47.5 -9t-57 -10.5q-5 -1 -8 -1.5t-7 -1.5l-97 -19l-1 -1v1q-14 -4 -27 -8t-25 -10t-21 -15.5t-13 -23.5l-1 -7q-5 -22 7.5 -35t45.5 -13h13q8 0 14 1l68 14l-101 -360q0 -2 -1 -4t-1 -4l-1 -6 q-1 -3 -3 -7l-1 -7q-4 -19 3.5 -33.5t39.5 -14.5q19 0 31.5 3.5t20.5 12t14 22t12 33.5l108 386l101 19q24 6 40 11.5t26 12t15.5 15t8.5 20.5z" />
<glyph unicode="u" horiz-adv-x="489" d="M498 145l93 328q2 5 4.5 11.5t4.5 13.5q2 10 1.5 19.5t-5 17t-14.5 12.5t-26 5q-22 0 -35.5 -6.5t-22 -17t-12.5 -24.5t-7 -28l-101 -330q-4 -12 -18 -24.5t-36 -22.5t-50.5 -16.5t-60.5 -6.5q-17 0 -29 5t-10 16v1l111 392q1 8 1.5 18.5t-3.5 20.5t-13.5 16.5t-28.5 6.5 q-18 0 -30 -5t-19.5 -12.5t-12.5 -18t-9 -20.5q0 -3 -2 -5v-1l-109 -388q-1 -2 -1.5 -4t-1.5 -4l-1 -6q-5 -27 0 -49.5t22.5 -39t47.5 -25.5t74 -9q54 0 104.5 15.5t91 41t67.5 58t36 65.5z" />
<glyph unicode="v" horiz-adv-x="416" d="M566 475l2 9q5 25 -6.5 39t-33.5 14q-15 0 -33 -8.5t-35 -25.5q-12 -11 -22 -23t-22 -29h1q-2 -3 -4.5 -6.5t-5.5 -6.5q-17 -21 -27 -34t-17 -23v1q-2 -2 -2 -3l-2 -2q2 2 -3.5 -6t-12.5 -19q-5 -7 -14 -19.5t-21 -27.5t-25.5 -31.5t-26.5 -31.5q-6 -8 -12 -15t-11 -13 q0 14 0.5 28.5t0.5 26.5t0.5 20t0.5 9q1 26 1.5 37t1.5 19v2q2 9 2 19t1 30v-1q0 5 0.5 11.5t-0.5 13.5v14t2 19q0 8 1 12q0 10 1 13q1 29 -15 43t-37 14t-41.5 -13t-25.5 -39v2q-2 -6 -4 -18q-3 -15 -6.5 -33.5t-2.5 -27.5q0 -4 -0.5 -7t-0.5 -7q-1 -14 -0.5 -27t-0.5 -26 q-1 -6 -1 -13v-12q-1 -26 -1 -47v-34q-1 -8 0 -14l-1 -15v-8v-9q0 -4 -1 -9v-15v-14q0 -6 -1 -12v-8q-2 -8 0 -12l1 1v-9l-1 1q-1 -39 0 -70.5t11 -51.5q8 -11 16 -17.5t21 -6.5q17 0 34.5 13.5t37.5 42.5q5 9 16 25.5t25.5 36.5t31 42t32.5 44q8 10 14.5 19.5t13.5 18.5 q5 8 10 14.5t10 13.5t6.5 8.5t8.5 12.5h1q11 15 17.5 23t12.5 15.5t13.5 15.5t19.5 23l2 2q0 1 2 4q5 6 13.5 15t15.5 17q18 19 25 27t11 13l4 4q2 2 3.5 4t4.5 5z" />
<glyph unicode="w" horiz-adv-x="610" d="M768 516q2 8 1 17.5t-6 17t-15.5 12.5t-27.5 5q-27 0 -45 -21.5t-34 -47.5q-5 -7 -21 -33t-38.5 -64t-50.5 -85.5t-56 -97.5q-1 16 -1 33v35q0 25 -0.5 49.5t-0.5 45.5t-0.5 35.5t-0.5 20.5l-20 -7q8 -26 14 -26q2 0 4 9q2 6 2 14q0 9 1 18l-1 -1v4v12v-1q0 11 -1 24 t-3.5 23.5t-8.5 17.5t-16 7q-17 0 -27 -1.5t-19.5 -9.5t-21 -26.5t-31.5 -51.5q-4 -6 -18 -28t-34 -54l-10 -16t-10 -17q-14 -23 -29.5 -47t-30.5 -47q5 59 9.5 116t9.5 99l1 3v7q0 17 5 45q-8 31 -19.5 39.5t-32.5 8.5q-37 0 -52 -17t-21 -47q-15 -76 -20 -147.5t-7 -124.5 v-16t-1 -17q0 -3 -0.5 -6.5t-0.5 -5.5q0 -9 -0.5 -17.5t-1.5 -16.5q-2 -8 -1.5 -16t-1.5 -16q0 -7 -1 -13t-1 -12q-3 -12 2 -30h-3q-3 -43 4.5 -57.5t30.5 -14.5h4q2 0 2.5 0.5t2.5 0.5q12 1 20.5 2.5t17 8t19.5 19.5t29 37q2 3 16 23.5t35 51.5t46 68t48 72q0 -36 2 -73 t4 -69t4.5 -55.5t4.5 -31.5q10 -40 20 -50t24 -10h9q17 0 37 13t42 53q5 9 13 22t19 31q8 14 17 29t20 32q26 44 56.5 95t59 100.5t52 92t35.5 70.5l-2 4q1 0 1 2z" />
<glyph unicode="x" horiz-adv-x="384" d="M390 53q2 11 0 17t-5 11l-0.5 0.5t-0.5 1.5q-10 20 -15.5 33.5t-10 32t-10 48t-14.5 82.5q41 43 64.5 67t39 39.5t27.5 27t31 28.5q11 12 22.5 30t14.5 35q4 17 -2 29.5t-25 18.5q-3 1 -7 1h-8q-21 0 -35 -10t-31 -26l-5 -4q-12 -12 -20 -20.5t-19 -21.5t-30 -33.5 t-51 -55.5q-1 1 -1 3l-18 72q-4 16 -8 32.5t-8 28.5h-1q-1 1 0 4q-5 16 -11.5 28t-31.5 12q-29 0 -46.5 -14.5t-24.5 -35.5l-1 -6q-3 -14 0 -30t5 -24q0 -3 1 -9t5 -23.5t12.5 -51.5t23.5 -92q-41 -53 -64 -82.5t-37.5 -47t-24.5 -28.5t-24 -27l-5 -5q-6 -6 -13.5 -14.5 t-14.5 -18t-12.5 -18t-6.5 -14.5l-1 -6q11 -41 48 -41q15 0 33 7.5t33 23.5q15 18 26 30t23 26.5t29 35t45 55.5q7 -30 11.5 -47.5t8 -30t7.5 -23t11 -25.5q3 -19 17.5 -32.5t37.5 -13.5q14 0 33 8t39 28l-6 31v1q0 1 0.5 1.5t0.5 1.5z" />
<glyph unicode="y" horiz-adv-x="489" d="M607 445q19 17 27.5 30.5t10.5 23.5q3 17 -2.5 24.5t-14.5 12.5l1 -1q-2 1 -5 4q-8 3 -14 5t-11 2q-13 0 -24.5 -6t-25.5 -14q-12 -8 -23 -14l-179 -148l-98 142q-11 22 -21 36t-24 14h-7q-22 -5 -43 -18t-26 -39q-5 -21 14 -53l110 -192l-51 -187q-2 -5 -3 -11t-3 -13 q-5 -28 1 -45.5t33 -17.5h6q20 1 33.5 8t22.5 17t14 22.5t8 26.5l55 196zM627 538l-1 0.5t-2 0.5q1 -1 3 -1z" />
<glyph unicode="z" horiz-adv-x="454" d="M472 59q5 21 -9.5 30t-41.5 9q-7 0 -14 -0.5t-15 -1.5q-6 -1 -11 -1h-10l-39 -3h1q-44 0 -75.5 -0.5t-67.5 -2.5l397 388q16 19 20 36q4 20 -7.5 35t-33.5 15h-4l-258 -15q-41 -2 -65 -6t-37.5 -11.5t-19.5 -20t-11 -31.5v-2q-5 -23 8.5 -34t41.5 -11q27 0 65 8l134 11 l-384 -375q-24 -24 -28 -47q-5 -24 8.5 -38.5t39.5 -14.5h5q31 1 75 2t88.5 2t84.5 1h63h25q26 0 45 21t28 48l-2 -2q4 8 4 11z" />
<glyph unicode="{" horiz-adv-x="496" d="M398 -70l2 6q3 18 -5 33t-28 15q-11 0 -24 -6q-29 -13 -46 -13q-15 0 -21 9.5t-3 25.5l1 5q0 2 1 2.5t1 2.5q4 13 9 27t10 31q9 27 20.5 60.5t23.5 78.5q2 8 3.5 16t3.5 16q7 32 3 58.5t-22 52.5q28 18 47.5 41t34 52.5t26.5 65t24 78.5q6 20 14 42.5t19.5 41.5 t26.5 31.5t35 12.5h19q17 0 32 7.5t25 39.5l2 9q5 29 -6 37t-32 8q-47 0 -87 -19.5t-72 -52t-55 -73t-35 -82.5l-8 -30q-9 -34 -17.5 -60t-21.5 -43.5t-33 -26.5t-52 -9q-17 0 -32 -6.5t-27 -16.5t-19.5 -23t-9.5 -25q-4 -20 5.5 -35t37.5 -15q46 0 58.5 -13t6.5 -44 q-2 -6 -3.5 -12.5t-3.5 -14.5l-1 -6q-10 -33 -20.5 -64t-20.5 -60q-8 -22 -14.5 -41t-11.5 -33l-1 -4q-2 -8 -4 -15t-3 -15q-11 -57 7.5 -87.5t75.5 -30.5q17 0 36.5 3t42.5 8l3.5 1t5.5 2v-1q10 3 21.5 6t22 9.5t19.5 16.5t14 26z" />
<glyph unicode="|" horiz-adv-x="223" d="M352 640q2 6 4.5 15t5.5 19q4 13 8 27.5t7 28.5q5 26 0.5 44.5t-29.5 18.5h-3q-1 0 -2.5 -0.5t-3.5 -0.5q-24 -5 -38.5 -13t-23.5 -20.5t-15 -32t-14 -48.5q-2 -5 -3.5 -11t-3.5 -13l-214 -732v2q-2 -6 -4 -11.5t-3 -10.5q-3 -17 1 -28t12.5 -17.5t19.5 -9t20 -2.5 q22 0 43 26t35 78h-1z" />
<glyph unicode="}" horiz-adv-x="496" d="M465 393q-6 2 -11 4.5t-8 8.5t-3 17q0 12 4 33q8 45 25 97.5t40 106.5v-1q8 18 11 37q5 24 2 47t-15 41t-33 28.5t-53 10.5q-28 0 -48.5 -1.5t-46.5 -7.5q-23 -5 -37.5 -21.5t-18.5 -35.5t5.5 -34t38.5 -15l11.5 1t18.5 2q16 3 30 3q5 0 15 -2q11 -2 13.5 -8t0.5 -13 q0 -4 -4 -14q-25 -60 -43.5 -119.5t-29.5 -108.5q-15 -76 16 -113q-46 -27 -72.5 -71t-41.5 -99l-27 -99q-3 -11 -8 -24.5t-12.5 -25.5t-18.5 -20.5t-26 -9.5q-40 -4 -64.5 -23.5t-31.5 -42.5l-2 -7q-6 -32 10 -43t36 -11q36 0 72.5 17.5t68.5 46.5t56 65.5t35 75.5l27 99 q3 12 11 31.5t21.5 38t34 32t49.5 13.5q35 0 57 19.5t27 40.5q4 18 -7 32t-40 14h1l-23 3q-6 3 -12 5z" />
<glyph unicode="~" horiz-adv-x="492" d="M615 626v3q3 15 -10.5 27.5t-33.5 12.5q-14 0 -28 -7t-25 -24l-8 -16q-5 -12 -12 -25.5t-20 -13.5q-11 0 -17.5 9t-11.5 20q-5 9 -10 17.5t-13 15.5t-19 11.5t-27 4.5q-21 0 -49.5 -10t-55.5 -26t-47.5 -36.5t-25.5 -41.5v-4q-4 -18 8.5 -32t35.5 -14q16 0 30 10t28 24 h-1q12 11 23.5 19.5t20.5 8.5q7 0 17 -19q10 -17 27 -33.5t55 -16.5q31 0 57 6t47 21.5t37.5 42t27.5 66.5z" />
<glyph unicode="&#xa1;" horiz-adv-x="222" d="M119 252l-103 -347q-2 -8 -4.5 -16t-4.5 -17q-3 -15 -3 -29t4 -24.5t13 -16.5t25 -6q21 0 35.5 7.5t24.5 19.5t15 26.5t8 27.5q1 2 0.5 4.5t0.5 4.5l1 7l100 354v-1q10 23 15 46t-2.5 37t-32.5 14q-38 0 -59.5 -25.5t-32.5 -65.5zM160 430l-2 -10q-5 -26 6 -41.5 t43 -15.5q17 0 33.5 7t30.5 19.5t24.5 29t16.5 36.5l2 8q4 21 -5.5 39t-39.5 18q-41 0 -66.5 -18t-42.5 -72z" />
<glyph unicode="&#xa2;" horiz-adv-x="481" d="M615 509l1 4q3 18 -1.5 29.5t-15 18t-26.5 9t-34 2.5q-30 0 -46.5 -0.5t-26.5 -1.5l8 32q1 2 1 5t2 7q2 5 4 12t4 15q3 19 -2.5 34t-31.5 15q-20 0 -32 -4t-19.5 -11t-11.5 -18t-8 -24q-2 -5 -5 -15.5l-3 -10.5l-18 -68q-96 -33 -159.5 -98t-92.5 -165q-2 -5 -3 -10 t-2 -11q-8 -41 -1 -72.5t25 -52.5t44.5 -32t58.5 -11h2l-13 -58v2q-4 -10 -6 -18.5t-4 -15.5q-5 -29 5.5 -34.5t35.5 -5.5h3q17 0 27.5 3.5t16.5 11t9.5 17.5t7.5 24q1 9 6 21l21 76q25 7 51 19.5t50 26.5t45 28t36 25q20 17 33 37t16 37q3 16 -2.5 26t-21.5 10h2q-4 1 -6 1 h-10q-14 0 -38.5 -7t-52.5 -31q-7 -9 -25.5 -24.5t-41.5 -27.5l64 230q8 3 12 3.5t15 0.5q7 0 19 -3l24 -6q8 -2 14 -4t12 -2q5 -1 10 -1h10q30 0 43.5 13t20.5 33zM216 273l1 5q0 1 2 5q14 48 37.5 78.5t61.5 52.5l-61 -218q-23 0 -35 22t-6 55z" />
<glyph unicode="&#xa3;" horiz-adv-x="579" d="M502 342q-16 0 -21 -1t-13 -8h-122q6 19 11 39.5t10 45.5h124q8 -5 15 -6t15 -1q32 0 50 16t27 45l1 8q5 23 -4 42t-35 19q-16 0 -21 -1.5t-18 -8.5h-137l1 5q2 17 4 34.5t4 37.5l1 3q7 34 -3 53.5t-35 19.5h-5q-17 0 -28 -6t-19 -16.5t-14 -25t-13 -32.5l-1 -5 q2 -19 1.5 -35.5t-1.5 -32.5h-50q-8 6 -17.5 7t-13.5 1q-32 0 -52.5 -22.5t-25.5 -48.5q-5 -23 4.5 -41.5t35.5 -18.5q10 0 20 2.5t18 7.5h67q-5 -22 -10.5 -43t-11.5 -42h-69q-7 5 -15.5 6t-16.5 1q-16 0 -29 -6.5t-22.5 -16.5t-16 -23t-9.5 -26q-5 -23 4.5 -41t36.5 -18 q6 0 16 2.5t24 8.5h55q-6 -14 -12.5 -28.5t-11.5 -28.5q-10 -21 -18.5 -42.5t-17.5 -43.5q-4 -11 -7.5 -22t-5.5 -22q-4 -23 3.5 -37t36.5 -14h5q25 2 40.5 15t25.5 32q14 -8 32 -16.5t38 -16t41 -13t40 -7.5q7 -1 13 -1h13q49 0 85 17t60.5 42.5t38 55.5t18.5 55 q5 28 0.5 45.5t-16.5 17.5h-2q-14 -1 -25 -4t-20 -11t-15.5 -22t-12.5 -37q-4 -18 -15.5 -28.5t-28.5 -16t-37.5 -6.5t-41.5 -1q-28 0 -53.5 10.5t-48.5 22.5q-8 4 -16.5 8t-16.5 8q7 14 12.5 27t11.5 27q3 9 6 17.5t8 17.5h134q9 -4 14 -5t9 -1h3q17 0 31.5 6.5t25.5 17 t18.5 23t10.5 25.5q4 22 -7 39t-41 17z" />
<glyph unicode="&#xa5;" d="M542 194q-16 0 -21 -1t-14 -8h-96l23 85h96q8 -5 15 -6t15 -1q32 0 50.5 16t26.5 45l2 8q5 23 -4.5 42t-35.5 19q-16 0 -21 -1.5t-18 -8.5h-23l211 171q20 20 29 33.5t11 23.5q3 15 -5 23.5t-19 15.5h-1q-9 6 -19 6q-14 0 -27 -7t-27 -16q-6 -4 -11.5 -8t-15.5 -9 l-238 -196l-118 173v-2q-15 33 -28.5 55t-29.5 22h-5q-23 -5 -44.5 -18.5t-26.5 -38.5q-2 -12 1 -26.5t15 -30.5l98 -171h-22q-8 6 -17.5 7t-13.5 1q-32 0 -52.5 -22.5t-25.5 -48.5q-5 -23 5 -41.5t36 -18.5q10 0 19.5 2.5t17.5 7.5h85l-23 -85h-86q-7 5 -15.5 6t-16.5 1 q-16 0 -29 -6.5t-22.5 -16.5t-16 -23t-9.5 -26q-5 -23 4.5 -41t36.5 -18q6 0 16 2.5t24 8.5h82l-1 -7q-4 -11 -6 -24q-5 -28 0.5 -46t30.5 -18h5q21 2 35 9t23 18t14.5 24.5t9.5 28.5l4 15h98q9 -4 14 -5t9 -1h3q17 0 31.5 6.5t25.5 17t18.5 23t10.5 25.5q4 22 -6.5 39 t-40.5 17z" />
<glyph unicode="&#xa6;" horiz-adv-x="223" d="M352 640q2 6 4.5 15t5.5 19q4 13 8 27.5t7 28.5q5 26 0.5 44.5t-29.5 18.5h-3q-1 0 -2.5 -0.5t-3.5 -0.5q-24 -5 -38.5 -13t-23.5 -20.5t-15 -32t-14 -48.5q-2 -5 -3.5 -11t-3.5 -13l-65 -224v2q-5 -11 -7 -22q-3 -17 1 -28t12.5 -17.5t19.5 -9t20 -2.5q22 0 43 26t35 78 l-1 -1zM202 113q2 6 4.5 15t5.5 19q4 13 8 27.5t6 28.5q5 26 1 44.5t-29 18.5h-3q-1 0 -2.5 -0.5t-3.5 -0.5q-24 -5 -38.5 -13t-23.5 -20.5t-15.5 -32t-14.5 -48.5q-3 -11 -6 -24l-66 -224l1 2q-3 -6 -4.5 -11.5t-3.5 -10.5q-3 -17 1.5 -28t12.5 -17.5t19 -9t20 -2.5 q22 0 43 26t35 78h-1z" />
<glyph unicode="&#xa7;" horiz-adv-x="418" d="M262 338q-9 -46 1.5 -66t42.5 -20q14 0 26 5.5t21.5 13t15 16.5t7.5 17q-2 17 -1.5 25.5t2.5 19.5q1 6 3.5 17t5.5 23h69q10 0 19.5 5.5t17 14t12 18t6.5 17.5q3 18 -2.5 28t-17.5 15t-28 6.5t-33 1.5l-5 2q12 29 29.5 68t36.5 75l13 22q-3 6 -8.5 14.5t-12 17t-15 14.5 t-17.5 6q-16 -7 -47.5 -27.5t-69.5 -49t-78.5 -61.5t-74 -64t-56.5 -56t-25 -38q-2 -9 1 -19.5t8.5 -19t12.5 -14t14 -5.5h10q14 4 31.5 8.5t35 8t33.5 6.5t27 5l-1 -7q-2 -7 -3 -13.5t-3 -12.5zM324 490q-23 -2 -44.5 -8t-43.5 -13q36 33 59.5 51.5t40.5 30.5q4 2 6.5 4.5 t5.5 4.5h1q-13 -29 -25 -70z" />
<glyph unicode="&#xa8;" horiz-adv-x="448" d="M343 576l1 7q2 4 3 7q2 10 2 21q0 12 -4.5 21.5t-14 15.5t-26.5 6q-19 0 -37 -7.5t-32.5 -19t-24.5 -25t-14 -26.5l-1 -4q-2 -12 0.5 -25.5t10 -24.5t18.5 -18t26 -7q19 0 35 8t27.5 19.5t19.5 25.5t11 26zM533 580q2 3 2.5 7.5t1.5 9.5q2 11 2 22t-4.5 19.5t-14 14 t-26.5 5.5q-19 0 -37 -7.5t-32.5 -19t-24.5 -25.5t-13 -27l-1 -5q-3 -13 0 -26t10.5 -23.5t18 -17t24.5 -6.5q19 0 35 7.5t28 19.5t19.5 26t11.5 26z" />
<glyph unicode="&#xa9;" horiz-adv-x="732" d="M809 382q5 16 8.5 31.5t7.5 32.5q12 61 10.5 117t-21.5 99t-63.5 68.5t-115.5 25.5q-59 0 -118 -23.5t-114 -62.5t-104 -89.5t-88.5 -104.5t-67.5 -107t-40 -98q-5 -14 -7.5 -26t-4.5 -26q-27 -139 23.5 -218t170.5 -79q81 0 163 36.5t153 99t126 146t82 178.5zM712 390 q-21 -77 -64 -146.5t-98.5 -122t-120 -83.5t-128.5 -31q-78 0 -103.5 56.5t-6.5 150.5q2 11 4.5 21.5t5.5 22.5l1 3q11 37 34.5 82t56 90.5t72 88.5t82.5 76.5t87.5 53.5t87.5 20t68 -17.5t36.5 -47t11 -68t-8.5 -79.5q-6 -33 -17 -70zM611 235q25 31 30 55q4 17 -5.5 26.5 t-33.5 9.5q-16 0 -27.5 -4.5t-19.5 -11t-13 -13.5t-8 -12q-1 -1 -1 -2l-2 -2q-8 -11 -23.5 -24.5t-36.5 -25t-45 -19.5t-48 -8q-23 0 -30 18.5t-2 38.5l1 5q9 36 29.5 69.5t45.5 59t52.5 41t50.5 15.5q25 0 42 -4.5t22 -14.5q8 -6 17.5 -8t18.5 -2q22 0 38.5 11.5t20.5 30.5 q5 25 -21 49q-23 23 -50 28t-65 5q-46 0 -94 -23t-90 -62t-74 -89.5t-46 -104.5l-3 -13q-5 -28 -2.5 -54t15 -46.5t35.5 -32.5t59 -12q47 0 84 9.5t64.5 24t46 30t30.5 27.5l-1 -1z" />
<glyph unicode="&#xaa;" horiz-adv-x="371" d="M490 602l2 8q5 25 0.5 41t-14 25t-23.5 12.5t-29 3.5q-43 0 -94.5 -10.5t-97.5 -37.5l1 1l-6 -3q-10 -5 -21.5 -11.5t-17.5 -26.5l-1 -5q-3 -17 4 -22.5t20 -5.5q16 0 34.5 7.5t23.5 9.5l-1 -1q12 3 22.5 6.5t21.5 6.5q20 7 39.5 12t37.5 5q4 0 9.5 -0.5t5.5 -5.5l-9 -31 q-54 -3 -101 -12.5t-84 -27t-63.5 -43t-38.5 -60.5q0 -2 -1 -4t-1 -3l-1 -4q-3 -15 0.5 -32.5t12.5 -32.5t22.5 -24.5t30.5 -9.5q43 0 86.5 15t74.5 27q2 1 8 3l-1 -7q-3 -14 3 -21.5t31 -7.5q26 0 40 14t19 43zM362 213q27 0 44.5 11.5t20.5 25.5q2 15 -13.5 27.5 t-53.5 12.5q-4 0 -6.5 0.5t-6.5 0.5q-5 1 -11 1h-10q-11 0 -23 -3h-136q-3 1 -13 1q-6 0 -14 -0.5t-14 -1.5q-5 -1 -8 -1h-4q-30 0 -46.5 -11t-18.5 -25q-3 -15 11 -28t45 -13q2 0 10 -2q5 -1 11 -1.5t13 -0.5q14 0 23 5l131 1zM215 402q-7 0 -11 1h1q-16 4 -18 8t1 21v2 q4 13 22.5 25t46 22t60 17t63.5 12l-6 -45q-2 -2 -19.5 -12t-41.5 -21.5t-50.5 -20.5t-47.5 -9z" />
<glyph unicode="&#xab;" horiz-adv-x="459" d="M504 472h-4q-15 0 -35 -11l-140 -87q-18 -7 -31.5 -19.5t-17.5 -29.5q-4 -20 2.5 -27.5t16.5 -14.5l-2 2l105 -127l2 -3q8 -11 14.5 -17.5t19.5 -8.5h10q11 0 20.5 8t20.5 31h-1q2 5 2.5 7t1.5 4q2 11 -3 22t-22 27l-72 87l97 59q25 11 35.5 27t12.5 25q0 2 0.5 4.5 t-1.5 5.5q-4 20 -10.5 27t-20.5 9zM320 489h-4q-15 0 -35 -11l-140 -87h1q-18 -6 -32 -19t-18 -30q-4 -20 2.5 -27.5t16.5 -14.5l-1 2l104 -127l2 -3q8 -11 14.5 -17.5t19.5 -8.5h10q11 0 20.5 8t20.5 31h-1q4 8 4 11q2 11 -2.5 22t-21.5 27v-1l-72 88l96 59q25 11 35.5 27 t12.5 25q2 5 -1 10q-4 20 -10.5 27t-20.5 9z" />
<glyph unicode="&#xac;" horiz-adv-x="949" d="M831 740l-110 -289l1 1q-4 -8 -4 -11q-4 -22 9 -38q6 -7 10.5 -11t9.5 -8l5 -5l4 -4q7 -5 15 -8q-36 -9 -62 -21q-11 -42 -25 -85t-29 -85q-10 -27 -19 -53t-17 -49q8 52 16 103t16 93q6 28 12 52q3 17 -1 26.5t-21 14.5l-1 -1q-2 1 -4 1t-4 1q-17 5 -37 9t-49 6h-7 q-20 0 -32.5 -7.5t-23.5 -19.5h1q-25 -30 -55 -71t-60 -84t-57.5 -85t-46.5 -74q-1 -1 -1 -3l-1 6q-2 5 -2 9t-8 19q-7 9 -12.5 12.5t-17.5 3.5h-7q-20 -2 -37 -3.5t-36 -3.5l2 2q13 30 27.5 61.5t29 62t28.5 59t26 51.5q2 3 3.5 6.5t1.5 5.5q4 14 -15 27q-12 8 -27 14 t-29 9l2 -1q-6 2 -10 2.5t-7 0.5q-17 0 -30 -21q-17 -31 -36 -72.5t-37 -84.5t-33 -83t-24 -67l-2 -7q-2 -12 0.5 -21t10.5 -18q1 -2 2.5 -3t5.5 -6q5 -5 10 -8.5t10 -8.5q5 -4 11.5 -7.5t17.5 -3.5q5 0 11 1t15 4l-2 -1q31 6 65 12.5t66 12.5q7 2 11.5 3t7.5 3q2 -5 5 -7.5 t7 -5.5q2 -1 5 -4l13 -7q4 -2 8 -3.5t7 -3.5q11 -4 17 -4q14 0 25 17q2 4 5 7.5t5 7.5q8 11 15.5 22.5t17.5 25.5q26 7 57 11t61 8h4q-1 -5 -1.5 -9t-0.5 -9q0 -23 -3 -41q1 -17 6 -23.5t19 -11.5l-1 1q13 -5 24 -6t25 -1q18 0 25 5.5t9 20.5q2 10 2.5 19.5t2.5 20.5 q1 -3 3 -6t4 -8q2 -3 5 -6q11 -12 21 -19.5t26 -14.5l-1 1q8 -6 15 -9t16 -3q7 0 14 1.5t17 3.5q18 4 39 11t42.5 16t41.5 20t35 23q17 13 29 26.5t16 32.5q1 5 1 8v8v-1q1 16 -6 31t-19 26q10 6 19.5 12t17.5 12q21 15 37.5 33t20.5 40q1 4 1.5 9t-1.5 11l1 -1 q-2 23 -11 40.5t-23 32.5q-24 22 -75 24q4 0 6 1q18 3 33 6q26 6 29 21q2 6 -1 13v-1q-3 22 -7 35q-6 11 -12.5 16t-19.5 5h-10q-20 -2 -37.5 -3.5t-35.5 -3.5q2 4 3.5 7.5t3.5 5.5q4 13 8 20q22 5 46.5 8.5t47.5 7.5q5 1 8.5 1.5t8.5 1.5q14 3 21.5 7t9.5 14v5q0 4 -2 8v-1 q-3 20 -8 37q-4 11 -11.5 14.5t-20.5 3.5h-6h-23q-10 0 -20 -2q3 8 7 13q6 14 12 25.5t12 22.5q20 2 38 4t37 4q9 1 17.5 2t16.5 2q14 2 21 6t9 15q1 2 1 11v-1q0 11 -1.5 18.5t-4.5 18.5l-1 -1q-7 23 -36 23q-54 -2 -107 -10.5t-92 -17.5zM479 693q16 1 22 6 q-5 -13 -10.5 -26.5t-10.5 -27.5q-20 -57 -42 -114.5t-42 -100.5q-2 -4 -4 -12q-2 -12 2.5 -19t13.5 -13v1q9 -7 19.5 -10.5t20.5 -5.5h-1q2 -1 4 -1t4 -1q2 0 3.5 -0.5t2.5 -0.5q2 -1 6 -1q20 0 26 20q5 10 9 21t9 23q5 14 11 29.5t15 35.5q8 1 16.5 1.5t16.5 2.5l25 3 q-8 -22 -14.5 -41t-10.5 -35l1 2q-2 -5 -2.5 -7.5t-1.5 -4.5q-3 -17 8 -26.5t30 -15.5l-1 1q2 -1 4.5 -2t3.5 -2q7 -2 12.5 -3.5t16.5 -1.5q9 0 16 4t10 16q15 40 34 85t38 88.5t37.5 83.5t32.5 71v1q3 6 3 11q2 8 -0.5 14t-13.5 14v-1q-26 18 -51 24q-3 0 -4 1h1q-3 1 -7 1 h-6q-20 0 -30 -22q-11 -23 -23 -51.5t-25 -59.5l-20 -47q-13 -2 -25.5 -2.5t-26.5 -1.5q5 11 9.5 21.5t9.5 21.5v-1q11 23 19.5 43t13.5 28q0 2 1 3.5t1 2.5l1 3q2 9 -1.5 16t-14.5 14q-12 8 -26 14t-26 10v-1q-11 4 -17 4q-21 0 -30 -24q-3 -8 -6 -17t-8 -18q1 2 0.5 4.5 t-0.5 7.5q-5 21 -16 38q-6 8 -13 11t-23 3q-26 -1 -58.5 -3.5t-67 -5.5t-67.5 -7t-59 -8q-20 -3 -23 -19v-6v-5q2 -2 2.5 -5.5t2.5 -7.5q3 -8 6 -16.5t11 -17.5q11 -14 25 -14h6q4 0 7 1h-1q1 0 2 0.5t2 0.5q8 2 19 3q2 0 4.5 0.5t4.5 0.5q-12 -28 -25.5 -61t-26.5 -66 t-23.5 -63t-16.5 -52l2 2l-3 -7.5t-2 -4.5q-4 -20 8 -28.5t29 -14.5q4 -1 8 -2.5t7 -2.5l-1 1q16 -6 25 -6t16 4t11 16q13 34 29 72.5t32.5 77.5t34 77.5t33.5 73.5q12 1 24.5 2t23.5 2q7 1 12 1q6 0 11 1zM341 219q15 14 35.5 40t34.5 48q0 4 2 8q3 6 3 10q1 5 -0.5 11.5 t-6.5 14.5q-5 4 -10 9t-15 11l1 -1q-11 8 -20 8q-17 0 -26 -17q-11 -18 -30 -44t-36 -49q-6 -9 -11 -16t-10 -13q-2 -5 -4 -8.5t-2 -5.5q-3 -17 18 -22q6 -1 12 -1.5t14 -0.5q5 0 9 1q11 0 21 4.5t21 12.5zM823 277q39 15 63 15q6 0 9.5 -1t5.5 -2l-1 -6q-8 -12 -35 -30 t-69 -32q8 16 14.5 30.5t12.5 25.5zM797 130q20 0 25 -6v-1q-2 -12 -27 -27t-65 -26q4 9 7 17.5t7 17.5v-1q2 4 3.5 9t3.5 10q25 7 46 7zM473 172q31 43 60 81q-5 -23 -8.5 -46t-5.5 -46q-15 -1 -29.5 -2t-28.5 -3l6 8z" />
<glyph unicode="&#xad;" horiz-adv-x="386" d="M393 224q28 0 46.5 17t22.5 38q5 21 -9.5 39t-52.5 18q-4 0 -7 0.5t-8 0.5h2q-5 1 -11 1h-10q-11 0 -23 -3h-136q-3 1 -13 1q-6 0 -14 -0.5t-14 -1.5q-5 -1 -8 -1h-4q-30 0 -48 -17t-22 -37q-4 -22 8 -40t43 -18q1 0 11 -2q5 -1 10.5 -1.5t12.5 -0.5q14 0 23 5l131 1z " />
<glyph unicode="&#xae;" horiz-adv-x="512" d="M620 513q9 46 3.5 80t-20 58t-36 40t-44.5 25t-45.5 12.5t-38.5 3.5q-55 0 -109.5 -26.5t-99.5 -69.5t-77.5 -97t-42.5 -109q-11 -54 1 -94t37.5 -66t60 -38.5t68.5 -12.5q41 0 94 16.5t103 52t90.5 91.5t55.5 134zM553 513q-12 -60 -42.5 -103t-69.5 -70.5t-79.5 -40.5 t-71.5 -13q-24 0 -47.5 8.5t-40.5 26.5t-25 45t0 64q8 43 32.5 85t59 75.5t75.5 54t82 20.5q15 0 40 -5.5t47.5 -22t35.5 -46.5t4 -78zM501 559q6 31 -7.5 51t-41.5 21q-4 1 -17 1q-15 0 -35.5 -3t-42.5 -10t-43 -19.5t-37 -30.5q-5 -26 -9.5 -45.5t-7.5 -33.5l-5 -26 q-3 -13 -6 -25l-18 -94q-3 -15 5.5 -23.5t23.5 -8.5q17 0 34 10.5t21 30.5l5 28l39 -13l-1 1q19 -10 34.5 -15.5t28.5 -5.5q20 0 34.5 14t28.5 46q-40 14 -63.5 21.5t-43.5 14.5q44 19 80 47t44 67zM420 550q-2 -10 -23 -21.5t-45 -22.5h1l-3.5 -1.5t-5.5 -2.5l5 30l11 4h-1 q17 5 33.5 10t27.5 5v-1z" />
<glyph unicode="&#xaf;" horiz-adv-x="386" d="M430 510q28 0 46.5 17t23.5 38q4 21 -10 39t-52 18q-52 1 -89 1h-61q-38 0 -54 -0.5t-23 -0.5h-6q-30 0 -47.5 -17t-22.5 -37q-4 -22 8 -40t43 -18h244z" />
<glyph unicode="&#xb0;" horiz-adv-x="253" d="M374 583l2 7q0 2 1 3.5t1 3.5q7 33 -7.5 58.5t-54.5 25.5q-34 0 -64 -14t-53 -36t-38.5 -47.5t-21.5 -49.5l-1 -6q-7 -32 6.5 -57t58.5 -25q27 0 55 11t51.5 29.5t40.5 43.5t24 53zM299 577q-6 -20 -23 -35t-37 -15q-6 0 -7 5.5t1 11.5q5 17 20.5 34.5t39.5 17.5 q10 0 7 -14z" />
<glyph unicode="&#xb1;" horiz-adv-x="417" d="M431 408h-69l17 59q5 7 8 20l2 9l2 8q5 23 -5 34t-26 11q-17 0 -34 -12t-22 -34q-3 -5 -4 -11q-2 -5 -4.5 -11.5t-2.5 -5.5l-1 -7l-17 -60h-62q-4 2 -8 2q-5 0 -9.5 -0.5t-9.5 -1.5q-4 -1 -6 -1q-26 0 -43.5 -14.5t-20.5 -31.5q-3 -15 6 -27t32 -12q5 0 8 -1 q4 -1 8.5 -1.5t10.5 -0.5q7 0 11 2h58l-17 -64q-5 -6 -6.5 -13t-2.5 -14l-4 -17q-5 -24 5 -33t25 -9q17 0 34 10.5t22 29.5q1 3 3 11l4 16q3 9 6.5 21t2.5 9v-1l15 54h68q4 -2 12 -2q9 0 17 2q4 1 6 1q26 0 44 16.5t22 34.5q2 14 -5.5 25t-29.5 11zM367 156h-219q-4 2 -8 2 q-5 0 -9.5 -0.5t-9.5 -1.5q-4 -1 -6 -1q-26 0 -43.5 -14.5t-20.5 -31.5q-3 -15 6 -27t32 -12q4 0 7 -1q4 -1 8 -1.5t10 -0.5q7 0 16 3h210q4 -3 14 -3t18 2q2 1 3 1h1q26 0 43.5 16.5t21.5 34.5q2 14 -5.5 25t-29.5 11z" />
<glyph unicode="&#xb2;" horiz-adv-x="358" d="M363 456l-2 -1q54 48 81.5 92.5t31.5 65.5l1 2q8 39 -13.5 63t-64.5 24q-21 0 -44 -5t-47 -16q-19 -9 -43.5 -23t-47 -31t-39 -34.5t-19.5 -32.5q-2 -10 2 -20t10.5 -17.5t15 -12t14.5 -4.5q16 2 33.5 13t44.5 32q10 8 21.5 16t23.5 14.5t22.5 10.5t17.5 4 q-4 -8 -18.5 -25t-35.5 -39t-45.5 -46.5t-48.5 -47.5t-45 -42t-33 -29q-39 -34 -51.5 -48.5t-13.5 -21.5q-5 -20 4 -34t31 -14q16 2 19.5 2.5t10.5 2.5h-1q23 5 57.5 10.5t68.5 5.5q39 0 59.5 -1.5t29.5 -2.5h8q35 0 49 15.5t17 34.5q8 37 -18 50t-89 13q-9 0 -18.5 -0.5 t-18.5 -1.5z" />
<glyph unicode="&#xb3;" horiz-adv-x="373" d="M497 614q4 23 -2 42t-19.5 32.5t-32.5 21t-41 7.5q-25 0 -65 -13.5t-79 -34t-68.5 -44.5t-33.5 -45q-2 -10 1 -20t9.5 -17.5t16 -12.5t20.5 -5q8 0 23 5q20 18 41.5 33.5t41.5 26.5t37 17t28 6q9 0 9 -2q-2 -12 -19.5 -25t-42 -25t-51 -21.5t-47.5 -13.5 q-23 -2 -32 -11.5t-14 -32.5q-4 -23 4 -43t28 -20q5 0 10 2h7l1 1h-2q33 12 63 12q19 0 30 -5t9 -16q-4 -19 -27 -34t-60 -15q-20 0 -34 3t-16 11q-2 10 -8.5 16.5t-13.5 10.5t-13.5 5t-9.5 1q-21 0 -40.5 -9.5t-24.5 -36.5q-4 -20 6 -38.5t30 -32.5t48.5 -22t61.5 -8 q36 0 70 9t62.5 27t49 45.5t27.5 64.5q6 32 -1 55.5t-24 43.5q38 23 59.5 47t27.5 58z" />
<glyph unicode="&#xb4;" horiz-adv-x="527" d="M300 489h3q8 0 17 4t31 26q8 8 23.5 18.5t37.5 24.5q19 13 33.5 23t25.5 20.5t20.5 23.5t19.5 31q0 1 1 1.5t1 1.5l-1 -2q7 13 8 23q7 37 -27 37q-11 0 -28.5 -6.5t-37.5 -17.5q-17 -10 -36.5 -26.5t-38 -36t-36 -40t-29.5 -38.5q-16 -22 -19 -35q-2 -13 5 -18.5 t24 -12.5z" />
<glyph unicode="&#xb6;" horiz-adv-x="499" d="M508 615q-56 0 -119.5 -20.5t-121 -59.5t-103 -95.5t-64.5 -129.5q-2 -6 -3 -12.5t-2 -11.5q-14 -72 12.5 -113.5t92.5 -41.5h21t21 2l-63 -240l-1 -8q-6 -29 4 -43.5t27 -14.5h5t8 2l-1 -1q35 8 54.5 35.5t36.5 92.5l153 553q8 0 11 1q2 0 4 0.5t4 0.5q5 0 9.5 -3 t7.5 -11l-167 -595l-2 -9q-5 -29 5 -43.5t27 -14.5h4q3 0 8 2l-1 -1q18 4 31.5 12.5t23.5 23.5t19 37t18 55l152 588l1 3q4 19 -8 30.5t-30 18t-39 9t-35 2.5z" />
<glyph unicode="&#xb7;" horiz-adv-x="212" d="M264 310q2 4 2.5 8.5t2.5 9.5q2 12 2 25t-4.5 23t-15.5 16.5t-30 6.5q-22 0 -42.5 -8.5t-37 -21.5t-28.5 -28.5t-16 -30.5l-1 -6q-3 -15 0.5 -30t12 -27t21 -19.5t28.5 -7.5q22 0 40 9t31.5 22.5t22 29.5t12.5 30v-1z" />
<glyph unicode="&#xb8;" horiz-adv-x="500" d="M295 -72l30 61q1 4 2 8.5t2 9.5q2 5 3 10.5t2 10.5q4 20 -2 35t-36 15q-19 0 -33.5 -8t-25.5 -20.5t-18.5 -29.5t-13.5 -35l-17 -51q-8 -14 -10 -19.5t-5 -20.5q-3 -18 0.5 -33.5t25.5 -19.5q1 0 2.5 -0.5t2.5 -0.5h3q12 0 24.5 7t24.5 19t22.5 28.5t16.5 34.5v-1z" />
<glyph unicode="&#xb9;" horiz-adv-x="186" d="M160 534l-36 -131q-2 -10 -5 -27.5t-6 -35.5t-5 -34.5t-3 -23.5q0 -8 6 -15t16 -11q7 -6 12 -7.5t11 -1.5h5q15 0 24 3t14.5 9t8.5 14t5 18l14 73q12 55 23 96t20.5 72t17 52.5t13.5 36.5q2 7 4.5 14t4.5 12l2 10q1 15 -6 24.5t-16.5 14.5t-17.5 6.5t-9 1.5 q-14 0 -32.5 -8.5t-35 -19.5t-28.5 -20.5t-12 -12.5q-3 -17 2.5 -30t24.5 -19q-8 -32 -11 -43t-5 -17z" />
<glyph unicode="&#xba;" horiz-adv-x="399" d="M508 527l2 8q0 2 1 3.5t1 3.5q5 25 2.5 48.5t-13 41.5t-30.5 28.5t-51 10.5q-51 0 -95.5 -21t-79.5 -53.5t-59 -71.5t-33 -75l-1 -9q-5 -23 -3 -44.5t12.5 -38.5t31 -27.5t53.5 -10.5q42 0 84 16.5t78 45t62.5 66t37.5 79.5zM368 213q27 0 44.5 11.5t20.5 25.5 q2 15 -13.5 27.5t-53.5 12.5q-4 0 -6.5 0.5t-6.5 0.5q-5 1 -11 1h-10q-11 0 -23 -3h-136q-3 1 -13 1q-6 0 -14 -0.5t-14 -1.5q-5 -1 -8 -1h-4q-30 0 -46.5 -11t-18.5 -25q-3 -15 11 -28t45 -13q2 0 10 -2q5 -1 11 -1.5t13 -0.5q14 0 23 5l131 1zM424 537l-1 -8 q-7 -25 -22.5 -48.5t-36.5 -41.5t-46.5 -29t-50.5 -11q-22 0 -27 14t-2 30l1 6q6 22 19.5 46.5t33.5 44.5t46 33.5t58 13.5q23 0 27.5 -15t0.5 -35z" />
<glyph unicode="&#xbb;" horiz-adv-x="459" d="M160 472q-16 -2 -25.5 -9t-20.5 -27q-4 -5 -4 -10q-2 -9 2.5 -25t24.5 -27l73 -59l-105 -87q-23 -16 -32 -27t-11 -22q-1 -4 0 -11h-1q2 -23 8 -31t17 -8h10q14 2 23 8.5t21 17.5l4 3l151 125q13 7 22 14.5t13 27.5q4 17 -5.5 29.5t-23.5 19.5l-107 87q-17 11 -30 11h-4z M350 489q-15 -2 -25 -9t-21 -27q-2 -3 -2.5 -5.5t-1.5 -4.5q-2 -9 2.5 -25t24.5 -27l74 -59l-107 -88l2 1q-23 -16 -32.5 -27t-11.5 -22q0 -2 -0.5 -4t0.5 -7h-1q2 -23 8 -31t17 -8h10q14 2 23.5 8.5t20.5 17.5l4 3l154 127l-3 -2q13 7 22 14.5t13 27.5q4 17 -6 30t-25 19h2 l-107 87q-17 11 -30 11h-4z" />
<glyph unicode="&#xbc;" horiz-adv-x="646" d="M443 75q-9 -46 1.5 -66t42.5 -20q14 0 26 5.5t21.5 13t15 16.5t7.5 17q-2 17 -1.5 25.5t2.5 19.5q1 6 3 17t5 23h69q10 0 19.5 5.5t17 14t12.5 18t7 17.5q3 18 -2.5 28t-17.5 15t-28 6.5t-33 1.5l-6 2q13 29 30.5 68t36.5 75l13 22q-3 6 -8.5 14.5t-12.5 17t-15 14.5 t-17 6q-16 -7 -47.5 -27.5t-69.5 -49t-78.5 -61.5t-74 -64t-56 -56t-25.5 -38q-2 -9 1 -19.5t8.5 -19t12.5 -14t14 -5.5h10q14 4 31.5 8.5t35 8t33.5 6.5t27 5l-1 -7q-2 -7 -3.5 -13.5t-2.5 -12.5zM570 572l-1 -3q6 11 13 25t9 25q4 18 -3.5 30t-29.5 12q-36 0 -52.5 -14.5 t-24.5 -30.5q-18 -22 -48.5 -61.5t-67 -87.5t-76 -101t-75 -102.5t-64.5 -91t-45 -66.5q-30 -44 -35 -69q-4 -21 6 -31t36 -10q12 0 22.5 6t20 15t17 19.5t13.5 19.5q1 3 5 8.5t8 12t7.5 12t5.5 7.5q14 22 36.5 53t50 67t58 74.5t60.5 76.5q48 60 88 111.5t65 89.5zM140 511 l-35 -131q-2 -10 -5 -27.5t-6 -35.5t-5.5 -34.5t-3.5 -23.5q0 -8 6 -15t16 -11q8 -6 13 -7.5t11 -1.5h5q29 0 38 12t13 32l14 73q13 55 24 96t20 72t16.5 52.5t13.5 36.5q3 7 5 14t4 12l2 10q1 15 -6 24.5t-16.5 14.5t-17.5 6.5t-9 1.5q-14 0 -32.5 -8.5t-35 -19.5 t-28 -20.5t-11.5 -12.5q-4 -17 2 -30t25 -19q-8 -32 -11.5 -43t-5.5 -17zM505 227q-23 -2 -44.5 -8t-43.5 -13q36 33 59.5 51.5t40.5 30.5q4 2 6.5 4.5t5.5 4.5h1q-13 -29 -25 -70z" />
<glyph unicode="&#xbd;" horiz-adv-x="646" d="M589 183l-2 -1q54 48 81.5 92.5t31.5 65.5v2q8 39 -13 63t-64 24q-21 0 -44 -5t-47 -16q-19 -9 -43.5 -23t-47 -31t-39 -34.5t-19.5 -32.5q-2 -10 2 -20t10.5 -17.5t15 -12t14.5 -4.5q16 2 33.5 13t44.5 32q10 8 21.5 16t23.5 14.5t22.5 10.5t17.5 4q-4 -8 -18.5 -25 t-35.5 -39t-46 -46.5t-49 -47.5t-44.5 -42t-32.5 -29q-39 -34 -51.5 -48.5t-13.5 -21.5q-5 -20 4 -34t31 -14q16 2 19.5 2.5t10.5 2.5h-1q23 5 57.5 10.5t68.5 5.5q39 0 59.5 -1.5t29.5 -2.5h8q35 0 48.5 15.5t17.5 34.5q8 37 -18 50t-89 13q-9 0 -18.5 -0.5t-18.5 -1.5z M570 572l-1 -3q6 11 13 25t9 25q4 18 -3.5 30t-29.5 12q-36 0 -52.5 -14.5t-24.5 -30.5q-18 -22 -48.5 -61.5t-67 -87.5t-76 -101t-75 -102.5t-64.5 -91t-45 -66.5q-30 -44 -35 -69q-4 -21 6 -31t36 -10q12 0 22.5 6t20 15t17 19.5t13.5 19.5q1 3 5 8.5t8 12t7.5 12t5.5 7.5 q14 22 36.5 53t50 67t58 74.5t60.5 76.5q48 60 88 111.5t65 89.5zM140 511l-35 -131q-2 -10 -5 -27.5t-6 -35.5t-5.5 -34.5t-3.5 -23.5q0 -8 6 -15t16 -11q8 -6 13 -7.5t11 -1.5h5q29 0 38 12t13 32l14 73q13 55 24 96t20 72t16.5 52.5t13.5 36.5q3 7 5 14t4 12l2 10 q1 15 -6 24.5t-16.5 14.5t-17.5 6.5t-9 1.5q-14 0 -32.5 -8.5t-35 -19.5t-28 -20.5t-11.5 -12.5q-4 -17 2 -30t25 -19q-8 -32 -11.5 -43t-5.5 -17z" />
<glyph unicode="&#xbe;" horiz-adv-x="815" d="M497 597q4 23 -2 42t-19.5 32.5t-32.5 21t-41 7.5q-25 0 -65 -13.5t-79 -34t-69 -44.5t-34 -45q-3 -20 11 -37.5t37 -17.5q8 0 23 5q20 18 41.5 33.5t41.5 26.5t37 17t28 6q10 0 8 -2q-2 -12 -19.5 -25t-41.5 -25t-50.5 -21.5t-47.5 -13.5q-23 -2 -32.5 -11.5 t-14.5 -32.5q-4 -23 4.5 -43t28.5 -20q5 0 10 2h7l1 1h-2q16 6 32.5 9t30.5 3q19 0 30 -5t9 -16q-4 -19 -27.5 -34t-60.5 -15q-20 0 -33.5 3t-15.5 11q-2 10 -8.5 16.5t-13.5 10.5t-13.5 5t-9.5 1q-21 0 -40.5 -9.5t-24.5 -36.5q-4 -20 6 -38.5t30 -32.5t48.5 -22t61.5 -8 q36 0 70 9t62.5 27t48.5 45.5t27 64.5q7 32 0 55.5t-24 43.5q38 23 59 47t28 58zM612 75q-9 -46 1.5 -66t42.5 -20q29 0 41 17t15 32q-2 17 -1.5 25.5t2.5 19.5q2 6 4 17.5t5 24.5l82 1q10 0 19.5 5.5t17 14t12.5 18t7 17.5q3 18 -2.5 28t-17.5 15t-28 6.5t-33 1.5l-22 -1 q14 35 26.5 55.5t25.5 39.5q8 12 16.5 24.5t15.5 26.5h-1l13 22q-3 6 -8.5 14.5t-12.5 17t-15 14.5t-17 6q-16 -7 -47.5 -27.5t-69.5 -49t-78.5 -61.5t-74 -64t-56.5 -56t-25 -38q-2 -9 1 -19.5t9 -19t14 -14t15 -5.5q16 4 34.5 8.5t37 8t34.5 6.5t28 5l-1 -7 q-2 -7 -3.5 -13.5t-2.5 -12.5zM739 572l-1 -3q6 11 13 25t9 25q4 18 -3.5 30t-29.5 12q-36 0 -52.5 -14.5t-24.5 -30.5q-18 -22 -48.5 -61.5t-67 -87.5t-76 -101t-75 -102.5t-64.5 -91t-45 -66.5q-30 -44 -35 -69q-4 -21 6 -31t36 -10q12 0 22.5 6t20 15t17 19.5t13.5 19.5 q1 3 5 8.5t8 12t7.5 12t5.5 7.5q14 22 36.5 53t50 67t58 74.5t60.5 76.5q48 60 88 111.5t65 89.5zM690 282q-8 -13 -16 -27.5t-13 -29.5q-22 -2 -38 -6t-33 -10q34 31 61.5 53.5t48.5 38.5q-3 -6 -5.5 -10.5t-4.5 -8.5z" />
<glyph unicode="&#xbf;" horiz-adv-x="531" d="M42 -64l-3 -6l-1 -5q-5 -27 3.5 -50.5t27 -41t44.5 -27t56 -9.5q33 0 66.5 10t66.5 25.5t64 35t58 37.5q25 17 46 39.5t28 45.5l2 9q5 28 -5.5 41.5t-31.5 13.5t-49.5 -15t-60.5 -47l2 1q-42 -34 -82 -58.5t-73 -24.5q-20 0 -33.5 6t-11.5 17l1 3q5 18 41 43.5t83 55.5 q33 21 67 44.5t63.5 47.5t50.5 49.5t29 51.5q3 10 5.5 20t4.5 19q6 31 -6.5 48.5t-56.5 17.5q-17 0 -27.5 -14.5t-24.5 -38.5q-10 -17 -23 -39t-34 -45.5t-51.5 -47.5t-73.5 -45q-26 -12 -51.5 -29.5t-47.5 -39t-38.5 -46t-23.5 -51.5v-1zM378 442q-2 -5 -3.5 -9.5 t-2.5 -9.5l3 2q-4 -25 5.5 -40.5t38.5 -15.5q39 0 70 18t45 68l2 9q3 17 -1 29t-12.5 19.5t-21 11t-25.5 3.5q-66 0 -95 -76v1q-3 -6 -3 -10z" />
<glyph unicode="&#xc0;" horiz-adv-x="597" d="M618 81q-4 36 -13 86.5t-20 107.5q-8 42 -15.5 85.5t-13.5 86t-10.5 81.5t-5.5 72l-1 -1q2 34 -10.5 57t-35.5 23q-18 0 -38.5 -16t-43.5 -53v1l-373 -522l1 1q-1 -1 -1.5 -3t-2.5 -4q-7 -11 -16.5 -26.5t-12.5 -32.5q-4 -20 5 -33.5t39 -15.5h4q23 0 41.5 22.5 t41.5 54.5q2 3 4.5 6.5t4.5 6.5l119 173l23 -1t55.5 -2.5t66 -2.5t54.5 -1l2 -9q6 -25 9.5 -39.5t6 -25t4 -21t3.5 -26.5q3 -17 8.5 -40t12 -44t13 -36t11.5 -15h8q32 0 49.5 18t23.5 47q3 19 3 40v1zM547 689q21 8 31.5 13.5t12.5 18.5q3 12 -5 35q-6 18 -15 38.5t-20.5 40 t-24.5 36t-26 26.5q-16 11 -30.5 17.5t-25.5 6.5q-34 0 -41 -37q-2 -5 -2 -11v-12l1 2v-3q3 -18 7.5 -31t11.5 -23.5t17.5 -20.5t24.5 -23q17 -14 28.5 -24.5t16.5 -18.5q13 -20 24 -25t14 -5h1zM452 337l-124 -7l109 161q2 -34 6 -78t9 -76z" />
<glyph unicode="&#xc1;" horiz-adv-x="597" d="M618 81q-4 36 -13 86.5t-20 107.5q-8 42 -15.5 85.5t-13.5 86t-10.5 81.5t-5.5 72l-1 -1q2 34 -10.5 57t-35.5 23q-18 0 -38.5 -16t-43.5 -53v1l-373 -522l1 1q-1 -1 -1.5 -3t-2.5 -4q-7 -11 -16.5 -26.5t-12.5 -32.5q-4 -20 5 -33.5t39 -15.5h4q23 0 41.5 22.5 t41.5 54.5q2 3 4.5 6.5t4.5 6.5l119 173l23 -1t55.5 -2.5t66 -2.5t54.5 -1l2 -9q6 -25 9.5 -39.5t6 -25t4 -21t3.5 -26.5q3 -17 8.5 -40t12 -44t13 -36t11.5 -15h8q32 0 49.5 18t23.5 47q3 19 3 40v1zM443 689h3q8 0 17 4t31 26q8 8 23 18.5t38 24.5q19 13 33.5 23 t25.5 20.5t20.5 23.5t19.5 31q0 1 1 1.5t1 1.5l-1 -2q3 6 4.5 12t3.5 11q7 37 -27 37q-11 0 -28.5 -6.5t-37.5 -17.5q-17 -10 -36.5 -26.5t-38 -36t-36 -40t-29.5 -38.5q-16 -22 -19 -35q-2 -13 5 -18.5t24 -12.5zM452 337l-124 -7l109 161q2 -34 6 -78t9 -76z" />
<glyph unicode="&#xc2;" horiz-adv-x="597" d="M618 81q-4 36 -13 86.5t-20 107.5q-8 42 -15.5 85.5t-13.5 86t-10.5 81.5t-5.5 72l-1 -1q2 34 -10.5 57t-35.5 23q-18 0 -38.5 -16t-43.5 -53v1l-373 -522l1 1q-1 -1 -1.5 -3t-2.5 -4q-7 -11 -16.5 -26.5t-12.5 -32.5q-4 -20 5 -33.5t39 -15.5h4q23 0 41.5 22.5 t41.5 54.5q2 3 4.5 6.5t4.5 6.5l119 173l23 -1t55.5 -2.5t66 -2.5t54.5 -1l2 -9q6 -25 9.5 -39.5t6 -25t4 -21t3.5 -26.5q3 -17 8.5 -40t12 -44t13 -36t11.5 -15h8q32 0 49.5 18t23.5 47q3 19 3 40v1zM659 738l1 4q3 13 -5 32l-62 124l-1 -2q-3 17 -13.5 29t-27.5 12 q-20 0 -29 -8t-18 -19l2 2l-152 -129l-3 -3q-13 -10 -21 -17.5t-13 -21.5l-2 -10q-2 -11 4.5 -18.5t28.5 -14.5v1q5 -2 10 -2q11 0 23.5 7t32.5 27l-1 -1l105 89l43 -85q7 -23 21 -30t23 -7q6 0 11 2q22 8 30.5 16t12.5 23zM452 337l-124 -7l109 161q2 -34 6 -78t9 -76z" />
<glyph unicode="&#xc3;" horiz-adv-x="597" d="M618 81q-4 36 -13 86.5t-20 107.5q-8 42 -15.5 85.5t-13.5 86t-10.5 81.5t-5.5 72l-1 -1q2 34 -10.5 57t-35.5 23q-18 0 -38.5 -16t-43.5 -53v1l-373 -522l1 1q-1 -1 -1.5 -3t-2.5 -4q-7 -11 -16.5 -26.5t-12.5 -32.5q-4 -20 5 -33.5t39 -15.5h4q23 0 41.5 22.5 t41.5 54.5q2 3 4.5 6.5t4.5 6.5l119 173l23 -1t55.5 -2.5t66 -2.5t54.5 -1l2 -9q6 -25 9.5 -39.5t6 -25t4 -21t3.5 -26.5q3 -17 8.5 -40t12 -44t13 -36t11.5 -15h8q32 0 49.5 18t23.5 47q3 19 3 40v1zM669 808v2q3 13 -8 23t-27 10q-11 0 -23 -6t-20 -20l-6 -12 q-3 -9 -8 -18t-14 -9q-7 0 -11 6.5t-9 14.5q-6 14 -16.5 26t-36.5 12q-17 0 -39 -7.5t-43 -20.5t-37 -29t-20 -32v-3q-3 -16 6.5 -26.5t29.5 -10.5q12 0 22.5 7.5t22.5 18.5q8 8 16.5 14.5t14.5 6.5q2 0 5 -4.5t7 -9.5l-1 1q8 -13 21.5 -26t43.5 -13q48 0 80.5 21.5 t49.5 83.5zM452 337l-124 -7l109 161q2 -34 6 -78t9 -76z" />
<glyph unicode="&#xc4;" horiz-adv-x="597" d="M618 81q-4 36 -13 86.5t-20 107.5q-8 42 -15.5 85.5t-13.5 86t-10.5 81.5t-5.5 72l-1 -1q2 34 -10.5 57t-35.5 23q-18 0 -38.5 -16t-43.5 -53v1l-373 -522l1 1q-1 -1 -1.5 -3t-2.5 -4q-7 -11 -16.5 -26.5t-12.5 -32.5q-4 -20 5 -33.5t39 -15.5h4q23 0 41.5 22.5 t41.5 54.5q2 3 4.5 6.5t4.5 6.5l119 173l23 -1t55.5 -2.5t66 -2.5t54.5 -1l2 -9q6 -25 9.5 -39.5t6 -25t4 -21t3.5 -26.5q3 -17 8.5 -40t12 -44t13 -36t11.5 -15h8q32 0 49.5 18t23.5 47q3 19 3 40v1zM489 776l1 7q2 4 3 7q2 10 2 21q0 12 -4.5 21.5t-14 15.5t-26.5 6 q-19 0 -37 -7.5t-32.5 -19t-25 -25t-13.5 -26.5l-1 -4q-2 -12 0.5 -25.5t9.5 -24.5t18 -18t26 -7q19 0 35 8t28 19.5t20 25.5t11 26zM679 780q1 3 2 7.5t2 9.5q2 11 2 22t-4.5 19.5t-14 14t-26.5 5.5q-19 0 -37 -7.5t-32.5 -19t-25 -25.5t-13.5 -27l-1 -5q-2 -13 1 -26 t10.5 -23.5t18 -17t24.5 -6.5q19 0 35 7.5t28 19.5t19.5 26t11.5 26zM452 337l-124 -7l109 161q2 -34 6 -78t9 -76z" />
<glyph unicode="&#xc5;" horiz-adv-x="597" d="M618 81q-4 36 -13 86.5t-20 107.5q-8 42 -15.5 85.5t-13.5 86t-10.5 81.5t-5.5 72l-1 -1q2 34 -10.5 57t-35.5 23q-18 0 -38.5 -16t-43.5 -53v1l-373 -522l1 1q-1 -1 -1.5 -3t-2.5 -4q-7 -11 -16.5 -26.5t-12.5 -32.5q-4 -20 5 -33.5t39 -15.5h4q23 0 41.5 22.5 t41.5 54.5q2 3 4.5 6.5t4.5 6.5l119 173l23 -1t55.5 -2.5t66 -2.5t54.5 -1l2 -9q6 -25 9.5 -39.5t6 -25t4 -21t3.5 -26.5q3 -17 8.5 -40t12 -44t13 -36t11.5 -15h8q32 0 49.5 18t23.5 47q3 19 3 40v1zM655 822l1 7q1 2 1.5 3.5t1.5 3.5q6 33 -8 58.5t-54 25.5q-34 0 -64 -14 t-53 -36t-39 -47.5t-22 -49.5l-1 -6q-3 -16 -1.5 -31t8.5 -26t21 -18t37 -7q27 0 55 11t51.5 29.5t41 43.5t24.5 53zM452 337l-124 -7l109 161q2 -34 6 -78t9 -76zM520 766q-6 0 -7 5.5t0 11.5q5 17 20.5 34.5t39.5 17.5q10 0 8 -14l-1 -4q-5 -20 -22.5 -35.5t-37.5 -15.5z " />
<glyph unicode="&#xc6;" horiz-adv-x="983" d="M998 50l1 6q5 28 -8 39t-47 11h-17l-284 -24l50 182l222 24q5 1 11 1.5t12 0.5q24 0 45.5 10t32.5 45l1 7q4 17 -7 32t-53 15h-12q-6 0 -14 -1l-207 -26q11 38 18.5 63.5t13 42.5t9 26.5t5.5 16.5l240 16q5 0 11 0.5t11 0.5q21 1 37 2t27.5 6.5t19.5 16.5t14 31l2 7 q5 29 -11.5 38.5t-44.5 9.5q-9 0 -17.5 -0.5t-16.5 -1.5q-5 0 -9 -0.5t-9 -0.5q-90 -6 -141 -8.5t-80 -2.5h-68q-20 0 -43.5 -9t-34.5 -20l1 1l-609 -545l-8 -7q-8 -7 -18 -16.5t-19.5 -20t-16.5 -21.5t-8 -20q-3 -13 4 -21t30 -10h4q22 0 51 22.5t68 57.5l8 7l207 176 l24.5 1.5t59 3.5t71.5 3.5t61 2.5l-32 -117q-2 -5 -3.5 -10t-3.5 -10q-4 -13 -7.5 -25t-5.5 -23q-6 -29 5 -46t52 -17h9q5 0 10 1h-1l317 23q25 0 41.5 5t27 13t15.5 17.5t7 18.5zM623 439v-2q-2 -8 -4 -17t-4 -17q-4 -18 -8.5 -36.5t-12.5 -40.5l-137 -22l171 167 q-2 -8 -3 -16z" />
<glyph unicode="&#xc7;" horiz-adv-x="574" d="M276 -92q11 21 16.5 33.5t7.5 18.5v-1q2 3 2 5q0 1 2 3q40 9 78.5 26t73 39.5t64 48t50.5 50.5v-1q10 11 14 19.5t6 16.5q4 18 -7.5 28t-31.5 10q-21 0 -48.5 -12.5t-50.5 -38.5q-10 -13 -29.5 -28t-43.5 -27.5t-49 -21t-46 -8.5q-30 0 -48 12t-26.5 33t-9 48t5.5 57 q2 8 3.5 16t4.5 16q16 60 47 118.5t70.5 104.5t86 74.5t93.5 28.5q29 0 43.5 -3.5t19.5 -10.5q8 -9 15 -16.5t12 -14.5q22 -27 30 -27q29 0 52 20t28 46q2 14 -1 27t-13 24q-33 37 -75 50.5t-93 13.5q-66 0 -133.5 -36.5t-126 -97t-104.5 -138.5t-69 -161q-2 -9 -4.5 -18.5 t-4.5 -19.5q-9 -45 -7 -85.5t14.5 -73t36 -55t57.5 -32.5l-19 -54q-8 -14 -10 -19.5t-4 -20.5q-4 -18 -0.5 -33.5t25.5 -19.5q1 0 2.5 -0.5t2.5 -0.5h3q12 0 24.5 7t24.5 19t22.5 28.5t16.5 34.5v-1z" />
<glyph unicode="&#xc8;" horiz-adv-x="531" d="M549 55l1 6q5 28 -8 39t-47 11h-17l-284 -24l50 182l222 24q5 1 11 1.5t12 0.5q24 0 45.5 10t32.5 45l1 7q4 17 -7 32t-53 15h-12q-6 0 -14 -1l-207 -26l42 149l244 16q5 0 11 0.5t11 0.5q21 1 37 2t27.5 6.5t19.5 16.5t14 31l2 7q5 29 -11.5 38.5t-44.5 9.5 q-9 0 -17.5 -0.5t-16.5 -1.5q-5 0 -9 -0.5t-9 -0.5q-90 -6 -141 -8.5t-80 -2.5h-68q-18 0 -32.5 -6.5t-24.5 -17t-16.5 -22.5t-8.5 -22q0 -2 -0.5 -4t-0.5 -5q-2 -11 -6 -26.5t-8 -33.5q-10 -41 -23.5 -97t-33.5 -128l-46 -170q-2 -5 -3.5 -10t-3.5 -10q-4 -13 -7.5 -25 t-5.5 -23q-6 -29 5 -46t52 -17h9q5 0 10 1h-1l317 23q25 0 41.5 5t27 12.5t15.5 17.5t7 19zM523 689q21 8 31.5 13.5t12.5 18.5q3 12 -5 35q-6 18 -15 38.5t-20.5 40t-24.5 36t-26 26.5q-16 11 -30.5 17.5t-25.5 6.5q-34 0 -41 -37q-2 -5 -2 -11v-12l1 2v-3q3 -18 7.5 -31 t11.5 -23.5t17.5 -20.5t24.5 -23q17 -14 28.5 -24.5t16.5 -18.5q13 -20 24 -25t14 -5h1z" />
<glyph unicode="&#xc9;" horiz-adv-x="531" d="M549 55l1 6q5 28 -8 39t-47 11h-17l-284 -24l50 182l222 24q5 1 11 1.5t12 0.5q24 0 45.5 10t32.5 45l1 7q4 17 -7 32t-53 15h-12q-6 0 -14 -1l-207 -26l42 149l244 16q5 0 11 0.5t11 0.5q21 1 37 2t27.5 6.5t19.5 16.5t14 31l2 7q5 29 -11.5 38.5t-44.5 9.5 q-9 0 -17.5 -0.5t-17.5 -1.5q-5 0 -9 -0.5t-8 -0.5q-90 -6 -141 -8.5t-80 -2.5h-68q-18 0 -32.5 -6.5t-24.5 -17t-16.5 -22.5t-8.5 -22q0 -2 -0.5 -4t-0.5 -5q-2 -11 -6 -26.5t-8 -33.5q-10 -41 -23.5 -97t-33.5 -128l-46 -170q-2 -5 -3.5 -10t-3.5 -10q-4 -13 -7.5 -25 t-5.5 -23q-6 -29 5 -46t52 -17h9q5 0 10 1h-1l317 23q25 0 41.5 5t27 12.5t15.5 17.5t7 19zM434 689h3q8 0 17 4t31 26q8 8 23 18.5t38 24.5q19 13 33.5 23t25.5 20.5t20.5 23.5t19.5 31q0 1 1 1.5t1 1.5l-1 -2q3 6 4.5 12t3.5 11q7 37 -27 37q-11 0 -28.5 -6.5t-37.5 -17.5 q-17 -10 -36.5 -26.5t-38 -36t-36 -40t-29.5 -38.5q-16 -22 -19 -35q-2 -13 5 -18.5t24 -12.5z" />
<glyph unicode="&#xca;" horiz-adv-x="531" d="M549 55l1 6q5 28 -8 39t-47 11h-17l-284 -24l50 182l222 24q5 1 11 1.5t12 0.5q24 0 45.5 10t32.5 45l1 7q4 17 -7 32t-53 15h-12q-6 0 -14 -1l-207 -26l42 149l244 16q5 0 11 0.5t11 0.5q21 1 37 2t27.5 6.5t19.5 16.5t14 31l2 7q5 29 -11.5 38.5t-44.5 9.5 q-9 0 -17.5 -0.5t-17.5 -1.5q-5 0 -9 -0.5t-8 -0.5q-90 -6 -141 -8.5t-80 -2.5h-68q-18 0 -32.5 -6.5t-24.5 -17t-16.5 -22.5t-8.5 -22q0 -2 -0.5 -4t-0.5 -5q-2 -11 -6 -26.5t-8 -33.5q-10 -41 -23.5 -97t-33.5 -128l-46 -170q-2 -5 -3.5 -10t-3.5 -10q-4 -13 -7.5 -25 t-5.5 -23q-6 -29 5 -46t52 -17h9q5 0 10 1h-1l317 23q25 0 41.5 5t27 12.5t15.5 17.5t7 19zM656 738l1 4q3 13 -5 32l-62 124q-4 16 -14.5 27.5t-27.5 11.5q-20 0 -29 -8t-18 -19l2 2l-152 -129l-3 -3q-13 -10 -21 -17.5t-13 -21.5l-2 -10q-2 -11 4.5 -18.5t28.5 -14.5v1 q5 -2 10 -2q11 0 23.5 7t32.5 27l-1 -1l105 89l43 -85q7 -23 21 -30t23 -7q6 0 11 2q22 8 30.5 16t12.5 23z" />
<glyph unicode="&#xcb;" horiz-adv-x="531" d="M549 55l1 6q5 28 -8 39t-47 11h-17l-284 -24l50 182l222 24q5 1 11 1.5t12 0.5q24 0 45.5 10t32.5 45l1 7q4 17 -7 32t-53 15h-12q-6 0 -14 -1l-207 -26l42 149l244 16q5 0 11 0.5t11 0.5q21 1 37 2t27.5 6.5t19.5 16.5t14 31l2 7q5 29 -11.5 38.5t-44.5 9.5 q-9 0 -17.5 -0.5t-17.5 -1.5q-5 0 -9 -0.5t-8 -0.5q-90 -6 -141 -8.5t-80 -2.5h-68q-18 0 -32.5 -6.5t-24.5 -17t-16.5 -22.5t-8.5 -22q0 -2 -0.5 -4t-0.5 -5q-2 -11 -6 -26.5t-8 -33.5q-10 -41 -23.5 -97t-33.5 -128l-46 -170q-2 -5 -3.5 -10t-3.5 -10q-4 -13 -7.5 -25 t-5.5 -23q-6 -29 5 -46t52 -17h9q5 0 10 1h-1l317 23q25 0 41.5 5t27 12.5t15.5 17.5t7 19zM487 776l1 7q2 4 3 7q2 10 2 21q0 12 -4.5 21.5t-14 15.5t-26.5 6q-19 0 -37 -7.5t-32.5 -19t-25 -25t-13.5 -26.5l-1 -4q-2 -12 0.5 -25.5t9.5 -24.5t18 -18t26 -7q19 0 35 8 t28 19.5t20 25.5t11 26zM677 780q1 3 2 7.5t2 9.5q2 11 2 22t-4.5 19.5t-14 14t-26.5 5.5q-19 0 -37 -7.5t-32.5 -19t-25 -25.5t-13.5 -27l-1 -5q-2 -13 1 -26t10.5 -23.5t18 -17t24.5 -6.5q19 0 35 7.5t28 19.5t19.5 26t11.5 26z" />
<glyph unicode="&#xcc;" horiz-adv-x="222" d="M185 55l144 513v-1q2 3 2.5 6.5t2.5 6.5q3 8 6 16.5t5 18.5q4 20 -2.5 34t-32.5 14t-42 -5t-25.5 -15.5t-15 -25.5t-9.5 -36l-148 -522l1 1q-6 -14 -9 -27q-4 -23 4.5 -38.5t37.5 -19.5q1 0 2 -0.5t3 -0.5h5q16 0 26 5.5t17.5 14.5t12.5 21.5t10 26.5q2 4 4 12zM374 689 q21 8 31.5 13.5t12.5 18.5q3 12 -5 35q-6 18 -15 38.5t-20.5 40t-24.5 36t-26 26.5q-16 11 -30.5 17.5t-25.5 6.5q-34 0 -41 -37q-2 -5 -2 -11v-12l1 2v-3q3 -18 7.5 -31t11.5 -23.5t17.5 -20.5t24.5 -23q17 -14 28.5 -24.5t16.5 -18.5q13 -20 24 -25t14 -5h1z" />
<glyph unicode="&#xcd;" horiz-adv-x="222" d="M185 55l144 513v-1q2 3 2.5 6.5t2.5 6.5q3 8 6 16.5t5 18.5q4 20 -2.5 34t-32.5 14t-42 -5t-25.5 -15.5t-15 -25.5t-9.5 -36l-148 -522l1 1q-6 -14 -9 -27q-4 -23 4.5 -38.5t37.5 -19.5q1 0 2 -0.5t3 -0.5h5q16 0 26 5.5t17.5 14.5t12.5 21.5t10 26.5q2 4 4 12zM247 689 h3q8 0 17 4t31 26q8 8 23 18.5t38 24.5q19 13 33.5 23t25.5 20.5t20.5 23.5t19.5 31q0 1 1 1.5t1 1.5l-1 -2q3 6 4.5 12t3.5 11q7 37 -27 37q-11 0 -28.5 -6.5t-37.5 -17.5q-17 -10 -36.5 -26.5t-38 -36t-36 -40t-29.5 -38.5q-16 -22 -19 -35q-2 -13 5 -18.5t24 -12.5z" />
<glyph unicode="&#xce;" horiz-adv-x="222" d="M185 55l144 513v-1q2 3 2.5 6.5t2.5 6.5q3 8 6 16.5t5 18.5q4 20 -2.5 34t-32.5 14t-42 -5t-25.5 -15.5t-15 -25.5t-9.5 -36l-148 -522l1 1q-6 -14 -9 -27q-4 -23 4.5 -38.5t37.5 -19.5q1 0 2 -0.5t3 -0.5h5q16 0 26 5.5t17.5 14.5t12.5 21.5t10 26.5q2 4 4 12zM486 738 l1 4q3 13 -5 32l-62 124l-1 -2q-3 17 -13.5 29t-27.5 12q-20 0 -29 -8t-18 -19l-150 -127l-3 -3q-13 -10 -21 -17.5t-13 -21.5l-2 -10q-2 -11 4.5 -18.5t28.5 -14.5v1q5 -2 10 -2q11 0 23.5 7t32.5 27l-1 -1l105 89l43 -85q7 -23 21 -30t23 -7q6 0 11 2q22 8 30.5 16 t12.5 23z" />
<glyph unicode="&#xcf;" horiz-adv-x="222" d="M185 55l144 513v-1q2 3 2.5 6.5t2.5 6.5q3 8 6 16.5t5 18.5q4 20 -2.5 34t-32.5 14t-42 -5t-25.5 -15.5t-15 -25.5t-9.5 -36l-148 -522l1 1q-6 -14 -9 -27q-4 -23 4.5 -38.5t37.5 -19.5q1 0 2 -0.5t3 -0.5h5q16 0 26 5.5t17.5 14.5t12.5 21.5t10 26.5q2 4 4 12zM306 771 l1 7q2 4 3 7q2 10 2 21q0 12 -4.5 21.5t-14 15.5t-26.5 6q-19 0 -37 -7.5t-32.5 -19t-25 -25t-13.5 -26.5l-1 -4q-2 -12 0.5 -25.5t10 -24.5t18.5 -18t26 -7q19 0 35 8t27.5 19.5t19.5 25.5t11 26zM496 775q1 3 2 7.5t2 9.5q2 11 2 22t-4.5 19.5t-14 14t-26.5 5.5 q-19 0 -37 -7.5t-32.5 -19t-25 -25.5t-13.5 -27l-1 -5q-2 -13 1 -26t10.5 -23.5t18 -17t24.5 -6.5q19 0 35 7.5t28 19.5t19.5 26t11.5 26z" />
<glyph unicode="&#xd0;" horiz-adv-x="606" d="M705 433q2 6 3.5 13t2.5 13q9 43 3.5 83.5t-27 71.5t-59.5 49.5t-94 18.5q-70 0 -118 -12t-92 -26q-9 -3 -17.5 -5.5t-18.5 -5.5q-35 -11 -55.5 -36t-25.5 -53q-1 -5 -2 -9t-1 -8l-37 -132h-17q-12 0 -16 -0.5t-6 -0.5q-5 -2 -8 -2h-4q-30 0 -47.5 -16.5t-21.5 -36.5 q-5 -21 7.5 -39.5t43.5 -18.5h37l-49 -173q-1 -5 -2.5 -11t-2.5 -11q-3 -11 -5.5 -21t-4.5 -20q-6 -30 -0.5 -50t35.5 -20q28 0 76.5 10.5t107 33t122 58.5t120.5 86.5t103 117.5t70 152zM324 283q28 0 46.5 17.5t23.5 37.5q4 21 -10 38.5t-52 17.5h-51l37 135 q33 17 79.5 31.5t97.5 14.5q33 0 53.5 -10.5t31.5 -28.5t13 -41t-3 -47l-2 -13q-22 -77 -68 -134.5t-102 -98.5t-114.5 -66t-106.5 -36l52 182z" />
<glyph unicode="&#xd1;" horiz-adv-x="653" d="M610 48l153 546q2 6 3.5 12t2.5 11q6 32 -3.5 44.5t-41.5 12.5q-20 0 -32.5 -7t-20.5 -17.5t-12.5 -23t-7.5 -24.5l-114 -410q-8 14 -16 28.5t-10 21.5q-13 23 -24 44t-20.5 41.5t-19 42.5t-20.5 48q-10 23 -22 50.5t-26 59.5q-5 10 -7 13q-2 2 -3 5t-3 8t-4.5 14.5 t-6.5 24.5q-3 10 -8 22t-12.5 22.5t-17 18t-22.5 7.5q-14 0 -25 -3t-20.5 -11.5t-17.5 -24.5t-17 -42l-148 -526q-3 -7 -4 -13t-3 -12q-11 -57 46 -57h7q28 2 44.5 20t21.5 40q1 5 1 9v8l104 369q5 -9 10.5 -19t10.5 -20q22 -41 42 -82.5t33 -75.5q7 -19 19.5 -47.5 t27.5 -59t29 -58.5t24 -47l-1 1l1 -1q1 0 2 -1q3 -6 6.5 -11.5t10 -10.5t17 -8t27.5 -3q15 0 26 7.5t19 18.5t13.5 23t8.5 22zM676 804l1 2q2 13 -9 23t-27 10q-11 0 -22.5 -6t-20.5 -20l-5 -12q-4 -9 -9 -18t-14 -9q-7 0 -11 6.5t-8 14.5q-7 14 -17.5 26t-36.5 12 q-17 0 -39 -7.5t-42.5 -20.5t-36.5 -29t-20 -32l-1 -3q-3 -16 6.5 -26.5t29.5 -10.5q12 0 22.5 7.5t22.5 18.5q8 8 16.5 14.5t14.5 6.5q2 0 5.5 -4.5t6.5 -9.5l-1 1q8 -13 21.5 -26t43.5 -13q48 0 80.5 21.5t49.5 83.5z" />
<glyph unicode="&#xd2;" horiz-adv-x="637" d="M715 359q8 28 12 55q10 53 9.5 102t-18.5 86.5t-55.5 60t-100.5 22.5q-52 0 -103 -20.5t-99.5 -54.5t-91 -78t-77 -91t-59 -93.5t-34.5 -85.5v-2l-6 -22t-5 -21q-23 -121 21 -189.5t150 -68.5q70 0 141.5 31.5t134 86t110.5 127t71 155.5zM602 361q-16 -59 -49 -112.5 t-75.5 -94t-92 -64t-98.5 -23.5q-59 0 -79 42t-6 113q2 9 4.5 17.5t4.5 18.5l1 3q8 29 26 63.5t43 69.5t55 68t63 58.5t67 41t67 15.5t52.5 -13.5t28 -36.5t8 -53t-6.5 -62q-2 -12 -5.5 -25t-7.5 -26zM590 689q21 8 31.5 13.5t12.5 18.5q3 12 -5 35q-6 18 -15 38.5t-20.5 40 t-24.5 36t-26 26.5q-16 11 -30.5 17.5t-25.5 6.5q-34 0 -41 -37q-2 -5 -2 -11v-12l1 2v-3q3 -18 7.5 -31t11.5 -23.5t17.5 -20.5t24.5 -23q17 -14 28.5 -24.5t16.5 -18.5q13 -20 24 -25t14 -5h1z" />
<glyph unicode="&#xd3;" horiz-adv-x="637" d="M715 359q8 28 12 55q10 53 9.5 102t-18.5 86.5t-55.5 60t-100.5 22.5q-52 0 -103 -20.5t-99.5 -54.5t-91 -78t-77 -91t-59 -93.5t-34.5 -85.5v-2l-6 -22t-5 -21q-23 -121 21 -189.5t150 -68.5q70 0 141.5 31.5t134 86t110.5 127t71 155.5zM602 361q-16 -59 -49 -112.5 t-75.5 -94t-92 -64t-98.5 -23.5q-59 0 -79 42t-6 113q2 9 4.5 17.5t4.5 18.5l1 3q8 29 26 63.5t43 69.5t55 68t63 58.5t67 41t67 15.5t52.5 -13.5t28 -36.5t8 -53t-6.5 -62q-2 -12 -5.5 -25t-7.5 -26zM526 689h3q8 0 17 4t31 26q8 8 23 18.5t38 24.5q19 13 33.5 23 t25.5 20.5t20.5 23.5t19.5 31q0 1 1 1.5t1 1.5l-1 -2q3 6 4.5 12t3.5 11q7 37 -27 37q-11 0 -28.5 -6.5t-37.5 -17.5q-17 -10 -36.5 -26.5t-38 -36t-36 -40t-29.5 -38.5q-16 -22 -19 -35q-2 -13 5 -18.5t24 -12.5z" />
<glyph unicode="&#xd4;" horiz-adv-x="637" d="M715 359q8 28 12 55q10 53 9.5 102t-18.5 86.5t-55.5 60t-100.5 22.5q-52 0 -103 -20.5t-99.5 -54.5t-91 -78t-77 -91t-59 -93.5t-34.5 -85.5v-2l-6 -22t-5 -21q-23 -121 21 -189.5t150 -68.5q70 0 141.5 31.5t134 86t110.5 127t71 155.5zM602 361q-16 -59 -49 -112.5 t-75.5 -94t-92 -64t-98.5 -23.5q-59 0 -79 42t-6 113q2 9 4.5 17.5t4.5 18.5l1 3q8 29 26 63.5t43 69.5t55 68t63 58.5t67 41t67 15.5t52.5 -13.5t28 -36.5t8 -53t-6.5 -62q-2 -12 -5.5 -25t-7.5 -26zM734 738l1 4q3 13 -5 32l-62 124l-1 -2q-3 17 -13.5 29t-27.5 12 q-20 0 -29 -8t-18 -19l2 2l-152 -129l-3 -3q-13 -10 -21 -17.5t-13 -21.5l-2 -10q-2 -11 4.5 -18.5t28.5 -14.5v1q5 -2 10 -2q11 0 23.5 7t32.5 27l-1 -1l105 89l43 -85q7 -23 21 -30t23 -7q6 0 11 2q22 8 30.5 16t12.5 23z" />
<glyph unicode="&#xd5;" horiz-adv-x="637" d="M715 359q8 28 12 55q10 53 9.5 102t-18.5 86.5t-55.5 60t-100.5 22.5q-52 0 -103 -20.5t-99.5 -54.5t-91 -78t-77 -91t-59 -93.5t-34.5 -85.5v-2l-6 -22t-5 -21q-23 -121 21 -189.5t150 -68.5q70 0 141.5 31.5t134 86t110.5 127t71 155.5zM602 361q-16 -59 -49 -112.5 t-75.5 -94t-92 -64t-98.5 -23.5q-59 0 -79 42t-6 113q2 9 4.5 17.5t4.5 18.5l1 3q8 29 26 63.5t43 69.5t55 68t63 58.5t67 41t67 15.5t52.5 -13.5t28 -36.5t8 -53t-6.5 -62q-2 -12 -5.5 -25t-7.5 -26zM731 808v2q3 13 -8 23t-27 10q-11 0 -23 -6t-20 -20l-6 -12 q-3 -9 -8 -18t-14 -9q-7 0 -11 6.5t-9 14.5q-6 14 -16.5 26t-36.5 12q-17 0 -39 -7.5t-43 -20.5t-37 -29t-20 -32v-3q-3 -16 6.5 -26.5t29.5 -10.5q12 0 22.5 7.5t22.5 18.5q8 8 16.5 14.5t14.5 6.5q2 0 5 -4.5t7 -9.5l-1 1q8 -13 21.5 -26t43.5 -13q48 0 80.5 21.5 t49.5 83.5z" />
<glyph unicode="&#xd6;" horiz-adv-x="637" d="M715 359q8 28 12 55q10 53 9.5 102t-18.5 86.5t-55.5 60t-100.5 22.5q-52 0 -103 -20.5t-99.5 -54.5t-91 -78t-77 -91t-59 -93.5t-34.5 -85.5v-2l-6 -22t-5 -21q-23 -121 21 -189.5t150 -68.5q70 0 141.5 31.5t134 86t110.5 127t71 155.5zM602 361q-16 -59 -49 -112.5 t-75.5 -94t-92 -64t-98.5 -23.5q-59 0 -79 42t-6 113q2 9 4.5 17.5t4.5 18.5l1 3q8 29 26 63.5t43 69.5t55 68t63 58.5t67 41t67 15.5t52.5 -13.5t28 -36.5t8 -53t-6.5 -62q-2 -12 -5.5 -25t-7.5 -26zM532 776l1 7q2 4 3 7q2 10 2 21q0 12 -4.5 21.5t-14 15.5t-26.5 6 q-19 0 -37 -7.5t-32.5 -19t-25 -25t-13.5 -26.5l-1 -4q-2 -12 0.5 -25.5t9.5 -24.5t18 -18t26 -7q19 0 35 8t28 19.5t20 25.5t11 26zM722 780q1 3 2 7.5t2 9.5q2 11 2 22t-4.5 19.5t-14 14t-26.5 5.5q-19 0 -37 -7.5t-32.5 -19t-25 -25.5t-13.5 -27l-1 -5q-2 -13 1 -26 t10.5 -23.5t18 -17t24.5 -6.5q19 0 35 7.5t28 19.5t19.5 26t11.5 26z" />
<glyph unicode="&#xd7;" horiz-adv-x="465" d="M442 165l-58 72l79 57q7 2 12 5t13 9q9 9 14 9q17 13 25 25.5t10 23.5q5 23 -10 38t-38 15q-11 0 -23 -4t-23 -12q-4 -3 -9 -6l-10 -6h1q-17 -8 -23 -16l-83 -59l-49 63q-1 8 -8 14t-13 12q-3 2 -5 4l-3 3q-20 24 -48 24q-23 0 -42 -14.5t-23 -35.5q-3 -22 12 -42 q1 -1 4 -9q5 -8 10.5 -17t15.5 -14l49 -60l-83 -60q-9 -3 -18 -9.5t-17 -13.5l-10 -9q-17 -11 -26.5 -23.5t-11.5 -23.5q-3 -22 9 -36l1 1q7 -9 18.5 -14t23.5 -5q20 0 37 12l9 6t13 9q12 9 26.5 19.5t21.5 16.5l71 50l56 -71q3 -10 10 -16t13 -10l3.5 -3.5t2.5 -1.5 q10 -12 23 -17.5t26 -5.5q23 0 43.5 14t24.5 35q2 9 -0.5 19.5t-10.5 20.5z" />
<glyph unicode="&#xd8;" horiz-adv-x="637" d="M686 653q8 15 16.5 32t10.5 31q4 19 -2 31.5t-31 12.5q-21 0 -36 -5t-25 -12.5t-16.5 -16.5t-11.5 -17l-9 -15q-2 -2 -3 -5t-3 -5h-4q-3 0 -5.5 0.5t-4.5 0.5q-52 0 -103 -20.5t-99.5 -54.5t-91 -78t-77 -91t-59 -93.5t-34.5 -85.5l-1 -4q-3 -11 -5.5 -21t-4.5 -20 q-16 -83 0 -141.5t63 -87.5q-22 -37 -26 -59t6.5 -32.5t39.5 -10.5q14 0 26 7t21.5 17.5t18 22.5t14.5 22q0 1 3 4h5q70 0 141.5 31.5t134 86t110.5 127t71 155.5v3q7 25 12 51q7 36 9 70t-2.5 64.5t-17 56t-33.5 43.5v1l2 5h1zM212 261q12 40 42 91.5t71.5 98t89.5 81 t95 42.5q-32 -54 -71 -118t-78.5 -128.5t-77 -125t-67.5 -108.5q-16 20 -19 52t5 75q2 10 4.5 19.5t5.5 20.5zM602 361q-15 -54 -43.5 -103t-65.5 -88t-80 -65t-87 -35q8 13 16 26.5t18 27.5q29 45 62 96t67 103.5t66 104t59 96.5q8 -23 7.5 -52.5t-6.5 -60.5 q-2 -12 -5.5 -24.5t-7.5 -25.5z" />
<glyph unicode="&#xd9;" d="M606 170l116 411q2 5 5.5 12.5t5.5 16.5q3 19 -4 36t-39 17q-22 0 -36 -7t-23 -18.5t-13.5 -26t-7.5 -30.5l-124 -413q-5 -17 -24.5 -34.5t-49.5 -32t-69 -24t-82 -9.5q-27 0 -46 10.5t-15 30.5l1 3l138 490q1 7 1.5 17.5t-3 20.5t-13.5 16.5t-28 6.5t-30 -5t-20 -13.5 t-13 -19t-9 -21.5q0 -1 -1 -3t-1 -3v1l-136 -485v1q-2 -4 -2.5 -8.5t-1.5 -9.5q-6 -30 0 -55.5t26.5 -43.5t55.5 -28.5t86 -10.5q65 0 124.5 18.5t107.5 48t80.5 67.5t43.5 77zM534 689q21 8 31.5 13.5t12.5 18.5q3 12 -5 35q-6 18 -15 38.5t-20.5 40t-24.5 36t-26 26.5 q-16 11 -30.5 17.5t-25.5 6.5q-34 0 -41 -37q-2 -5 -2 -11v-12l1 2v-3q3 -18 7.5 -31t11.5 -23.5t17.5 -20.5t24.5 -23q17 -14 28.5 -24.5t16.5 -18.5q13 -20 24 -25t14 -5h1z" />
<glyph unicode="&#xda;" d="M606 170l116 411q2 5 5.5 12.5t5.5 16.5q3 19 -4 36t-39 17q-22 0 -36 -7t-23 -18.5t-13.5 -26t-7.5 -30.5l-124 -413q-5 -17 -24.5 -34.5t-49.5 -32t-69 -24t-82 -9.5q-27 0 -46 10.5t-15 30.5l1 3l138 490q1 7 1.5 17.5t-3 20.5t-13.5 16.5t-28 6.5t-30 -5t-20 -13.5 t-13 -19t-9 -21.5q0 -1 -1 -3t-1 -3v1l-136 -485v1q-2 -4 -2.5 -8.5t-1.5 -9.5q-6 -30 0 -55.5t26.5 -43.5t55.5 -28.5t86 -10.5q65 0 124.5 18.5t107.5 48t80.5 67.5t43.5 77zM489 689h3q8 0 17 4t31 26q8 8 23 18.5t38 24.5q19 13 33.5 23t25.5 20.5t20.5 23.5t19.5 31 q0 1 1 1.5t1 1.5l-1 -2q3 6 4.5 12t3.5 11q7 37 -27 37q-11 0 -28.5 -6.5t-37.5 -17.5q-17 -10 -36.5 -26.5t-38 -36t-36 -40t-29.5 -38.5q-16 -22 -19 -35q-2 -13 5 -18.5t24 -12.5z" />
<glyph unicode="&#xdb;" d="M606 170l116 411q2 5 5.5 12.5t5.5 16.5q3 19 -4 36t-39 17q-22 0 -36 -7t-23 -18.5t-13.5 -26.5t-7.5 -31v1l-124 -413q-5 -17 -24.5 -34.5t-49.5 -32t-69 -24t-82 -9.5q-27 0 -46 10.5t-15 30.5l1 3l138 490q1 7 1.5 17.5t-3 20.5t-13.5 16.5t-28 6.5t-30 -5t-20 -13.5 t-13 -19t-9 -21.5q0 -3 -2 -5l-136 -485v1q-2 -4 -2.5 -8.5t-1.5 -9.5q-6 -30 0 -55.5t26.5 -43.5t55.5 -28.5t86 -10.5q65 0 124.5 18.5t107.5 48t80.5 67.5t43.5 77zM704 738l1 4q3 13 -5 32l-62 124l-1 -2q-3 17 -13.5 29t-27.5 12q-20 0 -29 -8t-18 -19l2 2l-152 -129 l-3 -3q-13 -10 -21 -17.5t-13 -21.5l-2 -10q-2 -11 4.5 -18.5t28.5 -14.5v1q5 -2 10 -2q11 0 23.5 7t32.5 27l104 88l43 -85q7 -23 21 -30t23 -7q6 0 11 2q22 8 30.5 16t12.5 23z" />
<glyph unicode="&#xdc;" d="M606 170l116 411q2 5 5.5 12.5t5.5 16.5q3 19 -4 36t-39 17q-22 0 -36 -7t-23 -18.5t-13.5 -26t-7.5 -30.5l-124 -413q-5 -17 -24.5 -34.5t-49.5 -32t-69 -24t-82 -9.5q-27 0 -46 10.5t-15 30.5l1 3l138 490q1 7 1.5 17.5t-3 20.5t-13.5 16.5t-28 6.5t-30 -5t-20 -13.5 t-13 -19t-9 -21.5q0 -3 -2 -5l-136 -485v1q-2 -4 -2.5 -8.5t-1.5 -9.5q-6 -30 0 -55.5t26.5 -43.5t55.5 -28.5t86 -10.5q65 0 124.5 18.5t107.5 48t80.5 67.5t43.5 77zM500 776l1 7q2 4 3 7q2 10 2 21q0 12 -4.5 21.5t-14 15.5t-26.5 6q-19 0 -37 -7.5t-32.5 -19t-25 -25 t-13.5 -26.5l-1 -4q-2 -12 0.5 -25.5t9.5 -24.5t18 -18t26 -7q19 0 35 8t28 19.5t20 25.5t11 26zM690 780q1 3 2 7.5t2 9.5q2 11 2 22t-4.5 19.5t-14 14t-26.5 5.5q-19 0 -37 -7.5t-32.5 -19t-25 -25.5t-13.5 -27l-1 -5q-2 -13 1 -26t10.5 -23.5t18 -17t24.5 -6.5 q19 0 35 7.5t28 19.5t19.5 26t11.5 26z" />
<glyph unicode="&#xdd;" d="M748 554q20 20 29 33.5t11 23.5q3 15 -5 23.5t-19 15.5h-1q-9 6 -19 6q-14 0 -27 -7t-27 -16q-6 -4 -11.5 -8t-15.5 -9l-238 -196l-118 173v-2q-15 33 -28.5 55t-29.5 22h-5q-23 -5 -44.5 -18.5t-26.5 -38.5q-2 -12 1 -26.5t15 -30.5l141 -245l-67 -244q-4 -11 -6 -24 q-5 -28 0.5 -46t30.5 -18h5q21 2 35 9t23 18t14.5 24.5t9.5 28.5l70 250zM486 683h3q8 0 17 4t31 26q8 8 23 18.5t38 24.5q19 13 33.5 23t25.5 20.5t20.5 23.5t19.5 31q0 1 2 3l-1 -2q3 6 4.5 12t3.5 11q7 37 -27 37q-11 0 -28.5 -6.5t-37.5 -17.5q-17 -10 -36.5 -26.5 t-38 -36t-36 -40t-29.5 -38.5q-16 -22 -19 -35q-2 -13 5 -18.5t24 -12.5z" />
<glyph unicode="&#xde;" horiz-adv-x="524" d="M190 77l4 17q15 0 24.5 0.5t14.5 0.5h8q50 0 109 27.5t112.5 73.5t95.5 105.5t58 122.5q2 5 3 10.5t3 11.5q13 67 -12.5 105.5t-94.5 38.5q-45 0 -92.5 -9.5t-100.5 -36.5l7 24v-1q2 3 2.5 6.5t2.5 6.5q3 8 6 16.5t5 18.5q4 20 -2.5 34t-32.5 14t-42 -5t-25.5 -15.5 t-15 -26t-9.5 -36.5v1l-148 -522l1 1q-6 -14 -9 -27q-4 -23 4.5 -38.5t37.5 -19.5h7q16 0 27 7t19 18.5t14 26t12 29.5q2 5 3.5 10t3.5 10v1zM503 433l-1 -7q-11 -42 -40 -83t-65.5 -73.5t-75.5 -52.5t-72 -20q-23 0 -20 12v1l18 68l38 136q9 9 28 19t44 18.5t55 14t62 5.5 q37 0 29 -38z" />
<glyph unicode="&#xdf;" horiz-adv-x="984" d="M1041 244l2 4t1 4l1 6q7 37 -3.5 60.5t-29.5 36.5t-41 17.5t-38 4.5q-46 0 -89 -11t-78 -22l3 1q-1 0 -3.5 -0.5t-3.5 -0.5q-17 -5 -32 -9.5t-23 -4.5q-11 0 -10 10v2q4 15 20 35t41 38t57 30.5t70 12.5q15 0 22.5 -3.5t11.5 -6.5h2q4 -3 7 -5.5t6 -6.5l2 -3 q8 -8 16.5 -12t31.5 -4q12 0 23.5 6t20 14.5t14 18t7.5 16.5l1 4q4 20 -6 37t-29 30t-45.5 20t-56.5 7q-52 0 -106 -19.5t-100.5 -52.5t-82 -76.5t-49.5 -90.5l-2 -13q-3 -11 -3 -19q-4 24 -17 39t-30 23.5t-35 11.5t-31 3q-46 0 -89.5 -11t-77.5 -22l3 1q-1 0 -3.5 -0.5 t-3.5 -0.5q-18 -5 -32.5 -9.5t-22.5 -4.5q-11 0 -10 10v2q4 15 20 35t41 38t57 30.5t70 12.5q15 0 22.5 -3.5t11.5 -6.5h2q4 -3 7 -5.5t6 -6.5l2 -3q8 -8 16.5 -12t31.5 -4q12 0 23.5 6t20 14.5t14 18t7.5 16.5v4q4 20 -5.5 37t-28.5 30t-45.5 20t-56.5 7q-52 0 -106 -19.5 t-100.5 -52.5t-82 -76.5t-49.5 -90.5l-2 -13q-6 -32 0.5 -52.5t21 -32.5t34.5 -16.5t41 -4.5q26 0 51 5.5t52 13.5q2 1 4.5 2t4.5 2l-1 -1q33 9 65 17t57 8q9 0 15 -3.5t4 -13.5q-2 -4 -2 -5l-1 -2q-11 -42 -41.5 -71t-66 -47.5t-69.5 -26.5t-53 -8q-31 0 -39.5 10t-11.5 19 q0 3 -1 5q-5 20 -13.5 35.5t-31.5 15.5q-34 0 -53 -17.5t-25 -41.5l-2 -8q-5 -24 0 -47.5t21 -42.5t44 -31t69 -12q49 0 109.5 16.5t117 50t102.5 85.5t66 123v2q2 6 3 8l1 6q4 23 1 42q-2 -26 6.5 -43t22.5 -27t33 -13.5t38 -3.5q26 0 51 5.5t52 13.5q4 2 10 4l-2 -1 q33 9 65 17t57 8q9 0 15 -3.5t4 -13.5q0 -2 -1 -3t-1 -2v-2q-12 -42 -42 -71t-66 -47.5t-70 -26.5t-53 -8q-15 0 -24.5 3t-15 7t-7.5 9t-3 10q-1 2 -1 5q-5 20 -14 35.5t-32 15.5q-34 0 -53 -17.5t-25 -41.5l-2 -8q-5 -24 0.5 -47.5t21.5 -42.5t44 -31t69 -12 q49 0 109.5 16.5t117 50t102 85.5t65.5 123v2z" />
<glyph unicode="&#xe0;" horiz-adv-x="478" d="M439 549q22 8 33 14.5t14 23.5q3 15 -4 39h-1q-5 14 -12.5 30.5t-17 31.5t-20.5 28t-21 21q-14 10 -26.5 16t-23.5 6q-18 0 -30.5 -10t-17.5 -32q-1 -6 -1.5 -9.5t0.5 -8.5q3 -18 7 -30t10 -21.5t15 -18t21 -19.5l5 -5l4 -4q9 -8 15.5 -13.5t8.5 -9.5q5 -9 11 -14 q-2 0 -4.5 0.5t-4.5 0.5q-17 0 -36 -13t-39 -43l-301 -424q-1 -1 -5 -8v1q-5 -9 -13 -22t-10 -27q-5 -21 3.5 -35t40.5 -16h4q23 0 43 23t42 56l79 115q8 1 15 1.5t14 1.5q33 3 53.5 4.5t34 2t22 1t17.5 0.5l4 -16q3 -12 5 -20.5t3.5 -16t2 -16t2.5 -20.5q3 -14 8.5 -34 t12 -38t13.5 -31t13 -13h7q32 0 49.5 17.5t22.5 46.5q5 20 3 36q-3 24 -8.5 57.5t-13.5 71.5v-1q-1 8 -3 16.5t-4 16.5h-1q-11 64 -21 130.5t-13 120.5q2 18 -2 33.5t-12 25.5h5h3zM349 290l-63 -3l56 81q1 -20 3 -40t4 -38z" />
<glyph unicode="&#xe1;" horiz-adv-x="478" d="M353 549h4h2q-18 -15 -35 -40l-301 -424q-1 -1 -5 -8v1q-5 -9 -13 -22t-10 -27q-5 -21 3.5 -35t40.5 -16h4q23 0 43 23t42 56l79 115q8 1 15 1.5t14 1.5q33 3 53.5 4.5t34 2t22 1t17.5 0.5l4 -16q3 -12 5 -20.5t3.5 -16t2 -16t2.5 -20.5q3 -14 8.5 -34t12 -38t13.5 -31 t13 -13h7q32 0 49.5 17.5t22.5 46.5q5 20 3 36q-3 24 -8.5 57.5t-13.5 71.5v-1q-1 8 -3 16.5t-4 16.5h-1q-11 64 -21 130.5t-13 120.5q4 32 -9.5 53.5t-36.5 21.5q-5 0 -8 -1l14 14q14 10 47 32q16 10 27.5 18.5t21 17.5t17.5 19.5t17 26.5q9 19 9 25q5 22 -3.5 32t-26.5 10 q-10 0 -26 -6t-34 -16q-15 -8 -31.5 -22t-32.5 -30.5t-30 -33.5t-23 -31v1q-15 -20 -18 -34q-3 -17 5.5 -23.5t28.5 -14.5zM349 290l-63 -3l56 81q1 -20 3 -40t4 -38z" />
<glyph unicode="&#xe2;" horiz-adv-x="478" d="M509 78q-3 24 -8.5 57.5t-13.5 71.5v-1q-1 8 -3 16.5t-4 16.5h-1q-11 64 -21 130.5t-13 120.5q4 32 -9.5 53.5t-36.5 21.5q-17 0 -36 -13t-39 -43l-301 -424q-1 -1 -5 -8v1q-5 -9 -13 -22t-10 -27q-5 -21 3.5 -35t40.5 -16h4q23 0 43 23t42 56l79 115q8 1 15 1.5t14 1.5 q33 3 53.5 4.5t34 2t22 1t17.5 0.5l4 -16q3 -12 5 -20.5t3.5 -16t2 -16t2.5 -20.5q3 -14 8.5 -34t12 -38t13.5 -31t13 -13h7q32 0 49.5 17.5t22.5 46.5q5 20 3 36zM541 599l1 5q2 8 0 16t-4 17l-51 97q-5 14 -15 26t-27 12q-20 0 -29.5 -7.5t-17.5 -18.5l-120 -101l-4 -4 q-11 -8 -18 -15.5t-12 -19.5l-2 -11q-3 -13 4 -22t28 -17q1 0 3 -0.5t4 -0.5h5q11 0 23 6.5t32 26.5l70 58l29 -56q6 -22 20.5 -28.5t23.5 -6.5q1 0 2 0.5t2 0.5h3q26 10 35.5 18.5t14.5 24.5zM349 290l-63 -3l56 81q1 -20 3 -40t4 -38z" />
<glyph unicode="&#xe3;" horiz-adv-x="478" d="M549 655l1 3q3 14 -9.5 26t-29.5 12q-28 0 -46 -28l16 -8q-10 -14 -19 -22.5t-13 -8.5q-3 0 -2 4q1 2 2 5t3 7q-4 2 -6 10q-7 13 -16.5 25t-32.5 12q-15 0 -35 -7t-39 -19t-33.5 -27t-18.5 -31v-3q-3 -16 7 -28.5t31 -12.5q13 0 23.5 7t21.5 18l12 10l7 -7q5 -8 11.5 -15 t17.5 -12h-3q-17 0 -36 -13t-39 -43l-301 -424q-1 -1 -5 -8v1q-5 -9 -13 -22t-10 -27q-5 -21 3.5 -35t40.5 -16h4q23 0 43 23t42 56l79 115q8 1 15 1.5t14 1.5q33 3 53.5 4.5t34 2t22 1t17.5 0.5l4 -16q3 -12 5 -20.5t3.5 -16t2 -16t2.5 -20.5q3 -14 8.5 -34t12 -38 t13.5 -31t13 -13h7q32 0 49.5 17.5t22.5 46.5q5 20 3 36q-3 24 -8.5 57.5t-13.5 71.5v-1q-1 8 -3 16.5t-4 16.5h-1q-11 64 -21 130.5t-13 120.5q3 25 -5 44t-24 27q4 -1 15 -1q43 0 73 19.5t45 75.5zM349 290l-63 -3l56 81q1 -20 3 -40t4 -38zM455 644v1l2 8q-2 -2 -2.5 -4 t-2.5 -4q1 -1 3 -1z" />
<glyph unicode="&#xe4;" horiz-adv-x="478" d="M509 78q-3 24 -8.5 57.5t-13.5 71.5v-1q-1 8 -3 16.5t-4 16.5h-1q-11 64 -21 130.5t-13 120.5q4 32 -9.5 53.5t-36.5 21.5q-17 0 -36 -13t-39 -43l-301 -424q-1 -1 -5 -8v1q-5 -9 -13 -22t-10 -27q-5 -21 3.5 -35t40.5 -16h4q23 0 43 23t42 56l79 115q8 1 15 1.5t14 1.5 q33 3 53.5 4.5t34 2t22 1t17.5 0.5l4 -16q3 -12 5 -20.5t3.5 -16t2 -16t2.5 -20.5q3 -14 8.5 -34t12 -38t13.5 -31t13 -13h7q32 0 49.5 17.5t22.5 46.5q5 20 3 36zM404 630l2 7q0 2 1 3t1 3q2 11 2 22t-4.5 20t-14.5 14.5t-27 5.5q-18 0 -35 -7t-30.5 -18t-22.5 -24t-12 -25 l-1 -4q-5 -25 9.5 -48t43.5 -23q19 0 34 7t26 18t18 24t10 25zM557 634l1 6l3 6q2 11 1.5 22t-5 20t-14.5 14.5t-27 5.5t-34 -7t-30.5 -18.5t-23 -24.5t-12.5 -25l-1 -4q-2 -12 1 -24.5t10.5 -22.5t18 -16.5t23.5 -6.5q19 0 34 7t26 18.5t18.5 24.5t10.5 25zM349 290l-63 -3 l56 81q1 -20 3 -40t4 -38z" />
<glyph unicode="&#xe5;" horiz-adv-x="478" d="M538 667l1 6q0 1 2 5q6 32 -8 56t-52 24q-31 0 -57 -12.5t-46.5 -31.5t-34 -42t-18.5 -44l-1 -3q-5 -26 2 -47t34 -29q-19 -14 -36 -40l-301 -424q-1 -1 -5 -8v1q-5 -9 -13 -22t-10 -27q-5 -21 3.5 -35t40.5 -16h4q23 0 43 23t42 56l79 115q8 1 15 1.5t14 1.5 q33 3 53.5 4.5t34 2t22 1t17.5 0.5l4 -16q3 -12 5 -20.5t3.5 -16t2 -16t2.5 -20.5q3 -14 8.5 -34t12 -38t13.5 -31t13 -13h7q32 0 49.5 17.5t22.5 46.5q5 20 3 36q-3 24 -8.5 57.5t-13.5 71.5v-1q-1 8 -3 16.5t-4 16.5h-1q-11 64 -21 130.5t-13 120.5q5 42 -18 63 q38 13 69.5 44.5t41.5 69.5zM349 290l-63 -3l56 81q1 -20 3 -40t4 -38zM454 663q-5 -11 -13.5 -19t-19.5 -9q2 0 3 0.5l1 0.5l-1 -1q3 9 11 18.5t19 11.5v-2z" />
<glyph unicode="&#xe6;" horiz-adv-x="786" d="M812 50l1 6q5 28 -8.5 39.5t-46.5 11.5h-13l-213 -18l33 121l167 18q5 1 9.5 1.5t9.5 0.5q23 0 45 10.5t30 44.5l2 7q3 18 -7.5 33.5t-50.5 15.5h-11t-11 -1l-151 -19q11 41 18 62t11 32l183 13h7q2 0 4.5 0.5t4.5 0.5q20 0 35 1.5t26 7t18.5 16t13.5 30.5l1 7 q6 31 -11 40.5t-46 9.5q-3 0 -6.5 -0.5t-6.5 -0.5h-12q-2 0 -4 -0.5t-4 -0.5h-7q-72 -5 -112 -7t-63 -2h-54q-19 0 -41.5 -8.5t-31.5 -19.5l1 1l-487 -435q-1 -1 -1 -2l-1 -1l-5 -4q-14 -12 -32 -31.5t-22 -37.5q-2 -15 5 -25t30 -12h5q20 0 44.5 18.5t56.5 45.5l10 9 l166 141h5q10 0 27.5 0.5t37.5 1t41.5 1t38.5 1.5l-22 -80l-3 -9q0 -3 -4 -11q-2 -6 -4.5 -15.5t-4.5 -20.5q-5 -29 4.5 -45.5t50.5 -16.5h6q2 0 3.5 0.5t3.5 0.5l257 19q24 1 39.5 6t25 12.5t14 17t6.5 19.5zM484 339q-5 -26 -15 -57l-69 -12l87 84z" />
<glyph unicode="&#xe7;" horiz-adv-x="459" d="M234 -68q2 4 3 8t3 7v-1q2 7 6 13.5t7 13.5q27 6 53.5 17.5t51 26t46.5 31t40 34.5v-2q2 3 4.5 6.5t5.5 6.5l1 1l6 8t5 7l-16 5l-6 -32q3 2 5 5t5 6v0q1 0 1 1q3 4 6.5 7.5t6.5 7.5h-2q19 25 21 33q4 22 -9.5 32.5t-33.5 10.5t-44 -10.5t-45 -34.5q-8 -10 -22.5 -21 t-31.5 -20.5t-35.5 -16t-33.5 -6.5q-21 0 -33.5 9t-18 24t-5.5 35t4 42q2 5 3 11t3 12q13 46 36 91t53 80t64.5 57t69.5 22q38 0 44 -9q4 -5 7.5 -8.5t6.5 -7.5l10 -12q18 -21 28 -21q29 0 51.5 20t27.5 45q5 28 -14 49q-28 32 -63.5 43.5t-77.5 11.5q-56 0 -112 -30 t-105 -80t-87 -114t-57 -133q-2 -8 -3.5 -16t-3.5 -16q-14 -75 5.5 -130t71.5 -75l-11 -32q-7 -13 -8.5 -17.5t-4.5 -17.5q-4 -19 0.5 -34.5t28.5 -19.5q1 0 2.5 -0.5t2.5 -0.5h4q23 0 46.5 23t35.5 55h1z" />
<glyph unicode="&#xe8;" horiz-adv-x="425" d="M452 54l2 6q5 28 -8.5 39.5t-46.5 11.5h-13l-213 -18l33 121l167 18q5 1 9 1.5t9 0.5q23 0 45 10.5t31 44.5l2 7q3 18 -7.5 33.5t-50.5 15.5h-11t-11 -1l-151 -19l26 94l186 13h7q2 0 4.5 0.5t4.5 0.5q20 0 34.5 1.5t25.5 7t19 16t14 30.5l1 7q6 31 -11 40.5t-46 9.5 q-3 0 -6.5 -0.5t-6.5 -0.5h-12q-2 0 -4 -0.5t-4 -0.5h-7q-72 -5 -112 -7t-63 -2h-54q-18 0 -32 -6.5t-24.5 -16.5t-16.5 -22t-8 -22q-2 -3 0 -5q-4 -9 -5 -19q-1 -5 -2 -9.5t-3 -9.5q-1 -6 -2.5 -12.5t-3.5 -13.5q-8 -32 -17.5 -72.5t-24.5 -91.5l-36 -137l-3 -9 q0 -3 -4 -11q-2 -6 -4.5 -15.5t-4.5 -20.5q-5 -29 4.5 -45.5t50.5 -16.5h6q2 0 3.5 0.5t3.5 0.5l257 19q24 0 39.5 5t24.5 13t13.5 17.5t6.5 19.5zM420 549q22 8 33 14.5t14 23.5q2 8 1.5 16t-4.5 19q-5 13 -12 29.5t-17 32.5t-21 30t-23 23q-14 10 -26.5 16t-23.5 6 q-18 0 -30.5 -10t-17.5 -32q-1 -6 -1.5 -9.5t0.5 -8.5q3 -18 6.5 -30t9.5 -21.5t15 -18.5t22 -19q25 -20 34 -34q12 -19 23 -23t15 -4h3z" />
<glyph unicode="&#xe9;" horiz-adv-x="425" d="M452 54l2 6q5 28 -8.5 39.5t-46.5 11.5h-13l-213 -18l33 121l167 18q5 1 9 1.5t9 0.5q23 0 45 10.5t31 44.5l2 7q3 18 -7.5 33.5t-50.5 15.5h-11t-11 -1l-151 -19l26 94l186 13h7q2 0 4.5 0.5t4.5 0.5q20 0 34.5 1.5t25.5 7t19 16t14 30.5l1 7q6 31 -11 40.5t-46 9.5 q-3 0 -6.5 -0.5t-6.5 -0.5h-12q-2 0 -4 -0.5t-4 -0.5h-7q-72 -5 -112 -7t-63 -2h-54q-18 0 -32 -6.5t-24.5 -16.5t-16.5 -22t-8 -22q-2 -3 0 -5q-4 -9 -5 -19q-1 -5 -2 -9.5t-3 -9.5q-1 -6 -2.5 -12.5t-3.5 -13.5q-8 -32 -17.5 -72.5t-24.5 -91.5l-36 -137l-3 -9 q0 -3 -4 -11q-2 -6 -4.5 -15.5t-4.5 -20.5q-5 -29 4.5 -45.5t50.5 -16.5h6q2 0 3.5 0.5t3.5 0.5l257 19q24 0 39.5 5t24.5 13t13.5 17.5t6.5 19.5zM350 549q9 0 18.5 4t29.5 25q14 10 47 32q16 11 27.5 19.5t21 18t18.5 21.5t19 30q4 7 5 18q5 22 -4 32t-26 10 q-10 0 -25.5 -6t-33.5 -16v1q-15 -8 -31.5 -22t-32.5 -30.5t-30 -33t-24 -30.5q-8 -11 -11.5 -19t-5.5 -16q-3 -17 5.5 -23.5t28.5 -14.5h4z" />
<glyph unicode="&#xea;" horiz-adv-x="425" d="M452 54l2 6q5 28 -8.5 39.5t-46.5 11.5h-13l-213 -18l33 121l167 18q5 1 9 1.5t9 0.5q23 0 45 10.5t31 44.5l2 7q3 18 -7.5 33.5t-50.5 15.5h-11t-11 -1l-151 -19l26 94l186 13h7q2 0 4.5 0.5t4.5 0.5q20 0 34.5 1.5t25.5 7t19 16t14 30.5l1 7q6 31 -11 40.5t-46 9.5 q-3 0 -6.5 -0.5t-6.5 -0.5h-12q-2 0 -4 -0.5t-4 -0.5h-7q-72 -5 -112 -7t-63 -2h-54q-18 0 -32 -6.5t-24.5 -16.5t-16.5 -22t-8 -22q-2 -3 0 -5q-4 -9 -5 -19q-1 -5 -2 -9.5t-3 -9.5q-1 -6 -2.5 -12.5t-3.5 -13.5q-8 -32 -17.5 -72.5t-24.5 -91.5l-36 -137l-3 -9 q0 -3 -4 -11q-2 -6 -4.5 -15.5t-4.5 -20.5q-5 -29 4.5 -45.5t50.5 -16.5h6q2 0 3.5 0.5t3.5 0.5l257 19q24 0 39.5 5t24.5 13t13.5 17.5t6.5 19.5zM539 601v3q3 15 -4 32l-50 98q-5 14 -15 26t-27 12q-22 0 -31 -8t-19 -20l-117 -99l-3 -3q-13 -10 -20 -17t-12 -21l-1 -9 q-3 -13 4 -22t28 -17q1 0 3 -0.5t4 -0.5h5q11 0 23.5 7t32.5 27l68 57l27 -53l1 -1q8 -22 22.5 -29.5t23.5 -7.5q1 0 2 0.5t2 0.5h3q26 9 36 18t14 27z" />
<glyph unicode="&#xeb;" horiz-adv-x="425" d="M452 54l2 6q5 28 -8.5 39.5t-46.5 11.5h-13l-213 -18l33 121l167 18q5 1 9 1.5t9 0.5q23 0 45 10.5t31 44.5l2 7q3 18 -7.5 33.5t-50.5 15.5h-11t-11 -1l-151 -19l26 94l186 13h7q2 0 4.5 0.5t4.5 0.5q20 0 34.5 1.5t25.5 7t19 16t14 30.5l1 7q6 31 -11 40.5t-46 9.5 q-3 0 -6.5 -0.5t-6.5 -0.5h-12q-2 0 -4 -0.5t-4 -0.5h-7q-72 -5 -112 -7t-63 -2h-54q-18 0 -32 -6.5t-24.5 -16.5t-16.5 -22t-8 -22q-2 -3 0 -5q-4 -9 -5 -19q-1 -5 -2 -9.5t-3 -9.5q-1 -6 -2.5 -12.5t-3.5 -13.5q-8 -32 -17.5 -72.5t-24.5 -91.5l-36 -137l-3 -9 q0 -3 -4 -11q-2 -6 -4.5 -15.5t-4.5 -20.5q-5 -29 4.5 -45.5t50.5 -16.5h6q2 0 3.5 0.5t3.5 0.5l257 19q24 0 39.5 5t24.5 13t13.5 17.5t6.5 19.5zM403 630l3 11q2 11 2.5 22.5t-3.5 20.5t-14 15t-28 6t-35 -7t-30.5 -17.5t-23 -23.5t-12.5 -25l-1 -4q-3 -13 0 -25.5t10 -23 t18 -17t25 -6.5q19 0 34 7t26 18t18.5 24t10.5 25zM555 634l2 7q0 2 2 6q4 22 -3 41.5t-41 19.5q-18 0 -35 -7t-30.5 -18t-23 -24t-12.5 -25l-1 -4q-2 -12 0.5 -25t10 -23t18.5 -16.5t25 -6.5q19 0 33.5 7t25.5 18.5t18.5 24.5t10.5 25z" />
<glyph unicode="&#xec;" horiz-adv-x="178" d="M277 463q1 2 1.5 5.5t1.5 5.5q2 4 2 7q2 5 3.5 11t3.5 11q4 21 -2.5 35t-34.5 14q-24 0 -39.5 -4.5t-25 -14.5t-14.5 -24.5t-9 -33.5l1 1l-118 -414q-3 -9 -7 -25q-5 -23 4 -39t38 -20h10q16 0 27 7t19.5 19.5t15.5 30t15 38.5l-3 -3zM301 549q22 8 33 14.5t14 23.5 q2 8 1.5 16t-4.5 19q-5 14 -12.5 30.5t-17 33t-21 30.5t-23.5 22v-1q-14 10 -26.5 16t-22.5 6q-17 0 -30 -10t-18 -32q-1 -6 -1.5 -9.5t0.5 -8.5q3 -18 7 -30t10 -21.5t14.5 -18t20.5 -19.5q13 -11 21.5 -19t11.5 -13q12 -20 24 -24.5t16 -4.5h3z" />
<glyph unicode="&#xed;" horiz-adv-x="178" d="M277 463q1 2 1.5 5.5t1.5 5.5q2 4 2 7q2 5 3.5 11t3.5 11q4 21 -2.5 35t-34.5 14q-24 0 -39 -4.5t-24.5 -14t-14.5 -23.5t-9 -33l-118 -415q-3 -9 -7 -25q-5 -23 4 -39t38 -20h10q16 0 27 7t19.5 19.5t15.5 30t15 38.5l-3 -3zM197 549h3q9 0 18.5 4t29.5 25q14 10 47 32 q16 11 28 19.5t22 18t19 21.5t18 30q4 7 5 18q5 22 -3.5 32t-26.5 10q-12 0 -28 -6t-34 -16q-14 -8 -30 -22t-31.5 -30.5t-29.5 -33t-24 -30.5q-15 -20 -18 -34t4.5 -21.5t24.5 -14.5z" />
<glyph unicode="&#xee;" horiz-adv-x="178" d="M277 463q1 2 1.5 5.5t1.5 5.5q2 4 2 7q2 5 3.5 11t3.5 11q4 21 -2.5 35t-34.5 14q-24 0 -39.5 -4.5t-25 -14.5t-14.5 -24.5t-9 -33.5l1 1l-118 -414q-3 -9 -7 -25q-5 -23 4 -39t38 -20h10q16 0 27 7t19.5 19.5t15.5 30t15 38.5l-3 -3zM403 601v3q3 15 -4 32l-50 98 q-5 14 -15 26t-27 12q-22 0 -31 -8t-19 -20l-117 -99l-3 -3q-13 -10 -20 -17t-12 -21l-1 -9q-3 -13 4 -22t28 -17q1 0 3 -0.5t4 -0.5h5q11 0 23 6.5t32 26.5l-1 -1l70 59l27 -53l1 -1l2 -2q8 -20 21.5 -27.5t22.5 -7.5q1 0 2 0.5t2 0.5h3q26 9 36 18t14 27z" />
<glyph unicode="&#xef;" horiz-adv-x="178" d="M277 463q1 2 1.5 5.5t1.5 5.5q2 4 2 7q2 5 3.5 11t3.5 11q4 21 -2.5 35t-34.5 14q-24 0 -39 -4.5t-24.5 -14t-14.5 -23.5t-9 -33l-118 -415q-3 -9 -7 -25q-5 -23 4 -39t38 -20h10q16 0 27 7t19.5 19.5t15.5 30t15 38.5l-3 -3zM259 626l2 11q2 11 2.5 22.5t-3.5 20.5 t-14 15t-28 6t-35 -7t-30.5 -17.5t-23 -23.5t-12.5 -25l-1 -4q-2 -13 0.5 -25.5t9.5 -23t18 -17t25 -6.5q19 0 34 7t26.5 18t19 24t10.5 25zM410 630l2 7q0 2 1 3t1 3q2 11 2 22t-4.5 19.5t-14.5 14t-27 5.5q-18 0 -35 -7t-30.5 -18t-23 -24t-12.5 -25v-4q-5 -25 9.5 -48 t43.5 -23q19 0 33.5 7t25.5 18.5t18.5 24.5t10.5 25z" />
<glyph unicode="&#xf0;" horiz-adv-x="485" d="M578 355q2 5 3 10t2 12q7 37 2.5 71.5t-23 61t-51 42.5t-80.5 16q-57 0 -97 -10.5t-75 -21.5q-2 -1 -6 -2t-9 -2l-13 -4q-33 -11 -51.5 -34t-23.5 -48q-3 -11 -3 -17l-26 -91h-7q-13 0 -18 -1h2q-1 0 -2 -0.5t-2 -0.5h-3q-31 0 -48 -17t-21 -38q-5 -22 6.5 -40t42.5 -18 h17l-35 -125q-1 -2 -2 -5.5t-1 -5.5l-2 -8l-4 -16t-4 -17q-6 -29 0.5 -48.5t38.5 -19.5q23 0 63 8.5t88 27t100.5 48t99.5 71.5t84.5 97t57.5 125zM259 224q28 0 46.5 17.5t22.5 38.5q5 21 -8 39t-50 18h-28l24 88q26 13 59.5 23t69.5 10q23 0 37.5 -7.5t22 -20t9 -29 t-1.5 -33.5l-2 -9q-16 -56 -48.5 -98.5t-72.5 -73.5t-83 -51t-79 -30l33 118h49z" />
<glyph unicode="&#xf1;" horiz-adv-x="522" d="M624 484q1 3 2 6.5t2 6.5l1 8q6 31 -3 43.5t-43 12.5q-19 0 -31 -6t-19.5 -15t-12 -20t-7.5 -21q0 -1 -1 -2.5t-1 -2.5v-1l-83 -296q-2 3 -3 5t-2 5q-12 21 -20.5 37.5t-16 31t-13.5 28t-12 27.5h2q-7 16 -19 43t-23 49h1l2 -2v1l-1 1h1h-1q0 1 -1 1v3q-5 10 -8 15.5 t-5 9.5q-2 2 -4 10l-9 36q-3 7 -7 16.5t-10.5 18t-16 14t-22.5 5.5q-14 0 -25 -2.5t-20 -10.5t-17 -23t-15 -39l-119 -422l-1 -1q-2 -5 -3 -9.5t-2 -10.5q-12 -57 47 -57h7q26 3 43.5 20.5t21.5 40.5q2 5 1.5 8t-0.5 6l73 262l2 -3q1 -2 1.5 -3.5t2.5 -3.5q3 -5 5.5 -11 t5.5 -11l25.5 -51t20.5 -49q5 -15 15 -37.5t22 -46.5l23.5 -47l19.5 -39l2 -3q3 -10 13 -19.5t45 -9.5q15 0 26 7t19 16.5t14 21t9 20.5v2zM555 652v3q3 14 -8.5 26t-28.5 12q-13 0 -25.5 -6.5t-22.5 -21.5l17 -8q-11 -14 -19.5 -22.5t-12.5 -8.5q-3 0 -3 4q1 4 6 12 q-3 2 -5 10q-7 13 -16 24.5t-35 11.5q-15 0 -35 -7t-38.5 -18.5t-33 -26t-18.5 -29.5l-1 -4q-3 -17 7.5 -29.5t31.5 -12.5q13 0 23 7t22 18l9 9t6 4l3 -10q8 -11 19 -21.5t39 -10.5q43 0 73 19.5t46 75.5zM437 139l8 4l-4 -6zM461 641v1l1 8l-2 -4l-2 -4q1 -1 3 -1z" />
<glyph unicode="&#xf2;" horiz-adv-x="510" d="M521 587q3 15 -4 34v-1q-4 14 -11.5 31t-17.5 33.5t-21 30.5t-23 22q-14 10 -27 16t-23 6q-18 0 -30.5 -10t-17.5 -32q-1 -7 -1.5 -13.5t0.5 -11.5q2 -15 6 -25.5t10 -19.5t15 -17.5t22 -19.5t21.5 -19t11.5 -13q3 -6 6 -9q-42 -4 -83 -22.5t-79.5 -46.5t-72.5 -63.5 t-60.5 -73t-45.5 -74t-27 -67.5q-2 -10 -4.5 -20t-4.5 -19q-20 -103 18 -160.5t128 -57.5q58 0 117.5 26t111.5 71t92 105.5t59 128.5q2 11 5 22.5t5 22.5q7 39 7.5 74.5t-9 65t-30.5 51t-57 31.5q11 8 14 24zM472 300q-13 -45 -38 -85.5t-57 -71.5t-69 -49t-74 -18 q-41 0 -55 30.5t-3 81.5q1 6 3 14l4 16q10 33 35 75t59 79t73 62.5t76 25.5q23 0 36 -10t19 -27t5.5 -39t-4.5 -46q-2 -10 -4.5 -19t-5.5 -19z" />
<glyph unicode="&#xf3;" horiz-adv-x="510" d="M586 296q2 11 5 22.5t5 22.5q9 44 8.5 84.5t-15 72t-44.5 51t-81 21.5q5 5 7 8q4 4 13 9.5t20 13.5q-2 -2 4 2.5t10 6.5q16 11 28 19.5t22 18t19 21.5t18 30q4 7 5 18q5 22 -3.5 32t-26.5 10q-12 0 -28 -6t-34 -16q-13 -8 -28.5 -21t-30.5 -28.5t-29 -31.5t-24 -30 q-10 -13 -14 -22t-6 -17q-3 -18 7 -26q-57 -16 -110.5 -55t-97 -88t-74.5 -101.5t-42 -94.5q-2 -10 -4.5 -20t-4.5 -19q-20 -103 18 -160.5t128 -57.5q58 0 117.5 26t111.5 71t92 105.5t59 128.5zM472 300q-13 -45 -38 -85.5t-57 -71.5t-69 -49t-74 -18q-41 0 -55 30.5 t-3 81.5q1 6 3 14l4 16q10 33 35 75t59 79t73 62.5t76 25.5q23 0 36 -10t19 -27t5.5 -39t-4.5 -46q-2 -10 -4.5 -19t-5.5 -19z" />
<glyph unicode="&#xf4;" horiz-adv-x="510" d="M586 296q2 11 5 22.5t5 22.5q9 45 8.5 86.5t-16 73t-48 50.5t-86.5 19q-65 0 -128 -36.5t-116 -90t-90.5 -113.5t-50.5 -108q-2 -10 -4.5 -20t-4.5 -19q-20 -103 18 -160.5t128 -57.5q58 0 117.5 26t111.5 71t92 105.5t59 128.5zM472 300q-13 -45 -38 -85.5t-57 -71.5 t-69 -49t-74 -18q-41 0 -55 30.5t-3 81.5q1 6 3 14l4 16q10 33 35 75t59 79t73 62.5t76 25.5q23 0 36 -10t19 -27t5.5 -39t-4.5 -46q-2 -10 -4.5 -19t-5.5 -19zM601 599l1 5q2 8 0 16t-4 17l-51 97q-5 14 -15 26t-27 12q-20 0 -29.5 -7.5t-17.5 -18.5l-120 -101l-4 -4 q-11 -8 -18 -15.5t-12 -19.5l-2 -11q-3 -13 4 -22t28 -17q1 0 3 -0.5t4 -0.5h5q11 0 23 6.5t32 26.5l70 58l29 -56q6 -22 20.5 -28.5t23.5 -6.5q1 0 2 0.5t2 0.5h3q26 10 35.5 18.5t14.5 24.5z" />
<glyph unicode="&#xf5;" horiz-adv-x="510" d="M598 655l1 3q3 14 -9 26t-29 12q-13 0 -25 -6.5t-22 -21.5l16 -8q-10 -14 -19 -22.5t-13 -8.5q-3 0 -2 4q1 2 2 5t3 7q-3 2 -5 9q-8 13 -17.5 25.5t-32.5 12.5q-15 0 -35 -7t-39 -19t-33 -26.5t-18 -29.5l-1 -4q-3 -16 7.5 -29t31.5 -13q13 0 23 7t21 18q5 5 9.5 9t6.5 4 q-2 0 3 -10l8 -12t12 -11q-42 -2 -83.5 -20t-80.5 -46.5t-73.5 -64t-61.5 -73.5t-46.5 -75t-27.5 -68q-2 -10 -4.5 -20t-4.5 -19q-20 -103 18 -160.5t128 -57.5q58 0 117.5 26t111.5 71t92 105.5t59 128.5q2 11 5 22.5t5 22.5q7 38 8 73.5t-8 65t-29.5 51t-54.5 31.5 q32 6 53 27t33 66zM472 300q-13 -45 -38 -85.5t-57 -71.5t-69 -49t-74 -18q-41 0 -55 30.5t-3 81.5q1 6 3 14l4 16q10 33 35 75t59 79t73 62.5t76 25.5q23 0 36 -10t19 -27t5.5 -39t-4.5 -46q-2 -10 -4.5 -19t-5.5 -19zM504 644v1l2 8q-2 -2 -2.5 -4t-2.5 -4q1 -1 3 -1z" />
<glyph unicode="&#xf6;" horiz-adv-x="510" d="M591 634l2 7q0 2 2 6q4 22 -3 41.5t-41 19.5q-18 0 -35 -7t-30.5 -18t-23 -24t-12.5 -25l-1 -4q-3 -17 3 -33.5t20 -27.5q-5 1 -9 1h-9q-65 0 -128 -36.5t-116 -90t-90.5 -113.5t-50.5 -108q-2 -10 -4.5 -20t-4.5 -19q-20 -103 18 -160.5t128 -57.5q58 0 117.5 26 t111.5 71t92 105.5t59 128.5q2 11 5 22.5t5 22.5q7 37 8 72t-7 64t-27 50.5t-51 32.5q29 6 47.5 29t24.5 45zM472 300q-13 -45 -38 -85.5t-57 -71.5t-69 -49t-74 -18q-41 0 -55 30.5t-3 81.5q1 6 3 14l4 16q10 33 35 75t59 79t73 62.5t76 25.5q23 0 36 -10t19 -27t5.5 -39 t-4.5 -46q-2 -10 -4.5 -19t-5.5 -19zM439 630l3 11q2 11 2.5 22.5t-3.5 20.5t-14 15t-28 6t-35 -7t-30.5 -17.5t-23 -23.5t-12.5 -25l-1 -4q-3 -13 0 -25.5t10 -23t18 -17t25 -6.5q19 0 34 7t26 18t18.5 24t10.5 25z" />
<glyph unicode="&#xf7;" horiz-adv-x="386" d="M379 164q28 0 46.5 17t23.5 38q4 21 -10 39t-52 18q-4 0 -7.5 0.5t-8.5 0.5h2q-5 1 -11 1h-10q-11 0 -23 -3h-136q-2 1 -12 1q-6 0 -14.5 -0.5t-14.5 -1.5q-5 -1 -8 -1h-4q-30 0 -47.5 -17t-21.5 -37q-5 -22 7 -40t43 -18q1 0 11 -2q5 -1 11 -1.5t13 -0.5q14 0 22 5 l132 1zM393 396q2 6 4 18q3 12 3 25t-5 23t-16 16.5t-30 6.5q-22 0 -42.5 -8.5t-37 -21.5t-28 -28.5t-15.5 -30.5l-1 -6q-3 -15 0 -30t11.5 -27t21 -19.5t28.5 -7.5q22 0 40.5 9t32 22.5t22 29.5t12.5 30v-1zM283 49q1 4 2 8.5t2 9.5q2 12 2 25t-4.5 23t-15.5 16.5t-30 6.5 q-22 0 -42.5 -8.5t-37 -21.5t-28 -28.5t-15.5 -30.5l-2 -6q-3 -15 0.5 -30t12 -27t21 -19.5t28.5 -7.5q22 0 40.5 9t32 22.5t22 29.5t12.5 30v-1z" />
<glyph unicode="&#xf8;" horiz-adv-x="510" d="M585 583q5 20 -3.5 33.5t-33.5 13.5q-39 0 -56.5 -16t-26.5 -32q-2 -3 -3 -5.5t-3 -4.5v1q-1 -1 -1 -4l-2 -2q-2 -2 -2 -3q0 4 4 5q-1 0 -2 0.5t-2 0.5q-65 0 -128 -36.5t-116 -90t-90.5 -113.5t-50.5 -108q-2 -10 -5 -20.5t-5 -19.5q-13 -66 -0.5 -113.5t47.5 -73.5 q-14 -27 -17 -42q-5 -24 6 -35t41 -11q25 0 42.5 19.5t30.5 38.5q58 1 117 27t110.5 71t91 105t58.5 128q2 11 5 22t5 22q11 57 5.5 108t-38.5 83q7 12 13.5 26t8.5 26zM386 451q-20 -35 -44 -73.5t-48 -77.5q-16 -26 -31.5 -52t-31.5 -51q-24 -41 -45 -75q-2 -4 -4.5 -7.5 t-4.5 -6.5q-11 30 -2 78q2 6 4 13.5t4 15.5v3q8 28 28.5 63.5t48.5 69.5t60.5 61t65.5 39zM286 84l2 2q3 5 5.5 9t5.5 9q21 33 45 69.5t48.5 74.5t48.5 76t45 73q2 -31 -4 -60q-2 -8 -4.5 -16.5t-4.5 -17.5l-1 -3q-11 -38 -29.5 -72.5t-43.5 -63t-54 -49.5t-59 -31z" />
<glyph unicode="&#xf9;" horiz-adv-x="489" d="M498 145l93 328q2 5 4.5 11.5t4.5 13.5q2 10 1.5 19.5t-5 17t-14.5 12.5t-26 5q-21 0 -35 -6t-22.5 -16.5t-12.5 -24t-7 -28.5l-101 -331q-4 -12 -18 -24.5t-36 -22.5t-50.5 -16.5t-60.5 -6.5q-17 0 -29 5t-10 16v1l111 392q1 8 1.5 18.5t-3.5 20.5t-13.5 16.5t-28.5 6.5 q-18 0 -30 -5t-19.5 -12.5t-12.5 -18t-9 -20.5q0 -3 -2 -5v-1l-109 -388q-1 -2 -1.5 -4t-1.5 -4l-1 -6q-5 -27 0 -49.5t22.5 -39t47.5 -25.5t74 -9q54 0 104.5 15.5t91 41t67.5 58t36 65.5zM429 549q22 8 33 14.5t14 23.5q2 8 1.5 16t-4.5 19q-5 14 -12.5 30.5t-17 33 t-21 30.5t-23.5 22v-1q-14 10 -26.5 16t-22.5 6q-17 0 -30 -10t-18 -32q-1 -6 -1.5 -9.5t0.5 -8.5q3 -18 7 -30t10 -21.5t14.5 -18t20.5 -19.5q13 -11 21.5 -19t11.5 -13q12 -20 24 -24.5t16 -4.5h3z" />
<glyph unicode="&#xfa;" horiz-adv-x="489" d="M498 145l93 328q2 5 4.5 11.5t4.5 13.5q2 10 1.5 19.5t-5 17t-14.5 12.5t-26 5q-21 0 -35 -6t-22.5 -16.5t-12.5 -24t-7 -28.5l-101 -331q-4 -12 -18 -24.5t-36 -22.5t-50.5 -16.5t-60.5 -6.5q-17 0 -29 5t-10 16v1l111 392q1 8 1.5 18.5t-3.5 20.5t-13.5 16.5t-28.5 6.5 q-18 0 -30 -5t-19.5 -12.5t-12.5 -18t-9 -20.5q0 -3 -2 -5v-1l-109 -388q-1 -2 -1.5 -4t-1.5 -4l-1 -6q-5 -27 0 -49.5t22.5 -39t47.5 -25.5t74 -9q54 0 104.5 15.5t91 41t67.5 58t36 65.5zM394 549q9 0 18.5 4t29.5 25q14 10 47 32q16 11 27.5 19.5t21 18t18.5 21.5t19 30 q4 7 5 18q5 22 -4 32t-26 10q-10 0 -25.5 -6t-33.5 -16v1q-15 -8 -31.5 -22t-32.5 -30.5t-30 -33t-24 -30.5q-8 -11 -11.5 -19t-5.5 -16q-3 -17 5.5 -23.5t28.5 -14.5h4z" />
<glyph unicode="&#xfb;" horiz-adv-x="489" d="M498 145l93 328q2 5 4.5 11.5t4.5 13.5q2 10 1.5 19.5t-5 17t-14.5 12.5t-26 5q-22 0 -35.5 -6.5t-22 -17t-12.5 -24.5t-7 -28l-101 -330q-4 -12 -18 -24.5t-36 -22.5t-50.5 -16.5t-60.5 -6.5q-17 0 -29 5t-10 16v1l111 392q1 8 1.5 18.5t-3.5 20.5t-13.5 16.5t-28.5 6.5 q-18 0 -30 -5t-19.5 -12.5t-12.5 -18t-9 -20.5q0 -3 -2 -5v-1l-109 -388q-1 -2 -1.5 -4t-1.5 -4l-1 -6q-5 -27 0 -49.5t22.5 -39t47.5 -25.5t74 -9q54 0 104.5 15.5t91 41t67.5 58t36 65.5zM577 599l1 5q2 8 0 16t-4 17l-51 97q-5 14 -15 26t-27 12q-20 0 -29.5 -7.5 t-17.5 -18.5l-120 -101l-4 -4q-11 -8 -18 -15.5t-12 -19.5l-2 -11q-3 -13 4 -22t28 -17q1 0 3 -0.5t4 -0.5h5q11 0 23 6.5t32 26.5l70 58l29 -56q6 -22 20.5 -28.5t23.5 -6.5q1 0 2 0.5t2 0.5h3q26 10 35.5 18.5t14.5 24.5z" />
<glyph unicode="&#xfc;" horiz-adv-x="489" d="M498 145l93 328q2 5 4.5 11.5t4.5 13.5q2 10 1.5 19.5t-5 17t-14.5 12.5t-26 5q-22 0 -35.5 -6.5t-22 -17t-12.5 -24.5t-7 -28l-101 -330q-4 -12 -18 -24.5t-36 -22.5t-50.5 -16.5t-60.5 -6.5q-17 0 -29 5t-10 16v1l111 392q1 8 1.5 18.5t-3.5 20.5t-13.5 16.5t-28.5 6.5 q-18 0 -30 -5t-19.5 -12.5t-12.5 -18t-9 -20.5q0 -3 -2 -5v-1l-109 -388q-1 -2 -1.5 -4t-1.5 -4l-1 -6q-5 -27 0 -49.5t22.5 -39t47.5 -25.5t74 -9q54 0 104.5 15.5t91 41t67.5 58t36 65.5zM413 630l2 7q0 2 1 3t1 3q2 11 2 22t-4.5 20t-14.5 14.5t-27 5.5q-18 0 -35 -7 t-30.5 -18t-22.5 -24t-12 -25l-1 -4q-5 -25 9.5 -48t43.5 -23q19 0 34 7t26 18t18 24t10 25zM565 632q2 3 2.5 7.5t1.5 9.5q2 11 2 21q0 11 -4.5 19.5t-14.5 13.5t-27 5t-34 -7t-30.5 -18.5t-23 -24.5t-12.5 -25l-1 -4q-2 -12 1 -24.5t10.5 -22.5t18 -16.5t23.5 -6.5 q18 0 32.5 7t26 17.5t19 23.5t10.5 25z" />
<glyph unicode="&#xfd;" horiz-adv-x="489" d="M607 445q19 17 27.5 30.5t10.5 23.5q3 17 -2.5 24.5t-14.5 12.5l2 -2q-1 1 -2 1t-2 1l-14 -12l9 14h3l-1 1h1q-8 3 -14 5t-11 2q-13 0 -24.5 -6t-25.5 -14q-12 -8 -23 -14l-179 -148l-98 142q-11 22 -21 36t-24 14h-7q-22 -5 -43 -18t-26 -39q-5 -21 14 -53l110 -192 l-51 -187q-2 -5 -3 -11t-3 -13q-5 -28 1 -45.5t33 -17.5h6q20 1 33.5 8t22.5 17t14 22.5t8 26.5l55 196zM388 544h3q9 0 18.5 4t29.5 25q14 10 47 32q16 11 27.5 19.5t21.5 18t19 21.5t19 30q4 7 5 18q5 22 -3.5 32t-26.5 10q-12 0 -28 -6t-34 -16q-14 -8 -29.5 -21.5 t-31.5 -30t-30 -33.5t-24 -32v1q-15 -20 -18 -34t4.5 -21.5t24.5 -14.5zM627 538h-1l-2 1q1 -1 3 -1z" />
<glyph unicode="&#xfe;" horiz-adv-x="419" d="M179 74h13q43 0 92 23t94 61t80 87.5t49 102.5l2 10q0 2 1 5t2 5q11 59 -11.5 92.5t-84.5 33.5q-33 0 -67 -5.5t-71 -21.5q0 3 2 7t2 7q2 5 3.5 11t3.5 11q4 21 -2.5 35t-34.5 14q-24 0 -39 -4.5t-24.5 -14t-14.5 -23.5t-9 -33l-118 -415q-3 -9 -7 -25q-5 -23 4 -39 t38 -20h6q17 0 28.5 6.5t19.5 17t13.5 24.5t10.5 28q1 2 2 4.5t1 4.5l1 2q0 1 1 3l1 2v3q4 0 7.5 0.5t5.5 0.5zM393 358l-2 -6q-8 -32 -29.5 -63t-48.5 -55t-56 -39t-53 -15q-7 0 -7 -1l14 52l30 106q16 12 54.5 25t83.5 13q17 0 14 -17z" />
<glyph unicode="&#xff;" horiz-adv-x="489" d="M607 445q19 17 27.5 30.5t10.5 23.5q3 17 -2.5 24.5t-14.5 12.5l1 -1q-2 1 -5 4q-8 3 -14 5t-11 2q-13 0 -24.5 -6t-25.5 -14q-12 -8 -23 -14l-179 -148l-98 142q-11 22 -21 36t-24 14h-7q-22 -5 -43 -18t-26 -39q-5 -21 14 -53l110 -192l-51 -187q-2 -5 -3 -11t-3 -13 q-5 -28 1 -45.5t33 -17.5h6q20 1 33.5 8t22.5 17t14 22.5t8 26.5l55 196zM418 622l2 12q2 10 2.5 21.5t-3 21.5t-13.5 16t-28 6t-35 -7t-30.5 -17.5t-23 -23.5t-12.5 -25l-1 -4q-3 -13 0 -26t10 -23.5t18 -17t25 -6.5q19 0 33.5 7.5t26 18.5t18.5 23.5t11 23.5zM570 627l1 7 q2 4 2 6q2 11 2 22t-4.5 20t-14.5 14.5t-27 5.5q-18 0 -35 -7t-30.5 -18t-22.5 -24t-12 -25l-1 -4q-2 -12 0.5 -24.5t9.5 -23t18 -17.5t25 -7q19 0 34 7.5t26 18.5t18.5 24t10.5 25zM627 538l-1 0.5t-2 0.5q1 -1 3 -1z" />
<glyph unicode="&#x152;" horiz-adv-x="975" d="M996 69l2 6q5 28 -8.5 39t-47.5 11h-17l-283 -24l50 182l222 24q5 1 11 1.5t12 0.5q24 0 45.5 10t32.5 45l1 7q4 17 -7.5 32t-53.5 15h-12q-6 0 -13 -1l-208 -26l43 149l244 16q5 0 10.5 0.5t10.5 0.5q22 1 38 2t27.5 6.5t19.5 16.5t14 31l2 7q5 29 -11.5 38.5t-44.5 9.5 q-9 0 -17.5 -0.5t-18.5 -1.5q-5 0 -9 -0.5t-8 -0.5q-89 -6 -140 -8.5t-80 -2.5h-68q-13 0 -24 -4t-19 -9q-22 20 -53 32t-76 12q-52 0 -103 -20.5t-99.5 -54.5t-91 -78t-77 -91t-59 -93.5t-34.5 -85.5v-2l-6 -22t-5 -21q-23 -121 21 -189.5t150 -68.5q66 0 131.5 27 t125.5 74l-2 -7q-5 -29 5 -45.5t52 -16.5h8q2 0 4.5 0.5t4.5 0.5l319 23q50 0 68.5 17.5t21.5 36.5zM584 311l1 1q-21 -51 -53.5 -96t-72.5 -78t-84 -52t-88 -19q-59 0 -79 42t-6 113q2 9 4.5 17.5t4.5 18.5l1 3q8 29 26 63.5t43 69.5t55 68t63 58.5t67 41t67 15.5 q28 0 46 -10.5t28 -28t12.5 -41t0.5 -49.5q-8 -30 -16.5 -64t-19.5 -73z" />
<glyph unicode="&#x153;" horiz-adv-x="780" d="M811 65l1 6q5 28 -8.5 39.5t-46.5 11.5h-13l-213 -18l33 122l167 18h12q2 0 3.5 0.5t3.5 0.5q23 0 45 10.5t30 44.5l2 8q4 18 -7.5 33.5t-51.5 15.5h-11t-10 -1l-152 -20l28 94l185 13h7q2 0 4.5 0.5t4.5 0.5q20 0 34.5 1.5t25.5 7t19 16t14 30.5l1 7q6 31 -11 40.5 t-46 9.5q-3 0 -6.5 -0.5t-6.5 -0.5h-12q-2 0 -4 -0.5t-4 -0.5h-7q-71 -5 -111.5 -7t-63.5 -2h-54q-19 0 -35 -8q-18 15 -43 24t-60 9q-65 0 -128 -36.5t-116 -90t-90.5 -113.5t-50.5 -108q-2 -10 -4.5 -20t-4.5 -19q-20 -103 18 -160.5t128 -57.5q48 0 97 18.5t96 50.5 q-1 -20 11 -31.5t44 -11.5h11q6 0 10 1l1 1l250 17q24 0 39.5 5t25 13t14 17.5t6.5 19.5zM464 283q-2 -5 -4 -13q0 -4 -2 -6q-16 -40 -40.5 -74t-54.5 -59.5t-63 -40t-66 -14.5q-41 0 -55 30.5t-3 81.5q1 6 3 14l4 16q10 33 35 75t59 79t73 62.5t76 25.5q38 0 51 -27.5 t8 -65.5q-4 -16 -8 -32.5t-9 -35.5q-1 -5 -2 -8.5t-2 -7.5z" />
<glyph unicode="&#x178;" d="M748 554q20 20 29 33.5t11 23.5q3 15 -5 23.5t-19 15.5h-1q-9 6 -19 6q-14 0 -27 -7t-27 -16q-6 -4 -11.5 -8t-15.5 -9l-238 -196l-118 173v-2q-15 33 -28.5 55t-29.5 22h-5q-23 -5 -44.5 -18.5t-26.5 -38.5q-2 -12 1 -26.5t15 -30.5l141 -245l-67 -244q-4 -11 -6 -24 q-5 -28 0.5 -46t30.5 -18h5q21 2 35 9t23 18t14.5 24.5t9.5 28.5l70 250zM505 768l2 7q0 1 2 7q2 10 2 21q0 12 -4.5 21.5t-14 15.5t-26.5 6q-19 0 -37 -7.5t-32.5 -19t-24.5 -25t-14 -26.5v-4q-3 -12 0 -25.5t10 -24.5t18 -18t26 -7q19 0 35 8t27.5 19.5t19.5 25.5t11 26z M695 772q2 3 2.5 7.5t1.5 9.5q2 11 2 22t-4.5 19.5t-14 14t-26.5 5.5q-19 0 -37 -7.5t-32.5 -19t-24.5 -25.5t-13 -27l-1 -5q-3 -13 0 -26t10.5 -23.5t18.5 -17t25 -6.5q19 0 35 7.5t27.5 19.5t19.5 26t11 26z" />
<glyph unicode="&#x2c6;" horiz-adv-x="400" d="M519 538v4q3 12 -4 32l-63 124l-1 -2q-2 17 -13 29t-28 12q-20 0 -29 -8t-18 -19l2 2l-152 -129l-3 -3q-13 -10 -21 -17.5t-13 -21.5l-2 -10q-2 -11 5 -18.5t28 -14.5v1q5 -2 7 -2h4q11 0 23 7t32 27l104 88l43 -85q7 -23 21.5 -30t23.5 -7q6 0 10 2q22 8 30.5 16 t13.5 23z" />
<glyph unicode="&#x2dc;" horiz-adv-x="492" d="M542 608l1 2q2 13 -9 23t-27 10q-11 0 -23 -6t-20 -20l-5 -12q-4 -9 -9 -18t-14 -9q-7 0 -11 6.5t-9 14.5q-6 14 -16.5 26t-36.5 12q-17 0 -39 -7.5t-42.5 -20.5t-36.5 -29t-20 -32l-1 -3q-3 -16 6.5 -26.5t29.5 -10.5q12 0 22.5 7.5t22.5 18.5q8 8 16.5 14.5t14.5 6.5 q2 0 5.5 -4.5t6.5 -9.5l-1 1q8 -13 21.5 -26t43.5 -13q48 0 80.5 21.5t49.5 83.5z" />
<glyph unicode="&#x2000;" horiz-adv-x="468" />
<glyph unicode="&#x2001;" horiz-adv-x="937" />
<glyph unicode="&#x2002;" horiz-adv-x="468" />
<glyph unicode="&#x2003;" horiz-adv-x="937" />
<glyph unicode="&#x2004;" horiz-adv-x="312" />
<glyph unicode="&#x2005;" horiz-adv-x="234" />
<glyph unicode="&#x2006;" horiz-adv-x="156" />
<glyph unicode="&#x2007;" horiz-adv-x="156" />
<glyph unicode="&#x2008;" horiz-adv-x="117" />
<glyph unicode="&#x2009;" horiz-adv-x="187" />
<glyph unicode="&#x200a;" horiz-adv-x="52" />
<glyph unicode="&#x2010;" horiz-adv-x="386" d="M393 224q28 0 46.5 17t22.5 38q5 21 -9.5 39t-52.5 18q-4 0 -7 0.5t-8 0.5h2q-5 1 -11 1h-10q-11 0 -23 -3h-136q-3 1 -13 1q-6 0 -14 -0.5t-14 -1.5q-5 -1 -8 -1h-4q-30 0 -48 -17t-22 -37q-4 -22 8 -40t43 -18q1 0 11 -2q5 -1 10.5 -1.5t12.5 -0.5q14 0 23 5l131 1z " />
<glyph unicode="&#x2011;" horiz-adv-x="386" d="M393 224q28 0 46.5 17t22.5 38q5 21 -9.5 39t-52.5 18q-4 0 -7 0.5t-8 0.5h2q-5 1 -11 1h-10q-11 0 -23 -3h-136q-3 1 -13 1q-6 0 -14 -0.5t-14 -1.5q-5 -1 -8 -1h-4q-30 0 -48 -17t-22 -37q-4 -22 8 -40t43 -18q1 0 11 -2q5 -1 10.5 -1.5t12.5 -0.5q14 0 23 5l131 1z " />
<glyph unicode="&#x2012;" horiz-adv-x="386" d="M393 224q28 0 46.5 17t22.5 38q5 21 -9.5 39t-52.5 18q-4 0 -7 0.5t-8 0.5h2q-5 1 -11 1h-10q-11 0 -23 -3h-136q-3 1 -13 1q-6 0 -14 -0.5t-14 -1.5q-5 -1 -8 -1h-4q-30 0 -48 -17t-22 -37q-4 -22 8 -40t43 -18q1 0 11 -2q5 -1 10.5 -1.5t12.5 -0.5q14 0 23 5l131 1z " />
<glyph unicode="&#x2013;" horiz-adv-x="543" d="M510 330h-305q-6 2 -10 2q-16 0 -18 -1t-7 -2q-4 -1 -7 -1h-3q-36 0 -57.5 -19t-26.5 -41q-4 -20 7 -35t41 -15l12 -2q5 -1 11.5 -1.5t14.5 -0.5q5 0 9 0.5t9 2.5h295q5 -2 8.5 -2.5t8.5 -0.5q9 0 14 1l10 2q4 1 7 1q17 0 31.5 6t26 16t19 21.5t9.5 23.5q4 18 -6 32 t-39 14z" />
<glyph unicode="&#x2014;" horiz-adv-x="754" d="M720 329l-515 1q-6 2 -10 2q-16 0 -18 -1t-7 -2q-4 -1 -7 -1h-3q-36 0 -57.5 -19t-26.5 -41q-4 -20 7 -35t41 -15l12 -2q5 -1 11.5 -1.5t14.5 -0.5q5 0 9 0.5t9 2.5l505 -1q4 -2 7.5 -2.5t8.5 -0.5q9 0 14.5 1t10.5 2q4 1 7 1q17 0 31.5 6t26 16t19 21.5t9.5 23.5 q4 18 -6 32t-39 14z" />
<glyph unicode="&#x2018;" horiz-adv-x="191" d="M268 592q1 13 1.5 25.5t-4 22.5t-15 16.5t-31.5 6.5q-29 0 -41 -13.5t-16 -34.5q-2 -11 -2.5 -22.5t-0.5 -22.5l-3 -123q0 -18 0.5 -33t4.5 -27t12.5 -19.5t24.5 -8.5h5q25 0 39 16.5t19 43.5q4 16 4 34l-2 1l4 123q0 4 0.5 7.5t0.5 7.5z" />
<glyph unicode="&#x2019;" horiz-adv-x="150" d="M216 447l56 128q1 3 2 7.5t2 9.5q4 13 5 21q4 20 -2 35t-36 15q-19 0 -33.5 -8t-25.5 -20.5t-18.5 -29.5t-13.5 -35v1l-43 -119l1 2q-5 -8 -7.5 -12.5t-4 -8.5t-2.5 -8.5t-2 -12.5q-4 -18 0 -33.5t26 -19.5q1 0 2.5 -0.5t2.5 -0.5h3q12 0 24.5 7t24.5 19t22 28.5t17 34.5 z" />
<glyph unicode="&#x201a;" horiz-adv-x="150" d="M117 -62l56 128q1 3 2 7.5t2 9.5q4 13 5 21q4 20 -2 35t-36 15q-19 0 -33.5 -8t-25.5 -20.5t-18.5 -29.5t-13.5 -35v1l-43 -119l1 2q-5 -8 -7.5 -12.5t-4 -8.5t-2.5 -8.5t-2 -12.5q-4 -18 0 -33.5t26 -19.5q1 0 2.5 -0.5t2.5 -0.5h3q12 0 24.5 7t24.5 19t22 28.5t17 34.5 z" />
<glyph unicode="&#x201c;" horiz-adv-x="368" d="M213 450l10 126v14q-1 12 -2.5 25t-6.5 23.5t-16 17.5t-30 7q-27 0 -41 -15.5t-19 -38.5q-2 -11 -2.5 -21.5t0.5 -21.5v1l-1 -119q-1 -5 -2 -18.5t2.5 -28t12.5 -27t27 -15.5h8q21 0 36.5 18t20.5 47q2 7 3 13.5t1 13.5zM392 592q1 13 1.5 25.5t-4 22.5t-15 16.5 t-31.5 6.5q-29 0 -41 -13.5t-16 -34.5q-2 -11 -2.5 -22.5t-0.5 -22.5l-3 -123q0 -18 0.5 -33t4.5 -27t12.5 -19.5t24.5 -8.5h5q25 0 39 16.5t19 43.5q4 16 4 34l-2 1l4 123q0 4 0.5 7.5t0.5 7.5z" />
<glyph unicode="&#x201d;" horiz-adv-x="316" d="M216 447l56 128q1 3 2 7.5t2 9.5q4 13 5 21q4 20 -2 35t-36 15q-19 0 -33.5 -8t-25.5 -20.5t-18.5 -29.5t-13.5 -35v1l-43 -119l1 2q-5 -8 -7.5 -12.5t-4 -8.5t-2.5 -8.5t-2 -12.5q-4 -18 0 -33.5t26 -19.5q1 0 2.5 -0.5t2.5 -0.5h3q12 0 24.5 7t24.5 19t22 28.5t17 34.5 zM437 573q2 3 3 5.5t3 5.5l-1 -1q5 10 9 20t6 21q4 17 -3.5 28t-35.5 11q-21 0 -35 -8t-24 -20.5t-17 -29t-12 -32.5l1 1l-47 -123q-9 -23 -14 -44q-4 -20 1.5 -33t25.5 -15h5q30 0 53.5 27t37.5 66l-1 1z" />
<glyph unicode="&#x201e;" horiz-adv-x="316" d="M116 -66l56 128q1 3 2 7.5t2 9.5q2 5 3 10.5t2 10.5q4 20 -2 35t-36 15q-19 0 -33.5 -8t-25.5 -20.5t-18.5 -29.5t-13.5 -35v1l-43 -119l2 2q-5 -8 -7.5 -12.5t-4 -8.5t-3 -8.5t-2.5 -12.5q-3 -18 0.5 -33.5t25.5 -19.5q1 0 2.5 -0.5t2.5 -0.5h3q12 0 24.5 7t24.5 19 t22.5 28.5t16.5 34.5zM338 60q1 3 2 5.5t3 5.5v-1q5 10 9 20t6 21q3 17 -4.5 28t-35.5 11q-21 0 -35 -8t-24 -20.5t-16.5 -29t-11.5 -32.5v1l-47 -123q-9 -23 -14 -44q-4 -20 1.5 -33t25.5 -15h5q30 0 53.5 27t37.5 66l-1 1z" />
<glyph unicode="&#x2022;" horiz-adv-x="283" d="M327 284q2 5 3 11t3 13q3 18 3.5 37t-6.5 34.5t-23 25.5t-44 10q-33 0 -63.5 -13t-56 -33t-43 -43.5t-23.5 -45.5l-1 -8q-4 -22 1 -44t17.5 -40t31 -29.5t42.5 -11.5q33 0 60 13.5t47 34t33 44.5t19 45z" />
<glyph unicode="&#x2026;" horiz-adv-x="688" d="M216 82q2 6 4 18q3 12 3 25t-5 23t-16 16.5t-30 6.5q-22 0 -42.5 -8.5t-37 -21.5t-28 -28.5t-15.5 -30.5l-1 -6q-3 -15 0 -30t11.5 -27t21 -19.5t28.5 -7.5q22 0 40.5 9t32 22.5t22 29.5t12.5 30v-1zM447 79q2 4 2.5 8.5t2.5 9.5q2 12 2 25t-4.5 23t-15.5 16.5t-30 6.5 q-22 0 -42.5 -8.5t-37 -21.5t-28.5 -28.5t-16 -30.5l-1 -6q-3 -15 0.5 -30t12 -27t21 -19.5t28.5 -7.5q22 0 40 9t31.5 22.5t22.5 29.5t13 30zM673 81q2 6 4 18q3 12 3 25t-5 23t-16 16.5t-30 6.5q-22 0 -42.5 -8.5t-37 -21.5t-28 -28.5t-15.5 -30.5l-1 -6q-3 -15 0 -30 t11.5 -27t21 -19.5t28.5 -7.5q22 0 40.5 9t32 22.5t22 29.5t12.5 30v-1z" />
<glyph unicode="&#x202f;" horiz-adv-x="187" />
<glyph unicode="&#x2039;" horiz-adv-x="267" d="M318 472h-4q-15 0 -35 -11l-140 -87h1q-18 -6 -32 -19t-18 -30q-4 -20 2.5 -27.5t16.5 -14.5l-2 2l105 -127l2 -3q8 -11 14.5 -17.5t19.5 -8.5h10q11 0 20.5 8t20.5 31h-1q2 5 2.5 7t1.5 4q2 11 -3 22t-22 27l-72 87l97 59q25 11 35.5 27t12.5 25q0 2 0.5 4.5t-1.5 5.5 q-4 20 -10.5 27t-20.5 9z" />
<glyph unicode="&#x203a;" horiz-adv-x="267" d="M160 472q-16 -2 -25.5 -9t-20.5 -27q-4 -5 -4 -10q-2 -9 2.5 -25t24.5 -27l73 -59l-106 -88l1 1q-23 -16 -32 -27t-11 -22q-1 -4 0 -11h-1q2 -23 8 -31t17 -8h10q14 2 23 8.5t21 17.5l4 3l153 127l-2 -2q13 7 22 14.5t13 27.5q4 17 -5.5 29.5t-23.5 19.5l-107 87 q-17 11 -30 11h-4z" />
<glyph unicode="&#x205f;" horiz-adv-x="234" />
<glyph unicode="&#x20ac;" horiz-adv-x="599" d="M473 304q-16 0 -21 -1t-14 -8h-186q8 22 17.5 43t21.5 42h171q8 -5 15 -6t15 -1q32 0 50 16t26 45l2 8q5 23 -4 42t-35 19q-16 0 -21 -1.5t-18 -8.5h-117q38 38 78.5 60.5t82.5 22.5q29 0 43.5 -3.5t19.5 -10.5q8 -9 15 -16.5t12 -14.5q22 -27 30 -27q29 0 52 20t28 46 q2 14 -1 27t-13 24q-33 37 -75 50.5t-93 13.5q-41 0 -82.5 -14.5t-81 -40t-76.5 -60.5t-70 -77h-47q-9 6 -18.5 7t-13.5 1q-16 0 -29.5 -6.5t-23 -16.5t-16 -22.5t-8.5 -25.5q-5 -23 4.5 -41.5t35.5 -18.5q10 0 20 2.5t18 7.5h6q-23 -43 -36 -82q-6 3 -13 3.5t-13 0.5 q-16 0 -29 -6.5t-22.5 -16.5t-16 -23t-9.5 -26q-5 -23 4 -41t36 -18q11 0 33 8q-5 -47 2.5 -87t27.5 -69t52.5 -46t77.5 -17q46 0 94.5 15.5t92.5 40.5t81 55t61 60v-1q10 11 14 19.5t6 16.5q4 18 -7.5 28t-31.5 10q-21 0 -48.5 -12.5t-50.5 -38.5q-10 -13 -29.5 -28 t-43.5 -27.5t-49 -21t-46 -8.5q-51 0 -69 33t-15 81h183q9 -4 14 -5t9 -1h3q17 0 31.5 6.5t26 17t19 23t9.5 25.5q5 22 -6 39t-41 17z" />
<glyph unicode="&#x2122;" horiz-adv-x="803" d="M928 633q6 32 -1.5 41t-29.5 12h-2q-11 0 -30.5 -17.5t-38.5 -40.5q-48 -58 -80.5 -97t-53.5 -65q-12 -14 -22 -24.5t-16 -18.5q-2 -2 -9.5 -12t-11.5 -16q0 1 -0.5 1.5t0.5 2.5v0q0 2 -1 3q-5 24 -10.5 53t-10.5 52q-4 15 -6 25t-2 9q-7 43 -20.5 70t-19.5 31l17 3 q-3 20 -13 31.5t-23 11.5q-14 0 -26.5 -11t-19.5 -33l-105 -354q-6 -31 2 -42t26 -13h4q9 0 17.5 6t15 14.5t10.5 18t6 16.5l53 191q2 -8 4.5 -16t4.5 -16q6 -22 11 -43.5t9 -43.5l1 1l1 -9q3 -21 4 -26t4 -12l1 1q0 -6 2 -8q2 -8 12.5 -15.5t26.5 -7.5q11 0 23 5t24 19 q10 11 14.5 17t9.5 13q3 5 7.5 11t12.5 17q6 8 17.5 21.5t26.5 30.5t32 36l34 38l-59 -206v1q-2 -4 -3 -8t-2 -9q-3 -16 2.5 -25.5t25.5 -11.5h4q23 0 36 15t17 35l1 5zM492 651l1 5q6 36 -31 36h-5t-8 -2l1 1q-33 -6 -59 -11t-58 -11q-25 -5 -56.5 -11t-76.5 -14 q-20 -5 -39.5 -12.5t-26.5 -29.5l-1 -4q-2 -14 6.5 -23.5t32.5 -9.5h9t9 1l65 13l-84 -299l-2 -10q0 -2 -1 -5l-2 -6q-2 -13 2.5 -23t26.5 -10q28 0 37 11.5t19 39.5l88 317l87 16q35 8 48 16t18 25z" />
<glyph unicode="&#xe000;" horiz-adv-x="565" d="M0 565h565v-565h-565v565z" />
<glyph unicode="&#xfb01;" horiz-adv-x="574" d="M548 503q2 32 -11.5 43.5t-45.5 11.5h-8q-2 0 -5.5 -0.5t-5.5 -0.5q-44 -4 -76 -6.5t-54.5 -5t-36.5 -4t-23 -2.5q-4 -1 -8 -1q-2 0 -5 -0.5t-5 -0.5q-5 0 -9 -1q-48 -5 -69.5 -17.5t-26.5 -41.5q-2 -8 -3.5 -16t-0.5 -16q-5 -21 -10 -38t-9 -31q-5 -21 -9 -36t-9 -29 q0 -2 -1 -4.5t-1 -4.5q-5 -13 -8.5 -26t-8.5 -32l-56 -181l-1 -4q-2 -7 -3.5 -13t-2.5 -11q-6 -29 2 -42.5t32 -13.5h10t9 1v1q18 2 29.5 7t19 14t13.5 22t13 33l46 157l175 26q27 2 42 6t23.5 10.5t12.5 16t9 23.5v3q0 1 1 2t1 2v3q2 2 2 4q3 14 -1 23t-12.5 14.5 t-20.5 7.5t-25 2q-17 0 -30.5 -1.5t-24.5 -3.5q-2 -1 -4 -1h-3l-114 -17l26 92l195 14q41 3 59 17.5t26 41.5zM668 472q0 6 3 11q0 2 1 3.5t1 3.5q2 5 3.5 11t3.5 11q4 21 -2.5 35t-34.5 14q-24 0 -39.5 -4.5t-25 -14.5t-14.5 -24.5t-9 -33.5v1l-117 -414q-2 -5 -3.5 -10.5 t-3.5 -14.5q-5 -23 3.5 -39t37.5 -20h10q16 0 27.5 7t20 19.5t15.5 30t15 38.5l-4 -3z" />
<glyph unicode="&#xfb02;" horiz-adv-x="733" d="M548 503q2 32 -11.5 43.5t-45.5 11.5h-8q-2 0 -5.5 -0.5t-5.5 -0.5q-44 -4 -76 -6.5t-54.5 -5t-36.5 -4t-23 -2.5q-4 -1 -8 -1q-2 0 -5 -0.5t-5 -0.5q-5 0 -9 -1q-48 -5 -69.5 -17.5t-26.5 -41.5q-2 -8 -3.5 -16t-0.5 -16q-5 -21 -10 -38t-9 -31q-5 -21 -9 -36t-9 -29 q0 -2 -1 -4.5t-1 -4.5q-5 -13 -8.5 -26t-8.5 -32l-56 -181l-1 -4q-2 -7 -3.5 -13t-2.5 -11q-6 -29 2 -42.5t32 -13.5h10t9 1v1q18 2 29.5 7t19 14t13.5 22t13 33l46 157l175 26q27 2 42 6t23.5 10.5t12.5 16t9 23.5v3q0 1 1 2t1 2v3q2 2 2 4q3 14 -1 23t-12.5 14.5 t-20.5 7.5t-25 2q-17 0 -30.5 -1.5t-24.5 -3.5q-2 -1 -4 -1h-3l-114 -17l26 92l195 14q41 3 59 17.5t26 41.5zM773 70q5 25 -8 36.5t-39 11.5q-18 0 -34 -3v-1l-136 -18l109 388q2 5 3 10t2 11q6 30 -3 43.5t-37 13.5q-42 0 -57.5 -21t-23.5 -55l-118 -419q-2 -5 -3.5 -10 t-3.5 -16q-2 -12 -2 -24q0 -11 4 -20.5t11.5 -15.5t20.5 -6h3q1 0 2.5 0.5t2.5 0.5l228 30q35 6 55 22t23 33q0 2 0.5 4t-0.5 4z" />
</font>
</defs>
</svg>
