<?xml version="1.0" standalone="no"?>
<!DOCTYPE svg PUBLIC "-//W3C//DTD SVG 1.1//EN" "http://www.w3.org/Graphics/SVG/1.1/DTD/svg11.dtd" >
<svg xmlns="http://www.w3.org/2000/svg">
<metadata></metadata>
<defs>
<font id="komika_textbold_italic" horiz-adv-x="608" >
<font-face units-per-em="1000" ascent="800" descent="-200" />
<missing-glyph horiz-adv-x="262" />
<glyph horiz-adv-x="1000" />
<glyph horiz-adv-x="1000" />
<glyph unicode="&#xd;" horiz-adv-x="500" />
<glyph unicode=" "  horiz-adv-x="262" />
<glyph unicode="&#x09;" horiz-adv-x="262" />
<glyph unicode="&#xa0;" horiz-adv-x="262" />
<glyph unicode="!" horiz-adv-x="201" d="M230 242l94 333q2 7 4.5 17l4.5 18q1 6 1.5 11.5t0.5 10.5q0 24 -9.5 39.5t-35.5 15.5q-23 0 -38 -10.5t-24 -25.5t-13 -32t-5 -30l1 3l-90 -340v1q-7 -17 -11.5 -32t-4.5 -28q0 -19 9 -29.5t31 -10.5q35 0 56 25t30 64h-1zM194 71q2 6 3 11t1 14q0 22 -13 34.5t-40 12.5 q-32 0 -59.5 -26t-38.5 -64v1q-2 -6 -2.5 -11t-0.5 -10q0 -20 11 -35t37 -15q37 0 61.5 17.5t39.5 70.5h1z" />
<glyph unicode="&#x22;" horiz-adv-x="314" d="M240 454l34 120v4q1 6 2 18l1 12q0 19 -9 33.5t-38 14.5q-18 0 -31 -7.5t-22 -19.5t-13.5 -28t-6.5 -33v1l-23 -108l11 9q-5 -5 -12 -19t-7 -31t7.5 -31t27.5 -17h8q23 0 44 24t28 59zM426 569q2 8 3 13q3 9 5 18t2 17q0 17 -9.5 28t-37.5 11q-20 0 -32.5 -7.5 t-20.5 -19.5t-12 -27t-7 -30l-24 -111q-3 -12 -5 -23t-2 -22q0 -19 8.5 -30.5t29.5 -13.5h4q29 0 47 24t25 59v1z" />
<glyph unicode="#" horiz-adv-x="668" d="M761 452q0 15 -13.5 28t-42.5 13q-6 0 -12.5 -0.5t-12.5 -1.5l29 50l-1 -2q38 53 38 82q0 35 -41 35q-17 0 -27.5 -3t-19.5 -12t-18.5 -25t-24.5 -43v1l-48 -84h-73l37 65l-1 -2q28 38 28 65q0 17 -11 27.5t-34 10.5q-16 0 -29 -8t-23 -19.5t-16.5 -24.5t-9.5 -22 l-54 -92h-44q-85 0 -97 -49v2q-2 -6 -2.5 -10.5t-0.5 -8.5q0 -23 14.5 -30t40.5 -7h14t13 1h3l-69 -119h-33q-42 0 -69 -15t-35 -44v-9q0 -15 10 -26.5t43 -11.5q7 0 12 0.5t12 1.5l-36 -65l-23.5 -47t-9.5 -32q0 -18 11 -25.5t37 -7.5q12 0 24 8t23 20.5t20 27.5t15 30 l-1 -1l53 92h73l-40 -72l1 1q-15 -23 -21.5 -38.5t-6.5 -26.5q0 -23 13.5 -31t28.5 -10h3q12 0 24.5 9t23.5 22.5t21 29.5t17 30l48 86h28q5 0 10 -0.5t10 -0.5q8 -1 16 -1h15q15 0 26 2t19.5 8.5t14 18t10.5 30.5q1 5 2 8.5t1 5.5q0 22 -20 27.5t-71 5.5l68 119h24 q10 -1 20 -1h18q29 0 50.5 10.5t23.5 36.5q5 8 5 18zM436 388h70l-67 -119h-72z" />
<glyph unicode="$" horiz-adv-x="473" d="M545 285q5 17 6.5 32.5t1.5 31.5q0 54 -27.5 80t-72.5 26q-17 0 -32 -3l19 68q13 -2 21.5 -7t14.5 -10q35 -30 59 -30q19 0 32 13.5t21 44.5q2 8 2 16q0 18 -10.5 33t-27 27t-37.5 19.5t-43 9.5l1 1q4 8 6.5 18t2.5 21q0 17 -8.5 30t-34.5 13h-6q-20 -2 -33 -11 t-21 -20.5t-11.5 -24.5t-3.5 -22l-5 -14q-34 -11 -68.5 -32.5t-64.5 -51t-53.5 -66t-35.5 -78.5q-4 -13 -5 -23.5t-1 -21.5q0 -24 7.5 -43t20 -32.5t28 -20.5t31.5 -7t41 11l-39 -140q-9 -3 -16 -3q-27 0 -37 -3q6 19 9.5 32t3.5 18q0 24 -12.5 35.5t-29.5 11.5 q-19 0 -39 -16t-29 -48q-6 -20 -6 -34q0 -25 10.5 -43t27.5 -30.5t40 -19.5t48 -10l-9 -35v1q-12 -32 -12 -52q0 -46 43 -46q20 0 33 7t21.5 19.5t13.5 29t9 35.5l-1 -1l12 47q36 11 73 33.5t70 56t59.5 78.5t41.5 100h1zM439 299q-14 -50 -40.5 -86.5t-58.5 -56.5l50 180 q24 11 41 11q13 0 13 -18q0 -12 -5 -30zM243 374q1 0 1 4t1 9t3 10q8 32 30 58.5t48 44.5l-27 -100q-18 -11 -32.5 -18.5t-23.5 -7.5z" />
<glyph unicode="%" horiz-adv-x="625" d="M660 605q1 3 1 7v9q0 23 -15 38.5t-38 15.5q-17 0 -33.5 -9t-31.5 -31q-61 -94 -109.5 -168t-86 -131.5t-65.5 -100t-48 -72.5q-27 -41 -41.5 -63.5t-22 -34t-9 -15t-2.5 -6.5h1q-4 -12 -4 -22q0 -23 12 -34.5t31 -11.5q18 0 41 14t46 46q56 85 101 153t80.5 121.5 t62.5 94l47 70.5q28 42 44.5 66.5t24.5 37.5t10.5 18t3.5 8zM657 138q4 12 5 22.5t1 18.5q0 40 -20.5 66t-59.5 26q-33 0 -65.5 -8.5t-61.5 -28t-51.5 -51t-35.5 -77.5q-7 -21 -7 -47q0 -17 4 -32.5t14 -27.5t27 -19.5t43 -7.5q23 0 54 11.5t61.5 33t55.5 52t36 69.5z M453 539q7 21 7 41q0 42 -26 66.5t-74 24.5q-29 0 -58 -12t-55 -32t-45.5 -48t-28.5 -59q-6 -20 -6 -37q0 -18 5 -35.5t16.5 -31t29 -21.5t41.5 -8q22 0 52 12t58.5 33t51.5 48.5t32 58.5zM550 144v2q-4 -13 -11.5 -24.5t-17 -20.5t-19.5 -14t-19 -5q-6 0 -6 5q0 3 1 5l3 13 l-1 -1q7 26 25 41t35 15q12 0 12 -2t-1 -2v-1zM347 553q-3 -11 -11 -21t-18 -18t-20 -13t-17 -5q-2 0 -2 2v5q0 4 2 9h-1q5 19 23 34t34 15q10 0 10 -6v-2z" />
<glyph unicode="&#x26;" horiz-adv-x="596" d="M622 265q12 11 17 20t5 20q0 23 -23.5 33t-50.5 10q-26 0 -40 -19.5t-22 -37.5q-2 -2 -2.5 -4t-1.5 -3q-1 -2 -2.5 -4.5t-3.5 -5.5v1q-2 -3 -4 -5.5t-5 -5.5q-13 35 -25.5 69.5t-22.5 61.5q22 12 45.5 29.5t44 38t36 43t22.5 46.5q3 15 3 24q0 23 -11 41t-30 30t-43 18 t-51 6q-64 0 -108.5 -24.5t-61.5 -86.5q-6 -20 -6 -37q0 -20 4.5 -40.5t10.5 -39.5q-80 -41 -135 -101.5t-81 -155.5q-8 -26 -11.5 -50.5t-3.5 -45.5q0 -26 5.5 -47t19 -37t35.5 -24.5t54 -8.5q27 0 57.5 7.5t63.5 21t66 33t65 42.5l15 -36v1q10 -27 25 -39t32 -12 q13 0 26.5 7t25.5 18t21.5 24t14.5 25l-59 97q12 12 25 26t25 27.5t22.5 26.5t17.5 23zM203 86q-11 0 -15 12.5t-4 29.5q0 27 6 50q17 60 53 98.5t88 67.5q4 -10 8 -21t9 -23q10 -29 21.5 -60.5t23.5 -63.5q-24 -18 -50 -34.5t-51 -28.5t-48 -19.5t-41 -7.5zM474 558 q-5 -21 -25 -37t-44 -27q-4 11 -6.5 22t-2.5 22q0 9 1 13q3 12 13.5 16t26.5 4q10 0 24 -2t14 -9v-1z" />
<glyph unicode="'" horiz-adv-x="140" d="M215 454l31 120v1t1 3q0 6 1 18l1 12q0 19 -8.5 33.5t-34.5 14.5q-17 0 -28.5 -7.5t-19 -19.5t-11.5 -28t-6 -33v1l-21 -108l9 8q-5 -5 -10.5 -19t-5.5 -30q0 -17 6.5 -31t25.5 -17h7q20 0 39.5 24t24.5 59z" />
<glyph unicode="(" horiz-adv-x="358" d="M525 755q3 10 3 25q0 24 -12.5 35.5t-32.5 11.5q-29 0 -62 -24v1q-102 -69 -167 -174.5t-107 -259.5q-34 -123 -34 -219q0 -156 90 -240q18 -17 40 -17q20 0 33.5 18.5t21.5 44.5v-1q2 5 2 8v6q0 22 -15 39.5t-26 28.5h1l-2 2q-9 19 -15.5 55t-6.5 86q0 39 6 84.5 t20 96.5q34 125 84 212.5t113 126.5q7 7 14 10.5t13 7.5q14 7 24 14.5t14 18.5z" />
<glyph unicode=")" horiz-adv-x="358" d="M430 359q12 58 19 111.5t7 103.5q0 72 -19 131t-66 101q-18 15 -36 15q-23 0 -41.5 -19.5t-26.5 -49.5l1 1q-2 -5 -2 -8v-4q0 -13 7 -23.5t17 -21.5q8 -9 15 -19.5t10 -24.5q2 -6 2 -13q5 -20 10 -52.5t5 -75.5q0 -32 -3.5 -68t-14.5 -77q-15 -53 -26.5 -89.5 t-29.5 -70.5t-46 -74t-74 -100q-3 -2 -6.5 -5t-6.5 -5v1q-9 -6 -20 -13t-21 -16.5t-18.5 -22t-12.5 -27.5v-9q0 -26 18.5 -37t38.5 -11q12 0 23 3t18 10h-1q59 55 102.5 104.5t76 102.5t56.5 114t44 138h1z" />
<glyph unicode="*" horiz-adv-x="501" d="M620 559q2 6 2 12v12q0 25 -13.5 33.5t-45.5 9.5q2 0 -3 1t-8 2q-6 1 -11 2.5t-17 1.5q-2 0 -5 -0.5t-5 -0.5q-14 -2 -23 -2.5t-15 -0.5q-21 0 -25 5v13q0 8 1 19t3 25v-1q2 16 3 28t1 23v12q0 6 -1 9v-1q-6 43 -58 43q-15 -2 -28.5 -9t-24 -18t-17 -24.5t-7.5 -27.5 q-3 -14 -3 -31l-17 24q-28 28 -61 28q-21 0 -38 -15t-22 -36q0 -2 -0.5 -5t-0.5 -5q0 -11 5.5 -25.5t15.5 -31.5l23 -42q-10 -2 -17 -2h-2q-9 0 -14.5 -0.5t-10.5 -2.5l3 2q-20 -5 -38 -19.5t-21 -32.5q0 -4 -0.5 -8t-0.5 -9q0 -29 21 -53q31 -28 67 -28q5 0 10 0.5t10 0.5 q5 1 9.5 1.5t6.5 0.5q12 0 12 -1t0.5 -2.5t0.5 -4.5t-0.5 -8t-1.5 -10t-2 -9t-3 -10t-3 -12.5t-2 -10.5q-2 -10 -2 -20q0 -46 39 -71h-1q10 -5 31 -5q38 0 58 54q6 20 12.5 35t11.5 23q6 -2 13 -5.5t18 -9.5q37 -20 45 -20q21 0 39 17.5t23 37.5v7q0 24 -28 49q-5 5 -10 9 t-7 8q6 2 12 2.5t13 2.5q9 2 18.5 4t20.5 4q54 17 65 70v-1zM452 632l-0.5 0.5t-0.5 1.5z" />
<glyph unicode="+" horiz-adv-x="513" d="M484 278h-88l21 74q4 6 6.5 12t4.5 14v3t1 4q1 5 1 6q0 2 0 1q2 9 3.5 14.5t1.5 9.5q0 24 -14 35.5t-33 11.5q-21 0 -41.5 -15t-28.5 -43q-2 -6 -8 -18q-4 -8 -6 -13.5t-2 -12.5v-2l-22 -81h-83q-8 2 -12 2q-10 0 -14.5 -1t-9.5 -2t-9 -1q-39 0 -61 -22t-22 -46 q0 -18 13 -31.5t41 -13.5q2 0 10 -2q5 -1 10.5 -1.5t12.5 -0.5q5 0 10.5 0.5t10.5 2.5h70l-22 -79q-7 -8 -9.5 -18.5t-4.5 -20.5q-1 -2 -0.5 -4.5t-0.5 -4.5q-3 -8 -4 -15t-1 -12q0 -24 13.5 -34t31.5 -10q21 0 43 15.5t30 41.5q1 5 3.5 14.5t4.5 17.5q3 13 6.5 24t4.5 14 l-1 -1l21 72h91q7 -3 17 -3q5 0 13.5 1.5t14.5 2.5h2q18 0 33.5 7.5t27 18.5t18 24t6.5 25q0 17 -11.5 29t-38.5 12z" />
<glyph unicode="," horiz-adv-x="187" d="M190 32q7 24 7 41q0 26 -14.5 41t-47.5 15q-26 0 -44 -8t-29.5 -20t-17 -27t-5.5 -30q0 -16 7 -32q7 -11 7 -20q0 -13 -13 -20t-25 -12q-8 -3 -14.5 -6.5t-10.5 -11.5q-3 -11 -3 -18q0 -20 11.5 -27t28.5 -7q27 0 53.5 13.5t49 34.5t38.5 46t22 48z" />
<glyph unicode="-" horiz-adv-x="356" d="M378 181q29 0 48 17t19 35q0 17 -15 29.5t-49 12.5q-3 0 -6.5 0.5t-8.5 0.5q-4 0 -8.5 0.5t-8.5 0.5q-12 0 -21 -3h-124q-4 1 -13 1q-5 0 -12.5 -0.5t-13.5 -0.5q-4 -1 -7 -1h-4q-33 0 -50.5 -17t-17.5 -36q0 -17 13 -29.5t41 -12.5h4t6 -1q5 -1 9.5 -1.5t12.5 -0.5 q5 0 10.5 1t10.5 3l121 1z" />
<glyph unicode="." horiz-adv-x="167" d="M179 63q2 8 4 17t2 17q0 19 -9.5 33t-38.5 14q-19 0 -36.5 -7.5t-31.5 -18.5t-24 -24.5t-13 -26.5v2q-2 -5 -2.5 -9.5t-0.5 -9.5q0 -25 16.5 -45t42.5 -20q19 0 34.5 8t27 19.5t19 25t10.5 25.5z" />
<glyph unicode="/" horiz-adv-x="379" d="M525 627q0 17 -8.5 27t-31.5 10q-20 0 -34.5 -4.5t-24 -12t-16 -16.5t-11.5 -17q-16 -27 -39.5 -67t-51.5 -87.5t-58.5 -98.5t-59.5 -99t-55.5 -91t-45.5 -73q-18 -30 -28.5 -52t-10.5 -38q0 -39 51 -39q13 0 24.5 6.5t21 16.5t18 21.5t14.5 21.5l-1 -1q3 4 8 11t4 6 q14 23 36.5 58.5t49.5 77.5q30 47 63.5 99t64 101.5t56 94t39.5 76.5q11 21 18.5 39.5t7.5 29.5z" />
<glyph unicode="0" horiz-adv-x="474" d="M93 305q-9 -45 -9 -91t10 -85t29.5 -67.5t48 -45t66.5 -16.5q48 0 92 27t79.5 73.5t61.5 108t39 130.5l-1 -1l4 14q5 28 8.5 60t3.5 66q0 36 -5.5 69.5t-19.5 58.5t-37.5 40t-58.5 15q-22 0 -40.5 -2t-36.5 -7.5t-36 -16t-37 -27.5q-59 -50 -101.5 -130.5t-59.5 -172.5z M203 219q0 32 9 79q12 63 35 116.5t51 84.5q7 8 17.5 16t21.5 14.5t21.5 10.5t16.5 4q23 0 33.5 -23t10.5 -64q0 -43 -12 -100q-8 -42 -20 -82t-30 -72t-43 -52.5t-58 -23.5q-53 0 -53 92z" />
<glyph unicode="1" horiz-adv-x="222" d="M140 412q-13 -43 -25.5 -89.5t-21.5 -94.5q-5 -25 -8.5 -54.5t-8.5 -61.5q-3 -17 -5.5 -34.5t-4.5 -34.5q0 -12 7 -21t18 -13h2q12 -9 29 -9q26 0 35 11.5t11 31.5l16 80q18 93 35.5 172t38.5 130q9 20 16.5 45.5t18.5 69.5q1 5 3 13t4.5 16t4.5 13.5t2 6.5v3 q0 15 -8.5 25t-18.5 16t-19 8t-10 2q-17 0 -38 -9.5t-40.5 -21.5t-33 -23.5t-14.5 -15.5v-9q0 -35 42 -48q-5 -26 -12 -51.5t-15 -52.5z" />
<glyph unicode="2" horiz-adv-x="482" d="M321 222q22 22 44 43.5t41 38.5q38 33 66.5 66t47.5 62.5t29.5 52.5t13.5 37l-1 -2l2 6q1 5 1.5 10.5t0.5 11.5q0 41 -26.5 65t-76.5 24q-59 0 -126 -30q-27 -12 -61 -31.5t-65 -41.5t-53.5 -44.5t-25.5 -41.5q0 -2 -0.5 -5t-0.5 -5q0 -11 5 -20.5t12 -16.5t15 -11.5 t14 -4.5q21 4 44.5 18t58.5 42q18 15 38.5 28t40.5 23.5t37.5 16.5t29.5 6q13 0 13 -10v-2q-2 -10 -23.5 -36t-53.5 -60.5t-71 -74t-77 -76.5t-71 -68t-53 -48q-25 -22 -41 -37t-25 -25.5t-13 -17t-5 -10.5q-2 -4 -2 -8v-6q0 -17 9.5 -28t29.5 -11q7 0 16.5 2t23.5 5 q16 3 38.5 7.5t47.5 8.5t52 6.5t53 2.5q40 0 66.5 -1t43 -2t24.5 -2t13 -2q4 -1 10 -1h5q23 0 36 15.5t18 37.5v-1q1 3 1 7v9q0 35 -35.5 49t-112.5 14q-22 0 -46.5 -1.5t-50.5 -5.5q18 17 36.5 35t38.5 38z" />
<glyph unicode="3" horiz-adv-x="500" d="M601 499v-1q2 6 2 13v13q0 25 -10.5 46t-28 35.5t-41 22.5t-49.5 8q-23 0 -56 -8.5t-70 -22t-74 -32t-67 -38.5t-50.5 -41t-23.5 -39q0 -2 -0.5 -5t-0.5 -5q0 -23 17.5 -40t37.5 -17q21 0 38 18h-1q28 26 59 47t61 36t56.5 23t44.5 8q11 0 18.5 -3t7.5 -11q0 -5 -1 -8 q-4 -21 -32.5 -44.5t-67.5 -44.5t-82.5 -37t-76.5 -21q-24 -2 -32.5 -11.5t-13.5 -32.5q-1 -4 -1.5 -8t-0.5 -10q0 -23 10.5 -40.5t27.5 -17.5l4.5 1.5t11.5 3.5q2 1 5 1t5 1q49 15 91 15q32 0 52 -8.5t20 -28.5q0 -2 -2 -12q-3 -18 -15.5 -34.5t-33 -30t-47.5 -21.5t-59 -8 q-36 0 -59 7t-27 22q-3 14 -10.5 22t-16.5 12.5t-17 5.5t-12 1q-22 0 -43 -10t-26 -37v1q-1 -3 -1 -8v-9q0 -24 15.5 -45.5t43 -37t65 -25t81.5 -9.5q49 0 95.5 12.5t85 37t65.5 61t36 84.5q2 9 3 19t1 19q0 78 -69 107q74 39 111.5 75t46.5 84z" />
<glyph unicode="4" horiz-adv-x="567" d="M292 114q-3 -13 -4 -24.5t-1 -22.5q0 -65 58 -65q15 0 28.5 5t23.5 12.5t16 16t7 15.5q-2 10 -2 18v15q0 10 1 19.5t4 21.5q4 18 8.5 37t10.5 39l3 8q2 1 6 1q8 1 19 2t17 1l74 -6h3q11 0 20.5 6.5t17 15.5t12 19.5t6.5 18.5l-1 -2q2 5 2 7v5q0 17 -9 27t-24 15t-34 6 t-40 1h-31q7 21 18.5 49t26.5 59t32 65t35 67v-1q11 22 11 29q-3 6 -9 16t-13.5 19t-17.5 16t-20 7q-22 -9 -66 -38t-97.5 -69.5t-110.5 -87t-105 -90t-80 -79.5t-36 -55l1 2q-2 -5 -2 -8v-5q0 -10 3.5 -20.5t9 -19t13 -14t15.5 -5.5h2q1 0 1.5 0.5t1.5 0.5q25 7 56.5 15 t62.5 14t57.5 10t41.5 4v3l2 -3q-9 -31 -15.5 -54t-8.5 -39zM260 313q28 26 49.5 45t38.5 33.5t30 25.5t25 20q-10 -25 -21 -51.5t-22 -57.5l-3 -7q-32 -2 -56 -4t-41 -4z" />
<glyph unicode="5" horiz-adv-x="493" d="M293 491q4 9 37.5 14.5t77 8.5t85.5 4t63 1q23 0 33 14t14 31q1 6 1.5 11t0.5 13q0 16 -4 25.5t-11 14.5t-16 7t-19 2h-21q-10 -1 -45 -4t-81 -9t-96.5 -15.5t-90.5 -22.5q-10 -4 -23 -24.5t-27 -49.5t-28 -62.5t-25.5 -62.5t-18.5 -49.5t-8 -24.5q0 -2 -0.5 -4.5 t-0.5 -4.5q0 -10 4 -20.5t11 -19.5t17.5 -14.5t23.5 -5.5q5 0 11 1t14 5q73 29 126 29q43 0 72 -20.5t29 -49.5q0 -6 -1 -10q-8 -35 -43.5 -53.5t-89.5 -23.5h-9q-19 0 -35.5 6t-31 15.5t-25.5 20t-20 19.5q-11 11 -19.5 18t-18.5 7q-12 0 -26 -6.5t-29 -20.5v-1 q-23 -23 -26 -39v1q-1 -4 -1 -8v-5q0 -25 18.5 -48t48.5 -40.5t67.5 -28t75.5 -10.5q58 0 107.5 15.5t87 42.5t62 62t32.5 74q3 15 3 33q0 33 -12.5 64t-38.5 54.5t-65.5 37.5t-92.5 14q-31 0 -62 -6z" />
<glyph unicode="6" horiz-adv-x="522" d="M450 560q13 11 20.5 18t9.5 13q0 2 0.5 5t0.5 5q0 22 -17 37.5t-40 15.5q-30 0 -73 -32t-101 -104v1q-49 -61 -79.5 -104.5t-48.5 -77.5t-26.5 -60.5t-13.5 -52.5q-2 -13 -3.5 -25t-1.5 -24q0 -55 22.5 -89t52 -53t58.5 -25.5t43 -6.5q51 0 101 21.5t92 57.5t71.5 82.5 t38.5 96.5q2 10 3 20t1 21q0 36 -12 66t-34 52.5t-53.5 35t-71.5 12.5q-15 0 -43 -5q29 35 57 59.5t47 39.5zM427 255q-17 -44 -36.5 -70.5t-40 -41t-40.5 -19.5t-37 -5q-31 0 -50.5 19t-19.5 54q0 7 1 14t3 16q6 33 20.5 58.5t33.5 42.5t42 26t46 9q26 0 40.5 -4.5 t21.5 -11t9 -13.5t3 -13q0 -3 0.5 -9.5t0.5 -7.5h3q1 -5 1.5 -10t0.5 -10t-0.5 -11t-1.5 -14v1z" />
<glyph unicode="7" horiz-adv-x="452" d="M371 508q-50 -78 -91.5 -146.5t-72 -125t-49 -98.5t-23.5 -67l-1 -5q-1 -4 -1.5 -7t-0.5 -9q0 -23 13 -36.5t42 -13.5q19 0 33 5t24 12.5t15.5 15.5t6.5 13l1 7q-1 5 -1.5 8.5t-0.5 8.5q0 1 2 11v1q0 2 1 3v-1q5 24 34 87t96 169q44 67 85.5 117.5t62.5 76.5q9 11 14 19 t6 9v-2q1 5 1 16q0 20 -7 31.5t-17.5 17t-22.5 7t-22 1.5l-6 -24l-14.5 2t-36 3.5t-46.5 3t-46 1.5q-33 0 -55 0.5t-36 1t-22.5 1t-12.5 0.5h-13q-47 -5 -68.5 -22.5t-24.5 -32.5q0 -2 -0.5 -4.5t-0.5 -3.5q0 -20 16.5 -31.5t37.5 -17t41 -7t27 -1.5h9q36 0 62.5 1t61.5 6 v-1z" />
<glyph unicode="8" horiz-adv-x="488" d="M525 455h-1q15 24 24.5 42t11.5 35q1 3 1 7v9q0 15 -6.5 30.5t-19 28t-32 20.5t-46.5 8q-29 0 -63.5 -6t-67.5 -14.5t-61 -19t-46 -19.5q-81 -41 -94 -114v1q-2 -6 -2 -13v-14q0 -32 14 -65.5t44 -68.5q-63 -52 -93.5 -91.5t-38.5 -78.5q-1 -5 -1.5 -10.5t-0.5 -10.5 q0 -51 45.5 -81t123.5 -30q34 0 70 6t66 19t51 33.5t27 49.5v6q1 3 1.5 7t0.5 10q0 15 -5.5 31t-16 35t-26.5 42t-38 53l-3 4q16 11 43.5 33t56 46t51.5 46t31 34zM243 455q2 11 18.5 24t42 24t57 18.5t63.5 8.5h3q19 0 19 -11q0 -1 -0.5 -1.5t-0.5 -1.5v1q-2 -12 -17 -28 t-33 -31t-34.5 -26.5t-22.5 -15.5q-34 -23 -44.5 -30t-13.5 -8q-21 21 -28.5 44.5t-8.5 32.5zM300 135v-3q-3 -13 -16 -19q-23 -12 -49 -12q-67 0 -67 25q0 4 1 7q4 17 22.5 40t53.5 49q55 -62 55 -87z" />
<glyph unicode="9" horiz-adv-x="499" d="M333 32q9 -32 55 -32q21 0 43 9.5t27 33.5q1 23 3.5 41.5t7.5 42.5q10 51 24 102.5t30.5 100t34.5 92.5t36 80q10 18 15.5 29t9 17.5t4.5 9.5l2 6v7q0 16 -12 34.5t-25 25.5q-9 2 -33 7t-50 5q-49 0 -89 -8.5t-71 -20t-51.5 -23.5t-30.5 -19l-3 -1.5t-7 -2.5 q-52 -34 -84.5 -69t-51 -66.5t-26 -56.5t-10.5 -39t-3 -29q0 -55 36 -88.5t91 -33.5q42 0 88.5 17t89.5 40zM241 295q-17 0 -27 9t-10 23q0 4 1 7q6 33 28.5 66t52.5 60t63.5 44t61.5 17q17 0 29 -8t12 -25v-5q-5 -26 -25 -59t-49 -61.5t-65 -48t-72 -19.5z" />
<glyph unicode=":" horiz-adv-x="174" d="M255 332q4 15 4 34q0 25 -11.5 39t-37.5 14q-20 0 -36.5 -8.5t-29.5 -21.5t-21.5 -29t-12.5 -32q-3 -11 -3 -26q0 -25 13 -42.5t39 -17.5q37 0 60.5 27t34.5 62zM187 73q6 18 6 33q0 24 -12.5 39t-38.5 15q-19 0 -35.5 -8.5t-29 -21.5t-21 -29.5t-12.5 -31.5 q-3 -11 -3 -26q0 -25 12.5 -42.5t38.5 -17.5q38 0 61 27t34 62v1z" />
<glyph unicode=";" horiz-adv-x="179" d="M189 34q5 14 6.5 24.5t1.5 19.5q0 28 -15 43.5t-50 15.5q-21 0 -37.5 -9t-29 -22.5t-20.5 -28t-11 -26.5v1q-2 -5 -3 -10.5t-1 -10.5q0 -18 9 -29.5t23 -14.5q-7 -4 -14 -6t-13 -4q-17 -5 -32 -12.5t-20 -27.5q-2 -5 -3 -10.5t-1 -8.5q0 -22 12.5 -29t29.5 -7 q27 0 54.5 14.5t50.5 37t40 49.5t23 51zM265 336q2 9 3 17.5t1 17.5q0 25 -12.5 39.5t-38.5 14.5q-20 0 -36.5 -8.5t-30 -22t-22.5 -30t-13 -31.5q-3 -12 -3 -27q0 -25 13 -43t40 -18q19 0 34.5 7.5t28 20t21 29t14.5 33.5z" />
<glyph unicode="&#x3c;" horiz-adv-x="493" d="M565 380q1 4 1.5 7t0.5 8q0 22 -15.5 35.5t-37.5 13.5q-15 0 -30 -7.5t-27 -21.5l-286 -130q-23 -10 -35 -24.5t-16 -29.5q0 -2 -0.5 -5t-0.5 -5q0 -12 6.5 -24.5t18.5 -21.5l207 -167q6 -11 16.5 -15.5t21.5 -4.5q23 0 47 17t31 42q4 12 4 21q0 21 -12 27.5t-26 8.5 l-150 117l224 103q18 1 33.5 14t23.5 41z" />
<glyph unicode="=" horiz-adv-x="555" d="M527 272q-16 0 -21 -1t-13 -7h-278q-8 5 -16 5.5t-16 0.5q-17 0 -31.5 -8t-24.5 -20t-15.5 -26.5t-5.5 -27.5q0 -20 10.5 -33.5t35.5 -13.5q17 0 40 10h275q9 -4 14.5 -4.5t10.5 -0.5h2q19 0 34.5 7.5t26.5 19.5t17.5 26t6.5 27q0 20 -12.5 33t-39.5 13zM623 383 q4 12 4 22q0 20 -11 34t-34 14h-13t-8.5 -1t-7 -3t-9.5 -5h-277q-10 6 -19 7t-13 1q-18 0 -32 -8t-24 -20t-15.5 -26.5t-5.5 -27.5q0 -19 11.5 -33t34.5 -14q22 0 37 9h276q8 -5 15.5 -5.5t15.5 -0.5q30 0 48.5 15.5t26.5 41.5z" />
<glyph unicode="&#x3e;" horiz-adv-x="494" d="M486 180q17 9 29.5 27t12.5 35q0 25 -24 41l-214 131q-5 11 -17 21.5t-26 10.5q-18 0 -33.5 -7.5t-27.5 -18.5t-18.5 -25t-6.5 -27q0 -15 9 -27t26 -17l163 -98l-224 -120q-7 0 -15.5 -2t-16.5 -7t-15.5 -14t-11.5 -25v1q-2 -6 -2.5 -10.5t-0.5 -9.5q0 -25 17 -39.5 t39 -14.5q14 0 26.5 6t21.5 17z" />
<glyph unicode="?" horiz-adv-x="500" d="M589 540q3 10 4 17.5t1 14.5q0 24 -10.5 44t-28 35t-41 23t-50.5 8q-31 0 -63 -9.5t-63 -24.5t-60 -33.5t-55 -36.5q-24 -17 -44.5 -39t-26.5 -44q-2 -6 -3 -11.5t-1 -13.5q0 -22 11.5 -33t30.5 -11q20 0 47 14t58 45q39 32 76 55.5t68 23.5q14 0 24.5 -3.5t10.5 -8.5v-4 q-5 -17 -38 -41.5t-78 -53.5q-31 -21 -63 -43t-60 -46t-48.5 -50t-29.5 -54q-1 -4 -2 -4l-1 -4q-1 -5 -2 -10.5t-2 -13.5q-2 -10 -2 -18q0 -25 15 -38.5t53 -13.5q17 0 27 14t23 38q9 16 21.5 37t32 43.5t48.5 45t70 43.5h-1q25 12 49.5 29t45.5 38t36 44.5t22 49.5h-1z M270 47q0 2 2 6q2 6 4.5 12t4.5 14l-4 -2v7q0 22 -11 35.5t-37 13.5q-38 0 -67.5 -17t-43.5 -67q-4 -12 -4 -23q0 -29 19.5 -41.5t44.5 -12.5q30 0 53 20t38 55h1z" />
<glyph unicode="@" horiz-adv-x="777" d="M875 401q7 25 11 50t4 47q0 38 -11.5 70.5t-37 56.5t-67 37.5t-101.5 13.5q-61 0 -123 -17.5t-121 -48t-112.5 -72.5t-97.5 -91t-76.5 -102.5t-47.5 -108.5q-8 -28 -12 -53t-4 -48q0 -35 10.5 -65t33.5 -51.5t61 -33.5t93 -12q25 0 48.5 4t42.5 9.5t32.5 10.5t19.5 8 q1 1 2 1t2 1q15 1 29 9t24 19t16 23.5t6 24.5q0 18 -12.5 31.5t-41.5 13.5q-20 0 -30 -8t-23 -22q0 1 -5 -7q-17 -9 -27 -13.5t-18.5 -6.5t-18.5 -2.5t-27 -0.5q-63 0 -86 25t-23 61q0 17 2.5 33.5t7.5 31.5q9 33 30.5 72.5t54 80t74.5 78.5t92 67.5t107.5 47.5t120.5 18 q31 0 52 -8t33.5 -22t17.5 -32t5 -39q0 -19 -3.5 -37t-8.5 -36q-13 -48 -32.5 -85.5t-39.5 -64.5t-39 -42.5t-32 -18.5q2 2 3 6.5t3 8.5l91 263q4 5 7 14.5t3 17.5q0 15 -9.5 28.5t-33.5 13.5h-2q-10 0 -24 -6.5t-24 -17.5q-6 1 -9 1h-11q-39 0 -79 -14t-78 -37.5t-72 -54 t-61.5 -64t-47.5 -67.5t-28 -63q-7 -20 -7 -39q0 -32 20.5 -51t70.5 -19q22 0 46.5 9t49.5 23.5t49 33t46 37.5q-9 -36 -9 -62q0 -67 64 -67q35 0 77 22t82.5 62.5t74.5 97.5t54 127zM609 432q-3 -10 -17 -29.5t-35 -43t-46.5 -48t-50.5 -44.5t-47.5 -32.5t-38.5 -12.5 q-8 0 -8 2q0 4 1 6q6 23 31.5 57.5t60 67t73.5 56t73 23.5h4v-2z" />
<glyph unicode="A" horiz-adv-x="568" d="M606 91q-3 34 -11 82.5t-18 102.5q-8 41 -15.5 84t-13.5 84t-10.5 78t-5.5 66v10q0 32 -13.5 52t-36.5 20q-18 0 -39 -15.5t-42 -51.5l1 1l-355 -501q-4 -5 -9.5 -13t-11 -18t-9 -21.5t-3.5 -21.5q0 -17 10.5 -29t39.5 -14h4q24 0 44.5 25t44.5 62l-1 -1l121 175l19.5 -2 t47.5 -5t58 -5.5t51 -3.5q2 -9 4 -16.5t4 -13.5l-1 1q4 -17 6.5 -28t4 -19.5t2.5 -16t3 -17.5q3 -17 8.5 -40t12.5 -44t14.5 -36t13.5 -15h7q41 0 57.5 27.5t16.5 65.5v12zM439 342l-103 -7l90 134q2 -31 5 -66t8 -61z" />
<glyph unicode="B" horiz-adv-x="584" d="M656 284q7 21 7 39q0 40 -25.5 69t-76.5 38q48 29 72 61t34 67q4 9 4 22q0 35 -33 58.5t-101 23.5q-66 0 -127.5 -12.5t-115.5 -25.5h1l-24 -6q-10 -2 -21.5 -7.5t-21 -15t-16 -22.5t-6.5 -31v-2l-115 -425v1q-8 -26 -16 -53t-8 -46q0 -17 7 -27.5t25 -10.5 q43 0 97.5 9.5t112 27.5t114 44t104 60t82 75t47.5 89zM540 295q-11 -39 -48.5 -71.5t-87 -57.5t-103 -42.5t-97.5 -24.5l58 207q51 11 93.5 17.5t79.5 6.5q17 0 35.5 -0.5t34.5 -3.5t26 -8.5t10 -14.5l-2 -8h1zM541 548q-6 -23 -31 -44t-61 -38.5t-77.5 -29.5t-78.5 -18 l24 86q43 23 93 34.5t104 11.5h19t9 -1z" />
<glyph unicode="C" horiz-adv-x="547" d="M561 135q21 24 21 43q0 18 -12.5 27.5t-32.5 9.5q-21 0 -47.5 -11.5t-47.5 -36.5q-9 -13 -28 -27.5t-41.5 -27t-46 -20.5t-43.5 -8q-41 0 -57 25t-16 61q0 39 12 81q16 57 45 113t67 100t81.5 71t87.5 27q26 0 38.5 -3t17.5 -8q6 -8 11.5 -14.5t10.5 -11.5q24 -32 37 -32 q16 0 30.5 6.5t25.5 17.5t17.5 25t6.5 29q0 11 -4.5 21.5t-12.5 20.5q-32 37 -73.5 50t-90.5 13q-64 0 -128.5 -35t-120.5 -93t-100 -133.5t-66 -155.5q-8 -28 -12 -54.5t-4 -50.5q0 -40 10 -73.5t30 -58t50 -38t70 -13.5q45 0 91.5 15t88.5 38.5t77.5 53t58.5 58.5z" />
<glyph unicode="D" horiz-adv-x="578" d="M691 426q12 42 12 76q0 35 -10.5 66t-33 54.5t-56.5 37t-81 13.5q-68 0 -114.5 -12t-87.5 -25q-9 -3 -17.5 -5t-17.5 -5h1q-39 -14 -60 -44.5t-21 -61.5l-112 -399q-2 -5 -3.5 -11t-3.5 -11q-5 -17 -8.5 -34t-3.5 -33q0 -21 9 -33.5t34 -12.5q27 0 73.5 10t103 32 t117 56.5t115.5 83t98.5 113t66.5 145.5zM571 434q-20 -71 -62 -125t-93.5 -92.5t-106 -63t-99.5 -36.5l112 400q32 16 75 30t92 14q48 0 68 -24.5t20 -58.5q0 -10 -2 -21.5t-5 -23.5z" />
<glyph unicode="E" horiz-adv-x="506" d="M541 62q2 7 2.5 11.5t0.5 9.5q0 24 -15.5 33t-45.5 9h-15l-262 -22l44 164l211 23q5 1 10.5 1.5t10.5 0.5q23 0 44 9t31 42v1q5 12 5 18q0 17 -13.5 30t-52.5 13h-25l-188 -24l37 132l231 15q5 0 10 0.5t10 0.5q22 1 37.5 2t26.5 6.5t19 16t14 30.5v-1q2 7 2.5 11.5 t0.5 7.5q0 26 -17.5 34.5t-43.5 8.5q-9 0 -18 -0.5t-18 -1.5h1q-3 0 -7 -0.5t-8 -0.5q-86 -6 -134 -8.5t-76 -2.5h-65q-20 0 -35 -8t-25 -19t-15.5 -24t-6.5 -23q-2 -9 -4.5 -20t-6.5 -25q-9 -39 -22.5 -96.5t-33.5 -132.5l-44 -163q-2 -5 -3 -9.5t-3 -9.5v1 q-7 -19 -11.5 -35.5t-4.5 -30.5q0 -22 14 -35t49 -13h9q5 0 9 1h-1l302 22q25 0 41.5 5t26.5 12.5t15 17t7 18.5z" />
<glyph unicode="F" horiz-adv-x="462" d="M654 602v7q0 30 -15.5 41t-49.5 11q-5 0 -9.5 -0.5t-9.5 -0.5q-68 -6 -111 -10t-69.5 -7t-40.5 -4.5t-22 -2.5q-4 -1 -8 -1q-3 0 -8 -1h1q-30 -3 -50 -8t-32 -13.5t-17 -22t-5 -33.5v-16q-11 -39 -18 -66.5t-13 -48t-10.5 -36.5t-8.5 -31v1q-5 -14 -8.5 -29t-9.5 -35 l-67 -217q-11 -38 -11 -54q0 -21 9.5 -29.5t29.5 -8.5h7q4 0 9 1q19 2 31.5 7t20.5 14.5t14.5 24.5t13.5 37l58 195l215 33h-1q31 2 48.5 6t26.5 11.5t12.5 18l8.5 25.5v-1q4 8 4 19q0 25 -19.5 33t-45.5 8q-18 0 -34.5 -1.5t-28.5 -3.5q-3 -1 -8 -1l-146 -22l36 131l241 17 q44 4 62.5 17t26.5 42z" />
<glyph unicode="G" horiz-adv-x="691" d="M788 364q1 2 1.5 5.5t0.5 9.5q0 22 -16 32.5t-42 10.5q-18 0 -36 -7h1q-11 -3 -16 -4.5t-22 -6.5q-19 -6 -44 -13.5t-50 -14.5t-46 -12.5t-33 -7.5h2q-24 -2 -41.5 -11.5t-29.5 -22.5t-18 -27t-6 -26q0 -16 7.5 -26.5t25.5 -10.5h6t8 2l-2 -1q32 8 62 16.5t60 17.5 q18 5 35.5 10t36.5 10q-24 -35 -57 -71.5t-74 -65.5t-90.5 -47.5t-104.5 -18.5q-50 0 -72.5 30t-22.5 73q0 14 2.5 28.5t7.5 31.5h-1q15 57 57 113t97 101t116.5 73t115.5 28h12q23 -1 36.5 -4t20 -7.5t9 -10t3.5 -10.5l-1 1q3 -14 11 -24t37 -10q5 0 10.5 0.5t11.5 1.5 q24 3 37 21t13 44v15q-9 41 -50 69t-113 28q-47 0 -100.5 -13.5t-107.5 -39t-106.5 -62t-97.5 -83.5t-79 -103t-51 -120q-17 -56 -17 -102q0 -38 10.5 -71t34 -58t61.5 -39t92 -14q88 0 171 34.5t150.5 90.5t115.5 126t68 142h1z" />
<glyph unicode="H" horiz-adv-x="589" d="M186 58l62 223l271 9l-52 -191v2q-3 -9 -4 -17t-1 -16q0 -25 13 -40.5t40 -15.5h5q18 1 30.5 8.5t21 18.5t13 24.5t7.5 25.5q2 8 3 14.5t3 12.5h-1l136 490q4 13 7 25t3 21q0 17 -10 28t-36 11q-24 0 -38.5 -5.5t-23.5 -15.5t-14.5 -22.5t-10.5 -25.5l-57 -217l-275 -11 l49 173v-1q2 8 4.5 19t2.5 22q0 18 -8 31.5t-32 16.5h-9q-15 0 -27.5 -6t-22 -15.5t-15.5 -21.5t-9 -23l-7.5 -27.5t-9.5 -37.5q-8 -28 -17.5 -61t-19.5 -67t-19 -68t-17 -63l-52 -191q-3 -11 -5 -21t-2 -20q0 -20 11 -31t37 -16q2 0 5 -0.5t5 -0.5q20 0 39 18t28 56z" />
<glyph unicode="I" horiz-adv-x="199" d="M183 64l131 491l2 6l2 6h-1l8 26t4 23q0 17 -8.5 27.5t-30.5 10.5q-24 0 -38.5 -5t-23.5 -15.5t-14 -25.5t-9 -36l1 1l-133 -499v2q-5 -11 -7 -22t-2 -21q0 -19 10 -32t34 -15q2 0 5 -0.5t5 -0.5q29 0 41.5 20.5t22.5 52.5q0 2 0.5 3.5t-0.5 -0.5z" />
<glyph unicode="J" horiz-adv-x="497" d="M510 175l108 384v-1q1 2 1 4t1 4q4 14 7 27t3 23q0 18 -9.5 28.5t-35.5 10.5q-23 0 -37.5 -9t-23.5 -22.5t-14.5 -29t-8.5 -27.5l-109 -385q-5 -20 -21 -42.5t-39 -42t-53 -32t-63 -12.5q-18 0 -28 1.5t-15 5.5t-7.5 10.5t-3.5 15.5q1 8 2.5 12.5t3.5 9.5q2 14 5.5 26.5 t3.5 22.5q0 19 -9.5 32t-38.5 13h-14q-8 0 -18 -3.5t-20.5 -12t-19.5 -23t-15 -37.5h1q-8 -26 -8 -45q0 -25 9.5 -48t30 -41t53.5 -28.5t81 -10.5q54 0 103 18t89 48.5t68 71t41 84.5z" />
<glyph unicode="K" horiz-adv-x="524" d="M528 83l-182 276l238 170q32 17 45.5 35t13.5 35q0 19 -14.5 31.5t-35.5 12.5q-13 0 -26.5 -5.5t-27.5 -18.5l1 1l-240 -174l40 132q2 10 3.5 18.5t1.5 18.5q0 20 -10 31.5t-41 11.5q-26 -1 -46 -24t-29 -55l-143 -506q-3 -14 -5 -24.5t-2 -20.5q0 -26 11.5 -35t34.5 -9 q12 0 24.5 3.5t23.5 13t19.5 26t12.5 42.5l-1 -2l60 213l169 -260q13 -21 23.5 -30.5t24.5 -9.5q2 0 5 0.5t7 2.5q32 9 46.5 23t14.5 33q0 11 -4 21.5t-11 21.5z" />
<glyph unicode="L" horiz-adv-x="412" d="M454 86q0 39 -52 39h-16q-7 0 -16 -2l-171 -23l129 472q4 14 6 25t2 20q0 22 -10 31t-33 9q-21 0 -34.5 -5.5t-22 -16t-14 -25t-9.5 -32.5h1l-139 -505q-5 -11 -8 -28q-1 -5 -1.5 -10t-0.5 -12q0 -20 8.5 -34.5t29.5 -14.5q2 0 4 0.5t4 0.5l264 36q37 6 57.5 23.5 t20.5 35.5q0 1 -0.5 1.5t-0.5 1.5q1 3 1.5 5t0.5 8z" />
<glyph unicode="M" horiz-adv-x="748" d="M731 65l146 517q1 6 1.5 11t0.5 12q0 27 -12.5 37t-38.5 14h-4q-8 0 -19.5 -7t-25 -19t-28.5 -27.5t-28 -31.5q-84 -102 -137.5 -165.5t-85.5 -100.5q-10 -11 -18.5 -20.5t-14.5 -17.5q-11 -12 -18 -23t-13 -19q0 -1 -1 -1v0q0 2 -0.5 3.5t-0.5 3.5q-6 34 -14 72.5 t-16 72.5q-7 29 -11 49.5t-4 24.5q-5 27 -13 51.5t-16 44t-15.5 32.5t-11.5 17l23 -2q-5 33 -21 49.5t-37 16.5q-19 0 -36.5 -16t-27.5 -48l-159 -533q-1 -5 -1.5 -10t-0.5 -12q0 -28 13 -40t34 -14h5q14 0 26 8.5t22 21t16.5 26.5t8.5 24l-1 -1l81 287q3 -15 6.5 -29.5 t7.5 -28.5q8 -29 15 -58.5t13 -58.5q3 -16 5 -25t3.5 -15t3 -11.5t4.5 -12.5l-1 1q1 -3 2 -6.5t3 -8.5l-1 2q2 -14 19 -27t42 -13q16 0 33.5 7.5t34.5 27.5q9 9 14 15t9 11.5t7 10t6 9.5q8 12 29 40q9 12 27 32t40.5 45.5t48 54t51.5 57.5l-89 -305v2q-5 -10 -6.5 -20 t-1.5 -18q0 -18 10 -30t35 -14h6q37 0 55.5 25t22.5 56z" />
<glyph unicode="N" horiz-adv-x="626" d="M604 57l147 523q3 14 5 25t2 19q0 22 -11 31.5t-40 9.5q-20 0 -33 -7t-20.5 -17.5t-11.5 -23t-7 -23.5l-108 -385q-6 11 -12 21.5t-7 14.5q-12 21 -22 41t-19.5 41t-19.5 43.5t-21 49.5q-10 22 -20.5 47t-23.5 54q-3 5 -5 8.5l-2 3.5q-3 5 -6 13.5t-10 35.5 q-3 10 -8.5 22.5t-13.5 23.5t-18.5 18.5t-23.5 7.5q-14 0 -25 -3t-20 -11.5t-17 -24t-16 -40.5l-143 -505v1q-9 -24 -9 -40q0 -46 53 -46h8q31 3 48.5 25.5t17.5 47.5v3l97 346q4 -12 12 -24q22 -41 42 -82t32 -73q7 -19 19.5 -46.5t26.5 -56.5t27.5 -56l22.5 -45l3 -6l-1 1 q2 -5 5.5 -10.5t10 -10t18 -7.5t29.5 -3q15 0 26 7t19 17.5t14 22.5t9 22z" />
<glyph unicode="O" d="M701 356q10 37 16 72.5t6 67.5q0 38 -9 71t-29.5 57t-53.5 38t-82 14t-98.5 -19.5t-95.5 -52.5t-87.5 -75t-74.5 -87.5t-56 -90t-33 -81.5q-18 -69 -18 -118q0 -87 44.5 -134.5t132.5 -47.5q67 0 135.5 30.5t128 83t105.5 122.5t69 150zM585 364q-16 -57 -47 -108 t-71.5 -89.5t-87 -61t-92.5 -22.5q-42 0 -61.5 24t-19.5 66q0 20 4 42t11 47q12 41 43.5 93t74 98.5t91 78t95.5 31.5q44 0 61.5 -26.5t17.5 -65.5q0 -26 -5.5 -53.5t-13.5 -53.5z" />
<glyph unicode="P" horiz-adv-x="527" d="M678 523q6 22 6 44q0 26 -9.5 43t-25.5 27.5t-37 14.5t-44 4q-102 0 -170 -9.5t-110 -17.5q-31 -6 -49.5 -28.5t-26.5 -49.5v1q-2 -6 -4.5 -14t-4.5 -15q-9 -32 -18.5 -64.5t-14.5 -54.5l1 1l-92 -326v1q-4 -11 -7.5 -24.5t-3.5 -25.5q0 -19 9.5 -31t34.5 -12h3 q19 1 33.5 9t25 19.5t16 24.5t5.5 25v4l53 187q38 6 82 19t88.5 31.5t86.5 42t77 51t60 58.5t35 65h1zM560 530q-7 -23 -35.5 -46.5t-69 -44.5t-86.5 -38.5t-88 -27.5l38 150q21 5 46.5 8.5t53 6t55 4t51.5 1.5q12 0 23.5 -1t11.5 -6q0 -2 -1 -6h1z" />
<glyph unicode="Q" horiz-adv-x="630" d="M662 7q-10 17 -18.5 26.5t-16.5 18.5l-11 11v-1l-6 6t-6 7q-15 16 -35 45q57 57 100 126.5t66 150.5q16 51 16 98q0 39 -10.5 72.5t-31 58t-50.5 38t-70 13.5q-49 0 -101 -19t-102.5 -51.5t-97 -76t-85 -91.5t-66.5 -98.5t-41 -97.5q-9 -32 -13 -60t-4 -52 q0 -73 38 -116.5t127 -43.5q57 0 114 19t113 54q5 -5 10 -11.5t11 -12.5q11 -12 21 -24.5t17 -28.5q20 -10 34.5 -15t27.5 -5q22 0 37.5 12.5t29.5 38.5l-12 -2zM618 404q-15 -55 -44 -104t-67 -91q-11 14 -20 26.5t-17 21.5v-1q-5 7 -6 8t-1 2q-12 13 -31 13 q-12 0 -23.5 -5.5t-20.5 -14.5t-14.5 -21t-5.5 -25q0 -7 2.5 -16t10.5 -19q8 -4 16 -16t18 -30q-35 -22 -72 -34.5t-75 -12.5t-53 19t-15 51q0 19 3.5 39t9.5 41q14 51 51 108.5t86 106t105.5 80.5t109.5 32q35 0 50 -24t15 -59q0 -18 -3.5 -36.5t-8.5 -38.5z" />
<glyph unicode="R" horiz-adv-x="535" d="M527 100l-173 195q48 13 96 33t88.5 47.5t70.5 62.5t42 77q5 14 6.5 25t1.5 22q0 93 -131 93q-83 0 -138 -3.5t-93 -9.5q-36 -5 -57 -32t-29 -62h1l-4 -14t-4 -15q-8 -31 -15.5 -62.5t-13.5 -60.5l1 1l-100 -322q-7 -27 -7 -47q0 -21 9 -31.5t32 -10.5h2q21 0 34.5 6.5 t22.5 17t14.5 24.5t10.5 28l48 175l188 -221q14 -16 31 -23.5t35 -7.5q24 0 45 15t29 44l-6 2q-2 17 -12.5 30t-24.5 24zM530 523q-6 -23 -32 -45.5t-62 -41.5t-77 -34t-76 -22l42 153q22 5 55.5 8.5t67.5 3.5q29 0 55 -3q28 -4 29 -13z" />
<glyph unicode="S" horiz-adv-x="602" d="M677 290q7 25 7 46q0 33 -14.5 54t-35 33t-43 16.5t-38.5 4.5q-56 0 -106.5 -13.5t-91.5 -25.5q-23 -8 -41.5 -13t-30.5 -5q-7 0 -12.5 3t-5.5 11q0 3 -1 3q6 20 27 47t52.5 51t73 41t88.5 17q20 0 28 -4t13 -7l2 -2q6 -6 11 -10.5t9 -8.5q9 -10 17.5 -14t36.5 -4 q12 0 23 6t19.5 14.5t13.5 17.5t7 16q1 4 1.5 7t0.5 9q0 20 -12.5 37.5t-34 30t-50.5 20t-61 7.5q-60 0 -122.5 -22.5t-116.5 -60.5t-94.5 -88t-56.5 -105q-2 -11 -3.5 -21.5t-1.5 -21.5q0 -27 10 -45t26.5 -28t37 -14t40.5 -4q26 0 59 8t70 19q38 11 76 20t73 9 q12 0 20 -3.5t8 -14.5q0 -5 -0.5 -9.5t-1.5 -9.5q-15 -54 -53 -91t-83 -60t-88 -33t-67 -10q-20 0 -32 4t-19 9.5t-10 12.5t-4 13h1q-6 23 -15.5 43t-35.5 20q-34 0 -52.5 -17.5t-26.5 -41.5q-3 -9 -4 -17.5t-1 -16.5q0 -24 9 -47t28 -41t48.5 -29t71.5 -11q57 0 127.5 19 t136 58t118.5 99t76 143z" />
<glyph unicode="T" horiz-adv-x="472" d="M684 617q1 5 1.5 8t0.5 9q0 21 -12.5 32.5t-34.5 11.5q-6 0 -9.5 -0.5t-7.5 -1.5q-27 -5 -50.5 -9t-46.5 -8t-46.5 -8.5t-50.5 -10.5q-34 -6 -74.5 -14t-97.5 -19q-2 -1 -5.5 -1.5t-5.5 -1.5l1 1q-14 -4 -27.5 -8t-25.5 -10.5t-21 -16t-13 -23.5q-1 -3 -1.5 -6t-0.5 -9 q0 -19 13.5 -30.5t45.5 -11.5q10 0 16.5 0.5t13.5 1.5l90 18l-122 -443q-1 -4 -2 -7t-2 -7q-6 -17 -6 -30q0 -17 10 -27t38 -10q19 0 31 4t20 12.5t14 22t12 33.5l132 474l130 24q25 6 41.5 11.5t26.5 12.5t15.5 15t8.5 19z" />
<glyph unicode="U" horiz-adv-x="583" d="M597 174l109 390q3 5 8.5 18.5t5.5 27.5q0 17 -10 30.5t-39 13.5q-22 0 -36 -7t-22.5 -18t-13 -25.5t-7.5 -30.5l1 1l-119 -396q-5 -16 -23.5 -32.5t-47 -30t-65 -22.5t-76.5 -9q-22 0 -37.5 7t-15.5 20l2 8h-1l132 469q2 6 2 10v7q0 17 -9.5 33t-39.5 16q-19 0 -31 -5.5 t-20 -13.5t-12.5 -19t-8.5 -21l-130 -469q-7 -21 -7 -43q0 -50 40 -81.5t129 -31.5q62 0 119.5 18t103.5 46.5t77 65t42 74.5z" />
<glyph unicode="V" horiz-adv-x="492" d="M671 567q5 17 5 24q0 22 -13 32.5t-32 10.5q-16 0 -34 -8.5t-35 -26.5v1q-11 -11 -24.5 -28.5t-38.5 -49.5v1q-18 -21 -28 -33t-15 -18.5t-6.5 -10t-3.5 -7.5q-2 -3 -5.5 -9.5t-14.5 -22.5v1q-6 -8 -18.5 -24.5t-29 -37t-35 -43t-34.5 -43.5v1q-9 -11 -17 -21t-15 -19v36 q0 20 0.5 37.5t1 29t0.5 12.5q2 34 2.5 49t1.5 25q0 6 0.5 12t1.5 15t1.5 23t0.5 36q0 6 0.5 14t1.5 18q1 11 1.5 21.5t0.5 18.5v4q0 29 -16.5 43t-38.5 14q-20 0 -39.5 -12t-26.5 -36q-2 -6 -4 -16q0 -2 -0.5 -3t-0.5 -2v1q-1 -3 -1 -7q0 -3 -1 -6q-3 -14 -5.5 -30 t-2.5 -27v-3q-2 -57 -3 -105q-1 -32 -1.5 -58t-0.5 -43v-36q0 -12 -0.5 -34.5t-0.5 -45.5q-1 -19 -1 -37v-35q0 -33 2.5 -60t10.5 -43q15 -26 38 -26q16 0 34 13.5t39 45.5q10 18 30.5 47.5t44.5 63.5t49.5 68.5t45.5 61.5q11 14 19 26t14 20q9 13 15.5 22t15 19t20.5 24 t33 38q7 7 13.5 15t14.5 16q17 20 26.5 30.5t13.5 15.5q5 6 7.5 8t9.5 8z" />
<glyph unicode="W" horiz-adv-x="735" d="M929 630q0 16 -10.5 29.5t-41.5 13.5q-15 0 -27 -6.5t-21.5 -17t-18 -24t-17.5 -27.5h1q-6 -9 -27.5 -43.5t-52.5 -85.5t-67.5 -112.5t-72.5 -124.5v87q0 50 -0.5 95t-1 77t-1.5 35v31q0 13 -1 26t-4 23.5t-9 17t-15 6.5q-16 0 -26.5 -1.5t-21 -11t-24 -29.5t-36.5 -57 q-5 -7 -15 -24t-25 -41q-14 -23 -31 -50t-35 -55.5t-36 -57.5t-35 -55q5 78 11.5 155.5t12.5 133.5q0 2 0.5 4.5t0.5 4.5q1 8 1.5 20t4.5 35q-8 34 -21.5 43.5t-35.5 9.5q-38 0 -53.5 -16t-21.5 -47q-17 -88 -22.5 -173t-8.5 -150q-1 -16 -1.5 -30t-0.5 -26q-2 -25 -4 -53.5 t-4 -52.5q-3 -29 -3 -42v2q-1 -6 -1 -13v-12q0 -33 9.5 -44t29.5 -11q2 0 5.5 0.5t5.5 0.5q12 1 20 2.5t17 8t21 21.5t32 42q5 6 26.5 36t50 72t60.5 89.5t58 88.5q0 -45 1.5 -92.5t3.5 -89t4.5 -71.5t4.5 -39q7 -26 13 -41t12 -22.5t12 -10t13 -2.5h11q19 0 39 14t44 56v-1 q10 17 30.5 51.5t48.5 79.5q31 52 67.5 112.5t70.5 119t62.5 111t44.5 87.5l-1 3q2 10 2 18z" />
<glyph unicode="X" horiz-adv-x="458" d="M468 70q0 8 -2 12.5t-4 9.5l-3 6l1 -1q-11 22 -17 36.5t-11.5 37.5t-12 61.5t-18.5 108.5l22.5 22.5t53.5 54t64.5 64t55.5 53.5q15 16 29 39.5t14 43.5q0 14 -7 23.5t-24 13.5q-6 1 -10 2t-6 1q-23 0 -37.5 -11.5t-30.5 -25.5l-3 -3q-9 -10 -23.5 -26t-31.5 -35 t-34.5 -38.5t-32 -36.5t-25 -28.5t-12.5 -14.5q1 3 -1.5 13.5t-6 25.5t-8.5 33.5t-10 37.5h1q-5 18 -9.5 35t-8.5 31q-1 2 -1 4q0 3 -1 5l1 -1q-4 19 -12 32t-36 13t-45.5 -13.5t-25.5 -33.5q-2 -6 -2 -11v-9q0 -17 3 -31t5 -20v1q1 -7 8 -34.5t15.5 -61.5t17 -67.5 t13.5 -51.5q-50 -62 -77.5 -97t-44.5 -56t-30 -35t-33 -36v1l-1 -1.5l-5 -7.5q-6 -6 -15.5 -16.5t-18 -21.5t-14.5 -21t-6 -16v-4q4 -21 18.5 -31t33.5 -10q17 0 34.5 7.5t32.5 22.5q20 22 33 37t28 34t37.5 47t61.5 77q4 -16 9.5 -38.5t11.5 -46t13 -45.5t14 -38 q2 -20 18 -35.5t42 -15.5q14 0 31.5 8t37.5 28l-5 31q2 4 2 13z" />
<glyph unicode="Y" horiz-adv-x="582" d="M733 543q21 21 29 35.5t8 25.5t-6.5 18.5t-16.5 14.5l3 -1q-1 1 -2.5 2l-1.5 1q-13 8 -25 8q-13 0 -26.5 -6.5t-27.5 -17.5h1q-3 -3 -11 -6.5t-20 -10.5l-220 -183l-108 160l2 -2q-16 33 -30 55.5t-32 22.5h-5q-12 -3 -24.5 -8t-23 -13.5t-17 -19.5t-6.5 -26 q0 -21 17 -49l135 -233l-65 -231q-9 -29 -9 -47q0 -20 9 -32t29 -12h5q20 1 34 8.5t23 18t14.5 24t9.5 27.5l67 238z" />
<glyph unicode="Z" horiz-adv-x="545" d="M565 60q4 8 4 18q0 19 -14.5 25t-40.5 6t-59 -3l-48 -3h-53q-23 0 -45.5 -0.5t-44.5 -1.5t-47 -3l491 480q23 21 23 47q0 17 -11.5 29.5t-31.5 12.5h-5l-309 -18h1q-46 -2 -73 -5.5t-42 -11t-21.5 -20t-11.5 -32.5l1 1q-2 -5 -2 -8v-6q0 -37 54 -37q15 0 33.5 2.5 t40.5 6.5h-2l185 15l-477 -465q-16 -16 -22.5 -30.5t-6.5 -27.5q0 -22 15 -35t39 -13h5q37 2 89.5 3t106 2t101.5 1h76h30q26 0 45 22.5t27 50.5v-2z" />
<glyph unicode="[" horiz-adv-x="381" d="M330 -46q2 10 3.5 17t1.5 14q0 20 -8.5 26t-25.5 6q-6 0 -12.5 -0.5t-13.5 -1.5h-9t-9 -1l-85 -9l181 655l95 26q9 3 20 5t19 4q12 3 19.5 5t12 6.5t7.5 12.5t7 22q2 6 2 8v5q0 23 -18 34.5t-48 11.5h-16t-16 -2l-96 -22q-38 -10 -68 -33t-40 -56l-191 -724 q-9 -29 -9 -44q0 -20 10 -30t33 -10q19 0 49 6h-1l148 15h-1q29 3 40 17t18 36z" />
<glyph unicode="\" horiz-adv-x="375" d="M339 85q-11 72 -18.5 151.5t-12.5 149.5t-7.5 120.5t-2.5 64.5v22q-1 19 -2.5 36.5t-6 30t-12.5 20t-23 7.5q-14 0 -29 -8h1q-26 -11 -30.5 -28.5t-4.5 -36.5v-20q0 -28 1 -69.5t3 -91t5.5 -103t8.5 -103t11.5 -93t14.5 -72.5q0 -9 1.5 -22t4.5 -26t8 -24t13 -16v1 q17 -14 35 -14q20 0 32.5 18t12.5 60q0 20 -3 46z" />
<glyph unicode="]" horiz-adv-x="382" d="M339 -45l219 777q2 8 3.5 14.5t1.5 11.5q0 17 -10 28.5t-41 11.5q-9 0 -19 -1.5t-22 -3.5q-8 -2 -32.5 -5.5t-50.5 -6.5q-25 -4 -43.5 -13t-20.5 -10l13 15q-36 -4 -53.5 -16t-24.5 -35q-3 -12 -3 -24q0 -23 13.5 -31.5t39.5 -8.5q6 0 12.5 0.5t13.5 1.5l83 11l-181 -657 l-91 -21h1q-4 -1 -8.5 -1.5t-8.5 -1.5h1q-14 -2 -25.5 -4.5t-21.5 -8.5t-17 -17t-12 -30h1q-4 -12 -4 -20q0 -22 13 -31t33 -9q16 0 31.5 3.5t32.5 7.5h-1l73 11q8 0 18 2q18 3 32 6.5t24.5 9.5t18 16.5t12.5 28.5z" />
<glyph unicode="^" horiz-adv-x="366" d="M630 483q2 5 2 12q0 5 -1 11t-4 13l-56 106q-4 17 -15.5 29t-30.5 12t-27.5 -6.5t-16.5 -17.5l-138 -112q-3 -3 -4 -3q-11 -8 -18.5 -15t-12.5 -21l-2 -7v-6q0 -10 8 -17.5t28 -12.5h-1q5 -2 12 -2q11 0 22.5 6.5t29.5 23.5h-1l93 75l36 -69q8 -22 22 -29t24 -7 q3 0 6 0.5t7 2.5q20 7 27.5 14.5t10.5 20.5v-1z" />
<glyph unicode="_" horiz-adv-x="445" d="M430 -88q26 0 40 14.5t14 29.5q0 11 -7.5 19.5t-27.5 8.5h-433q-26 0 -41.5 -15t-15.5 -30q0 -11 9.5 -19t28.5 -8h433z" />
<glyph unicode="`" horiz-adv-x="448" d="M394 437q20 8 29.5 14t9.5 23q0 12 -6 27v-1q-5 16 -13 34.5t-17.5 36.5t-21 32.5t-22.5 23.5q-30 22 -52 22q-17 0 -27.5 -12.5t-10.5 -38.5v-8q3 -17 6.5 -28t10 -20.5t15.5 -18.5t22 -21q32 -25 37 -36q11 -20 22 -24.5t15 -4.5h3z" />
<glyph unicode="a" horiz-adv-x="499" d="M478 51l75 282h-1q4 13 5 23.5t1 18.5q0 25 -8.5 40.5t-22 24.5t-30 12.5t-33.5 3.5q-59 0 -127 -14t-127 -49l3 1q-2 -1 -4.5 -2t-4.5 -2q-14 -5 -28.5 -15.5t-24.5 -42.5v-6q0 -18 10.5 -25t25.5 -7q9 0 20.5 2.5t22.5 6.5t19.5 7.5t13.5 5.5l-1 -1q17 5 31.5 9.5 t28.5 8.5q26 8 50.5 14.5t50.5 6.5q4 0 10.5 -0.5t6.5 -2.5v-4l-11 -39q-72 -3 -134.5 -16t-112 -36t-84.5 -57t-52 -79v1q-3 -9 -4 -18t-1 -18q0 -20 6.5 -40t18.5 -36.5t28.5 -27t37.5 -10.5q28 0 56.5 5.5t56.5 13.5t53 17t46 17q3 1 5.5 2t5.5 2q-2 -3 -2 -7v-6 q0 -15 10.5 -23.5t39.5 -8.5q62 0 74 67zM389 159v1q-1 -2 -22.5 -16t-53 -30.5t-67.5 -29.5t-64 -13h-4q-2 0 -4 1t-7 1q-4 2 -10 8.5t-6 17.5q0 8 1 11q5 18 29 34.5t59.5 29.5t78.5 23t85 16z" />
<glyph unicode="b" horiz-adv-x="472" d="M563 338q5 22 5 33q0 42 -29 59.5t-77 17.5q-45 0 -90.5 -11.5t-91.5 -36.5l55 189q3 13 3 31q0 22 -10.5 32.5t-40.5 10.5q-23 0 -37.5 -8.5t-24 -22.5t-15.5 -31.5t-10 -34.5l-127 -490q-4 -15 -6.5 -28.5t-2.5 -26.5q0 -24 10 -37.5t35 -13.5q39 0 85 15.5t93 42 t92 62.5t82 76.5t64 84.5t38 87zM444 333q-6 -25 -30.5 -59t-59 -68.5t-75 -64t-80.5 -45.5l40 150q16 20 38.5 36.5t47.5 28t51.5 18t49.5 6.5h2q2 0 4 0.5t5 0.5h5t3 -1v-1z" />
<glyph unicode="c" horiz-adv-x="434" d="M467 105q37 43 37 71q0 17 -11.5 27t-37.5 10q-17 0 -29 -4.5t-21 -11.5t-14.5 -14.5t-9.5 -13.5h1q-2 -2 -5 -6t-2 -2q-9 -12 -26 -26t-38.5 -26t-47 -20t-51.5 -8q-17 0 -24 11t-7 26q0 13 3 24q10 39 32 74.5t48.5 63.5t55.5 44.5t55 16.5t44 -4.5t23 -13.5 q11 -8 22 -11t20 -3q26 0 45.5 15.5t19.5 39.5q0 25 -25 49q-28 24 -56.5 30.5t-70.5 6.5q-50 0 -102 -25t-97.5 -66.5t-80.5 -96t-50 -112.5h1q-5 -15 -6.5 -28.5t-1.5 -26.5q0 -25 6.5 -47.5t21.5 -39t39 -26.5t58 -10q50 0 89.5 10t69.5 25t50.5 32t32.5 30zM376 162l1 2 q-1 -1 -1 -2l-1 -1z" />
<glyph unicode="d" horiz-adv-x="531" d="M529 104l121 477q4 9 7 19.5t3 21.5q0 17 -10 28.5t-39 11.5q-21 0 -34 -5.5t-21 -15t-13 -22.5t-10 -28v1l-3 -10l-40 -152q-6 2 -13 2.5t-15 0.5q-85 0 -151.5 -29t-115 -70t-79 -86t-42.5 -77v1q-13 -32 -13 -64q0 -29 10.5 -52.5t25.5 -40.5t33 -26.5t33 -9.5 q50 0 86.5 5.5t62.5 13t43.5 16t28.5 14.5l6 3v-5q0 -15 1.5 -23t7 -12t15 -5t25.5 -1q42 0 56 20t18 57zM446 241v1q-9 -37 -38 -66t-64.5 -49.5t-70.5 -31.5t-57 -11q-7 0 -13 2l1 -1q-11 7 -17.5 18t-6.5 27v10q0 6 2 11q1 12 13 29q34 48 67.5 76.5t66 42.5t63 18 t59.5 4q12 0 12 -5t-2 -9z" />
<glyph unicode="e" horiz-adv-x="441" d="M523 298q5 18 5 37q0 48 -32.5 77t-89.5 29q-60 0 -115.5 -26.5t-101 -69t-78 -96.5t-47.5 -108q-9 -35 -9 -64q0 -56 32.5 -82.5t89.5 -26.5q49 0 101.5 16t97 38.5t74.5 45.5t34 37q6 18 6 29q0 32 -35 32q-12 0 -19.5 -0.5t-14.5 -2t-15.5 -5.5t-22.5 -11 q-20 -12 -41 -25.5t-43 -25t-43.5 -18.5t-42.5 -7h-4q-9 0 -20.5 4t-12.5 26v17q0 5 2 12q55 13 112.5 28t106.5 35t83.5 46t42.5 59zM220 232q15 25 36 45t43 34.5t43.5 22t39.5 7.5q15 0 22 -5t7 -12q0 -1 -0.5 -2t-0.5 -2q-7 -11 -29.5 -25t-51 -27t-58.5 -23t-51 -13z " />
<glyph unicode="f" horiz-adv-x="364" d="M494 408q2 6 2 10v9q0 18 -9 28.5t-32 10.5q-11 0 -23 -3h2l-104 -14l6 33q1 6 5.5 20.5t12 29t19.5 26t29 11.5q11 0 25 -5.5t20 -13.5q17 -5 28 -8t19 -3q13 0 32 8q22 12 31 27t9 29q0 18 -14 29q-11 7 -24.5 15.5t-31.5 16t-39.5 12.5t-46.5 5q-46 0 -78.5 -20.5 t-55.5 -53.5t-38 -74t-25 -82l-7 -26l-18 -7l2 1q-3 -1 -6.5 -1.5t-6.5 -1.5h1q-9 -2 -17 -5t-14.5 -8.5t-12.5 -15.5t-11 -26v1q-2 -5 -3 -10.5t-1 -9.5q0 -19 11 -26t27 -7h9q5 0 10 2l-64 -246q-3 -8 -5 -15t-2 -14q0 -21 13.5 -34.5t34.5 -13.5h5q13 1 26 7t23 16 t16.5 22t6.5 26l70 272l124 23q21 8 33 13t19.5 10.5t10.5 12t6 17.5z" />
<glyph unicode="g" horiz-adv-x="497" d="M461 -6l97 369q2 11 4.5 21.5t2.5 17.5q0 24 -17 36.5t-68 12.5q-73 0 -139.5 -16t-119.5 -46t-88.5 -72.5t-45.5 -94.5q-8 -45 -12.5 -77.5t-4.5 -57.5q0 -26 4.5 -43t12.5 -28.5t18.5 -19.5t23.5 -15q8 -7 28 -7q16 0 39.5 5t51.5 16t58.5 28t59.5 41q-3 -11 -5 -18.5 t-4 -14t-4 -13.5t-5 -17q-6 -25 -19 -45.5t-29 -34.5t-34.5 -22t-36.5 -8h-5q-20 2 -41 8.5t-33 17.5q-23 8 -31 10t-17 2h-9q-25 0 -38.5 -14t-21.5 -40q-1 -4 -1.5 -7t-0.5 -7q0 -20 13.5 -35.5t35.5 -26t50 -16t57 -5.5q46 0 89 13t79 40t63.5 67.5t42.5 95.5zM408 252 q-21 -28 -50.5 -57t-60.5 -53t-58.5 -39.5t-45.5 -15.5q-5 0 -7.5 10t-2.5 24q0 11 1.5 24t3.5 24l6 27l-1 -1q8 31 21 51.5t31 35.5t41.5 25t52.5 20l-1 -1q3 1 6.5 1.5t5.5 1.5h-1q23 5 44.5 8.5t37.5 3.5h4v-11q0 -16 -3.5 -36.5t-23.5 -41.5z" />
<glyph unicode="h" horiz-adv-x="480" d="M459 56l69 263q12 42 12 65q0 36 -18 51t-55 15q-49 0 -97.5 -19.5t-98.5 -50.5l46 179q4 14 6 27t4 21v-1q2 6 2 12v12q0 25 -10.5 30.5t-31.5 5.5q-23 0 -38 -11t-25 -28t-16 -39.5t-11 -44.5q0 -6 -1 -7l-124 -474v1q-5 -17 -5 -31q0 -19 9 -32t33 -16h7 q23 0 44.5 18.5t28.5 53.5v-1l44 169q24 18 49.5 35.5t48.5 32t43 23.5t34 9q5 0 5 -9t-3 -20.5t-6 -19.5l-63 -218q-1 -3 -1 -21q0 -48 44 -53h7q24 0 39 15.5t29 56.5v1z" />
<glyph unicode="i" horiz-adv-x="200" d="M184 65l68 277l-1 -1q9 29 13 47t4 30q0 25 -10.5 31t-30.5 6q-24 0 -38 -5t-23 -16t-14.5 -29.5t-12.5 -45.5l-2 -12l-65 -268l-3 -11h1l-5.5 -22t-2.5 -18q0 -17 9 -28t32 -14h9q17 0 28.5 6.5t19 17.5t12.5 25.5t10 29.5h2zM331 607q0 18 -11.5 29.5t-40.5 11.5 q-34 0 -60.5 -21.5t-38.5 -72.5l1 2q-2 -5 -2.5 -10.5t-0.5 -10.5q0 -26 15.5 -44.5t32.5 -18.5q21 0 37.5 8t29.5 21t21.5 29.5t13.5 33.5v22q3 12 3 21z" />
<glyph unicode="j" horiz-adv-x="210" d="M161 -76l109 417v-1l3 9q5 15 8.5 30t3.5 29q0 21 -10.5 34.5t-42.5 13.5q-21 0 -34 -7.5t-21.5 -18.5t-13 -25t-8.5 -27v1l-5.5 -16.5l-3.5 -10.5l-103 -420h1q-15 -56 -30 -59q-3 1 -11 1q-8 2 -10.5 2.5t-6.5 4.5q-7 5 -10 8.5t-6 6.5v-1q-5 8 -12 14.5t-27 15.5 q-4 1 -7.5 2t-6.5 1q-11 0 -23 -7.5t-22 -18.5t-17 -25.5t-7 -27.5q28 -32 43.5 -49.5t26 -27.5t19.5 -15.5t23 -12.5q21 -8 35 -8q27 0 54 16.5t49.5 43.5t39.5 60.5t23 68.5v-1zM358 613q0 18 -14 29t-50 11q-15 0 -32 -6t-32.5 -17t-27.5 -26.5t-16 -34.5l1 1 q-3 -8 -4 -16t-1 -16q0 -26 13 -46t45 -20q42 0 74.5 27.5t42.5 81.5l-2 15q3 7 3 17z" />
<glyph unicode="k" horiz-adv-x="394" d="M514 372v7q0 7 0.5 14.5t0.5 13.5v8q0 8 -2 18t-7 18.5t-12.5 14t-18.5 5.5q-10 0 -13 -1q-18 -10 -28.5 -15.5t-17.5 -9.5q-5 -4 -11 -7t-14 -8l-125 -89l60 247l-1 -1q4 11 6 19.5t2 17.5q0 19 -10 30.5t-35 11.5q-2 0 -5.5 -0.5t-6.5 -0.5q-20 -3 -32 -9t-19 -14.5 t-10.5 -20t-7.5 -25.5l1 1q-2 -5 -3.5 -10t-3.5 -10l-127 -506h1q-6 -18 -6 -35q0 -20 10 -35t35 -15q40 0 55.5 23t21.5 55l-1 -1l29 107l78 -134q2 -8 8 -17t14 -18t17 -15.5t16 -7.5h9q23 0 42 18t19 45q0 21 -13 40l1 -1l-93 170l139 101l4 2q16 8 26 14.5t16 15.5z" />
<glyph unicode="l" horiz-adv-x="198" d="M307 569l-1 -1q1 2 1 4t1 4q11 31 11 52q0 18 -8.5 29t-32.5 11h-6q-19 -2 -31.5 -10.5t-20.5 -21.5t-13.5 -28.5t-9.5 -30.5l-127 -510q-3 -14 -3 -28q0 -53 42 -53h4q31 1 44 22.5t25 58.5v-1z" />
<glyph unicode="m" horiz-adv-x="723" d="M705 58l83 310l-1 -1q2 6 2.5 11.5t0.5 11.5q0 12 -3.5 24.5t-11 23t-20.5 17t-31 6.5q-11 0 -25 -3t-29 -9q-20 -9 -40.5 -18.5t-47.5 -21.5q-11 -4 -21.5 -9t-22.5 -10l2 14q1 4 1 8v8q0 27 -12 33.5t-33 9.5h-6q-27 0 -65.5 -16t-80.5 -38q-17 -8 -33.5 -16t-33.5 -16 q3 8 4 13.5t1 10.5q0 37 -44 37q-28 0 -47.5 -12.5t-31.5 -49.5l-82 -304v1q-4 -10 -6 -18t-2 -16q0 -18 9.5 -30t32.5 -17h-1q3 -1 7 -1h8q29 0 43.5 21.5t23.5 49.5v-1l61 186q16 11 37 23t41.5 22.5t38.5 18.5t29 12l-69 -251q-5 -25 -5 -38q0 -23 11 -32.5t37 -14.5h7 q15 0 27.5 9t21 22t13.5 26.5t7 21.5l-1 -1l54 188q21 18 43.5 31t43.5 22t38.5 14t28.5 7l-69 -264q-3 -12 -3 -24q0 -43 40 -50q2 0 5 -0.5t5 -0.5q44 0 69 70h2z" />
<glyph unicode="n" horiz-adv-x="472" d="M464 102l71 265l2 10t1 7q0 16 -7 29t-18 22t-24.5 13.5t-27.5 4.5q-12 0 -29.5 -3.5t-38 -8.5t-42.5 -12t-41 -13q-8 -2 -15 -4.5t-15 -4.5v9q2 6 2 9v6q0 12 -6 18.5t-23 6.5q-6 0 -10 -0.5t-10 -1.5q-34 -5 -52.5 -24.5t-23.5 -46.5v1l-30 -114q-5 -19 -7.5 -29.5 t-5.5 -23.5q-3 -9 -6.5 -20.5t-8 -28.5t-11 -41.5t-15.5 -59.5l-3 -12l-3 -11l1 1q-2 -5 -2 -8v-6q0 -17 10 -30t30 -13h5q20 1 34 9t23.5 18.5t14 22t4.5 20.5l-1 -3l66 221q25 17 50 27.5t46.5 16.5t37.5 8t22 2q-1 -2 -1 -3t-1 -3l-68 -260q-6 -23 -6 -36q0 -23 12 -30.5 t35 -9.5h6q29 0 46.5 19t22.5 54l-1 -2z" />
<glyph unicode="o" horiz-adv-x="494" d="M555 253q9 33 9 66q0 28 -7.5 52.5t-23.5 42.5t-41 28.5t-60 10.5q-69 0 -130 -28.5t-109 -72.5t-80.5 -97t-44.5 -102q-8 -27 -8 -56q0 -26 7.5 -48.5t24 -39.5t42.5 -27t64 -10q57 0 114 22.5t106 61t85.5 89.5t51.5 108zM438 261q-9 -35 -31 -67.5t-51.5 -57.5 t-64.5 -40t-71 -15q-22 0 -30.5 11t-8.5 27q0 7 1 13.5t3 13.5q9 31 28 64.5t47 61.5t64 46.5t80 18.5q22 0 30.5 -11.5t8.5 -28.5q0 -19 -5 -36z" />
<glyph unicode="p" horiz-adv-x="503" d="M577 303q4 17 6 32.5t2 29.5q0 50 -27.5 77.5t-84.5 27.5q-43 0 -87.5 -8.5t-95.5 -34.5q-2 20 -15 28.5t-33 8.5h-11q-18 -2 -31 -11t-22 -21t-14 -24t-7 -21l-3 -11l-148 -569h1q-9 -29 -9 -47q0 -39 35 -39q10 0 14 1h-1q34 7 51.5 23t25.5 51l-1 -1l50 189h16 q5 0 9.5 0.5t8.5 0.5h11q48 0 104.5 26.5t108 71t91.5 101.5t56 119zM458 311q-11 -40 -37.5 -79.5t-60.5 -70.5t-71 -50t-68 -19q-15 0 -15 2v2l51 192v-1q3 7 19 17.5t41 19.5t56.5 15.5t64.5 6.5q23 0 23 -18q0 -2 -0.5 -7t-2.5 -10z" />
<glyph unicode="q" horiz-adv-x="503" d="M531 -161q1 4 1.5 7t0.5 10q0 33 -34 33q-19 0 -35 -11l3 1l-32 -12l136 523l-1 -1q2 5 2 7v6q0 18 -12.5 29t-30.5 17.5t-37.5 8.5t-33.5 2q-53 0 -113 -20t-115 -57.5t-98 -93t-61 -125.5q-6 -20 -8.5 -36.5t-2.5 -30.5q0 -54 28 -83t84 -29q103 0 187 51l-66 -250 q-3 -14 -3 -25q0 -27 13.5 -36t32.5 -9q14 0 43 10t59 25t54 33t29 34v-2zM190 161q12 46 38 79t56 54.5t59 32.5t47 14q2 1 6 1.5t6 1.5l-1 -1l18 4t16 2h6q0 -3 -1 -6q0 -2 -2 -6q-3 -14 -7.5 -33.5t-10 -40t-12.5 -40t-15 -34.5q-8 -17 -27.5 -33t-45.5 -28.5t-56.5 -20 t-59.5 -7.5q-11 0 -15.5 6.5t-4.5 16.5q0 9 2 19t4 19z" />
<glyph unicode="r" horiz-adv-x="354" d="M155 382l-81 -310h1q-6 -18 -6 -36q0 -20 8 -34t31 -14h6q4 1 6 1h8q19 0 32 14.5t27 60.5l68 224q8 3 12.5 6t9.5 7q12 8 27 15t49 12q50 6 78.5 13t43 15.5t19.5 18.5t10 22q0 3 3 8l-17 44q-27 11 -55 11q-20 0 -66 -11q-5 -2 -8 -2.5t-5 -1.5q-13 -4 -21 -6t-14.5 -4 t-12.5 -4.5t-16 -6.5l-7 -3.5t-7 -2.5q-3 18 -10.5 24.5t-29.5 6.5q-48 0 -64.5 -17t-18.5 -50z" />
<glyph unicode="s" horiz-adv-x="492" d="M538 196q5 18 5 35q0 22 -8 38t-21.5 26.5t-30.5 15t-34 4.5q-44 0 -90.5 -13.5t-83.5 -25.5q-20 -7 -34.5 -11.5t-22.5 -4.5q-3 0 -3 -2q4 16 21 31.5t45 28t65 20.5t81 8q10 -2 31 -2q11 0 24.5 1t24.5 4q19 7 31.5 22.5t12.5 31.5q0 19 -18.5 35.5t-63.5 16.5 q-53 0 -112.5 -13t-113 -38.5t-94 -63.5t-55.5 -88q-3 -11 -3 -26t4.5 -29.5t15.5 -25.5t28.5 -18t44.5 -7q29 0 64.5 11t70.5 22q26 10 50 16.5t40 6.5q10 0 10 -5v-3q-6 -20 -26.5 -41t-49.5 -38t-63.5 -28t-67.5 -11q-14 0 -30.5 10t-40.5 31q-17 12 -38 12 q-19 0 -37.5 -9.5t-27.5 -32.5q-4 -11 -4 -20q0 -21 15.5 -39t39 -30.5t51.5 -19.5t52 -7q52 0 108.5 18t105 48.5t84.5 71.5t48 87z" />
<glyph unicode="t" horiz-adv-x="405" d="M401 85q1 6 2 11t1 10q0 25 -15.5 37t-37.5 12q-17 0 -34 -6t-31 -18l-4 -4h1q-6 -6 -15 -13t-23 -9l64 250l108 17q22 6 37.5 12t24.5 12.5t13 14t5 17.5q1 5 1.5 14.5t0.5 7.5q0 15 -7 24.5t-30 9.5q-7 0 -15.5 -1t-20.5 -5l2 1l-89 -12l8 33q2 11 4 21t2 20 q0 18 -8.5 28t-31.5 12h-8q-57 0 -72 -74v1l-15 -60l-41 -7q-35 -10 -47.5 -25t-17.5 -35l2 3q-2 -5 -2.5 -8t-0.5 -5q0 -36 64 -36l16 3l-71 -276q-3 -9 -4 -16t-1 -14q0 -32 19.5 -42.5t44.5 -10.5q31 0 60 8.5t54.5 20.5t46 25.5t34.5 24.5z" />
<glyph unicode="u" horiz-adv-x="480" d="M240 450h-6q-19 0 -33.5 -7.5t-24.5 -19t-15.5 -25t-5.5 -25.5l-73 -276q-7 -22 -7 -41q0 -39 22.5 -58t63.5 -19q27 0 44 0.5t33.5 4.5t38.5 11.5t58 21.5q2 -20 15.5 -26t32.5 -6q32 0 56 14.5t24 51.5q0 2 -0.5 3t-0.5 3l84 318q14 31 14 53q0 20 -10.5 27.5 t-27.5 7.5h-8q-30 -2 -49.5 -20.5t-36.5 -61.5l-64 -239q-13 -8 -30 -17t-35 -17t-36 -13t-33 -5q-9 0 -19.5 0.5t-10.5 3.5v3l73 269v-2q10 21 10 42q0 20 -10.5 31.5t-32.5 12.5z" />
<glyph unicode="v" horiz-adv-x="382" d="M498 383q9 16 9 32q0 17 -10 26.5t-31 9.5q-14 0 -24 -2t-19 -7.5t-17.5 -15t-20.5 -24.5q-8 -10 -18.5 -23.5t-23.5 -29.5q-28 -36 -61.5 -79t-61.5 -79v21q0 16 -0.5 30t-0.5 26q-1 7 -1 13v12v9t1 9v28v43q0 23 -1 29q-7 23 -15.5 29t-21.5 6h-15q-19 0 -32 -7 t-20.5 -17t-11 -20.5t-3.5 -17.5q1 -26 2.5 -48t2 -44t1 -45t0.5 -51q3 -13 3.5 -28t2.5 -34q2 -25 4 -51.5t7 -48.5t13.5 -36.5t23.5 -15.5h5q26 0 46 20.5t37 47.5h-1q8 11 27.5 35l45.5 56q25 31 52.5 65.5t52.5 67.5t45 61.5t29 46.5v1z" />
<glyph unicode="w" horiz-adv-x="573" d="M679 344v-1q17 20 26.5 36t9.5 30q0 28 -36 42l1 -1q-8 5 -14.5 6t-12.5 1q-24 0 -40 -19t-35 -49q-4 -6 -7.5 -12t-7.5 -13q-15 -23 -30 -47t-30 -47q-16 -26 -30 -48.5t-26 -40.5q-3 56 -4.5 87.5t-2.5 48.5t-1.5 25t-0.5 17v6q0 34 -5 49.5t-35 15.5h-1q-1 0 -2 0.5 t-3 0.5q-11 0 -30.5 -10.5t-47.5 -51.5q-9 -16 -30.5 -47.5t-44.5 -64.5q-9 -12 -16.5 -23t-15.5 -21q2 12 3.5 24.5t3.5 24.5q5 32 7 54.5t6 43.5q1 3 1 7t1 8q2 9 3 18t1 19q0 21 -8 34t-34 13h-6q-35 -3 -51 -22.5t-23 -71.5q0 -5 -2 -18.5t-4 -33t-5 -44t-6 -49.5 q-4 -30 -7.5 -59t-6.5 -53t-4.5 -41.5t-1.5 -24.5q4 -35 10.5 -46.5t25.5 -11.5h18q15 0 25 3t23.5 16.5t32.5 40.5t52 74q0 -1 7 8q10 11 24 30.5t30 42.5q1 -27 4 -54t6 -50.5t5.5 -42t4.5 -28.5v-2q1 -17 4.5 -26t9 -13.5t12.5 -5.5t16 -1h20q12 0 24 9.5t23 23t20.5 29 t17.5 28.5q2 5 3 6l2 2z" />
<glyph unicode="x" horiz-adv-x="390" d="M67 106q-30 -26 -43 -47.5t-13 -35.5q0 -35 43 -35q26 0 41 9.5t28 20.5q3 3 11 8q7 6 18 16.5t24 23.5l26.5 26.5l24.5 24.5l18 18q9 -12 16.5 -25.5t12.5 -24.5q5 -9 11.5 -20.5l13 -23t11.5 -20t7 -10.5q14 -13 26.5 -17.5t23.5 -4.5q22 0 39.5 15t24.5 36 q-9 29 -13.5 38t-6.5 15q-2 4 -6 10l1 -1q-4 9 -11.5 24t-17.5 32t-20.5 34.5t-20.5 31.5q30 28 47 44.5t28 27t20.5 18.5t23.5 20l17 16q18 18 30.5 33.5t12.5 29.5q0 9 -4.5 17.5t-17.5 13.5l1 -1q-7 4 -15.5 6.5t-19.5 2.5q-22 0 -46 -19.5t-45 -42.5l-94 -88 q-9 14 -18.5 30.5t-26.5 46.5q-2 2 -5.5 9.5t-7.5 15.5l1 -1q-8 19 -19 32t-36 13q-7 0 -10 -0.5t-5 -0.5q-30 -9 -42 -24t-12 -32q0 -29 18 -50l-1 2q15 -23 25 -40t18.5 -31.5t15 -27.5t14.5 -28q-32 -30 -50 -47t-29 -27.5t-18.5 -17.5t-18.5 -18z" />
<glyph unicode="y" horiz-adv-x="439" d="M536 355q9 15 16.5 30.5t7.5 28.5q0 17 -11.5 27.5t-38.5 10.5q-17 0 -28.5 -3t-19.5 -9t-14 -14.5t-12 -19.5l-143 -246l-61 228h1q-1 3 -1 5q0 3 -1 6v-2q-3 18 -10.5 33.5t-33.5 15.5q-11 0 -24 -4q-26 -8 -40.5 -24.5t-14.5 -43.5v-14t2 -13l95 -329l-24 -40h1 q-2 -4 -4 -6.5t-3 -4.5v1q-5 -8 -12 -19t-15 -21t-17.5 -17t-19.5 -7q-2 0 -7.5 0.5t-12.5 1.5q-8 2 -18 3t-22 1q-15 0 -30 -3.5t-26 -13t-18 -27t-7 -44.5v-8q11 -16 30.5 -20t43.5 -4h47q34 0 62 12t51 32t42.5 46.5t37.5 55.5z" />
<glyph unicode="z" horiz-adv-x="438" d="M537 390q1 3 1 7v7q0 24 -17 31t-43 7h-17t-17 -1q-4 0 -6.5 -0.5t-5.5 -0.5l-217 -4h-6q-16 0 -29 -1t-23 -5.5t-18.5 -14t-15.5 -27.5q-4 -7 -4 -18q0 -22 16 -32.5t33 -10.5h30q17 0 35 0.5t35 1.5t35 2t38 1l-240 -221q-8 -7 -15 -11.5t-12 -9.5q-23 -17 -35.5 -29.5 t-14.5 -27.5q1 -14 1.5 -22.5t4 -13.5t12 -7t24.5 -2q8 0 19.5 0.5t26.5 1.5l222 3q11 -4 34 -4q22 0 35 5l-1 -1q27 11 39.5 26t14.5 43v2q0 20 -15 27t-37 7h-14q-6 0 -13 -1h1q-7 -1 -14 -1h-12h-123l258 236l-1 -1q29 21 38 32.5t13 27.5v-1z" />
<glyph unicode="{" horiz-adv-x="467" d="M395 -56q2 8 2 16q0 18 -9.5 31t-29.5 13q-13 0 -23 -6q-27 -13 -43 -13q-9 0 -13 5t-4 13q0 7 2 13q4 14 9 29.5t11 32.5q8 26 18.5 59t21.5 75q6 20 9.5 37.5t3.5 32.5q0 19 -5 35.5t-16 33.5q25 17 43 39.5t31.5 51t24.5 63t22 75.5q6 19 13.5 41t18 40t24.5 30t32 12 h20q17 0 31.5 7.5t22.5 39.5v-1q4 12 4 25q0 23 -12 29.5t-32 6.5q-45 0 -83 -19t-68 -50.5t-52 -71.5t-34 -81q-2 -8 -3.5 -15t-3.5 -14q-9 -33 -17 -57.5t-20 -41.5t-30 -25.5t-48 -8.5q-19 0 -35 -8t-27.5 -20t-18 -26.5t-6.5 -27.5q0 -18 11.5 -31.5t36.5 -13.5 q32 0 45 -6.5t13 -21.5q0 -10 -3 -23t-8 -28q-8 -31 -18 -60t-19 -56q-9 -24 -16.5 -44.5t-9.5 -31.5h1q-12 -42 -12 -72q0 -41 20 -62t68 -21q17 0 35 2.5t38 7.5q2 1 5.5 2t5.5 2v-1q9 2 20 5t21.5 9t19.5 16t14 27z" />
<glyph unicode="|" horiz-adv-x="205" d="M149 -65l194 700q0 4 2.5 13t5.5 18q5 15 9 30.5t5 22.5q3 12 3 26q0 19 -8 31t-27 12q-2 0 -5 -0.5t-5 -0.5q-23 -5 -36.5 -12.5t-22 -20t-14.5 -31t-13 -46.5q-2 -6 -2.5 -12t-2.5 -14l-197 -709v2q-5 -10 -6 -18t-1 -16q0 -14 5.5 -23.5t13.5 -15.5t17.5 -8.5 t18.5 -2.5q15 0 32 19t32 57z" />
<glyph unicode="}" horiz-adv-x="467" d="M462 395q-4 2 -6.5 2.5t-4.5 1.5h1q-6 2 -11 5.5t-5 17.5q0 5 1 13t3 19q8 43 24 94t37 102q13 32 13 65q0 21 -6 39.5t-18 32.5t-31.5 22t-46.5 8t-46.5 -1.5t-44.5 -7.5q-23 -5 -37 -22t-17 -35l1 2q-2 -5 -2 -8v-6q0 -17 11 -30t36 -13l11 1t18 2l28 3q5 0 15 -2h-1 q9 -3 9 -9q0 -10 -7 -21q-23 -57 -39.5 -113t-27.5 -104q-2 -13 -3 -24.5t-1 -22.5q0 -42 18 -64q-42 -27 -66 -68.5t-39 -95.5l-25 -96q-3 -11 -8 -23t-11.5 -23.5t-16.5 -19.5t-24 -9q-38 -4 -61.5 -23t-31.5 -42q-2 -7 -2.5 -12t-0.5 -9q0 -28 16 -37.5t35 -9.5 q34 0 69 17t65 45.5t53 64.5t33 74l26 96q3 12 10 30.5t20 36t32 30t45 12.5q19 0 34 6.5t25.5 17t16.5 22.5t6 24q0 17 -12.5 30t-38.5 13h2zM462 395l4 -2q-2 0 -4 2z" />
<glyph unicode="~" horiz-adv-x="457" d="M588 534q2 4 2.5 6t0.5 4q0 14 -14 25t-34 11q-14 0 -27.5 -7t-24.5 -22q-6 -6 -5.5 -7.5t-1.5 -5.5q-4 -9 -10.5 -20t-17.5 -11q-8 0 -12 6.5t-9 14.5q-9 16 -22.5 30.5t-46.5 14.5q-21 0 -48 -8.5t-52.5 -22.5t-44.5 -31t-24 -35l1 1q-3 -6 -3 -13q0 -16 13.5 -26.5 t35.5 -10.5q16 0 29.5 9t26.5 20q11 8 21 15.5t17 7.5q2 0 4.5 -4t7.5 -10q5 -7 11 -15t15 -14.5t22 -10.5t32 -4q29 0 53.5 5t44 17.5t34.5 34.5t26 56z" />
<glyph unicode="&#xa1;" horiz-adv-x="201" d="M118 259l-94 -333q-3 -10 -5.5 -18.5t-3.5 -13.5q-1 -6 -1.5 -13t-0.5 -14q0 -23 9.5 -38t34.5 -15q24 0 38.5 10.5t23.5 25.5t12.5 32t5.5 30l-1 -3l91 339v-2q16 38 16 62q0 40 -40 40q-35 0 -56 -24.5t-30 -64.5h1zM153 430q-2 -6 -2 -12v-12q0 -22 11.5 -35t40.5 -13 q32 0 59.5 26t38.5 64v-2q2 5 2.5 10.5t0.5 11.5q0 20 -11 35t-37 15q-38 0 -62.5 -17.5t-39.5 -70.5h-1z" />
<glyph unicode="&#xa2;" horiz-adv-x="454" d="M599 501q1 4 1.5 7.5t0.5 8.5q0 32 -23.5 41.5t-56.5 9.5h-38q-14 0 -23 -1l5 22v-1q2 6 4 11q3 8 6.5 19.5t3.5 23.5q0 16 -9 27.5t-32 11.5q-20 0 -32 -4t-19 -11t-11 -17.5t-8 -23.5l-3.5 -14t-3.5 -12l-16 -63q-90 -32 -151.5 -94t-87.5 -160q-10 -31 -10 -59 q0 -32 10 -55.5t27 -40t40 -25t49 -9.5l-11 -48v2q-11 -35 -11 -48q0 -23 11.5 -27t34.5 -4h3q17 0 27 3.5t16 10.5t9 17t7 23q2 4 2.5 8t3.5 13l20 72q23 6 47 18t46.5 25.5t42.5 27.5t35 25q23 19 36 42.5t13 40.5q0 29 -27 31q-4 1 -6 1h-10q-14 0 -37.5 -6.5 t-49.5 -29.5q-6 -8 -20 -20t-32 -23l57 204q7 3 10.5 3.5t11.5 0.5q5 0 17 -3t23 -6v1q17 -7 24 -7h20q31 0 44.5 14t19.5 34v13zM221 254q0 11 5 29h-1q12 42 31 69.5t51 48.5l-54 -194q-14 2 -23 14.5t-9 32.5z" />
<glyph unicode="&#xa3;" horiz-adv-x="548" d="M489 347q-16 0 -21 -1t-13 -8h-106q5 17 9 34.5t8 37.5h112q9 -5 16.5 -6t15.5 -1q31 0 48.5 16t25.5 45q4 12 4 23q0 21 -11 36t-34 15h-13t-8.5 -1t-7 -3t-9.5 -6h-121l1 10q1 12 2.5 26.5t3.5 28.5q3 15 3 28q0 25 -10.5 39.5t-33.5 14.5h-5q-34 -1 -47 -23t-26 -59 v-3q0 -8 0.5 -16t0.5 -16t-0.5 -15t-0.5 -15h-44q-8 6 -17 7t-14 1q-18 0 -32 -8t-24.5 -21t-16 -28t-5.5 -29q0 -20 11.5 -34.5t34.5 -14.5q10 0 20 2t18 7h53q-5 -21 -9 -38.5t-9 -33.5h-62q-7 5 -16 6t-16 1q-17 0 -31.5 -8.5t-24.5 -21t-15.5 -28t-5.5 -28.5 q0 -20 11 -34.5t36 -14.5q12 0 38 10h42q-5 -11 -9 -21t-9 -21q-9 -21 -18 -42.5t-17 -43.5q-1 -2 -1.5 -4t-1.5 -4q-5 -15 -8 -28t-3 -24q0 -18 8.5 -29t34.5 -11h6q25 2 39.5 14.5t24.5 29.5q28 -16 67 -30.5t76 -18.5h-1q5 -1 12 -1h13q55 0 92.5 21.5t60.5 52t33 63.5 t10 55q0 18 -5.5 29.5t-17.5 11.5h-2q-15 -2 -26 -5t-19.5 -10.5t-15 -21.5t-11.5 -36q-3 -17 -14 -27t-27 -14.5t-35 -5.5t-38 -1q-26 0 -49.5 10t-44.5 21q-6 3 -12.5 6.5t-12.5 6.5q8 21 16.5 40.5t16.5 37.5h123q9 -4 14.5 -4.5t10.5 -0.5h2q19 0 34.5 8t26.5 20 t17.5 27t6.5 29q0 21 -12.5 34.5t-39.5 13.5z" />
<glyph unicode="&#xa5;" horiz-adv-x="585" d="M531 205q-16 0 -21 -1t-13 -8h-84l21 72h87q8 -5 15.5 -6t15.5 -1q32 0 50 16t26 45q4 12 4 23q0 20 -11.5 35t-34.5 15q-15 0 -20.5 -1t-16.5 -8h-4l192 157q21 21 29 35.5t8 25.5t-6.5 18.5t-16.5 14.5l3 -1q-3 3 -5 3q-11 8 -24 8q-14 0 -27 -6.5t-27 -17.5h1 q-4 -3 -11.5 -6.5t-20.5 -10.5l-221 -183l-108 160l2 -2q-16 33 -30 55.5t-32 22.5h-6q-12 -3 -24.5 -8t-23 -13.5t-17 -19.5t-6.5 -26q0 -21 17 -49l91 -157h-14q-9 5 -18.5 6t-13.5 1q-18 0 -32 -8t-24.5 -20.5t-16 -27.5t-5.5 -29q0 -20 11 -35t35 -15q10 0 20 2.5 t18 7.5h71l-19 -72h-79q-7 5 -16 6t-16 1q-18 0 -32 -8.5t-24.5 -21t-16 -28t-5.5 -28.5q0 -20 11 -34.5t36 -14.5q8 0 18 2.5t22 8.5h68q-7 -28 -7 -47q0 -20 8.5 -32t29.5 -12h5q20 1 34 8.5t23 18t14.5 24t9.5 27.5l4 13h90q9 -5 14.5 -5.5t10.5 -0.5h2q19 0 34.5 8 t27 20t18 27t6.5 29q0 21 -12.5 34.5t-40.5 13.5z" />
<glyph unicode="&#xa6;" horiz-adv-x="205" d="M286 427l9 34q2 5 3 10.5t3 10.5l42 154q0 4 3 12.5t5 18.5q5 14 9 29.5t5 22.5q3 13 3 26q0 20 -7.5 31.5t-27.5 11.5q-2 0 -5 -0.5t-5 -0.5q-23 -5 -36 -12.5t-22 -20t-15 -31t-13 -45.5q-2 -6 -2.5 -12.5t-2.5 -14.5l-61 -217v2q-7 -17 -7 -34q0 -15 5.5 -24.5t14 -15 t18 -8t18.5 -2.5q15 0 32 19t32 57zM147 -83l56 204q3 14 9 29q3 14 7.5 29t6.5 29q3 13 3 29q0 18 -7 29t-27 11q-2 0 -5 -0.5t-5 -0.5q-23 -5 -36 -12.5t-21.5 -20t-14.5 -32t-14 -47.5q-2 -5 -3.5 -11.5t-3.5 -11.5h1l-60 -218v2q-7 -17 -7 -34q0 -14 5.5 -23.5 t13.5 -15.5t17.5 -8.5t18.5 -2.5q16 0 33 19.5t31 57.5z" />
<glyph unicode="&#xa7;" horiz-adv-x="388" d="M253 333q-4 -16 -4 -34q0 -54 51 -54q13 0 25 5t21 12.5t14.5 16t7.5 15.5q-1 7 -1.5 11.5t-0.5 11.5q0 9 3 21v3l2.5 15t3.5 18h64q10 0 19 5.5t16.5 13.5t12 17t5.5 17v-2q1 5 1 8v5q0 15 -7 23.5t-18 13t-25 6t-29 1.5q11 28 27 62t33 66l12 22q-3 6 -8.5 15.5t-13 18 t-17 15t-19.5 6.5q-15 -6 -44 -25.5t-64.5 -46.5t-73 -58t-69 -60t-53 -53t-23.5 -36q0 -2 -0.5 -4t-0.5 -4q0 -19 13.5 -36.5t27.5 -17.5h8q11 4 25.5 7.5t30 7t30 6.5t26.5 5q-1 -5 -2 -8.5t-2 -7.5q-1 -7 -2 -12.5t-2 -10.5zM311 478q-14 -1 -27.5 -4t-26.5 -7 q24 22 41 35t29 21q-4 -10 -7.5 -21.5t-8.5 -23.5z" />
<glyph unicode="&#xa8;" horiz-adv-x="410" d="M331 484q6 13 6 30t-9.5 29.5t-37.5 12.5q-18 0 -35 -6t-30.5 -16t-23 -21.5t-12.5 -22.5q-1 -3 -1.5 -6.5t-0.5 -8.5q0 -22 15.5 -39.5t41.5 -17.5q18 0 33 6.5t26 16.5t18 22t10 22v-1zM505 488q2 6 4.5 14t2.5 16q0 16 -9.5 28.5t-38.5 12.5q-18 0 -34.5 -6.5 t-30.5 -16t-23.5 -21.5t-12.5 -23q0 -3 -0.5 -6.5t-0.5 -8.5q0 -20 15 -38t40 -18q19 0 34 7t26 17t18 22t10 22v-1z" />
<glyph unicode="&#xa9;" horiz-adv-x="703" d="M796 380q12 43 19 84t7 79q0 43 -10.5 80.5t-33.5 65.5t-61.5 43.5t-93.5 15.5q-57 0 -114 -23t-110 -60.5t-100.5 -86.5t-85.5 -101t-65 -103.5t-39 -94.5q-11 -38 -16.5 -72t-5.5 -63q0 -100 52 -155t151 -55q78 0 157.5 35t148 96t121.5 142t79 173zM695 393 q-20 -74 -61 -140.5t-94.5 -117t-115 -80t-122.5 -29.5q-57 0 -82.5 32t-25.5 89q0 26 5 55.5t13 60.5q10 36 33 79t54 87t68.5 85t79 73t84 51.5t83.5 19.5q30 0 50 -9.5t32 -26t17.5 -39t5.5 -48.5q0 -33 -7 -69.5t-17 -72.5zM607 238q29 34 29 61q0 16 -11 25.5t-34 9.5 q-16 0 -27.5 -4.5t-19.5 -11t-13 -13.5t-8 -13q-8 -11 -23 -24t-35 -24.5t-43 -19.5t-46 -8q-15 0 -20.5 9.5t-5.5 22.5q0 8 3 20h-1q9 34 28.5 66t43 57t49 39.5t48.5 14.5t38 -4t19 -12q11 -7 20.5 -9.5t18.5 -2.5q24 0 42 13.5t18 36.5q0 24 -24 45q-23 23 -49.5 28.5 t-64.5 5.5q-45 0 -91 -22.5t-86.5 -60t-72 -86t-45.5 -101.5q-6 -24 -6 -49q0 -23 6 -43.5t19.5 -35.5t35 -24t52.5 -9q45 0 80 9t61.5 22.5t45 29t30.5 27.5z" />
<glyph unicode="&#xaa;" horiz-adv-x="347" d="M424 377l52 200q4 16 4 30q0 19 -6 31t-16 19t-22.5 9.5t-25.5 2.5q-41 0 -89.5 -9.5t-91.5 -35.5h1q-2 -1 -3.5 -1.5t-3.5 -1.5l1 1q-11 -5 -21 -11.5t-15 -26.5v1q-2 -4 -2 -8v-5q0 -15 7.5 -20.5t21.5 -5.5t31.5 6.5t23.5 9.5h-1q11 3 20.5 6t19.5 6q19 6 36 10.5 t36 4.5h4q3 0 4 1v-3l-7 -23q-50 -3 -94 -12t-79 -25.5t-59.5 -41t-36.5 -57.5q-5 -10 -5 -27q0 -15 5 -30t14 -27t21.5 -19.5t28.5 -7.5q41 0 81 13.5t69 24.5v-3q0 -13 8 -20t31 -7q26 0 39 12.5t18 38.5zM354 210q29 0 46.5 12.5t17.5 29.5q0 15 -17 27t-53 12 q-3 0 -6.5 0.5t-7.5 0.5q-5 0 -9.5 0.5t-8.5 0.5q-12 0 -22 -3h-125q-4 1 -13 1q-5 0 -13 -0.5t-13 -1.5t-7 -1h-4q-32 0 -48 -13t-16 -29q0 -15 15 -27t44 -12q2 0 10 -2q5 -1 9.5 -1.5t12.5 -0.5q5 0 10.5 1t10.5 4l123 1zM213 397h-8q-9 2 -10.5 4t-1.5 11l2 7h-1 q3 12 19.5 22.5t40.5 19t52.5 15.5t56.5 12l-3 -33q-2 -2 -18.5 -11t-38.5 -19.5t-46.5 -19t-43.5 -8.5z" />
<glyph unicode="&#xab;" horiz-adv-x="429" d="M311 468h-4q-15 0 -34 -10l-130 -80q-17 -7 -30.5 -19t-17.5 -28l1 2q-2 -5 -2 -8v-5q0 -15 7 -21t16 -12l-4 2l97 -117q1 -1 1.5 -2t1.5 -2q7 -10 14 -16t21 -9h11q10 0 20 8t21 30q4 8 4 18q0 9 -6 18.5t-20 23.5l-63 76l88 52q26 13 35.5 30t9.5 25v3 q-5 24 -12.5 31.5t-24.5 9.5zM483 452h-4q-8 0 -17 -2.5t-17 -7.5l-130 -80q-17 -6 -30.5 -18.5t-17.5 -28.5v1q-1 -5 -1 -12q0 -15 7 -21t16 -12l-4 2l97 -117l3 -3q7 -10 14 -16.5t21 -8.5h11q11 0 20 7.5t20 29.5q4 8 4 18q0 19 -25 43l1 -2l-64 77l87 53q26 12 35.5 29 t9.5 25v5q-5 23 -12 30t-24 9z" />
<glyph unicode="&#xac;" horiz-adv-x="923" d="M818 730l-9 -22q1 3 1 10q0 8 -4 13.5t-15 13.5h1q-11 8 -25 14t-28 10l-7.5 1.5t-8.5 0.5q-20 0 -31 -23v1q-10 -21 -21 -46.5t-23 -53.5q-5 -13 -10.5 -25.5t-11.5 -26.5q-10 -1 -19 -1t-20 -1q2 5 5 11.5t6 12.5q21 47 37 77q3 6 3 15q0 15 -19 27q-12 8 -26.5 14 t-26.5 10h1q-11 4 -20 4q-21 0 -30 -25q-2 -5 -4 -9t-4 -9q-2 8 -5 15.5t-7 15.5q-8 8 -16 12.5t-27 4.5q-25 -1 -56.5 -3.5t-65 -5.5t-66 -6.5t-57.5 -7.5q-11 -3 -17.5 -8t-6.5 -17q0 -6 1 -9q-1 0 1.5 -6t4.5 -9v2q2 -9 6 -18t10 -17l-1 1q14 -17 31 -17q6 0 9 0.5t7 1.5 q10 2 15 2q-11 -26 -23.5 -56t-24 -60t-21 -58t-15.5 -49v2q-4 -8 -4 -20q0 -22 19 -32h-1q-5 2 -9 2.5t-7 0.5q-20 0 -31 -22q-16 -29 -34.5 -69t-36 -81.5t-32.5 -80t-24 -65.5v1q-4 -7 -4 -19q0 -10 4 -18.5t10 -16.5l12 -10q4 -4 5.5 -5t5.5 -5q7 -5 15.5 -10t20.5 -5 q5 0 11 1t16 4l-1 -1q29 5 62 11.5t65 12.5q5 2 9 2.5t6 2.5q2 -4 11 -11q2 -2 9.5 -5.5t9.5 -5.5q4 -2 6.5 -3.5t6.5 -3.5q5 -2 10 -3t10 -1q8 0 14 4t14 15q2 4 4.5 7t4.5 7h-1q7 10 14.5 21t17.5 23q23 6 52 10t58 7q0 -2 -0.5 -4.5t-0.5 -4.5q-1 -11 -1.5 -20t-1.5 -18 q0 -20 6 -28.5t23 -12.5h-2q12 -5 24 -6t26 -1q20 0 26.5 6t9.5 22l2 26q2 -2 3 -3.5t3 -3.5q1 -1 0 -1l1 -1v1q12 -12 21.5 -20t24.5 -15q9 -5 16.5 -7.5t16.5 -2.5q8 0 14.5 1.5t16.5 3.5q18 4 38.5 10.5t41.5 15.5t40.5 19t34.5 22q20 14 32 32t12 41v6q0 14 -5 27 t-15 23q10 6 18 11.5t15 9.5q23 17 40 38t17 46v7q-2 25 -11 42t-23 32q-16 16 -44 21q2 1 4 1t5 1h-1q17 4 24 8.5t7 17.5q0 5 -1 10q-1 9 -3 18t-6 20q-5 11 -13 16.5t-23 5.5h-10q-16 -2 -30.5 -2.5t-28.5 -2.5q1 1 1 2t1 2l-1 -1q4 8 7 17q22 5 44 8.5t45 7.5l18 2 q17 4 24.5 8.5t7.5 18.5q0 5 -1 9q-1 10 -2.5 18.5t-6.5 19.5q-5 12 -14 16.5t-23 4.5h-6h-15t-15 -1l3 5q5 11 10.5 22l10.5 21q19 2 36 4l34 4q8 1 17 2t17 2q22 2 27.5 8t5.5 24q0 9 -1.5 17.5t-4.5 19.5q-9 27 -43 27q-52 -2 -103.5 -10t-90.5 -17zM483 677q3 0 5.5 0.5 t4.5 0.5q-5 -11 -9.5 -23t-9.5 -25q-19 -51 -39 -102t-39 -93q-5 -17 -5 -23q0 -19 19 -29l-1 1q9 -7 21 -10.5t25 -7.5q1 0 1.5 -0.5t2.5 -0.5h-2q3 -1 6.5 -1.5t8.5 -0.5q11 0 16 5t10 15t9 21.5t9 23.5q5 14 11.5 28.5t13.5 31.5q7 2 14 2t15 1q4 1 7 1t8 1 q-8 -20 -13 -36.5t-8 -27.5q-4 -8 -4 -18q0 -20 19 -30q-15 3 -36 3h-6q-22 0 -34 -7.5t-23 -18.5q-23 -28 -50.5 -65.5t-55.5 -78t-54.5 -80t-46.5 -71.5q-2 4 -3 8t-3 9q-9 12 -17 16.5t-22 4.5h-5q-17 -2 -31 -3t-29 -3q26 58 54.5 118t52.5 104q3 6 3 14q0 9 -4.5 15 t-13.5 12q-8 3 -13 7q10 -3 20 -3q11 0 17.5 4.5t10.5 17.5q13 33 28.5 69.5t31.5 74t32.5 74t31.5 70.5l26 2t24 2h9q5 0 10 1zM350 222q15 14 35.5 38t31.5 44q7 19 7 24v3q0 11 -5 19q-6 7 -14 14t-16 12l1 -1q-11 9 -23 9q-15 0 -28 -18q-6 -10 -15 -23t-19 -26.5 t-19.5 -26.5t-18.5 -25q-4 -5 -6.5 -9.5t-5.5 -7.5q-3 -5 -5 -9.5t-2 -9.5q0 -17 23 -24q1 0 3 -0.5t4 -0.5q4 -1 9 -1h10q7 0 11 1q11 0 20.5 4.5t20.5 12.5zM806 701q0 1 1 1l-96 -250q-4 -11 -4 -19q0 -10 3 -17.5t8 -14.5v1q6 -10 11.5 -14.5t11.5 -7.5q2 -2 4.5 -3.5 t4.5 -3.5h-1l2 -2q-29 -9 -51 -18q-11 -42 -25 -83.5t-28 -81.5q-5 -13 -9 -26t-9 -25q8 53 17 101.5t18 83.5l-1 -1q2 5 2 8v5q0 20 -18 29q16 3 22 23l-1 -2q15 39 33 82.5t37 85.5t36.5 80.5t31.5 68.5zM818 277q40 14 60 14h8q-5 -10 -28 -26t-61 -30q12 25 21 42z M791 135q17 0 18 -1q-2 -10 -22 -21.5t-54 -21.5q2 3 3.5 7t3.5 9t5 10t5 11q12 3 22.5 5t18.5 2zM481 179q11 15 21.5 30t21.5 29q-2 -16 -4.5 -31.5t-4.5 -32.5q-11 -1 -20.5 -1.5t-20.5 -1.5q5 5 7 8z" />
<glyph unicode="&#xad;" horiz-adv-x="356" d="M378 181q29 0 48 17t19 35q0 17 -15 29.5t-49 12.5q-3 0 -6.5 0.5t-8.5 0.5q-4 0 -8.5 0.5t-8.5 0.5q-12 0 -21 -3h-124q-4 1 -13 1q-5 0 -12.5 -0.5t-13.5 -0.5q-4 -1 -7 -1h-4q-33 0 -50.5 -17t-17.5 -36q0 -17 13 -29.5t41 -12.5h4t6 -1q5 -1 9.5 -1.5t12.5 -0.5 q5 0 10.5 1t10.5 3l121 1z" />
<glyph unicode="&#xae;" horiz-adv-x="483" d="M604 495q3 13 4 25.5t1 24.5q0 51 -20.5 83t-49.5 50t-60 24.5t-53 6.5q-53 0 -104.5 -25t-94.5 -66t-73.5 -92.5t-40.5 -103.5q-4 -20 -4 -44q0 -41 15 -71.5t39 -50.5t54 -30t60 -10q39 0 89.5 15.5t98 49.5t86 86.5t53.5 127.5zM531 501q-9 -46 -29.5 -80t-46.5 -60 q10 14 21 41q-32 11 -53.5 18t-39.5 14q39 18 70 43.5t39 60.5q1 5 1 17q0 25 -14 41t-38 18q-3 1 -8 1h-10q-15 0 -34.5 -3t-40.5 -10.5t-41 -19t-36 -29.5q-6 -29 -10.5 -50l-7.5 -35q-1 -4 -1.5 -7t-1.5 -7q-2 -6 -2 -11q0 -4 -2 -9q-4 -13 -5 -22l-14 -70 q0 -2 -0.5 -3.5t-0.5 -3.5q0 -15 10.5 -23t24.5 -8q17 0 33.5 10.5t21.5 30.5l5 24l31 -11q18 -9 33 -14.5t28 -5.5q9 0 17 3q-37 -27 -75.5 -40t-68.5 -13q-19 0 -37.5 6t-33.5 18t-24 30.5t-9 43.5q0 14 4 31q8 40 31 79.5t55 70.5t70 50t76 19q12 0 31.5 -4t38.5 -15.5 t33 -32t14 -52.5q0 -15 -4 -31zM345 497l3 15l9 3q11 3 22.5 6.5t21.5 5.5q-8 -7 -23.5 -15t-32.5 -15z" />
<glyph unicode="&#xaf;" horiz-adv-x="355" d="M411 393q30 0 49 16.5t19 35.5q0 16 -15 28t-49 12q-40 1 -70 1h-52q-45 0 -63 -0.5t-24 -0.5h-5q-34 0 -51 -16.5t-17 -34.5q0 -17 13 -29t41 -12h224z" />
<glyph unicode="&#xb0;" horiz-adv-x="223" d="M348 522q5 18 5 31q0 26 -15 44t-48 18q-31 0 -57.5 -12.5t-47.5 -31.5t-35 -42.5t-19 -44.5q-1 -5 -1.5 -11.5t-0.5 -13.5q0 -25 14.5 -42t50.5 -17q24 0 49 10t46.5 26.5t37.5 38.5t22 47h-1zM273 523q-5 -17 -19.5 -30t-31.5 -13v1q0 3 1 6h-1q5 14 18.5 29.5 t33.5 15.5v-1q0 -4 -1 -8z" />
<glyph unicode="&#xb1;" horiz-adv-x="390" d="M415 402h-57l14 47q7 8 8 17v1q0 2 1 3q1 2 1 3q0 2 1 3q1 5 1.5 10.5t0.5 10.5q0 19 -10.5 28t-25.5 9q-17 0 -33 -12t-22 -33q-1 -3 -2 -5l-2 -4q-6 -12 -6 -23v-1l-16 -54h-56q-4 2 -9 2q-9 0 -19 -2l-3 -1q-29 0 -46 -17t-17 -36q0 -14 10.5 -25t31.5 -11q2 0 6 -1 q8 -2 19 -2q9 0 13 2h43l-13 -51q-4 -6 -6 -14.5t-4 -15.5l1 2q-2 -5 -2 -7v-3q-2 -7 -2.5 -11t-0.5 -6q0 -20 11 -27.5t25 -7.5q17 0 33.5 10.5t21.5 28.5q1 3 2.5 9.5t3.5 14.5q2 11 5 19.5t3 9.5l14 49h59q5 -2 13 -2q13 0 16 1q5 2 6 2h1q28 0 46 19t18 38q0 15 -9 24.5 t-30 9.5zM356 165h-204q-6 2 -10 2q-10 0 -18 -2l-4 -1q-29 0 -46 -17t-17 -35q0 -15 10.5 -26t31.5 -11q2 0 6 -1q3 -1 8 -1h11h6q4 0 8 2h197q4 -2 12 -2h10q6 0 9 1h-2q1 0 2 0.5t2 0.5q13 0 24.5 5.5t20 13.5t13.5 18.5t5 19.5q0 15 -9 24.5t-30 9.5z" />
<glyph unicode="&#xb2;" horiz-adv-x="332" d="M354 436q50 46 75.5 87.5t29.5 61.5v1q1 4 1 9v9q0 32 -20 51.5t-58 19.5q-20 0 -42.5 -4t-44.5 -15q-18 -8 -41.5 -22t-44.5 -29.5t-36 -32.5t-18 -31v-8q0 -10 5 -19t11.5 -16t14.5 -11t14 -4q16 2 32 12t42 30q14 12 32.5 23t32.5 16q-12 -16 -39 -44.5t-58 -59.5 t-60.5 -58.5t-45.5 -40.5q-36 -32 -47.5 -46.5t-13.5 -19.5q-1 -3 -1 -7v-7q0 -17 10.5 -28t30.5 -11q10 2 13.5 2.5t14.5 3.5l-1 -1q21 5 53 10t63 5q36 0 55.5 -1.5t27.5 -2.5h7q33 0 46.5 15t17.5 34v-1q1 4 1 15q0 29 -25.5 40.5t-81.5 11.5h-9t-9 -1z" />
<glyph unicode="&#xb3;" horiz-adv-x="347" d="M481 586q1 5 1.5 9t0.5 9q0 40 -29 62.5t-68 22.5q-23 0 -60.5 -12.5t-74.5 -32t-65 -42.5t-32 -43v-9q0 -17 10 -30t27 -18q-8 -5 -11.5 -13.5t-5.5 -20.5v1q-1 -3 -1 -8v-8q0 -20 9.5 -36t27.5 -16h5q4 0 7 2h7q1 1 -3 1q33 11 58 11q13 0 21.5 -2.5t8.5 -7.5v-2 q-4 -17 -25 -30.5t-54 -13.5q-16 0 -27 1.5t-12 6.5q-3 11 -10 18t-15 11t-14.5 5.5t-9.5 1.5q-20 0 -39 -9.5t-24 -35.5l1 2q-2 -5 -2 -8v-6q0 -19 11 -35.5t30.5 -28.5t45.5 -19t56 -7q34 0 66.5 8.5t59.5 26t46 43.5t25 61q2 6 2 12v14q0 38 -23 66q35 22 54.5 44.5 t24.5 53.5v1zM363 583q-5 -10 -18.5 -20t-31 -19.5t-37.5 -17t-38 -12.5q35 31 71 49.5t54 19.5z" />
<glyph unicode="&#xb4;" horiz-adv-x="467" d="M281 437h2q8 0 16.5 3.5t28.5 22.5q15 15 54 38q18 12 30.5 20.5t22.5 18t18.5 21.5t17.5 29q7 15 7 29q0 30 -30 30q-11 0 -27 -5.5t-33 -15.5q-15 -9 -32 -23.5t-34 -31.5t-32 -35t-26 -33q-18 -26 -18 -38t7.5 -17.5t22.5 -11.5z" />
<glyph unicode="&#xb6;" horiz-adv-x="471" d="M492 611q-53 0 -113 -20t-115 -57.5t-98 -92.5t-61 -125q-6 -20 -8.5 -36.5t-2.5 -31.5q0 -53 28 -82.5t83 -29.5h15q8 0 15 1l-56 -223q-3 -12 -3 -25q0 -23 10.5 -34.5t27.5 -11.5h6t8 2l-2 -1q17 4 29.5 12.5t22.5 22.5t18.5 36t17.5 54l143 531h9q1 0 2.5 0.5 t3.5 0.5t5.5 -1.5t5.5 -6.5l-157 -570v1q-5 -14 -5 -28q0 -23 11 -34t28 -11h5q3 0 8 2l-2 -1q18 4 30 12t22 22.5t18.5 36.5t17.5 54l145 566l-1 -1q2 5 2 7v6q0 18 -12.5 29t-30.5 17t-37.5 8t-32.5 2z" />
<glyph unicode="&#xb7;" horiz-adv-x="178" d="M238 272q2 8 4 16.5t2 16.5q0 20 -9.5 33.5t-38.5 13.5q-19 0 -36.5 -7t-31.5 -18t-24 -24.5t-13 -26.5v2q-2 -5 -2.5 -10t-0.5 -10q0 -25 16.5 -45t42.5 -20q19 0 34.5 8t27 20t19 25.5t10.5 25.5z" />
<glyph unicode="&#xb8;" horiz-adv-x="414" d="M261 -53l25 55q1 4 1.5 7.5t-0.5 2.5q2 10 5 20t3 17q0 15 -8 26t-31 11q-32 0 -50 -25.5t-27 -57.5v1l-13 -44q-4 -6 -6 -10t-3.5 -7.5t-2.5 -8t-2 -11.5q-1 -5 -1 -15q0 -14 5 -25t22 -14q2 0 4 -0.5t4 -0.5q20 0 41.5 23.5t33.5 56.5v-1z" />
<glyph unicode="&#xb9;" horiz-adv-x="160" d="M147 517l-33 -130q-2 -9 -4 -24.5t-4.5 -31.5t-4.5 -30t-2 -21q0 -9 5.5 -17.5t16.5 -13.5q7 -6 12.5 -7t12.5 -1h2q26 0 34 11.5t13 31.5l12 68q11 52 20.5 91.5t17.5 68t14 48t11 32.5v-1q1 5 3 11.5t3 6.5q1 4 3 9.5t0 1.5l1 5v5q0 15 -7 24.5t-16 15t-16.5 7 t-8.5 1.5q-12 0 -27 -7.5t-29.5 -17t-25.5 -19.5t-14 -14v-1v-13q0 -26 24 -39q-2 -4 -2.5 -7.5t-1.5 -6.5q-5 -17 -6 -24t-3 -12z" />
<glyph unicode="&#xba;" horiz-adv-x="374" d="M494 505q4 12 5.5 23.5t1.5 22.5q0 40 -22 68t-74 28q-48 0 -90 -19.5t-75 -50t-55.5 -67.5t-31.5 -71q-5 -18 -5 -38q0 -38 22 -65t76 -27q39 0 79 15.5t73.5 42.5t59 62.5t36.5 75.5zM361 209q29 0 46 13t17 29t-16.5 27.5t-52.5 11.5q-4 0 -7 0.5t-8 0.5t-9 0.5 t-9 0.5t-10.5 -0.5t-10.5 -1.5h-139h-13t-13 -1t-8 -1h-3q-32 0 -48 -13.5t-16 -29.5q0 -15 15 -27t44 -12l10 -2q5 -1 9.5 -1.5t12.5 -0.5q5 0 10.5 1t10.5 4l123 1zM406 513q-6 -23 -20.5 -44.5t-34 -38.5t-42.5 -27t-47 -10q-13 0 -17.5 6.5t-4.5 15.5q0 7 2 17 q6 20 18.5 42.5t31 41t42.5 31t53 12.5q13 0 17.5 -6.5t4.5 -17.5q0 -5 -1 -10.5t-3 -12.5z" />
<glyph unicode="&#xbb;" horiz-adv-x="430" d="M162 452q-15 -1 -25 -8t-21 -28q-4 -6 -4 -15q0 -11 6 -24t23 -23l-1 1l63 -50l-95 -78h2q-29 -19 -36.5 -31t-7.5 -26q2 -25 10 -33.5t20 -8.5h10q16 2 26 9.5t21 17.5v-1l143 116q12 6 20 13.5t12 26.5q0 2 0.5 4.5t0.5 4.5q0 15 -9 25.5t-22 16.5l-91 74 q-28 17 -41 17h-4zM340 468q-14 -2 -23.5 -8.5t-22.5 -27.5q-4 -8 -4 -16q0 -10 6 -23t23 -23l63 -49l-96 -78h1q-26 -17 -34 -28.5t-8 -25.5v-3q2 -25 9 -34t20 -9h10q16 3 25.5 10t20.5 18v-1l144 116q12 6 20 13.5t12 25.5v10q0 15 -8.5 25.5t-21.5 16.5l-101 80 q-16 11 -31 11h-4z" />
<glyph unicode="&#xbc;" horiz-adv-x="615" d="M432 89q-4 -16 -4 -35q0 -55 52 -55q14 0 26 5.5t21 13t14.5 16.5t7.5 16q-1 5 -1 10v10q0 6 0.5 11t2.5 13v1q0 2 1 4q1 5 2.5 13.5t3.5 17.5h63q10 0 20 5.5t17.5 14t12.5 18t6 17.5l-1 -2q2 5 2 7v6q0 15 -7 24t-18.5 13.5t-26.5 6t-30 1.5q13 29 29 63.5t33 66.5 l13 23q-3 6 -8.5 16t-13.5 19t-17.5 15.5t-19.5 6.5q-15 -6 -45 -26t-66.5 -47.5t-75 -59.5t-71 -61.5t-54 -53.5t-24.5 -37q0 -2 -0.5 -4.5t-0.5 -4.5q0 -10 4 -19.5t10 -17.5t13.5 -13t14.5 -5h8q12 4 26.5 7.5t30.5 7t30.5 6.5t26.5 5l-2 -10l-2 -10v1q-2 -6 -2 -11 t-1 -10v1zM582 604q1 5 1 12q0 17 -8.5 26.5t-29.5 9.5q-36 0 -52.5 -14.5t-24.5 -30.5l1 3q-17 -21 -45.5 -58t-63.5 -83.5t-72.5 -97.5t-72 -98.5t-62.5 -87.5t-43 -65h1q-31 -46 -35 -67l1 2q-2 -5 -2 -8v-5q0 -36 48 -36q12 0 22 6t19 14.5t16.5 18.5t13.5 19 q1 3 4.5 8.5t7.5 11.5t7 11t5 7q13 21 34.5 50.5t47.5 63t55 70.5t58 73q45 58 85.5 109.5t63.5 87.5v2q6 10 12 22.5t8 23.5zM144 506l-34 -125q-2 -10 -5 -26.5t-6 -34t-5.5 -33.5t-2.5 -24v-1q0 -10 7 -17.5t16 -11.5q8 -7 14.5 -8t14.5 -1h2q15 0 24 3t14.5 9t8.5 14 t5 18l14 70q12 54 22.5 94t19.5 69t16 49t12 34q5 11 7 18t3 10l1 5v5q0 16 -8 25.5t-18 14.5t-18.5 7t-9.5 2q-13 0 -29.5 -7.5t-32 -17.5t-27.5 -20t-16 -14v-1v-1q-1 -5 -1 -12q0 -27 27 -40q-8 -26 -10.5 -35.5t-4.5 -15.5v-1zM492 236q-15 -1 -29 -3.5t-27 -6.5 q25 23 42.5 36t29.5 21q-4 -10 -8 -21.5t-8 -25.5z" />
<glyph unicode="&#xbd;" horiz-adv-x="616" d="M579 185q25 23 44.5 46t33 43t20.5 36.5t9 26.5v3q1 5 1.5 9t0.5 9q0 33 -22 52.5t-60 19.5q-21 0 -43 -4.5t-44 -15.5q-19 -8 -43 -22t-45.5 -30.5t-37 -33.5t-18.5 -32v-7q0 -10 5 -19.5t12 -16.5t15 -11.5t14 -4.5q16 2 33 12.5t43 30.5q15 12 33.5 23t32.5 16 q-12 -17 -40 -46t-60 -60t-61.5 -59t-45.5 -42q-18 -16 -29.5 -27t-18.5 -18t-9.5 -11t-3.5 -6q-3 -9 -3.5 -12.5t-0.5 -5.5q0 -18 10 -29.5t33 -11.5q10 2 13.5 2.5t14.5 2.5l-1 -1q22 5 55 10.5t64 5.5q38 0 57.5 -1.5t27.5 -2.5h8q34 0 48 15.5t18 34.5v-1q1 4 1 15 q0 30 -26.5 42t-83.5 12h-10q-4 0 -9 -1zM582 605q1 4 1 12q0 16 -8.5 25.5t-29.5 9.5q-35 0 -52 -14.5t-25 -30.5l1 3q-17 -20 -45.5 -57.5t-63 -83.5t-72.5 -97t-72 -99t-62 -88t-44 -65h1q-31 -46 -35 -67l1 2q-2 -5 -2 -8v-5q0 -36 48 -36q12 0 22 6t19 14.5t16.5 18.5 t13.5 19q1 3 5 8.5t7.5 11.5t7 11.5t4.5 7.5q14 21 35.5 50t47.5 63t54.5 70.5t57.5 72.5q46 58 86 110t63 88v2q6 10 12.5 22.5t7.5 23.5zM144 507l-34 -126q-2 -10 -5 -26.5t-6 -34t-5 -33.5t-2 -24q0 -11 6.5 -18t15.5 -12q8 -7 14.5 -8t14.5 -1h2q29 0 38.5 12t13.5 32 l14 70q12 54 22.5 94t19.5 69t16 49t12 34q8 20 10 28l1 6v5q0 16 -8 25.5t-18 14.5t-18.5 7t-9.5 2q-13 0 -29.5 -7.5t-32 -17.5t-27.5 -20t-16 -15l1 1q0 -1 -1 -1v-1v-12q0 -13 6 -23.5t20 -16.5q-8 -26 -10.5 -36t-4.5 -15v-1z" />
<glyph unicode="&#xbe;" horiz-adv-x="784" d="M497 585q2 10 2 18q0 40 -29.5 63.5t-70.5 23.5q-24 0 -63 -13t-77 -33t-67 -43.5t-33 -43.5v-8q0 -18 10.5 -32t27.5 -19q-12 -8 -18 -35q0 -3 -0.5 -7t-0.5 -7q0 -21 10.5 -37.5t28.5 -16.5q8 0 12 2q1 0 2.5 0.5t2.5 0.5q31 11 59 11q14 0 23 -2.5t9 -7.5q0 -2 -1 -2 v-1v1q-4 -17 -25 -31t-56 -14q-17 0 -28.5 2t-13.5 6l1 -1q-3 12 -9.5 19.5t-14.5 11.5t-15.5 5.5t-10.5 1.5q-21 0 -40.5 -10t-24.5 -36l1 2q-2 -5 -2 -9v-6q0 -19 11.5 -35.5t31.5 -29t47 -20t58 -7.5q34 0 67.5 9t61.5 26.5t47.5 44t26.5 62.5q3 13 3 29q0 37 -24 66 q35 23 55.5 46t25.5 55v1zM598 89q-3 -18 -3 -35q0 -55 53 -55q15 0 25 4.5t16.5 11.5t9.5 15.5t5 15.5l-1.5 12t-0.5 12q0 5 0.5 9.5t2.5 11.5q1 6 3.5 16.5t5.5 21.5l76 1q10 0 20 5.5t17.5 14t12.5 18t7 17.5l-1 -2q2 5 2 8v5q0 16 -7.5 25t-19.5 13.5t-27.5 6t-31.5 1.5 l-12 -1q12 30 23 48t24 35q7 11 14 21t17 27l12 23q-3 6 -8.5 15.5t-13.5 18.5t-17.5 15.5t-20.5 6.5q-15 -6 -45 -26t-67 -47.5t-76 -59t-71.5 -61.5t-54.5 -54t-24 -37q0 -2 -0.5 -4.5t-0.5 -4.5q0 -20 15 -37t31 -17q28 7 62 14.5t57 10.5q-1 -5 -2 -9.5t-2 -9.5 q-2 -5 -2.5 -10.5t-1.5 -10.5v1zM751 605v12q0 16 -8.5 26t-29.5 10q-35 0 -52 -14t-25 -29q-17 -20 -46 -57.5t-64 -83.5t-73 -97t-72.5 -99t-63 -88t-44.5 -65h1q-31 -47 -34 -67l1 2q-2 -5 -2 -8v-5q0 -36 48 -36q12 0 22.5 6t19.5 14.5t16.5 18.5t13.5 19q1 3 4.5 8.5 t7.5 11.5t7 11.5t5 7.5q14 21 35.5 50t47.5 63t55 70.5t58 72.5q47 58 87.5 110t63.5 88v2q6 10 12.5 22.5t8.5 23.5zM374 581q-5 -10 -18.5 -20t-32 -19.5t-39 -17.5t-38.5 -13q36 31 72.5 50t55.5 20zM647 235q-13 -1 -22.5 -3t-19.5 -4q18 16 34 29.5t31 24.5 q-14 -22 -23 -47z" />
<glyph unicode="&#xbf;" horiz-adv-x="500" d="M50 -43q-3 -10 -4 -17.5t-1 -14.5q0 -24 10.5 -44t28 -35t41 -23t49.5 -8q31 0 63 9.5t63 24.5t60.5 33.5t55.5 36.5q24 17 44 39t27 44q2 8 3 14t1 11q0 22 -11.5 33t-30.5 11q-20 0 -47.5 -14.5t-57.5 -44.5h1q-40 -32 -77 -55.5t-68 -23.5q-14 0 -24.5 3.5t-10.5 8.5 v3q4 17 37.5 42t78.5 54q31 21 63 43t60 46t48.5 49.5t29.5 54.5l1 4q1 0 2 4v-1q2 5 3 10.5t1 14.5q2 10 2 18q0 25 -15 38.5t-52 13.5q-18 0 -28 -14t-23 -38q-9 -17 -21.5 -37.5t-32 -43t-48 -45t-70.5 -43.5h1q-25 -12 -49.5 -29t-45 -38t-36 -44.5t-22.5 -49.5h1z M361 414q0 -23 11.5 -36.5t37.5 -13.5q37 0 67.5 17t43.5 67q4 13 4 22q0 30 -20.5 42.5t-44.5 12.5q-37 0 -60.5 -22t-34.5 -61q-2 -7 -3 -13.5t-1 -14.5z" />
<glyph unicode="&#xc0;" horiz-adv-x="568" d="M606 92q-3 35 -11 83.5t-18 103.5q-8 42 -15.5 85t-13.5 84.5t-10.5 79t-5.5 67.5v9q0 32 -13.5 52.5t-36.5 20.5q-18 0 -39 -15.5t-42 -52.5l1 1l-355 -505q-4 -5 -9.5 -13.5t-11 -19t-9 -22t-3.5 -21.5q0 -17 10.5 -29.5t39.5 -14.5h4q24 0 44.5 25.5t44.5 63.5l-1 -1 l121 177l19.5 -2.5t47.5 -5.5t58 -5.5t51 -3.5l4 -16t4 -14l-1 1q4 -17 6.5 -28t4 -19.5t2.5 -16.5t3 -18q3 -17 8.5 -40.5t12.5 -45t14.5 -36.5t13.5 -15h7q41 0 57.5 28t16.5 66v13zM539 677q22 8 33 15.5t11 25.5q0 13 -7 30v-1q-5 18 -14 38t-20.5 39.5t-24 36 t-24.5 26.5q-33 25 -58 25q-20 0 -31.5 -14t-11.5 -43v-9q3 -18 7.5 -31t11.5 -23.5t17 -20t25 -22.5q34 -28 41 -40q13 -23 25 -27.5t17 -4.5h3zM439 346l-103 -7l90 136q2 -32 5 -67.5t8 -61.5z" />
<glyph unicode="&#xc1;" horiz-adv-x="570" d="M608 92q-3 35 -11 83.5t-18 103.5q-8 42 -15.5 85t-13.5 84.5t-10.5 79t-5.5 67.5v9q0 32 -14 52.5t-37 20.5q-18 0 -38.5 -15.5t-42.5 -52.5l1 1l-356 -505q-4 -5 -9.5 -13.5t-11 -19t-9 -22t-3.5 -21.5q0 -17 10.5 -29.5t39.5 -14.5h4q24 0 44.5 25.5t45.5 63.5l-1 -1 l121 177l19.5 -2.5t47.5 -5.5t58.5 -5.5t51.5 -3.5q2 -8 3.5 -16t3.5 -14l-1 1q4 -17 6.5 -28t4.5 -19.5t3 -16.5t3 -18q3 -17 8.5 -40.5t12 -45t14 -36.5t13.5 -15h8q41 0 57.5 28t16.5 66v13zM439 677h3q8 0 17.5 4t30.5 25q8 8 22.5 18t35.5 24q19 13 33 22.5t25 20 t20 23.5t19 32q7 17 7 33q0 33 -32 33q-12 0 -29 -6.5t-36 -17.5q-16 -9 -34.5 -25.5t-36.5 -35t-34.5 -38.5t-28.5 -37q-19 -28 -19 -42q0 -13 8 -19t25 -13zM440 346l-103 -7l91 136q2 -32 5 -67.5t7 -61.5z" />
<glyph unicode="&#xc2;" horiz-adv-x="570" d="M608 92q-3 35 -11 83.5t-18 103.5q-8 42 -15.5 85.5t-13.5 85t-10.5 78.5t-5.5 67v10q0 32 -14 52t-37 20q-18 0 -38.5 -15.5t-42.5 -51.5l1 1l-356 -506q-4 -5 -9.5 -13.5t-11 -19t-9 -22t-3.5 -21.5q0 -17 10.5 -29.5t39.5 -14.5h4q24 0 44.5 25.5t45.5 63.5l-1 -1 l121 177l19.5 -2t47.5 -5t58.5 -5.5t51.5 -3.5q2 -9 3.5 -17t3.5 -13h-1q4 -17 6.5 -28t4.5 -19.5t3 -16.5t3 -18q3 -17 8.5 -40.5t12 -45t14 -36.5t13.5 -15h8q41 0 57.5 28t16.5 66v13zM648 726q2 5 2 8v5q0 7 -1.5 12.5t-3.5 13.5l-60 117q-3 19 -15 32t-31 13 q-20 0 -29 -7.5t-17 -18.5l-144 -124q-3 -3 -4 -3q-11 -8 -19.5 -16.5t-13.5 -22.5l-2 -8v-7q0 -11 8.5 -19t29.5 -14h-1q5 -2 12 -2q11 0 23.5 7t31.5 26h-1l96 83l38 -76q8 -24 23 -32t25 -8q3 0 6.5 0.5t6.5 2.5q20 8 28.5 16.5t11.5 22.5v-1zM440 346l-103 -7l91 136 q2 -32 5 -67.5t7 -61.5z" />
<glyph unicode="&#xc3;" horiz-adv-x="571" d="M609 92q-4 34 -12 83t-18 103q-8 42 -15.5 85t-13.5 84.5t-10.5 78.5t-5.5 67v10q0 32 -13.5 52t-36.5 20q-18 0 -39 -15.5t-43 -51.5h1l-356 -504q-4 -5 -9.5 -13.5t-11 -18.5t-9 -21.5t-3.5 -21.5q0 -17 10.5 -29t39.5 -14h4q24 0 44.5 25t45.5 62l-1 -1l121 177 l19.5 -2t47.5 -5t58.5 -5.5t51.5 -3.5q2 -9 4 -16.5t4 -13.5l-1 1q4 -17 6.5 -28t4 -19.5t2.5 -16.5t3 -18q3 -17 8.5 -40.5t12.5 -44.5t14.5 -36t13.5 -15h7q41 0 58 27.5t17 65.5v13zM658 796q0 1 0.5 2t0.5 2q0 14 -12 24t-29 10q-11 0 -22.5 -5.5t-19.5 -17.5 q-2 -2 -3.5 -6t-2.5 -8l-8.5 -17t-11.5 -9q-5 0 -7.5 4.5t-5.5 10.5q-7 15 -18.5 28.5t-37.5 13.5q-16 0 -37.5 -7.5t-41.5 -19.5t-35.5 -27.5t-20.5 -31.5q-2 -4 -2 -7v-5q0 -15 11 -26t31 -11q13 0 24 8t22 19q8 7 15 13t12 6l6 -10h-1q4 -6 9 -13t12.5 -13t18.5 -10 t27 -4q23 0 42.5 4.5t35.5 16t28 31.5t20 51zM441 345l-104 -7l91 135q2 -31 5 -66.5t8 -61.5z" />
<glyph unicode="&#xc4;" horiz-adv-x="571" d="M609 92q-3 34 -11 83t-18 103q-8 42 -15.5 85t-13.5 84.5t-10.5 78.5t-5.5 67v10q0 32 -14 52.5t-37 20.5q-18 0 -39 -16t-42 -52l1 1l-357 -505q-4 -5 -9.5 -13.5t-11 -18.5t-9 -21.5t-3.5 -21.5q0 -17 10.5 -29t39.5 -14h4q24 0 44.5 25t45.5 62l-1 -1l121 177l19.5 -2 t48 -5t58.5 -5.5t51 -3.5q2 -9 4 -16.5t4 -13.5l-1 1q4 -17 6.5 -28t4 -19.5t2.5 -16.5t3 -18q3 -17 9 -40.5t12.5 -44.5t14 -36t13.5 -15h8q41 0 57.5 27.5t16.5 65.5v13zM668 765q2 8 4 17t2 18q0 19 -10 34t-39 15q-19 0 -36.5 -7.5t-32 -19t-25 -25t-13.5 -26.5 q0 -3 -0.5 -7t-0.5 -10q0 -26 16 -46.5t43 -20.5q19 0 35 8t27.5 19.5t19 25.5t10.5 26v-1zM486 761q6 15 6 34q0 20 -10 35t-39 15q-19 0 -36.5 -7.5t-32 -19t-24.5 -25.5t-13 -27q-1 -3 -1.5 -6t-0.5 -10q0 -26 16 -46.5t43 -20.5q19 0 34.5 8t27 20t19.5 25.5t11 25.5v-1 zM441 345l-103 -7l91 136q2 -32 4.5 -67.5t7.5 -61.5z" />
<glyph unicode="&#xc5;" horiz-adv-x="570" d="M644 808q3 9 4 18t1 17q0 28 -16 48t-50 20q-33 0 -62.5 -14t-52 -35.5t-37.5 -47t-21 -48.5q-3 -14 -3 -28q0 -25 13 -43.5t45 -21.5q-14 -5 -30 -20.5t-33 -43.5l1 1l-356 -505q-4 -5 -9.5 -13.5t-11 -19t-9 -22t-3.5 -21.5q0 -17 10.5 -29.5t39.5 -14.5h4 q24 0 44.5 25.5t45.5 63.5l-1 -1l121 177l19.5 -2.5t47.5 -5.5t58.5 -5.5t51.5 -3.5q2 -8 3.5 -16t3.5 -14l-1 1q4 -17 6.5 -28t4.5 -19.5t3 -16.5t3 -18q3 -17 8.5 -40.5t12 -45t14 -36.5t13.5 -15h8q41 0 57.5 28t16.5 66v13q-3 35 -11 83.5t-18 103.5q-8 42 -15.5 85 t-13.5 84.5t-10.5 79t-5.5 67.5v9q0 27 -10 45.5t-27 24.5q25 4 48.5 16t43.5 30t35 40.5t21 47.5h-1zM440 346l-103 -7l91 136q2 -32 5 -67.5t7 -61.5zM563 809q-5 -18 -20.5 -33t-33.5 -15q-1 0 -1 3q0 2 0.5 4t0.5 4q5 15 19.5 30.5t34.5 15.5q1 0 1 -1q0 -4 -1 -8z" />
<glyph unicode="&#xc6;" horiz-adv-x="958" d="M991 57q2 7 2.5 12t0.5 10q0 23 -16 32.5t-47 9.5h-15l-268 -22l46 163l215 23q5 1 10.5 1.5t10.5 0.5q24 0 45.5 9.5t31.5 42.5v1q5 12 5 18q0 17 -13.5 30t-53.5 13h-13q-6 0 -13 -1l-192 -24q9 33 16 55t12 37t8.5 24.5t5.5 16.5l232 15q5 0 10.5 0.5t10.5 0.5 q22 1 38 2t27.5 6.5t19 16.5t13.5 31v-1q2 6 2.5 10.5t0.5 8.5q0 25 -17.5 33.5t-44.5 8.5q-9 0 -18 -0.5t-18 -1.5q-4 0 -8 -0.5t-7 -0.5q-88 -6 -137 -8.5t-78 -2.5h-66q-20 0 -43 -8t-34 -19l-595 -522q-1 -2 -3.5 -4t-4.5 -4h1q-9 -8 -19.5 -18t-20 -21t-16 -22 t-6.5 -20q0 -13 9 -21.5t31 -9.5h4q20 0 49.5 21.5t67.5 53.5l-1 -1q3 2 5.5 4.5t5.5 4.5l211 178h190l-28 -103q-2 -5 -3.5 -9.5t-3.5 -9.5v1q-7 -20 -11 -36t-4 -30q0 -23 13.5 -36t50.5 -13h9q5 0 9 1h-1l309 22q25 0 42 5t27.5 12.5t15.5 17t7 18.5zM610 406 q-5 -19 -9.5 -38t-10.5 -37l-115 -18l144 138l-2 -17q-2 -8 -3.5 -14.5t-3.5 -13.5z" />
<glyph unicode="&#xc7;" horiz-adv-x="547" d="M294 -50q7 17 12 28q38 8 75.5 25t71 38.5t62 46.5t47.5 49l-1 -1q21 24 21 44q0 18 -12.5 27t-32.5 9q-21 0 -47.5 -11.5t-47.5 -36.5q-9 -13 -28 -27.5t-41.5 -27t-46 -20.5t-43.5 -8q-41 0 -57 25t-16 61q0 40 12 82q16 58 45 114t67 100t81.5 71.5t87.5 27.5 q26 0 38.5 -3t17.5 -9q6 -7 11.5 -13.5t10.5 -12.5q11 -14 20.5 -23t16.5 -9q16 0 30.5 6.5t25.5 18t17.5 25.5t6.5 29q0 22 -17 42q-32 37 -73.5 50.5t-90.5 13.5q-64 0 -128.5 -35.5t-120.5 -94t-100 -134t-66 -156.5q-8 -29 -12 -56t-4 -50q0 -64 25 -110t76 -64l-14 -44 q-9 -14 -11 -19.5t-5 -22.5v1q-2 -10 -2 -19q0 -14 7 -25t25 -15q2 0 4.5 -0.5t3.5 -0.5q12 0 24.5 7t24 19t21.5 28t17 34q4 8 6.5 14.5t5.5 11.5z" />
<glyph unicode="&#xc8;" horiz-adv-x="506" d="M541 63q2 7 2.5 11.5t0.5 9.5q0 24 -15.5 33.5t-45.5 9.5h-15l-262 -22l44 165l211 23q5 1 10.5 1.5t10.5 0.5q23 0 44 9.5t31 43.5v1q5 10 5 18q0 17 -13.5 30.5t-52.5 13.5h-12t-13 -1l-188 -25l37 134l231 16q5 0 10 0.5t10 0.5q22 1 37.5 2t26.5 6.5t19 16.5t14 31 v-1q2 7 2.5 11t0.5 8q0 26 -17.5 34.5t-43.5 8.5q-9 0 -18 -0.5t-18 -1.5q-3 0 -7 -0.5t-7 -0.5q-86 -6 -134 -8.5t-76 -2.5h-65q-20 0 -35 -8t-25 -19t-15.5 -24.5t-6.5 -23.5q-2 -9 -4.5 -20t-6.5 -26l-22.5 -97.5t-33.5 -133.5l-44 -165q-2 -5 -3 -9.5t-3 -9.5v1 q-7 -20 -11.5 -36.5t-4.5 -30.5q0 -23 14 -36.5t49 -13.5h9q5 0 9 1h-1l302 23q25 0 41.5 5.5t26.5 13t15 17t7 18.5zM516 677q23 8 33.5 15t10.5 26q0 13 -7 30v-1q-5 18 -14 38t-20 39.5t-23.5 36t-24.5 26.5q-32 24 -59 24q-19 0 -30.5 -13.5t-11.5 -42.5v-9q3 -18 7 -31 t11 -23.5t17.5 -20t25.5 -22.5q16 -14 26.5 -23.5t13.5 -16.5q14 -23 26 -27.5t16 -4.5h3z" />
<glyph unicode="&#xc9;" horiz-adv-x="506" d="M541 63q2 7 2.5 11.5t0.5 9.5q0 24 -15.5 33.5t-45.5 9.5h-15l-262 -22l44 165l211 23q5 1 10.5 1.5t10.5 0.5q23 0 44 9.5t31 43.5q5 10 5 19q0 17 -13.5 30.5t-52.5 13.5h-12t-13 -1l-188 -25l37 134l231 16q5 0 10 0.5t10 0.5q22 1 37.5 2t26.5 6.5t19 16.5t14 31v-1 q2 7 2.5 11t0.5 8q0 26 -17.5 34.5t-43.5 8.5q-9 0 -18 -0.5t-18 -1.5q-3 0 -7 -0.5t-7 -0.5q-86 -6 -134 -8.5t-76 -2.5h-65q-20 0 -35 -8t-25 -19t-15.5 -24.5t-6.5 -23.5q-2 -9 -4.5 -20t-6.5 -26l-22.5 -97.5t-33.5 -133.5l-44 -165q-2 -5 -3 -9.5t-3 -9.5v1 q-7 -20 -11.5 -36.5t-4.5 -30.5q0 -23 14 -36.5t49 -13.5h9q5 0 9 1h-1l302 23q25 0 41.5 5.5t26.5 13t15 17t7 18.5zM430 677h2q8 0 17.5 4t30.5 25q8 8 22.5 18t35.5 24q19 13 33 22.5t25 20t20 23.5t18 32q8 19 8 32q0 33 -32 33q-27 0 -65 -23q-16 -9 -34.5 -25.5 t-36.5 -35t-34.5 -38.5t-28.5 -37q-19 -28 -19 -42q0 -13 8 -19t25 -13z" />
<glyph unicode="&#xca;" horiz-adv-x="506" d="M541 63q2 7 2.5 11.5t0.5 9.5q0 24 -15.5 33.5t-45.5 9.5h-15l-262 -22l44 165l211 24q5 1 10.5 1.5t10.5 0.5q23 0 44 9.5t31 43.5q2 5 3.5 9t1.5 9q0 18 -13.5 31t-52.5 13h-12t-13 -1l-188 -24l37 133l231 16q5 0 10 0.5t10 0.5q22 1 37.5 2t26.5 6.5t19 16.5t14 31 v-1q2 7 2.5 11.5t0.5 8.5q0 25 -17.5 33.5t-43.5 8.5q-9 0 -18 -0.5t-18 -1.5q-3 0 -7 -0.5t-7 -0.5q-86 -6 -134 -8t-76 -2h-65q-20 0 -35 -8t-25 -19.5t-15.5 -25t-6.5 -23.5q-2 -9 -4.5 -20t-6.5 -26l-22.5 -97.5t-33.5 -133.5l-44 -165q-2 -5 -3 -9.5t-3 -9.5v1 q-7 -20 -11.5 -36.5t-4.5 -30.5q0 -23 14 -36.5t49 -13.5h9q5 0 9 1h-1l302 23q25 0 41.5 5.5t26.5 13t15 17t7 18.5zM644 726q2 5 2 8v5q0 11 -6 26l-59 117q-4 19 -15.5 32t-31.5 13q-19 0 -28 -7.5t-17 -18.5l-144 -124q-3 -3 -4 -3q-11 -8 -19 -16.5t-13 -22.5l-2 -8v-7 q0 -11 8 -19t29 -14h-1q5 -2 7 -2h5q12 0 24 7t31 26h-1l96 82l38 -75q8 -24 22.5 -32t25.5 -8q2 0 5.5 0.5t7.5 2.5q20 8 28 16.5t12 22.5v-1z" />
<glyph unicode="&#xcb;" horiz-adv-x="506" d="M541 63q2 7 2.5 11.5t0.5 9.5q0 24 -15.5 33.5t-45.5 9.5h-15l-262 -23l44 166l211 23q5 1 10.5 1.5t10.5 0.5q23 0 44 9.5t31 43.5q2 5 3.5 9t1.5 9q0 17 -13.5 30.5t-52.5 13.5h-12t-13 -1l-188 -24l37 133l231 15q5 0 10 0.5t10 0.5q22 1 37.5 2t26.5 6.5t19 16.5 t14 31v-1q2 7 2.5 11.5t0.5 8.5q0 26 -17.5 34t-43.5 8q-9 0 -18 -0.5t-18 -1.5q-3 0 -7 -0.5t-7 -0.5q-86 -5 -134 -7.5t-76 -2.5h-65q-20 0 -35 -8t-25 -19.5t-15.5 -25t-6.5 -23.5q-2 -8 -4.5 -19.5t-6.5 -25.5l-22.5 -97.5t-33.5 -133.5l-44 -164q-2 -5 -3 -10t-3 -10v1 q-7 -20 -11.5 -36t-4.5 -30q0 -23 14 -36.5t49 -13.5h9q5 0 9 1h-1l302 23q25 0 41.5 5.5t26.5 13t15 17t7 18.5zM663 765q2 8 4.5 17t2.5 18q0 19 -10.5 33.5t-39.5 14.5q-18 0 -36 -7.5t-32 -18.5t-24.5 -24.5t-13.5 -26.5q-2 -8 -2 -17q0 -26 16.5 -46.5t42.5 -20.5 q19 0 35 8t27.5 19.5t19 25.5t10.5 26v-1zM482 761q6 15 6 34q0 20 -10 35t-39 15q-18 0 -35.5 -7.5t-32 -19t-24.5 -25.5t-14 -27q-1 -4 -1.5 -6.5t-0.5 -9.5q0 -26 16 -46.5t44 -20.5q19 0 34 8t26.5 20t19.5 25.5t11 24.5z" />
<glyph unicode="&#xcc;" horiz-adv-x="204" d="M187 65l134 497l2 6t2 5h-1q4 14 8 27t4 24q0 17 -8.5 27.5t-30.5 10.5q-24 0 -39.5 -5t-25 -15.5t-14.5 -26t-9 -36.5l1 1l-136 -505v2q-5 -11 -7 -22.5t-2 -20.5q0 -20 10.5 -33t34.5 -16h10q31 0 43.5 21t22.5 53q0 2 0.5 3.5t-0.5 -0.5zM361 677q22 8 32 15.5 t10 25.5q0 12 -6 30v-1q-5 18 -14 38t-19.5 39.5t-22.5 36t-24 26.5q-31 25 -56 25q-19 0 -30 -14t-11 -43v-9q3 -18 7 -31t10.5 -23.5t16.5 -20t24 -22.5q16 -14 26 -23.5t14 -16.5q12 -23 24 -27.5t16 -4.5h3z" />
<glyph unicode="&#xcd;" horiz-adv-x="206" d="M189 65l135 497q1 3 2.5 6l2.5 5h-1q3 14 7.5 27t4.5 24q0 17 -8.5 27.5t-31.5 10.5q-24 0 -39.5 -5t-25 -15.5t-14.5 -26t-9 -36.5l1 1l-138 -505v2q-5 -11 -7 -22.5t-2 -20.5q0 -20 10.5 -33t34.5 -16h11q30 0 43 21t23 53q0 2 0.5 3.5t-0.5 -0.5zM245 677h3q8 0 17 4 t29 25q15 15 57 42q18 13 31.5 22.5t24.5 20t20 23.5t18 32q3 9 5 17t2 16q0 33 -32 33q-11 0 -27.5 -6.5t-35.5 -17.5q-15 -9 -33 -25.5t-35.5 -35t-33.5 -38.5t-28 -37q-10 -14 -14 -24t-4 -18q0 -13 7.5 -19t23.5 -13z" />
<glyph unicode="&#xce;" horiz-adv-x="207" d="M190 65l135 497q1 3 2.5 6t2.5 6h-1q3 13 7.5 26.5t4.5 23.5q0 17 -8.5 27.5t-31.5 10.5q-24 0 -39.5 -5t-25 -15.5t-15 -25.5t-9.5 -36l1 1l-138 -506v2q-9 -21 -9 -43q0 -20 10.5 -33t35.5 -16q2 0 5 -0.5t5 -0.5q15 0 25.5 5.5t18 15.5t13 24t10.5 30q0 2 0.5 3.5 t-0.5 -0.5zM471 726q2 5 2 8v5q0 7 -1.5 12.5t-3.5 13.5l-58 117q-4 19 -15.5 32t-30.5 13t-27.5 -7.5t-16.5 -18.5l-141 -124q-3 -3 -4 -3q-11 -8 -19 -16.5t-13 -22.5l-1 -8v-7q0 -11 8 -19t28 -14h-1q5 -2 7 -2h5q11 0 23 7t30 26h-1l94 83l38 -76q8 -24 22 -32t24 -8 q3 0 6.5 0.5t6.5 2.5q20 8 28 16.5t11 22.5v-1z" />
<glyph unicode="&#xcf;" horiz-adv-x="207" d="M190 65l136 495q1 3 2.5 6t2.5 6h-1q3 13 7.5 26.5t4.5 23.5q0 17 -9 27.5t-31 10.5q-25 0 -40.5 -5t-25 -15.5t-14.5 -25.5t-9 -36l1 1l-138 -505v2q-5 -10 -7.5 -21.5t-2.5 -20.5q0 -20 10.5 -33t35.5 -15q2 0 5 -0.5t5 -0.5q15 0 26 5.5t18.5 15.5t13 23.5t10.5 29.5 v6zM481 760q2 8 4 17t2 18q0 19 -9.5 34t-38.5 15q-18 0 -35.5 -7.5t-31.5 -19t-24 -25t-13 -26.5q-1 -3 -1.5 -7t-0.5 -10q0 -26 16 -46.5t42 -20.5q19 0 34 8t26.5 20t19 25.5t10.5 25.5v-1zM303 756q6 15 6 34q0 20 -9.5 35t-38.5 15q-18 0 -35.5 -8t-31.5 -21t-23.5 -28 t-13.5 -28q-1 -3 -1 -10q0 -26 15.5 -46.5t42.5 -20.5q18 0 33.5 8t26.5 20t18.5 25.5t10.5 25.5v-1z" />
<glyph unicode="&#xd0;" horiz-adv-x="579" d="M692 426q12 42 12 76q0 35 -10.5 66t-33 54.5t-56.5 37t-81 13.5q-34 0 -62 -3.5t-52.5 -8.5t-46 -11.5t-42.5 -13.5q-8 -3 -17 -5t-17 -5h1q-40 -14 -60.5 -44.5t-20.5 -61.5l-36 -122h-13q-12 0 -17.5 -0.5t-9.5 -1.5q-3 -1 -7 -1q-35 0 -52 -20.5t-17 -43.5 q0 -20 13.5 -36t42.5 -16h27l-44 -158q-2 -5 -3.5 -11t-3.5 -11q-5 -17 -8 -34t-3 -33q0 -21 8.5 -33.5t34.5 -12.5q27 0 73.5 10t103 32t117 56.5t115.5 83t99 113t66 145.5zM326 281q15 0 28 6t22.5 15t14.5 20.5t5 23.5q0 20 -15.5 35.5t-50.5 15.5h-41l33 120 q32 16 75 30t92 14t68.5 -24.5t19.5 -58.5q0 -21 -6 -45l1 1q-20 -71 -62 -125t-93.5 -92.5t-106 -63t-100.5 -36.5l46 163z" />
<glyph unicode="&#xd1;" horiz-adv-x="626" d="M604 58l147 527q3 14 5 25t2 19q0 23 -11 32t-40 9q-20 0 -33 -6.5t-20.5 -17t-11.5 -23t-7 -24.5l-108 -388q-6 11 -12 21.5t-7 14.5q-12 21 -22 41.5t-19.5 41.5t-19.5 44t-21 50q-10 22 -20.5 47t-23.5 54q-7 10 -7 13q-3 5 -6 13t-10 36q-3 10 -8.5 22.5t-13.5 24 t-18.5 19t-23.5 7.5q-14 0 -25 -3t-20 -12t-17 -25t-16 -41l-143 -509v1q-9 -24 -9 -40q0 -46 53 -46h8q15 1 27.5 8t21 17.5t13 23t4.5 25.5v3l97 348q2 -5 5 -11.5t7 -12.5q22 -41 42 -82.5t32 -73.5q7 -19 19.5 -47t26.5 -57t27.5 -56.5t22.5 -45.5l3 -6l-1 1 q2 -5 5.5 -11t10 -10.5t18 -7.5t29.5 -3q15 0 26 7.5t19 18t14 22.5t9 22v1zM667 792q0 1 0.5 2t0.5 2q0 14 -12 24t-29 10q-11 0 -23 -5.5t-19 -17.5q-4 -6 -8 -16l1 1q-3 -8 -7 -16.5t-11 -8.5q-5 0 -8 5t-7 11q-7 15 -18 28t-38 13q-17 0 -38.5 -7.5t-42 -20t-35.5 -28 t-19 -31.5l1 1q-2 -5 -2 -8v-5q0 -16 10.5 -25.5t30.5 -9.5q13 0 24 7.5t22 18.5q8 7 15 13t12 6l2 -3t5 -7h-1q8 -13 21.5 -26.5t45.5 -13.5q23 0 43 4.5t36 16t28 31.5t20 51v4z" />
<glyph unicode="&#xd2;" d="M701 360q10 37 16 73t6 68q0 34 -7 64t-22.5 54t-41 39.5t-62.5 21.5q18 7 27 14t9 24q0 6 -1.5 14t-5.5 16v-1q-5 18 -14 38.5t-20.5 40t-24 36t-24.5 26.5q-16 11 -30.5 17.5t-27.5 6.5q-20 0 -31.5 -13.5t-11.5 -42.5v-10q3 -18 7 -30.5t11.5 -23t17.5 -20.5t25 -23 q33 -25 41 -40q5 -11 11.5 -17t12.5 -9h-12q-49 0 -98.5 -20t-95.5 -53t-87.5 -75.5t-74.5 -88.5t-56 -91t-33 -83q-18 -68 -18 -119q0 -87 44.5 -135t132.5 -48q67 0 135.5 30.5t128 83.5t105.5 124t69 152zM585 367q-16 -57 -47 -108.5t-71.5 -90t-87 -61.5t-92.5 -23 q-42 0 -61.5 24t-19.5 66q0 21 4 43.5t11 47.5q8 27 25 60.5t40 67t52 65.5t60 56.5t63.5 39.5t63.5 15q44 0 61.5 -27t17.5 -66q0 -26 -5.5 -54t-13.5 -55z" />
<glyph unicode="&#xd3;" horiz-adv-x="609" d="M702 360q10 37 16 73t6 68q0 39 -9 72t-29.5 57.5t-53.5 38.5t-82 14h-7q5 3 11 8.5t16 14.5q15 17 58 42q19 13 33 22.5t25 20t20 23.5t18 32q4 10 6 17.5t2 15.5q0 33 -32 33q-13 0 -30 -6t-35 -17q-16 -10 -34.5 -26t-36.5 -35t-34.5 -39t-28.5 -37q-11 -14 -15 -24 t-4 -18q0 -12 7 -18.5t21 -12.5q-46 -8 -91.5 -31t-87.5 -56.5t-79 -74.5t-67 -83.5t-51 -84.5t-30 -77q-18 -68 -18 -119q0 -87 44.5 -135t132.5 -48q67 0 135.5 30.5t128.5 83.5t106 124t69 152zM586 367q-16 -57 -47 -108.5t-71.5 -90t-87.5 -61.5t-93 -23 q-42 0 -61.5 24t-19.5 66q0 21 4 43.5t11 47.5q8 27 25 60.5t40.5 67t52 65.5t60 56.5t64 39.5t63.5 15q44 0 61 -27t17 -66q0 -26 -5 -54t-13 -55z" />
<glyph unicode="&#xd4;" d="M701 360q10 37 16 73t6 68q0 39 -9 72t-29.5 58t-53.5 39t-82 14t-98.5 -20t-95.5 -53t-87.5 -76t-74.5 -88.5t-56 -91t-33 -83.5q-18 -68 -18 -119q0 -87 44.5 -135t132.5 -48q67 0 135.5 30.5t128 83.5t105.5 124t69 152zM585 367q-16 -57 -47 -108.5t-71.5 -90 t-87 -61.5t-92.5 -23q-42 0 -61.5 24t-19.5 67q0 20 4 42.5t11 47.5q8 27 25 60.5t40 67t52 65.5t60 56.5t63.5 39.5t63.5 15q44 0 61.5 -27t17.5 -66q0 -26 -5.5 -54t-13.5 -55zM720 726q2 5 2 8v6q0 7 -1.5 12t-4.5 13l-59 117q-4 20 -15.5 33t-31.5 13q-19 0 -28.5 -7.5 t-17.5 -18.5l-144 -124q-3 -3 -4 -3q-11 -9 -19 -17.5t-13 -22.5l-2 -8v-7q0 -11 8.5 -19t28.5 -14h-1q5 -1 7 -1h6q11 0 23 6.5t31 25.5h-1l97 83l38 -76q8 -24 22.5 -31.5t25.5 -7.5h5q4 0 8 2q20 8 28 16.5t12 22.5v-1z" />
<glyph unicode="&#xd5;" d="M701 359q10 37 16 73t6 68q0 38 -9 71t-29.5 57.5t-53.5 38.5t-82 14t-98.5 -20t-95.5 -53t-87.5 -75.5t-74.5 -88t-56 -90.5t-33 -82q-18 -69 -18 -119q0 -87 44.5 -135t132.5 -48q67 0 135.5 30.5t128 83.5t105.5 124t69 151zM585 366q-16 -57 -47 -108t-71.5 -89.5 t-87 -61.5t-92.5 -23q-42 0 -61.5 24t-19.5 66q0 20 4 42.5t11 47.5q12 41 43.5 93.5t74 99t91 78.5t95.5 32q44 0 61.5 -26.5t17.5 -65.5q0 -26 -5.5 -54t-13.5 -55zM717 796q0 1 0.5 2t0.5 2q0 14 -12 24t-29 10q-11 0 -22.5 -5.5t-19.5 -16.5q-3 -5 -7 -16v1 q-3 -8 -7.5 -17t-11.5 -9q-5 0 -7.5 5l-5.5 11q-4 7 -8 14.5t-10.5 13.5t-15.5 9.5t-22 3.5q-16 0 -37.5 -7.5t-41.5 -19.5t-35.5 -27.5t-20.5 -31.5q-2 -4 -2 -7v-4q0 -16 11 -26.5t31 -10.5q13 0 24 7.5t22 18.5q8 8 15 13.5t12 5.5l2 -3l4 -6h-1q4 -7 9 -14t12.5 -13 t18.5 -10t27 -4q23 0 42.5 4.5t35 16t27.5 31.5t21 51z" />
<glyph unicode="&#xd6;" d="M701 359q10 37 16 73t6 68q0 38 -9 71.5t-29.5 58t-53.5 38.5t-82 14t-98.5 -20t-95.5 -53t-87.5 -75.5t-74.5 -88t-56 -90.5t-33 -83q-18 -69 -18 -119q0 -87 44.5 -135t132.5 -48q67 0 135.5 30.5t128 83.5t105.5 124t69 151zM585 366q-16 -57 -47 -108t-71.5 -89.5 t-87 -61.5t-92.5 -23q-42 0 -61.5 24t-19.5 66q0 20 4 42.5t11 47.5q8 27 25 60.5t40 67t52 65.5t60 56.5t63.5 39.5t63.5 15q44 0 61.5 -27t17.5 -66q0 -26 -5.5 -54t-13.5 -55zM708 766q2 8 4 16.5t2 18.5q0 19 -10 33.5t-39 14.5q-19 0 -36.5 -7.5t-32 -18.5t-24.5 -24.5 t-13 -26.5q-2 -8 -2 -18q0 -26 16.5 -46t42.5 -20q19 0 35 8t27.5 19.5t19 25.5t10.5 26v-1zM526 761q6 16 6 35q0 20 -10 34.5t-39 14.5q-18 0 -35.5 -7.5t-32 -19t-24.5 -25t-14 -26.5q-1 -4 -1.5 -7t-0.5 -10q0 -25 16 -45.5t44 -20.5q19 0 34.5 8t27 19.5t19 25 t10.5 25.5v-1z" />
<glyph unicode="&#xd7;" horiz-adv-x="437" d="M432 170l1 -1l-52 63l72 50q12 3 23 14q10 7 12 7q19 15 27 29.5t8 26.5q0 21 -14 34.5t-37 13.5t-45 -16q-5 -3 -9 -5.5t-7 -4.5q-8 -4 -15 -8t-10 -10l-71 -50l-43 54q-3 8 -9.5 14.5t-12.5 11.5h1q-2 2 -4 3t-4 3l1 -2q-11 14 -24 19.5t-26 5.5q-26 0 -45 -16.5 t-19 -40.5q0 -19 12 -34q1 -1 2 -2.5t4 -6.5q4 -8 10 -16.5t15 -13.5l40 -50l-74 -53q-10 -3 -19 -10t-17 -13q-3 -4 -5 -5.5t-3 -2.5q-19 -13 -27.5 -26.5t-8.5 -26.5q0 -18 11 -29v1q8 -10 20 -15t25 -5q8 0 18 2.5t19 9.5q3 2 9.5 7t15.5 10q12 8 23.5 16.5t17.5 13.5 l63 43l49 -61q3 -9 10 -15t12 -11l4 -4q20 -23 51 -23q13 0 25 4.5t21.5 12.5t15.5 18t6 22q0 7 -2.5 15t-10.5 17z" />
<glyph unicode="&#xd8;" d="M702 716q0 17 -9 27.5t-31 10.5q-21 0 -35.5 -5t-24.5 -12.5t-16.5 -16.5t-11.5 -17h1q-3 -5 -6 -9.5t-5 -9.5q-1 -2 -3 -4h-2q-3 0 -5.5 0.5t-4.5 0.5q-49 0 -98.5 -20t-95.5 -53t-87.5 -75.5t-74.5 -88t-56 -90.5t-33 -83q-19 -66 -19 -118q0 -104 65 -150 q-11 -20 -17 -35.5t-6 -29.5q0 -38 52 -38q14 0 26 7t22 17t18.5 22t14.5 22h-1q0 2 1 2h3q67 0 135.5 30.5t128 83.5t105.5 123.5t69 150.5q10 38 16 73t6 67q0 43 -12 80t-39 62q13 23 21.5 43t8.5 33zM221 264q10 37 37 83.5t64.5 90t81 77.5t86.5 46q-30 -51 -66 -110 t-72 -118.5t-70 -116t-62 -102.5q-14 22 -14 59q0 41 15 91zM585 366q-14 -50 -39.5 -95t-58.5 -82t-72 -63t-80 -36l12 17q27 43 60 94t66.5 103.5t66.5 105t60 98.5q3 -15 3 -35q0 -25 -5 -52.5t-13 -54.5z" />
<glyph unicode="&#xd9;" horiz-adv-x="583" d="M597 176l109 395q3 5 8.5 18.5t5.5 27.5q0 18 -10 31.5t-39 13.5q-22 0 -36 -7t-22.5 -18.5t-13 -26t-7.5 -30.5l1 1l-119 -401q-5 -16 -23.5 -32.5t-47 -30.5t-65 -23t-76.5 -9q-22 0 -37.5 7t-15.5 20l2 8h-1l132 475q2 6 2 10v7q0 17 -9.5 33.5t-39.5 16.5 q-19 0 -31 -5.5t-20 -14t-12.5 -19.5t-8.5 -21l-130 -474q-7 -22 -7 -44q0 -51 39.5 -82.5t129.5 -31.5q62 0 119.5 18t103.5 47t77 66t42 75zM528 677q23 8 33.5 15.5t10.5 25.5q0 6 -1.5 14t-5.5 16v-1q-5 18 -14 38.5t-20 40t-23.5 36t-25.5 26.5q-16 11 -30.5 17.5 t-27.5 6.5q-20 0 -31.5 -13.5t-11.5 -42.5v-10q3 -18 7.5 -30.5t11.5 -23t17 -20.5t25 -23q33 -25 41 -40q13 -23 25 -27.5t17 -4.5h3z" />
<glyph unicode="&#xda;" horiz-adv-x="583" d="M597 176l109 395q3 5 8.5 18.5t5.5 27.5q0 18 -10 31.5t-39 13.5q-22 0 -36 -7t-22.5 -18.5t-13 -26t-7.5 -30.5l1 1l-119 -401q-5 -16 -23.5 -32.5t-47 -30.5t-65 -23t-76.5 -9q-22 0 -37.5 7t-15.5 20l2 8h-1l132 475q2 6 2 10v7q0 17 -9.5 33.5t-39.5 16.5 q-19 0 -31 -5.5t-20 -14t-12.5 -19.5t-8.5 -21l-130 -474q-7 -22 -7 -44q0 -51 39.5 -82.5t129.5 -31.5q62 0 119.5 18t103.5 47t77 66t42 75zM483 677h3q8 0 17.5 4t30.5 25q15 17 58 42q19 13 33 22.5t25 20t20 23.5t18 32q4 10 6 17.5t2 15.5q0 33 -32 33q-13 0 -29.5 -6 t-35.5 -17q-16 -10 -34.5 -26t-36.5 -35t-34.5 -39t-28.5 -37q-19 -26 -19 -42q0 -13 7.5 -19t24.5 -13z" />
<glyph unicode="&#xdb;" horiz-adv-x="583" d="M597 176l109 395q3 5 8.5 18.5t5.5 28.5q0 17 -10 30.5t-39 13.5q-22 0 -36 -7t-22.5 -18t-13 -26t-7.5 -31l1 1l-119 -401q-5 -16 -23.5 -32.5t-47 -30.5t-65 -23t-76.5 -9q-22 0 -37.5 7t-15.5 20l2 8h-1l132 475q2 6 2 10v8q0 17 -9.5 33t-39.5 16q-19 0 -31 -5.5 t-20 -14t-12.5 -19.5t-8.5 -21l-130 -474q-7 -22 -7 -44q0 -51 39.5 -82.5t129.5 -31.5q62 0 119.5 18t103.5 47t77 66t42 75zM691 726q2 5 2 8v6q0 7 -1.5 12t-3.5 13l-60 117q-3 20 -15 33t-31 13q-20 0 -29 -7.5t-17 -18.5l-144 -124q-3 -3 -4 -3q-11 -9 -19.5 -17.5 t-13.5 -22.5l-2 -8v-7q0 -11 8.5 -19t29.5 -14h-1q5 -1 12 -1q11 0 23.5 6.5t30.5 25.5h-1l97 83l38 -76q8 -24 22.5 -31.5t25.5 -7.5q8 0 13 2q20 8 28.5 16.5t11.5 22.5v-1z" />
<glyph unicode="&#xdc;" horiz-adv-x="583" d="M597 176l109 394q3 5 8.5 18.5t5.5 27.5q0 17 -10 30.5t-39 13.5q-22 0 -36 -7t-22.5 -18t-13 -26t-7.5 -31l1 1l-119 -399q-5 -16 -23.5 -33t-47 -30.5t-65 -22.5t-76.5 -9q-22 0 -37.5 7t-15.5 20l2 8h-1l132 474q2 5 2 9v8q0 17 -9.5 33t-39.5 16q-19 0 -31 -5.5 t-20 -13.5t-12.5 -19t-8.5 -21l-130 -473q-7 -22 -7 -44q0 -51 39.5 -82.5t129.5 -31.5q62 0 119.5 18t103.5 47t77 66t42 75zM677 766q2 8 4.5 16.5t2.5 18.5q0 19 -10.5 33.5t-39.5 14.5q-19 0 -36.5 -7.5t-32 -18.5t-24.5 -24.5t-13 -26.5q-2 -8 -2 -18q0 -26 16.5 -46 t42.5 -20q19 0 35 8t27.5 19.5t19 25.5t10.5 26v-1zM496 761q5 18 5 35q0 20 -9.5 34.5t-38.5 14.5q-19 0 -36.5 -7.5t-32 -19t-24.5 -25t-13 -26.5q-1 -4 -1.5 -7t-0.5 -10q0 -25 16 -45.5t43 -20.5q19 0 34.5 8t27 19.5t19.5 25t11 25.5v-1z" />
<glyph unicode="&#xdd;" horiz-adv-x="582" d="M733 549q21 21 29 36t8 26q0 12 -6.5 19t-16.5 14l3 -1q-1 1 -2.5 2t-1.5 2q-13 8 -25 8q-13 0 -26.5 -7t-27.5 -18h1q-3 -2 -11 -6t-20 -11l-220 -185l-108 162l2 -2q-16 33 -30 55.5t-32 22.5h-5q-12 -3 -24.5 -8t-23 -13.5t-17 -20t-6.5 -26.5q0 -21 17 -49l135 -235 l-65 -234q-9 -29 -9 -48q0 -20 9 -32.5t29 -12.5h5q20 2 34 9t23 18t14.5 24.5t9.5 28.5l67 241zM479 671h3q8 0 17.5 4t29.5 25q8 8 22.5 18t35.5 24q19 13 33 22.5t25 20t20 23.5t19 32q3 9 5 17t2 16q0 32 -32 32q-12 0 -29 -6t-36 -17q-16 -9 -34.5 -25.5t-36.5 -35 t-34 -38.5t-28 -37q-19 -28 -19 -42q0 -13 7.5 -19t24.5 -13z" />
<glyph unicode="&#xde;" horiz-adv-x="497" d="M198 85l4 15h43q48 0 104 26.5t107.5 71t91.5 101.5t56 118h-1q5 18 7 33.5t2 28.5q0 50 -27 77.5t-85 27.5q-40 0 -82 -8t-90 -30l3 8q1 3 2.5 6.5t2.5 6.5h-1q3 13 7.5 26t4.5 23q0 17 -9 27.5t-32 10.5q-25 0 -40.5 -5t-25 -15.5t-15 -25.5t-9.5 -36l1 1l-140 -499v2 q-5 -11 -7.5 -22t-2.5 -21q0 -19 11 -32t36 -15h6q16 0 27.5 7t19.5 19t14 26.5t11 29.5q2 5 3 8t3 8v1zM486 425q-11 -40 -37.5 -79t-61 -69.5t-71.5 -49.5t-68 -19q-13 0 -13 1v3l18 66h-1l36 127q8 8 25.5 17.5t41 18t52 14t57.5 5.5q24 0 24 -19q0 -4 -3 -16h1z" />
<glyph unicode="&#xdf;" horiz-adv-x="574" d="M631 187q2 6 2 12v15q0 45 -27 70t-64 25q-45 0 -70 16t-25 39q0 19 14.5 40.5t45.5 43.5q19 13 30.5 21.5t17.5 15t9.5 12t8.5 14.5l4 7q21 37 21 66q0 25 -12 44.5t-32 32.5t-45.5 20t-53.5 7q-25 0 -44 -4q-47 -9 -79 -30.5t-54.5 -52.5t-37 -68.5t-25.5 -78.5l-7 -27 l-18 -7l1 1q-2 -1 -5.5 -1.5t-6.5 -1.5h1q-9 -2 -17.5 -4.5t-15 -8t-12.5 -15.5t-11 -27v1q-4 -11 -4 -20q0 -19 11 -26.5t27 -7.5q9 0 19 2l-82 -335l2 3q-9 -17 -9 -31q0 -21 13 -34.5t35 -13.5h6q28 3 49.5 24t22.5 48l125 511q1 6 6 19.5t14 28.5t22.5 28t31.5 18 q14 4 27 6.5t23 2.5t16 -4t6 -15q0 -3 -1 -6q-7 -8 -15 -15l-16 -14q-17 -15 -33.5 -31.5t-31 -35.5t-24 -41.5t-10.5 -49.5q-8 -15 -8 -34q0 -23 11 -49t31 -47.5t48.5 -36t63.5 -14.5h1q8 0 8 -9t-6 -19v1q-2 -4 -3 -7.5t-3 -6.5q-8 -15 -14 -25t-12 -16.5t-13.5 -10.5 t-19.5 -7h-3q-11 0 -26 11.5t-36 31.5q-15 12 -38 12q-19 0 -38 -10t-29 -33q-4 -11 -4 -21q0 -20 13 -37.5t33 -31t45.5 -21.5t49.5 -8h20q31 5 62.5 19.5t59 38.5t49.5 59.5t34 82.5h1z" />
<glyph unicode="&#xe0;" horiz-adv-x="499" d="M478 52l75 288h-1q4 14 5 24.5t1 18.5q0 25 -8.5 41t-22 25t-30 12.5t-33.5 3.5q-59 0 -127 -14.5t-127 -49.5l3 1q-2 -1 -4.5 -2t-4.5 -2q-14 -5 -28.5 -15.5t-24.5 -43.5v-6q0 -18 10.5 -25.5t25.5 -7.5q9 0 20.5 2.5t22.5 6.5t19.5 8t13.5 6l-1 -1q17 5 31.5 9t28.5 9 q26 8 50.5 14.5t50.5 6.5h10q7 0 7 -2v-5l-11 -40q-72 -3 -134.5 -16t-112 -36.5t-84.5 -58.5t-52 -81v1q-3 -9 -4 -18t-1 -18q0 -20 6.5 -41t18.5 -38t28.5 -27.5t37.5 -10.5q28 0 56.5 5.5t56.5 14t53 18t46 17.5q3 1 5.5 2t5.5 2q-2 -4 -2 -8v-6q0 -15 10.5 -23.5 t39.5 -8.5q62 0 74 68zM438 480q22 8 32.5 15t10.5 25q0 12 -6 30v-1q-6 18 -15 38t-20 39.5t-23.5 35.5t-24.5 26q-30 24 -57 24q-20 0 -31.5 -13.5t-11.5 -42.5v-9q3 -18 7.5 -30.5t11.5 -23t17 -20.5t25 -22q16 -14 26.5 -23.5t13.5 -16.5q13 -22 25 -26.5t17 -4.5h3z M397 161q0 -2 -23 -16t-56 -30.5t-70 -29.5t-66 -13h-4q-2 0 -4 1q-4 2 -7 2q-4 2 -10 8.5t-6 17.5v6t1 5q5 19 29.5 35.5t60 30t79 23.5t85.5 16z" />
<glyph unicode="&#xe1;" horiz-adv-x="499" d="M478 52l75 288h-1q4 14 5 24.5t1 18.5q0 25 -8.5 41t-22 25t-30 12.5t-33.5 3.5q-59 0 -127 -14.5t-127 -49.5l3 1q-2 -1 -4.5 -2t-4.5 -2q-14 -5 -28.5 -15.5t-24.5 -43.5v-6q0 -18 10.5 -25.5t25.5 -7.5q9 0 20.5 2.5t22.5 6.5t19.5 8t13.5 6l-1 -1q17 5 31.5 9t28.5 9 q26 8 50.5 14.5t50.5 6.5h10q7 0 7 -2v-5l-11 -40q-72 -3 -134.5 -16t-112 -36.5t-84.5 -58.5t-52 -81v1q-3 -9 -4 -18t-1 -18q0 -20 6.5 -41t18.5 -38t28.5 -27.5t37.5 -10.5q28 0 56.5 5.5t56.5 14t53 18t46 17.5q3 1 5.5 2t5.5 2q-2 -4 -2 -8v-6q0 -15 10.5 -23.5 t39.5 -8.5q62 0 74 68zM337 480h3q8 0 17.5 4t30.5 24q7 8 21.5 18t35.5 24q19 12 32.5 22t24.5 20.5t20 23t19 31.5q3 9 5 17t2 16q0 32 -32 32q-12 0 -29 -6t-35 -17q-16 -9 -34 -25t-36 -35t-34 -38.5t-28 -36.5q-11 -14 -15 -24t-4 -18q0 -13 7.5 -19t24.5 -12zM378 151 q0 -2 -20 -14.5t-49.5 -27t-63 -26t-61.5 -11.5q-6 0 -10 1q-4 2 -7 2q-4 2 -10 8.5t-6 17.5v6t1 5q5 18 29 34.5t59 30t77 23.5t84 16z" />
<glyph unicode="&#xe2;" horiz-adv-x="500" d="M479 52l75 289h-1q4 13 5 23.5t1 18.5q0 25 -8.5 41t-22 25.5t-30.5 13t-33 3.5q-60 0 -127.5 -15t-127.5 -50l3 1l-4 -2l-4 -2q-7 -2 -14.5 -5.5t-14.5 -9.5t-13.5 -16.5t-11.5 -26.5v-7q0 -18 11 -25.5t25 -7.5q9 0 20.5 2.5t22.5 6.5t20 8t13 6l-1 -1q17 5 32 9.5 t29 9.5q26 8 50 14.5t50 6.5q5 0 11 -0.5t6 -2.5v-5l-10 -39q-72 -3 -134.5 -16.5t-112.5 -37t-85 -58.5t-52 -81v1q-3 -8 -4 -17.5t-1 -18.5q0 -20 6.5 -41t18.5 -38t29 -27.5t38 -10.5q27 0 56 5.5t56.5 14t53 18t46.5 17.5q2 1 4.5 2t5.5 2q-2 -4 -2 -8v-6 q0 -15 10.5 -23.5t39.5 -8.5q33 0 51 16.5t24 51.5zM571 528q2 5 2 8v6q0 4 -1 11t-5 15l-58 115q-3 19 -15 32t-32 13t-28.5 -7.5t-16.5 -18.5l-143 -123q-3 -3 -4 -3q-11 -8 -19 -16.5t-13 -22.5l-2 -8v-7q0 -11 8 -19t29 -13h-1q5 -2 12 -2q11 0 23 6.5t31 25.5h-1l96 82 l38 -75q8 -24 22.5 -31.5t24.5 -7.5q3 0 6 0.5t7 2.5q20 8 28 16t12 22v-1zM379 136q0 -2 -20 -12t-49 -21.5t-62 -21t-61 -9.5q-8 0 -13 1q-4 2 -6 2q-5 2 -11 8.5t-6 17.5v6q0 4 1 6q5 18 29.5 34.5t59.5 30t77.5 23.5t84.5 16z" />
<glyph unicode="&#xe3;" horiz-adv-x="499" d="M479 52l74 287h-1q4 13 5 23.5t1 18.5q0 25 -8.5 41t-22 25t-30 12.5t-33.5 3.5q-59 0 -126.5 -14.5t-127.5 -49.5l3 1q-2 -1 -4.5 -2t-4.5 -2q-14 -5 -28.5 -15.5t-24.5 -42.5v-7q0 -18 10.5 -25t25.5 -7q9 0 20.5 2.5t22.5 6.5t20 7.5t13 5.5h-1q17 4 32 8.5t29 9.5 q26 8 50 14.5t50 6.5q5 0 11 -0.5t6 -2.5v-5l-11 -39q-72 -3 -134.5 -16t-112 -36.5t-84.5 -58t-52 -80.5q-5 -14 -5 -36q0 -20 6.5 -40.5t18.5 -37.5t28.5 -27.5t37.5 -10.5q28 0 56.5 5.5t56.5 14t53 18t46 17.5q3 1 5.5 2t5.5 2q-2 -4 -2 -8v-6q0 -15 10.5 -23.5 t39.5 -8.5q62 0 75 68zM564 597q0 1 0.5 2t0.5 2q0 14 -12 23.5t-29 9.5q-11 0 -22.5 -5t-19.5 -17q-1 -2 -2.5 -6t-3.5 -9v1l-8.5 -17t-10.5 -9q-5 0 -8 5t-5 10q-8 15 -19 28.5t-37 13.5q-17 0 -38 -7.5t-41 -20t-35.5 -28t-19.5 -31.5l1 1q-1 -3 -1.5 -5t-0.5 -7 q0 -14 11.5 -24.5t29.5 -10.5q13 0 24 7.5t22 17.5q8 8 14.5 14t11.5 6l2 -3t5 -7h-1q8 -13 21 -26.5t45 -13.5q46 0 78 20.5t48 81.5v4zM378 147q0 -2 -20 -13.5t-49.5 -25.5t-63 -25t-61.5 -11q-6 0 -10 1q-4 2 -7 2q-4 2 -10 8t-6 17v6q0 4 1 6q5 18 29 34.5t59 29.5 t77.5 23t84.5 16z" />
<glyph unicode="&#xe4;" horiz-adv-x="500" d="M479 52l75 287h-1q4 13 5 23.5t1 18.5q0 25 -8.5 41t-22 25.5t-30 13t-33.5 3.5q-60 0 -127.5 -15t-127.5 -50l3 1l-4 -2l-4 -2q-7 -2 -14.5 -5.5t-14.5 -9.5t-13.5 -16.5t-10.5 -26.5v-7q0 -18 10.5 -25t25.5 -7q9 0 20.5 2.5t22 6.5t19.5 8t13 6l-1 -1q17 5 32 9t29 9 q26 8 50 14.5t50 6.5q5 0 11 -0.5t6 -2.5v-5l-10 -39q-72 -3 -134.5 -16t-112.5 -36.5t-85 -58t-52 -80.5v1q-3 -9 -4 -18t-1 -19q0 -20 6.5 -40.5t18.5 -37.5t29 -27.5t38 -10.5q27 0 56 5.5t56.5 14t53 18t46.5 17.5q3 1 5 2t5 2q-2 -4 -2 -8v-6q0 -15 11 -23.5t39 -8.5 q33 0 51 16.5t24 51.5zM388 155q0 -2 -21.5 -15t-53 -28t-67 -27.5t-63.5 -12.5h-5q-2 0 -4 1q-4 2 -6 2q-5 2 -10.5 8t-5.5 18v11q5 19 29.5 35t60 29.5t78 23.5t84.5 16zM571 567q2 8 4.5 16.5t2.5 17.5q0 19 -10 33.5t-39 14.5q-19 0 -36.5 -7.5t-32 -18.5t-24 -25 t-12.5 -26q-1 -4 -1.5 -8t-0.5 -9q0 -24 16 -45t42 -21q19 0 34.5 8t27 19.5t19 25.5t10.5 26v-1zM391 562q6 16 6 35t-10 33.5t-38 14.5q-19 0 -36.5 -7t-32 -18.5t-24 -25t-13.5 -25.5q-1 -4 -1 -17q0 -26 16 -46t43 -20q19 0 34 7.5t26.5 19t19 25t10.5 25.5v-1z" />
<glyph unicode="&#xe5;" horiz-adv-x="499" d="M478 52l75 288h-1q4 14 5 24.5t1 18.5q0 25 -8.5 41t-22 25t-30 12.5t-33.5 3.5q-59 0 -127 -14.5t-127 -49.5l3 1q-2 -1 -4.5 -2t-4.5 -2q-14 -5 -28.5 -15.5t-24.5 -43.5v-6q0 -18 10.5 -25.5t25.5 -7.5q9 0 20.5 2.5t22.5 6.5t19.5 8t13.5 6l-1 -1q17 5 31.5 9.5 t28.5 8.5q26 8 50.5 14.5t50.5 6.5h10q7 0 7 -2v-5l-11 -40q-72 -3 -134.5 -16t-112 -36.5t-84.5 -58.5t-52 -81v1q-3 -8 -4 -17.5t-1 -18.5q0 -20 6.5 -41t18.5 -38t28.5 -27.5t37.5 -10.5q28 0 56.5 5.5t56.5 14t53 18t46 17.5q3 1 5.5 2t5.5 2q-2 -4 -2 -8v-6 q0 -15 10.5 -23.5t39.5 -8.5q62 0 74 68zM539 614q6 19 6 35q0 28 -16 47.5t-51 19.5q-33 0 -61.5 -14t-51 -35t-37.5 -46t-21 -48q-3 -14 -3 -27q0 -27 15.5 -46t54.5 -19q27 0 53.5 10.5t49.5 29t40 42.5t23 51h-1zM387 157q0 -2 -21.5 -15.5t-53 -29t-67 -28t-63.5 -12.5 h-4q-2 0 -4 1q-4 2 -7 2q-4 2 -10 8.5t-6 17.5v6t1 5q5 19 29 35.5t59.5 30t78.5 23.5t85 16zM459 615q-5 -18 -20.5 -32.5t-32.5 -14.5q-1 0 -1 3q0 2 0.5 4t0.5 4q5 15 19 30.5t34 15.5q1 0 1 -2q0 -4 -1 -8z" />
<glyph unicode="&#xe6;" horiz-adv-x="777" d="M867 315q5 18 5 36q0 48 -33.5 77.5t-91.5 29.5q-50 0 -94.5 -16.5t-85.5 -44.5q-8 35 -36 47t-57 12q-60 0 -130 -14.5t-130 -48.5l3 1q-2 -1 -4.5 -2t-4.5 -2q-14 -5 -29 -15.5t-25 -41.5v-7q0 -18 11 -25t26 -7q9 0 21 2.5t23 6.5t20 8t13 6l-1 -1q17 4 32.5 8.5 t29.5 8.5q26 8 51 14.5t51 6.5q5 0 11.5 -0.5t6.5 -2.5v-4l-11 -39q-73 -3 -137 -15.5t-114.5 -36t-86.5 -57.5t-53 -79v1q-4 -9 -4.5 -18t-0.5 -18q0 -20 6.5 -40t18.5 -36.5t29.5 -27t38.5 -10.5q28 0 57.5 5.5t57.5 13.5t54 17t47 17q9 3 16 6.5t12 5.5l1 -1q1 0 2 -1 q18 -17 30.5 -26t35.5 -13q27 -11 64 -11q51 0 105 16t99 38.5t75.5 46t34.5 37.5q6 16 6 28q0 33 -36 33q-12 0 -19.5 -0.5t-13.5 -2t-13.5 -5t-19.5 -9.5q-2 -2 -6.5 -4t-6.5 -4v1q-20 -12 -41.5 -25t-43.5 -23t-43.5 -16.5t-41.5 -6.5h-4q-9 0 -20 3.5t-13 23.5l4 31 q56 13 115 28.5t109 35.5t85 46t44 59zM393 153q-15 -10 -40.5 -24t-54 -27t-58 -22t-53.5 -9q-7 0 -9 1t-7 1q-5 2 -11 8.5t-6 17.5q0 8 1 11q5 18 30 34.5t61 29.5t79.5 23t86.5 16q-8 -26 -10.5 -37.5t-3.5 -15.5q-3 -3 -5 -7zM554 249q16 25 37 45t44 34.5t45.5 22 t40.5 7.5q16 0 23 -5.5t7 -12.5v-4q-7 -11 -30 -25t-53 -27t-61 -23t-53 -12z" />
<glyph unicode="&#xe7;" horiz-adv-x="434" d="M230 -82l29 62q33 6 59.5 17t47.5 24t36 25.5t25 23.5l40 37q37 43 37 71q0 17 -11.5 27.5t-37.5 10.5q-17 0 -29 -4.5t-21 -11.5t-14.5 -14.5t-9.5 -13.5h1q-2 -3 -5 -7t-2 -2q-9 -12 -26 -26t-38.5 -26.5t-47 -20.5t-51.5 -8q-17 0 -24 11t-7 26q0 13 3 25 q10 39 32 75.5t48.5 64t55.5 44.5t55 17t44 -4t23 -14q11 -8 22 -11t20 -3q26 0 45.5 16t19.5 40q0 11 -5.5 24t-19.5 26q-28 24 -56.5 30.5t-70.5 6.5q-50 0 -102 -25.5t-97.5 -67.5t-80.5 -97t-50 -114q-7 -25 -7 -57q0 -41 18 -72.5t59 -44.5l-14 -45q-9 -14 -11 -19.5 t-5 -22.5v1q-1 -5 -1 -18q0 -14 6.5 -25t24.5 -15q2 0 4 -0.5t4 -0.5q23 0 47.5 25.5t38.5 61.5zM376 164l1 2q-1 -1 -1 -2l-1 -1z" />
<glyph unicode="&#xe8;" horiz-adv-x="441" d="M523 305q5 18 5 37q0 49 -32.5 79t-89.5 30q-60 0 -115.5 -27t-101 -71t-78 -99t-47.5 -110q-9 -35 -9 -65q0 -57 32.5 -84.5t89.5 -27.5q49 0 101.5 16.5t97 39.5t74.5 46.5t34 38.5q6 16 6 29q0 33 -35 33q-12 0 -19.5 -0.5t-14.5 -2.5t-15.5 -6t-22.5 -11 q-20 -13 -41 -26.5t-43 -25t-43.5 -18.5t-42.5 -7h-4q-9 0 -20.5 4t-12.5 27v17t2 12q55 13 112.5 28.5t106.5 36t83.5 46.5t42.5 61zM435 480q23 8 33.5 15t10.5 25q0 13 -7 30v-1q-5 18 -14 38t-20 39.5t-23.5 35.5t-24.5 26q-30 24 -57 24q-20 0 -31 -13t-11 -42v-10 q3 -18 7 -30.5t11 -23t17 -20.5t25 -22q32 -26 40 -40q13 -22 25 -26.5t17 -4.5h2zM220 237q15 26 36 46.5t43 35t43.5 22.5t39.5 8q15 0 22 -5.5t7 -11.5q0 -2 -0.5 -3t-0.5 -2q-7 -11 -29.5 -25t-51 -27.5t-58.5 -24t-51 -13.5z" />
<glyph unicode="&#xe9;" horiz-adv-x="444" d="M526 305q5 18 5 37q0 49 -32.5 79t-89.5 30q-61 0 -117 -27t-101.5 -71t-78.5 -99t-48 -110q-4 -17 -6 -33t-2 -32q0 -57 32 -84.5t90 -27.5q49 0 102 16.5t97.5 39.5t75 46.5t34.5 38.5q6 16 6 29q0 33 -35 33q-12 0 -19.5 -0.5t-14.5 -2.5t-16 -6t-23 -11 q-20 -13 -41 -26.5t-43 -25t-44 -18.5t-43 -7h-4q-9 0 -20.5 4t-12.5 26v18t2 12q55 13 113 28.5t107.5 36t84 46.5t42.5 61zM366 480h3q8 0 17.5 4t29.5 25q8 7 22 17.5t36 23.5q19 13 32.5 22.5t24.5 20t20 23t18 31.5q8 19 8 33q0 32 -32 32q-12 0 -29 -6t-36 -17 q-15 -9 -33.5 -25t-36.5 -35t-34 -38.5t-28 -36.5q-19 -28 -19 -42q0 -13 8 -19t24 -12zM221 237q16 26 36.5 46.5t43 35t44 22.5t39.5 8q16 0 22.5 -5.5t6.5 -11.5q0 -2 -0.5 -3t-0.5 -2q-7 -11 -29.5 -25t-51 -27.5t-58.5 -24t-52 -13.5z" />
<glyph unicode="&#xea;" horiz-adv-x="443" d="M525 305q5 20 5 37q0 49 -32.5 79t-89.5 30q-60 0 -116 -27t-101.5 -71t-78.5 -99t-48 -110q-4 -17 -6 -33t-2 -32q0 -57 32 -84.5t90 -27.5q49 0 102 16.5t97.5 39.5t74.5 46.5t34 38.5q6 16 6 29q0 33 -35 33q-12 0 -19.5 -0.5t-14.5 -2.5t-16 -6t-23 -11 q-19 -13 -40.5 -26.5t-43.5 -25t-44 -18.5t-43 -7h-3q-10 0 -21 4t-12 27v17t2 12q55 13 113 28.5t107 36t83.5 47t42.5 60.5zM564 528q2 5 2 8v6q0 4 -1 11t-5 15l-57 115q-4 19 -16 32t-32 13q-19 0 -28 -7.5t-17 -18.5l-143 -123l-3 -3q-11 -8 -19.5 -16.5t-13.5 -22.5 l-1 -8v-7q0 -11 8 -19t28 -13h-1q5 -2 7 -2h6q11 0 23 6.5t31 25.5h-1l95 82l38 -75q8 -24 22.5 -31.5t24.5 -7.5q3 0 6.5 0.5t6.5 2.5q20 8 28 16t12 22v-1zM221 238q16 25 36.5 46t42.5 35t44 22t40 8q15 0 22 -5t7 -12q0 -2 -0.5 -3t-0.5 -2q-7 -11 -29.5 -25t-51 -27.5 t-58.5 -24t-52 -12.5z" />
<glyph unicode="&#xeb;" horiz-adv-x="444" d="M526 304q5 18 5 37q0 48 -32.5 78t-89.5 30q-61 0 -117 -27t-101.5 -70.5t-78.5 -98t-48 -109.5q-4 -17 -6 -33t-2 -32q0 -57 32 -84.5t90 -27.5q49 0 102 16.5t97.5 39t75 46.5t34.5 38q6 18 6 29q0 34 -35 34q-12 0 -19.5 -0.5t-14.5 -2.5t-16 -6.5l-23 -11.5 q-20 -12 -41 -25.5t-43 -25t-44 -18.5t-43 -7h-4q-9 0 -20.5 4t-12.5 25v19t2 11q55 13 113 29t107.5 36t84 46.5t42.5 60.5zM395 562q6 16 6 35q0 20 -9.5 34.5t-38.5 14.5q-19 0 -36.5 -7.5t-31.5 -18.5t-24 -25t-13 -26q-2 -8 -2 -17q0 -26 16.5 -46t43.5 -20q19 0 34 8 t26 19.5t18.5 25t10.5 24.5v-1zM575 567q2 8 4.5 16.5t2.5 18.5q0 18 -10 32.5t-39 14.5q-19 0 -36.5 -7.5t-31.5 -18.5t-23.5 -25t-12.5 -26q-1 -4 -1.5 -8t-0.5 -9q0 -24 15.5 -45t41.5 -21q19 0 35 8t27 19.5t18.5 25.5t10.5 26v-1zM221 237q16 25 36.5 46t43 35t44 22 t39.5 8q16 0 22.5 -5.5t6.5 -12.5v-4q-7 -11 -29.5 -25t-51.5 -27.5t-59 -24t-52 -12.5z" />
<glyph unicode="&#xec;" horiz-adv-x="199" d="M183 65l69 278l-1 -1q8 29 12.5 47t4.5 31q0 24 -11 30.5t-31 6.5q-24 0 -38 -5t-23 -16t-14.5 -30t-11.5 -46l-2 -11l-65 -269l-3 -12h1l-5.5 -22t-2.5 -18q0 -17 9 -28t32 -14h9q34 0 47.5 24t21.5 55h2zM286 479q21 8 31 15.5t10 25.5q0 12 -6 29v-1q-5 18 -13.5 38 t-19 39.5t-22 36t-23.5 26.5q-32 24 -55 24q-19 0 -30 -13.5t-11 -42.5v-10q3 -18 7 -30.5t11 -23t16.5 -20t23.5 -22.5q15 -13 25 -22.5t13 -16.5q13 -23 24.5 -27.5t15.5 -4.5h3z" />
<glyph unicode="&#xed;" horiz-adv-x="204" d="M187 65l70 278l-1 -1q9 29 13.5 47t4.5 31q0 24 -11 30.5t-32 6.5q-24 0 -38.5 -5t-23.5 -16t-14.5 -30t-12.5 -46l-2 -11l-67 -269l-2 -12h1q-4 -12 -6.5 -22t-2.5 -18q0 -17 9 -28t34 -14h9q18 0 29.5 6.5t19 17.5t12 25.5t9.5 29.5h2zM193 479h2q8 0 17 4t29 25 q15 15 56 41q18 13 31.5 22.5t24 20t19.5 23t18 31.5q7 18 7 33q0 33 -31 33q-11 0 -27.5 -6t-34.5 -17q-15 -9 -33 -25.5t-35.5 -35t-33 -38.5t-27.5 -37q-18 -25 -18 -41q0 -13 7.5 -19t23.5 -13z" />
<glyph unicode="&#xee;" horiz-adv-x="204" d="M188 65l69 278l-1 -1q9 29 13.5 47.5t4.5 30.5q0 25 -11 31.5t-31 6.5q-25 0 -39.5 -5t-23.5 -16.5t-14.5 -30.5t-12.5 -46l-2 -11l-66 -269l-3 -12h1q-4 -12 -6.5 -22t-2.5 -18q0 -17 9.5 -28t33.5 -14h9q18 0 29.5 6.5t19 17.5t12.5 25.5t10 29.5h2zM402 528q2 5 2 13 q0 5 -1 11.5t-5 14.5l-56 115q-4 19 -15.5 32.5t-30.5 13.5t-27.5 -7.5t-16.5 -18.5l-139 -123q-3 -3 -4 -3q-10 -9 -18 -17t-13 -23l-2 -7v-7q0 -11 8 -19t28 -14h-1q5 -2 7 -2h5q11 0 23 7t30 26h-1l92 82l37 -75q8 -24 22 -32t24 -8q3 0 6 0.5t7 2.5q20 8 27.5 16.5 t11.5 22.5v-1z" />
<glyph unicode="&#xef;" horiz-adv-x="204" d="M188 65l70 277l-1 -1q9 29 13 47t4 30q0 25 -10.5 31t-31.5 6q-24 0 -39 -4.5t-24 -16t-14.5 -30t-11.5 -45.5l-3 -12l-66 -268l-3 -11h1q-8 -26 -8 -40q0 -17 9 -28t33 -14h9q18 0 29.5 6.5t19 17.5t12.5 25.5t10 29.5h2zM232 562q6 15 6 34q0 20 -10 34.5t-37 14.5 q-18 0 -35 -7.5t-31 -18.5t-23.5 -24.5t-13.5 -26.5q-1 -4 -1 -17q0 -25 16 -45.5t42 -20.5q18 0 32.5 8t26 19.5t18.5 25t10 25.5v-1zM407 566q2 8 4.5 16.5t2.5 18.5q0 19 -10 33.5t-38 14.5q-18 0 -35 -7.5t-31 -19t-23.5 -25t-12.5 -26.5q-1 -4 -1.5 -7.5t-0.5 -9.5 q0 -24 15.5 -44.5t41.5 -20.5q18 0 33 8t26.5 19.5t18.5 25t10 25.5v-1z" />
<glyph unicode="&#xf0;" horiz-adv-x="501" d="M341 483q-62 0 -118 -35.5t-91 -95.5q-17 -33 -26.5 -67t-9.5 -68q0 -67 32.5 -123t92.5 -81q9 -2 26 -6t40 -4q24 0 53 5.5t60 21t61.5 43t57.5 70.5q14 22 25 52t19 64.5t12.5 72t4.5 75.5q0 70 -17 136l19 12h-1q18 11 27.5 26.5t9.5 32.5q0 19 -13 33.5t-36 14.5 q-21 0 -52 -19q-13 17 -27.5 29.5t-31.5 20.5q-8 2 -15 4.5t-13 2.5q-17 0 -35.5 -10.5t-29.5 -27.5v-5q0 -6 6 -17t16 -25h-1q5 -8 11 -18t12 -21l-4 -4q-19 -12 -27 -27t-8 -29q0 -26 16 -39q-23 6 -45 6zM280 341q2 2 4.5 3.5t2.5 2.5q8 8 19 15.5t30 7.5q17 0 50 -11h-1 q24 -11 38 -31t14 -49q0 -40 -25 -84q-21 -38 -49.5 -57t-56.5 -19q-15 0 -30 6q-20 8 -37.5 25.5t-17.5 55.5q0 36 19 87q15 28 40 48zM462 440q-26 18 -41 26q16 0 35 10q4 -18 6 -36zM513 641l2 1q-1 -1 -2 -1v0z" />
<glyph unicode="&#xf1;" horiz-adv-x="473" d="M465 103l71 270l2 10t1 8q0 16 -7 29t-18 22t-24.5 14t-27.5 5q-12 0 -29.5 -3.5t-38 -9t-42.5 -12.5t-41 -13q-8 -3 -15.5 -5t-14.5 -4v9q2 6 2 10v6q0 12 -6 18t-24 6q-5 0 -9.5 -0.5t-9.5 -0.5q-35 -5 -53.5 -25t-23.5 -47v1l-30 -117q-4 -19 -6.5 -29.5t-6.5 -23.5 q-3 -9 -6.5 -21t-8 -29.5t-11 -42.5t-15.5 -60q0 -3 -1 -6l-2 -6l-3 -11l1 1q-2 -5 -2 -9v-5q0 -18 10 -31t30 -13h5q19 1 33 8t23.5 17t14 21.5t5.5 21.5l66 225q24 18 49 28.5t47 16t38 7.5t22 2q-1 -2 -1 -3l-1 -2l-69 -265h1q-4 -11 -5 -20.5t-1 -15.5q0 -24 12 -31.5 t35 -9.5h6q29 0 46.5 19.5t22.5 54.5l-1 -2zM554 593q0 1 0.5 2t0.5 2q0 14 -12 24t-29 10q-11 0 -23 -6t-20 -20h1q-2 -2 -4 -6.5t-3 -6.5q-3 -7 -7.5 -15t-9.5 -8t-8 4.5t-7 11.5q-7 14 -17.5 27t-37.5 13q-16 0 -37 -7.5t-41 -19.5t-35 -27.5t-19 -31.5v1q-2 -5 -2 -8v-5 q0 -16 10.5 -25.5t30.5 -9.5q13 0 23.5 7.5t21.5 18.5q8 7 14.5 13t11.5 6l2 -3t5 -7h-1q8 -13 21 -26.5t45 -13.5q23 0 42 4.5t34.5 16t27.5 31.5t21 51z" />
<glyph unicode="&#xf2;" horiz-adv-x="494" d="M555 259q9 33 9 67q0 28 -7.5 53t-23.5 43.5t-41 29t-60 10.5q-69 0 -130 -29t-109 -73.5t-80.5 -98.5t-44.5 -104q-8 -30 -8 -58q0 -26 7.5 -49t24 -40.5t42.5 -28t64 -10.5q57 0 114 23t106 62.5t85.5 91.5t51.5 111zM438 266q-9 -35 -31 -68t-51.5 -58.5t-64.5 -41 t-71 -15.5q-22 0 -30.5 11t-8.5 27q0 8 1 14.5t3 13.5q9 31 28 65.5t47 63.5t64 47.5t80 18.5q22 0 30.5 -12t8.5 -29q0 -19 -5 -37zM437 480q22 8 32.5 15t10.5 25q0 6 -1 13.5t-5 16.5v-1q-5 18 -14 38t-20 39.5t-23.5 35.5t-24.5 26q-32 24 -58 24q-19 0 -30.5 -13.5 t-11.5 -42.5v-9q3 -18 7 -30.5t11 -23t17 -20.5t25 -22q34 -28 41 -40q13 -22 24.5 -26.5t16.5 -4.5h3z" />
<glyph unicode="&#xf3;" horiz-adv-x="495" d="M557 259q4 17 6.5 33.5t2.5 33.5q0 28 -7.5 53t-23.5 43.5t-41 29t-60 10.5q-70 0 -131 -29t-109 -73.5t-81 -98.5t-45 -104q-7 -27 -7 -58q0 -26 7.5 -49t24 -40.5t42.5 -28t64 -10.5q57 0 114 23t106 62.5t86 91.5t52 111zM439 266q-9 -35 -31 -68t-51.5 -58.5 t-64.5 -41t-71 -15.5q-23 0 -31 11t-8 27q0 8 1 14.5t3 13.5q9 31 28 65.5t47 63.5t64 47.5t80 18.5q23 0 31 -12t8 -29q0 -19 -5 -37zM383 480h3q8 0 17.5 4t30.5 24q7 8 21.5 18t35.5 24q19 12 33 22t25 20.5t20 23t18 31.5q8 19 8 32q0 17 -9 25t-24 8q-26 0 -64 -23 q-16 -9 -34 -25t-36 -35t-34 -38.5t-28 -36.5q-11 -14 -15 -24t-4 -18q0 -13 7.5 -19t24.5 -12z" />
<glyph unicode="&#xf4;" horiz-adv-x="495" d="M556 259q5 17 7.5 33.5t2.5 33.5q0 28 -7.5 53t-23.5 43.5t-41.5 29.5t-60.5 11q-69 0 -130.5 -29t-109.5 -74t-80.5 -99t-44.5 -104q-4 -14 -5.5 -28.5t-1.5 -29.5q0 -26 7 -49t23.5 -40.5t43 -28t64.5 -10.5q57 0 114 23t106 62.5t85.5 91.5t51.5 111zM439 266 q-9 -35 -31 -68t-52 -58.5t-65 -41t-71 -15.5q-22 0 -30 11t-8 27q0 8 1 14.5t2 13.5q9 31 28 65.5t47.5 63.5t64.5 47.5t80 18.5q22 0 30.5 -12t8.5 -29q0 -19 -5 -37zM584 528q2 5 2 8v6q0 4 -1 11t-5 15l-58 115q-4 19 -16 32t-31 13q-20 0 -28.5 -7.5t-16.5 -18.5 l-143 -123q-3 -3 -4 -3q-11 -8 -19 -16.5t-13 -22.5l-2 -8v-7q0 -11 8 -19t29 -13h-1q5 -2 12 -2q11 0 23 6.5t31 25.5h-1l96 82l37 -75q8 -24 22.5 -31.5t25.5 -7.5q3 0 6 0.5t7 2.5q20 8 28 16t12 22v-1z" />
<glyph unicode="&#xf5;" horiz-adv-x="495" d="M556 257q5 17 7.5 33.5t2.5 33.5q0 28 -7.5 53t-23.5 43.5t-41.5 29t-60.5 10.5q-69 0 -130.5 -29t-109.5 -73.5t-80.5 -98t-44.5 -103.5q-7 -25 -7 -57q0 -26 7 -49t23.5 -40.5t43 -28t64.5 -10.5q57 0 114 23t106 62t85.5 91t51.5 110zM439 265q-9 -35 -31 -68 t-52 -58.5t-65 -41t-71 -15.5q-22 0 -30 11t-8 28q0 7 1 14t2 13q9 31 28 65.5t47.5 63.5t64.5 47.5t80 18.5q22 0 30.5 -12.5t8.5 -29.5q0 -18 -5 -36zM589 597q0 1 0.5 2t0.5 2q0 14 -12 23.5t-29 9.5q-11 0 -22.5 -5t-19.5 -17q-2 -2 -3 -6t-3 -9v1l-8.5 -17t-10.5 -9 q-5 0 -8 5l-6 10q-7 15 -18 28.5t-37 13.5q-17 0 -38 -7.5t-41 -20t-35.5 -28t-19.5 -31.5l1 1q-2 -3 -2.5 -5t-0.5 -7q0 -14 11.5 -24.5t30.5 -10.5q13 0 23.5 7.5t21.5 17.5q8 8 15 14t12 6l6 -10q8 -13 21 -26.5t45 -13.5q46 0 78 20.5t48 81.5v4z" />
<glyph unicode="&#xf6;" horiz-adv-x="496" d="M557 258q5 17 7.5 33.5t2.5 33.5q0 28 -7.5 52.5t-23.5 43t-41.5 29.5t-60.5 11q-70 0 -131 -29t-109 -73.5t-81 -98.5t-45 -104q-3 -14 -5 -28t-2 -29q0 -26 7.5 -49t24 -40.5t42.5 -28t64 -10.5q57 0 114.5 23t106.5 62t85.5 91t51.5 111zM440 265q-9 -35 -31 -68 t-52 -58.5t-65 -41t-71 -15.5q-23 0 -31 11.5t-8 27.5q0 7 1 14t3 13q9 31 28 65.5t47 63.5t64.5 47.5t80.5 18.5q22 0 30.5 -12t8.5 -29q0 -19 -5 -37zM600 567q2 7 4.5 16t2.5 18q0 19 -10.5 33.5t-39.5 14.5q-18 0 -35.5 -7.5t-32 -18.5t-24 -25t-12.5 -26q-1 -4 -1.5 -8 t-0.5 -10q0 -23 16 -44t42 -21q19 0 34.5 8t27 19.5t19 25.5t10.5 26v-1zM420 562q6 16 6 35t-10 33.5t-39 14.5q-19 0 -36 -7t-31.5 -18.5t-24 -25t-13.5 -25.5q-2 -8 -2 -17q0 -26 16.5 -46t43.5 -20q19 0 34 7.5t26.5 19t19 25t10.5 25.5v-1z" />
<glyph unicode="&#xf7;" horiz-adv-x="356" d="M366 164q15 0 27 6t21 15t14 20.5t5 22.5q0 20 -14.5 35.5t-49.5 15.5q-3 0 -6.5 0.5t-7.5 0.5q-5 0 -9 0.5t-9 0.5q-12 0 -21 -3h-124q-4 1 -13 1q-6 0 -12.5 -0.5t-13.5 -0.5q-4 -1 -7 -1h-5q-33 0 -50.5 -21t-17.5 -44q0 -20 13 -35.5t41 -15.5q1 0 4 -0.5t7 -0.5 q10 -2 21 -2q5 0 10.5 1t10.5 3l122 1zM380 386q2 9 4.5 19.5t2.5 18.5q0 21 -10.5 37t-42.5 16q-21 0 -40 -8t-34.5 -20.5t-26 -28t-14.5 -29.5v1q-2 -7 -2.5 -11.5t-0.5 -9.5q0 -28 17.5 -50.5t46.5 -22.5q21 0 38 9t29.5 22t21 28.5t11.5 28.5zM279 59q2 9 4 19t2 18 q0 22 -10.5 37.5t-41.5 15.5q-21 0 -40.5 -9t-35.5 -22.5t-27.5 -30.5t-15.5 -32v-11q0 -27 17.5 -50t46.5 -23q21 0 38 9t30 22t21 28.5t12 28.5z" />
<glyph unicode="&#xf8;" horiz-adv-x="494" d="M560 529q0 17 -9 27.5t-31 10.5q-21 0 -35 -5t-24 -12.5t-16.5 -16t-11.5 -16.5q-7 -13 -20 -35q-3 -5 -6.5 -11.5t-7.5 -12.5q-64 -7 -119.5 -37.5t-98.5 -73.5t-72.5 -93.5t-40.5 -97.5q-4 -14 -5.5 -28.5t-1.5 -28.5q0 -35 12.5 -64t43.5 -46q-16 -25 -25 -45t-9 -35 q0 -37 51 -37q14 0 26 6.5t21.5 16.5t18 22t14.5 22q9 12 11 16l9 19q53 7 104 32t94.5 63t75.5 86.5t46 102.5q10 33 10 66q0 32 -10.5 60t-33.5 48q5 8 8.5 15l5.5 11q9 16 17.5 35t8.5 36zM185 149q6 22 18 47t29 48t38.5 43.5t47.5 34.5q-33 -57 -67.5 -114.5 t-66.5 -108.5q-3 9 -3 22q0 7 1 14t3 14zM437 266q-11 -43 -40.5 -82t-67.5 -65q6 9 12 18.5t13 19.5q22 35 44.5 69t44.5 69q-1 -6 -2.5 -13.5t-3.5 -15.5z" />
<glyph unicode="&#xf9;" horiz-adv-x="480" d="M240 459h-6q-19 0 -33.5 -8t-24.5 -19.5t-15.5 -25.5t-5.5 -26l-73 -281q-7 -22 -7 -42q0 -40 22.5 -59t63.5 -19q27 0 44 0.5t33.5 4.5t38.5 11.5t58 21.5q2 -21 15.5 -26.5t32.5 -5.5q16 0 30.5 3.5t25.5 11.5t17.5 20.5t6.5 31.5q0 2 -0.5 3t-0.5 3l84 324 q14 32 14 54q0 20 -10.5 28.5t-27.5 8.5h-8q-30 -3 -49.5 -21.5t-36.5 -62.5l-64 -244q-13 -8 -30 -17.5t-35 -17.5t-36 -13t-33 -5q-9 0 -19.5 0.5t-10.5 3.5v3l73 275v-2q10 20 10 42q0 20 -10.5 32t-32.5 13zM436 479q22 8 32.5 15.5t10.5 25.5q0 12 -6 30v-1 q-5 18 -14 38t-20 39.5t-23.5 35.5t-24.5 26q-16 11 -30.5 17.5t-27.5 6.5q-19 0 -30.5 -13.5t-11.5 -42.5v-9q3 -18 7.5 -30.5t11.5 -23t17 -20.5t24 -23q34 -26 41 -39q13 -23 25 -27.5t16 -4.5h3z" />
<glyph unicode="&#xfa;" horiz-adv-x="481" d="M240 459h-5q-19 0 -34 -8t-25 -19.5t-15 -25.5t-5 -26l-74 -281q-7 -22 -7 -42q0 -40 22.5 -59t63.5 -19q27 0 44 0.5t34 4.5t38.5 11.5t58.5 21.5q1 -21 14.5 -26.5t33.5 -5.5q15 0 29.5 3.5t26 11.5t18 20.5t6.5 31.5q0 2 -0.5 3t-0.5 3l84 324q14 36 14 54 q0 20 -10.5 28.5t-28.5 8.5h-7q-31 -3 -50.5 -21.5t-36.5 -62.5l-63 -244q-13 -8 -30 -17.5t-35.5 -17.5t-36.5 -13t-33 -5q-9 0 -19.5 0.5t-10.5 3.5v3l73 275v-2q10 20 10 42q0 20 -10 32t-33 13zM357 479h3q8 0 17.5 4t29.5 25q16 16 58 42q19 12 32.5 22t24 20.5 t19.5 23t19 31.5q7 17 7 32q0 33 -32 33q-12 0 -28.5 -6t-35.5 -17q-15 -9 -33.5 -25t-36.5 -35t-34 -39t-28 -37q-19 -26 -19 -41q0 -13 8 -19t25 -13z" />
<glyph unicode="&#xfb;" horiz-adv-x="480" d="M240 460h-6q-19 0 -33.5 -8t-24.5 -20t-15.5 -25.5t-5.5 -25.5l-73 -282q-7 -22 -7 -42q0 -40 22.5 -59t63.5 -19q27 0 44 0.5t33.5 4.5t38.5 11.5t58 21.5q2 -21 15.5 -26.5t32.5 -5.5q16 0 30.5 3.5t25.5 11.5t17.5 20.5t6.5 31.5q0 2 -0.5 3t-0.5 3l84 325 q14 32 14 54q0 20 -10.5 28t-27.5 8h-8q-30 -3 -49.5 -21.5t-36.5 -62.5l-64 -244q-13 -8 -30 -17.5t-35 -17.5t-36 -13t-33 -5q-9 0 -19.5 0.5t-10.5 3.5v3l73 275v-2q10 21 10 42q0 20 -10.5 32.5t-32.5 13.5zM557 528q1 5 1 7v6q0 5 -0.5 11.5t-4.5 14.5l-58 116 q-3 19 -15 32t-32 13q-19 0 -28 -7.5t-17 -18.5l-142 -123q-3 -3 -4 -3q-11 -9 -19 -17t-13 -22l-2 -8v-7q0 -11 8.5 -19t28.5 -14h-1q5 -2 7 -2h5q11 0 23 7t31 26h-1l95 82l38 -75q8 -24 22.5 -32t24.5 -8q3 0 6 0.5t7 2.5q20 8 28 16.5t12 22.5v-1z" />
<glyph unicode="&#xfc;" horiz-adv-x="481" d="M241 458h-6q-19 0 -34 -8t-25 -19.5t-15 -25.5t-5 -26l-74 -280q-7 -24 -7 -43q0 -39 23 -58t63 -19q27 0 44 0.5t34 4.5t39 11.5t58 21.5q2 -21 15 -26.5t33 -5.5q15 0 29.5 3.5t26 11.5t18 20.5t6.5 31.5q0 2 -0.5 3t-0.5 2l84 324q7 17 10.5 30t3.5 24q0 20 -10.5 28 t-27.5 8h-8q-31 -3 -50.5 -21.5t-36.5 -61.5l-63 -243q-13 -8 -30 -17.5t-35.5 -17.5t-36.5 -13t-33 -5q-9 0 -19.5 0.5t-10.5 3.5v3l74 273v-2q9 22 9 43q0 20 -10 32t-32 13zM388 562q5 17 5 34q0 20 -9.5 34.5t-38.5 14.5q-19 0 -36 -7t-31 -18.5t-24 -25t-13 -25.5 q-2 -8 -2 -18q0 -25 16 -45.5t43 -20.5q19 0 34 8t26.5 19.5t19 25t10.5 25.5v-1zM567 567q2 7 4 16t2 18q0 19 -10 33.5t-39 14.5q-18 0 -35.5 -7.5t-31.5 -19t-23.5 -25t-12.5 -26.5q-1 -3 -1.5 -7t-0.5 -10q0 -23 15.5 -44t41.5 -21q19 0 34.5 8t27 19.5t19 25.5t10.5 26 v-1z" />
<glyph unicode="&#xfd;" horiz-adv-x="439" d="M536 359q9 16 16.5 31.5t7.5 28.5q0 17 -11.5 27.5t-38.5 10.5q-17 0 -28.5 -3t-19.5 -8.5t-14 -14t-12 -20.5l-143 -249l-61 231h1q-1 3 -1 5q0 3 -1 6v-2q-3 18 -10.5 33.5t-33.5 15.5q-9 0 -24 -3q-26 -8 -40.5 -24.5t-14.5 -44.5v-15q0 -6 2 -12l95 -334l-24 -40h1 q-2 -4 -4 -6.5t-3 -4.5v1q-5 -8 -12 -19.5t-15 -21.5t-17.5 -17t-19.5 -7q-2 0 -7.5 0.5t-12.5 1.5q-8 2 -18 3t-22 1q-15 0 -30 -3.5t-26 -13.5t-18 -27.5t-7 -44.5v-8q11 -16 30.5 -20t43.5 -4h47q34 0 62 12t51 32t42.5 47t37.5 56zM341 483h3q8 0 17.5 4t29.5 25 q17 17 58 42q19 13 33 22.5t25 20t20 23.5t18 32q4 10 6 17.5t2 15.5q0 33 -32 33q-13 0 -29.5 -6t-35.5 -17q-16 -10 -34.5 -26t-36.5 -35t-34 -39t-28 -37q-11 -14 -15 -24t-4 -18q0 -13 7.5 -19t24.5 -13z" />
<glyph unicode="&#xfe;" horiz-adv-x="503" d="M577 305q4 18 6 33.5t2 29.5q0 50 -27.5 78t-84.5 28q-41 0 -84 -8.5t-91 -31.5l29 116l-1 -1q17 50 17 73q0 28 -13 35.5t-35 7.5q-26 0 -41 -5t-24 -16.5t-14.5 -30t-12.5 -46.5l-3 -12l-194 -750h1q-9 -29 -9 -47q0 -39 35 -39q10 0 14 1h-1q34 7 51.5 23t25.5 52 l-1 -1l49 189q5 0 9.5 -0.5t8.5 -0.5q18 0 21 1l5 1h2q48 0 104.5 27t108 72t91.5 102.5t56 119.5zM438 349q23 0 23 -18q0 -2 -0.5 -7t-2.5 -11q-11 -41 -37.5 -80t-60.5 -70.5t-71 -50.5t-68 -19q-15 0 -15 2v2l53 196q8 8 26 18t42 18.5t52.5 14t58.5 5.5z" />
<glyph unicode="&#xff;" horiz-adv-x="439" d="M536 359q9 15 16.5 30.5t7.5 29.5q0 17 -11.5 27t-38.5 10q-17 0 -28.5 -3t-19.5 -8.5t-14 -14t-12 -20.5l-143 -249l-61 231h1q-1 3 -1 5q0 3 -1 6v-2q-3 18 -10.5 33.5t-33.5 15.5q-9 0 -24 -3q-26 -8 -40.5 -24.5t-14.5 -44.5v-14t2 -13l95 -333l-24 -40h1 q-2 -4 -4 -6.5t-3 -4.5v1q-5 -8 -12 -19.5t-15 -21.5t-17.5 -17t-19.5 -7q-2 0 -7.5 0.5t-12.5 1.5q-8 2 -18 3t-22 1q-15 0 -30 -3.5t-26 -13.5t-18 -27t-7 -45v-8q11 -16 30.5 -20t43.5 -4h47q34 0 62 12t51 32t42.5 47t37.5 56zM344 567q6 16 6 35q0 20 -9.5 34.5 t-38.5 14.5q-19 0 -36.5 -7.5t-32 -18.5t-24 -24.5t-13.5 -26.5q-2 -8 -2 -17q0 -26 16.5 -46.5t43.5 -20.5q19 0 34.5 8t26.5 19.5t18.5 25t10.5 25.5v-1zM525 572q2 8 4.5 16.5t2.5 18.5q0 19 -10.5 33.5t-39.5 14.5q-18 0 -36 -7.5t-32 -19t-23.5 -25t-12.5 -26.5 q-1 -4 -1.5 -8t-0.5 -9q0 -24 16 -45t42 -21q19 0 34.5 8t27 19.5t19 25.5t10.5 26v-1z" />
<glyph unicode="&#x152;" horiz-adv-x="947" d="M986 77q4 12 4 21q0 23 -15 32t-47 9h-16l-268 -22l47 164l215 23q5 1 10.5 1.5t10.5 0.5q12 0 23.5 2t21.5 8t18.5 17t14.5 28q1 4 2 8.5t1 7.5q0 17 -13.5 30t-52.5 13h-13t-14 -1l-192 -24l39 133l235 15q5 0 10 0.5t10 0.5q22 1 38 2t27.5 6.5t19.5 16.5t14 31v-1 q2 6 2.5 10.5t0.5 8.5q0 25 -18 33.5t-44 8.5q-8 0 -17.5 -0.5t-18.5 -1.5h1q-4 0 -8 -0.5t-8 -0.5q-87 -6 -136.5 -8t-77.5 -2h-66q-14 0 -23.5 -3.5t-18.5 -8.5q-44 41 -125 41q-50 0 -100 -19.5t-97 -52.5t-89 -75t-75.5 -87.5t-57.5 -90t-34 -81.5q-19 -67 -19 -118 q0 -87 46 -134.5t134 -47.5q61 0 122 24t117 65v-10q0 -23 14 -35.5t49 -12.5h10t10 1h-1l309 22q25 0 42 5t27 13t14.5 18t6.5 19zM612 448q-7 -29 -15 -61.5t-19 -70.5v2q-20 -49 -51.5 -92t-69.5 -74.5t-80.5 -50t-84.5 -18.5q-43 0 -62.5 24t-19.5 66q0 20 4 42t10 47 q12 41 44.5 93t75.5 98.5t93 78t97 31.5q45 0 62 -26.5t17 -66.5v-11t-1 -12v1z" />
<glyph unicode="&#x153;" horiz-adv-x="794" d="M878 299q5 20 5 37q0 48 -33.5 77.5t-91.5 29.5q-52 0 -100 -18.5t-90 -50.5q-13 35 -44 57t-82 22q-71 0 -133.5 -28.5t-111.5 -72.5t-82 -97t-46 -102q-3 -13 -5 -27t-2 -29q0 -26 7.5 -48.5t24 -39.5t43.5 -27t66 -10q51 0 102.5 17t97.5 49q11 -35 41.5 -52t78.5 -17 q51 0 105 16t99 38.5t75.5 45.5t34.5 37q6 18 6 29q0 33 -36 33q-12 0 -19 -0.5t-14 -2.5t-16 -6t-24 -11q-20 -12 -42 -25.5t-44.5 -24.5t-45 -18t-43.5 -7h-4q-10 0 -21.5 3.5t-12.5 25.5q0 13 0.5 17.5t2.5 10.5q55 13 114.5 28.5t109.5 35.5t85.5 46t44.5 59zM448 261 q-9 -35 -31.5 -67t-53 -57.5t-66.5 -40.5t-72 -15q-23 0 -31.5 11t-8.5 27q0 7 1 13.5t3 13.5q9 31 28.5 64.5t48 61.5t65.5 46.5t82 18.5q23 0 31 -11.5t8 -28.5q0 -10 -1 -19t-3 -17zM565 234q16 25 37.5 45t44 34t45 22t40.5 8q16 0 23 -5.5t7 -11.5q0 -2 -0.5 -3 t-0.5 -2q-7 -11 -30 -25t-52.5 -27t-60.5 -23t-53 -12z" />
<glyph unicode="&#x178;" horiz-adv-x="582" d="M733 548q21 21 29 36t8 26t-6.5 18.5t-16.5 13.5l3 -1q-1 1 -2.5 2t-1.5 2q-13 8 -25 8q-13 0 -26.5 -7t-27.5 -17h1q-3 -3 -11 -7l-20 -10l-220 -185l-108 161l2 -2q-16 34 -30 56.5t-32 22.5h-5q-12 -3 -24.5 -8t-23 -13.5t-17 -20t-6.5 -26.5q0 -21 17 -49l135 -235 l-65 -233q-9 -29 -9 -48q0 -20 9 -32.5t29 -12.5h5q20 2 34 9t23 18t14.5 24.5t9.5 28.5l67 240zM499 753q3 8 4.5 18t1.5 18q0 19 -9.5 33.5t-38.5 14.5q-19 0 -36.5 -7.5t-32 -19t-24.5 -25t-14 -26.5q-1 -3 -1.5 -7t-0.5 -10q0 -26 16.5 -46.5t43.5 -20.5q19 0 34.5 8 t27 20t19 25.5t10.5 25.5v-1zM680 757q2 8 4.5 17t2.5 18q0 19 -10.5 33.5t-39.5 14.5q-18 0 -35.5 -7.5t-31.5 -19t-24 -25t-14 -26.5q-1 -4 -1.5 -7.5t-0.5 -9.5q0 -24 16.5 -45t42.5 -21q20 0 35.5 8t27 19.5t19 25.5t10.5 26z" />
<glyph unicode="&#x2c6;" horiz-adv-x="366" d="M493 483q2 5 2 12q0 5 -1 11t-5 13l-56 106q-3 17 -15 29t-30 12q-19 0 -27.5 -6.5t-16.5 -17.5l-139 -112l-3 -3q-11 -8 -19 -15t-13 -21l-1 -7v-6q0 -10 7.5 -17.5t27.5 -12.5h-1q5 -2 7 -2h5q11 0 23 6.5t30 23.5h-1l92 75l37 -69q8 -22 22 -29t24 -7q2 0 5.5 0.5 t6.5 2.5q20 7 27.5 14.5t11.5 20.5v-1z" />
<glyph unicode="&#x2dc;" horiz-adv-x="447" d="M511 499q0 1 0.5 2l0.5 1q0 12 -11.5 20t-27.5 8q-11 0 -22 -4t-18 -14q-3 -3 -7 -13v1q-3 -7 -7.5 -14.5t-10.5 -7.5q-5 0 -7.5 4t-5.5 9q-7 12 -17.5 23.5t-35.5 11.5q-16 0 -36.5 -6.5t-39.5 -16.5t-33.5 -23t-18.5 -26h1q-2 -3 -2.5 -4.5t-0.5 -5.5q0 -12 11 -21 t29 -9q12 0 22.5 7t20.5 15q8 6 14.5 11t11.5 5l6 -8h-1q8 -11 21 -22.5t43 -11.5q45 0 75.5 17.5t45.5 68.5v3z" />
<glyph unicode="&#x2000;" horiz-adv-x="464" />
<glyph unicode="&#x2001;" horiz-adv-x="928" />
<glyph unicode="&#x2002;" horiz-adv-x="464" />
<glyph unicode="&#x2003;" horiz-adv-x="928" />
<glyph unicode="&#x2004;" horiz-adv-x="309" />
<glyph unicode="&#x2005;" horiz-adv-x="232" />
<glyph unicode="&#x2006;" horiz-adv-x="154" />
<glyph unicode="&#x2007;" horiz-adv-x="154" />
<glyph unicode="&#x2008;" horiz-adv-x="116" />
<glyph unicode="&#x2009;" horiz-adv-x="185" />
<glyph unicode="&#x200a;" horiz-adv-x="51" />
<glyph unicode="&#x2010;" horiz-adv-x="356" d="M378 181q29 0 48 17t19 35q0 17 -15 29.5t-49 12.5q-3 0 -6.5 0.5t-8.5 0.5q-4 0 -8.5 0.5t-8.5 0.5q-12 0 -21 -3h-124q-4 1 -13 1q-5 0 -12.5 -0.5t-13.5 -0.5q-4 -1 -7 -1h-4q-33 0 -50.5 -17t-17.5 -36q0 -17 13 -29.5t41 -12.5h4t6 -1q5 -1 9.5 -1.5t12.5 -0.5 q5 0 10.5 1t10.5 3l121 1z" />
<glyph unicode="&#x2011;" horiz-adv-x="356" d="M378 181q29 0 48 17t19 35q0 17 -15 29.5t-49 12.5q-3 0 -6.5 0.5t-8.5 0.5q-4 0 -8.5 0.5t-8.5 0.5q-12 0 -21 -3h-124q-4 1 -13 1q-5 0 -12.5 -0.5t-13.5 -0.5q-4 -1 -7 -1h-4q-33 0 -50.5 -17t-17.5 -36q0 -17 13 -29.5t41 -12.5h4t6 -1q5 -1 9.5 -1.5t12.5 -0.5 q5 0 10.5 1t10.5 3l121 1z" />
<glyph unicode="&#x2012;" horiz-adv-x="356" d="M378 181q29 0 48 17t19 35q0 17 -15 29.5t-49 12.5q-3 0 -6.5 0.5t-8.5 0.5q-4 0 -8.5 0.5t-8.5 0.5q-12 0 -21 -3h-124q-4 1 -13 1q-5 0 -12.5 -0.5t-13.5 -0.5q-4 -1 -7 -1h-4q-33 0 -50.5 -17t-17.5 -36q0 -17 13 -29.5t41 -12.5h4t6 -1q5 -1 9.5 -1.5t12.5 -0.5 q5 0 10.5 1t10.5 3l121 1z" />
<glyph unicode="&#x2013;" horiz-adv-x="513" d="M494 268h-287q-4 1 -11 1h-14t-5.5 -0.5t-1.5 -1.5h-3q-5 -1 -9 -1q-38 0 -60.5 -18t-22.5 -37q0 -15 13 -25.5t40 -10.5l12 -2q5 -1 10.5 -1.5t11.5 -0.5q5 0 10.5 0.5t10.5 2.5h276q9 -3 16 -3q6 0 14 1.5t14 2.5h2q18 0 33.5 6t27 15t18 19.5t6.5 19.5q0 14 -11.5 24 t-38.5 10z" />
<glyph unicode="&#x2014;" horiz-adv-x="724" d="M704 268l-494 1q-3 0 -5.5 0.5t-5.5 0.5h-14t-5.5 -0.5t-2 -1t-2.5 -0.5q-5 -1 -9 -1q-40 0 -62 -18.5t-22 -37.5q0 -15 13 -25.5t40 -10.5l12 -2q5 0 10.5 -0.5t12.5 -0.5h10q6 0 11 2l482 -1q5 -1 8.5 -1.5t8.5 -0.5t13.5 1t14.5 2h2q18 0 34 6t27.5 15t18.5 20t7 20 q0 14 -12 24t-39 10z" />
<glyph unicode="&#x2018;" horiz-adv-x="145" d="M218 534q0 3 0.5 7t0.5 7q0 5 0.5 9.5t0.5 8.5q0 21 -7.5 36.5t-36.5 15.5q-18 0 -27.5 -7.5t-14 -20t-5.5 -28t-1 -31.5l-2 -111v-15q0 -29 6.5 -49t30.5 -22h4q25 0 37 27t12 65l-1 1z" />
<glyph unicode="&#x2019;" horiz-adv-x="128" d="M200 414l48 118q1 4 2 7.5t-1 0.5l6 22t3 18q0 16 -8.5 27t-31.5 11q-33 0 -51.5 -26.5t-27.5 -59.5v1l-38 -107q-3 -7 -5 -11t-3.5 -7.5t-2.5 -7.5t-2 -11q0 -3 -0.5 -7t-0.5 -9q0 -15 6 -26t23 -13q1 0 3.5 -0.5t3.5 -0.5q21 0 43.5 23.5t33.5 58.5v-1z" />
<glyph unicode="&#x201a;" horiz-adv-x="128" d="M116 -46l48 117q1 5 2 8t-1 1q2 11 5.5 21.5t3.5 17.5q0 16 -8.5 27t-31.5 11q-33 0 -51.5 -26t-28.5 -60v1l-36 -106l-5 -10t-3.5 -7.5t-2.5 -8t-3 -11.5q-1 -5 -1 -17q0 -15 6 -25.5t22 -13.5q2 0 4 -0.5t4 -0.5q20 0 42.5 24t34.5 59v-1z" />
<glyph unicode="&#x201c;" horiz-adv-x="331" d="M210 419l9 116q0 2 -0.5 4.5t-0.5 5.5q0 12 -1.5 25t-7 23.5t-16.5 17.5t-30 7q-33 0 -46 -23t-13 -54q0 -3 0.5 -6t0.5 -7l-1 -105q-2 -6 -2 -9v-12q0 -9 1.5 -20t6.5 -21t13.5 -17.5t22.5 -9.5h6q24 0 40.5 24.5t17.5 60.5zM370 534q0 3 0.5 7t0.5 7q0 5 0.5 9.5 t0.5 8.5q0 21 -9 36.5t-42 15.5q-21 0 -32.5 -7.5t-17 -20t-6.5 -28t-1 -31.5l-3 -111v-15q0 -14 1.5 -26.5t6 -22t13.5 -15.5t23 -7h5q29 0 43 27t14 65v1z" />
<glyph unicode="&#x201d;" horiz-adv-x="291" d="M216 414l53 118q1 3 1 6q0 4 0 2q2 11 5.5 22t3.5 18q0 16 -8.5 27t-34.5 11q-35 0 -55.5 -26.5t-30.5 -59.5v1l-40 -107q-8 -14 -10 -18.5t-4 -18.5q-2 -8 -2 -16q0 -15 7 -26t24 -13q2 0 4.5 -0.5t3.5 -0.5q23 0 47 23.5t36 58.5v-1zM421 529v-1q1 5 5 13q5 11 9.5 22 t4.5 22q0 15 -9.5 24t-33.5 9q-20 0 -33 -7t-22.5 -19t-16 -26.5t-11.5 -29.5l-43 -112q-7 -15 -11 -29.5t-4 -25.5q0 -16 7.5 -25t25.5 -10h5q28 0 50.5 26t35.5 64h-1z" />
<glyph unicode="&#x201e;" horiz-adv-x="291" d="M125 -50l52 118q1 3 1 6q0 4 0 2q2 11 5.5 22t3.5 18q0 16 -8.5 27t-34.5 11q-35 0 -55.5 -26.5t-30.5 -59.5v1l-40 -108l1 3q-4 -7 -6.5 -11t-4 -7.5t-2.5 -8t-2 -12.5q-1 -5 -1 -15q0 -14 5.5 -25.5t24.5 -14.5q2 0 4.5 -0.5t3.5 -0.5q23 0 47 24t37 58v-1zM329 65 q1 2 1 4t2 4q6 13 11 25t5 22q0 15 -9.5 24.5t-33.5 9.5q-20 0 -33 -7t-22.5 -19t-16 -27t-11.5 -30l-43 -111v1q-14 -31 -14 -56q0 -34 32 -35h5q27 0 50 26t37 64l-1 1z" />
<glyph unicode="&#x2022;" horiz-adv-x="252" d="M308 264q4 12 6.5 26t2.5 28q0 28 -14.5 49t-56.5 21q-30 0 -58 -11.5t-50.5 -29.5t-38.5 -39.5t-22 -40.5q-1 -5 -1.5 -11.5t-0.5 -14.5q0 -18 6.5 -36.5t18 -32.5t28 -23t37.5 -9q30 0 54 12.5t42 31t30 40t17 40.5z" />
<glyph unicode="&#x2026;" horiz-adv-x="656" d="M445 78q2 8 4.5 16.5t2.5 16.5q0 20 -11 34t-43 14q-22 0 -42 -7.5t-36 -18.5t-27.5 -24.5t-15.5 -26.5v2q-2 -5 -2 -10v-10q0 -25 18 -45t48 -20q22 0 39.5 8t30.5 19.5t21.5 25.5t12.5 26zM660 79q2 8 4 17t2 17q0 19 -11 33t-43 14q-22 0 -42 -7t-36.5 -18.5 t-27.5 -25t-14 -25.5h1q-2 -5 -2.5 -9t-0.5 -9q0 -25 18 -45t48 -20q22 0 39.5 8t30.5 19.5t21.5 25t12.5 25.5zM224 80q2 8 4.5 17t2.5 17q0 19 -11.5 33t-43.5 14q-21 0 -41 -7.5t-36 -18.5t-27 -24.5t-15 -26.5v1q-2 -5 -2.5 -9t-0.5 -9q0 -25 18 -45t48 -20q22 0 39.5 8 t31 19.5t22 25t11.5 25.5z" />
<glyph unicode="&#x202f;" horiz-adv-x="185" />
<glyph unicode="&#x2039;" horiz-adv-x="238" d="M294 450h-3q-17 0 -33 -10l-124 -79q-15 -7 -28.5 -19t-16.5 -28l1 2q-2 -5 -2 -8v-5q0 -15 6.5 -21t14.5 -12l-3 2l92 -116q1 -1 1.5 -2t1.5 -2q7 -10 13.5 -16t20.5 -9h10q10 0 18.5 7.5t19.5 30.5q2 4 2.5 8t0.5 9q0 11 -5 20.5t-18 22.5l1 -2l-61 77l83 52 q25 13 34 29.5t9 24.5v5q-5 23 -11.5 30t-23.5 9z" />
<glyph unicode="&#x203a;" horiz-adv-x="238" d="M154 450q-14 -1 -23 -8t-20 -27q-4 -8 -4 -16q0 -11 5.5 -24t22.5 -23l-1 1l60 -49l-91 -78h1q-26 -19 -33.5 -31t-7.5 -26q2 -25 9.5 -33.5t19.5 -8.5h9q15 3 24.5 10t20.5 18v-1l137 116q11 5 18.5 13t10.5 25q0 2 0.5 5t0.5 5q0 15 -8 25t-21 17l-87 73q-26 17 -39 17 h-4z" />
<glyph unicode="&#x205f;" horiz-adv-x="232" />
<glyph unicode="&#x20ac;" horiz-adv-x="574" d="M466 311q-16 0 -21 -1t-14 -8h-168q13 34 35 72h158q8 -5 15.5 -6t15.5 -1q31 0 49.5 16t26.5 45q4 12 4 23q0 21 -11.5 36t-34.5 15h-13t-8.5 -1t-7 -3t-9.5 -6h-96q33 32 69 51t74 19q47 0 55 -11q15 -17 23 -26h-1q26 -32 38 -32q16 0 30.5 6.5t25.5 17.5t17.5 25 t6.5 29q0 22 -17 42q-32 37 -73.5 50t-91.5 13q-39 0 -79 -13.5t-78.5 -38t-74.5 -58.5t-67 -74h-41q-10 6 -19.5 7t-12.5 1q-18 0 -32.5 -8t-25 -21t-16 -28t-5.5 -29q0 -20 11.5 -35t35.5 -15q14 0 29 5q-8 -16 -14.5 -31.5t-12.5 -31.5q-6 2 -12 2.5t-11 0.5 q-18 0 -32.5 -8.5t-25 -21t-16 -28t-5.5 -28.5q0 -20 11 -34.5t36 -14.5q10 0 24 3v-23q0 -40 10 -73.5t30.5 -58t50.5 -38t70 -13.5q45 0 92 15t89.5 38.5t78 53t58.5 58.5l-1 -1q21 24 21 43q0 18 -13 27.5t-33 9.5t-47 -11.5t-47 -36.5q-10 -13 -29 -27.5t-41.5 -27 t-46.5 -20.5t-43 -8q-42 0 -58.5 25t-16.5 62v13h171q10 -5 15 -5.5t10 -0.5h2q19 0 35 8t27 20.5t17.5 27.5t6.5 29q0 21 -12.5 34.5t-39.5 13.5z" />
<glyph unicode="&#x2122;" horiz-adv-x="773" d="M819 283l93 321q2 9 2.5 13.5t0.5 8.5q0 20 -9 27t-29 9h-3q-11 0 -30.5 -17.5t-38.5 -38.5q-50 -60 -83 -98t-54 -62q-8 -10 -15 -17.5t-12 -13.5t-8.5 -10t-6.5 -8q-4 21 -9 45t-9 44q-4 17 -6.5 28.5t-2.5 13.5q-8 42 -17.5 62t-18.5 27l16 1q-4 22 -16.5 33.5 t-27.5 11.5q-26 0 -41 -32v3q0 33 -37 33h-6q-3 0 -8 -2l2 1q-32 -5 -56.5 -9.5t-53.5 -9.5q-25 -5 -55.5 -11t-75.5 -14q-20 -5 -39.5 -12.5t-24.5 -28.5v1q-2 -5 -2 -8v-4q0 -14 9.5 -22.5t33.5 -8.5h9q5 0 9 1l53 10l-77 -271v1q-1 -2 -1 -4t-1 -4q-4 -11 -4 -22 q0 -12 7 -20.5t28 -8.5q28 0 37 11.5t19 38.5l85 295l83 15q26 6 39.5 12.5t18.5 15.5l-98 -325q-1 -5 -1.5 -9t-0.5 -7q0 -21 9.5 -28.5t25.5 -9.5h5q10 0 18 5.5t14.5 14t11 17.5t6.5 16l46 164q7 -24 12.5 -47t10.5 -46v1l3 -16.5t2 -9.5t2 -7.5t3 -8.5q1 -2 1.5 -4 t1.5 -4q2 -10 14 -19t29 -9q11 0 23.5 5t24.5 19q9 9 13 14.5t10 13.5q3 4 7 10t12 16q11 14 37 42t55 60l-50 -170v1q-6 -15 -6 -26q0 -13 7 -22t27 -10h4q25 0 39 17t16 38z" />
<glyph unicode="&#xe000;" horiz-adv-x="450" d="M0 450h450v-450h-450v450z" />
<glyph unicode="&#xfb01;" horiz-adv-x="471" d="M530 339q21 67 21 98q0 40 -32 40h-7l-182 -27l6 32q1 6 5.5 20.5t12 29.5t19.5 26.5t29 11.5q11 0 25 -6t20 -14q17 -5 28 -8t19 -3q14 0 32 9q22 11 31 26t9 29q0 18 -14 29q-11 7 -24.5 15.5t-31.5 16t-39.5 12.5t-46.5 5q-46 0 -78.5 -20.5t-55.5 -53.5t-38 -74 t-25 -81l-7 -27l-18 -7l2 1q-3 -1 -6.5 -1.5t-6.5 -1.5h1q-9 -2 -17 -4.5t-14.5 -8t-12.5 -15.5t-11 -27v1q-2 -5 -3 -10.5t-1 -9.5q0 -19 11 -26t27 -7h9q5 0 10 2l-64 -246q-3 -8 -5 -15t-2 -14q0 -21 13.5 -34.5t34.5 -13.5h5q13 1 26 7t23 16t16.5 22t6.5 26l70 272 q47 8 72.5 13t38.5 8l-68 -276q-1 -4 -2 -6.5t-2 -5.5h1q-8 -24 -8 -39q0 -18 9.5 -29t35.5 -13h8q17 0 28.5 6t19 16t12.5 24t10 29l0.5 1t0.5 3h1z" />
<glyph unicode="&#xfb02;" horiz-adv-x="544" d="M527 69l133 507l-1 -1q1 2 1 4t1 4q11 31 11 53q0 17 -8.5 28t-34.5 11h-7q-24 -2 -38.5 -14.5t-24.5 -29.5q-28 17 -67 33.5t-77 16.5q-47 0 -79.5 -20.5t-56 -53.5t-38.5 -74t-25 -82l-8 -26l-18 -7h1q-3 -1 -6 -1t-5 -1q-9 -2 -17 -5t-15 -8.5t-13 -15.5t-11 -26v1 q-3 -11 -3 -20q0 -19 11 -26t27 -7h9q5 0 10 2l-65 -246q-3 -8 -5 -15t-2 -14q0 -21 13.5 -34.5t35.5 -13.5h5q28 2 50 23t23 48l70 272l125 23q29 11 43 17t19 15l-83 -312q-1 -7 -1.5 -13.5t-0.5 -14.5q0 -26 11 -40t33 -14h5q33 1 46 21t24 53zM461 466q-12 0 -24 -3h2 l-106 -14l7 33q1 6 5.5 20.5t12.5 29t20 26t29 11.5q26 0 49.5 -10t44.5 -21q6 -4 13 -7.5l13 -6.5l-25 -97q0 18 -9.5 28.5t-31.5 10.5z" />
</font>
</defs>
</svg>
