<?xml version="1.0" standalone="no"?>
<!DOCTYPE svg PUBLIC "-//W3C//DTD SVG 1.1//EN" "http://www.w3.org/Graphics/SVG/1.1/DTD/svg11.dtd" >
<svg xmlns="http://www.w3.org/2000/svg">
<metadata></metadata>
<defs>
<font id="komika_text_tightregular" horiz-adv-x="166" >
<font-face units-per-em="1000" ascent="800" descent="-200" />
<missing-glyph horiz-adv-x="196" />
<glyph horiz-adv-x="1000" />
<glyph horiz-adv-x="1000" />
<glyph horiz-adv-x="333" />
<glyph horiz-adv-x="267" d="M196 582q1 11 0.5 24.5t-4 25t-11.5 19.5t-23 8t-28 -7.5t-22.5 -19.5t-15 -26t-6.5 -27t3 -27t11 -25.5t16.5 -19t20.5 -7.5q15 0 26 8t18 20.5t10.5 27t4.5 26.5z" />
<glyph horiz-adv-x="392" d="M277 628q2 33 -10 60t-41 27q-24 0 -42.5 -13t-32 -33.5t-21 -44.5t-8.5 -46q0 -15 2 -29t8 -25t16.5 -17.5t26.5 -6.5q19 0 37 10.5t32 28t23 40.5t10 49zM236 621q-1 -23 -14 -41.5t-31 -18.5q-9 0 -12 8.5t-3 18.5q1 10 4 21t8.5 20t13.5 15t19 6t13.5 -9t1.5 -20z " />
<glyph horiz-adv-x="300" d="M61 695q0 -15 7 -30l65 -123q5 -14 12.5 -24.5t18.5 -10.5q12 0 16.5 6.5t8.5 15.5l95 129q8 9 13 16.5t7 20.5v8q0 7 -5 12.5t-19 10.5q-9 2 -16.5 -2.5t-20.5 -26.5l-73 -98l-49 95q-9 24 -21.5 29t-14.5 3q-14 -7 -18.5 -13.5t-5.5 -17.5z" />
<glyph unicode="&#xd;" horiz-adv-x="500" />
<glyph horiz-adv-x="338" d="M325 572q2 11 5.5 23.5t3.5 23.5q0 14 -5.5 23t-18.5 9q-23 0 -32 -12.5t-13 -26.5q-10 -21 -26.5 -60t-37 -87t-42.5 -101t-41.5 -102.5t-35.5 -91.5t-24 -68q-15 -42 -15 -65q0 -31 30 -31q7 0 13 5.5t10.5 13.5t8.5 17.5t7 17.5q1 3 2.5 8.5t4 12t4 12t2.5 7.5 q9 29 25.5 68.5t36 84t40.5 91t40 89t34.5 78.5t23.5 59v2z" />
<glyph horiz-adv-x="376" d="M351 343q6 68 2.5 98t-22.5 26l-157 -31l1 55q0 7 1.5 24t6 34.5t14 31t26.5 13.5q11 0 24.5 -7t20.5 -15q23 -10 33 -10q9 0 19 7q20 15 20.5 35t-9.5 28q-18 14 -47 31t-67 17q-34 0 -55 -20.5t-33.5 -53t-18 -73.5t-7.5 -81l-2 -35l-17 -10q-8 -3 -14 -5t-11.5 -6 t-9 -13t-4.5 -25q-2 -15 1.5 -23t9.5 -11t14 -2t16 4l11 -1l-15 -278q-7 -25 4.5 -43.5t29.5 -16.5q19 2 31 21.5t7 42.5l15 292q39 10 61 15.5t32.5 8.5t13 4t3.5 1l-14 -311q-1 -16 -2 -29.5t1 -24t8 -17t20 -8.5t22 4t12.5 17t6 26t3.5 30v-1z" />
<glyph horiz-adv-x="430" d="M385 65l27 525q1 17 2.5 33t-1 27.5t-9.5 18t-22 5.5q-18 -2 -26 -17.5t-11 -35.5q-12 9 -27.5 19t-32.5 19t-34.5 15t-33.5 6q-34 0 -55 -20.5t-33.5 -53t-18 -73.5t-7.5 -81l-2 -35l-17 -10q-8 -3 -14 -5t-11.5 -6t-9 -13t-4.5 -25q-2 -15 1.5 -23t9.5 -11t14 -2t16 4 l11 -1l-15 -278q-7 -25 4.5 -43.5t29.5 -16.5q19 2 31 21.5t7 42.5l15 292l102 26q14 7 22 12t12 9.5t5 11t1 16.5l1 1q-1 20 -9.5 30.5t-31.5 3.5l-97 -17l1 55q0 7 1.5 24t6 34.5t14 31t26.5 13.5q16 0 31.5 -6t30.5 -14.5t29 -17.5t26 -15l-27 -482q0 -32 9 -50.5 t27 -16.5q10 0 16 5.5t10 15t6 22.5t4 29v1z" />
<glyph horiz-adv-x="333" d="M210 378q14 13 16 32t-5.5 33t-22.5 17.5t-35 -14.5q-4 -3 -7.5 -6t-8.5 -7l10 153q3 37 -2 53.5t-25 16.5q-29 0 -36 -19.5t-8 -52.5l-15 -222q-28 -23 -42 -37t-18 -19q-16 -15 -17.5 -33.5t6 -32.5t22 -18.5t30.5 9.5q2 2 12 7l-12 -183q-3 -11 -3 -25q0 -11 1.5 -22 t5.5 -19t10 -12.5t15 -2.5l208 37q26 7 38 22.5t7 29.5q2 26 -14.5 34t-45.5 1l-150 -27l15 241z" />
<glyph horiz-adv-x="232" d="M139 58l13 247l80 74q14 13 16 32t-5.5 33t-23 17.5t-35.5 -14.5q-5 -5 -12 -10.5t-13 -11.5l8 158q1 17 2.5 33t-1 27.5t-9.5 18t-22 5.5q-13 -1 -20.5 -9t-11.5 -20t-5.5 -26.5t-2.5 -28.5l-12 -228q-23 -17 -35.5 -30t-16.5 -18q-17 -15 -18.5 -33.5t6.5 -32.5 t22.5 -18.5t29.5 9.5q1 1 5 3l-10 -183q-1 -32 8.5 -50.5t26.5 -16.5q20 1 26 20.5t10 51.5v1z" />
<glyph horiz-adv-x="426" d="M412 54q3 16 -5 23t-23.5 7.5t-38.5 -2t-50 -4.5q-26 0 -47 -0.5t-41.5 -1t-41.5 -2.5t-46 -5l329 530q7 12 8 24t-2 22t-10.5 16t-16.5 5l-240 -19q-32 -1 -50.5 -4t-28.5 -9.5t-12.5 -18t-3.5 -29.5q-2 -28 22 -32t67 9l173 18l-320 -514q-11 -18 -13 -34t3 -27.5 t15 -18t22 -5.5q29 2 70 3.5t83 2t79 1t59 0.5h24q16 0 25 20t11 45zM169 931q0 -15 7 -30l65 -123q5 -14 12.5 -24.5t18.5 -10.5q12 0 16.5 6.5t8.5 15.5l95 129q8 9 13 16.5t7 20.5v8q0 7 -5 12.5t-19 10.5q-9 2 -16.5 -2.5t-20.5 -26.5l-73 -98l-49 95q-9 24 -21.5 29 t-14.5 3q-14 -7 -18.5 -13.5t-5.5 -17.5z" />
<glyph horiz-adv-x="347" d="M344 405q1 16 -5 24t-16.5 10.5t-25 1.5t-29.5 -2l-173 -4q-12 0 -21.5 -0.5t-16 -4.5t-11 -12.5t-6.5 -24.5q-3 -23 8.5 -33.5t23.5 -10.5q19 -1 37 -0.5t37 2t41 3t50 1.5l-174 -263q-21 -26 -35 -42t-12 -30t4 -21t7.5 -10t17 -2.5t34.5 2.5l179 4q3 -3 9.5 -4 t14.5 -1t14 1t8 3q17 10 23.5 23t4.5 37q-2 12 -9 16.5t-17.5 5.5t-23 -0.5t-24.5 -1.5h-127l185 278q18 20 23 30.5t5 24.5zM87 692q-2 -14 7 -30l65 -123q4 -14 12 -24.5t19 -10.5t15.5 6.5t8.5 15.5l96 129q7 9 12 16.5t7 20.5v8q0 7 -5 12.5t-19 10.5q-8 2 -15.5 -2.5 t-21.5 -26.5l-72 -98l-50 95q-9 24 -21 29t-15 3q-14 -7 -18 -13.5t-5 -17.5z" />
<glyph unicode=" "  horiz-adv-x="196" />
<glyph unicode="&#x09;" horiz-adv-x="196" />
<glyph unicode="&#xa0;" horiz-adv-x="196" />
<glyph unicode="!" d="M133 241l27 347q1 8 1.5 16t0.5 16q0 26 -7 46t-26 20q-16 0 -25 -9.5t-13 -23t-4.5 -28.5t0.5 -27l-23 -354q-7 -36 -4 -60.5t25 -24.5q25 0 35.5 23t12.5 59zM129 63q2 25 -6.5 40.5t-31.5 15.5t-39.5 -24t-18.5 -59q-2 -18 6 -36t28 -18q27 0 42.5 16t19.5 65z" />
<glyph unicode="&#x22;" horiz-adv-x="258" d="M104 491l8 128q-1 11 -1.5 24t-3.5 24.5t-10 19.5t-21 8q-12 0 -19.5 -7t-11.5 -19t-5 -27t0 -31l-2 -119l-1 -11.5t0.5 -26t7 -27.5t19.5 -16q17 -4 28.5 20t11.5 60zM235 492l3 125q0 13 1 26.5t-1 25t-8.5 19t-21.5 7.5q-14 0 -21 -7t-10.5 -18.5t-4 -26t-0.5 -29.5 l-3 -123q0 -32 3.5 -55t23.5 -25t29.5 21.5t9.5 58.5v1z" />
<glyph unicode="#" horiz-adv-x="524" d="M506 442q3 7 1.5 16.5t-8.5 16t-18.5 9.5t-29.5 -2h-18l21 75q18 46 17.5 72t-24.5 26q-11 0 -17.5 -3t-11.5 -11t-9.5 -23.5t-11.5 -40.5l-27 -95h-83l26 90q14 37 11 60t-28 23q-10 0 -17.5 -7.5t-12.5 -18.5t-7.5 -23t-3.5 -20l-31 -104h-30q-34 2 -51.5 -8.5 t-19.5 -31.5q-2 -28 13.5 -34t41.5 -3h24l-45 -154h-21q-70 5 -75 -42q0 -8 1 -15.5t6 -13.5t16 -8.5t31 0.5h21l-27 -89q-14 -53 -13 -74.5t30 -21.5q7 0 13.5 7.5t12 19.5t10 26t6.5 28l30 104h82l-27 -97q-9 -26 -10.5 -42.5t2 -26.5t10.5 -14t15 -5q7 -1 14 7.5t13 21.5 t11 29t8 30l27 97h28q22 -1 36 -2t23 3t13 14.5t5 33.5q2 20 -10 25t-53 5h-18l43 154h26q8 -1 15 -1h14q20 0 32.5 9t8.5 29zM347 405l-44 -154h-83l45 154h82z" />
<glyph unicode="$" horiz-adv-x="375" d="M368 284q2 41 -3.5 70.5t-17.5 49t-28.5 28.5t-35.5 9t-39 -10l6 109q17 1 29 -7.5t19 -14.5q29 -29 46.5 -27.5t20.5 48.5q1 19 -9 35.5t-26 29t-36 19.5t-38 7l2 21q2 7 3 18.5t-2 22t-10 17.5t-20 6q-12 -2 -19.5 -9.5t-11 -17.5t-4.5 -21t0 -19l-2 -26 q-25 -10 -49.5 -31t-44 -50.5t-32.5 -66.5t-16 -80q-2 -30 4 -55t17 -42.5t25 -27t27 -9.5q10 0 21.5 7t25.5 18l-12 -186q-16 -9 -28 -5t-19.5 12t-10.5 16.5t-3 7.5q3 29 -5 44.5t-20 16t-23.5 -13t-13.5 -42.5q-2 -32 7 -55t26 -38t39 -22.5t45 -9.5l-4 -53 q-9 -81 27 -81q25 0 31 24t6 58l4 57q27 10 52.5 32.5t46.5 56t35 79t18 101.5zM304 291q-4 -66 -26.5 -110.5t-54.5 -62.5l15 227q23 14 40 14q15 0 21.5 -18t4.5 -50zM178 389q-14 -13 -26.5 -22.5t-21.5 -9.5t-12.5 13.5t-1.5 30.5q3 45 24 79.5t47 52.5z" />
<glyph unicode="%" horiz-adv-x="496" d="M411 620q1 18 -7 32.5t-20 19.5t-25 -2t-22 -31q-53 -149 -89 -251t-60 -169t-37.5 -104t-19.5 -55.5t-7.5 -24t-1.5 -8.5q-2 -23 6 -37t20 -15.5t27 12t27 45.5q50 141 85 238t58.5 161t36.5 100t19.5 54.5t8 24.5t1.5 10zM481 133q1 24 -3 45.5t-12.5 38t-21.5 26.5 t-29 10q-24 0 -47.5 -8.5t-42 -27.5t-31 -50t-15.5 -76q-2 -18 0.5 -39t10.5 -39t22.5 -30t38.5 -12q17 0 38.5 11t41 32t34 51t16.5 68zM258 551q4 52 -17.5 85.5t-63.5 33.5q-21 0 -41 -11.5t-36 -31.5t-27 -46.5t-13 -57.5q-2 -19 2 -40t13 -38.5t24 -29t36 -11.5 q17 0 37.5 11.5t38.5 32t31.5 47t15.5 56.5zM417 133q-3 -32 -19.5 -55t-33.5 -23q-12 0 -15.5 9.5t-3.5 19.5v13q2 32 17 51t32 19q23 0 23 -22v-12zM194 558q-1 -14 -6.5 -26.5t-14 -22.5t-17 -16t-15.5 -6q-2 0 -5.5 0.5t-6 4t-4.5 10.5t-1 21q2 24 17 43t30 19 q12 0 18 -9.5t5 -17.5z" />
<glyph unicode="&#x26;" horiz-adv-x="470" d="M372 156q15 25 32.5 58.5t26.5 56.5q11 16 10 28t-8.5 19.5t-19 11t-23.5 3.5q-9 0 -15 -7t-9.5 -17t-6 -20.5t-4.5 -17.5q-4 -8 -8 -18t-10 -20q-20 46 -39.5 92t-33.5 79q16 12 32.5 29.5t30 38.5t22.5 44.5t11 48.5q1 25 -7.5 44.5t-24 33t-35.5 20.5t-41 7 q-47 0 -76 -23t-33 -82q-2 -29 7.5 -62.5t20.5 -62.5q-58 -42 -93 -104t-41 -161q-2 -39 0.5 -75.5t13 -65t30 -45.5t52.5 -17q44 0 94 32.5t94 84.5l25 -55q13 -32 27.5 -39t27 0.5t22 24t12.5 32.5zM288 164q-17 -21 -36 -40t-38.5 -33t-38.5 -22.5t-36 -8.5 q-11 0 -18.5 10.5t-12 27.5t-6 37t0.5 40q5 70 31 114t69 76q7 -18 17 -41.5t21 -50t23 -54.5t24 -55zM292 563q-2 -29 -19.5 -49t-40.5 -34q-9 20 -17 42.5t-6 42.5q2 17 11.5 24t26.5 7q6 0 14 -2t15.5 -5.5t12 -10t3.5 -15.5z" />
<glyph unicode="'" horiz-adv-x="128" d="M104 491l8 128q-1 11 -1.5 24t-3.5 24.5t-10 19.5t-21 8q-12 0 -19.5 -7t-11.5 -19t-5 -27t0 -31l-2 -119l-1 -11.5t0.5 -26t7 -27.5t19.5 -16q17 -4 28.5 20t11.5 60z" />
<glyph unicode="(" horiz-adv-x="288" d="M288 767q1 25 -5 38.5t-17 17t-24.5 -2t-25.5 -18.5q-70 -70 -105.5 -176t-46.5 -263q-21 -328 109 -458q26 -24 38.5 -8.5t14.5 48.5q1 11 -3.5 21.5t-11.5 20.5t-15 17.5t-12 12.5q-9 18 -19.5 51t-18 78t-11.5 100t1 117q8 132 36.5 225t74.5 135q11 13 25 22t16 22z " />
<glyph unicode=")" horiz-adv-x="288" d="M271 359q1 72 -2.5 138t-15.5 123.5t-33.5 104.5t-56.5 81q-12 11 -22 11.5t-18 -7t-12.5 -21.5t-5.5 -32q-1 -12 5.5 -22t15 -21t18 -24.5t14.5 -31.5q4 -15 12.5 -42t16 -65.5t12 -86.5t0.5 -105q-3 -57 -7 -95.5t-13.5 -74.5t-26.5 -77.5t-46 -105.5 q-6 -6 -14.5 -13.5t-16.5 -16.5t-14 -20t-7 -24q-2 -20 6 -31t19 -15.5t22.5 -2.5t16.5 10q39 56 66 106.5t45 104.5t27.5 115.5t14.5 139.5z" />
<glyph unicode="*" horiz-adv-x="398" d="M385 580q0 31 -8.5 41t-33.5 10q-5 0 -15.5 4.5t-21.5 2.5q-19 -4 -31 -4q-26 0 -33 16q-3 9 -5 25.5t-2 41.5q-1 49 -8 69q-9 33 -39 33q-19 -2 -31 -24t-9 -47q0 -11 1 -23.5t4 -26.5q-3 -9 -8 -9l-32 45q-20 24 -42 24q-13 0 -22 -12.5t-9 -29.5q0 -20 23 -60l34 -57 q-9 -12 -29 -12h-1q-14 0 -15 -1q-12 -4 -22 -16t-10 -26q0 -34 22 -61q24 -26 49 -26q5 0 13.5 2t13.5 2q18 0 23 -11q4 -7 4 -34q0 -8 -0.5 -22t-0.5 -22q0 -52 35 -81q5 -4 19 -4q23 0 28 47q6 60 15 76q5 -2 14 -7t24 -15q28 -19 32 -19q13 0 22.5 14.5t9.5 31.5 q0 19 -24 45q-27 25 -30 39q15 5 31 9.5t32 9.5q33 13 33 62z" />
<glyph unicode="+" horiz-adv-x="407" d="M334 265h-84l6 101q4 9 4 23q0 16 1 18q1 28 -9 41t-23 12.5t-25 -13.5t-13 -37q-1 -11 -3.5 -24.5t-0.5 -19.5l-7 -101h-76q-5 4 -16.5 1t-16.5 -3q-22 0 -33.5 -14t-13 -31t7.5 -31t29 -14q7 0 19.5 -3t20.5 2h73l-7 -106q-4 -8 -3.5 -24.5t-0.5 -24.5q-2 -30 7 -42.5 t23 -12.5t25.5 12t13.5 32q0 4 1 15t1.5 23t1.5 23t1 17l7 88h81q9 -5 20 -2t15 3q19 0 31 14.5t15 32t-4.5 32t-27.5 14.5z" />
<glyph unicode="," horiz-adv-x="160" d="M137 25q3 42 -7 66t-42 24q-25 0 -38.5 -12t-19 -29t-3 -36t9.5 -32q15 -26 12 -41.5t-13 -25t-20.5 -14.5t-11.5 -10q-2 -24 6 -31.5t20 -7.5q21 0 40 14.5t33 36.5t23 48t11 50z" />
<glyph unicode="-" horiz-adv-x="289" d="M262 234q17 0 26.5 14.5t9.5 31.5t-11.5 31.5t-35.5 14.5q-9 0 -21.5 1.5t-20.5 -2.5h-103q-2 1 -9 1q-8 0 -17 -1.5t-13 -1.5q-20 0 -29 -14.5t-8.5 -31.5t10.5 -31.5t29 -14.5q8 0 20 -3.5t20 4.5l101 1z" />
<glyph unicode="." horiz-adv-x="149" d="M129 64q1 11 0.5 24.5t-4 25t-11.5 19.5t-23 8t-28 -7.5t-22.5 -19.5t-15 -26t-6.5 -27t2.5 -27t10.5 -25.5t17 -19t21 -7.5q15 0 25.5 8t18 20.5t11 27t4.5 26.5z" />
<glyph unicode="/" horiz-adv-x="302" d="M293 572q4 13 7 28.5t3 29.5t-5.5 23.5t-18.5 9.5q-14 0 -23.5 -4.5t-15 -11t-9 -14.5t-5.5 -15q-8 -28 -21 -70t-28 -91.5t-31.5 -102.5t-32.5 -103.5t-30.5 -95t-24.5 -76.5q-18 -55 -17.5 -83t32.5 -28q11 0 19.5 10.5t14.5 24t10 27t7 19.5q8 26 22 66t30.5 87 t34 98.5t34 101t29 94t19.5 77.5v-1z" />
<glyph unicode="0" horiz-adv-x="379" d="M30 301q0 -61 10.5 -115.5t30 -96t47 -65.5t61.5 -24q37 0 66 27.5t49.5 74t31.5 109t11 131.5v7q0 48 -5 102.5t-18 101t-37 77.5t-61 31q-33 0 -57 -9t-49 -42q-38 -51 -59 -133t-21 -176zM179 103q-34 0 -55 48.5t-21 148.5q0 66 11 124.5t30 92.5q4 9 12 18t17 16.5 t17.5 12.5t14.5 5q18 0 31.5 -16.5t21.5 -45t12 -67.5t4 -85q0 -45 -4 -89t-14.5 -79.5t-29 -58t-47.5 -25.5z" />
<glyph unicode="1" horiz-adv-x="187" d="M65 534v-7q0 -58 -9.5 -135t-9.5 -171q0 -41 2 -91.5t4 -101.5q0 -6 4.5 -11t10.5 -8q12 -9 24 -9q16 0 20 9t4 24q1 61 1 119t1.5 110.5t5 96.5t9.5 77q5 23 7 49t5 69q0 6 0.5 14t1.5 16t1.5 13.5t0.5 6.5q-2 12 -8 19.5t-13.5 12t-13.5 6t-7 1.5q-12 0 -27 -8.5 t-28 -19t-21.5 -20.5t-8.5 -13q0 -34 41 -44z" />
<glyph unicode="2" horiz-adv-x="381" d="M142 136q13 19 28 42t29.5 47t29 47t27.5 42q24 34 41 68t27.5 63t15 52.5t4.5 37.5v3q0 45 -22 72t-60 27q-45 0 -91 -30q-19 -12 -42 -31.5t-43.5 -41.5t-34 -43.5t-13.5 -39.5t11.5 -33t18.5 -15q15 3 30 17t38 43q12 16 27 30.5t30 25.5t29 18t24 7q11 0 18 -9t7 -22 q0 -11 -12.5 -39t-33 -65t-45.5 -79t-49.5 -81.5t-46.5 -72.5t-35 -51q-17 -23 -26.5 -38t-15 -25t-7.5 -15.5t-2 -9.5q0 -15 6.5 -25.5t17.5 -10.5q6 0 23 5.5t41 11.5t53.5 11.5t60.5 5.5q40 0 64 -1.5t36.5 -3t17 -3t7.5 -1.5h4q14 0 19.5 13t5.5 31q0 36 -26.5 49.5 t-87.5 13.5q-21 0 -45.5 -2.5t-52.5 -9.5v15z" />
<glyph unicode="3" horiz-adv-x="394" d="M267 344q57 42 83.5 79.5t26.5 87.5q0 28 -9 51t-24 39.5t-34.5 25.5t-40.5 9q-17 0 -41 -8t-49.5 -22t-51 -32t-45 -37.5t-32 -40t-12.5 -38.5q0 -20 13 -36t26 -16q11 0 20 15q18 28 40 50.5t44 39t43 25.5t36 9t26 -9t11 -30q0 -24 -19.5 -51.5t-48.5 -51.5t-62 -42 t-60 -23q-14 -2 -18 -9t-4 -24q0 -23 8 -43t19 -20q2 0 5.5 2t11.5 5q33 16 71 16q35 0 56 -16t21 -53q0 -21 -8 -41t-23 -35.5t-37 -25t-49 -9.5q-32 0 -54.5 10t-30.5 32q-7 21 -20 26t-18 5q-14 0 -26 -7.5t-12 -29.5q0 -25 13.5 -47t36.5 -38.5t53.5 -26t64.5 -9.5 q37 0 70 12t58 36t40 60t15 84q0 57 -21 93.5t-61 49.5z" />
<glyph unicode="4" horiz-adv-x="448" d="M221 204q-6 -65 -6 -103q0 -54 11 -76.5t35 -22.5q20 0 31.5 12.5t11.5 23.5q-7 26 -8.5 42.5t-1.5 38.5q0 15 1 35t3 45l1 16l4 4q7 1 18 2.5t21 1.5l59 -6h2q6 0 10.5 5.5t8 13t5 16t1.5 15.5q0 16 -6.5 24.5t-17.5 13t-25.5 5.5t-29.5 1h-36l-3 7q2 22 7 52.5t12 65.5 t16 73t18 75q3 9 4 13.5t1 5.5q-3 5 -7.5 13.5t-10.5 16.5t-12 13.5t-10 5.5q-16 -9 -46 -39t-65.5 -71t-72.5 -88.5t-67.5 -92t-50 -80.5t-19.5 -55q0 -9 3 -18.5t7 -17.5t9 -13.5t10 -5.5q1 0 1.5 0.5t1.5 0.5q18 8 41.5 16t47 14.5t44.5 10.5t33 4q13 0 13 -5q0 -1 -1 -1 v-1zM235 310l-5 -3q-44 -4 -68.5 -7.5t-34.5 -8.5l-3 9q30 44 50 72.5t34 48t24.5 32t21.5 24.5l6 -5q-5 -32 -11.5 -68t-12.5 -81z" />
<glyph unicode="5" horiz-adv-x="388" d="M117 384l19 121q2 12 29 19.5t62 12t69.5 6t51.5 1.5q12 0 16 11t4 25q0 37 -11 47t-23 10h-13q1 0 -24.5 -3t-63 -9t-79 -16t-73.5 -24q-6 -4 -12.5 -24.5t-12.5 -49.5t-11.5 -63t-9 -63.5t-6 -50t-2.5 -24.5q0 -8 3 -17.5t8 -17.5t12 -13.5t16 -5.5q6 0 15 5 q53 31 99 31q21 0 40 -8t33.5 -21.5t23 -32.5t8.5 -40q0 -42 -28 -64.5t-73 -27.5h-9q-25 0 -46.5 14t-38.5 31t-29 31t-18 14q-15 0 -28 -19v-1q-15 -22 -15 -38q0 -24 16 -47t41 -41t55.5 -29t59.5 -11q44 0 79 15.5t59.5 41.5t37.5 60.5t13 73.5q0 36 -11.5 71t-34 62.5 t-56.5 44.5t-78 17q-30 0 -60 -10z" />
<glyph unicode="6" horiz-adv-x="415" d="M176 454q14 36 30.5 62.5t31 45.5t24 29.5t9.5 15.5q0 20 -12 33.5t-28 13.5q-22 0 -49 -32t-61 -104q-29 -63 -46.5 -107.5t-26.5 -79t-11.5 -61t-2.5 -53.5q0 -69 20 -111t46.5 -65.5t52.5 -31.5t37 -8q39 0 74 21.5t61.5 57.5t42 82.5t15.5 96.5q0 40 -11 76t-31 63 t-48 43t-61 16q-10 0 -23 -2.5t-30 -8.5zM304 247q-7 -50 -19.5 -80t-28 -46t-32 -21.5t-31.5 -5.5q-35 0 -59 32.5t-24 93.5q0 37 8 66t22 48.5t32.5 29.5t39.5 10q26 0 41 -6.5t23 -16.5t11 -20.5l5 -17.5q12 -32 12 -66z" />
<glyph unicode="7" horiz-adv-x="361" d="M221 509q-28 -81 -50.5 -152.5t-38 -130t-24 -102t-8.5 -68.5v-5q0 -23 9 -37t29 -14q26 0 36.5 14t10.5 22v5q-3 13 -3.5 20t-0.5 15q0 26 14 93.5t52 179.5q16 47 33.5 87.5t32.5 71t24 48t9 19.5q-1 20 -6 31.5t-12 17.5t-14.5 7.5t-13.5 1.5l-9.5 -2.5t-26 -5.5 t-39 -5t-47.5 -2q-34 0 -54 0.5t-31 1t-15.5 1t-7.5 0.5h-3q-32 -5 -44.5 -19t-12.5 -26q0 -18 12.5 -28t28.5 -15t31 -6t21 -1h6q29 0 49 1t48 6q2 2 9 1.5t9 0.5l4 -8z" />
<glyph unicode="8" horiz-adv-x="387" d="M204 295l1 8q9 9 27.5 31.5t38 48.5t36 50t20.5 37q16 45 16 76q0 15 -5.5 30.5t-16 28.5t-26 21.5t-36.5 8.5q-23 0 -48.5 -6t-49.5 -15t-44.5 -19.5t-32.5 -19.5q-53 -39 -53 -109q0 -73 70 -163l1 -7q-43 -55 -62 -95t-19 -80q0 -56 38.5 -88.5t100.5 -32.5 q26 0 51.5 5.5t46 18t33.5 31.5t13 46v4q0 17 -5 34.5t-16 37.5t-28 45.5t-41 59.5zM155 364q-14 14 -24 30.5t-16 31.5t-9 25.5t-3 12.5q0 14 12 29.5t31.5 29t45 22.5t52.5 10h3q15 0 22.5 -9.5t7.5 -22.5q0 -15 -10 -33t-23 -34.5t-25 -29.5t-16 -17q-14 -15 -22 -23.5 t-12 -13t-5.5 -5.5l-1.5 -1l-2 -2h-5zM152 235q68 -81 68 -114q0 -19 -16 -33h-1q-15 -12 -39 -12q-70 0 -70 49q0 23 13.5 51.5t40.5 58.5h4z" />
<glyph unicode="9" horiz-adv-x="394" d="M262 18q6 -18 33 -18q14 0 26.5 7t12.5 27q-2 23 -2.5 42t-0.5 45q0 53 3.5 107t9 106t13.5 98.5t17 84.5q9 34 11 45t2 17q0 14 -10 30.5t-20 22.5q-6 2 -24 6.5t-38 4.5q-42 0 -73.5 -10t-54 -23t-35.5 -25.5t-17 -16.5q-36 -35 -56 -70.5t-29.5 -67t-12 -56.5 t-2.5 -39q0 -31 8.5 -56.5t23 -44t34 -29t41.5 -10.5q38 0 77 23t71 52zM286 488q0 -29 -11.5 -65.5t-31.5 -68.5t-46.5 -53.5t-57.5 -21.5q-21 0 -35 16.5t-14 43.5q0 36 13.5 72.5t34.5 66.5t46.5 48.5t49.5 18.5q21 0 35.5 -14t16.5 -43z" />
<glyph unicode=":" horiz-adv-x="148" d="M145 344q2 32 -7 53t-31 21q-14 0 -25.5 -8t-19 -20.5t-12 -27.5t-5.5 -30q-2 -27 9 -50t33 -23q27 0 41 26t17 59zM128 67q2 32 -7 53t-31 21q-14 0 -25 -8t-19 -20.5t-12 -27.5t-5 -30q-2 -27 8 -50t33 -23q27 0 41 26t17 59z" />
<glyph unicode=";" horiz-adv-x="148" d="M131 25q3 42 -7 66t-42 24q-15 0 -26 -8.5t-18.5 -20.5t-11 -26t-4.5 -25q-2 -28 9.5 -40t23.5 -12q10 0 18 6q-6 -21 -18.5 -29t-24.5 -12.5t-21.5 -11t-10.5 -22.5q-2 -24 6 -31.5t20 -7.5q21 0 40 14.5t33 36.5t23 48.5t11 50.5zM146 344q2 32 -6.5 53t-30.5 21 q-14 0 -25.5 -8t-19 -20.5t-12 -27.5t-5.5 -30q-2 -27 8.5 -50t32.5 -23q27 0 41 26t17 59z" />
<glyph unicode="&#x3c;" horiz-adv-x="394" d="M373 393q1 18 -7 30.5t-20 17t-25 -1t-20 -24.5l-211 -140q-14 -9 -20.5 -21.5t-6.5 -25.5q0 -26 21 -45l193 -180q7 -13 18.5 -15t22.5 4t19 18.5t9 28.5q2 27 -7.5 34t-19.5 8l-159 144l181 120q11 0 20.5 11.5t11.5 36.5z" />
<glyph unicode="=" horiz-adv-x="440" d="M412 409q2 22 -6 40t-24 18q-11 0 -18 -5l-7 -5h-227q-6 6 -12.5 7t-9.5 1q-19 0 -29 -17.5t-11 -38t6.5 -38t24.5 -17.5q16 0 25 10h225q7 -5 12 -6t10 -1q20 0 29.5 14t11.5 38zM367 268q-11 0 -16 -4.5l-5 -4.5h-229q-5 5 -11 6t-11 1q-18 0 -28 -17.5t-11.5 -38 t6 -38t25.5 -17.5q8 0 27 11h224q8 -5 12 -5.5t7 -0.5q20 0 31.5 17t14 37t-6 37t-29.5 17z" />
<glyph unicode="&#x3e;" horiz-adv-x="394" d="M344 190q7 6 12.5 16.5t7 22.5t-2.5 23.5t-15 20.5l-197 144q0 8 -9.5 18t-18.5 10q-18 0 -30 -14t-16 -31.5t2 -33.5t23 -21l166 -119l-178 -143q-9 0 -20.5 -6t-13.5 -34q-2 -21 6.5 -35.5t20 -20t23.5 -1.5t18 19z" />
<glyph unicode="?" horiz-adv-x="398" d="M367 552q2 27 -6 50.5t-23.5 41t-36 27.5t-42.5 10q-24 0 -47 -10t-44.5 -25t-41.5 -34t-38 -37q-15 -16 -26.5 -37t-13.5 -41q-2 -26 6 -39.5t22 -13.5t31.5 14.5t35.5 43.5q28 35 55.5 60.5t54.5 25.5q18 0 32 -9.5t12 -26.5q-1 -16 -16 -36t-37.5 -43t-49 -48.5 t-49 -53t-39 -56t-18.5 -56.5q0 -10 -0.5 -19.5t-0.5 -18.5q0 -26 10 -41t39 -15q13 0 18 23t16 57.5t33.5 74.5t70.5 74q17 12 33.5 28.5t29 37t21 43.5t9.5 49zM188 38q2 30 -4.5 50.5t-28.5 20.5q-26 0 -45 -16t-22 -61q-2 -34 13.5 -47.5t33.5 -13.5q26 0 39 18t15 50z " />
<glyph unicode="@" horiz-adv-x="604" d="M599 407q3 53 -4 101.5t-28.5 85.5t-58.5 59t-94 22q-69 0 -134 -39t-116.5 -102t-84.5 -143.5t-39 -163.5q-3 -51 2.5 -97t24 -81.5t53 -56t88.5 -20.5q22 0 41 5.5t33 12t22.5 11.5l8.5 5q16 0 27.5 15t14.5 33.5t-5.5 33.5t-30.5 15q-13 0 -18.5 -9t-13.5 -25 q-1 -1 -10.5 -7t-27.5 -13.5t-36 -7.5q-39 0 -62 15.5t-35 40.5t-15 56.5t-1 63.5q2 35 13 78t30.5 86t47.5 84t63.5 73t78.5 51t93 19q38 0 61.5 -18.5t36.5 -47.5t16 -65t1 -70q-4 -56 -15 -99.5t-25.5 -73t-29 -44.5t-24.5 -15q-8 0 -8 13t2 24l31 277q2 3 3 11.5t-1 18 t-8 17t-18 7.5q-7 1 -16.5 -6t-11.5 -20l-8 1.5t-15 1.5q-44 0 -84 -30.5t-71.5 -76t-51.5 -98t-23 -97.5q-3 -43 11.5 -69t57.5 -26q21 0 42 14t41 35.5t38 46t32 45.5q-12 -78 -3.5 -123t45.5 -45q25 0 53 22t52 63t41 98t22 128zM410 431q-1 -11 -9.5 -32.5t-22 -47 t-30.5 -52t-34.5 -48.5t-34 -36t-29.5 -14q-14 0 -17.5 10t-2.5 19q1 25 16.5 62.5t38.5 73t51.5 61t56.5 25.5q10 0 14 -6.5t3 -14.5z" />
<glyph unicode="A" horiz-adv-x="448" d="M444 78q-10 45 -29 112t-39 140.5t-38.5 144t-27.5 123.5q-2 27 -11 46t-21 23.5t-26 -9t-26 -52.5l-204 -522q-3 -8 -8 -23.5t-5.5 -32t6 -29t27.5 -14.5q15 -2 26.5 22.5t24.5 61.5l59 159l20.5 2t48.5 4.5t56 4.5t42 2q10 -32 16.5 -50.5t10 -31t6.5 -22t6 -24.5 q4 -16 11 -38t14 -42t12.5 -34t8.5 -14q16 -2 25.5 5t14 20t4.5 30q0 18 -4 38zM300 328l-114 -9l73 201q3 -16 8 -42t10.5 -53.5t11.5 -54t11 -42.5z" />
<glyph unicode="B" horiz-adv-x="460" d="M454 285q4 60 -28 99.5t-96 39.5q49 34 68 70t22 78q2 36 -24 62.5t-80 26.5q-57 0 -108 -16t-94 -30q-6 -2 -12.5 -7t-11.5 -13t-7.5 -19.5t-0.5 -26.5l-26 -448q-2 -21 -4 -43t-1.5 -40t5 -29t14.5 -11q33 0 73.5 9.5t82 27.5t81.5 44.5t71.5 60.5t52 75.5t23.5 89.5z M382 289q-3 -45 -31.5 -83t-67.5 -66t-82 -46t-77 -24l16 247q41 13 75 20.5t66 7.5q16 0 34.5 -1.5t34 -7.5t24.5 -17t8 -30zM346 553q-2 -28 -22 -53t-49.5 -45t-64 -33.5t-65.5 -17.5l9 117q64 53 156 53q13 0 25.5 -4.5t10.5 -16.5z" />
<glyph unicode="C" horiz-adv-x="430" d="M403 136q13 25 7 40t-21 17.5t-33.5 -8t-31.5 -35.5q-6 -14 -19.5 -30.5t-30.5 -30t-36 -22.5t-35 -9q-28 0 -46 16.5t-27.5 43.5t-12.5 62t-1 71q4 61 19 121.5t39.5 107.5t56 76.5t68.5 29.5q23 0 36 -4.5t19 -12.5q20 -24 31.5 -39.5t14.5 -15.5q13 0 23.5 10t15.5 25 t2.5 32.5t-14.5 32.5q-29 35 -61 48t-69 13q-48 0 -92 -35.5t-78 -95t-56.5 -136t-27.5 -157.5q-4 -57 4 -108t26 -89.5t47 -61t67 -22.5q34 0 67 15t61.5 39t51 53.5t36.5 58.5z" />
<glyph unicode="D" horiz-adv-x="454" d="M458 434q3 45 -5 88t-27.5 76t-50.5 53.5t-74 20.5q-32 0 -56.5 -4.5t-44.5 -11.5t-38 -15.5t-36 -16.5q-13 -6 -21.5 -16.5t-14 -23.5t-7 -27.5t0.5 -28.5l-28 -421q-1 -21 -2 -43t0.5 -39.5t8 -28.5t20.5 -11q20 0 54.5 10t74.5 32.5t81.5 57.5t76.5 85t59 115.5 t29 148.5zM385 434q-6 -81 -34 -142t-67 -103t-82 -67t-77 -35l29 449q23 17 57.5 33t75.5 16q28 0 47.5 -13t31 -34.5t16 -48.5t3.5 -55z" />
<glyph unicode="E" horiz-adv-x="398" d="M396 55q2 29 -11 38.5t-42 7.5l-219 -25l13 202l169 25q10 2 18 2q15 0 28 8.5t15 37.5q1 8 -1 17t-9 15.5t-19.5 9.5t-33.5 0l-161 -27l11 170l187 16q19 1 32.5 1.5t22.5 4.5t13.5 13.5t6.5 28.5q1 20 -5.5 29.5t-18 12.5t-26 1.5t-29.5 -2.5q-67 -6 -104.5 -8.5 t-60.5 -2.5h-51q-13 0 -22 -7t-14 -17.5t-7 -22t0 -20.5q-2 -33 -4 -106.5t-8 -179.5l-10 -170q-2 -28 -4.5 -51t1.5 -39t16 -24t39 -5l235 23q34 0 43.5 14.5t9.5 29.5z" />
<glyph unicode="F" horiz-adv-x="364" d="M403 614q-2 31 -16.5 39t-43.5 6q-67 -8 -103.5 -12.5t-55 -7.5t-26 -4.5t-15.5 -2.5q-44 -6 -55.5 -22t-2.5 -59q-4 -60 -6.5 -95.5t-4 -61t-3.5 -48t-4 -56.5l-19 -226q-4 -49 2.5 -65.5t31.5 -11.5q12 2 19.5 6.5t11.5 13.5t6.5 23t4.5 34l17 213l171 35q21 2 32.5 6 t16.5 10.5t6.5 15.5t2.5 22q3 22 -7.5 31t-27 10.5t-34.5 -1.5t-28 -5l-128 -26l10 170l196 18q29 4 39.5 15t12.5 36z" />
<glyph unicode="G" horiz-adv-x="540" d="M539 368q2 21 -9.5 31.5t-29.5 10.5q-11 0 -23 -6l-20.5 -8.5t-47 -20t-52 -21.5t-36.5 -13q-25 -3 -37.5 -20.5t-15.5 -36.5t4 -32.5t21 -8.5q45 14 83.5 31.5t85.5 33.5q-11 -40 -32 -84t-51 -81t-70 -61t-89 -24q-30 0 -51.5 16.5t-34 43t-17.5 60.5t-3 69 q4 63 30.5 125t65.5 111t85.5 78t91.5 25q26 -2 39.5 -8.5t20 -15t9 -17t6.5 -15.5t12.5 -10t27.5 0q16 2 21 21.5t-2 44.5q-11 37 -43.5 63t-84.5 26q-36 0 -74.5 -13.5t-76.5 -39.5t-72.5 -63.5t-61.5 -85t-44.5 -104.5t-21.5 -122q-4 -53 2.5 -103t26.5 -88.5t55 -62 t88 -23.5q67 0 124.5 35t100.5 91.5t69 127.5t31 144z" />
<glyph unicode="H" horiz-adv-x="461" d="M116 49l16 244l234 10l-13 -219q-2 -15 0 -28.5t7.5 -23.5t14 -15.5t19.5 -4.5t18 7.5t10.5 16.5t5 22t1.5 23v15q0 8 1 14l31 511q3 28 0.5 48.5t-27.5 20.5q-16 0 -25 -5t-14 -13.5t-7 -19.5t-3 -23l-12 -236l-237 -13l13 200q1 7 1 18q0 12 -2 23.5t-8 20.5t-18 11 q-11 2 -19 -3t-13 -13.5t-8 -20t-4 -21.5q-2 -21 -4.5 -61t-5.5 -87.5t-6.5 -97.5t-5.5 -92l-10 -199q-2 -36 3 -51t30 -22q14 -4 25 11.5t12 52.5z" />
<glyph unicode="I" d="M123 56l34 513q1 13 2.5 27.5t0.5 27t-6 21t-18 8.5q-34 0 -42 -18t-8 -55l-34 -522q-5 -27 0.5 -48t29.5 -25q13 -2 20.5 3t11 14.5t5.5 23.5t4 30z" />
<glyph unicode="J" horiz-adv-x="391" d="M355 171l27 401q1 18 1.5 33t-2 25.5t-8.5 16.5t-19 6q-15 0 -23 -8.5t-12.5 -20.5t-6 -26t-2.5 -26l-27 -401q-1 -22 -10.5 -47.5t-26.5 -47.5t-40 -36.5t-51 -14.5q-17 0 -27.5 2.5t-17 8.5t-10 15.5t-6.5 23.5q0 15 1.5 33.5t0 34.5t-8 27t-23.5 11h-11 q-10 0 -22.5 -14t-14.5 -55q-2 -28 4 -56.5t23.5 -52t46 -38t71.5 -14.5q41 0 75 18t59.5 48t41 70t18.5 84z" />
<glyph unicode="K" horiz-adv-x="413" d="M388 64l-195 300l170 186q28 21 32 42.5t-5.5 34.5t-27 13.5t-31.5 -20.5l-185 -206l14 172q0 32 -4 51.5t-31 19.5q-17 -1 -27 -21.5t-12 -49.5l-34 -528q-2 -44 5 -59.5t25 -15.5q8 0 15.5 3t13.5 11.5t9.5 23.5t2.5 38l16 254l191 -299q14 -21 22.5 -29.5t16.5 -4.5 q31 13 33.5 33t-14.5 51z" />
<glyph unicode="L" horiz-adv-x="333" d="M334 63q2 26 -14.5 34t-45.5 1l-150 -27l33 515q3 37 -2 53.5t-25 16.5q-29 0 -36 -19.5t-8 -52.5l-34 -529q-3 -11 -3 -25q0 -11 1.5 -22t5.5 -19t10 -12.5t15 -2.5l208 37q26 7 38 22.5t7 29.5z" />
<glyph unicode="M" horiz-adv-x="582" d="M538 57l36 532q0 38 -9.5 50t-28.5 16q-4 1 -11 -5.5t-15 -18.5t-17 -27.5t-16 -31.5q-33 -70 -58 -122.5t-44 -90.5t-31.5 -63.5t-19.5 -41.5q-11 -22 -16.5 -38.5t-9 -22.5t-6.5 0.5t-9 29.5q-9 33 -20.5 71t-22 71.5t-18 58t-8.5 29.5q-7 25 -15 51.5t-15.5 48.5 t-12.5 36t-5 13q-7 27 -18 41t-22.5 14.5t-20.5 -13t-11 -41.5l-42 -549q0 -38 8.5 -52t24.5 -17q9 -2 16.5 5.5t12 19t7 25t2.5 22.5l23 358q18 -60 39 -121t38 -121q6 -21 9 -31t5 -16.5t5 -13t8 -20.5q2 -8 11 -16t20.5 -10.5t25 3t24.5 26.5q8 15 11.5 23t6.5 16.5 t6.5 19t11.5 30.5q7 15 21 42.5t31.5 61.5t37 71t37.5 71l-27 -380q-4 -25 1 -44t28 -21q25 -2 34.5 21t7.5 51z" />
<glyph unicode="N" horiz-adv-x="490" d="M443 49l35 546q2 39 -3.5 54t-29.5 15q-12 0 -19 -6t-11 -15.5t-5 -20.5t-2 -21l-27 -436q-3 4 -8.5 14.5t-12 22t-12.5 21.5t-8 15q-18 32 -32.5 61t-30 61t-33.5 71t-43 92q-4 8 -6 11t-4.5 8t-6.5 15t-11 32q-4 9 -9 20t-11.5 21t-13.5 16.5t-15 6.5q-17 0 -26.5 -13 t-13.5 -59l-35 -527q-9 -74 39 -70q20 2 28.5 23t3.5 43l26 399q13 -26 29 -55.5t32 -58.5t29.5 -57t22.5 -50q8 -20 22 -48.5t29 -58.5t29.5 -58t24.5 -46q3 -4 5 -9.5t6.5 -10t12.5 -7.5t22 -3q9 0 15 6.5t9.5 16t5.5 20t3 19.5z" />
<glyph unicode="O" horiz-adv-x="478" d="M476 360q4 59 -0.5 115.5t-22 101t-49 71.5t-82.5 27q-38 0 -72.5 -20t-64.5 -53.5t-55 -76t-44 -88.5t-30 -91.5t-13 -83.5q-5 -68 3.5 -122.5t29 -92.5t51.5 -58t72 -20q51 0 99 31t85.5 84t62.5 124t30 152zM406 360q-3 -61 -20.5 -116t-45 -96.5t-62.5 -66t-73 -24.5 q-27 0 -46 15t-30 42t-15 64.5t-1 83.5q3 44 20.5 100.5t45.5 106.5t63.5 84t73.5 34q32 0 51 -20.5t29 -53t11.5 -73t-1.5 -80.5z" />
<glyph unicode="P" horiz-adv-x="415" d="M433 535q2 36 -5 59t-20 36.5t-31 19t-37 5.5q-78 0 -130 -10t-84 -18q-20 -5 -29.5 -25.5t-11.5 -44.5q-2 -19 -3.5 -40t-3 -41.5t-3 -39t-1.5 -32.5l-22 -340q-1 -12 -1.5 -26t1.5 -26t9 -19.5t21 -6.5q12 1 21 9t14.5 18.5t7 22.5t-1.5 22l13 208q42 9 92.5 32.5 t94.5 59t75 80.5t35 97zM361 535q-2 -28 -24.5 -56t-54.5 -52.5t-69.5 -43.5t-70.5 -28l9 188q32 12 79.5 18t88.5 6q7 0 15 -0.5t14.5 -3.5t10 -9.5t2.5 -18.5z" />
<glyph unicode="Q" horiz-adv-x="493" d="M497 -11q-8 15 -18.5 26.5t-21.5 24.5q-7 9 -13 16.5t-12 15.5t-13 17.5t-16 23.5q38 58 62 131t31 158q3 55 -5 105t-26.5 87t-47 59t-65.5 22q-38 0 -74.5 -19.5t-70.5 -52.5t-63 -77t-51 -93t-36 -100t-17 -99q-3 -57 2.5 -105.5t23 -84t46.5 -55t72 -19.5 q46 0 88.5 21t80.5 60q17 -24 35.5 -44.5t30.5 -45.5q34 -22 51 -15t26 44zM425 402q-4 -63 -21 -119.5t-43 -101.5q-19 21 -32 39t-22 31q-11 12 -22.5 9t-19 -15t-8 -29.5t10.5 -33.5q8 -5 19.5 -23t25.5 -41q-27 -28 -58 -44t-65 -16q-27 0 -43.5 14t-25 38t-10.5 56 t0 68q3 55 24 116.5t53.5 113.5t73.5 86.5t84 34.5q24 0 40 -15t25.5 -40.5t12.5 -58.5t1 -69z" />
<glyph unicode="R" horiz-adv-x="421" d="M418 17q2 19 -8 33.5t-24 27.5l-184 224q36 12 72.5 32t66.5 48.5t50.5 64.5t23.5 80q9 127 -105 127q-66 0 -108.5 -3.5t-71.5 -9.5q-23 -5 -33.5 -29.5t-11.5 -57.5q-2 -39 -3 -80t-2 -78l-28 -337q-2 -38 2.5 -56.5t24.5 -17.5q13 0 21 6t12.5 16t6.5 22.5t4 25.5 l13 209l198 -252q13 -17 27.5 -23.5t27.5 -3.5t22 15t11 32zM341 527q-2 -28 -22.5 -54.5t-50.5 -49t-63.5 -38.5t-61.5 -22l12 191q11 5 29.5 8.5t39 5.5t42 1.5t38.5 -3.5q40 -7 37 -39z" />
<glyph unicode="S" horiz-adv-x="473" d="M467 291q3 45 -8.5 73t-28.5 43t-37 20.5t-33 5.5q-35 0 -66 -9t-57 -20.5t-46.5 -20.5t-33.5 -9q-12 0 -22 10t-8 32q1 21 13.5 50t35 55t54 44.5t70.5 18.5q22 0 31 -7t14 -11q10 -9 15 -15.5t10 -10.5t11.5 -6t18.5 -2q7 0 13 5t10.5 11.5t6.5 14t2 13.5q1 20 -9 38 t-27.5 31.5t-41 21t-48.5 7.5q-45 0 -89 -23t-79.5 -61t-59 -88t-26.5 -105q-2 -37 5.5 -60.5t21 -37t30.5 -18.5t34 -5q21 0 47 9t53.5 20.5t55.5 20.5t54 9q19 0 30 -12t9 -46q-3 -59 -28.5 -99.5t-58.5 -66t-67 -36.5t-54 -11q-18 0 -30 5t-19.5 13t-12 16.5t-7.5 16.5 q-7 20 -14.5 37.5t-21.5 17.5q-23 0 -33 -15t-12 -35q-1 -26 6 -52.5t23.5 -48t42 -35.5t60.5 -14q43 0 93.5 19t95 58.5t76 100t36.5 143.5z" />
<glyph unicode="T" horiz-adv-x="374" d="M427 631q2 26 -10 37.5t-32 6.5q-34 -8 -60.5 -14.5t-56.5 -14.5t-68 -18l-95 -25q-20 -8 -38.5 -17.5t-20.5 -33.5q-2 -22 11 -33.5t48 -5.5l88 24l-31 -485q0 -10 -1 -21.5t0.5 -21.5t7.5 -17t21 -7q25 0 31 15t11 51l33 503l105 26q17 6 27.5 11t17 11t9 13t3.5 16z " />
<glyph unicode="U" horiz-adv-x="458" d="M422 171l27 412q1 1 3 12t0.5 24t-8.5 23.5t-23 10.5q-14 0 -22.5 -6t-12.5 -16t-5 -23.5t-1 -27.5l-33 -413q-2 -18 -14.5 -37.5t-34 -35.5t-50 -26t-62.5 -10q-24 0 -42.5 14.5t-16.5 40.5l32 490q0 6 -1 14.5t-4.5 16.5t-10.5 13.5t-18 5.5q-12 0 -19 -5t-10.5 -13 t-5.5 -17.5t-3 -19.5l-32 -485q-2 -31 4.5 -57t23 -45.5t44 -30.5t66.5 -11q47 0 88 17.5t71.5 46t49 64.5t20.5 74z" />
<glyph unicode="V" horiz-adv-x="390" d="M425 586q1 21 -5.5 32.5t-17.5 14t-24 -5.5t-23 -26q-9 -14 -16.5 -31t-21.5 -48q-18 -38 -23.5 -50t-7 -16t-2.5 -9t-10 -29q-4 -9 -12.5 -29t-20 -45t-24 -51.5t-23 -49l-17.5 -37.5t-7 -16q-1 4 -5 30t-8 55.5t-7 54t-3 25.5q-3 26 -4.5 40.5t-2 23.5t-1 15.5t-1.5 16 t-3 25t-6 43.5q-2 13 -4 36.5t-4 38.5q-2 25 -13.5 37t-25.5 12t-24.5 -10.5t-11.5 -30.5v-19q0 -17 0.5 -39t2.5 -33q9 -72 15.5 -128.5t11.5 -87.5q2 -18 3 -22.5t3 -15.5q1 -13 4 -36t6 -48q8 -57 15.5 -104.5t18.5 -69.5q13 -23 29.5 -18.5t34.5 53.5q8 26 24 68.5 t34 87.5t34.5 84.5t24.5 60.5q6 15 10 24.5t10.5 22.5t17.5 34.5t31 59.5q11 21 16.5 32t8.5 16t5 8.5t6 9.5z" />
<glyph unicode="W" horiz-adv-x="571" d="M607 624q1 7 0 15t-5 15.5t-11 12.5t-19 5q-17 0 -27 -22.5t-18 -48.5q-4 -10 -17 -52t-31 -102.5t-39.5 -133t-40.5 -143.5q-2 16 -7 48.5t-10.5 71.5t-12 80.5t-12 76t-9 58t-4.5 26.5q-2 9 -4 25t-5 31.5t-7 27.5t-9 12q-11 0 -17 -1.5t-12 -10.5t-13 -28.5t-18 -55.5 q-2 -6 -8.5 -26t-16 -48.5t-20.5 -63.5t-22.5 -71t-23 -70t-21.5 -61q-5 45 -9.5 93.5t-8.5 95.5t-7.5 89.5t-5.5 76.5q-1 8 -2.5 27t-1.5 39q-9 26 -17 33t-22 7q-23 0 -31 -14t-8 -40q0 -57 3.5 -114t9 -108.5t10.5 -95.5t8 -75q2 -21 4.5 -44.5t4 -45.5t3 -39t2.5 -24 q2 -23 5 -36.5t7 -20.5t10 -8.5t14 -0.5q7 1 12.5 2.5t10.5 8t11.5 20.5t16.5 41q1 3 8.5 22t18.5 47.5t24 64.5t26 73t25 72.5t20 63.5q6 -47 15.5 -105t19 -111.5t18 -94t12.5 -52.5q9 -26 15 -38.5t10.5 -17.5t8.5 -4.5t10 0.5q11 0 22.5 13t22.5 52q5 20 18 62t29.5 95 t34.5 113.5t34.5 118t29.5 107t19 82.5v3z" />
<glyph unicode="X" horiz-adv-x="360" d="M337 46q2 14 -2.5 20.5t-6.5 13.5q-12 24 -26 65t-26.5 81.5t-20.5 70l-8 29.5l13 26.5t32 63.5t40.5 75.5t37.5 62.5q6 12 11.5 27.5t7 30.5t-2.5 27t-16 16q-20 6 -31.5 -6.5t-22.5 -30.5q-9 -17 -26.5 -48.5t-34.5 -63.5t-30.5 -55.5l-13.5 -23.5q-2 -2 -10 18 t-18.5 51t-22.5 65.5t-21 61.5q-7 17 -12.5 30.5t-22.5 13.5q-19 0 -28 -11.5t-11 -28.5q-1 -7 1 -16.5t4.5 -18.5t5 -17t4.5 -12q0 -3 6 -21.5t14.5 -44t18 -54.5t18 -53.5t14 -41l5.5 -16.5q-1 -1 -9 -19t-21.5 -48t-28.5 -62t-29.5 -62.5t-24.5 -48.5q-1 -2 -7 -12.5 t-12.5 -23.5t-11 -25.5t-2.5 -16.5q4 -15 13.5 -23t19.5 -8q11 0 22 7t19 21q13 25 31 63.5t35 74.5t29 62l12 26l7.5 -23.5t19 -56.5t24 -68t22.5 -57q3 -13 11 -24t19 -15.5t24.5 0t26.5 24.5z" />
<glyph unicode="Y" horiz-adv-x="458" d="M474 560q13 22 17.5 35.5t2.5 21.5t-7.5 13.5t-11.5 10.5q-8 6 -15.5 4t-15 -8t-16 -14.5t-17.5 -15.5l-155 -202l-118 181q-16 32 -28.5 53.5t-22.5 18.5q-11 -3 -21 -10t-14.5 -19t-2 -29t17.5 -40l144 -248l-16 -248q-2 -33 2.5 -56t24.5 -21q13 1 21 7.5t12.5 16.5 t6.5 22t3 25l17 254z" />
<glyph unicode="Z" horiz-adv-x="426" d="M412 54q3 16 -5 23t-23.5 7.5t-38.5 -2t-50 -4.5q-26 0 -47 -0.5t-41.5 -1t-41.5 -2.5t-46 -5l329 530q7 12 8 24t-2 22t-10.5 16t-16.5 5l-240 -19q-32 -1 -50.5 -4t-28.5 -9.5t-12.5 -18t-3.5 -29.5q-2 -28 22 -32t67 9l173 18l-320 -514q-11 -18 -13 -34t3 -27.5 t15 -18t22 -5.5q29 2 70 3.5t83 2t79 1t59 0.5h24q16 0 25 20t11 45z" />
<glyph unicode="[" horiz-adv-x="303" d="M248 -59q1 22 -1 32t-8 13t-16.5 1.5t-26.5 -3.5l-82 -12l47 706l78 29q17 8 27 11t15.5 6t7.5 9t3 21q1 14 -4.5 23t-15 14t-22.5 5.5t-27 -2.5l-73 -23q-26 -9 -45 -30t-21 -51l-44 -747q-1 -25 0.5 -40t8.5 -22t20 -6.5t34 6.5l115 16q17 2 22.5 14t7.5 30z" />
<glyph unicode="\" horiz-adv-x="337" d="M271 72q-20 75 -39 157.5t-34 155t-25 125t-12 67.5q-5 26 -9 49t-10.5 38t-17 19.5t-28.5 -5.5q-17 -9 -17.5 -23.5t1.5 -30.5q3 -23 10 -65.5t16.5 -96t21 -112.5t24.5 -114.5t26 -104t25 -79.5q1 -9 4 -21t7 -24t9 -22t11 -14q14 -11 25.5 -11.5t17.5 11t5.5 36 t-11.5 65.5z" />
<glyph unicode="]" horiz-adv-x="303" d="M256 -57l57 802q1 12 -0.5 22.5t-8 17.5t-20.5 8.5t-39 -5.5q-5 -2 -21 -5t-33.5 -6t-31.5 -5.5t-14 -3.5q-24 -3 -33.5 -13.5t-11.5 -28.5q-2 -34 12 -41.5t43 -3.5l80 15l-47 -710l-76 -23q-11 -3 -21 -5t-17 -6.5t-11.5 -14.5t-5.5 -28q-2 -21 4.5 -30.5t17 -11.5 t25 1.5t29.5 8.5l57 11q16 4 27.5 7t19.5 8t12.5 14t6.5 26z" />
<glyph unicode="^" horiz-adv-x="300" d="M415 539q1 13 -6 30l-66 123q-4 14 -11.5 24.5t-18.5 10.5q-12 0 -16.5 -6.5t-8.5 -15.5l-95 -129q-8 -9 -13 -16.5t-7 -20.5v-8q0 -7 5 -12.5t19 -10.5q8 -2 16 2.5t21 26.5l73 98l49 -95q9 -24 21 -29t15 -3q14 7 18.5 13.5t4.5 17.5z" />
<glyph unicode="_" horiz-adv-x="352" d="M348 -125q12 0 18 11t7 24.5t-4.5 25t-16.5 11.5h-343q-12 0 -19 -11.5t-8 -25t4.5 -24.5t17.5 -11h344z" />
<glyph unicode="`" horiz-adv-x="395" d="M262 499q8 4 13 7.5t6.5 9t0 14t-7.5 22.5q-6 17 -15.5 37t-20.5 39t-23 35.5t-22 25.5q-15 12 -27 17.5t-20.5 3t-11.5 -14.5t2 -35q4 -16 9 -27.5t11.5 -21.5t15.5 -19.5t21 -21.5q31 -30 41 -45q13 -22 20.5 -23.5t7.5 -2.5z" />
<glyph unicode="a" horiz-adv-x="396" d="M351 49l15 294q1 34 -5 56t-17.5 34t-25.5 16.5t-27 4.5q-45 0 -95.5 -14.5t-91.5 -50.5q-9 -6 -20.5 -13.5t-12.5 -32.5q-2 -23 8 -28t23.5 -1.5t26 11t16.5 10.5q36 12 64 26.5t60 14.5q7 0 17.5 -3t10.5 -20l-3 -55q-56 -3 -103.5 -15.5t-83.5 -36t-58.5 -58 t-28.5 -81.5q-2 -20 3.5 -44t16 -45t26 -35t32.5 -14q27 0 54.5 9t51.5 20.5t44 23.5t33 18q-1 -14 -2 -24.5t1 -18t8.5 -11.5t21.5 -4q23 0 32 16t8 50zM293 150q0 -2 -19 -21t-47 -39t-58.5 -34.5t-54.5 -8.5l-5 3t-11 9.5t-11 18t-4 29.5q1 23 20.5 42.5t49.5 35.5t66 27 t71 17z" />
<glyph unicode="b" horiz-adv-x="375" d="M376 342q2 52 -22 73.5t-62 21.5q-39 0 -78 -16t-75 -52l16 226q0 34 -4.5 50.5t-30.5 16.5q-15 0 -23 -8t-12.5 -21t-6 -29t-2.5 -32l-27 -511q-2 -42 3.5 -67t27.5 -25q30 0 63 15.5t65.5 42.5t61.5 63.5t52 77.5t37.5 86t16.5 88zM304 328q-1 -29 -17.5 -69.5 t-42.5 -80t-58 -71.5t-64 -45l10 188q10 23 26.5 41.5t36 31.5t40.5 20t41 7q2 0 7 0.5t10 -1t8.5 -6.5t2.5 -15z" />
<glyph unicode="c" horiz-adv-x="346" d="M337 107q18 38 16.5 63.5t-31.5 25.5q-14 0 -22 -6t-13 -13.5t-7.5 -15.5t-3.5 -11q-5 -14 -17 -30t-29 -30.5t-37.5 -24t-43.5 -9.5q-13 0 -22 7.5t-14 19.5t-7.5 27t-1.5 30q2 43 14.5 83t31.5 71t41 49.5t44 18.5q24 0 41 -6t23 -18q15 -12 31 -9.5t24.5 14.5t6 30.5 t-22.5 39.5q-23 23 -45.5 29t-53.5 6q-38 0 -74 -25.5t-64.5 -68.5t-46.5 -98.5t-21 -115.5q-2 -32 3.5 -62.5t18 -54.5t34 -38.5t51.5 -14.5q39 0 68 10.5t49 26t33 32.5t21 30z" />
<glyph unicode="d" horiz-adv-x="418" d="M379 92l24 504q1 9 2 20.5t-1 21t-9 16.5t-21 7q-15 0 -23 -5.5t-12 -15.5t-5.5 -23t-2.5 -28l-9 -180q-8 10 -15.5 11.5t-15.5 1.5q-65 0 -111.5 -29t-77 -70.5t-47.5 -86.5t-21 -77q-6 -39 2 -72.5t22.5 -57.5t31.5 -37.5t30 -13.5q56 0 89 10.5t51.5 22t26.5 20 t15 4.5q2 -19 4 -29t5 -15t9 -6t17 -1q26 0 32.5 18t4.5 51zM317 234q-2 -47 -26 -82.5t-54.5 -58t-60 -31.5t-41.5 -1q-15 10 -25 31t-10 50q0 22 7 40q20 52 43 82.5t47.5 46.5t49 20t48.5 4q14 0 20 -9t4 -23z" />
<glyph unicode="e" horiz-adv-x="352" d="M350 306q3 58 -25 95.5t-76 37.5q-46 0 -84.5 -27t-67 -71t-45.5 -99t-20 -111q-5 -85 23 -125t80 -40q38 0 76 16t68.5 37.5t49.5 44.5t20 37q4 46 -19 46q-17 0 -23.5 -2.5t-22.5 -14.5q-14 -14 -30 -29t-33 -27t-34.5 -20t-35.5 -8q-5 0 -12 0.5t-13.5 4.5t-12.5 13.5 t-9 27.5q-3 19 -2 31.5l1 12.5q41 13 84 29t79 36.5t59 46t25 58.5zM280 320q-3 -14 -24.5 -33.5t-48.5 -36.5t-54 -27t-40 -4q7 33 22 59.5t32.5 45t36.5 29t36 10.5q22 0 32 -14.5t8 -28.5z" />
<glyph unicode="f" horiz-adv-x="291" d="M312 419q-1 20 -9.5 30.5t-31.5 3.5l-97 -17l1 55q0 7 1.5 24t6 34.5t14 31t26.5 13.5q11 0 24.5 -7t20.5 -15q23 -10 33 -10q9 0 19 7q20 15 20.5 35t-9.5 28q-18 14 -47 31t-67 17q-34 0 -55 -20.5t-33.5 -53t-18 -73.5t-7.5 -81l-2 -35l-17 -10q-8 -3 -14 -5t-11.5 -6 t-9 -13t-4.5 -25q-2 -15 1.5 -23t9.5 -11t14 -2t16 4l11 -1l-15 -278q-7 -25 4.5 -43.5t29.5 -16.5q19 2 31 21.5t7 42.5l15 292l102 26q14 7 22 12t12 9.5t5 11t1 16.5z" />
<glyph unicode="g" horiz-adv-x="394" d="M346 -17l20 385q1 17 0.5 30.5t-6 23t-18.5 14.5t-38 5q-56 0 -104.5 -16t-84.5 -45.5t-57 -71.5t-21 -94q0 -72 4.5 -114t12.5 -66t19.5 -35.5t26.5 -21.5q8 -6 29.5 -3t48.5 17.5t56 40.5t52 66l-6 -87l-2 -29q-3 -60 -30 -94t-61 -32q-18 2 -38 9.5t-31 19.5 q-16 8 -22 9.5t-11 1.5h-8q-15 0 -21 -11.5t-8 -31.5q-2 -21 8.5 -37t28 -26.5t40.5 -16t46 -5.5q70 0 119 52.5t56 162.5zM294 354q-1 -8 1 -20.5t3 -27.5t-1 -32t-11 -34q-13 -30 -33 -61.5t-41.5 -58t-42.5 -43t-36 -16.5q-9 0 -15 10.5t-9.5 26.5t-4.5 34t-1 33v28 q2 34 9.5 57.5t20.5 40t30.5 28t40.5 22.5q25 7 49 12.5t41 0.5z" />
<glyph unicode="h" horiz-adv-x="382" d="M337 47l15 275q5 66 -8 92t-47 26q-42 0 -82.5 -26.5t-79.5 -64.5l12 223q1 16 1 28v22q0 29 -6.5 36t-20.5 7q-16 0 -24.5 -11.5t-12.5 -29.5t-5.5 -40t-2.5 -44l-26 -494q-2 -22 3.5 -41t25.5 -22q16 -2 29 14.5t13 48.5l10 182q18 19 36 38.5t35.5 35.5t33.5 26t29 10 q9 0 13 -8t5.5 -19t1 -23t-1.5 -20l-17 -219q-2 -62 32 -67q18 -2 26 11.5t13 53.5z" />
<glyph unicode="i" d="M122 61l15 285q3 34 3 53q0 20 -3 30.5t-9 13.5t-16 3q-17 0 -26.5 -5t-14 -17t-5.5 -31.5t-2 -48.5l-13 -280q-1 -16 -1.5 -29.5t1.5 -24t8 -17t20 -8.5t22 4t12 17t5.5 26t3.5 30v-1zM163 601q2 19 -5 32.5t-31 13.5q-25 0 -41 -19.5t-18 -67.5q-1 -13 2.5 -25t9 -21.5 t12.5 -15t13 -5.5q30 0 44.5 25.5t16.5 56.5z" />
<glyph unicode="j" d="M118 -89l25 430q1 17 2.5 35t-1 32.5t-10.5 23.5t-25 9t-25 -10.5t-11.5 -25t-4 -31t-2.5 -28.5l-19 -435q-5 -77 -27 -72q-13 2 -16.5 3t-8.5 6q-9 7 -13.5 12.5t-8.5 10.5t-9.5 10.5t-17.5 12.5q-8 4 -16.5 -0.5t-15 -13.5t-10 -21.5t-1.5 -24.5l11 -13t26 -30 t32 -33.5t29 -23.5q24 -13 45 -1.5t37 38.5t25.5 64.5t9.5 75.5zM172 603q2 18 -6.5 29.5t-37.5 11.5q-10 0 -21 -5.5t-20 -15t-15.5 -23.5t-7.5 -31q-1 -13 1 -27.5t7.5 -26.5t14 -20t21.5 -8q29 0 48.5 25t18.5 74z" />
<glyph unicode="k" horiz-adv-x="315" d="M329 410q0 6 -2.5 17t-7 20t-11.5 13.5t-16 -1.5q-15 -11 -23.5 -19t-24.5 -21l-105 -113l12 297q1 13 0.5 25t-4 20.5t-11.5 13t-21 2.5q-16 -3 -23.5 -9.5t-10.5 -16.5t-3.5 -24t-1.5 -31l-25 -528q-1 -11 0 -23t4 -22.5t9.5 -17.5t17.5 -7q26 0 33 20.5t7 49.5l10 144 l101 -170q1 -6 6.5 -14.5t12 -16.5t13 -14t11.5 -7q10 -2 19 4.5t13.5 18.5t2.5 28t-13 33l-107 190l103 112q17 14 24.5 22.5t9.5 25.5z" />
<glyph unicode="l" d="M122 58l28 525q1 17 2.5 33t-1 27.5t-9.5 18t-22 5.5q-13 -1 -20.5 -9t-11.5 -20t-5.5 -26.5t-2.5 -28.5l-29 -531q-1 -32 8.5 -50.5t26.5 -16.5q20 1 26 20.5t10 51.5v1z" />
<glyph unicode="m" horiz-adv-x="565" d="M520 55l18 325q1 14 -3.5 32t-15 31t-27 16.5t-40.5 -11.5q-21 -15 -46 -31t-66 -42l-2 41q-1 15 -3 24t-6 13.5t-9.5 6t-12.5 2.5q-15 2 -35 -8.5t-42.5 -27t-46.5 -34.5t-47 -31l1 29q5 22 -3 34t-23 12q-18 0 -29 -11.5t-14 -43.5l-17 -323q-3 -24 1.5 -42.5 t26.5 -24.5q11 -3 18.5 1.5t12.5 13.5t7 22t3 27l19 202q13 14 32 29.5t37 29t32.5 22t19.5 8.5t5 -4v-9l-15 -275q-1 -39 5.5 -53t29.5 -19q10 -2 17 6t11 20t5.5 25t1.5 21l14 205q16 25 37 41.5t40 26.5t33 14t16 4q7 0 5 -16l-14 -284q0 -54 29 -61q33 -7 40 69v-2z" />
<glyph unicode="n" horiz-adv-x="376" d="M334 97l15 282q1 16 -4 29.5t-14 23.5t-20 15t-21 5q-13 0 -33.5 -7t-42 -16t-41.5 -18t-31 -13l-1 18q-2 5 -2 9v8q0 13 -4 19t-25 1q-22 -4 -32 -21.5t-10 -41.5l-6 -121q-1 -24 -2 -37.5t-2 -32.5t-3 -51.5t-4 -95.5q-1 -6 -1.5 -12t-0.5 -12q0 -17 7.5 -30t22.5 -11 q12 1 20.5 8t13 16t6.5 19t1 18l19 241q19 21 40 33.5t39 19t31 8t16 1.5q9 0 10.5 -10t1.5 -15l-15 -277q-2 -37 5 -48.5t27 -13.5t30 15.5t8 49.5z" />
<glyph unicode="o" horiz-adv-x="392" d="M381 258q2 36 -3.5 71t-19.5 62t-37 43.5t-55 16.5q-53 0 -95 -29t-72 -74t-47 -99.5t-19 -104.5q-2 -32 3.5 -63.5t19 -56t37 -39.5t58.5 -15q43 0 83.5 23t72 62.5t51.5 91.5t23 111zM310 258q-2 -39 -15.5 -75.5t-34.5 -64.5t-48 -45t-57 -17q-16 0 -26.5 8t-16 20.5 t-7.5 28.5t-1 31q2 34 12.5 72t29.5 69.5t46.5 52t64.5 20.5q16 0 27 -8.5t17 -23t8 -32.5t1 -36z" />
<glyph unicode="p" horiz-adv-x="397" d="M388 304q4 72 -18.5 113.5t-74.5 41.5q-36 0 -73.5 -11.5t-75.5 -43.5q2 30 -10 40.5t-30 8.5q-11 -2 -18.5 -10t-12 -18.5t-6.5 -21.5t-2 -19v-12l-30 -592q-2 -34 2.5 -54t24.5 -15q23 6 32.5 20t10.5 45l11 208q2 -1 9 -1h12q7 0 13 0.5t10 0.5q36 0 75 27t71 71.5 t54.5 102t25.5 119.5zM316 304q-2 -44 -18 -86.5t-39.5 -76t-51.5 -54.5t-54 -21q-12 0 -19 5t-6 19l11 199q1 9 13 21t31.5 23t45 19t52.5 8q20 0 28.5 -15t6.5 -41z" />
<glyph unicode="q" horiz-adv-x="399" d="M425 -178q2 24 -11 31t-29 -8l-42 -23l30 573q1 16 -8.5 26.5t-23.5 16t-29 7.5t-25 2q-41 0 -84 -20t-79.5 -57.5t-61.5 -93t-28 -125.5q-5 -78 19 -123t74 -45q93 0 157 72l-16 -297q-2 -32 7.5 -43.5t23.5 -11.5q10 0 30 9.5t40 23.5t35.5 31t16.5 32zM106 157 q3 51 20 87t38.5 59.5t44 35.5t37.5 16q7 2 16.5 5t17.5 3q9 0 15 -5t5 -18q-1 -15 -1.5 -36t-2 -44.5t-4 -45.5t-6.5 -38q-4 -19 -18.5 -37.5t-34.5 -32.5t-44.5 -23t-48.5 -9q-12 0 -19.5 7.5t-11 19t-4 26.5t0.5 30z" />
<glyph unicode="r" horiz-adv-x="283" d="M68 387l-17 -329q-1 -11 -0.5 -24t3.5 -23.5t9 -17.5t16 -6q3 1 7 1h7q11 0 17 13.5t10 56.5l21 245q9 6 14.5 12.5t13 12.5t19 11.5t31.5 9.5q43 7 63.5 14t28.5 15t8.5 17.5t2.5 20.5l-15 34q-18 9 -36 9q-17 0 -48 -11q-17 -6 -24 -8.5t-13 -6t-15 -9t-29 -17.5 q-5 24 -9.5 32.5t-18.5 8.5q-32 0 -41 -15.5t-5 -45.5z" />
<glyph unicode="s" horiz-adv-x="390" d="M376 197q1 28 -5.5 48.5t-17 34t-24.5 19.5t-28 6q-26 0 -53.5 -9t-51.5 -20.5t-42.5 -20.5t-27.5 -9q-13 0 -15 5.5t-2 11.5q1 19 13.5 37.5t34 33.5t51.5 24t67 9q1 0 7.5 -1t15.5 -1t19 1t17 4q12 6 17.5 19.5t2 28t-17.5 25t-41 10.5q-41 0 -84.5 -13t-80.5 -38.5 t-62.5 -63.5t-29.5 -89q-1 -15 2 -31.5t11.5 -30.5t23 -23t37.5 -9q21 0 44.5 9.5t46.5 20.5t43.5 20.5t35.5 9.5q9 0 16 -7.5t6 -20.5q-1 -23 -15 -47t-35.5 -44t-49 -32.5t-55.5 -12.5q-13 0 -29.5 11t-40.5 36q-7 6 -16.5 8.5t-18.5 -0.5t-16 -11.5t-9 -22.5 q-3 -22 9 -41t31.5 -32.5t42.5 -21.5t43 -8q40 0 80.5 18t73 49.5t54 72.5t23.5 88z" />
<glyph unicode="t" horiz-adv-x="327" d="M290 81q1 23 -7.5 35.5t-21 15.5t-26.5 -3t-24 -19q-5 -7 -14 -18.5t-25 -11.5q-5 0 -8.5 3t-2.5 13l14 276l94 18q29 11 38.5 21t7.5 25q0 11 -1 20.5t-5.5 15t-14 6.5t-27.5 -5l-87 -16l3 57q0 30 -3 47t-24 19q-42 4 -43 -66l-3 -72l-42 -9q-20 -8 -26 -21t-7 -31 q-2 -29 42 -29l29 7l-17 -313q-2 -22 2 -35t10.5 -20.5t16 -10t18.5 -2.5q24 0 45 8.5t39 20.5t32 26t24 25z" />
<glyph unicode="u" horiz-adv-x="382" d="M114 448q-14 1 -23 -5.5t-15 -16.5t-8 -22.5t0 -22.5l-16 -297q-2 -54 16 -80t52 -26q22 0 47.5 7.5t47.5 16.5t36 16.5l14 7.5q-2 -26 7.5 -34t23.5 -8q22 0 36.5 14t5.5 51l18 338q8 46 1 61.5t-26 13.5q-20 -2 -30.5 -19t-16.5 -56l-13 -260q-9 -9 -22 -19.5t-28 -20 t-30.5 -15.5t-28.5 -6q-11 0 -24.5 3.5t-13.5 19.5l17 289q5 29 -1.5 49t-25.5 21z" />
<glyph unicode="v" horiz-adv-x="307" d="M322 398q5 23 -0.5 37.5t-23.5 14.5q-20 0 -28.5 -9t-21.5 -37q-8 -19 -23 -52.5t-31.5 -71l-33 -75t-27.5 -64.5q-7 60 -15.5 107.5t-10.5 69.5q-1 7 -3 23t-4.5 32.5t-5 30.5t-3.5 18q-7 21 -14.5 22t-18.5 1q-12 0 -19.5 -6t-11.5 -14t-5 -17t0 -15q6 -28 10 -51 t8 -45.5t7.5 -46.5t8.5 -54q6 -21 12.5 -57t14.5 -70.5t17 -60.5t21 -27q18 -2 29.5 18.5t20.5 46.5q4 12 16 37.5t27 58.5t32.5 70t32.5 72t27 65t16 49z" />
<glyph unicode="w" horiz-adv-x="450" d="M460 358q17 35 17.5 56.5t-25.5 35.5q-14 8 -22.5 4.5t-15.5 -16t-13 -31.5t-14 -43q-11 -33 -21.5 -66.5t-20 -64t-18.5 -56t-17 -41.5q0 2 -3.5 21.5t-9.5 51t-12 63.5t-11 58.5t-6 34.5q-5 32 -9 47t-20 15l-4 1t-10.5 -3t-15 -16.5t-18.5 -39.5q-5 -17 -17 -50 t-25 -68t-24 -65t-13 -39q-1 30 -3 64t-3.5 65t-2.5 56t-1 38q-1 17 -1.5 33t-3.5 28.5t-9.5 19.5t-19.5 6q-23 -2 -30 -19.5t-5 -65.5q1 -8 2.5 -34.5t3.5 -63t4 -77t4 -75.5t3.5 -60t2.5 -30q7 -29 11.5 -39t12.5 -10h14q10 0 16.5 3t14 16.5t17.5 39.5t27 73 q2 6 17.5 41.5t32.5 88.5q5 -36 13 -75t16 -73t14 -58t8 -30q4 -17 7.5 -24t8.5 -9t11 -1.5t14 -0.5t15.5 9.5t13.5 26.5t11 33t9 29z" />
<glyph unicode="x" horiz-adv-x="310" d="M117 212l-9.5 -15t-23 -35.5t-27 -41.5t-20.5 -33q-32 -46 -30 -73t27 -27q12 0 19.5 4t12.5 9.5t8.5 11.5t9.5 11q7 10 20 31.5t26 43.5t23 38l10 16q11 -15 23 -36t20 -38q4 -8 10.5 -19l13 -22t12 -19.5t7.5 -11.5q13 -14 24.5 -16.5t20.5 2t15 15t7 22.5 q-6 15 -10 24t-7 15t-5.5 10t-5.5 10q-5 10 -14.5 28t-21 38t-23.5 39t-21 32l9.5 14.5t23 35t27.5 42t24 35.5q9 16 17.5 30t12.5 25.5t2 20.5t-13 16t-24 7q-14 0 -28 -19t-27 -42l-69 -106q-6 10 -11.5 18.5t-11.5 18.5t-13.5 23.5t-18.5 33.5q-9 13 -15.5 27t-13 24.5 t-15.5 15.5t-24 0q-15 -6 -21 -16.5t-5 -23t6.5 -25t13.5 -22.5q16 -25 27 -43.5t20.5 -35t17.5 -32.5t18 -35z" />
<glyph unicode="y" horiz-adv-x="346" d="M348 364q4 14 7.5 28t2 25t-8.5 18t-23 7q-22 0 -29 -10.5t-14 -30.5l-83 -287l-95 273q-3 9 -5.5 19.5t-7.5 18t-13 10.5t-22 -2q-20 -8 -26 -28t5 -53l126 -351l-14 -47l-6 -21t-10.5 -28t-15.5 -24.5t-21 -10.5q-10 0 -27.5 4t-33 0.5t-25 -20.5t-2.5 -59q4 -7 14 -10 t22 -4t25 -0.5t25 0.5q24 0 42.5 12t33 32t25 46t19.5 55z" />
<glyph unicode="z" horiz-adv-x="347" d="M344 405q1 16 -5 24t-16.5 10.5t-25 1.5t-29.5 -2l-173 -4q-12 0 -21.5 -0.5t-16 -4.5t-11 -12.5t-6.5 -24.5q-3 -23 8.5 -33.5t23.5 -10.5q19 -1 37 -0.5t37 2t41 3t50 1.5l-174 -263q-21 -26 -35 -42t-12 -30t4 -21t7.5 -10t17 -2.5t34.5 2.5l179 4q3 -3 9.5 -4 t14.5 -1t14 1t8 3q17 10 23.5 23t4.5 37q-2 12 -9 16.5t-17.5 5.5t-23 -0.5t-24.5 -1.5h-127l185 278q18 20 23 30.5t5 24.5z" />
<glyph unicode="{" horiz-adv-x="372" d="M301 -69q1 9 -1 18.5t-7 16t-12.5 8t-16.5 -4.5q-36 -24 -52.5 -8.5t-13.5 49.5q2 33 8 79.5t11 118.5q2 45 -3.5 78t-30.5 65q19 17 31 39.5t19.5 52t11 65.5t6.5 80q1 22 4.5 46t10 44t17.5 33.5t28 13.5q7 0 14.5 -0.5t13 2.5t9.5 11t6 25q2 28 -6 35.5t-22 7.5 q-33 0 -58.5 -19t-44 -49.5t-29 -70t-13.5 -79.5q-3 -44 -5.5 -77t-10 -55.5t-23 -34t-44.5 -11.5q-20 0 -32 -16t-15 -34.5t4.5 -34.5t26.5 -16q23 0 36.5 -5.5t20.5 -17.5t7.5 -31.5t-1.5 -46.5q-4 -58 -11.5 -111.5t-9.5 -86.5q-6 -87 21.5 -121.5t105.5 -8.5 q6 2 14.5 4.5t16 8t13 14.5t6.5 24z" />
<glyph unicode="|" horiz-adv-x="167" d="M111 -78l52 719q0 14 3 39.5t3 49.5t-6 40t-23 12q-17 -5 -25.5 -13t-12.5 -22.5t-5.5 -37t-3.5 -56.5l-54 -732q-4 -20 -1 -32.5t9.5 -20t14.5 -10.5t15 -3q13 0 23 17t12 51z" />
<glyph unicode="}" horiz-adv-x="372" d="M300 378q-7 4 -14 6t-12.5 8.5t-9 20.5t-3.5 43q0 45 5 98.5t14 107.5q4 27 2 53.5t-12 48.5t-28 35.5t-44 13.5q-20 0 -35 -1.5t-33 -7.5q-14 -4 -21 -18t-7 -29t7.5 -27t24.5 -12q13 0 28 4t30 0t18 -18.5t0 -28.5q-10 -60 -15 -119t-6 -107q1 -42 8.5 -70.5 t25.5 -43.5q-34 -25 -48 -69t-18 -101l-6 -99q-1 -12 -3 -27t-7 -28t-13 -22.5t-21 -11.5q-26 -4 -40 -20.5t-16 -36.5q-2 -29 9.5 -39.5t24.5 -10.5q26 0 49.5 17t42.5 44.5t31 62.5t14 72l6 99q1 13 4 34t11.5 41t23.5 34.5t39 14.5q20 0 32 13.5t14 29.5t-6.5 29.5 t-27.5 13.5z" />
<glyph unicode="~" horiz-adv-x="369" d="M362 627q1 10 -6 19t-17 12t-21 -2.5t-17 -23.5q-1 -6 -2 -16t-3.5 -19.5t-7.5 -16.5t-14 -7q-13 0 -20.5 12t-15.5 27t-19 27t-30 12q-15 0 -34 -9t-35.5 -24t-28 -33.5t-12.5 -37.5q-2 -16 7.5 -28t25.5 -12q9 0 17 9.5t16 21.5t16 21.5t17 9.5q8 0 14.5 -11t15 -23.5 t21.5 -23.5t34 -11q22 0 39 6t30 20t20.5 38.5t9.5 62.5z" />
<glyph unicode="&#xa1;" d="M60 251l-27 -347q-1 -8 -1.5 -16t-0.5 -16q0 -26 7 -46t26 -20q16 0 25 9.5t13 23t4.5 28.5t-0.5 27l24 354q6 36 3 60.5t-25 24.5q-24 0 -35 -23t-13 -59zM64 429q-2 -25 6.5 -40.5t31.5 -15.5t39.5 24t18.5 59q2 18 -6 36t-28 18q-27 0 -42 -16t-20 -65z" />
<glyph unicode="&#xa2;" horiz-adv-x="361" d="M379 508q2 34 -15 44t-43 10q-31 0 -43 -1t-20 -3l2 45q0 7 1.5 19.5t1 25.5t-6 22.5t-18.5 9.5q-16 0 -23.5 -5t-10.5 -14.5t-3.5 -23.5t-2.5 -31l-4 -73q-66 -32 -105 -95t-46 -163q-3 -44 5.5 -77t24.5 -55.5t37.5 -34t44.5 -11.5h10l-2 -68q-2 -24 -2 -36 q0 -13 3.5 -18.5t10 -6.5t16.5 -1q13 0 19 4.5t8.5 13.5t2.5 21q0 13 2 29l6 83q17 6 34.5 18t34 26t30.5 29t24 26q10 13 16 29t7 30t-2.5 23.5t-12.5 9.5q-1 0 -10.5 1t-25.5 -5.5t-31 -27.5q-5 -11 -21 -31t-37 -32l17 253l8.5 3.5t17.5 3.5q5 0 13.5 -2.5t16.5 -5t15 -5 t10 -2.5q28 -5 37 6.5t11 28.5zM171 186h-6q-22 0 -37 28t-13 70q5 57 21.5 91t50.5 58z" />
<glyph unicode="&#xa3;" horiz-adv-x="434" d="M327 332q-11 0 -16.5 -4.5l-5.5 -4.5h-103q2 23 3.5 48.5t1.5 56.5h102q6 -5 11.5 -6t10.5 -1q20 0 29.5 14t11.5 38q2 22 -6 40t-25 18q-11 0 -18 -5l-7 -5h-112q-2 20 -2.5 41t-2.5 45q0 32 -9 50.5t-27 16.5q-20 -1 -26 -20.5t-10 -51.5v-1q5 -21 7.5 -40.5t4.5 -39.5 h-49q-6 6 -13 7t-10 1q-19 0 -29 -17.5t-11 -38t6.5 -38t24.5 -17.5q8 0 14.5 2.5t10.5 7.5h60q0 -27 -1.5 -53t-3.5 -52h-62q-5 5 -10.5 6t-10.5 1q-18 0 -28.5 -17.5t-12 -38t6 -38t25.5 -17.5q8 0 27 11h53q-6 -38 -13 -76t-13 -78q-2 -17 -3 -33t1.5 -27.5t9.5 -18 t22 -5.5q18 2 26 17.5t11 35.5q12 -9 27.5 -18.5t32.5 -18t34.5 -14.5t33.5 -8q40 -5 66 9t42 38t22.5 53t7 54t-4 42t-10.5 16q-9 -1 -15.5 -4t-11 -9.5t-7 -18.5t-3.5 -32q0 -22 -8 -34.5t-21 -18.5t-30 -7.5t-33 -1.5t-31.5 6t-30.5 14.5t-29 17.5t-26 15q5 29 9 54.5 t9 50.5h108q8 -5 12 -5.5t6 -0.5q20 0 32 17t14.5 37t-6 37t-29.5 17z" />
<glyph unicode="&#xa5;" horiz-adv-x="458" d="M378 184q-11 0 -16.5 -4.5l-5.5 -4.5h-83l7 105h80q6 -5 11.5 -6t10.5 -1q20 0 29.5 14t11.5 38q2 22 -6 40t-25 18q-11 0 -18 -5l-7 -5h-38l145 187q13 22 17.5 35.5t2.5 21.5t-7.5 13.5t-11.5 10.5q-8 6 -15.5 4t-15 -8t-16 -14.5t-17.5 -15.5l-155 -202l-118 181 q-16 32 -28.5 53.5t-22.5 18.5q-11 -3 -21 -10t-14.5 -19t-2 -29t17.5 -40l108 -187h-34q-6 6 -13 7t-10 1q-19 0 -29 -17.5t-11 -38t6.5 -38t24.5 -17.5q8 0 14.5 2.5t10.5 7.5h74l-6 -105h-75q-5 5 -10.5 6t-10.5 1q-18 0 -28.5 -17.5t-12 -38t6 -38t25.5 -17.5q8 0 27 11 h72l-1 -18q-2 -33 2.5 -56t24.5 -21q13 1 21 7.5t12.5 16.5t6.5 22t3 25l2 24h82q8 -5 12 -5.5t6 -0.5q20 0 32 17t14.5 37t-6 37t-29.5 17z" />
<glyph unicode="&#xa6;" horiz-adv-x="167" d="M148 430l15 211q0 14 3 39.5t3 49.5t-6 40t-23 12q-17 -5 -25.5 -13t-12.5 -22.5t-5.5 -37t-3.5 -56.5l-17 -224q-3 -20 0 -32.5t9.5 -20t14.5 -10.5t15 -3q13 0 22.5 17t11.5 51zM112 -97l15 211q0 14 3 39.5t3 49.5t-6 40t-23 12q-17 -5 -25.5 -13t-12.5 -22.5 t-5.5 -37t-3.5 -56.5l-17 -224q-3 -20 0 -32.5t9.5 -20t14.5 -10.5t15 -3q13 0 22.5 17t11.5 51z" />
<glyph unicode="&#xa7;" horiz-adv-x="313" d="M154 338q0 -41 9.5 -58.5t29.5 -17.5q17 0 27 14t10 25q-4 17 -5 26.5t-1 21.5v22t2 28h58q12 0 19 16t7 29q0 14 -5 22.5t-13.5 12.5t-19.5 5t-22 1l-13 6q4 29 12 70t19 82l4 17q-3 5 -7 12.5t-9 14.5t-10.5 12t-10.5 5q-11 -6 -30.5 -26.5t-43.5 -48t-49 -59 t-45 -61.5t-33 -54.5t-13 -36.5q0 -8 3 -16.5t7 -15.5t9 -11.5t9 -4.5h5q10 4 24 9t28 9t26.5 7t20.5 4l2 -5q1 -17 0 -31t-1 -25zM189 565q-4 -16 -6.5 -37.5t-4.5 -46.5q-27 -2 -48 -12t-43 -19q19 30 33.5 50.5t25.5 34t19 22.5t14 16z" />
<glyph unicode="&#xa8;" horiz-adv-x="336" d="M166 577q0 9 -0.5 21t-3.5 22t-10 17t-19 7q-13 0 -24 -6.5t-19.5 -16.5t-13.5 -22.5t-6 -23.5q0 -11 3 -23t9 -22t14.5 -16.5t18.5 -6.5q12 0 21.5 7t15.5 17.5t9.5 22.5t4.5 23zM307 582q1 9 1 20q0 12 -3.5 22t-10.5 17t-20 7q-12 0 -23 -6.5t-19.5 -16.5t-13.5 -22.5 t-5 -23.5q-1 -11 2.5 -23t9.5 -22t14 -16.5t17 -6.5q13 0 22.5 7t15.5 17.5t9.5 23t3.5 23.5z" />
<glyph unicode="&#xa9;" horiz-adv-x="549" d="M544 383q4 68 -1 133t-25 116t-56.5 82.5t-95.5 31.5q-43 0 -83 -23t-75 -61.5t-64 -88t-50 -102.5t-34 -105t-15 -96q-5 -79 5 -141.5t33 -106t59 -67t83 -23.5q59 0 114 35.5t98.5 97t72 143.5t34.5 175zM484 389q-5 -79 -27 -150t-57.5 -125t-80.5 -85.5t-94 -31.5 q-35 0 -59.5 19t-39 54t-19.5 84t-1 108q3 38 14 84t29.5 92.5t42.5 90.5t52 78t59.5 54.5t64.5 20.5q41 0 66 -26.5t37.5 -68.5t14.5 -94.5t-2 -103.5zM417 239q15 33 14 55t-27 22q-12 0 -19 -5t-11.5 -12t-6.5 -13.5t-3 -9.5q-5 -12 -15 -26t-25 -26.5t-33 -21t-38 -8.5 q-11 0 -19 6.5t-12.5 17t-6.5 23.5t-1 26q2 38 13 73t27 62t35.5 43t38.5 16q20 0 35 -5t21 -16q13 -10 27 -8t21.5 12.5t5.5 26.5t-20 34q-20 21 -40 26t-47 5q-33 0 -64 -22.5t-56 -59.5t-41 -86t-19 -101q-1 -28 3.5 -54.5t16 -47.5t30 -33.5t44.5 -12.5q34 0 59 9 t43 22.5t29 28.5t18 27z" />
<glyph unicode="&#xaa;" horiz-adv-x="278" d="M261 394l11 209q1 24 -4 39.5t-12.5 24.5t-17.5 12t-20 3q-32 0 -68 -10t-65 -36q-6 -5 -13.5 -10t-9.5 -23q-1 -16 6 -19.5t16.5 -1.5t18.5 7.5t12 7.5q25 9 45 19.5t43 10.5q5 0 12.5 -2t7.5 -15l-3 -39q-40 -2 -73.5 -11t-59 -25.5t-41.5 -41.5t-20 -58q-2 -14 2 -31 t12 -32t19 -25t23 -10q19 0 38 6.5t36.5 14.5t31.5 16.5t23 13.5q-1 -20 -0.5 -31t21.5 -11q29 0 29 47v1zM241 223q17 0 26 9t8.5 19.5t-12 19.5t-35.5 9q-9 0 -21.5 1.5t-20.5 -2.5h-104q-1 1 -9 1q-7 0 -16 -1.5t-14 -1.5q-19 0 -27.5 -9t-7.5 -19.5t11 -19.5t29 -9 q8 0 20 -3.5t20 4.5l101 1zM220 466q0 -2 -13.5 -15t-33.5 -27.5t-42 -25t-38 -5.5q-1 0 -6 3t-11 13t-6 26q1 16 15 30.5t35.5 25.5t47 19t50.5 12z" />
<glyph unicode="&#xab;" horiz-adv-x="344" d="M308 462q-10 1 -22 -9l-93 -87q-11 -5 -18.5 -16t-7.5 -25q0 -16 5 -22t12 -11l96 -127q7 -10 12.5 -17t15.5 -9h6q5 0 9 6.5t8 25.5q2 11 -1.5 21.5t-19.5 27.5l-74 97l71 66q18 12 22 28t2 20q-5 18 -10 24t-13 7zM168 479q-10 1 -23 -9l-92 -87q-11 -5 -18.5 -16 t-7.5 -25q0 -16 4.5 -22t11.5 -11l97 -127q7 -10 12.5 -17t15.5 -9h6q5 0 9 6.5t8 25.5q2 11 -1.5 21.5t-20.5 27.5l-73 97l71 66q18 12 22 28t2 20q-5 18 -10 24t-13 7z" />
<glyph unicode="&#xac;" horiz-adv-x="712" d="M645 173q10 8 18.5 16t15.5 16q16 17 25 37.5t3 44.5q-4 22 -12.5 37.5t-20.5 29.5q-13 15 -36 19t-49.5 1t-53.5 -12.5t-46 -21.5q-2 -31 -5.5 -67.5t-8 -73t-8.5 -71.5t-6 -64q-3 -18 0.5 -25.5t11.5 -19.5q10 -11 18 -18.5t20 -13.5q11 -9 18.5 -9.5t23.5 4.5 q25 9 55.5 26.5t49.5 40.5q12 14 18 29.5t3 36.5q-2 17 -11.5 33t-22.5 25zM377 78q2 -20 3.5 -36.5t2.5 -31.5q2 -14 6 -19.5t12 -8.5q9 -5 17.5 -5.5t17.5 -0.5t12 3.5t3 12.5q-2 42 -4 88.5t-3.5 90.5t-2 83.5t0.5 68.5q0 12 -3 18.5t-14 11.5q-14 5 -29.5 9.5t-41.5 6.5 q-15 2 -23 -4.5t-13 -17.5q-14 -30 -30.5 -70.5t-33 -83.5t-30.5 -84.5t-24 -74.5q-5 -21 -1 -27t12 -14q6 -4 11 -7l10 -6q9 -4 12.5 -2.5t7.5 10.5q5 16 11 32.5t14 35.5q20 8 47 12.5t53 9.5zM495 718q2 10 0 15.5t-11 12.5q-19 16 -39 22q-10 3 -15 1.5t-7 -14.5 q-8 -33 -14.5 -76t-14.5 -88q-14 -2 -27.5 -3t-28.5 -3q8 38 13.5 70t12.5 55q1 11 -1 16.5t-11 12.5q-9 8 -20 13.5t-21 9.5q-11 4 -15.5 2t-6.5 -15q-5 -33 -11 -75.5t-12 -86t-12 -85t-13 -74.5q-2 -14 1 -21t11 -12q8 -6 17.5 -9.5t18.5 -6.5t12 -0.5t5 10.5 q5 24 8.5 53.5t10.5 62.5q14 3 28.5 5.5t28.5 5.5q-8 -54 -9 -90q-5 -18 4.5 -26.5t23.5 -14.5q15 -5 25 -7.5t10 11.5q6 40 13.5 85t15.5 89t16 84t14 71zM523 738l-41 -289q-3 -23 10 -39q7 -9 13 -14.5t12 -11.5q5 -5 12.5 -7.5t23.5 2.5q21 5 45.5 11.5t47.5 12.5 q9 3 11.5 6.5t-1.5 13.5q-2 9 -4.5 17.5t-6.5 18.5q-7 16 -26 13q-17 -2 -32.5 -3.5t-32.5 -6.5q4 14 6 27.5t5 27.5q20 6 42 10.5t43 9.5q10 3 12.5 6t-1.5 14q-2 9 -4.5 17.5t-6.5 17.5q-7 14 -25 13q-24 0 -41 -4q5 23 9.5 43.5t9.5 38.5q23 5 44 7.5t41 5.5q9 2 11.5 5 t0.5 14q-2 9 -4 16.5t-6 17.5q-7 17 -24 17q-38 -2 -76.5 -10.5t-66.5 -17.5zM257 703q10 2 11.5 5t-0.5 12q-7 23 -18 40q-4 5 -8 7.5t-15 2.5q-18 -1 -42 -3.5t-49 -5.5t-49.5 -7t-43.5 -8q-5 -2 -7 -5t1 -12q4 -8 8.5 -21t12.5 -22q6 -8 11 -10t14 1q6 2 14.5 3.5 t18.5 3.5q-5 -29 -11 -63.5t-11 -69.5t-9 -67.5t-6 -55.5q-3 -20 6.5 -28.5t23.5 -14.5q16 -6 25.5 -8.5t10.5 11.5q11 72 25.5 154.5t28.5 153.5q16 2 31 3.5t27 3.5zM176 6q11 3 12 6t-1 14q-2 9 -4.5 18t-7.5 17q-6 9 -10.5 12t-14.5 2q-17 -2 -32 -4t-32 -5q6 31 13 65 t13.5 67t13.5 63.5t13 55.5q2 10 0 15.5t-10 12.5q-9 7 -20.5 12.5t-22.5 8.5q-10 4 -14.5 1.5t-7.5 -13.5q-8 -30 -16 -71t-15.5 -84t-13 -82.5t-8.5 -67.5q-1 -22 11 -37q8 -9 13 -14.5t11 -11.5q5 -5 12 -8t24 3q22 6 46.5 12.5t47.5 12.5zM218 226q9 13 20 38t18 45 q0 6 0.5 10t0.5 6q0 8 -5 16l-10.5 10.5t-11.5 10.5q-15 12 -22 -5q-5 -13 -11 -30t-13 -34t-13.5 -33t-10.5 -27q-4 -16 10 -20q6 -1 13 -2t12 1q12 0 23 14zM554 205q4 23 8 42.5t9 37.5q28 16 47.5 17t22.5 -10q2 -7 -3.5 -18t-16.5 -23.5t-28 -24.5t-39 -21zM310 143 q17 42 31.5 80t28.5 68q0 -33 1 -68t3 -71q-17 -2 -32.5 -4t-31.5 -5zM539 130q29 13 46.5 9.5t20.5 -13.5q3 -16 -19.5 -36.5t-60.5 -33.5q4 19 7 37t6 37z" />
<glyph unicode="&#xad;" horiz-adv-x="289" d="M262 234q17 0 26.5 14.5t9.5 31.5t-11.5 31.5t-35.5 14.5q-9 0 -21.5 1.5t-20.5 -2.5h-103q-2 1 -9 1q-8 0 -17 -1.5t-13 -1.5q-20 0 -29 -14.5t-8.5 -31.5t10.5 -31.5t29 -14.5q8 0 20 -3.5t20 4.5l101 1z" />
<glyph unicode="&#xae;" horiz-adv-x="384" d="M382 513q0 66 -18 106.5t-43.5 63.5t-52.5 31t-45 8q-40 0 -75.5 -25.5t-62.5 -67t-42.5 -94t-15.5 -105.5q0 -52 14 -90t35.5 -62.5t48 -36.5t50.5 -12q30 0 66 16t67.5 50.5t52.5 88t21 129.5zM347 513q0 -63 -17.5 -107.5t-43.5 -73.5t-56 -42.5t-55 -13.5 q-19 0 -39 9t-36.5 28t-27 48t-10.5 69q0 45 13 89t35 78.5t51 56t62 21.5q11 0 32 -6t41.5 -23.5t35.5 -49.5t15 -83zM199 445q16 9 31.5 20.5t28 25.5t20 31t7.5 37q0 27 -11 44.5t-30 17.5q-9 1 -24.5 -0.5t-32 -7.5t-31.5 -17.5t-25 -29.5q0 -41 -0.5 -64.5t-0.5 -37.5 t-0.5 -24t-0.5 -21v-74q0 -11 5.5 -16.5t13.5 -5.5q10 0 19 8t9 23v42l40 -17q16 -10 29 -16t22.5 -4.5t16 12t9.5 31.5q-20 9 -33.5 15t-24 10.5t-19 8.5t-18.5 9zM242 550q0 -14 -15.5 -28t-33.5 -25q-5 -3 -8 -6t-8 -5v53l12 6q12 6 24.5 11t21.5 5q5 0 6 -3.5t1 -7.5z " />
<glyph unicode="&#xaf;" horiz-adv-x="289" d="M248 520q18 0 27.5 14.5t9 31.5t-11.5 31.5t-35 14.5q-59 1 -93 1h-51q-17 0 -22.5 -0.5t-8.5 -0.5q-20 0 -29 -14.5t-8 -31.5t11 -31.5t28 -14.5h183z" />
<glyph unicode="&#xb0;" horiz-adv-x="190" d="M188 584q3 33 -9 60t-41 27q-24 0 -43 -13t-32.5 -33.5t-20.5 -44.5t-8 -46q-1 -15 1.5 -29t8.5 -25t16.5 -17.5t26.5 -6.5q19 0 37 10.5t31.5 28t22.5 40.5t10 49zM148 577q-2 -23 -14.5 -41.5t-30.5 -18.5q-9 0 -12 8.5t-3 18.5t3 21t9 20t14 15t19 6q10 0 12.5 -9 t2.5 -20z" />
<glyph unicode="&#xb1;" horiz-adv-x="313" d="M264 398h-60l4 73q2 4 2.5 7.5t0.5 8.5q0 12 1 13q1 20 -6.5 29.5t-16.5 9t-17.5 -10t-9.5 -26.5q-1 -8 -3 -17.5t0 -13.5l-5 -73h-54q-5 3 -13 1t-11 -2q-16 0 -24.5 -10t-9.5 -22.5t5.5 -22.5t20.5 -10q5 0 14 -2.5t15 1.5h52l-4 -76q-3 -6 -3 -18v-17q-2 -22 5 -30.5 t16 -8.5q10 0 18.5 8.5t9.5 22.5q0 3 0.5 11t1.5 16.5t1.5 16.5t0.5 12l4 63h59q6 -4 14 -1.5t11 2.5q13 0 22 10.5t11 23t-3 23t-20 10.5zM253 146h-165q-5 3 -13 1t-11 -2q-16 0 -24.5 -10t-9.5 -22.5t5.5 -22.5t20.5 -10q5 0 14 -2.5t15 2.5h162q5 -5 13.5 -2.5t10.5 2.5 q13 0 22 10.5t11 23t-3 23t-20 10.5z" />
<glyph unicode="&#xb2;" horiz-adv-x="268" d="M199 462q32 47 46 89t14 62v2q0 35 -17 56t-46 21q-33 0 -63 -20q-12 -8 -28 -21.5t-29.5 -29t-23 -32t-9.5 -29.5q0 -17 11.5 -30.5t19.5 -13.5q11 2 21 12t27 30q14 19 33 33.5t31 14.5q7 0 7 -7q0 -6 -8 -23t-20.5 -40t-28.5 -49.5t-31.5 -51t-29 -44.5t-21.5 -31 q-23 -32 -29.5 -45.5t-7.5 -18.5q0 -16 6.5 -26.5t19.5 -10.5q9 2 11.5 2.5t8.5 2.5q17 5 42 10.5t52 5.5q33 0 48.5 -1.5t21.5 -2.5q23 -1 30.5 11.5t7.5 28.5q0 31 -19.5 42t-63.5 11q-16 0 -35 -3l-4 8z" />
<glyph unicode="&#xb3;" horiz-adv-x="280" d="M276 614q0 42 -24.5 67.5t-54.5 25.5q-18 0 -44.5 -12.5t-51.5 -31.5t-43 -41.5t-18 -41.5q0 -10 4 -19.5t11 -16t15.5 -9t17.5 2.5q12 19 26.5 34.5t28.5 26.5t26.5 17.5t21.5 6.5q14 0 14 -12q0 -14 -12 -29t-29 -28.5t-36.5 -23.5t-35.5 -14h-1q-13 -2 -17 -9.5 t-4 -24.5q0 -11 2.5 -22t7 -18.5t10.5 -11t13 0.5h1h1q0 1 1 1q22 12 47 12q17 0 28.5 -7.5t11.5 -23.5q0 -23 -17.5 -41t-48.5 -18q-18 0 -30.5 4.5t-15.5 15.5q-6 17 -17.5 22t-14.5 5q-14 0 -24.5 -7.5t-10.5 -28.5q0 -18 9.5 -34.5t25.5 -29t37.5 -20t44.5 -7.5 q25 0 48.5 8.5t41 25.5t28 42.5t10.5 59.5q0 32 -10 56.5t-29 43.5q29 25 42.5 48.5t13.5 55.5z" />
<glyph unicode="&#xb4;" horiz-adv-x="395" d="M154 499h4t5 2.5t7.5 7.5t10.5 16q10 16 42 45q12 12 21 21.5t15.5 19.5t11 21.5t9.5 27.5q4 23 1 35t-11 14.5t-20.5 -3t-26.5 -17.5q-11 -9 -22.5 -25.5t-23 -35.5t-21 -39t-15.5 -37q-5 -14 -7 -22.5t-0.5 -14t6.5 -9t14 -7.5z" />
<glyph unicode="&#xb5;" horiz-adv-x="382" d="M116 -108l5 86q22 0 47.5 7.5t47 16.5t35.5 16.5l14 7.5q-2 -26 7.5 -34t23.5 -8q22 0 36.5 14t5.5 51l18 338q8 46 1 61.5t-26 13.5q-20 -2 -30.5 -19t-16.5 -56l-13 -260q-9 -9 -22 -19t-28 -19t-30.5 -15.5t-28.5 -7.5q-17 -2 -28 14t-10 52l17 246q5 29 -1.5 49 t-25.5 21q-14 1 -23 -5.5t-15 -16.5t-8 -22.5t0 -22.5q-4 -77 -6.5 -130t-4.5 -88t-3 -55l-1.5 -30t-0.5 -14v-5l-7 -164q-1 -16 -1.5 -29.5t1.5 -24t8 -17t20 -8.5t22 4t12 17t5.5 26t3.5 30v-1z" />
<glyph unicode="&#xb6;" horiz-adv-x="374" d="M291 605q-41 0 -84 -20t-79.5 -57.5t-61.5 -93t-29 -125.5q-5 -78 19.5 -123t74.5 -45q22 0 39 4l-13 -252q-2 -32 8.5 -46t23.5 -9q12 4 19.5 11.5t12 21t7.5 34.5t5 52l35 562q6 -1 11.5 0.5t10.5 1t10.5 -4.5t10.5 -17l-39 -598q-2 -32 8 -46t24 -9q11 4 18.5 11.5 t12.5 21t8 34.5t5 52l28 588q1 16 -8.5 26.5t-23 16t-28.5 7.5t-25 2z" />
<glyph unicode="&#xb7;" horiz-adv-x="159" d="M145 312q1 11 0.5 24.5t-4 25t-11.5 19.5t-23 8t-28 -7.5t-22.5 -19.5t-15 -26t-6.5 -27t3 -27t11 -25.5t16.5 -19t20.5 -7.5q15 0 26 8t18 20.5t10.5 27t4.5 26.5z" />
<glyph unicode="&#xb8;" horiz-adv-x="375" d="M224 -69l14 61q0 10 1 23.5t-0.5 25t-7.5 19.5t-20 8q-12 0 -20.5 -7t-14 -19t-9 -27t-4.5 -31l-5 -52l-2.5 -11.5t-2.5 -26.5q0 -14 4 -27t17 -16q8 -2 16 3.5t14.5 16.5t12 26.5t7.5 33.5z" />
<glyph unicode="&#xb9;" horiz-adv-x="139" d="M49 533l-7 -130v-28q0 -17 0.5 -35t1 -34t1.5 -23q2 -12 17 -19q6 -6 9.5 -6.5t8.5 -0.5q17 0 21 9t4 25v73q1 55 3.5 97t5 73t5 52.5t4.5 36.5q1 15 3 28v5q-1 12 -6.5 19.5t-12 11.5t-12 5.5l-5.5 1.5q-10 0 -21.5 -7t-21 -16t-16 -17.5t-6.5 -10.5q0 -31 26 -40l3 -5 q-1 -17 -2 -28t-1.5 -18t-1 -11.5t-0.5 -7.5z" />
<glyph unicode="&#xba;" horiz-adv-x="299" d="M297 528q1 25 -2.5 49t-13.5 42.5t-26 30t-38 11.5q-36 0 -65 -20t-49.5 -51t-32.5 -68.5t-13 -71.5q-1 -22 3 -43.5t13.5 -38.5t25 -27.5t39.5 -10.5q30 0 57.5 16t49.5 43t36 63t16 76zM247 528q-1 -27 -10 -52t-23.5 -44.5t-33 -31t-38.5 -11.5q-11 0 -18.5 5.5 t-11.5 14.5t-5 19.5t-1 21.5q1 24 8.5 49.5t20.5 47.5t32 36t44 14q23 0 30.5 -21.5t5.5 -47.5zM245 223q18 0 27 9t8.5 19.5t-12.5 19.5t-36 9q-9 0 -21 1.5t-21 -2.5h-103q-2 1 -9 1q-8 0 -17 -1.5t-13 -1.5q-20 0 -28.5 -9t-7.5 -19.5t11.5 -19.5t28.5 -9q8 0 20.5 -3.5 t20.5 4.5l100 1z" />
<glyph unicode="&#xbb;" horiz-adv-x="344" d="M52 462q-9 -1 -14 -7t-10 -24q-2 -4 2 -20t22 -28l72 -66l-74 -97q-17 -17 -20.5 -27.5t-1.5 -21.5q5 -19 9 -25.5t9 -6.5h6q9 2 14.5 9t12.5 17l97 127q7 5 12 11t5 22q0 14 -8 25t-19 16l-92 87q-12 11 -22 9zM192 479q-8 -1 -13 -7t-10 -24q-2 -4 2 -20t22 -28l71 -66 l-74 -97q-16 -17 -19.5 -27.5t-1.5 -21.5q4 -19 8 -25.5t9 -6.5h6q10 2 15.5 9t12.5 17l96 127q7 5 12 11t5 22q0 14 -7.5 25t-18.5 16l-93 87q-12 10 -22 9z" />
<glyph unicode="&#xbc;" horiz-adv-x="484" d="M328 75q0 -41 9.5 -58.5t29.5 -17.5q17 0 27 14t10 25q-4 17 -5 26.5t-1 21.5v22t2 28h58q12 0 19 16t7 29q0 14 -5 22.5t-13.5 12.5t-19.5 5t-22 1l-13 6q4 29 12 70t19 82l4 17q-3 5 -7 12.5t-9 14.5t-10.5 12t-10.5 5q-11 -6 -30.5 -26.5t-43.5 -48t-49 -59t-45 -61.5 t-33 -54.5t-13 -36.5q0 -8 3 -16.5t7 -15.5t9 -11.5t9 -4.5h5q10 4 24 9t28 9t26.5 7t20.5 4l2 -5q1 -17 0 -31t-1 -25zM337 572q2 11 5.5 23.5t3.5 23.5q0 14 -5.5 23t-18.5 9q-23 0 -32 -12.5t-13 -26.5q-10 -21 -26.5 -60t-37 -87t-42.5 -101t-41.5 -102.5t-35.5 -91.5 t-24 -68q-15 -42 -15 -65q0 -31 30 -31q7 0 13 5.5t10.5 13.5t8.5 17.5t7 17.5q1 3 2.5 8.5t4 12t4 12t2.5 7.5q9 29 25.5 68.5t36 84t40.5 91t40 89t34.5 78.5t23.5 59v2zM38 510l-7 -130v-28q0 -17 0.5 -35t1 -34t1.5 -23q0 -5 5 -10.5t12 -8.5q5 -6 9 -6.5t9 -0.5 q17 0 21 9t4 25v73q1 55 3 97t4.5 73t5.5 52.5t5 36.5q1 15 3 28v5q-1 12 -6.5 19.5t-12 11.5t-12 5.5l-5.5 1.5q-10 0 -21.5 -7t-21 -16t-16 -17.5t-6.5 -10.5q0 -31 26 -40l3 -5q-1 -17 -2 -28t-1.5 -18t-1 -11.5t-0.5 -7.5zM363 302q-4 -16 -6.5 -37.5t-4.5 -46.5 q-27 -2 -48 -12t-43 -19q19 30 33.5 50.5t25.5 34t19 22.5t14 16z" />
<glyph unicode="&#xbd;" horiz-adv-x="484" d="M409 189q32 47 45.5 89t13.5 62v2q0 35 -17 56t-46 21q-32 0 -62 -20q-13 -8 -28.5 -21.5t-29 -29t-23 -32t-9.5 -29.5q0 -17 11.5 -30.5t18.5 -13.5q11 2 21.5 12t26.5 30q14 19 33 33.5t31 14.5q7 0 7 -7q0 -6 -8 -23t-20.5 -40t-28.5 -49.5t-31.5 -51t-29 -44.5 t-21.5 -31q-23 -32 -29.5 -45.5t-7.5 -18.5q0 -16 6.5 -26.5t19.5 -10.5q9 2 11.5 2.5t8.5 2.5q17 5 42.5 10.5t51.5 5.5q33 0 48.5 -1.5t21.5 -2.5q23 -1 30.5 11.5t7.5 28.5q0 31 -19.5 42t-63.5 11q-16 0 -35 -3l-4 8zM337 572q2 11 5.5 23.5t3.5 23.5q0 14 -5.5 23 t-18.5 9q-23 0 -32 -12.5t-13 -26.5q-10 -21 -26.5 -60t-37 -87t-42.5 -101t-41.5 -102.5t-35.5 -91.5t-24 -68q-15 -42 -15 -65q0 -31 30 -31q7 0 13 5.5t10.5 13.5t8.5 17.5t7 17.5q1 3 2.5 8.5t4 12t4 12t2.5 7.5q9 29 25.5 68.5t36 84t40.5 91t40 89t34.5 78.5t23.5 59 v2zM38 510l-7 -130v-28q0 -17 0.5 -35t1 -34t1.5 -23q0 -5 5 -10.5t12 -8.5q5 -6 9 -6.5t9 -0.5q17 0 21 9t4 25v73q1 55 3 97t4.5 73t5.5 52.5t5 36.5q1 15 3 28v5q-1 12 -6.5 19.5t-12 11.5t-12 5.5l-5.5 1.5q-10 0 -21.5 -7t-21 -16t-16 -17.5t-6.5 -10.5q0 -31 26 -40 l3 -5q-1 -17 -2 -28t-1.5 -18t-1 -11.5t-0.5 -7.5z" />
<glyph unicode="&#xbe;" horiz-adv-x="611" d="M278 597q0 42 -24.5 67.5t-54.5 25.5q-18 0 -44.5 -12.5t-51.5 -31.5t-43 -41.5t-18 -41.5q0 -10 4.5 -19.5t11 -16t15 -9t17.5 2.5q13 19 27.5 34.5t28.5 26.5t26 17.5t21 6.5q15 0 15 -12q0 -14 -12 -29t-29.5 -28.5t-37 -23.5t-35.5 -14q-14 -2 -18 -9.5t-4 -24.5 q0 -11 3 -22t7.5 -18.5t10 -11t12.5 0.5h1h1q0 1 2 1q22 12 46 12q17 0 28.5 -7.5t11.5 -23.5q0 -23 -17.5 -41t-48.5 -18q-17 0 -29.5 4.5t-16.5 15.5q-5 17 -17 22t-15 5q-13 0 -24 -7.5t-11 -28.5q0 -18 9.5 -34.5t25.5 -29t37.5 -20t44.5 -7.5q25 0 48.5 8.5t41 25.5 t28 42.5t10.5 59.5q0 32 -10 56.5t-28 43.5q28 25 41.5 48.5t13.5 55.5zM455 75q0 -41 9 -58.5t29 -17.5q18 0 23 12.5t5 23.5q-4 17 -5 26.5t-1 21.5v23t2 29l68 1q12 0 19 16t7 29q0 14 -5 22.5t-13.5 12.5t-19.5 5t-23 1l-25 -1q4 33 9 54.5t11 38t12 31.5t11 35l5 17 q-3 5 -7 12.5t-9.5 14.5t-11 12t-10.5 5q-11 -6 -30.5 -26.5t-43.5 -48t-48.5 -59t-44.5 -61.5t-33 -54.5t-13 -36.5q0 -16 9.5 -32t17.5 -16q26 9 57.5 18t47.5 11l2 -5q1 -17 0 -31t-1 -25zM463 572q3 11 6 23.5t3 23.5q0 14 -5 23t-18 9q-23 0 -32 -12.5t-13 -26.5 q-10 -21 -27 -60t-37 -87t-42 -101t-42 -102.5t-35.5 -91.5t-24.5 -68q-7 -21 -11 -37.5t-4 -27.5q0 -31 30 -31q7 0 13.5 5.5t11 13.5t8 17.5t6.5 17.5q1 3 3 8.5t4.5 12t4 12t2.5 7.5q9 29 25.5 68.5t36 84t40 91t39.5 89t34.5 78.5t23.5 59v2zM490 302 q-4 -16 -11.5 -38.5t-9.5 -47.5q-27 -2 -43 -11t-38 -18q38 61 67.5 96t40.5 49z" />
<glyph unicode="&#xbf;" horiz-adv-x="398" d="M48 -64q-2 -27 6 -50.5t23.5 -41t36 -27.5t42.5 -10q24 0 47 10t44.5 25t41.5 34t38 37q15 16 26.5 37t13.5 41q2 26 -5.5 39.5t-21.5 13.5t-32 -14.5t-36 -43.5q-28 -35 -55.5 -60.5t-53.5 -25.5q-19 0 -33 9.5t-12 26.5q1 16 16 36t37.5 43t49 48.5t49 53t39 56 t18.5 56.5q1 10 1 19v19q0 26 -10 41t-39 15q-13 0 -18 -23t-16 -57.5t-33.5 -74.5t-70.5 -74q-35 -24 -62.5 -65.5t-30.5 -92.5zM227 450q-2 -30 4.5 -50.5t28.5 -20.5q26 0 45 16t22 61q3 34 -13 47.5t-34 13.5q-25 0 -38.5 -18t-15.5 -50z" />
<glyph unicode="&#xc0;" horiz-adv-x="448" d="M444 78q-10 45 -29 112t-39 140.5t-38.5 144t-27.5 123.5q-2 27 -11 46t-21 23.5t-26 -9t-26 -52.5l-204 -522q-3 -8 -8 -23.5t-5.5 -32t6 -29t27.5 -14.5q15 -2 26.5 22.5t24.5 61.5l59 159l20.5 2t48.5 4.5t56 4.5t42 2q10 -32 16.5 -50.5t10 -31t6.5 -22t6 -24.5 q4 -16 11 -38t14 -42t12.5 -34t8.5 -14q16 -2 25.5 5t14 20t4.5 30q0 18 -4 38zM310 699q8 4 13 7.5t6.5 9t0 14t-7.5 22.5q-6 17 -15.5 37t-20.5 39t-23 35.5t-22 25.5q-15 12 -27 17.5t-20.5 3t-11.5 -14.5t2 -35q4 -16 9 -27.5t11.5 -21.5t15.5 -19.5t21 -21.5 q31 -30 41 -45q13 -22 20.5 -23.5t7.5 -2.5zM300 328l-114 -9l73 201q3 -16 8 -42t10.5 -53.5t11.5 -54t11 -42.5z" />
<glyph unicode="&#xc1;" horiz-adv-x="448" d="M444 78q-10 45 -29 112t-39 140.5t-38.5 144t-27.5 123.5q-2 27 -11 46t-21 23.5t-26 -9t-26 -52.5l-204 -522q-3 -8 -8 -23.5t-5.5 -32t6 -29t27.5 -14.5q15 -2 26.5 22.5t24.5 61.5l59 159l20.5 2t48.5 4.5t56 4.5t42 2q10 -32 16.5 -50.5t10 -31t6.5 -22t6 -24.5 q4 -16 11 -38t14 -42t12.5 -34t8.5 -14q16 -2 25.5 5t14 20t4.5 30q0 18 -4 38zM232 699h4t5 2.5t7.5 7.5t10.5 16q10 16 42 45q12 12 21 21.5t15.5 19.5t11 21.5t9.5 27.5q4 23 1 35t-11 14.5t-20.5 -3t-26.5 -17.5q-11 -9 -22.5 -25.5t-23 -35.5t-21 -39t-15.5 -37 q-5 -14 -7 -22.5t-0.5 -14t6.5 -9t14 -7.5zM300 328l-114 -9l73 201q3 -16 8 -42t10.5 -53.5t11.5 -54t11 -42.5z" />
<glyph unicode="&#xc2;" horiz-adv-x="448" d="M444 78q-10 45 -29 112t-39 140.5t-38.5 144t-27.5 123.5q-2 27 -11 46t-21 23.5t-26 -9t-26 -52.5l-204 -522q-3 -8 -8 -23.5t-5.5 -32t6 -29t27.5 -14.5q15 -2 26.5 22.5t24.5 61.5l59 159l20.5 2t48.5 4.5t56 4.5t42 2q10 -32 16.5 -50.5t10 -31t6.5 -22t6 -24.5 q4 -16 11 -38t14 -42t12.5 -34t8.5 -14q16 -2 25.5 5t14 20t4.5 30q0 18 -4 38zM379 739q1 13 -6 30l-66 123q-4 14 -11.5 24.5t-18.5 10.5q-12 0 -16.5 -6.5t-8.5 -15.5l-95 -129q-8 -9 -13 -16.5t-7 -20.5v-8q0 -7 5 -12.5t19 -10.5q8 -2 16 2.5t21 26.5l73 98l49 -95 q9 -24 21 -29t15 -3q14 7 18.5 13.5t4.5 17.5zM300 328l-114 -9l73 201q3 -16 8 -42t10.5 -53.5t11.5 -54t11 -42.5z" />
<glyph unicode="&#xc3;" horiz-adv-x="448" d="M444 78q-10 45 -29 112t-39 140.5t-38.5 144t-27.5 123.5q-2 27 -11 46t-21 23.5t-26 -9t-26 -52.5l-204 -522q-3 -8 -8 -23.5t-5.5 -32t6 -29t27.5 -14.5q15 -2 26.5 22.5t24.5 61.5l59 159l20.5 2t48.5 4.5t56 4.5t42 2q10 -32 16.5 -50.5t10 -31t6.5 -22t6 -24.5 q4 -16 11 -38t14 -42t12.5 -34t8.5 -14q16 -2 25.5 5t14 20t4.5 30q0 18 -4 38zM376 809q1 7 -4.5 14t-13 9t-15.5 -2t-12 -17q-1 -5 -2 -12.5t-3 -14.5t-6 -12.5t-11 -5.5q-10 0 -15.5 9t-11.5 20.5t-14 20.5t-23 9q-12 0 -26 -7t-26.5 -18t-21 -25t-9.5 -29 q-2 -12 5.5 -21t19.5 -9q7 0 13 7.5t12 16t12 16t13 7.5q6 0 11 -8t11.5 -18t16 -18t25.5 -8q33 0 52.5 19.5t22.5 76.5zM300 328l-114 -9l73 201q3 -16 8 -42t10.5 -53.5t11.5 -54t11 -42.5z" />
<glyph unicode="&#xc4;" horiz-adv-x="448" d="M444 78q-10 45 -29 112t-39 140.5t-38.5 144t-27.5 123.5q-2 27 -11 46t-21 23.5t-26 -9t-26 -52.5l-204 -522q-3 -8 -8 -23.5t-5.5 -32t6 -29t27.5 -14.5q15 -2 26.5 22.5t24.5 61.5l59 159l20.5 2t48.5 4.5t56 4.5t42 2q10 -32 16.5 -50.5t10 -31t6.5 -22t6 -24.5 q4 -16 11 -38t14 -42t12.5 -34t8.5 -14q16 -2 25.5 5t14 20t4.5 30q0 18 -4 38zM300 328l-114 -9l73 201q3 -16 8 -42t10.5 -53.5t11.5 -54t11 -42.5zM246 777v21t-3 22t-10 17t-20 7t-24 -6.5t-19.5 -16.5t-13 -22.5t-5.5 -23.5t2 -23t9 -22t14.5 -16.5t18.5 -6.5 q13 0 22 7t15.5 17.5t9.5 22.5t4 23zM388 782q1 9 0.5 20.5t-4 21.5t-10.5 17t-19 7q-13 0 -24 -6.5t-19 -16.5t-13 -22.5t-6 -23.5t2.5 -23t9.5 -22t14.5 -16.5t17.5 -6.5q13 0 22 7t15.5 17.5t9.5 23t4 23.5z" />
<glyph unicode="&#xc5;" horiz-adv-x="448" d="M444 78q-10 45 -29 112t-39 140.5t-38.5 144t-27.5 123.5q-2 27 -11 46t-21 23.5t-26 -9t-26 -52.5l-204 -522q-3 -8 -8 -23.5t-5.5 -32t6 -29t27.5 -14.5q15 -2 26.5 22.5t24.5 61.5l59 159l20.5 2t48.5 4.5t56 4.5t42 2q10 -32 16.5 -50.5t10 -31t6.5 -22t6 -24.5 q4 -16 11 -38t14 -42t12.5 -34t8.5 -14q16 -2 25.5 5t14 20t4.5 30q0 18 -4 38zM364 823q2 33 -10 60t-41 27q-24 0 -42.5 -13t-32 -33.5t-21 -44.5t-8.5 -46q0 -15 2 -29t8 -25t16.5 -17.5t26.5 -6.5q19 0 37 10.5t32 28t23 40.5t10 49zM300 328l-114 -9l73 201 q3 -16 8 -42t10.5 -53.5t11.5 -54t11 -42.5zM323 816q-1 -23 -14 -41.5t-31 -18.5q-9 0 -12 8.5t-3 18.5q1 10 4 21t8.5 20t13.5 15t19 6t13.5 -9t1.5 -20z" />
<glyph unicode="&#xc6;" horiz-adv-x="737" d="M733 50q2 29 -11 38.5t-42 7.5l-218 -25l13 202l168 25q5 1 9 1.5t9 0.5q16 0 28.5 8.5t14.5 37.5q1 8 -1 17t-9 15.5t-19.5 9.5t-33.5 0l-160 -27q3 49 5.5 79l4 48t3 27t2.5 16l183 16q19 1 32.5 1.5t22.5 4.5t13.5 13.5t6.5 28.5q1 20 -6 29.5t-18.5 12.5t-26 1.5 t-29.5 -2.5q-66 -6 -104 -8.5t-60 -2.5h-51q-13 0 -28 -7.5t-21 -17.5l-377 -545q-5 -8 -15.5 -23.5t-17.5 -32t-4.5 -29t22.5 -14.5q14 -2 34 22.5t46 61.5l116 159l23.5 4.5t55 10.5t62.5 11t46 5l-7 -128q-2 -28 -4.5 -51t1.5 -39t16 -24t38 -5l235 23q34 0 43.5 14.5 t9.5 29.5zM410 500q-1 -11 -0.5 -27.5t1.5 -36.5q-2 -28 -1.5 -57t-4.5 -62l-125 -27z" />
<glyph unicode="&#xc7;" horiz-adv-x="430" d="M213 -89l7.5 37.5l3.5 17.5t1.5 6t0.5 3q28 7 55 24t50.5 39t41.5 47.5t30 50.5q13 25 7 40t-21 17.5t-33.5 -8t-31.5 -35.5q-6 -14 -19.5 -30.5t-30.5 -30t-36 -22.5t-35 -9q-28 0 -46 16.5t-27.5 43.5t-12.5 62t-1 71q4 61 19 121.5t39.5 107.5t56 76.5t68.5 29.5 q23 0 36 -4.5t19 -12.5q20 -24 31.5 -39.5t14.5 -15.5q13 0 23.5 10t15.5 25t2.5 32.5t-14.5 32.5q-29 35 -61 48t-69 13q-48 0 -92 -35.5t-78 -95t-56.5 -136t-27.5 -157.5q-3 -51 2.5 -97t19.5 -82.5t36.5 -62t52.5 -34.5l-7 -63l-2.5 -11.5t-2.5 -26.5q0 -14 3.5 -27 t17.5 -16q8 -2 16 3.5t14.5 16.5t12 26.5t7.5 33.5z" />
<glyph unicode="&#xc8;" horiz-adv-x="398" d="M396 55q2 29 -11 38.5t-42 7.5l-219 -25l13 202l169 25q10 2 18 2q15 0 28 8.5t15 37.5q1 8 -1 17t-9 15.5t-19.5 9.5t-33.5 0l-161 -27l11 170l187 16q19 1 32.5 1.5t22.5 4.5t13.5 13.5t6.5 28.5q1 20 -5.5 29.5t-18 12.5t-26 1.5t-29.5 -2.5q-67 -6 -104.5 -8.5 t-60.5 -2.5h-51q-13 0 -22 -7t-14 -17.5t-7 -22t0 -20.5q-2 -33 -4 -106.5t-8 -179.5l-10 -170q-2 -28 -4.5 -51t1.5 -39t16 -24t39 -5l235 23q34 0 43.5 14.5t9.5 29.5zM292 699q8 4 13 7.5t6.5 9t0 14t-7.5 22.5q-6 17 -15.5 37t-20.5 39t-23 35.5t-22 25.5 q-15 12 -27 17.5t-20.5 3t-11.5 -14.5t2 -35q4 -16 9 -27.5t11.5 -21.5t15.5 -19.5t21 -21.5q31 -30 41 -45q13 -22 20.5 -23.5t7.5 -2.5z" />
<glyph unicode="&#xc9;" horiz-adv-x="398" d="M396 55q2 29 -11 38.5t-42 7.5l-219 -25l13 202l169 25q10 2 18 2q15 0 28 8.5t15 37.5q1 8 -1 17t-9 15.5t-19.5 9.5t-33.5 0l-161 -27l11 170l187 16q19 1 32.5 1.5t22.5 4.5t13.5 13.5t6.5 28.5q1 20 -5.5 29.5t-18 12.5t-26 1.5t-29.5 -2.5q-67 -6 -104.5 -8.5 t-60.5 -2.5h-51q-13 0 -22 -7t-14 -17.5t-7 -22t0 -20.5q-2 -33 -4 -106.5t-8 -179.5l-10 -170q-2 -28 -4.5 -51t1.5 -39t16 -24t39 -5l235 23q34 0 43.5 14.5t9.5 29.5zM225 699h5t5 2.5t7 7.5t11 16q5 8 15.5 19.5t25.5 25.5q12 12 21 21.5t15.5 19.5t11.5 21.5t9 27.5 q4 23 1 35t-11 14.5t-20.5 -3t-26.5 -17.5q-11 -9 -22.5 -25.5t-23 -35.5t-21 -39t-15.5 -37q-5 -14 -7 -22.5t-0.5 -14t6.5 -9t14 -7.5z" />
<glyph unicode="&#xca;" horiz-adv-x="398" d="M396 55q2 29 -11 38.5t-42 7.5l-219 -25l13 202l169 25q10 2 18 2q15 0 28 8.5t15 37.5q1 8 -1 17t-9 15.5t-19.5 9.5t-33.5 0l-161 -27l11 170l187 16q19 1 32.5 1.5t22.5 4.5t13.5 13.5t6.5 28.5q1 20 -5.5 29.5t-18 12.5t-26 1.5t-29.5 -2.5q-67 -6 -104.5 -8.5 t-60.5 -2.5h-51q-13 0 -22 -7t-14 -17.5t-7 -22t0 -20.5q-2 -33 -4 -106.5t-8 -179.5l-10 -170q-2 -28 -4.5 -51t1.5 -39t16 -24t39 -5l235 23q34 0 43.5 14.5t9.5 29.5zM377 739q2 14 -7 30l-65 123q-4 14 -12 24.5t-19 10.5t-15.5 -6.5t-8.5 -15.5l-96 -129 q-7 -9 -12 -16.5t-7 -20.5v-8q0 -7 5 -12.5t19 -10.5q8 -2 15.5 2.5t21.5 26.5l72 98l50 -95q9 -24 21 -29t15 -3q14 7 18 13.5t5 17.5z" />
<glyph unicode="&#xcb;" horiz-adv-x="398" d="M396 55q2 29 -11 38.5t-42 7.5l-219 -25l13 202l169 25q10 2 18 2q15 0 28 8.5t15 37.5q1 8 -1 17t-9 15.5t-19.5 9.5t-33.5 0l-161 -27l11 170l187 16q19 1 32.5 1.5t22.5 4.5t13.5 13.5t6.5 28.5q1 20 -5.5 29.5t-18 12.5t-26 1.5t-29.5 -2.5q-67 -6 -104.5 -8.5 t-60.5 -2.5h-51q-13 0 -22 -7t-14 -17.5t-7 -22t0 -20.5q-2 -33 -4 -106.5t-8 -179.5l-10 -170q-2 -28 -4.5 -51t1.5 -39t16 -24t39 -5l235 23q34 0 43.5 14.5t9.5 29.5zM244 777q1 9 0.5 21t-3.5 22t-10 17t-20 7t-24 -6.5t-19 -16.5t-13 -22.5t-6 -23.5q0 -11 3 -23t9 -22 t14.5 -16.5t17.5 -6.5q13 0 22 7t15.5 17.5t9.5 22.5t4 23zM386 782q1 9 0.5 20.5t-3.5 21.5t-10 17t-20 7t-24 -6.5t-19 -16.5t-13 -22.5t-5 -23.5q-1 -11 2 -23t9 -22t14.5 -16.5t17.5 -6.5q13 0 22.5 7t15.5 17.5t9.5 23t3.5 23.5z" />
<glyph unicode="&#xcc;" d="M123 56l34 513q1 13 2.5 27.5t0.5 27t-6 21t-18 8.5q-34 0 -42 -18t-8 -55l-34 -522q-5 -27 0.5 -48t29.5 -25q13 -2 20.5 3t11 14.5t5.5 23.5t4 30zM180 699q8 4 13 7.5t7 9t0 14t-7 22.5q-7 17 -16.5 37t-20.5 39t-23 35.5t-22 25.5q-29 24 -47.5 20.5t-9.5 -49.5 q4 -16 9 -27.5t11.5 -21.5t15.5 -19.5t21 -21.5q31 -30 41 -45q13 -22 21 -23.5t7 -2.5z" />
<glyph unicode="&#xcd;" d="M123 56l34 513q1 13 2.5 27.5t0.5 27t-6 21t-18 8.5q-34 0 -42 -18t-8 -55l-34 -522q-5 -27 0.5 -48t29.5 -25q13 -2 20.5 3t11 14.5t5.5 23.5t4 30zM85 699h4t5 2.5t7.5 7.5t10.5 16q10 16 42 45q12 12 21 21.5t15.5 19.5t11 21.5t9.5 27.5q4 23 1 35t-11 14.5t-20.5 -3 t-26.5 -17.5q-11 -9 -22.5 -25.5t-23 -35.5t-21 -39t-15.5 -37q-5 -14 -7 -22.5t-0.5 -14t6.5 -9t14 -7.5z" />
<glyph unicode="&#xce;" d="M123 56l34 513q1 13 2.5 27.5t0.5 27t-6 21t-18 8.5q-34 0 -42 -18t-8 -55l-34 -522q-5 -27 0.5 -48t29.5 -25q13 -2 20.5 3t11 14.5t5.5 23.5t4 30zM250 739q0 15 -7 30l-65 123q-5 14 -12.5 24.5t-18.5 10.5q-12 0 -16.5 -6.5t-8.5 -15.5l-95 -129q-8 -9 -13 -16.5 t-7 -20.5v-8q0 -7 5 -12.5t19 -10.5q9 -2 16.5 2.5t20.5 26.5l73 98l49 -95q9 -24 21.5 -29t14.5 -3q14 7 18.5 13.5t5.5 17.5z" />
<glyph unicode="&#xcf;" d="M123 56l34 513q1 13 2.5 27.5t0.5 27t-6 21t-18 8.5q-34 0 -42 -18t-8 -55l-34 -522q-5 -27 0.5 -48t29.5 -25q13 -2 20.5 3t11 14.5t5.5 23.5t4 30zM109 772q1 9 0.5 21t-3.5 22t-10 17t-20 7t-24 -6.5t-19 -16.5t-13 -22.5t-6 -23.5q0 -11 3 -23t9 -22t14.5 -16.5 t17.5 -6.5q13 0 22 7t15.5 17.5t9.5 22.5t4 23zM251 777q1 9 0.5 20.5t-3.5 21.5t-10 17t-20 7t-24 -6.5t-19 -16.5t-13 -22.5t-5 -23.5q-1 -11 2 -23t9 -22t14.5 -16.5t17.5 -6.5q13 0 22.5 7t15.5 17.5t9.5 23t3.5 23.5z" />
<glyph unicode="&#xd0;" horiz-adv-x="454" d="M458 434q3 45 -5 88t-27.5 76t-50.5 53.5t-74 20.5q-32 0 -56.5 -4.5t-44.5 -11.5t-38 -15.5t-36 -16.5q-13 -6 -21.5 -16.5t-14 -23.5t-7 -27.5t0.5 -28.5l-10 -144q-13 1 -21 1q-7 0 -11.5 -1t-6.5 -1.5t-5 -0.5q-20 0 -29 -14t-8 -31.5t11 -31.5t28 -14h36l-12 -184 q-1 -21 -2 -43t0.5 -39.5t8 -28.5t20.5 -11q20 0 54.5 10t74.5 32.5t81.5 57.5t76.5 85t59 115.5t29 148.5zM202 293q17 0 26.5 14t9.5 31q0 18 -11.5 32t-35.5 14h-46l9 152q23 17 57.5 33t75.5 16q28 0 47.5 -13t31 -34.5t16 -48.5t3.5 -55q-6 -81 -34 -142t-67 -103 t-82 -67t-77 -35l14 205z" />
<glyph unicode="&#xd1;" horiz-adv-x="490" d="M443 49l35 546q2 39 -3.5 54t-29.5 15q-12 0 -19 -6t-11 -15.5t-5 -20.5t-2 -21l-27 -436q-3 4 -8.5 14.5t-12 22t-12.5 21.5t-8 15q-18 32 -32.5 61t-30 61t-33.5 71t-43 92q-4 8 -6 11t-4.5 8t-6.5 15t-11 32q-4 9 -9 20t-11.5 21t-13.5 16.5t-15 6.5q-17 0 -26.5 -13 t-13.5 -59l-35 -527q-9 -74 39 -70q20 2 28.5 23t3.5 43l26 399q13 -26 29 -55.5t32 -58.5t29.5 -57t22.5 -50q8 -20 22 -48.5t29 -58.5t29.5 -58t24.5 -46q3 -4 5 -9.5t6.5 -10t12.5 -7.5t22 -3q9 0 15 6.5t9.5 16t5.5 20t3 19.5zM382 805q1 7 -4.5 14t-13 9t-15.5 -2 t-12 -17q-1 -5 -2 -12.5t-3 -14.5t-6 -12.5t-11 -5.5q-10 0 -15.5 9t-11.5 20.5t-14 20.5t-23 9q-12 0 -26 -7t-26.5 -18t-21 -25t-9.5 -29q-2 -12 5.5 -21t19.5 -9q7 0 13 7.5t12 16t12 16t13 7.5q6 0 11 -8t11.5 -18t16 -18t25.5 -8q33 0 52.5 19.5t22.5 76.5z" />
<glyph unicode="&#xd2;" horiz-adv-x="478" d="M476 360q4 59 -0.5 115.5t-22 101t-49 71.5t-82.5 27q-38 0 -72.5 -20t-64.5 -53.5t-55 -76t-44 -88.5t-30 -91.5t-13 -83.5q-5 -68 3.5 -122.5t29 -92.5t51.5 -58t72 -20q51 0 99 31t85.5 84t62.5 124t30 152zM406 360q-3 -61 -20.5 -116t-45 -96.5t-62.5 -66t-73 -24.5 q-27 0 -46 15t-30 42t-15 64.5t-1 83.5q3 44 20.5 100.5t45.5 106.5t63.5 84t73.5 34q32 0 51 -20.5t29 -53t11.5 -73t-1.5 -80.5zM342 699q8 4 13 7.5t7 9t0 14t-7 22.5q-7 17 -16.5 37t-20.5 39t-23 35.5t-22 25.5q-29 24 -47.5 20.5t-9.5 -49.5q4 -16 9 -27.5t11.5 -21.5 t15.5 -19.5t21 -21.5q31 -30 41 -45q13 -22 21 -23.5t7 -2.5z" />
<glyph unicode="&#xd3;" horiz-adv-x="478" d="M476 360q4 59 -0.5 115.5t-22 101t-49 71.5t-82.5 27q-38 0 -72.5 -20t-64.5 -53.5t-55 -76t-44 -88.5t-30 -91.5t-13 -83.5q-5 -68 3.5 -122.5t29 -92.5t51.5 -58t72 -20q51 0 99 31t85.5 84t62.5 124t30 152zM406 360q-3 -61 -20.5 -116t-45 -96.5t-62.5 -66t-73 -24.5 q-27 0 -46 15t-30 42t-15 64.5t-1 83.5q3 44 20.5 100.5t45.5 106.5t63.5 84t73.5 34q32 0 51 -20.5t29 -53t11.5 -73t-1.5 -80.5zM294 699h5t5 2.5t7 7.5t11 16q5 8 15.5 19.5t25.5 25.5q12 12 21 21.5t15.5 19.5t11.5 21.5t9 27.5q4 23 1 35t-11 14.5t-20.5 -3 t-26.5 -17.5q-11 -9 -22.5 -25.5t-23 -35.5t-21 -39t-15.5 -37q-5 -14 -7 -22.5t-0.5 -14t6.5 -9t14 -7.5z" />
<glyph unicode="&#xd4;" horiz-adv-x="478" d="M476 360q4 59 -0.5 115.5t-22 101t-49 71.5t-82.5 27q-38 0 -72.5 -20t-64.5 -53.5t-55 -76t-44 -88.5t-30 -91.5t-13 -83.5q-5 -68 3.5 -122.5t29 -92.5t51.5 -58t72 -20q51 0 99 31t85.5 84t62.5 124t30 152zM406 360q-3 -61 -20.5 -116t-45 -96.5t-62.5 -66t-73 -24.5 q-27 0 -46 15t-30 42t-15 64.5t-1 83.5q3 44 20.5 100.5t45.5 106.5t63.5 84t73.5 34q32 0 51 -20.5t29 -53t11.5 -73t-1.5 -80.5zM436 739q0 15 -7 30l-65 123q-5 14 -12.5 24.5t-18.5 10.5q-12 0 -16.5 -6.5t-8.5 -15.5l-95 -129q-8 -9 -13 -16.5t-7 -20.5v-8 q0 -7 5 -12.5t19 -10.5q9 -2 16.5 2.5t20.5 26.5l73 98l49 -95q9 -24 21.5 -29t14.5 -3q14 7 18.5 13.5t5.5 17.5z" />
<glyph unicode="&#xd5;" horiz-adv-x="478" d="M476 360q4 59 -0.5 115.5t-22 101t-49 71.5t-82.5 27q-38 0 -72.5 -20t-64.5 -53.5t-55 -76t-44 -88.5t-30 -91.5t-13 -83.5q-5 -68 3.5 -122.5t29 -92.5t51.5 -58t72 -20q51 0 99 31t85.5 84t62.5 124t30 152zM406 360q-3 -61 -20.5 -116t-45 -96.5t-62.5 -66t-73 -24.5 q-27 0 -46 15t-30 42t-15 64.5t-1 83.5q3 44 20.5 100.5t45.5 106.5t63.5 84t73.5 34q32 0 51 -20.5t29 -53t11.5 -73t-1.5 -80.5zM423 809q0 7 -5.5 14t-13 9t-15.5 -2t-12 -17q-1 -5 -2 -12.5t-3 -14.5t-6 -12.5t-11 -5.5q-9 0 -14.5 9t-11.5 20.5t-14 20.5t-23 9 q-12 0 -26 -7t-26.5 -18t-21.5 -25t-10 -29q-1 -12 6 -21t19 -9q7 0 13 7.5t12 16t12 16t13 7.5q6 0 11 -8t11.5 -18t16.5 -18t26 -8q32 0 51.5 19.5t23.5 76.5z" />
<glyph unicode="&#xd6;" horiz-adv-x="478" d="M476 360q4 59 -0.5 115.5t-22 101t-49 71.5t-82.5 27q-38 0 -72.5 -20t-64.5 -53.5t-55 -76t-44 -88.5t-30 -91.5t-13 -83.5q-5 -68 3.5 -122.5t29 -92.5t51.5 -58t72 -20q51 0 99 31t85.5 84t62.5 124t30 152zM406 360q-3 -61 -20.5 -116t-45 -96.5t-62.5 -66t-73 -24.5 q-27 0 -46 15t-30 42t-15 64.5t-1 83.5q3 44 20.5 100.5t45.5 106.5t63.5 84t73.5 34q32 0 51 -20.5t29 -53t11.5 -73t-1.5 -80.5zM278 777q1 9 0.5 21t-3.5 22t-10 17t-20 7t-24 -6.5t-19 -16.5t-13 -22.5t-6 -23.5t2.5 -23t9.5 -22t14.5 -16.5t17.5 -6.5q13 0 22 7 t15.5 17.5t9.5 22.5t4 23zM420 782q1 9 0.5 20.5t-3.5 21.5t-10 17t-20 7t-24 -6.5t-19 -16.5t-13 -22.5t-6 -23.5t2.5 -23t9.5 -22t14.5 -16.5t17.5 -6.5q13 0 22 7t15.5 17.5t9.5 23t4 23.5z" />
<glyph unicode="&#xd7;" horiz-adv-x="349" d="M302 158l-59 80l58 65q9 4 15 12q7 12 10 12q16 19 15.5 37.5t-10 30.5t-24.5 14t-29 -14q-6 -8 -15 -14.5t-11 -12.5l-59 -65l-53 72q-2 8 -11.5 16.5t-13.5 13.5q-15 20 -30.5 21t-25.5 -9.5t-11.5 -29t12.5 -36.5q5 -7 12 -20.5t16 -18.5l52 -69l-61 -68 q-8 -2 -16 -14t-13 -17q-18 -19 -18 -37t10 -30q10 -13 24.5 -16t26.5 10q3 3 9 10t13 14.5t13.5 15t9.5 11.5l51 56l58 -78q3 -11 12.5 -19t12.5 -12q13 -18 29.5 -19.5t28 8t14 27t-12.5 36.5z" />
<glyph unicode="&#xd8;" horiz-adv-x="478" d="M413 659q4 13 7 28.5t3 29.5t-5.5 23.5t-18.5 9.5q-14 0 -23.5 -4.5t-15 -11t-9 -14.5t-5.5 -15t-4 -14.5t-5 -16.5q-4 0 -7.5 0.5t-7.5 0.5q-38 0 -72.5 -20t-64.5 -53.5t-55 -76t-44 -88.5t-30 -91.5t-13 -83.5q-7 -101 14.5 -170.5t66.5 -99.5q-15 -48 -13 -72t33 -24 q10 0 17.5 8t13 19.5t9.5 24t7 21.5h8q51 0 99 31t85.5 84t62.5 124t30 152q3 43 1 85t-9.5 79t-21.5 68t-37 51q2 5 2.5 9t1.5 8v-1zM113 262q2 29 10.5 64t22 70.5t31.5 69t39.5 59.5t45 43t48.5 18q-17 -56 -38 -123.5t-42.5 -136.5t-42 -134t-36.5 -114 q-24 24 -33.5 71.5t-4.5 112.5zM406 360q-3 -58 -19 -110.5t-41 -93.5t-57 -67t-68 -31q16 47 37 108.5t43.5 127.5t43.5 131.5t37 120.5q20 -34 24.5 -84.5t-0.5 -101.5z" />
<glyph unicode="&#xd9;" horiz-adv-x="458" d="M422 171l27 412q1 1 3 12t0.5 24t-8.5 23.5t-23 10.5q-14 0 -22.5 -6t-12.5 -16t-5 -23.5t-1 -27.5l-33 -413q-2 -18 -14.5 -37.5t-34 -35.5t-50 -26t-62.5 -10q-24 0 -42.5 14.5t-16.5 40.5l32 490q0 6 -1 14.5t-4.5 16.5t-10.5 13.5t-18 5.5q-12 0 -19 -5t-10.5 -13 t-5.5 -17.5t-3 -19.5l-32 -485q-2 -31 4.5 -57t23 -45.5t44 -30.5t66.5 -11q47 0 88 17.5t71.5 46t49 64.5t20.5 74zM300 699q8 4 13 7.5t7 9t0 14t-7 22.5q-7 17 -16.5 37t-20.5 39t-23 35.5t-22 25.5q-29 24 -47.5 20.5t-9.5 -49.5q4 -16 9 -27.5t11.5 -21.5t15.5 -19.5 t21 -21.5q31 -30 41 -45q13 -22 21 -23.5t7 -2.5z" />
<glyph unicode="&#xda;" horiz-adv-x="458" d="M422 171l27 412q1 1 3 12t0.5 24t-8.5 23.5t-23 10.5q-14 0 -22.5 -6t-12.5 -16t-5 -23.5t-1 -27.5l-33 -413q-2 -18 -14.5 -37.5t-34 -35.5t-50 -26t-62.5 -10q-24 0 -42.5 14.5t-16.5 40.5l32 490q0 6 -1 14.5t-4.5 16.5t-10.5 13.5t-18 5.5q-12 0 -19 -5t-10.5 -13 t-5.5 -17.5t-3 -19.5l-32 -485q-2 -31 4.5 -57t23 -45.5t44 -30.5t66.5 -11q47 0 88 17.5t71.5 46t49 64.5t20.5 74zM266 699h5t5 2.5t7.5 7.5t10.5 16q10 15 41 45q12 12 21 21.5t15.5 19.5t11.5 21.5t9 27.5q4 23 1 35t-11 14.5t-20.5 -3t-26.5 -17.5q-11 -9 -22.5 -25.5 t-22.5 -35.5t-20.5 -39t-16.5 -37q-5 -14 -7 -22.5t0 -14t7 -9t13 -7.5z" />
<glyph unicode="&#xdb;" horiz-adv-x="458" d="M422 171l27 412q1 1 3 12t0.5 24t-8.5 23.5t-23 10.5q-14 0 -22.5 -6t-12.5 -16t-5 -23.5t-1 -27.5l-33 -413q-2 -18 -14.5 -37.5t-34 -35.5t-50 -26t-62.5 -10q-24 0 -42.5 14.5t-16.5 40.5l32 490q0 6 -1 14.5t-4.5 16.5t-10.5 13.5t-18 5.5q-12 0 -19 -5t-10.5 -13 t-5.5 -17.5t-3 -19.5l-32 -485q-2 -31 4.5 -57t23 -45.5t44 -30.5t66.5 -11q47 0 88 17.5t71.5 46t49 64.5t20.5 74zM413 739q2 14 -7 30l-65 123q-4 14 -12 24.5t-19 10.5t-15.5 -6.5t-8.5 -15.5l-96 -129q-7 -9 -12 -16.5t-7 -20.5v-8q0 -7 5 -12.5t19 -10.5 q8 -2 15.5 2.5t21.5 26.5l72 98l50 -95q9 -24 21 -29t15 -3q14 7 18 13.5t5 17.5z" />
<glyph unicode="&#xdc;" horiz-adv-x="458" d="M422 171l27 412q1 1 3 12t0.5 24t-8.5 23.5t-23 10.5q-14 0 -22.5 -6t-12.5 -16t-5 -23.5t-1 -27.5l-33 -413q-2 -18 -14.5 -37.5t-34 -35.5t-50 -26t-62.5 -10q-24 0 -42.5 14.5t-16.5 40.5l32 490q0 6 -1 14.5t-4.5 16.5t-10.5 13.5t-18 5.5q-12 0 -19 -5t-10.5 -13 t-5.5 -17.5t-3 -19.5l-32 -485q-2 -31 4.5 -57t23 -45.5t44 -30.5t66.5 -11q47 0 88 17.5t71.5 46t49 64.5t20.5 74zM254 777q1 9 0.5 21t-3.5 22t-10 17t-20 7t-24 -6.5t-19 -16.5t-13 -22.5t-6 -23.5t2.5 -23t9.5 -22t14.5 -16.5t17.5 -6.5q13 0 22 7t15.5 17.5t9.5 22.5 t4 23zM396 782q1 9 0.5 20.5t-3.5 21.5t-10 17t-20 7t-24 -6.5t-19 -16.5t-13 -22.5t-6 -23.5t2.5 -23t9.5 -22t14.5 -16.5t17.5 -6.5q13 0 22 7t15.5 17.5t9.5 23t4 23.5z" />
<glyph unicode="&#xdd;" horiz-adv-x="458" d="M474 560q13 22 17.5 35.5t2.5 21.5t-7.5 13.5t-11.5 10.5q-8 6 -15.5 4t-15 -8t-16 -14.5t-17.5 -15.5l-155 -202l-118 181q-16 32 -28.5 53.5t-22.5 18.5q-11 -3 -21 -10t-14.5 -19t-2 -29t17.5 -40l144 -248l-16 -248q-2 -33 2.5 -56t24.5 -21q13 1 21 7.5t12.5 16.5 t6.5 22t3 25l17 254zM265 693h4t5 2.5t7.5 7.5t10.5 16q10 16 42 45q12 12 21 21.5t15.5 19.5t11 21.5t9.5 27.5q4 23 1 35t-11 14.5t-20.5 -3t-26.5 -17.5q-11 -9 -22.5 -25.5t-23 -35.5t-21 -39t-15.5 -37q-5 -14 -7 -22.5t-0.5 -14t6.5 -9t14 -7.5z" />
<glyph unicode="&#xde;" horiz-adv-x="393" d="M124 78l1 26q22 0 30 0.5t12 0.5q37 0 75.5 27t71 71.5t54.5 102t25 119.5q4 72 -18.5 113.5t-74.5 41.5q-35 0 -72 -11t-75 -43l4 43q1 13 2.5 27.5t0.5 27t-6 21t-18 8.5q-34 0 -42 -18t-8 -55l-34 -522q-5 -27 0.5 -48t29.5 -25q13 -2 20.5 6.5t11.5 22t6 31t4 33.5z M322 425q-2 -44 -18.5 -86.5t-40 -76t-51.5 -54.5t-54 -21q-12 0 -18.5 5t-6.5 19l4 68l9 137q4 9 17.5 20.5t32.5 21.5t42 16.5t48 6.5q20 0 29 -15t7 -41z" />
<glyph unicode="&#xdf;" horiz-adv-x="454" d="M450 183q0 51 -23.5 79.5t-51.5 28.5q-36 0 -60 15.5t-33 40.5t-1 55.5t35 59.5q13 14 20.5 22.5t11 15t6 13.5t5.5 18q12 43 2 74.5t-33 50.5t-53 25t-58 -1q-33 -9 -54.5 -30.5t-34 -52t-18 -68t-7.5 -77.5l-2 -35l-17 -10q-8 -3 -14 -5t-11.5 -6t-9 -13t-4.5 -25 q-2 -15 1.5 -23t9.5 -11t14 -2t16 4l11 -1l-16 -368q-6 -25 5 -43.5t29 -16.5q19 2 31 21.5t7 42.5l22 530q0 7 2 23t7 33t15 32t26 21q14 5 27.5 8t24 0t17.5 -13.5t7 -32.5q-10 -18 -24.5 -37.5t-27 -42t-20 -50t-3.5 -61.5q-6 -19 2 -48t26 -56.5t44.5 -46.5t57.5 -19 q9 0 17.5 -12.5t1.5 -38.5q-6 -22 -9.5 -35.5t-8 -22.5t-11 -14t-17.5 -9q-12 -5 -29 8.5t-41 38.5q-7 6 -16.5 8.5t-18.5 -0.5t-16 -11.5t-9 -22.5q-3 -22 9 -42.5t31.5 -35.5t43 -22t42.5 -3q23 5 44.5 18.5t38.5 37.5t28.5 58.5t13.5 81.5z" />
<glyph unicode="&#xe0;" horiz-adv-x="396" d="M351 49l15 294q1 34 -5 56t-17.5 34t-25.5 16.5t-27 4.5q-45 0 -95.5 -14.5t-91.5 -50.5q-9 -6 -20.5 -13.5t-12.5 -32.5q-2 -23 8 -28t23.5 -1.5t26 11t16.5 10.5q36 12 64 26.5t60 14.5q7 0 17.5 -3t10.5 -20l-3 -55q-56 -3 -103.5 -15.5t-83.5 -36t-58.5 -58 t-28.5 -81.5q-2 -20 3.5 -44t16 -45t26 -35t32.5 -14q27 0 54.5 9t51.5 20.5t44 23.5t33 18q-1 -14 -2 -24.5t1 -18t8.5 -11.5t21.5 -4q23 0 32 16t8 50zM293 150q0 -2 -19 -21t-47 -39t-58.5 -34.5t-54.5 -8.5l-5 3t-11 9.5t-11 18t-4 29.5q1 23 20.5 42.5t49.5 35.5t66 27 t71 17zM262 499q8 4 13 7.5t6.5 9t0 14t-7.5 22.5q-6 17 -15.5 37t-20.5 39t-23 35.5t-22 25.5q-15 12 -27 17.5t-20.5 3t-11.5 -14.5t2 -35q4 -16 9 -27.5t11.5 -21.5t15.5 -19.5t21 -21.5q31 -30 41 -45q13 -22 20.5 -23.5t7.5 -2.5z" />
<glyph unicode="&#xe1;" horiz-adv-x="396" d="M351 49l15 294q1 34 -5 56t-17.5 34t-25.5 16.5t-27 4.5q-45 0 -95.5 -14.5t-91.5 -50.5q-9 -6 -20.5 -13.5t-12.5 -32.5q-2 -23 8 -28t23.5 -1.5t26 11t16.5 10.5q36 12 64 26.5t60 14.5q7 0 17.5 -3t10.5 -20l-3 -55q-56 -3 -103.5 -15.5t-83.5 -36t-58.5 -58 t-28.5 -81.5q-2 -20 3.5 -44t16 -45t26 -35t32.5 -14q27 0 54.5 9t51.5 20.5t44 23.5t33 18q-1 -14 -2 -24.5t1 -18t8.5 -11.5t21.5 -4q23 0 32 16t8 50zM293 150q0 -2 -19 -21t-47 -39t-58.5 -34.5t-54.5 -8.5l-5 3t-11 9.5t-11 18t-4 29.5q1 23 20.5 42.5t49.5 35.5t66 27 t71 17zM184 499h4t5 2.5t7.5 7.5t10.5 16q10 16 42 45q12 12 21 21.5t15.5 19.5t11 21.5t9.5 27.5q4 23 1 35t-11 14.5t-20.5 -3t-26.5 -17.5q-11 -9 -22.5 -25.5t-23 -35.5t-21 -39t-15.5 -37q-5 -14 -7 -22.5t-0.5 -14t6.5 -9t14 -7.5z" />
<glyph unicode="&#xe2;" horiz-adv-x="396" d="M351 49l15 294q1 34 -5 56t-17.5 34t-25.5 16.5t-27 4.5q-45 0 -95.5 -14.5t-91.5 -50.5q-9 -6 -20.5 -13.5t-12.5 -32.5q-2 -23 8 -28t23.5 -1.5t26 11t16.5 10.5q36 12 64 26.5t60 14.5q7 0 17.5 -3t10.5 -20l-3 -55q-56 -3 -103.5 -15.5t-83.5 -36t-58.5 -58 t-28.5 -81.5q-2 -20 3.5 -44t16 -45t26 -35t32.5 -14q27 0 54.5 9t51.5 20.5t44 23.5t33 18q-1 -14 -2 -24.5t1 -18t8.5 -11.5t21.5 -4q23 0 32 16t8 50zM293 150q0 -2 -19 -21t-47 -39t-58.5 -34.5t-54.5 -8.5l-5 3t-11 9.5t-11 18t-4 29.5q1 23 20.5 42.5t49.5 35.5t66 27 t71 17zM352 539q0 15 -7 30l-65 123q-5 14 -12.5 24.5t-18.5 10.5q-12 0 -16.5 -6.5t-8.5 -15.5l-95 -129q-8 -9 -13 -16.5t-7 -20.5v-8q0 -7 5 -12.5t19 -10.5q9 -2 16.5 2.5t20.5 26.5l73 98l49 -95q9 -24 21.5 -29t14.5 -3q14 7 18.5 13.5t5.5 17.5z" />
<glyph unicode="&#xe3;" horiz-adv-x="396" d="M351 49l15 294q1 34 -5 56t-17.5 34t-25.5 16.5t-27 4.5q-45 0 -95.5 -14.5t-91.5 -50.5q-9 -6 -20.5 -13.5t-12.5 -32.5q-2 -23 8 -28t23.5 -1.5t26 11t16.5 10.5q36 12 64 26.5t60 14.5q7 0 17.5 -3t10.5 -20l-3 -55q-56 -3 -103.5 -15.5t-83.5 -36t-58.5 -58 t-28.5 -81.5q-2 -20 3.5 -44t16 -45t26 -35t32.5 -14q27 0 54.5 9t51.5 20.5t44 23.5t33 18q-1 -14 -2 -24.5t1 -18t8.5 -11.5t21.5 -4q23 0 32 16t8 50zM293 150q0 -2 -19 -21t-47 -39t-58.5 -34.5t-54.5 -8.5l-5 3t-11 9.5t-11 18t-4 29.5q1 23 20.5 42.5t49.5 35.5t66 27 t71 17zM336 609q0 7 -5.5 14t-13 9t-15.5 -2t-12 -17q-1 -5 -2 -12.5t-3 -14.5t-6 -12.5t-11 -5.5q-9 0 -14.5 9t-11.5 20.5t-14 20.5t-23 9q-12 0 -26 -7t-26.5 -18t-21.5 -25t-10 -29q-1 -12 6 -21t19 -9q7 0 13 7.5t12 16t12 16t13 7.5q6 0 11 -8t11.5 -18t16.5 -18 t26 -8q32 0 51.5 19.5t23.5 76.5z" />
<glyph unicode="&#xe4;" horiz-adv-x="396" d="M351 49l15 294q1 34 -5 56t-17.5 34t-25.5 16.5t-27 4.5q-45 0 -95.5 -14.5t-91.5 -50.5q-9 -6 -20.5 -13.5t-12.5 -32.5q-2 -23 8 -28t23.5 -1.5t26 11t16.5 10.5q36 12 64 26.5t60 14.5q7 0 17.5 -3t10.5 -20l-3 -55q-56 -3 -103.5 -15.5t-83.5 -36t-58.5 -58 t-28.5 -81.5q-2 -20 3.5 -44t16 -45t26 -35t32.5 -14q27 0 54.5 9t51.5 20.5t44 23.5t33 18q-1 -14 -2 -24.5t1 -18t8.5 -11.5t21.5 -4q23 0 32 16t8 50zM293 150q0 -2 -19 -21t-47 -39t-58.5 -34.5t-54.5 -8.5l-5 3t-11 9.5t-11 18t-4 29.5q1 23 20.5 42.5t49.5 35.5t66 27 t71 17zM204 577v21t-3 22t-10 17t-20 7t-24 -6.5t-19.5 -16.5t-13 -22.5t-5.5 -23.5t2 -23t9 -22t14.5 -16.5t18.5 -6.5q13 0 22 7t15.5 17.5t9.5 22.5t4 23zM346 582q1 9 0.5 20.5t-4 21.5t-10.5 17t-19 7q-13 0 -24 -6.5t-19 -16.5t-13 -22.5t-6 -23.5t2.5 -23t9.5 -22 t14.5 -16.5t17.5 -6.5q13 0 22 7t15.5 17.5t9.5 23t4 23.5z" />
<glyph unicode="&#xe5;" horiz-adv-x="396" d="M351 49l15 294q1 34 -5 56t-17.5 34t-25.5 16.5t-27 4.5q-45 0 -95.5 -14.5t-91.5 -50.5q-9 -6 -20.5 -13.5t-12.5 -32.5q-2 -23 8 -28t23.5 -1.5t26 11t16.5 10.5q36 12 64 26.5t60 14.5q7 0 17.5 -3t10.5 -20l-3 -55q-56 -3 -103.5 -15.5t-83.5 -36t-58.5 -58 t-28.5 -81.5q-2 -20 3.5 -44t16 -45t26 -35t32.5 -14q27 0 54.5 9t51.5 20.5t44 23.5t33 18q-1 -14 -2 -24.5t1 -18t8.5 -11.5t21.5 -4q23 0 32 16t8 50zM314 628q3 33 -9 60t-41 27q-24 0 -43 -13t-32.5 -33.5t-20.5 -44.5t-8 -46q-1 -15 1.5 -29t8.5 -25t16.5 -17.5 t26.5 -6.5q19 0 37 10.5t31.5 28t22.5 40.5t10 49zM293 150q0 -2 -19 -21t-47 -39t-58.5 -34.5t-54.5 -8.5l-5 3t-11 9.5t-11 18t-4 29.5q1 23 20.5 42.5t49.5 35.5t66 27t71 17zM274 621q-2 -23 -14.5 -41.5t-30.5 -18.5q-9 0 -12 8.5t-3 18.5t3 21t9 20t14 15t19 6 q10 0 12.5 -9t2.5 -20z" />
<glyph unicode="&#xe6;" horiz-adv-x="604" d="M604 323q2 58 -26 95.5t-76 37.5q-41 0 -75.5 -21.5t-62.5 -57.5q-2 24 -9.5 39t-17.5 23.5t-22 11.5t-24 3q-45 0 -95.5 -14.5t-91.5 -50.5q-9 -6 -20.5 -13.5t-12.5 -32.5q-2 -23 8 -28t23.5 -1.5t26 11t16.5 10.5q36 12 64 26.5t60 14.5q7 0 17.5 -3t10.5 -20l-3 -55 q-56 -3 -103.5 -15.5t-83.5 -36t-58.5 -58t-28.5 -81.5q-2 -20 3.5 -44t16 -45t26 -35t32.5 -14q27 0 54.5 9t51.5 20.5t44 23.5t33 18q21 -22 31.5 -31.5t27.5 -13.5q19 -12 48 -12q38 0 76 16t69 37.5t50 44.5t20 37q2 23 -2 34.5t-18 11.5q-8 0 -13 -0.5t-9.5 -2t-9.5 -5 t-13 -9.5q-15 -14 -30.5 -29t-32.5 -27t-34.5 -20t-35.5 -8q-5 0 -12 0.5t-14 4.5t-12.5 13.5t-8.5 27.5l-2 44q41 13 84.5 29t79.5 36.5t59 46t25 58.5zM286 148q0 -2 -0.5 -4t-0.5 -4q-10 -11 -30.5 -28.5t-45 -33.5t-50 -26t-45.5 -5l-5 3t-11 9.5t-11 18t-4 29.5 q1 23 20.5 42.5t49.5 35.5t66 27t71 17q-2 -26 -2.5 -41t-1 -23t-0.5 -12v-5zM533 337q-3 -14 -24.5 -33.5t-48.5 -36.5t-53.5 -27t-39.5 -4q7 33 21.5 59.5t32 45t36.5 29t36 10.5q23 0 32.5 -14.5t7.5 -28.5z" />
<glyph unicode="&#xe7;" horiz-adv-x="346" d="M175 -94l14 61v9q26 6 46 17t35 24.5t25 27t16 24.5l26 38q18 38 16.5 63.5t-31.5 25.5q-14 0 -22 -6t-13 -13.5t-7.5 -15.5t-3.5 -11q-5 -14 -17 -30t-29 -30.5t-37.5 -24t-43.5 -9.5q-13 0 -22 7.5t-14 19.5t-7.5 27t-1.5 30q2 43 14.5 83t31.5 71t41 49.5t44 18.5 q24 0 41 -6t23 -18q15 -12 31 -9.5t24.5 14.5t6 30.5t-22.5 39.5q-23 23 -45.5 29t-53.5 6q-38 0 -74 -25.5t-64.5 -68.5t-46.5 -98.5t-21 -115.5q-2 -29 2 -56.5t14 -50t26.5 -38.5t40.5 -22q-1 -4 -1 -14l-6 -52l-2.5 -11.5t-2.5 -26.5q0 -14 4 -27t17 -16q8 -2 16 3.5 t14.5 16.5t12 26.5t7.5 33.5z" />
<glyph unicode="&#xe8;" horiz-adv-x="352" d="M350 306q3 58 -25 95.5t-76 37.5q-46 0 -84.5 -27t-67 -71t-45.5 -99t-20 -111q-5 -85 23 -125t80 -40q38 0 76 16t68.5 37.5t49.5 44.5t20 37q4 46 -19 46q-17 0 -23.5 -2.5t-22.5 -14.5q-14 -14 -30 -29t-33 -27t-34.5 -20t-35.5 -8q-5 0 -12 0.5t-13.5 4.5t-12.5 13.5 t-9 27.5q-3 19 -2 31.5l1 12.5q41 13 84 29t79 36.5t59 46t25 58.5zM262 499q8 4 13 7.5t6.5 9t0 14t-7.5 22.5q-6 17 -15.5 37t-20.5 39t-23 35.5t-22 25.5q-15 12 -27 17.5t-20.5 3t-11.5 -14.5t2 -35q4 -16 9 -27.5t11.5 -21.5t15.5 -19.5t21 -21.5q31 -30 41 -45 q13 -22 20.5 -23.5t7.5 -2.5zM280 320q-3 -14 -24.5 -33.5t-48.5 -36.5t-54 -27t-40 -4q7 33 22 59.5t32.5 45t36.5 29t36 10.5q22 0 32 -14.5t8 -28.5z" />
<glyph unicode="&#xe9;" horiz-adv-x="352" d="M350 306q3 58 -25 95.5t-76 37.5q-46 0 -84.5 -27t-67 -71t-45.5 -99t-20 -111q-5 -85 23 -125t80 -40q38 0 76 16t68.5 37.5t49.5 44.5t20 37q4 46 -19 46q-17 0 -23.5 -2.5t-22.5 -14.5q-14 -14 -30 -29t-33 -27t-34.5 -20t-35.5 -8q-5 0 -12 0.5t-13.5 4.5t-12.5 13.5 t-9 27.5q-3 19 -2 31.5l1 12.5q41 13 84 29t79 36.5t59 46t25 58.5zM206 499h5t5 2.5t7.5 7.5t10.5 16q10 15 41 45q12 12 21 21.5t15.5 19.5t11.5 21.5t9 27.5q4 23 1 35t-11 14.5t-20.5 -3t-26.5 -17.5q-11 -9 -22.5 -25.5t-22.5 -35.5t-20.5 -39t-16.5 -37 q-5 -14 -7 -22.5t0 -14t7 -9t13 -7.5zM280 320q-3 -14 -24.5 -33.5t-48.5 -36.5t-54 -27t-40 -4q7 33 22 59.5t32.5 45t36.5 29t36 10.5q22 0 32 -14.5t8 -28.5z" />
<glyph unicode="&#xea;" horiz-adv-x="352" d="M350 306q3 58 -25 95.5t-76 37.5q-46 0 -84.5 -27t-67 -71t-45.5 -99t-20 -111q-5 -85 23 -125t80 -40q38 0 76 16t68.5 37.5t49.5 44.5t20 37q4 46 -19 46q-17 0 -23.5 -2.5t-22.5 -14.5q-14 -14 -30 -29t-33 -27t-34.5 -20t-35.5 -8q-5 0 -12 0.5t-13.5 4.5t-12.5 13.5 t-9 27.5q-3 19 -2 31.5l1 12.5q41 13 84 29t79 36.5t59 46t25 58.5zM347 539q2 14 -7 30l-65 123q-4 14 -12 24.5t-19 10.5t-15.5 -6.5t-8.5 -15.5l-96 -129q-7 -9 -12 -16.5t-7 -20.5v-8q0 -7 5 -12.5t19 -10.5q8 -2 15.5 2.5t21.5 26.5l72 98l50 -95q9 -24 21 -29t15 -3 q14 7 18 13.5t5 17.5zM280 320q-3 -14 -24.5 -33.5t-48.5 -36.5t-54 -27t-40 -4q7 33 22 59.5t32.5 45t36.5 29t36 10.5q22 0 32 -14.5t8 -28.5z" />
<glyph unicode="&#xeb;" horiz-adv-x="352" d="M350 306q3 58 -25 95.5t-76 37.5q-46 0 -84.5 -27t-67 -71t-45.5 -99t-20 -111q-5 -85 23 -125t80 -40q38 0 76 16t68.5 37.5t49.5 44.5t20 37q4 46 -19 46q-17 0 -23.5 -2.5t-22.5 -14.5q-14 -14 -30 -29t-33 -27t-34.5 -20t-35.5 -8q-5 0 -12 0.5t-13.5 4.5t-12.5 13.5 t-9 27.5q-3 19 -2 31.5l1 12.5q41 13 84 29t79 36.5t59 46t25 58.5zM280 320q-3 -14 -24.5 -33.5t-48.5 -36.5t-54 -27t-40 -4q7 33 22 59.5t32.5 45t36.5 29t36 10.5q22 0 32 -14.5t8 -28.5zM208 577q0 9 -0.5 21t-3.5 22t-10 17t-19 7q-13 0 -24 -6.5t-19.5 -16.5 t-13.5 -22.5t-6 -23.5q0 -11 3 -23t9 -22t14.5 -16.5t18.5 -6.5q12 0 21.5 7t15.5 17.5t9.5 22.5t4.5 23zM349 582q1 9 1 20q0 12 -3.5 22t-10.5 17t-20 7q-12 0 -23 -6.5t-19.5 -16.5t-13.5 -22.5t-5 -23.5q-1 -11 2.5 -23t9.5 -22t14 -16.5t17 -6.5q13 0 22.5 7t15.5 17.5 t9.5 23t3.5 23.5z" />
<glyph unicode="&#xec;" d="M122 61l15 285q3 34 3 53q0 20 -3 30.5t-9 13.5t-16 3q-17 0 -26.5 -5t-14 -17t-5.5 -31.5t-2 -48.5l-13 -280q-1 -16 -1.5 -29.5t1.5 -24t8 -17t20 -8.5t22 4t12 17t5.5 26t3.5 30v-1zM153 499q8 4 13 7.5t7 9t0 14t-7 22.5q-7 17 -16.5 37t-20.5 39t-23 35.5t-22 25.5 q-29 24 -47.5 20.5t-9.5 -49.5q4 -16 9 -27.5t11.5 -21.5t15.5 -19.5t21 -21.5q31 -30 41 -45q13 -22 21 -23.5t7 -2.5z" />
<glyph unicode="&#xed;" d="M122 61l15 285q3 34 3 53q0 20 -3 30.5t-9 13.5t-16 3q-17 0 -26.5 -5t-14 -17t-5.5 -31.5t-2 -48.5l-13 -280q-1 -16 -1.5 -29.5t1.5 -24t8 -17t20 -8.5t22 4t12 17t5.5 26t3.5 30v-1zM73 499h5t5 2.5t7.5 7.5t10.5 16q10 15 41 45q12 12 21 21.5t15.5 19.5t11.5 21.5 t9 27.5q4 23 1.5 35t-11 14.5t-20.5 -3t-27 -17.5q-11 -9 -22.5 -25.5t-22.5 -35.5t-20.5 -39t-15.5 -37q-6 -14 -7.5 -22.5t0 -14t6.5 -9t13 -7.5z" />
<glyph unicode="&#xee;" d="M122 61l15 285q3 34 3 53q0 20 -3 30.5t-9 13.5t-16 3q-17 0 -26.5 -5t-14 -17t-5.5 -31.5t-2 -48.5l-13 -280q-1 -16 -1.5 -29.5t1.5 -24t8 -17t20 -8.5t22 4t12 17t5.5 26t3.5 30v-1zM227 539q2 14 -7 30l-65 123q-4 14 -12 24.5t-19 10.5t-15.5 -6.5t-8.5 -15.5 l-96 -129q-7 -9 -12 -16.5t-7 -20.5v-8q0 -7 5 -12.5t19 -10.5q8 -2 15.5 2.5t21.5 26.5l72 98l50 -95q9 -24 21 -29t15 -3q14 7 18 13.5t5 17.5z" />
<glyph unicode="&#xef;" d="M122 61l15 285q3 34 3 53q0 20 -3 30.5t-9 13.5t-16 3q-17 0 -26.5 -5t-14 -17t-5.5 -31.5t-2 -48.5l-13 -280q-1 -16 -1.5 -29.5t1.5 -24t8 -17t20 -8.5t22 4t12 17t5.5 26t3.5 30v-1zM83 577q1 9 0.5 21t-3.5 22t-10 17t-20 7t-24 -6.5t-19 -16.5t-13 -22.5t-6 -23.5 t2.5 -23t9.5 -22t14.5 -16.5t17.5 -6.5q13 0 22 7t15.5 17.5t9.5 22.5t4 23zM225 582q1 9 0.5 20.5t-3.5 21.5t-10 17t-20 7t-24 -6.5t-19 -16.5t-13 -22.5t-6 -23.5t2.5 -23t9.5 -22t14.5 -16.5t17.5 -6.5q13 0 22 7t15.5 17.5t9.5 23t4 23.5z" />
<glyph unicode="&#xf0;" horiz-adv-x="397" d="M280 499v4l3 2q9 -23 15.5 -47t8.5 -47l-13 14q-29 26 -47 35q-32 15 -62 13.5t-55.5 -17.5t-45.5 -44.5t-31 -66.5q-13 -47 -10.5 -98t18 -97t42.5 -82.5t63 -54.5q10 -5 35.5 -9t56 6t61 40t51.5 92q11 34 15 85t0 108t-15 115.5t-30 108.5l20 18q14 13 16 32t-5.5 33 t-22.5 17.5t-35 -14.5q-2 -2 -5 -4t-5 -4q-27 41 -60 59q-15 8 -30.5 0.5t-20.5 -25.5q-2 -5 15 -29t37 -60q-3 -4 -5.5 -6.5t-3.5 -4.5q-17 -15 -18.5 -33.5t6.5 -32.5t22.5 -18.5t29.5 9.5q1 1 5 3zM125 296q9 35 27 57h1q4 6 9.5 14t15 13.5t25.5 5t41 -12.5 q19 -9 33.5 -27t22.5 -43t8.5 -56t-9.5 -66q-16 -57 -47 -76.5t-63 -3.5q-14 7 -28.5 20t-25 35.5t-14 56.5t3.5 83z" />
<glyph unicode="&#xf1;" horiz-adv-x="376" d="M334 97l15 282q1 16 -4 29.5t-14 23.5t-20 15t-21 5q-13 0 -33.5 -7t-42 -16t-41.5 -18t-31 -13l-1 18q-2 5 -2 9v8q0 13 -4 19t-25 1q-22 -4 -32 -21.5t-10 -41.5l-6 -121q-1 -24 -2 -37.5t-2 -32.5t-3 -51.5t-4 -95.5q-1 -6 -1.5 -12t-0.5 -12q0 -17 7.5 -30t22.5 -11 q12 1 20.5 8t13 16t6.5 19t1 18l19 241q19 21 40 33.5t39 19t31 8t16 1.5q9 0 10.5 -10t1.5 -15l-15 -277q-2 -37 5 -48.5t27 -13.5t30 15.5t8 49.5zM330 606q0 7 -5.5 14t-13 9t-15.5 -2t-12 -17q-1 -5 -2 -12.5t-3 -14.5t-6 -12.5t-11 -5.5q-9 0 -14.5 9t-11.5 20.5 t-14 20.5t-23 9q-12 0 -26 -7t-26.5 -18t-21.5 -25t-10 -29q-1 -12 6 -21t19 -9q7 0 13 7.5t12 16t12 16t13 7.5q6 0 11 -8t11.5 -18t16.5 -18t26 -8q32 0 51.5 19.5t23.5 76.5z" />
<glyph unicode="&#xf2;" horiz-adv-x="392" d="M381 258q2 36 -3.5 71t-19.5 62t-37 43.5t-55 16.5q-53 0 -95 -29t-72 -74t-47 -99.5t-19 -104.5q-2 -32 3.5 -63.5t19 -56t37 -39.5t58.5 -15q43 0 83.5 23t72 62.5t51.5 91.5t23 111zM310 258q-2 -39 -15.5 -75.5t-34.5 -64.5t-48 -45t-57 -17q-16 0 -26.5 8t-16 20.5 t-7.5 28.5t-1 31q2 34 12.5 72t29.5 69.5t46.5 52t64.5 20.5q16 0 27 -8.5t17 -23t8 -32.5t1 -36zM262 499q8 4 13 7.5t6.5 9t0 14t-7.5 22.5q-6 17 -15.5 37t-20.5 39t-23 35.5t-22 25.5q-15 12 -27 17.5t-20.5 3t-11.5 -14.5t2 -35q4 -16 9 -27.5t11.5 -21.5t15.5 -19.5 t21 -21.5q31 -30 41 -45q13 -22 20.5 -23.5t7.5 -2.5z" />
<glyph unicode="&#xf3;" horiz-adv-x="392" d="M381 258q2 36 -3.5 71t-19.5 62t-37 43.5t-55 16.5q-53 0 -95 -29t-72 -74t-47 -99.5t-19 -104.5q-2 -32 3.5 -63.5t19 -56t37 -39.5t58.5 -15q43 0 83.5 23t72 62.5t51.5 91.5t23 111zM310 258q-2 -39 -15.5 -75.5t-34.5 -64.5t-48 -45t-57 -17q-16 0 -26.5 8t-16 20.5 t-7.5 28.5t-1 31q2 34 12.5 72t29.5 69.5t46.5 52t64.5 20.5q16 0 27 -8.5t17 -23t8 -32.5t1 -36zM220 499h4t5 2.5t7.5 7.5t10.5 16q10 16 42 45q12 12 21 21.5t15.5 19.5t11 21.5t9.5 27.5q4 23 1 35t-11 14.5t-20.5 -3t-26.5 -17.5q-11 -9 -22.5 -25.5t-23 -35.5t-21 -39 t-15.5 -37q-5 -14 -7 -22.5t-0.5 -14t6.5 -9t14 -7.5z" />
<glyph unicode="&#xf4;" horiz-adv-x="392" d="M381 258q2 36 -3.5 71t-19.5 62t-37 43.5t-55 16.5q-53 0 -95 -29t-72 -74t-47 -99.5t-19 -104.5q-2 -32 3.5 -63.5t19 -56t37 -39.5t58.5 -15q43 0 83.5 23t72 62.5t51.5 91.5t23 111zM310 258q-2 -39 -15.5 -75.5t-34.5 -64.5t-48 -45t-57 -17q-16 0 -26.5 8t-16 20.5 t-7.5 28.5t-1 31q2 34 12.5 72t29.5 69.5t46.5 52t64.5 20.5q16 0 27 -8.5t17 -23t8 -32.5t1 -36zM362 539q2 14 -7 30l-65 123q-4 14 -12 24.5t-19 10.5t-15.5 -6.5t-8.5 -15.5l-96 -129q-7 -9 -12 -16.5t-7 -20.5v-8q0 -7 5 -12.5t19 -10.5q8 -2 15.5 2.5t21.5 26.5l72 98 l50 -95q9 -24 21 -29t15 -3q14 7 18 13.5t5 17.5z" />
<glyph unicode="&#xf5;" horiz-adv-x="392" d="M381 258q2 36 -3.5 71t-19.5 62t-37 43.5t-55 16.5q-53 0 -95 -29t-72 -74t-47 -99.5t-19 -104.5q-2 -32 3.5 -63.5t19 -56t37 -39.5t58.5 -15q43 0 83.5 23t72 62.5t51.5 91.5t23 111zM310 258q-2 -39 -15.5 -75.5t-34.5 -64.5t-48 -45t-57 -17q-16 0 -26.5 8t-16 20.5 t-7.5 28.5t-1 31q2 34 12.5 72t29.5 69.5t46.5 52t64.5 20.5q16 0 27 -8.5t17 -23t8 -32.5t1 -36zM355 609q1 7 -4.5 14t-13 9t-15.5 -2t-12 -17q-1 -5 -2 -12.5t-3 -14.5t-6 -12.5t-11 -5.5q-10 0 -15.5 9t-11.5 20.5t-14 20.5t-23 9q-12 0 -26 -7t-26.5 -18t-21 -25 t-9.5 -29q-2 -12 5.5 -21t19.5 -9q7 0 13 7.5t12 16t12 16t13 7.5q6 0 11 -8t11.5 -18t16 -18t25.5 -8q33 0 52.5 19.5t22.5 76.5z" />
<glyph unicode="&#xf6;" horiz-adv-x="392" d="M381 258q2 36 -3.5 71t-19.5 62t-37 43.5t-55 16.5q-53 0 -95 -29t-72 -74t-47 -99.5t-19 -104.5q-2 -32 3.5 -63.5t19 -56t37 -39.5t58.5 -15q43 0 83.5 23t72 62.5t51.5 91.5t23 111zM310 258q-2 -39 -15.5 -75.5t-34.5 -64.5t-48 -45t-57 -17q-16 0 -26.5 8t-16 20.5 t-7.5 28.5t-1 31q2 34 12.5 72t29.5 69.5t46.5 52t64.5 20.5q16 0 27 -8.5t17 -23t8 -32.5t1 -36zM226 577q1 9 0.5 21t-3.5 22t-10 17t-20 7t-24 -6.5t-19 -16.5t-13 -22.5t-6 -23.5q0 -11 3 -23t9 -22t14.5 -16.5t17.5 -6.5q13 0 22 7t15.5 17.5t9.5 22.5t4 23zM368 582 q1 9 0.5 20.5t-3.5 21.5t-10 17t-20 7t-24 -6.5t-19 -16.5t-13 -22.5t-5 -23.5q-1 -11 2 -23t9 -22t14.5 -16.5t17.5 -6.5q13 0 22.5 7t15.5 17.5t9.5 23t3.5 23.5z" />
<glyph unicode="&#xf7;" horiz-adv-x="289" d="M260 174q18 0 27.5 14.5t9 31.5t-11.5 31.5t-35 14.5q-9 0 -21.5 1.5t-20.5 -2.5h-104q-1 1 -9 1t-17 -1.5t-13 -1.5q-20 0 -29 -14.5t-8 -31.5t11 -31.5t28 -14.5q8 0 20.5 -3.5t20.5 4.5l100 1zM197 51q1 11 0.5 24.5t-4 25t-11.5 19.5t-23 8t-28 -7.5t-22.5 -19.5 t-15 -26t-6.5 -27t3 -27t11 -25.5t16.5 -19t20.5 -7.5q15 0 26 8t18 20.5t10.5 27t4.5 26.5zM229 398q1 11 0.5 24.5t-4 25t-11.5 19.5t-23 8t-28 -7.5t-22.5 -19.5t-15 -26t-6.5 -27t3 -27t11 -25.5t16.5 -19t20.5 -7.5q15 0 26 8t18 20.5t10.5 27t4.5 26.5z" />
<glyph unicode="&#xf8;" horiz-adv-x="392" d="M334 470q4 13 7 28.5t3 29.5t-5.5 23.5t-18.5 9.5q-14 0 -23 -4.5t-14.5 -11t-9 -14.5t-5.5 -15q-5 -14 -9.5 -30.5t-10.5 -36.5q-49 -5 -88 -35.5t-66.5 -74.5t-43 -95.5t-17.5 -99.5q-1 -26 2 -51t10.5 -46.5t21 -38.5t33.5 -27v-4q-18 -55 -18 -83t33 -28 q11 0 19 10.5t14 24t10.5 27t7.5 19.5q2 6 3.5 12t3.5 13q40 6 76.5 31t64.5 63.5t46 87.5t21 104q3 53 -10.5 100.5t-45.5 72.5q2 10 4.5 20t4.5 19zM104 144q2 29 9.5 61t21.5 61t34.5 51.5t47.5 33.5q-21 -71 -45 -147t-44 -140q-15 12 -20 34.5t-4 45.5zM310 258 q-2 -30 -10.5 -59t-22 -53.5t-31 -44t-38.5 -31.5q20 61 44.5 130t44.5 134q8 -15 10.5 -35t2.5 -41z" />
<glyph unicode="&#xf9;" horiz-adv-x="382" d="M114 448q-14 1 -23 -5.5t-15 -16.5t-8 -22.5t0 -22.5l-16 -297q-2 -54 16 -80t52 -26q22 0 47.5 7.5t47.5 16.5t36 16.5l14 7.5q-2 -26 7.5 -34t23.5 -8q22 0 36.5 14t5.5 51l18 338q8 46 1 61.5t-26 13.5q-20 -2 -30.5 -19t-16.5 -56l-13 -260q-9 -9 -22 -19.5t-28 -20 t-30.5 -15.5t-28.5 -6q-11 0 -24.5 3.5t-13.5 19.5l17 289q5 29 -1.5 49t-25.5 21zM262 499q8 4 13 7.5t6.5 9t0 14t-7.5 22.5q-6 17 -15.5 37t-20.5 39t-23 35.5t-22 25.5q-15 12 -27 17.5t-20.5 3t-11.5 -14.5t2 -35q4 -16 9 -27.5t11.5 -21.5t15.5 -19.5t21 -21.5 q31 -30 41 -45q13 -22 20.5 -23.5t7.5 -2.5z" />
<glyph unicode="&#xfa;" horiz-adv-x="382" d="M114 448q-14 1 -23 -5.5t-15 -16.5t-8 -22.5t0 -22.5l-16 -297q-2 -54 16 -80t52 -26q22 0 47.5 7.5t47.5 16.5t36 16.5l14 7.5q-2 -26 7.5 -34t23.5 -8q22 0 36.5 14t5.5 51l18 338q8 46 1 61.5t-26 13.5q-20 -2 -30.5 -19t-16.5 -56l-13 -260q-9 -9 -22 -19.5t-28 -20 t-30.5 -15.5t-28.5 -6q-11 0 -24.5 3.5t-13.5 19.5l17 289q5 29 -1.5 49t-25.5 21zM200 499h5t5 2.5t7.5 7.5t10.5 16q10 15 41 45q12 12 21 21.5t15.5 19.5t11.5 21.5t9 27.5q4 23 1 35t-11 14.5t-20.5 -3t-26.5 -17.5q-11 -9 -22.5 -25.5t-22.5 -35.5t-20.5 -39t-16.5 -37 q-5 -14 -7 -22.5t0 -14t7 -9t13 -7.5z" />
<glyph unicode="&#xfb;" horiz-adv-x="382" d="M114 448q-14 1 -23 -5.5t-15 -16.5t-8 -22.5t0 -22.5l-16 -297q-2 -54 16 -80t52 -26q22 0 47.5 7.5t47.5 16.5t36 16.5l14 7.5q-2 -26 7.5 -34t23.5 -8q22 0 36.5 14t5.5 51l18 338q8 46 1 61.5t-26 13.5q-20 -2 -30.5 -19t-16.5 -56l-13 -260q-9 -9 -22 -19.5t-28 -20 t-30.5 -15.5t-28.5 -6q-11 0 -24.5 3.5t-13.5 19.5l17 289q5 29 -1.5 49t-25.5 21zM343 539q0 15 -7 30l-65 123q-5 14 -12.5 24.5t-18.5 10.5q-12 0 -16.5 -6.5t-8.5 -15.5l-95 -129q-8 -9 -13 -16.5t-7 -20.5v-8q0 -7 5 -12.5t19 -10.5q9 -2 16.5 2.5t20.5 26.5l73 98 l49 -95q9 -24 21.5 -29t14.5 -3q14 7 18.5 13.5t5.5 17.5z" />
<glyph unicode="&#xfc;" horiz-adv-x="382" d="M114 448q-14 1 -23 -5.5t-15 -16.5t-8 -22.5t0 -22.5l-16 -297q-2 -54 16 -80t52 -26q22 0 47.5 7.5t47.5 16.5t36 16.5l14 7.5q-2 -26 7.5 -34t23.5 -8q22 0 36.5 14t5.5 51l18 338q8 46 1 61.5t-26 13.5q-20 -2 -30.5 -19t-16.5 -56l-13 -260q-9 -9 -22 -19.5t-28 -20 t-30.5 -15.5t-28.5 -6q-11 0 -24.5 3.5t-13.5 19.5l17 289q5 29 -1.5 49t-25.5 21zM202 577q1 9 0.5 21t-3.5 22t-10 17t-20 7t-24 -6.5t-19 -16.5t-13 -22.5t-6 -23.5q0 -11 3 -23t9 -22t14.5 -16.5t17.5 -6.5q13 0 22 7t15.5 17.5t9.5 22.5t4 23zM344 582q1 9 0.5 20.5 t-3.5 21.5t-10 17t-20 7t-24 -6.5t-19 -16.5t-13 -22.5t-5 -23.5q-1 -11 2 -23t9 -22t14.5 -16.5t17.5 -6.5q13 0 22.5 7t15.5 17.5t9.5 23t3.5 23.5z" />
<glyph unicode="&#xfd;" horiz-adv-x="346" d="M348 364q4 14 7.5 28t2 25t-8.5 18t-23 7q-22 0 -29 -10.5t-14 -30.5l-83 -287l-95 273q-3 9 -5.5 19.5t-7.5 18t-13 10.5t-22 -2q-20 -8 -26 -28t5 -53l126 -351l-14 -47l-6 -21t-10.5 -28t-15.5 -24.5t-21 -10.5q-10 0 -27.5 4t-33 0.5t-25 -20.5t-2.5 -59q4 -7 14 -10 t22 -4t25 -0.5t25 0.5q24 0 42.5 12t33 32t25 46t19.5 55zM184 499h5t5 2.5t7.5 7.5t10.5 16q10 15 41 45q12 12 21 21.5t15.5 19.5t11.5 21.5t9 27.5q4 23 1.5 35t-11 14.5t-20.5 -3t-27 -17.5q-11 -9 -22.5 -25.5t-22.5 -35.5t-20.5 -39t-15.5 -37q-6 -14 -7.5 -22.5 t0 -14t6.5 -9t13 -7.5z" />
<glyph unicode="&#xfe;" horiz-adv-x="397" d="M388 304q4 72 -18.5 113.5t-74.5 41.5q-36 0 -73.5 -11.5t-75.5 -43.5l8 152q3 34 2.5 53.5t-4 30t-10.5 13.5t-17 3q-17 0 -26.5 -5t-14 -17t-6 -31.5t-2.5 -48.5l-39 -774q-2 -34 2.5 -54t24.5 -15q23 6 32.5 20t10.5 45l11 208q18 -5 29 -2.5t15 2.5q36 0 75 27 t71 71.5t54.5 102t25.5 119.5zM140 295q4 9 17.5 20.5t32.5 21.5t42.5 16.5t48.5 6.5q20 0 28.5 -15t6.5 -41q-2 -44 -18 -86.5t-39.5 -76t-51.5 -54.5t-54 -21q-12 0 -19 5t-6 19z" />
<glyph unicode="&#xff;" horiz-adv-x="346" d="M348 364q4 14 7.5 28t2 25t-8.5 18t-23 7q-22 0 -29 -10.5t-14 -30.5l-83 -287l-95 273q-3 9 -5.5 19.5t-7.5 18t-13 10.5t-22 -2q-20 -8 -26 -28t5 -53l126 -351l-14 -47l-6 -21t-10.5 -28t-15.5 -24.5t-21 -10.5q-10 0 -27.5 4t-33 0.5t-25 -20.5t-2.5 -59q4 -7 14 -10 t22 -4t25 -0.5t25 0.5q24 0 42.5 12t33 32t25 46t19.5 55zM166 577q0 9 -0.5 21t-3.5 22t-10 17t-19 7q-13 0 -24 -6.5t-19.5 -16.5t-13.5 -22.5t-6 -23.5q0 -11 3 -23t9 -22t14.5 -16.5t18.5 -6.5q12 0 21.5 7t15.5 17.5t9.5 22.5t4.5 23zM307 582q1 9 1 20q0 12 -3.5 22 t-10.5 17t-20 7q-12 0 -23 -6.5t-19.5 -16.5t-13.5 -22.5t-5 -23.5q-1 -11 2.5 -23t9.5 -22t14 -16.5t17 -6.5q13 0 22.5 7t15.5 17.5t9.5 23t3.5 23.5z" />
<glyph unicode="&#x152;" horiz-adv-x="731" d="M730 69q2 29 -11.5 38.5t-42.5 7.5l-218 -25l13 202l169 25q10 2 18 2q15 0 27.5 8.5t14.5 37.5q1 8 -0.5 17t-8.5 15.5t-20 9.5t-34 0l-160 -27v7l11 163l187 16q19 1 32.5 1.5t22.5 4.5t13.5 13.5t6.5 28.5q1 20 -5.5 29.5t-18.5 12.5t-26.5 1.5t-29.5 -2.5 q-66 -6 -104 -8.5t-60 -2.5h-51q-10 0 -18 -4.5t-13 -11.5q-18 22 -43 34.5t-59 12.5q-38 0 -72.5 -20t-64.5 -53.5t-55 -76t-44 -88.5t-30 -91.5t-13 -83.5q-5 -68 3.5 -122.5t29 -92.5t51.5 -58t72 -20q53 0 101.5 32t86.5 87q-2 -21 -2 -38t5 -28.5t17 -17t35 -2.5 l234 23q34 0 44 14.5t10 29.5zM407 449q-1 -30 -3 -64.5t-4 -74.5q-8 -53 -26.5 -99t-44.5 -80.5t-58 -54t-66 -19.5q-27 0 -46 15t-30 42t-15 64.5t-1 83.5q3 44 20.5 100.5t45.5 106.5t63.5 84t73.5 34q23 0 39 -11t27 -30t17 -44t8 -53z" />
<glyph unicode="&#x153;" horiz-adv-x="617" d="M615 307q3 58 -25 95.5t-76 37.5q-43 0 -78.5 -23.5t-63.5 -61.5q-12 42 -38 69t-68 27q-53 0 -95 -29t-72 -74t-47 -99.5t-19 -104.5q-2 -32 3.5 -63.5t19 -56t37 -39.5t58.5 -15q42 0 80.5 21.5t70.5 59.5q10 -43 35 -63.5t63 -20.5t76 16t68.5 37.5t49.5 44.5t20 37 q2 23 -2 34.5t-17 11.5q-17 0 -23.5 -2.5t-22.5 -14.5q-14 -14 -30 -29t-33 -27t-34.5 -20t-35.5 -8q-5 0 -12 0.5t-13.5 4.5t-12.5 13.5t-9 27.5q-3 19 -2.5 31.5l0.5 12.5q41 13 84.5 29t79.5 36.5t59 46t25 58.5zM310 258q-2 -39 -15.5 -75.5t-34.5 -64.5t-48 -45 t-57 -17q-16 0 -26.5 8t-16 20.5t-7.5 28.5t-1 31q2 34 12.5 72t29.5 69.5t46.5 52t64.5 20.5q16 0 27 -8.5t17 -23t8 -32.5t1 -36zM544 321q-3 -14 -24.5 -33.5t-48.5 -36.5t-53.5 -27t-39.5 -4q7 33 21.5 59.5t32.5 45t37 29t36 10.5q22 0 31.5 -14.5t7.5 -28.5z" />
<glyph unicode="&#x178;" horiz-adv-x="458" d="M474 560q13 22 17.5 35.5t2.5 21.5t-7.5 13.5t-11.5 10.5q-8 6 -15.5 4t-15 -8t-16 -14.5t-17.5 -15.5l-155 -202l-118 181q-16 32 -28.5 53.5t-22.5 18.5q-11 -3 -21 -10t-14.5 -19t-2 -29t17.5 -40l144 -248l-16 -248q-2 -33 2.5 -56t24.5 -21q13 1 21 7.5t12.5 16.5 t6.5 22t3 25l17 254zM259 769q1 9 0.5 21t-3.5 22t-10 17t-20 7t-24 -6.5t-19 -16.5t-13 -22.5t-6 -23.5q0 -11 3 -23t9 -22t14.5 -16.5t17.5 -6.5q13 0 22 7t15.5 17.5t9.5 22.5t4 23zM401 774q1 9 0.5 20.5t-3.5 21.5t-10 17t-20 7t-24 -6.5t-19 -16.5t-13 -22.5t-5 -23.5 q-1 -11 2 -23t9 -22t14.5 -16.5t17.5 -6.5q13 0 22.5 7t15.5 17.5t9.5 23t3.5 23.5z" />
<glyph unicode="&#x2c6;" horiz-adv-x="300" d="M303 539q1 12 -7 30l-65 123q-4 14 -12 24.5t-19 10.5q-12 0 -16 -6.5t-9 -15.5l-95 -129q-8 -9 -12.5 -16.5t-6.5 -20.5v-8q0 -7 5 -12.5t19 -10.5q8 -2 15.5 2.5t20.5 26.5l73 98l50 -95q9 -24 21 -29t15 -3q14 7 18 13.5t5 17.5z" />
<glyph unicode="&#x2dc;" horiz-adv-x="369" d="M310 609q1 7 -4.5 14t-13 9t-15.5 -2t-12 -17q-1 -5 -2 -12.5t-3 -14.5t-6 -12.5t-11 -5.5q-10 0 -15.5 9t-11.5 20.5t-14 20.5t-23 9q-12 0 -26 -7t-26.5 -18t-21 -25t-9.5 -29q-2 -12 5.5 -21t19.5 -9q7 0 13 7.5t12 16t12 16t13 7.5q6 0 11 -8t11.5 -18t16 -18 t25.5 -8q33 0 52.5 19.5t22.5 76.5z" />
<glyph unicode="&#x2000;" horiz-adv-x="481" />
<glyph unicode="&#x2001;" horiz-adv-x="962" />
<glyph unicode="&#x2002;" horiz-adv-x="481" />
<glyph unicode="&#x2003;" horiz-adv-x="962" />
<glyph unicode="&#x2004;" horiz-adv-x="320" />
<glyph unicode="&#x2005;" horiz-adv-x="240" />
<glyph unicode="&#x2006;" horiz-adv-x="160" />
<glyph unicode="&#x2007;" horiz-adv-x="160" />
<glyph unicode="&#x2008;" horiz-adv-x="120" />
<glyph unicode="&#x2009;" horiz-adv-x="192" />
<glyph unicode="&#x200a;" horiz-adv-x="53" />
<glyph unicode="&#x2010;" horiz-adv-x="289" d="M262 234q17 0 26.5 14.5t9.5 31.5t-11.5 31.5t-35.5 14.5q-9 0 -21.5 1.5t-20.5 -2.5h-103q-2 1 -9 1q-8 0 -17 -1.5t-13 -1.5q-20 0 -29 -14.5t-8.5 -31.5t10.5 -31.5t29 -14.5q8 0 20 -3.5t20 4.5l101 1z" />
<glyph unicode="&#x2011;" horiz-adv-x="289" d="M262 234q17 0 26.5 14.5t9.5 31.5t-11.5 31.5t-35.5 14.5q-9 0 -21.5 1.5t-20.5 -2.5h-103q-2 1 -9 1q-8 0 -17 -1.5t-13 -1.5q-20 0 -29 -14.5t-8.5 -31.5t10.5 -31.5t29 -14.5q8 0 20 -3.5t20 4.5l101 1z" />
<glyph unicode="&#x2012;" horiz-adv-x="289" d="M262 234q17 0 26.5 14.5t9.5 31.5t-11.5 31.5t-35.5 14.5q-9 0 -21.5 1.5t-20.5 -2.5h-103q-2 1 -9 1q-8 0 -17 -1.5t-13 -1.5q-20 0 -29 -14.5t-8.5 -31.5t10.5 -31.5t29 -14.5q8 0 20 -3.5t20 4.5l101 1z" />
<glyph unicode="&#x2013;" horiz-adv-x="407" d="M334 320h-229q-5 4 -16.5 1t-16.5 -3q-22 0 -33.5 -14t-13 -31t7 -31t28.5 -14q7 0 20 -3t21 2h224q8 -5 19 -2t16 3q19 0 31 14.5t15 32t-4.5 32t-27.5 14.5z" />
<glyph unicode="&#x2014;" horiz-adv-x="565" d="M492 319l-387 1q-5 4 -16.5 1t-16.5 -3q-22 0 -33.5 -14t-13 -31t7 -31t28.5 -14q7 0 20 -3t21 2l382 -1q8 -5 19 -2t15 3q19 0 31 14.5t15 32t-4.5 32t-27.5 14.5z" />
<glyph unicode="&#x2018;" horiz-adv-x="143" d="M124 450l-15 125q-2 13 -2.5 26.5t-4.5 25t-12 19t-23 7.5q-13 0 -19.5 -7t-8 -18.5t0 -26t3.5 -29.5l16 -123q4 -32 11 -55t27 -25t26.5 21.5t1.5 58.5z" />
<glyph unicode="&#x2019;" horiz-adv-x="112" d="M89 449l23 128q0 10 1.5 23.5t0 25t-7.5 19.5t-21 8q-12 0 -20.5 -7t-13.5 -19t-8.5 -27t-4.5 -31l-15 -119l-2.5 -11.5t-2.5 -26.5q0 -14 4 -27t17 -16q8 -2 16 3.5t14.5 16.5t12 26.5t7.5 33.5z" />
<glyph unicode="&#x201a;" horiz-adv-x="112" d="M89 -60l23 128q0 10 1.5 23.5t0 25t-7.5 19.5t-21 8q-12 0 -20.5 -7t-13.5 -19t-8.5 -27t-4.5 -31l-15 -119l-2.5 -11.5t-2.5 -26.5q0 -14 4 -27t17 -16q8 -2 16 3.5t14.5 16.5t12 26.5t7.5 33.5z" />
<glyph unicode="&#x201c;" horiz-adv-x="276" d="M87 449l-11 128q-2 11 -4.5 24t-7.5 24.5t-13 19.5t-22 8q-12 0 -18.5 -7t-9 -19t-1.5 -27t4 -31l17 -119l0.5 -11.5t4 -26t11 -27.5t21.5 -16q17 -4 25.5 20t3.5 60zM217 450l-15 125q-2 13 -2.5 26.5t-4.5 25t-12 19t-23 7.5q-13 0 -19.5 -7t-8 -18.5t0 -26t3.5 -29.5 l16 -123q4 -32 11 -55t27 -25t26.5 21.5t1.5 58.5z" />
<glyph unicode="&#x201d;" horiz-adv-x="237" d="M89 449l23 128q0 10 1.5 23.5t0 25t-7.5 19.5t-21 8q-12 0 -20.5 -7t-13.5 -19t-8.5 -27t-4.5 -31l-15 -119l-2.5 -11.5t-2.5 -26.5q0 -14 4 -27t17 -16q8 -2 16 3.5t14.5 16.5t12 26.5t7.5 33.5zM220 450l17 125q2 13 5 26.5t2.5 25t-6.5 19t-21 7.5q-14 0 -22 -7 t-13 -18.5t-7 -26t-3 -29.5l-18 -123q-5 -32 -3 -55t20 -25q21 -2 33 21.5t16 58.5v1z" />
<glyph unicode="&#x201e;" horiz-adv-x="237" d="M89 -64l23 128q0 10 1.5 23.5t0 25t-7.5 19.5t-21 8q-12 0 -20.5 -7t-13.5 -19t-8.5 -27t-4.5 -31l-15 -119l-2.5 -11.5t-2.5 -26.5q0 -14 4 -27t17 -16q8 -2 16 3.5t14.5 16.5t12 26.5t7.5 33.5zM220 -63l17 125q2 13 5 26.5t2.5 25t-6.5 19t-21 7.5q-14 0 -22 -7 t-13 -18.5t-7 -26t-3 -29.5l-18 -123q-5 -32 -3 -55t20 -25q21 -2 33 21.5t16 58.5v1z" />
<glyph unicode="&#x2022;" horiz-adv-x="212" d="M196 285q1 17 0.5 38t-6.5 39t-18.5 30.5t-35.5 12.5t-42.5 -12t-34.5 -30.5t-24 -40.5t-10 -42q-2 -21 4 -42.5t17 -39.5t26 -29.5t32 -11.5q23 0 40 12.5t28 32t17 41.5t7 42z" />
<glyph unicode="&#x2026;" horiz-adv-x="516" d="M142 84q1 11 0.5 24.5t-4 25t-11.5 19.5t-23 8t-28 -7.5t-22.5 -19.5t-15 -26t-6.5 -27t3 -27t11 -25.5t16.5 -19t20.5 -7.5q15 0 26 8t18 20.5t10.5 27t4.5 26.5zM316 81q1 11 0.5 24.5t-4 25t-11.5 19.5t-23 8t-28 -7.5t-22.5 -19.5t-15 -26t-6.5 -27t3 -27t11 -25.5 t16.5 -19t20.5 -7.5q15 0 26 8t18 20.5t10.5 27t4.5 26.5zM485 83q1 11 0.5 24.5t-4 25t-11.5 19.5t-23 8t-28 -7.5t-22.5 -19.5t-15 -26t-6.5 -27t3 -27t11 -25.5t16.5 -19t20.5 -7.5q15 0 26 8t18 20.5t10.5 27t4.5 26.5z" />
<glyph unicode="&#x202f;" horiz-adv-x="192" />
<glyph unicode="&#x2039;" horiz-adv-x="200" d="M169 462q-11 2 -23 -9l-92 -87q-11 -5 -18.5 -16t-7.5 -25q0 -16 4.5 -22t11.5 -11l97 -127q7 -10 12.5 -17t15.5 -9h6q5 0 9 6.5t8 25.5q2 11 -1.5 21.5t-20.5 27.5l-73 97l71 66q18 12 22 28t2 20q-5 18 -10 24t-13 7z" />
<glyph unicode="&#x203a;" horiz-adv-x="200" d="M52 462q-9 -1 -14 -7t-10 -24q-2 -4 2 -20t22 -28l72 -66l-74 -97q-17 -17 -20.5 -27.5t-1.5 -21.5q5 -19 9 -25.5t9 -6.5h6q9 2 14.5 9t12.5 17l97 127q7 5 12 11t5 22q0 14 -8 25t-19 16l-92 87q-12 11 -22 9z" />
<glyph unicode="&#x205f;" horiz-adv-x="240" />
<glyph unicode="&#x20ac;" horiz-adv-x="449" d="M310 294q-11 0 -16 -4.5l-5 -4.5h-151q3 27 7.5 53t12.5 52h134q7 -5 12 -6t10 -1q20 0 29.5 14t11.5 38q2 22 -6 40t-24 18q-11 0 -18 -5l-7 -5h-105q24 46 55 74.5t68 28.5q23 0 35.5 -4.5t19.5 -12.5q20 -24 31.5 -39.5t13.5 -15.5q14 0 24.5 10t15 25t2 32.5 t-14.5 32.5q-29 35 -61 48t-68 13q-30 0 -58.5 -14.5t-54 -40t-48 -60.5t-40.5 -77h-42q-6 6 -12.5 7t-9.5 1q-19 0 -29 -17.5t-11 -38t6.5 -38t24.5 -17.5q16 0 25 10h17q-7 -26 -12 -52t-8 -53h-4q-5 5 -11 6t-11 1q-18 0 -28 -17.5t-11.5 -38t6 -38t25.5 -17.5q8 0 27 11 h4q2 -47 12.5 -87.5t29 -70.5t44 -47t58.5 -17q34 0 67 15t61.5 39t51 53.5t36.5 58.5q13 25 7.5 40t-20.5 17.5t-33.5 -8t-31.5 -35.5q-6 -14 -19.5 -30.5t-30.5 -30t-36 -22.5t-35 -9q-22 0 -38 10.5t-26.5 28.5t-16 42.5t-7.5 52.5h147q8 -5 12 -5.5t7 -0.5q20 0 31.5 17 t14 37t-6 37t-29.5 17z" />
<glyph unicode="&#x2122;" horiz-adv-x="602" d="M574 291l22 343q0 25 -5.5 32.5t-18.5 9.5q-5 1 -16.5 -15.5t-21.5 -37.5q-42 -91 -65.5 -137.5t-32.5 -67.5q-7 -14 -10.5 -24.5t-6 -14.5t-4.5 0t-6 19q-6 21 -13.5 45.5t-14 46t-11.5 37.5t-6 19q-4 16 -9.5 33.5t-10 31.5t-7.5 23t-3 8q-5 17 -12 26t-14.5 9.5 t-13.5 -8t-7 -26.5l-27 -354q0 -25 5.5 -33.5t16.5 -10.5q6 -2 10.5 3t7.5 12.5t4.5 16t1.5 14.5l15 231q12 -38 25.5 -78t24.5 -78q4 -14 5.5 -20.5t3 -10.5t3.5 -8t5 -13q1 -5 7 -10.5t13.5 -7t16 2t15.5 17.5q5 9 7.5 14.5t4 10.5t4 12t7.5 20q4 10 13.5 27.5t20.5 39.5 t23.5 45.5t24.5 45.5l-17 -244q-3 -17 0.5 -28.5t17.5 -13.5q17 -2 23 13t5 33zM266 652q2 17 -6 24.5t-22 4.5q-21 -5 -38.5 -9.5t-36.5 -10t-44 -12t-61 -15.5q-13 -5 -24.5 -11t-13.5 -22q-1 -14 7.5 -21.5t30.5 -3.5l57 16l-20 -313q0 -6 -0.5 -13.5t0.5 -14t5 -11 t13 -4.5q16 0 20 10t7 33l21 324l68 17q22 8 29 14t8 18z" />
<glyph unicode="&#xe000;" horiz-adv-x="450" d="M0 450h450v-450h-450v450z" />
</font>
</defs>
</svg>
